<?xml version="1.0" encoding="UTF-8"?>
<!-- Created with Inkscape (http://www.inkscape.org/) -->
<svg width="44.979mm" height="50.271mm" version="1.1" viewBox="0 0 44.979 50.271" xml:space="preserve" xmlns="http://www.w3.org/2000/svg" xmlns:xlink="http://www.w3.org/1999/xlink"><defs/><g transform="translate(-96.137 -22.885)"><g fill="none" stroke="#000"><path d="m108.6 62.945h19.947v-24.968s-2.4968-4.9797-2.4968-4.9797h-14.925s-2.5108 5.0076-2.5108 5.0076z" stroke-width=".3"/><g stroke-width=".15"><path transform="translate(7.3374 -65.213)" d="m123.65 110.73h5.2307"/><path transform="translate(-22.635 -65.212)" d="m123.65 110.73h5.2307"/><path transform="rotate(90 163.78 65.52)" d="m123.65 110.73h5.2307"/><path transform="rotate(90 143.76 85.529)" d="m123.65 110.73h5.2307"/></g><path d="m108.54 40.501h20.081" stroke-width=".3"/><path transform="translate(0 7.4969)" d="m108.54 40.501h20.081" stroke-width=".3"/></g><g><circle cx="111.11" cy="45.529" r=".47123"/><circle cx="113.61" cy="43.016" r=".47123"/><circle cx="116.11" cy="45.529" r=".47123"/><circle cx="121.07" cy="45.529" r=".47123"/><circle cx="126.08" cy="45.529" r=".47123"/><circle cx="123.55" cy="43.016" r=".47123"/><circle cx="118.57" cy="43.016" r=".47123"/></g></g></svg>
