<?xml version="1.0" encoding="UTF-8"?>
<!-- Created with Inkscape (http://www.inkscape.org/) -->
<svg width="44.979mm" height="50.271mm" version="1.1" viewBox="0 0 44.979 50.271" xml:space="preserve" xmlns="http://www.w3.org/2000/svg" xmlns:xlink="http://www.w3.org/1999/xlink"><defs/><g transform="translate(-96.137 -22.885)"><g fill="none" stroke="#000"><g><path d="m108.6 62.945h19.947v-24.968s-2.4968-4.9797-2.4968-4.9797h-14.925s-2.5108 5.0076-2.5108 5.0076z" stroke-width=".3"/><g stroke-width=".15"><path transform="translate(7.3161 -70.224)" d="m123.65 110.73h5.2307"/><path transform="translate(-22.597 -70.217)" d="m123.65 110.73h5.2307"/><path transform="rotate(90 163.78 65.52)" d="m123.65 110.73h5.2307"/><path transform="rotate(90 143.76 85.529)" d="m123.65 110.73h5.2307"/></g></g><circle cx="118.62" cy="42.982" r="4.9944" stroke-linecap="round" stroke-width=".3"/><path d="m113.49 37.514c0.17753-0.13808 0.35507-0.27617 0.54576-0.4159 0.19069-0.13973 0.39452-0.2811 0.57864-0.39946 0.18411-0.11836 0.3485-0.2137 0.52275-0.30741 0.17425-0.0937 0.35836-0.18576 0.55727-0.27617 0.19891-0.09041 0.41261-0.17918 0.6296-0.25644 0.21699-0.07726 0.43726-0.14301 0.65754-0.19397s0.44056-0.08713 0.65919-0.11178c0.21864-0.02466 0.43562-0.03781 0.68714-0.04438 0.25151-0.0066 0.53754-0.0066 0.79069 0.0082 0.25316 0.01479 0.47343 0.04439 0.72495 0.08877 0.25151 0.04438 0.53425 0.10356 0.7759 0.1726 0.24165 0.06904 0.4422 0.14795 0.62138 0.22192 0.17918 0.07397 0.33699 0.14302 0.50631 0.22357s0.35014 0.1726 0.51782 0.26466c0.16767 0.09206 0.32219 0.18411 0.46192 0.27288 0.13973 0.08877 0.26466 0.17425 0.37317 0.25481 0.10851 0.08056 0.20054 0.15616 0.29753 0.24 0.097 0.08384 0.1989 0.17589 0.30082 0.26795" stroke-width=".3"/></g></g></svg>
