<?xml version="1.0" encoding="UTF-8"?>
<!-- Created with Inkscape (http://www.inkscape.org/) -->
<svg width="44.979mm" height="50.271mm" version="1.1" viewBox="0 0 44.979 50.271" xml:space="preserve" xmlns="http://www.w3.org/2000/svg" xmlns:xlink="http://www.w3.org/1999/xlink"><defs/><g transform="translate(-96.137 -22.885)" fill="none" stroke="#000"><path d="m108.6 62.945h19.947v-24.968s-2.4968-4.9797-2.4968-4.9797h-14.925s-2.5108 5.0076-2.5108 5.0076z" stroke-width=".3"/><g stroke-width=".15"><path transform="translate(7.3161 -72.721)" d="m123.65 110.73h5.2307"/><path transform="translate(-22.633 -50.267)" d="m123.65 110.73h5.2307"/><path transform="rotate(90 163.78 65.52)" d="m123.65 110.73h5.2307"/><path transform="rotate(90 143.76 85.529)" d="m123.65 110.73h5.2307"/></g><g stroke-width=".3"><path transform="translate(0 .049316)" d="m115.96 35.569c0.88604-0.88604 1.7721-1.7721 2.6581-2.6581"/><path transform="matrix(-1 0 0 1 237.14 .049316)" d="m115.96 35.569c0.88604-0.88604 1.7721-1.7721 2.6581-2.6581"/><path transform="translate(.019726 .049316)" d="m118.57 35.658v-2.7518"/></g></g></svg>
