<?xml version="1.0" encoding="utf-8" standalone="no"?>
<!DOCTYPE svg PUBLIC "-//W3C//DTD SVG 1.1//EN"
  "http://www.w3.org/Graphics/SVG/1.1/DTD/svg11.dtd">
<svg xmlns:xlink="http://www.w3.org/1999/xlink" width="532.8pt" height="360pt" viewBox="0 0 532.8 360" xmlns="http://www.w3.org/2000/svg" version="1.1">
 <metadata>
  <rdf:RDF xmlns:dc="http://purl.org/dc/elements/1.1/" xmlns:cc="http://creativecommons.org/ns#" xmlns:rdf="http://www.w3.org/1999/02/22-rdf-syntax-ns#">
   <cc:Work>
    <dc:type rdf:resource="http://purl.org/dc/dcmitype/StillImage"/>
    <dc:date>2026-02-17T12:14:00.359294</dc:date>
    <dc:format>image/svg+xml</dc:format>
    <dc:creator>
     <cc:Agent>
      <dc:title>Matplotlib v3.10.8, https://matplotlib.org/</dc:title>
     </cc:Agent>
    </dc:creator>
   </cc:Work>
  </rdf:RDF>
 </metadata>
 <defs>
  <style type="text/css">*{stroke-linejoin: round; stroke-linecap: butt}</style>
 </defs>
 <g id="figure_1">
  <g id="patch_1">
   <path d="M 0 360 
L 532.8 360 
L 532.8 0 
L 0 0 
L 0 360 
z
" style="fill: none"/>
  </g>
  <g id="axes_1">
   <g id="patch_2">
    <path d="M 344.945455 180 
C 344.945455 266.758913 274.613459 337.090909 187.854545 337.090909 
C 101.095632 337.090909 30.763636 266.758913 30.763636 180 
C 30.763636 93.241087 101.095632 22.909091 187.854545 22.909091 
C 274.613459 22.909091 344.945455 93.241087 344.945455 180 
" clip-path="url(#pc9c549bfcb)" style="fill: none; stroke: #000000; stroke-width: 0.72; stroke-linejoin: miter"/>
   </g>
   <g id="line2d_1">
    <path d="M 502.036364 180 
L 266.503395 44.01503 
" clip-path="url(#pc9c549bfcb)" style="fill: none; stroke: #000000; stroke-width: 0.72; stroke-linecap: square"/>
   </g>
   <g id="line2d_2">
    <path d="M 502.036364 180 
L 266.503395 315.98497 
" clip-path="url(#pc9c549bfcb)" style="fill: none; stroke: #000000; stroke-width: 0.72; stroke-linecap: square"/>
   </g>
   <g id="patch_3">
    <path d="M 344.945455 180 
C 344.945455 266.758913 274.613459 337.090909 187.854545 337.090909 
C 101.095632 337.090909 30.763636 266.758913 30.763636 180 
C 30.763636 93.241087 101.095632 22.909091 187.854545 22.909091 
C 274.613459 22.909091 344.945455 93.241087 344.945455 180 
" clip-path="url(#pc9c549bfcb)" style="fill: none; stroke: #000000; stroke-width: 0.72; stroke-linejoin: miter"/>
   </g>
   <g id="line2d_3">
    <path d="M 502.036364 180 
L 266.503395 44.01503 
" clip-path="url(#pc9c549bfcb)" style="fill: none; stroke: #000000; stroke-width: 0.72; stroke-linecap: square"/>
   </g>
   <g id="line2d_4">
    <path d="M 502.036364 180 
L 266.503395 315.98497 
" clip-path="url(#pc9c549bfcb)" style="fill: none; stroke: #000000; stroke-width: 0.72; stroke-linecap: square"/>
   </g>
  </g>
 </g>
 <defs>
  <clipPath id="pc9c549bfcb">
   <rect x="7.2" y="7.2" width="518.4" height="345.6"/>
  </clipPath>
 </defs>
</svg>
