<svg width="63.5mm" height="37.042mm" version="1.1" viewBox="0 0 63.5 37.042" xml:space="preserve" xmlns="http://www.w3.org/2000/svg" xmlns:xlink="http://www.w3.org/1999/xlink"><defs/><g transform="translate(1.6603 7.1724)"><g transform="matrix(.26458 0 0 .26458 -1.7661 -25.487)" stroke="#000" stroke-width="1.1339"><rect x="63.781" y="134.44" width="113.32" height="37.733" fill="none" pointer-events="all" stroke="#000" stroke-width="1.1339"/></g><g fill="none" stroke="#000"><g stroke-width=".15"><path d="m7.5736 20.193v-5.1119h5.123" style="paint-order:markers fill stroke"/><path d="m52.606 20.194v-5.1119h-5.123" style="paint-order:markers fill stroke"/><path d="m30.089 2.4783v5.2283" style="paint-order:markers fill stroke"/></g><g stroke-width=".3"><circle cx="20.07" cy="15.087" r="2.5082" style="paint-order:markers fill stroke"/><circle cx="40.108" cy="15.087" r="2.5082" style="paint-order:markers fill stroke"/><path d="m19.979 12.578h20.198" style="paint-order:markers fill stroke"/><path d="m20.004 17.595h20.198" style="paint-order:markers fill stroke"/></g></g><path d="m27.323 15.07h5.622" fill="none" stroke="#000" stroke-width=".3" style="paint-order:markers fill stroke"/><path d="m25.052 15.094s2.564-0.7096 2.564-0.7096v1.4114s-2.564-0.70176-2.564-0.70176z" style="paint-order:markers fill stroke"/><path d="m35.103 15.094s-2.564-0.7096-2.564-0.7096v1.4114s2.564-0.70176 2.564-0.70176z" style="paint-order:markers fill stroke"/></g></svg>
