<svg width="63.5mm" height="37.042mm" version="1.1" viewBox="0 0 63.5 37.042" xml:space="preserve" xmlns="http://www.w3.org/2000/svg" xmlns:xlink="http://www.w3.org/1999/xlink"><defs/><g transform="translate(1.7845 13.426)"><g fill="none" stroke="#000"><path d="m37.451 2.5174v5.2283" stroke-width=".15" style="paint-order:markers fill stroke"/><path d="m22.487 2.521v5.2283" stroke-width=".15" style="paint-order:markers fill stroke"/><g transform="rotate(90 35.018 10.027)" stroke-width=".3"><circle cx="20.147" cy="15.087" r="2.5082" style="paint-order:markers fill stroke"/><circle cx="40.108" cy="15.087" r="2.5082" style="paint-order:markers fill stroke"/><path d="m19.979 12.578h20.198" style="paint-order:markers fill stroke"/><path d="m20.004 17.595h20.198" style="paint-order:markers fill stroke"/></g><path d="m27.498 10.126h-5.0343c0.01109 0.17557 0.0222 0.35142 0.04717 0.53717 0.02497 0.18575 0.06378 0.38165 0.11185 0.56924 0.04807 0.18759 0.10536 0.36685 0.17283 0.55444 0.06747 0.18759 0.14509 0.38348 0.22552 0.54704 0.08043 0.16356 0.16359 0.29477 0.2671 0.44169 0.10351 0.14692 0.22733 0.30955 0.34378 0.45278 0.11644 0.14322 0.22548 0.26705 0.33731 0.38162 0.11183 0.11457 0.22641 0.21991 0.34932 0.32247s0.25412 0.20235 0.39736 0.30677c0.14323 0.10441 0.29847 0.21345 0.43247 0.29381 0.134 0.08036 0.24673 0.13211 0.37702 0.18384 0.13029 0.05173 0.27814 0.10348 0.42414 0.1543 0.146 0.05082 0.29015 0.10072 0.43245 0.13765 0.1423 0.03693 0.28275 0.06095 0.41211 0.07757s0.24764 0.02586 0.37145 0.03047c0.12382 0.0046 0.25292 0.0046 0.38228 0.0046" stroke-width=".3" style="paint-order:markers fill stroke"/><path d="m32.427 0.11893h5.0343c-0.01109-0.17557-0.0222-0.35142-0.04717-0.53717-0.02497-0.18575-0.06378-0.38165-0.11185-0.56924-0.04807-0.18759-0.10536-0.36685-0.17283-0.55444s-0.14509-0.38348-0.22552-0.54704c-0.08043-0.16355-0.16359-0.29477-0.2671-0.44169-0.10351-0.14692-0.22733-0.30955-0.34378-0.45277-0.11644-0.14322-0.22548-0.26705-0.33731-0.38162-0.11183-0.11457-0.22641-0.21991-0.34932-0.32247-0.12291-0.10256-0.25412-0.20235-0.39736-0.30677-0.14323-0.10441-0.29847-0.21345-0.43247-0.29381-0.134-0.080361-0.24673-0.13211-0.37702-0.18384-0.13029-0.05173-0.27814-0.10348-0.42414-0.1543-0.146-0.050823-0.29015-0.10072-0.43245-0.13765-0.1423-0.036932-0.28275-0.060956-0.41211-0.077572-0.12936-0.016617-0.24764-0.025857-0.37145-0.030466-0.12382-0.00461-0.25292-0.00461-0.38228-0.00461" stroke-width=".3" style="paint-order:markers fill stroke"/></g><rect x="19.986" y="-9.8921" width="19.959" height="29.974" fill="none" stroke="#000" stroke-width=".3" style="paint-order:markers fill stroke"/></g></svg>
