<svg width="63.5mm" height="37.042mm" version="1.1" viewBox="0 0 63.5 37.042" xml:space="preserve" xmlns="http://www.w3.org/2000/svg" xmlns:xlink="http://www.w3.org/1999/xlink"><defs/><g transform="translate(2.2199 59.344)"><g fill="none" stroke="#000"><path d="m12.049-43.386v5.2283" stroke-width=".15" style="paint-order:markers fill stroke"/><path d="m47.064-43.381v5.2283" stroke-width=".15" style="paint-order:markers fill stroke"/><g transform="translate(-10.507 -45.932)" stroke-width=".3"><circle cx="20.07" cy="15.087" r="2.5082" style="paint-order:markers fill stroke"/><circle cx="40.108" cy="15.087" r="2.5082" style="paint-order:markers fill stroke"/><path d="m19.979 12.578h20.198" style="paint-order:markers fill stroke"/><path d="m20.004 17.595h20.198" style="paint-order:markers fill stroke"/></g><g transform="translate(9.4515 -66.004)" stroke-width=".3"><circle cx="20.147" cy="15.087" r="2.5082" style="paint-order:markers fill stroke"/><circle cx="40.108" cy="15.087" r="2.5082" style="paint-order:markers fill stroke"/><path d="m19.979 12.578h20.198" style="paint-order:markers fill stroke"/><path d="m20.004 17.595h20.198" style="paint-order:markers fill stroke"/></g><g transform="rotate(90 57.837 -13.15)" stroke-width=".3"><path d="m19.979 12.578h20.198" style="paint-order:markers fill stroke"/><path d="m20.004 17.595h20.198" style="paint-order:markers fill stroke"/></g><path d="m4.5141-35.867h20.048v-19.96h29.984v9.9798h-20.004v20.026h-30.012l-0.016613-10.046h1.1e-6z" stroke-width=".3" style="paint-order:markers fill stroke"/></g></g></svg>
