<svg width="63.5mm" height="37.042mm" version="1.1" viewBox="0 0 63.5 37.042" xml:space="preserve" xmlns="http://www.w3.org/2000/svg" xmlns:xlink="http://www.w3.org/1999/xlink"><defs/><g transform="translate(1.6835 7.177)"><rect x="22.582" y="2.6029" width="14.97" height="17.482" fill="none" stroke="#000" stroke-width=".3" style="paint-order:markers fill stroke"/><path d="m26.316 16.32h10.168" fill="none" stroke="#000" stroke-width=".3" style="paint-order:markers fill stroke"/><path d="m23.887 16.348s2.5393-0.72631 2.5393-0.72631v1.4249l-2.5393-0.69859z" style="paint-order:markers fill stroke"/><path d="m23.549 13.884h12.906" stroke="#000" stroke-width=".3" style="paint-order:markers fill stroke"/><g fill="none" stroke="#000" stroke-width=".3"><path d="m25.007 13.868v-7.5273h5.0025v1.2702h4.9711v6.2884" style="paint-order:markers fill stroke"/><path d="m25.007 12.598h10.005" style="paint-order:markers fill stroke"/><path d="m24.989 11.326h10.005" style="paint-order:markers fill stroke"/><path d="m24.944 10.089h10.005" style="paint-order:markers fill stroke"/><path d="m24.976 8.8341h10.005" style="paint-order:markers fill stroke"/><path d="m25.007 7.5796h5.2377" style="paint-order:markers fill stroke"/><path d="m27.524 7.5599v1.3528" style="paint-order:markers fill stroke"/><path d="m32.492 7.5377v1.3528" style="paint-order:markers fill stroke"/><path d="m30.019 8.824v1.3528" style="paint-order:markers fill stroke"/><path d="m27.535 10.044v1.3528" style="paint-order:markers fill stroke"/><path d="m30.019 11.252v1.3528" style="paint-order:markers fill stroke"/><path d="m32.492 9.9994v1.3528" style="paint-order:markers fill stroke"/><path d="m27.535 12.517v1.3528" style="paint-order:markers fill stroke"/><path d="m32.492 12.561v1.3528" style="paint-order:markers fill stroke"/></g></g></svg>
