<?xml version="1.0" encoding="utf-8" standalone="no"?>
<!DOCTYPE svg PUBLIC "-//W3C//DTD SVG 1.1//EN"
  "http://www.w3.org/Graphics/SVG/1.1/DTD/svg11.dtd">
<svg xmlns:xlink="http://www.w3.org/1999/xlink" width="1166.4pt" height="158.4pt" viewBox="0 0 1166.4 158.4" xmlns="http://www.w3.org/2000/svg" version="1.1">
 <metadata>
  <rdf:RDF xmlns:dc="http://purl.org/dc/elements/1.1/" xmlns:cc="http://creativecommons.org/ns#" xmlns:rdf="http://www.w3.org/1999/02/22-rdf-syntax-ns#">
   <cc:Work>
    <dc:type rdf:resource="http://purl.org/dc/dcmitype/StillImage"/>
    <dc:date>2026-02-17T12:13:29.935153</dc:date>
    <dc:format>image/svg+xml</dc:format>
    <dc:creator>
     <cc:Agent>
      <dc:title>Matplotlib v3.10.8, https://matplotlib.org/</dc:title>
     </cc:Agent>
    </dc:creator>
   </cc:Work>
  </rdf:RDF>
 </metadata>
 <defs>
  <style type="text/css">*{stroke-linejoin: round; stroke-linecap: butt}</style>
 </defs>
 <g id="figure_1">
  <g id="patch_1">
   <path d="M 0 158.4 
L 1166.4 158.4 
L 1166.4 0 
L 0 0 
L 0 158.4 
z
" style="fill: none"/>
  </g>
  <g id="axes_1">
   <g id="patch_2">
    <path d="M 808.820094 75.730958 
Q 808.820094 79.379596 810.408103 82.650138 
Q 811.996111 85.920679 815.077604 87.811165 
Q 818.159097 89.701652 822.072404 89.701652 
Q 825.683233 89.701652 828.802535 87.990762 
Q 831.921838 86.279871 833.623275 82.952615 
Q 835.324713 79.625359 835.324713 75.409575 
Q 835.324713 71.250505 833.708347 67.970511 
Q 832.091981 64.690517 829.010489 62.856745 
Q 825.928996 61.022974 822.091309 61.022974 
Q 816.230801 61.022974 812.525448 64.926828 
Q 808.820094 68.830682 808.820094 75.730958 
M 207.36186 75.730958 
Q 207.36186 79.379596 208.949868 82.650138 
Q 210.537877 85.920679 213.61937 87.811165 
Q 216.700862 89.701652 220.614169 89.701652 
Q 224.224998 89.701652 227.344301 87.990762 
Q 230.463603 86.279871 232.165041 82.952615 
Q 233.866478 79.625359 233.866478 75.409575 
Q 233.866478 71.250505 232.250113 67.970511 
Q 230.633747 64.690517 227.552254 62.856745 
Q 224.470761 61.022974 220.633074 61.022974 
Q 214.772566 61.022974 211.067213 64.926828 
Q 207.36186 68.830682 207.36186 75.730958 
M 503.922455 89.22903 
L 507.589998 89.22903 
L 507.589998 64.785042 
L 516.758857 64.785042 
L 516.758857 61.5145 
L 494.791406 61.5145 
L 494.791406 64.785042 
L 503.922455 64.785042 
L 503.922455 89.22903 
M 103.630873 89.22903 
L 107.298417 89.22903 
L 107.298417 64.785042 
L 116.467276 64.785042 
L 116.467276 61.5145 
L 94.499824 61.5145 
L 94.499824 64.785042 
L 103.630873 64.785042 
L 103.630873 89.22903 
M 705.089108 89.22903 
L 708.756651 89.22903 
L 708.756651 64.785042 
L 717.92551 64.785042 
L 717.92551 61.5145 
L 695.958059 61.5145 
L 695.958059 64.785042 
L 705.089108 64.785042 
L 705.089108 89.22903 
M 61.113835 89.701652 
L 63.949565 89.701652 
L 65.594288 81.64818 
L 71.530415 81.64818 
L 69.904597 89.701652 
L 72.740326 89.701652 
L 74.385049 81.64818 
L 80.207747 81.64818 
L 80.207747 78.831355 
L 74.952195 78.831355 
L 76.37006 71.96889 
L 80.207747 71.96889 
L 80.207747 69.152065 
L 76.937206 69.152065 
L 78.581929 61.041879 
L 75.727295 61.041879 
L 74.082572 69.152065 
L 68.12754 69.152065 
L 69.772263 61.041879 
L 66.936533 61.041879 
L 65.29181 69.152065 
L 59.563636 69.152065 
L 59.563636 71.96889 
L 64.724664 71.96889 
L 63.325704 78.831355 
L 59.563636 78.831355 
L 59.563636 81.64818 
L 62.758558 81.64818 
L 61.113835 89.701652 
M 639.961853 89.701652 
L 642.797582 89.701652 
L 644.442306 81.64818 
L 650.378433 81.64818 
L 648.752614 89.701652 
L 651.588344 89.701652 
L 653.233067 81.64818 
L 659.055765 81.64818 
L 659.055765 78.831355 
L 653.800213 78.831355 
L 655.218078 71.96889 
L 659.055765 71.96889 
L 659.055765 69.152065 
L 655.785224 69.152065 
L 657.429947 61.041879 
L 654.575312 61.041879 
L 652.930589 69.152065 
L 646.975557 69.152065 
L 648.62028 61.041879 
L 645.784551 61.041879 
L 644.139828 69.152065 
L 638.411654 69.152065 
L 638.411654 71.96889 
L 643.572682 71.96889 
L 642.173722 78.831355 
L 638.411654 78.831355 
L 638.411654 81.64818 
L 641.606576 81.64818 
L 639.961853 89.701652 
M 519.934874 96.961119 
Q 521.144785 97.377026 522.127838 97.377026 
Q 523.753656 97.377026 524.925758 96.592474 
Q 526.09786 95.807923 527.005293 94.12539 
Q 527.685868 92.877669 528.914684 89.569318 
L 536.552249 69.152065 
L 533.149374 69.152065 
L 528.85797 80.854176 
Q 528.045061 83.084949 527.45901 85.429153 
Q 526.816244 82.990425 526.003335 80.778556 
L 521.82536 69.152065 
L 518.157817 69.152065 
L 525.776477 89.26684 
Q 525.568523 89.815081 525.473999 90.098654 
Q 524.755614 92.121474 524.434232 92.631906 
Q 523.99942 93.312481 523.318845 93.690578 
Q 522.63827 94.068675 521.503978 94.068675 
Q 520.672164 94.068675 519.556777 93.766197 
L 519.934874 96.961119 
M 153.596428 90.892658 
Q 153.520808 94.144295 155.732677 95.76066 
Q 157.944546 97.377026 161.53647 97.377026 
Q 164.561249 97.377026 166.631331 96.242735 
Q 168.701414 95.108443 169.656109 93.151789 
Q 170.610805 91.195136 170.610805 86.50673 
L 170.610805 69.152065 
L 167.472598 69.152065 
L 167.472598 71.571888 
Q 165.166204 68.698348 161.61209 68.698348 
Q 158.946504 68.698348 156.970946 70.021689 
Q 154.995388 71.345029 153.95562 73.774304 
Q 152.915853 76.203579 152.915853 79.077118 
Q 152.915853 83.255093 155.184436 86.242062 
Q 157.45302 89.22903 161.593185 89.22903 
Q 164.920441 89.22903 167.151215 86.601254 
Q 167.17012 89.92851 166.905452 90.968278 
Q 166.451735 92.669715 165.166204 93.614958 
Q 163.880674 94.560202 161.517566 94.560202 
Q 159.324601 94.560202 158.057976 93.614958 
Q 157.112732 92.915479 156.904779 91.384185 
L 153.596428 90.892658 
M 755.054662 90.892658 
Q 754.979043 94.144295 757.190912 95.76066 
Q 759.402781 97.377026 762.994705 97.377026 
Q 766.019483 97.377026 768.089566 96.242735 
Q 770.159648 95.108443 771.114344 93.151789 
Q 772.06904 91.195136 772.06904 86.50673 
L 772.06904 69.152065 
L 768.930832 69.152065 
L 768.930832 71.571888 
Q 766.624439 68.698348 763.070324 68.698348 
Q 760.404739 68.698348 758.42918 70.021689 
Q 756.453622 71.345029 755.413855 73.774304 
Q 754.374087 76.203579 754.374087 79.077118 
Q 754.374087 83.255093 756.642671 86.242062 
Q 758.911254 89.22903 763.05142 89.22903 
Q 766.378676 89.22903 768.609449 86.601254 
Q 768.628354 89.92851 768.363686 90.968278 
Q 767.90997 92.669715 766.624439 93.614958 
Q 765.338908 94.560202 762.9758 94.560202 
Q 760.782836 94.560202 759.51621 93.614958 
Q 758.570967 92.915479 758.363013 91.384185 
L 755.054662 90.892658 
M 539.444693 96.92331 
L 542.847569 96.92331 
L 542.847569 87.149495 
Q 543.717192 88.245977 545.06889 88.964362 
Q 546.420588 89.682747 548.122026 89.682747 
Q 550.447324 89.682747 552.555216 88.368859 
Q 554.663108 87.054971 555.769043 84.587886 
Q 556.874977 82.120801 556.874977 79.039309 
Q 556.874977 76.165769 555.87302 73.755399 
Q 554.871062 71.345029 552.904956 70.021689 
Q 550.93885 68.698348 548.367789 68.698348 
Q 546.401683 68.698348 545.021628 69.463995 
Q 543.641573 70.229642 542.545091 71.760936 
L 542.545091 69.152065 
L 539.444693 69.152065 
L 539.444693 96.92331 
M 842.754324 89.22903 
L 842.754324 86.714683 
Q 844.777145 89.682747 848.331259 89.682747 
Q 851.904278 89.682747 854.456435 86.865922 
Q 857.008592 84.049098 857.008592 78.88807 
Q 857.008592 76.71401 856.403636 74.804619 
Q 855.79868 72.895228 854.730555 71.54353 
Q 853.662431 70.191833 852.008255 69.44509 
Q 850.35408 68.698348 848.501403 68.698348 
Q 845.155242 68.698348 843.000088 71.401744 
L 843.000088 61.5145 
L 839.597212 61.5145 
L 839.597212 89.22903 
L 842.754324 89.22903 
M 241.29609 89.22903 
L 241.29609 86.714683 
Q 243.31891 89.682747 246.873025 89.682747 
Q 250.446044 89.682747 252.9982 86.865922 
Q 255.550357 84.049098 255.550357 78.88807 
Q 255.550357 76.71401 254.945401 74.804619 
Q 254.340446 72.895228 253.272321 71.54353 
Q 252.204196 70.191833 250.550021 69.44509 
Q 248.895845 68.698348 247.043168 68.698348 
Q 243.697008 68.698348 241.541853 71.401744 
L 241.541853 61.5145 
L 238.138978 61.5145 
L 238.138978 89.22903 
L 241.29609 89.22903 
M 452.104224 79.190548 
Q 452.104224 84.275956 454.703642 86.979351 
Q 457.303061 89.682747 461.518846 89.682747 
Q 464.146622 89.682747 466.367943 88.453931 
Q 468.589265 87.225115 469.751914 85.003793 
Q 470.914563 82.782472 470.914563 78.906975 
Q 470.914563 74.124044 468.286787 71.411196 
Q 465.659011 68.698348 461.518846 68.698348 
Q 457.794587 68.698348 455.204621 70.929122 
Q 452.104224 73.613613 452.104224 79.190548 
M 1053.562458 79.190548 
Q 1053.562458 84.275956 1056.161877 86.979351 
Q 1058.761296 89.682747 1062.97708 89.682747 
Q 1065.604856 89.682747 1067.826178 88.453931 
Q 1070.047499 87.225115 1071.210148 85.003793 
Q 1072.372797 82.782472 1072.372797 78.906975 
Q 1072.372797 74.124044 1069.745021 71.411196 
Q 1067.117245 68.698348 1062.97708 68.698348 
Q 1059.252822 68.698348 1056.662856 70.929122 
Q 1053.562458 73.613613 1053.562458 79.190548 
M 883.494305 82.763567 
Q 882.719206 84.918721 881.395866 85.901774 
Q 880.072525 86.884827 878.200944 86.884827 
Q 875.686597 86.884827 874.004064 85.126675 
Q 872.321531 83.368522 872.132482 80.060171 
L 887.105134 80.060171 
Q 887.124039 79.455216 887.124039 79.152738 
Q 887.124039 74.180759 884.571883 71.439554 
Q 882.019726 68.698348 877.99299 68.698348 
Q 873.83392 68.698348 871.225049 71.496268 
Q 868.616178 74.294188 868.616178 79.360691 
Q 868.616178 84.257051 871.196692 86.969899 
Q 873.777206 89.682747 878.182039 89.682747 
Q 881.679438 89.682747 883.929117 87.981309 
Q 886.178796 86.279871 887.01061 83.198379 
L 883.494305 82.763567 
M 790.954998 82.763567 
Q 790.179899 84.918721 788.856558 85.901774 
Q 787.533218 86.884827 785.661636 86.884827 
Q 783.14729 86.884827 781.464757 85.126675 
Q 779.782224 83.368522 779.593175 80.060171 
L 794.565827 80.060171 
Q 794.584732 79.455216 794.584732 79.152738 
Q 794.584732 74.180759 792.032575 71.439554 
Q 789.480419 68.698348 785.453683 68.698348 
Q 781.294613 68.698348 778.685742 71.496268 
Q 776.076871 74.294188 776.076871 79.360691 
Q 776.076871 84.257051 778.657384 86.969899 
Q 781.237898 89.682747 785.642732 89.682747 
Q 789.140131 89.682747 791.38981 87.981309 
Q 793.639489 86.279871 794.471303 83.198379 
L 790.954998 82.763567 
M 574.721169 82.763567 
Q 573.946069 84.918721 572.622729 85.901774 
Q 571.299388 86.884827 569.427807 86.884827 
Q 566.91346 86.884827 565.230927 85.126675 
Q 563.548394 83.368522 563.359346 80.060171 
L 578.331998 80.060171 
Q 578.350902 79.455216 578.350902 79.152738 
Q 578.350902 74.180759 575.798746 71.439554 
Q 573.246589 68.698348 569.219853 68.698348 
Q 565.060783 68.698348 562.451912 71.496268 
Q 559.843041 74.294188 559.843041 79.360691 
Q 559.843041 84.257051 562.423555 86.969899 
Q 565.004069 89.682747 569.408902 89.682747 
Q 572.906302 89.682747 575.155981 87.981309 
Q 577.405659 86.279871 578.237473 83.198379 
L 574.721169 82.763567 
M 189.496764 82.763567 
Q 188.721664 84.918721 187.398324 85.901774 
Q 186.074983 86.884827 184.203402 86.884827 
Q 181.689055 86.884827 180.006522 85.126675 
Q 178.323989 83.368522 178.134941 80.060171 
L 193.107593 80.060171 
Q 193.126497 79.455216 193.126497 79.152738 
Q 193.126497 74.180759 190.574341 71.439554 
Q 188.022184 68.698348 183.995448 68.698348 
Q 179.836378 68.698348 177.227507 71.496268 
Q 174.618636 74.294188 174.618636 79.360691 
Q 174.618636 84.257051 177.19915 86.969899 
Q 179.779664 89.682747 184.184497 89.682747 
Q 187.681897 89.682747 189.931576 87.981309 
Q 192.181254 86.279871 193.013068 83.198379 
L 189.496764 82.763567 
M 282.036071 82.763567 
Q 281.260971 84.918721 279.937631 85.901774 
Q 278.614291 86.884827 276.742709 86.884827 
Q 274.228362 86.884827 272.545829 85.126675 
Q 270.863297 83.368522 270.674248 80.060171 
L 285.6469 80.060171 
Q 285.665805 79.455216 285.665805 79.152738 
Q 285.665805 74.180759 283.113648 71.439554 
Q 280.561492 68.698348 276.534756 68.698348 
Q 272.375686 68.698348 269.766814 71.496268 
Q 267.157943 74.294188 267.157943 79.360691 
Q 267.157943 84.257051 269.738457 86.969899 
Q 272.318971 89.682747 276.723804 89.682747 
Q 280.221204 89.682747 282.470883 87.981309 
Q 284.720562 86.279871 285.552375 83.198379 
L 282.036071 82.763567 
M 1027.038935 86.752493 
Q 1027.190173 88.170358 1027.71951 89.22903 
L 1031.273624 89.22903 
Q 1030.630859 88.075833 1030.413453 86.81866 
Q 1030.196047 85.561487 1030.196047 80.816366 
L 1030.196047 76.279199 
Q 1030.196047 74.010615 1030.025903 73.140991 
Q 1029.723425 71.742031 1028.967231 70.825145 
Q 1028.211036 69.90826 1026.604123 69.303304 
Q 1024.997209 68.698348 1022.426148 68.698348 
Q 1019.836181 68.698348 1017.870076 69.407281 
Q 1015.90397 70.116213 1014.864202 71.430101 
Q 1013.824435 72.743989 1013.370718 74.880239 
L 1016.697974 75.333955 
Q 1017.246215 73.197706 1018.389959 72.356439 
Q 1019.533704 71.515173 1021.934621 71.515173 
Q 1024.505683 71.515173 1025.810118 72.66837 
Q 1026.774266 73.519088 1026.774266 75.598623 
Q 1026.774266 75.787672 1026.755362 76.487152 
Q 1024.808161 77.167727 1020.6869 77.659254 
Q 1018.66408 77.905017 1017.662122 78.169685 
Q 1016.300972 78.547782 1015.213942 79.285072 
Q 1014.126913 80.022362 1013.45579 81.241725 
Q 1012.784667 82.461089 1012.784667 83.935668 
Q 1012.784667 86.450015 1014.561725 88.066381 
Q 1016.338782 89.682747 1019.647133 89.682747 
Q 1021.651048 89.682747 1023.399748 89.021077 
Q 1025.148448 88.359406 1027.038935 86.752493 
M 734.353837 86.752493 
Q 734.505076 88.170358 735.034412 89.22903 
L 738.588526 89.22903 
Q 737.945761 88.075833 737.728355 86.81866 
Q 737.510949 85.561487 737.510949 80.816366 
L 737.510949 76.279199 
Q 737.510949 74.010615 737.340805 73.140991 
Q 737.038327 71.742031 736.282133 70.825145 
Q 735.525938 69.90826 733.919025 69.303304 
Q 732.312111 68.698348 729.74105 68.698348 
Q 727.151084 68.698348 725.184978 69.407281 
Q 723.218872 70.116213 722.179105 71.430101 
Q 721.139337 72.743989 720.68562 74.880239 
L 724.012876 75.333955 
Q 724.561117 73.197706 725.704862 72.356439 
Q 726.848606 71.515173 729.249524 71.515173 
Q 731.820585 71.515173 733.125021 72.66837 
Q 734.089169 73.519088 734.089169 75.598623 
Q 734.089169 75.787672 734.070264 76.487152 
Q 732.123063 77.167727 728.001803 77.659254 
Q 725.978982 77.905017 724.977024 78.169685 
Q 723.615874 78.547782 722.528845 79.285072 
Q 721.441815 80.022362 720.770692 81.241725 
Q 720.09957 82.461089 720.09957 83.935668 
Q 720.09957 86.450015 721.876627 88.066381 
Q 723.653684 89.682747 726.962035 89.682747 
Q 728.965951 89.682747 730.71465 89.021077 
Q 732.46335 88.359406 734.353837 86.752493 
M 425.5807 86.752493 
Q 425.731939 88.170358 426.261275 89.22903 
L 429.815389 89.22903 
Q 429.172624 88.075833 428.955218 86.81866 
Q 428.737812 85.561487 428.737812 80.816366 
L 428.737812 76.279199 
Q 428.737812 74.010615 428.567668 73.140991 
Q 428.265191 71.742031 427.508996 70.825145 
Q 426.752802 69.90826 425.145888 69.303304 
Q 423.538975 68.698348 420.967913 68.698348 
Q 418.377947 68.698348 416.411841 69.407281 
Q 414.445735 70.116213 413.405968 71.430101 
Q 412.3662 72.743989 411.912484 74.880239 
L 415.23974 75.333955 
Q 415.787981 73.197706 416.931725 72.356439 
Q 418.075469 71.515173 420.476387 71.515173 
Q 423.047448 71.515173 424.351884 72.66837 
Q 425.316032 73.519088 425.316032 75.598623 
Q 425.316032 75.787672 425.297127 76.487152 
Q 423.349926 77.167727 419.228666 77.659254 
Q 417.205845 77.905017 416.203888 78.169685 
Q 414.842737 78.547782 413.755708 79.285072 
Q 412.668678 80.022362 411.997555 81.241725 
Q 411.326433 82.461089 411.326433 83.935668 
Q 411.326433 86.450015 413.10349 88.066381 
Q 414.880547 89.682747 418.188898 89.682747 
Q 420.192814 89.682747 421.941514 89.021077 
Q 423.690214 88.359406 425.5807 86.752493 
M 132.895602 86.752493 
Q 133.046841 88.170358 133.576177 89.22903 
L 137.130292 89.22903 
Q 136.487526 88.075833 136.27012 86.81866 
Q 136.052714 85.561487 136.052714 80.816366 
L 136.052714 76.279199 
Q 136.052714 74.010615 135.882571 73.140991 
Q 135.580093 71.742031 134.823898 70.825145 
Q 134.067704 69.90826 132.46079 69.303304 
Q 130.853877 68.698348 128.282815 68.698348 
Q 125.692849 68.698348 123.726743 69.407281 
Q 121.760638 70.116213 120.72087 71.430101 
Q 119.681103 72.743989 119.227386 74.880239 
L 122.554642 75.333955 
Q 123.102883 73.197706 124.246627 72.356439 
Q 125.390371 71.515173 127.791289 71.515173 
Q 130.36235 71.515173 131.666786 72.66837 
Q 132.630934 73.519088 132.630934 75.598623 
Q 132.630934 75.787672 132.612029 76.487152 
Q 130.664828 77.167727 126.543568 77.659254 
Q 124.520748 77.905017 123.51879 78.169685 
Q 122.15764 78.547782 121.07061 79.285072 
Q 119.98358 80.022362 119.312458 81.241725 
Q 118.641335 82.461089 118.641335 83.935668 
Q 118.641335 86.450015 120.418392 88.066381 
Q 122.195449 89.682747 125.503801 89.682747 
Q 127.507716 89.682747 129.256416 89.021077 
Q 131.005116 88.359406 132.895602 86.752493 
M 904.38418 81.875038 
Q 904.024987 84.427195 902.682742 85.656011 
Q 901.340497 86.884827 899.336581 86.884827 
Q 896.841139 86.884827 895.29094 85.051055 
Q 893.740741 83.217284 893.740741 79.171643 
Q 893.740741 75.182716 895.347655 73.339492 
Q 896.954568 71.496268 899.52563 71.496268 
Q 901.227067 71.496268 902.427526 72.517131 
Q 903.627985 73.537993 904.100607 75.560814 
L 907.408958 75.050382 
Q 906.822907 72.006699 904.743372 70.352524 
Q 902.663837 68.698348 899.393296 68.698348 
Q 896.803329 68.698348 894.600913 69.917712 
Q 892.398496 71.137076 891.320919 73.575803 
Q 890.243342 76.01453 890.243342 79.266167 
Q 890.243342 84.294861 892.748236 86.988804 
Q 895.253131 89.682747 899.374391 89.682747 
Q 902.663837 89.682747 904.922968 87.726093 
Q 907.182099 85.76944 907.730341 82.30985 
L 904.38418 81.875038 
M 302.925945 81.875038 
Q 302.566753 84.427195 301.224507 85.656011 
Q 299.882262 86.884827 297.878347 86.884827 
Q 295.382905 86.884827 293.832706 85.051055 
Q 292.282507 83.217284 292.282507 79.171643 
Q 292.282507 75.182716 293.88942 73.339492 
Q 295.496334 71.496268 298.067395 71.496268 
Q 299.768833 71.496268 300.969292 72.517131 
Q 302.169751 73.537993 302.642372 75.560814 
L 305.950723 75.050382 
Q 305.364673 72.006699 303.285138 70.352524 
Q 301.205603 68.698348 297.935061 68.698348 
Q 295.345095 68.698348 293.142678 69.917712 
Q 290.940262 71.137076 289.862684 73.575803 
Q 288.785107 76.01453 288.785107 79.266167 
Q 288.785107 84.294861 291.290002 86.988804 
Q 293.794896 89.682747 297.916156 89.682747 
Q 301.205603 89.682747 303.464734 87.726093 
Q 305.723865 85.76944 306.272106 82.30985 
L 302.925945 81.875038 
M 963.083781 83.236188 
Q 963.650927 86.43111 965.702105 88.056929 
Q 967.753282 89.682747 971.666589 89.682747 
Q 974.029697 89.682747 975.901279 88.860385 
Q 977.77286 88.038024 978.765365 86.535087 
Q 979.757871 85.03215 979.757871 83.330713 
Q 979.757871 81.591465 978.944962 80.419364 
Q 978.132052 79.247262 976.704735 78.632854 
Q 975.277418 78.018446 971.666589 77.054298 
Q 969.171147 76.373723 968.660716 76.184674 
Q 967.772187 75.825482 967.35628 75.277241 
Q 966.940373 74.747905 966.940373 74.086234 
Q 966.940373 73.046467 967.942331 72.271368 
Q 968.944289 71.496268 971.288492 71.496268 
Q 973.273503 71.496268 974.360532 72.365892 
Q 975.447562 73.235516 975.67442 74.785714 
L 979.001676 74.331998 
Q 978.680293 72.384797 977.829575 71.222148 
Q 976.978856 70.059498 975.192346 69.378923 
Q 973.405837 68.698348 971.042729 68.698348 
Q 969.473625 68.698348 968.103022 69.104803 
Q 966.73242 69.511257 965.938415 70.097308 
Q 964.879743 70.853503 964.265335 71.997247 
Q 963.650927 73.140991 963.650927 74.483237 
Q 963.650927 75.957816 964.397669 77.17718 
Q 965.144411 78.396543 966.590633 79.086571 
Q 968.036855 79.776598 971.780018 80.721842 
Q 974.559033 81.421321 975.258513 81.875038 
Q 976.260471 82.536708 976.260471 83.689905 
Q 976.260471 84.975436 975.126179 85.930131 
Q 973.991887 86.884827 971.647684 86.884827 
Q 969.322386 86.884827 968.027403 85.80725 
Q 966.73242 84.729673 966.448847 82.706852 
L 963.083781 83.236188 
M 361.625547 83.236188 
Q 362.192692 86.43111 364.24387 88.056929 
Q 366.295048 89.682747 370.208355 89.682747 
Q 372.571463 89.682747 374.443044 88.860385 
Q 376.314626 88.038024 377.307131 86.535087 
Q 378.299636 85.03215 378.299636 83.330713 
Q 378.299636 81.591465 377.486727 80.419364 
Q 376.673818 79.247262 375.246501 78.632854 
Q 373.819184 78.018446 370.208355 77.054298 
Q 367.712913 76.373723 367.202481 76.184674 
Q 366.313953 75.825482 365.898046 75.277241 
Q 365.482139 74.747905 365.482139 74.086234 
Q 365.482139 73.046467 366.484096 72.271368 
Q 367.486054 71.496268 369.830257 71.496268 
Q 371.815268 71.496268 372.902298 72.365892 
Q 373.989327 73.235516 374.216186 74.785714 
L 377.543442 74.331998 
Q 377.222059 72.384797 376.37134 71.222148 
Q 375.520621 70.059498 373.734112 69.378923 
Q 371.947602 68.698348 369.584494 68.698348 
Q 368.01539 68.698348 366.644788 69.104803 
Q 365.274185 69.511257 364.480181 70.097308 
Q 363.421509 70.853503 362.8071 71.997247 
Q 362.192692 73.140991 362.192692 74.483237 
Q 362.192692 75.957816 362.939435 77.17718 
Q 363.686177 78.396543 365.132399 79.086571 
Q 366.578621 79.776598 370.321784 80.721842 
Q 373.100799 81.421321 373.800279 81.875038 
Q 374.802236 82.536708 374.802236 83.689905 
Q 374.802236 84.975436 373.667945 85.930131 
Q 372.533653 86.884827 370.18945 86.884827 
Q 367.864151 86.884827 366.569168 85.80725 
Q 365.274185 84.729673 364.990612 82.706852 
L 361.625547 83.236188 
M 682.138604 84.748577 
L 685.35243 84.748577 
L 685.35243 77.148822 
L 692.895471 77.148822 
L 692.895471 73.972805 
L 685.35243 73.972805 
L 685.35243 66.429765 
L 682.138604 66.429765 
L 682.138604 73.972805 
L 674.595563 73.972805 
L 674.595563 77.148822 
L 682.138604 77.148822 
L 682.138604 84.748577 
M 1076.361724 89.22903 
L 1079.764599 89.22903 
L 1079.764599 78.264209 
Q 1079.764599 74.407617 1081.343155 73.027562 
Q 1082.921711 71.647507 1085.095771 71.647507 
Q 1086.456921 71.647507 1087.468331 72.261915 
Q 1088.479741 72.876323 1088.876743 73.906638 
Q 1089.273745 74.936953 1089.273745 77.016488 
L 1089.273745 89.22903 
L 1092.676621 89.22903 
L 1092.676621 76.884154 
Q 1092.676621 74.521046 1092.487572 73.575803 
Q 1092.185094 72.120129 1091.4289 71.061456 
Q 1090.672705 70.002784 1089.150864 69.350566 
Q 1087.629022 68.698348 1085.814155 68.698348 
Q 1081.63618 68.698348 1079.424311 72.006699 
L 1079.424311 69.152065 
L 1076.361724 69.152065 
L 1076.361724 89.22903 
M 942.912292 89.22903 
L 946.315167 89.22903 
L 946.315167 78.264209 
Q 946.315167 74.407617 947.893723 73.027562 
Q 949.472279 71.647507 951.646339 71.647507 
Q 953.007489 71.647507 954.018899 72.261915 
Q 955.030309 72.876323 955.427311 73.906638 
Q 955.824313 74.936953 955.824313 77.016488 
L 955.824313 89.22903 
L 959.227189 89.22903 
L 959.227189 76.884154 
Q 959.227189 74.521046 959.03814 73.575803 
Q 958.735662 72.120129 957.979468 71.061456 
Q 957.223273 70.002784 955.701432 69.350566 
Q 954.17959 68.698348 952.364723 68.698348 
Q 948.186749 68.698348 945.97488 72.006699 
L 945.97488 69.152065 
L 942.912292 69.152065 
L 942.912292 89.22903 
M 474.903489 89.22903 
L 478.306364 89.22903 
L 478.306364 78.264209 
Q 478.306364 74.407617 479.884921 73.027562 
Q 481.463477 71.647507 483.637536 71.647507 
Q 484.998686 71.647507 486.010096 72.261915 
Q 487.021507 72.876323 487.418509 73.906638 
Q 487.815511 74.936953 487.815511 77.016488 
L 487.815511 89.22903 
L 491.218386 89.22903 
L 491.218386 76.884154 
Q 491.218386 74.521046 491.029338 73.575803 
Q 490.72686 72.120129 489.970665 71.061456 
Q 489.214471 70.002784 487.692629 69.350566 
Q 486.170788 68.698348 484.355921 68.698348 
Q 480.177946 68.698348 477.966077 72.006699 
L 477.966077 69.152065 
L 474.903489 69.152065 
L 474.903489 89.22903 
M 341.454057 89.22903 
L 344.856933 89.22903 
L 344.856933 78.264209 
Q 344.856933 74.407617 346.435489 73.027562 
Q 348.014045 71.647507 350.188104 71.647507 
Q 351.549254 71.647507 352.560664 72.261915 
Q 353.572075 72.876323 353.969077 73.906638 
Q 354.366079 74.936953 354.366079 77.016488 
L 354.366079 89.22903 
L 357.768954 89.22903 
L 357.768954 76.884154 
Q 357.768954 74.521046 357.579906 73.575803 
Q 357.277428 72.120129 356.521233 71.061456 
Q 355.765039 70.002784 354.243197 69.350566 
Q 352.721356 68.698348 350.906489 68.698348 
Q 346.728514 68.698348 344.516645 72.006699 
L 344.516645 69.152065 
L 341.454057 69.152065 
L 341.454057 89.22903 
M 996.961297 89.22903 
L 1000.00498 89.22903 
L 1000.00498 69.152065 
L 996.602104 69.152065 
L 996.602104 79.908932 
Q 996.602104 82.479994 996.044411 83.831692 
Q 995.486717 85.183389 994.144472 85.967941 
Q 992.802227 86.752493 991.270933 86.752493 
Q 989.739639 86.752493 988.699871 85.986846 
Q 987.660104 85.221199 987.338721 83.878954 
Q 987.130768 82.952615 987.130768 80.28703 
L 987.130768 69.152065 
L 983.727892 69.152065 
L 983.727892 81.591465 
Q 983.727892 83.765525 983.935846 84.767482 
Q 984.238323 86.260967 984.985065 87.291282 
Q 985.731808 88.321597 987.272554 89.002172 
Q 988.8133 89.682747 990.590358 89.682747 
Q 994.617093 89.682747 996.961297 86.279871 
L 996.961297 89.22903 
M 395.503062 89.22903 
L 398.546745 89.22903 
L 398.546745 69.152065 
L 395.14387 69.152065 
L 395.14387 79.908932 
Q 395.14387 82.479994 394.586176 83.831692 
Q 394.028483 85.183389 392.686237 85.967941 
Q 391.343992 86.752493 389.812698 86.752493 
Q 388.281404 86.752493 387.241637 85.986846 
Q 386.201869 85.221199 385.880486 83.878954 
Q 385.672533 82.952615 385.672533 80.28703 
L 385.672533 69.152065 
L 382.269658 69.152065 
L 382.269658 81.591465 
Q 382.269658 83.765525 382.477611 84.767482 
Q 382.780089 86.260967 383.526831 87.291282 
Q 384.273573 88.321597 385.814319 89.002172 
Q 387.355066 89.682747 389.132123 89.682747 
Q 393.158859 89.682747 395.503062 86.279871 
L 395.503062 89.22903 
M 1100.125137 97.377026 
Q 1102.923057 93.822912 1104.87971 89.058886 
Q 1106.836364 84.294861 1106.836364 79.190548 
Q 1106.836364 74.69119 1105.380689 70.56993 
Q 1103.679251 65.786999 1100.125137 61.041879 
L 1097.68641 61.041879 
Q 1099.992803 65.0119 1100.730093 66.713338 
Q 1101.883289 69.322209 1102.526055 72.157938 
Q 1103.338964 75.655338 1103.338964 79.209452 
Q 1103.338964 88.302692 1097.68641 97.377026 
L 1100.125137 97.377026 
M 668.602721 97.377026 
L 671.041449 97.377026 
Q 665.388894 88.302692 665.388894 79.209452 
Q 665.388894 75.636433 666.201804 72.101224 
Q 666.863474 69.265494 668.01667 66.656623 
Q 668.75396 64.97409 671.041449 61.041879 
L 668.602721 61.041879 
Q 665.048607 65.786999 663.347169 70.56993 
Q 661.891495 74.69119 661.891495 79.190548 
Q 661.891495 84.294861 663.838696 89.058886 
Q 665.785897 93.822912 668.602721 97.377026 
M 584.740746 97.377026 
Q 587.538666 93.822912 589.49532 89.058886 
Q 591.451973 84.294861 591.451973 79.190548 
Q 591.451973 74.69119 589.996298 70.56993 
Q 588.294861 65.786999 584.740746 61.041879 
L 582.302019 61.041879 
Q 584.608412 65.0119 585.345702 66.713338 
Q 586.498899 69.322209 587.141664 72.157938 
Q 587.954573 75.655338 587.954573 79.209452 
Q 587.954573 88.302692 582.302019 97.377026 
L 584.740746 97.377026 
M 89.754703 97.377026 
L 92.193431 97.377026 
Q 86.540877 88.302692 86.540877 79.209452 
Q 86.540877 75.636433 87.353786 72.101224 
Q 88.015456 69.265494 89.168653 66.656623 
Q 89.905942 64.97409 92.193431 61.041879 
L 89.754703 61.041879 
Q 86.200589 65.786999 84.499151 70.56993 
Q 83.043477 74.69119 83.043477 79.190548 
Q 83.043477 84.294861 84.990678 89.058886 
Q 86.937879 93.822912 89.754703 97.377026 
M 441.441881 86.185347 
Q 440.515542 86.317681 439.948396 86.317681 
Q 439.192202 86.317681 438.785747 86.071918 
Q 438.379293 85.826155 438.199696 85.410248 
Q 438.0201 84.994341 438.0201 83.538666 
L 438.0201 71.798746 
L 441.441881 71.798746 
L 441.441881 69.152065 
L 438.0201 69.152065 
L 438.0201 62.138361 
L 434.63613 64.180086 
L 434.63613 69.152065 
L 432.140688 69.152065 
L 432.140688 71.798746 
L 434.63613 71.798746 
L 434.63613 83.349618 
Q 434.63613 86.412205 435.052037 87.366901 
Q 435.467944 88.321597 436.488806 88.907647 
Q 437.509669 89.493698 439.362346 89.493698 
Q 440.496637 89.493698 441.933407 89.19122 
L 441.441881 86.185347 
M 204.715179 86.185347 
Q 203.788841 86.317681 203.221695 86.317681 
Q 202.4655 86.317681 202.059046 86.071918 
Q 201.652591 85.826155 201.472995 85.410248 
Q 201.293399 84.994341 201.293399 83.538666 
L 201.293399 71.798746 
L 204.715179 71.798746 
L 204.715179 69.152065 
L 201.293399 69.152065 
L 201.293399 62.138361 
L 197.909428 64.180086 
L 197.909428 69.152065 
L 195.413986 69.152065 
L 195.413986 71.798746 
L 197.909428 71.798746 
L 197.909428 83.349618 
Q 197.909428 86.412205 198.325335 87.366901 
Q 198.741242 88.321597 199.762105 88.907647 
Q 200.782967 89.493698 202.635644 89.493698 
Q 203.769936 89.493698 205.206705 89.19122 
L 204.715179 86.185347 
M 316.613066 86.185347 
Q 315.686728 86.317681 315.119582 86.317681 
Q 314.363388 86.317681 313.956933 86.071918 
Q 313.550478 85.826155 313.370882 85.410248 
Q 313.191286 84.994341 313.191286 83.538666 
L 313.191286 71.798746 
L 316.613066 71.798746 
L 316.613066 69.152065 
L 313.191286 69.152065 
L 313.191286 62.138361 
L 309.807315 64.180086 
L 309.807315 69.152065 
L 307.311873 69.152065 
L 307.311873 71.798746 
L 309.807315 71.798746 
L 309.807315 83.349618 
Q 309.807315 86.412205 310.223222 87.366901 
Q 310.639129 88.321597 311.659992 88.907647 
Q 312.680855 89.493698 314.533531 89.493698 
Q 315.667823 89.493698 317.104593 89.19122 
L 316.613066 86.185347 
M 1042.900115 86.185347 
Q 1041.973777 86.317681 1041.406631 86.317681 
Q 1040.650436 86.317681 1040.243982 86.071918 
Q 1039.837527 85.826155 1039.657931 85.410248 
Q 1039.478335 84.994341 1039.478335 83.538666 
L 1039.478335 71.798746 
L 1042.900115 71.798746 
L 1042.900115 69.152065 
L 1039.478335 69.152065 
L 1039.478335 62.138361 
L 1036.094364 64.180086 
L 1036.094364 69.152065 
L 1033.598922 69.152065 
L 1033.598922 71.798746 
L 1036.094364 71.798746 
L 1036.094364 83.349618 
Q 1036.094364 86.412205 1036.510271 87.366901 
Q 1036.926178 88.321597 1037.947041 88.907647 
Q 1038.967903 89.493698 1040.82058 89.493698 
Q 1041.954872 89.493698 1043.391641 89.19122 
L 1042.900115 86.185347 
M 918.071301 86.185347 
Q 917.144963 86.317681 916.577817 86.317681 
Q 915.821622 86.317681 915.415168 86.071918 
Q 915.008713 85.826155 914.829117 85.410248 
Q 914.649521 84.994341 914.649521 83.538666 
L 914.649521 71.798746 
L 918.071301 71.798746 
L 918.071301 69.152065 
L 914.649521 69.152065 
L 914.649521 62.138361 
L 911.26555 64.180086 
L 911.26555 69.152065 
L 908.770108 69.152065 
L 908.770108 71.798746 
L 911.26555 71.798746 
L 911.26555 83.349618 
Q 911.26555 86.412205 911.681457 87.366901 
Q 912.097364 88.321597 913.118227 88.907647 
Q 914.139089 89.493698 915.991766 89.493698 
Q 917.126058 89.493698 918.562827 89.19122 
L 918.071301 86.185347 
M 806.173413 86.185347 
Q 805.247075 86.317681 804.679929 86.317681 
Q 803.923735 86.317681 803.51728 86.071918 
Q 803.110825 85.826155 802.931229 85.410248 
Q 802.751633 84.994341 802.751633 83.538666 
L 802.751633 71.798746 
L 806.173413 71.798746 
L 806.173413 69.152065 
L 802.751633 69.152065 
L 802.751633 62.138361 
L 799.367663 64.180086 
L 799.367663 69.152065 
L 796.872221 69.152065 
L 796.872221 71.798746 
L 799.367663 71.798746 
L 799.367663 83.349618 
Q 799.367663 86.412205 799.78357 87.366901 
Q 800.199477 88.321597 801.220339 88.907647 
Q 802.241202 89.493698 804.093878 89.493698 
Q 805.22817 89.493698 806.66494 89.19122 
L 806.173413 86.185347 
M 742.747596 89.22903 
L 746.150472 89.22903 
L 746.150472 78.717926 
Q 746.150472 76.562772 746.717617 74.747905 
Q 747.095715 73.556898 747.984243 72.885776 
Q 748.872772 72.214653 749.988159 72.214653 
Q 751.23588 72.214653 752.483601 72.951943 
L 753.655702 69.79483 
Q 751.878645 68.698348 750.158303 68.698348 
Q 748.967296 68.698348 747.974791 69.378923 
Q 746.982286 70.059498 745.810184 72.195748 
L 745.810184 69.152065 
L 742.747596 69.152065 
L 742.747596 89.22903 
M 141.289362 89.22903 
L 144.692237 89.22903 
L 144.692237 78.717926 
Q 144.692237 76.562772 145.259383 74.747905 
Q 145.63748 73.556898 146.526009 72.885776 
Q 147.414537 72.214653 148.529924 72.214653 
Q 149.777645 72.214653 151.025366 72.951943 
L 152.197468 69.79483 
Q 150.420411 68.698348 148.700068 68.698348 
Q 147.509062 68.698348 146.516556 69.378923 
Q 145.524051 70.059498 144.351949 72.195748 
L 144.351949 69.152065 
L 141.289362 69.152065 
L 141.289362 89.22903 
M 856.819543 97.017834 
Q 858.105074 97.377026 859.485129 97.377026 
Q 862.339763 97.377026 863.568579 95.48654 
Q 864.532727 94.030865 864.532727 90.325512 
L 864.532727 69.152065 
L 861.129852 69.152065 
L 861.129852 90.249893 
Q 861.129852 93.010003 860.61942 93.70003 
Q 860.108989 94.390058 859.069222 94.390058 
Q 858.483171 94.390058 857.462308 94.12539 
L 856.819543 97.017834 
M 255.361308 97.017834 
Q 256.646839 97.377026 258.026894 97.377026 
Q 260.881529 97.377026 262.110345 95.48654 
Q 263.074493 94.030865 263.074493 90.325512 
L 263.074493 69.152065 
L 259.671617 69.152065 
L 259.671617 90.249893 
Q 259.671617 93.010003 259.161186 93.70003 
Q 258.650755 94.390058 257.610987 94.390058 
Q 257.024936 94.390058 256.004074 94.12539 
L 255.361308 97.017834 
M 933.214097 89.22903 
L 936.88164 89.22903 
L 936.88164 61.5145 
L 933.214097 61.5145 
L 933.214097 89.22903 
M 331.755862 89.22903 
L 335.423406 89.22903 
L 335.423406 61.5145 
L 331.755862 61.5145 
L 331.755862 89.22903 
M 1005.260532 89.22903 
L 1008.663407 89.22903 
L 1008.663407 61.5145 
L 1005.260532 61.5145 
L 1005.260532 89.22903 
M 403.802297 89.22903 
L 407.205173 89.22903 
L 407.205173 61.5145 
L 403.802297 61.5145 
L 403.802297 89.22903 
M 1046.246276 89.22903 
L 1049.649151 89.22903 
L 1049.649151 69.152065 
L 1046.246276 69.152065 
L 1046.246276 89.22903 
M 444.788041 89.22903 
L 448.190917 89.22903 
L 448.190917 69.152065 
L 444.788041 69.152065 
L 444.788041 89.22903 
M 604.836616 80.91089 
L 615.291006 80.91089 
L 615.291006 77.48911 
L 604.836616 77.48911 
L 604.836616 80.91089 
M 922.362705 89.22903 
L 926.238202 89.22903 
L 926.238202 85.353533 
L 922.362705 85.353533 
L 922.362705 89.22903 
M 320.90447 89.22903 
L 324.779967 89.22903 
L 324.779967 85.353533 
L 320.90447 85.353533 
L 320.90447 89.22903 
M 259.671617 65.465617 
L 263.074493 65.465617 
L 263.074493 61.5145 
L 259.671617 61.5145 
L 259.671617 65.465617 
M 861.129852 65.465617 
L 864.532727 65.465617 
L 864.532727 61.5145 
L 861.129852 61.5145 
L 861.129852 65.465617 
M 1046.246276 65.427807 
L 1049.649151 65.427807 
L 1049.649151 61.5145 
L 1046.246276 61.5145 
L 1046.246276 65.427807 
M 444.788041 65.427807 
L 448.190917 65.427807 
L 448.190917 61.5145 
L 444.788041 61.5145 
L 444.788041 65.427807 
M 812.601067 75.787672 
Q 812.601067 69.530162 815.408439 66.855124 
Q 818.215811 64.180086 822.110213 64.180086 
Q 824.851419 64.180086 827.053835 65.569593 
Q 829.256252 66.959101 830.399996 69.4829 
Q 831.54374 72.006699 831.54374 75.39067 
Q 831.54374 80.740746 828.868702 83.652095 
Q 826.193664 86.563444 822.053499 86.563444 
Q 817.988953 86.563444 815.29501 83.680453 
Q 812.601067 80.797461 812.601067 75.787672 
M 211.142832 75.787672 
Q 211.142832 69.530162 213.950205 66.855124 
Q 216.757577 64.180086 220.651979 64.180086 
Q 223.393184 64.180086 225.595601 65.569593 
Q 227.798017 66.959101 228.941762 69.4829 
Q 230.085506 72.006699 230.085506 75.39067 
Q 230.085506 80.740746 227.410468 83.652095 
Q 224.735429 86.563444 220.595264 86.563444 
Q 216.530719 86.563444 213.836776 83.680453 
Q 211.142832 80.797461 211.142832 75.787672 
M 66.161434 78.831355 
L 67.560394 71.96889 
L 73.515426 71.96889 
L 72.097561 78.831355 
L 66.161434 78.831355 
M 645.009451 78.831355 
L 646.408411 71.96889 
L 652.363443 71.96889 
L 650.945579 78.831355 
L 645.009451 78.831355 
M 156.413252 78.831355 
Q 156.413252 75.201621 158.001261 73.358397 
Q 159.58927 71.515173 161.857853 71.515173 
Q 164.164247 71.515173 165.799517 73.386754 
Q 167.434788 75.258336 167.434788 78.944784 
Q 167.434788 82.801377 165.846779 84.606791 
Q 164.258771 86.412205 161.914568 86.412205 
Q 159.55146 86.412205 157.982356 84.597339 
Q 156.413252 82.782472 156.413252 78.831355 
M 757.871487 78.831355 
Q 757.871487 75.201621 759.459496 73.358397 
Q 761.047504 71.515173 763.316088 71.515173 
Q 765.622481 71.515173 767.257752 73.386754 
Q 768.893022 75.258336 768.893022 78.944784 
Q 768.893022 82.801377 767.305014 84.606791 
Q 765.717005 86.412205 763.372802 86.412205 
Q 761.009694 86.412205 759.440591 84.597339 
Q 757.871487 82.782472 757.871487 78.831355 
M 542.526186 79.303977 
Q 542.526186 75.42848 544.199266 73.396207 
Q 545.872347 71.363934 548.046406 71.363934 
Q 550.23937 71.363934 551.817926 73.273325 
Q 553.396483 75.182716 553.396483 79.020404 
Q 553.396483 83.04714 551.780117 84.965983 
Q 550.163751 86.884827 547.895167 86.884827 
Q 545.664393 86.884827 544.09529 85.03215 
Q 542.526186 83.179474 542.526186 79.303977 
M 842.716515 79.039309 
Q 842.716515 75.371765 844.342333 73.434017 
Q 845.968151 71.496268 848.198925 71.496268 
Q 850.410794 71.496268 851.970445 73.36785 
Q 853.530097 75.239431 853.530097 79.171643 
Q 853.530097 83.00933 851.904278 84.947079 
Q 850.27846 86.884827 848.047686 86.884827 
Q 845.306481 86.884827 843.699568 84.257051 
Q 842.716515 82.650138 842.716515 79.039309 
M 241.25828 79.039309 
Q 241.25828 75.371765 242.884098 73.434017 
Q 244.509917 71.496268 246.740691 71.496268 
Q 248.95256 71.496268 250.512211 73.36785 
Q 252.071862 75.239431 252.071862 79.171643 
Q 252.071862 83.00933 250.446044 84.947079 
Q 248.820226 86.884827 246.589452 86.884827 
Q 243.848246 86.884827 242.241333 84.257051 
Q 241.25828 82.650138 241.25828 79.039309 
M 455.601623 79.190548 
Q 455.601623 75.333955 457.284156 73.424564 
Q 458.966689 71.515173 461.518846 71.515173 
Q 464.033192 71.515173 465.725178 73.434017 
Q 467.417163 75.35286 467.417163 79.077118 
Q 467.417163 83.028235 465.73463 84.956531 
Q 464.052097 86.884827 461.518846 86.884827 
Q 458.966689 86.884827 457.284156 84.965983 
Q 455.601623 83.04714 455.601623 79.190548 
M 1057.059858 79.190548 
Q 1057.059858 75.333955 1058.742391 73.424564 
Q 1060.424924 71.515173 1062.97708 71.515173 
Q 1065.491427 71.515173 1067.183412 73.434017 
Q 1068.875398 75.35286 1068.875398 79.077118 
Q 1068.875398 83.028235 1067.192865 84.956531 
Q 1065.510332 86.884827 1062.97708 86.884827 
Q 1060.424924 86.884827 1058.742391 84.965983 
Q 1057.059858 83.04714 1057.059858 79.190548 
M 872.321531 77.262251 
Q 872.491675 74.634475 874.089136 73.065372 
Q 875.686597 71.496268 878.0308 71.496268 
Q 880.620766 71.496268 882.246584 73.462374 
Q 883.305257 74.729 883.532115 77.262251 
L 872.321531 77.262251 
M 779.782224 77.262251 
Q 779.952368 74.634475 781.549829 73.065372 
Q 783.14729 71.496268 785.491493 71.496268 
Q 788.081459 71.496268 789.707277 73.462374 
Q 790.76595 74.729 790.992808 77.262251 
L 779.782224 77.262251 
M 563.548394 77.262251 
Q 563.718538 74.634475 565.315999 73.065372 
Q 566.91346 71.496268 569.257663 71.496268 
Q 571.847629 71.496268 573.473448 73.462374 
Q 574.53212 74.729 574.758978 77.262251 
L 563.548394 77.262251 
M 178.323989 77.262251 
Q 178.494133 74.634475 180.091594 73.065372 
Q 181.689055 71.496268 184.033258 71.496268 
Q 186.623224 71.496268 188.249043 73.462374 
Q 189.307715 74.729 189.534573 77.262251 
L 178.323989 77.262251 
M 270.863297 77.262251 
Q 271.03344 74.634475 272.630901 73.065372 
Q 274.228362 71.496268 276.572565 71.496268 
Q 279.162532 71.496268 280.78835 73.462374 
Q 281.847022 74.729 282.073881 77.262251 
L 270.863297 77.262251 
M 1026.755362 79.152738 
L 1026.755362 80.400459 
Q 1026.755362 82.650138 1026.207121 83.803334 
Q 1025.488736 85.296819 1023.957442 86.15699 
Q 1022.426148 87.017161 1020.460042 87.017161 
Q 1018.475031 87.017161 1017.444716 86.109728 
Q 1016.414401 85.202294 1016.414401 83.841144 
Q 1016.414401 82.952615 1016.887023 82.224778 
Q 1017.359644 81.496941 1018.229268 81.118844 
Q 1019.098892 80.740746 1021.197332 80.438269 
Q 1024.902685 79.908932 1026.755362 79.152738 
M 734.070264 79.152738 
L 734.070264 80.400459 
Q 734.070264 82.650138 733.522023 83.803334 
Q 732.803638 85.296819 731.272344 86.15699 
Q 729.74105 87.017161 727.774944 87.017161 
Q 725.789933 87.017161 724.759618 86.109728 
Q 723.729303 85.202294 723.729303 83.841144 
Q 723.729303 82.952615 724.201925 82.224778 
Q 724.674547 81.496941 725.54417 81.118844 
Q 726.413794 80.740746 728.512234 80.438269 
Q 732.217587 79.908932 734.070264 79.152738 
M 425.297127 79.152738 
L 425.297127 80.400459 
Q 425.297127 82.650138 424.748886 83.803334 
Q 424.030501 85.296819 422.499207 86.15699 
Q 420.967913 87.017161 419.001807 87.017161 
Q 417.016797 87.017161 415.986482 86.109728 
Q 414.956167 85.202294 414.956167 83.841144 
Q 414.956167 82.952615 415.428788 82.224778 
Q 415.90141 81.496941 416.771034 81.118844 
Q 417.640657 80.740746 419.739097 80.438269 
Q 423.44445 79.908932 425.297127 79.152738 
M 132.612029 79.152738 
L 132.612029 80.400459 
Q 132.612029 82.650138 132.063788 83.803334 
Q 131.345403 85.296819 129.814109 86.15699 
Q 128.282815 87.017161 126.31671 87.017161 
Q 124.331699 87.017161 123.301384 86.109728 
Q 122.271069 85.202294 122.271069 83.841144 
Q 122.271069 82.952615 122.74369 82.224778 
Q 123.216312 81.496941 124.085936 81.118844 
Q 124.955559 80.740746 127.053999 80.438269 
Q 130.759353 79.908932 132.612029 79.152738 
" clip-path="url(#pad6cae8b6a)"/>
   </g>
  </g>
 </g>
 <defs>
  <clipPath id="pad6cae8b6a">
   <rect x="7.2" y="7.2" width="1152" height="144"/>
  </clipPath>
 </defs>
</svg>
