<?xml version="1.0" encoding="utf-8" standalone="no"?>
<!DOCTYPE svg PUBLIC "-//W3C//DTD SVG 1.1//EN"
  "http://www.w3.org/Graphics/SVG/1.1/DTD/svg11.dtd">
<svg xmlns:xlink="http://www.w3.org/1999/xlink" width="414.605977pt" height="360pt" viewBox="0 0 414.605977 360" xmlns="http://www.w3.org/2000/svg" version="1.1">
 <metadata>
  <rdf:RDF xmlns:dc="http://purl.org/dc/elements/1.1/" xmlns:cc="http://creativecommons.org/ns#" xmlns:rdf="http://www.w3.org/1999/02/22-rdf-syntax-ns#">
   <cc:Work>
    <dc:type rdf:resource="http://purl.org/dc/dcmitype/StillImage"/>
    <dc:date>2026-02-17T12:13:30.499917</dc:date>
    <dc:format>image/svg+xml</dc:format>
    <dc:creator>
     <cc:Agent>
      <dc:title>Matplotlib v3.10.8, https://matplotlib.org/</dc:title>
     </cc:Agent>
    </dc:creator>
   </cc:Work>
  </rdf:RDF>
 </metadata>
 <defs>
  <style type="text/css">*{stroke-linejoin: round; stroke-linecap: butt}</style>
 </defs>
 <g id="figure_1">
  <g id="patch_1">
   <path d="M 0 360 
L 414.605977 360 
L 414.605977 0 
L 0 0 
L 0 360 
z
" style="fill: none"/>
  </g>
  <g id="axes_1">
   <g id="patch_2">
    <path d="M 72.58707 253.240422 
C 56.445475 251.263684 40.609686 258.764599 31.913402 272.50626 
C 23.217118 286.247922 23.217106 303.770363 31.913371 317.512036 
C 40.609636 331.253709 56.445415 338.754646 72.587014 336.77793 
" clip-path="url(#p8fadb8b597)" style="fill: none; stroke: #000000; stroke-width: 0.72; stroke-linejoin: miter"/>
   </g>
   <g id="patch_3">
    <path d="M 342.020471 336.773066 
C 358.162141 338.7492 373.997649 331.247691 382.693418 317.505704 
C 391.389187 303.763717 391.388543 286.241276 382.691763 272.499928 
C 373.994983 258.758581 358.158923 251.258237 342.017399 253.235559 
" clip-path="url(#p8fadb8b597)" style="fill: none; stroke: #000000; stroke-width: 0.72; stroke-linejoin: miter"/>
   </g>
   <g id="line2d_1">
    <path d="M 72.58707 253.240422 
L 342.020471 336.773066 
" clip-path="url(#p8fadb8b597)" style="fill: none; stroke: #000000; stroke-width: 0.72; stroke-linecap: square"/>
   </g>
   <g id="line2d_2">
    <path d="M 342.017399 253.235559 
L 72.58707 336.777858 
" clip-path="url(#p8fadb8b597)" style="fill: none; stroke: #000000; stroke-width: 0.72; stroke-linecap: square"/>
   </g>
   <g id="line2d_3">
    <path d="M 207.302989 295.00914 
L 207.302989 22.909091 
" clip-path="url(#p8fadb8b597)" style="fill: none; stroke: #000000; stroke-width: 0.72; stroke-linecap: square"/>
   </g>
  </g>
 </g>
 <defs>
  <clipPath id="p8fadb8b597">
   <rect x="7.2" y="7.2" width="400.205977" height="345.6"/>
  </clipPath>
 </defs>
</svg>
