<?xml version="1.0" encoding="utf-8" standalone="no"?>
<!DOCTYPE svg PUBLIC "-//W3C//DTD SVG 1.1//EN"
  "http://www.w3.org/Graphics/SVG/1.1/DTD/svg11.dtd">
<svg xmlns:xlink="http://www.w3.org/1999/xlink" width="360pt" height="360pt" viewBox="0 0 360 360" xmlns="http://www.w3.org/2000/svg" version="1.1">
 <metadata>
  <rdf:RDF xmlns:dc="http://purl.org/dc/elements/1.1/" xmlns:cc="http://creativecommons.org/ns#" xmlns:rdf="http://www.w3.org/1999/02/22-rdf-syntax-ns#">
   <cc:Work>
    <dc:type rdf:resource="http://purl.org/dc/dcmitype/StillImage"/>
    <dc:date>2026-02-17T12:13:29.202463</dc:date>
    <dc:format>image/svg+xml</dc:format>
    <dc:creator>
     <cc:Agent>
      <dc:title>Matplotlib v3.10.8, https://matplotlib.org/</dc:title>
     </cc:Agent>
    </dc:creator>
   </cc:Work>
  </rdf:RDF>
 </metadata>
 <defs>
  <style type="text/css">*{stroke-linejoin: round; stroke-linecap: butt}</style>
 </defs>
 <g id="figure_1">
  <g id="patch_1">
   <path d="M 0 360 
L 360 360 
L 360 0 
L 0 0 
L 0 360 
z
" style="fill: none"/>
  </g>
  <g id="axes_1">
   <g id="patch_2">
    <path d="M 139.937889 217.933275 
L 139.937889 113.206003 
L 156.625673 113.206003 
L 176.456703 187.358055 
Q 179.199901 197.716483 180.4572 202.859978 
Q 181.885948 197.144983 184.914895 186.072182 
L 204.974526 113.206003 
L 219.890661 113.206003 
L 219.890661 217.933275 
L 209.203621 217.933275 
L 209.203621 130.279549 
L 184.857745 217.933275 
L 174.856505 217.933275 
L 150.624929 128.779363 
L 150.624929 217.933275 
L 139.937889 217.933275 
" clip-path="url(#pffc640d8b1)"/>
   </g>
   <g id="patch_3">
    <path d="M 22.909091 22.909091 
L 337.090909 22.909091 
L 337.090909 337.090909 
L 22.909091 337.090909 
L 22.909091 22.909091 
" clip-path="url(#pffc640d8b1)" style="fill: none; stroke: #000000; stroke-width: 0.72; stroke-linejoin: miter"/>
   </g>
  </g>
 </g>
 <defs>
  <clipPath id="pffc640d8b1">
   <rect x="7.2" y="7.2" width="345.6" height="345.6"/>
  </clipPath>
 </defs>
</svg>
