<?xml version="1.0" encoding="utf-8" standalone="no"?>
<!DOCTYPE svg PUBLIC "-//W3C//DTD SVG 1.1//EN"
  "http://www.w3.org/Graphics/SVG/1.1/DTD/svg11.dtd">
<svg xmlns:xlink="http://www.w3.org/1999/xlink" width="1166.4pt" height="158.4pt" viewBox="0 0 1166.4 158.4" xmlns="http://www.w3.org/2000/svg" version="1.1">
 <metadata>
  <rdf:RDF xmlns:dc="http://purl.org/dc/elements/1.1/" xmlns:cc="http://creativecommons.org/ns#" xmlns:rdf="http://www.w3.org/1999/02/22-rdf-syntax-ns#">
   <cc:Work>
    <dc:type rdf:resource="http://purl.org/dc/dcmitype/StillImage"/>
    <dc:date>2026-02-17T12:13:29.577716</dc:date>
    <dc:format>image/svg+xml</dc:format>
    <dc:creator>
     <cc:Agent>
      <dc:title>Matplotlib v3.10.8, https://matplotlib.org/</dc:title>
     </cc:Agent>
    </dc:creator>
   </cc:Work>
  </rdf:RDF>
 </metadata>
 <defs>
  <style type="text/css">*{stroke-linejoin: round; stroke-linecap: butt}</style>
 </defs>
 <g id="figure_1">
  <g id="patch_1">
   <path d="M 0 158.4 
L 1166.4 158.4 
L 1166.4 0 
L 0 0 
L 0 158.4 
z
" style="fill: none"/>
  </g>
  <g id="axes_1">
   <g id="patch_2">
    <path d="M 505.899124 68.723847 
Q 505.899124 79.742362 510.694747 89.619062 
Q 515.49037 99.495762 524.796162 105.204837 
Q 534.101955 110.913912 545.91974 110.913912 
Q 556.824073 110.913912 566.244047 105.747199 
Q 575.664021 100.580486 580.802188 90.532514 
Q 585.940356 80.484542 585.940356 67.753305 
Q 585.940356 55.193339 581.059097 45.288094 
Q 576.177838 35.382849 566.872045 29.845046 
Q 557.566253 24.307243 545.976831 24.307243 
Q 528.278698 24.307243 517.088911 36.096483 
Q 505.899124 47.885723 505.899124 68.723847 
M 900.967117 109.486643 
L 912.042723 109.486643 
L 912.042723 35.668303 
L 939.731737 35.668303 
L 939.731737 25.791603 
L 873.392285 25.791603 
L 873.392285 35.668303 
L 900.967117 35.668303 
L 900.967117 109.486643 
M 192.642176 109.486643 
L 203.717781 109.486643 
L 203.717781 35.668303 
L 231.406795 35.668303 
L 231.406795 25.791603 
L 165.067343 25.791603 
L 165.067343 35.668303 
L 192.642176 35.668303 
L 192.642176 109.486643 
M 64.245078 110.913912 
L 72.80869 110.913912 
L 77.775586 86.593252 
L 95.702081 86.593252 
L 90.792277 110.913912 
L 99.355889 110.913912 
L 104.322785 86.593252 
L 121.906736 86.593252 
L 121.906736 78.08673 
L 106.035507 78.08673 
L 110.317314 57.362788 
L 121.906736 57.362788 
L 121.906736 48.856266 
L 112.030036 48.856266 
L 116.996931 24.364334 
L 108.376228 24.364334 
L 103.409333 48.856266 
L 85.425746 48.856266 
L 90.392642 24.364334 
L 81.829029 24.364334 
L 76.862134 48.856266 
L 59.563636 48.856266 
L 59.563636 57.362788 
L 75.149411 57.362788 
L 70.924696 78.08673 
L 59.563636 78.08673 
L 59.563636 86.593252 
L 69.211973 86.593252 
L 64.245078 110.913912 
M 1012.922079 114.510629 
Q 1012.693716 124.330238 1019.373334 129.211497 
Q 1026.052952 134.092757 1036.900194 134.092757 
Q 1046.034714 134.092757 1052.286152 130.667312 
Q 1058.537589 127.241867 1061.420672 121.332974 
Q 1064.303755 115.424081 1064.303755 101.265575 
L 1064.303755 48.856266 
L 1054.82669 48.856266 
L 1054.82669 56.163882 
Q 1047.861618 47.486088 1037.128557 47.486088 
Q 1029.078761 47.486088 1023.112778 51.482441 
Q 1017.146795 55.478793 1014.006803 62.814955 
Q 1010.866812 70.151116 1010.866812 78.82891 
Q 1010.866812 91.445966 1017.717702 100.466305 
Q 1024.568592 109.486643 1037.071467 109.486643 
Q 1047.119439 109.486643 1053.856147 101.551029 
Q 1053.913238 111.599001 1053.113967 114.738992 
Q 1051.743789 119.87716 1047.861618 122.731697 
Q 1043.979447 125.586235 1036.843104 125.586235 
Q 1030.220576 125.586235 1026.395496 122.731697 
Q 1023.540959 120.619339 1022.91296 115.994989 
L 1012.922079 114.510629 
M 343.533029 114.510629 
Q 343.304666 124.330238 349.984284 129.211497 
Q 356.663902 134.092757 367.511145 134.092757 
Q 376.645665 134.092757 382.897102 130.667312 
Q 389.148539 127.241867 392.031622 121.332974 
Q 394.914705 115.424081 394.914705 101.265575 
L 394.914705 48.856266 
L 385.43764 48.856266 
L 385.43764 56.163882 
Q 378.472569 47.486088 367.739508 47.486088 
Q 359.689712 47.486088 353.723728 51.482441 
Q 347.757745 55.478793 344.617754 62.814955 
Q 341.477762 70.151116 341.477762 78.82891 
Q 341.477762 91.445966 348.328652 100.466305 
Q 355.179542 109.486643 367.682417 109.486643 
Q 377.730389 109.486643 384.467097 101.551029 
Q 384.524188 111.599001 383.724918 114.738992 
Q 382.35474 119.87716 378.472569 122.731697 
Q 374.590398 125.586235 367.454054 125.586235 
Q 360.831527 125.586235 357.006446 122.731697 
Q 354.151909 120.619339 353.523911 115.994989 
L 343.533029 114.510629 
M 608.377021 109.486643 
L 608.377021 101.893573 
Q 614.485731 110.856821 625.218792 110.856821 
Q 636.008944 110.856821 643.716196 102.350299 
Q 651.423447 93.843778 651.423447 78.258003 
Q 651.423447 71.692566 649.596543 65.926401 
Q 647.769639 60.160235 644.544011 56.078246 
Q 641.318384 51.996257 636.322943 49.741173 
Q 631.327503 47.486088 625.732609 47.486088 
Q 615.627546 47.486088 609.119201 55.650065 
L 609.119201 25.791603 
L 598.842866 25.791603 
L 598.842866 109.486643 
L 608.377021 109.486643 
M 731.407588 89.961606 
Q 729.066868 96.469952 725.070515 99.438671 
Q 721.074162 102.40739 715.422178 102.40739 
Q 707.829108 102.40739 702.748032 97.09795 
Q 697.666955 91.78851 697.096047 81.797629 
L 742.311922 81.797629 
Q 742.369012 79.970725 742.369012 79.057273 
Q 742.369012 64.042406 734.661761 55.764247 
Q 726.95451 47.486088 714.79418 47.486088 
Q 702.234215 47.486088 694.355691 55.935519 
Q 686.477168 64.38495 686.477168 79.685271 
Q 686.477168 94.471776 694.270055 102.664298 
Q 702.062943 110.856821 715.365087 110.856821 
Q 725.926876 110.856821 732.720676 105.718654 
Q 739.514475 100.580486 742.026468 91.274694 
L 731.407588 89.961606 
M 451.948365 89.961606 
Q 449.607644 96.469952 445.611291 99.438671 
Q 441.614939 102.40739 435.962954 102.40739 
Q 428.369885 102.40739 423.288808 97.09795 
Q 418.207731 91.78851 417.636824 81.797629 
L 462.852698 81.797629 
Q 462.909789 79.970725 462.909789 79.057273 
Q 462.909789 64.042406 455.202537 55.764247 
Q 447.495286 47.486088 435.334956 47.486088 
Q 422.774991 47.486088 414.896468 55.935519 
Q 407.017944 64.38495 407.017944 79.685271 
Q 407.017944 94.471776 414.810831 102.664298 
Q 422.603719 110.856821 435.905864 110.856821 
Q 446.467653 110.856821 453.261452 105.718654 
Q 460.055251 100.580486 462.567244 91.274694 
L 451.948365 89.961606 
M 989.343599 102.007755 
Q 989.800325 106.289561 991.398866 109.486643 
L 1002.131927 109.486643 
Q 1000.190842 106.004107 999.534298 102.207572 
Q 998.877754 98.411038 998.877754 84.081259 
L 998.877754 70.379479 
Q 998.877754 63.528589 998.363938 60.902414 
Q 997.450486 56.677699 995.166856 53.908798 
Q 992.883226 51.139896 988.030512 49.312992 
Q 983.177798 47.486088 975.413456 47.486088 
Q 967.592023 47.486088 961.654585 49.626991 
Q 955.717147 51.767894 952.577156 55.735702 
Q 949.437164 59.703509 948.066986 66.154764 
L 958.114959 67.524942 
Q 959.77059 61.073687 963.224581 58.533148 
Q 966.678571 55.99261 973.929096 55.99261 
Q 981.693439 55.99261 985.6327 59.475146 
Q 988.544329 62.044229 988.544329 68.324212 
Q 988.544329 68.89512 988.487238 71.007477 
Q 982.606891 73.062744 970.161107 74.547104 
Q 964.052397 75.289284 961.026587 76.088554 
Q 956.916053 77.230369 953.633335 79.456908 
Q 950.350617 81.683448 948.323895 85.365801 
Q 946.297173 89.048154 946.297173 93.501233 
Q 946.297173 101.094303 951.663704 105.975562 
Q 957.030234 110.856821 967.021116 110.856821 
Q 973.072735 110.856821 978.35363 108.858645 
Q 983.634524 106.860469 989.343599 102.007755 
M 281.018658 102.007755 
Q 281.475384 106.289561 283.073925 109.486643 
L 293.806986 109.486643 
Q 291.8659 106.004107 291.209357 102.207572 
Q 290.552813 98.411038 290.552813 84.081259 
L 290.552813 70.379479 
Q 290.552813 63.528589 290.038996 60.902414 
Q 289.125544 56.677699 286.841914 53.908798 
Q 284.558284 51.139896 279.70557 49.312992 
Q 274.852857 47.486088 267.088514 47.486088 
Q 259.267082 47.486088 253.329644 49.626991 
Q 247.392206 51.767894 244.252214 55.735702 
Q 241.112223 59.703509 239.742045 66.154764 
L 249.790017 67.524942 
Q 251.445649 61.073687 254.899639 58.533148 
Q 258.35363 55.99261 265.604155 55.99261 
Q 273.368497 55.99261 277.307759 59.475146 
Q 280.219387 62.044229 280.219387 68.324212 
Q 280.219387 68.89512 280.162296 71.007477 
Q 274.281949 73.062744 261.836165 74.547104 
Q 255.727455 75.289284 252.701645 76.088554 
Q 248.591111 77.230369 245.308393 79.456908 
Q 242.025675 81.683448 239.998953 85.365801 
Q 237.972232 89.048154 237.972232 93.501233 
Q 237.972232 101.094303 243.338762 105.975562 
Q 248.705293 110.856821 258.696174 110.856821 
Q 264.747794 110.856821 270.028688 108.858645 
Q 275.309583 106.860469 281.018658 102.007755 
M 794.492868 87.278341 
Q 793.408143 94.985593 789.3547 98.696491 
Q 785.301257 102.40739 779.249637 102.40739 
Q 771.713658 102.40739 767.032217 96.869587 
Q 762.350775 91.331784 762.350775 79.114364 
Q 762.350775 67.068216 767.203489 61.501867 
Q 772.056203 55.935519 779.820545 55.935519 
Q 784.958712 55.935519 788.583975 59.01842 
Q 792.209238 62.10132 793.636506 68.210031 
L 803.627388 66.66858 
Q 801.857574 57.476969 795.577592 52.481529 
Q 789.297609 47.486088 779.420909 47.486088 
Q 771.599477 47.486088 764.948404 51.168442 
Q 758.297332 54.850795 755.043159 62.215502 
Q 751.788986 69.580209 751.788986 79.399818 
Q 751.788986 94.585957 759.353511 102.721389 
Q 766.918035 110.856821 779.363819 110.856821 
Q 789.297609 110.856821 796.119954 104.947928 
Q 802.942299 99.039036 804.59793 88.591428 
L 794.492868 87.278341 
M 1086.569147 134.092757 
Q 1095.018578 123.359696 1100.927471 108.972826 
Q 1106.836364 94.585957 1106.836364 79.171455 
Q 1106.836364 65.583856 1102.440376 53.138072 
Q 1097.302208 38.694113 1086.569147 24.364334 
L 1079.20444 24.364334 
Q 1086.169512 36.353392 1088.396051 41.491559 
Q 1091.878587 49.370083 1093.819673 57.933695 
Q 1096.274575 68.495484 1096.274575 79.228545 
Q 1096.274575 106.689196 1079.20444 134.092757 
L 1086.569147 134.092757 
M 150.737565 134.092757 
L 158.102272 134.092757 
Q 141.032137 106.689196 141.032137 79.228545 
Q 141.032137 68.438394 143.48704 57.762423 
Q 145.485216 49.198811 148.967752 41.320287 
Q 151.194291 36.23921 158.102272 24.364334 
L 150.737565 24.364334 
Q 140.004504 38.694113 134.866336 53.138072 
Q 130.470348 65.583856 130.470348 79.171455 
Q 130.470348 94.585957 136.350696 108.972826 
Q 142.231043 123.359696 150.737565 134.092757 
M 497.906419 100.295032 
Q 495.108972 100.694668 493.396249 100.694668 
Q 491.112619 100.694668 489.885168 99.952488 
Q 488.657717 99.210308 488.115355 97.954312 
Q 487.572993 96.698315 487.572993 92.302327 
L 487.572993 56.848971 
L 497.906419 56.848971 
L 497.906419 48.856266 
L 487.572993 48.856266 
L 487.572993 27.675598 
L 477.353749 33.841399 
L 477.353749 48.856266 
L 469.817769 48.856266 
L 469.817769 56.848971 
L 477.353749 56.848971 
L 477.353749 91.73142 
Q 477.353749 100.980121 478.609745 103.863204 
Q 479.865742 106.746287 482.948642 108.5161 
Q 486.031543 110.285914 491.626436 110.285914 
Q 495.051881 110.285914 499.390778 109.372462 
L 497.906419 100.295032 
M 835.826571 100.295032 
Q 833.029124 100.694668 831.316402 100.694668 
Q 829.032772 100.694668 827.805321 99.952488 
Q 826.577869 99.210308 826.035507 97.954312 
Q 825.493145 96.698315 825.493145 92.302327 
L 825.493145 56.848971 
L 835.826571 56.848971 
L 835.826571 48.856266 
L 825.493145 48.856266 
L 825.493145 27.675598 
L 815.273901 33.841399 
L 815.273901 48.856266 
L 807.737922 48.856266 
L 807.737922 56.848971 
L 815.273901 56.848971 
L 815.273901 91.73142 
Q 815.273901 100.980121 816.529897 103.863204 
Q 817.785894 106.746287 820.868794 108.5161 
Q 823.951695 110.285914 829.546588 110.285914 
Q 832.972033 110.285914 837.31093 109.372462 
L 835.826571 100.295032 
M 306.366951 109.486643 
L 316.643286 109.486643 
L 316.643286 77.744186 
Q 316.643286 71.23584 318.356008 65.755128 
Q 319.497823 62.158411 322.181089 60.131689 
Q 324.864354 58.104968 328.232708 58.104968 
Q 332.000698 58.104968 335.768687 60.331507 
L 339.308314 50.797352 
Q 333.941783 47.486088 328.746525 47.486088 
Q 325.149808 47.486088 322.152543 49.541355 
Q 319.155279 51.596622 315.615652 58.047877 
L 315.615652 48.856266 
L 306.366951 48.856266 
L 306.366951 109.486643 
M 650.852539 133.008032 
Q 654.73471 134.092757 658.902335 134.092757 
Q 667.523038 134.092757 671.233937 128.383682 
Q 674.145566 123.987694 674.145566 112.797907 
L 674.145566 48.856266 
L 663.86923 48.856266 
L 663.86923 112.569544 
Q 663.86923 120.904793 662.32778 122.988606 
Q 660.78633 125.072418 657.646339 125.072418 
Q 655.876525 125.072418 652.793625 124.273148 
L 650.852539 133.008032 
M 848.786171 109.486643 
L 860.489775 109.486643 
L 860.489775 97.783039 
L 848.786171 97.783039 
L 848.786171 109.486643 
M 663.86923 37.72357 
L 674.145566 37.72357 
L 674.145566 25.791603 
L 663.86923 25.791603 
L 663.86923 37.72357 
M 517.317274 68.89512 
Q 517.317274 49.998081 525.79525 41.91974 
Q 534.273227 33.841399 546.033921 33.841399 
Q 554.31208 33.841399 560.963153 38.037569 
Q 567.614225 42.233739 571.068216 49.855354 
Q 574.522206 57.476969 574.522206 67.696214 
Q 574.522206 83.852896 566.443865 92.644872 
Q 558.365524 101.436847 545.862649 101.436847 
Q 533.588138 101.436847 525.452706 92.730508 
Q 517.317274 84.024168 517.317274 68.89512 
M 79.488308 78.08673 
L 83.713024 57.362788 
L 101.69661 57.362788 
L 97.414804 78.08673 
L 79.488308 78.08673 
M 1021.428601 78.08673 
Q 1021.428601 67.125306 1026.224224 61.558958 
Q 1031.019847 55.99261 1037.870737 55.99261 
Q 1044.835809 55.99261 1049.774159 61.644594 
Q 1054.712508 67.296579 1054.712508 78.429275 
Q 1054.712508 90.075788 1049.916885 95.527955 
Q 1045.121262 100.980121 1038.042009 100.980121 
Q 1030.905665 100.980121 1026.167133 95.499409 
Q 1021.428601 90.018697 1021.428601 78.08673 
M 352.039551 78.08673 
Q 352.039551 67.125306 356.835174 61.558958 
Q 361.630797 55.99261 368.481687 55.99261 
Q 375.446759 55.99261 380.385109 61.644594 
Q 385.323459 67.296579 385.323459 78.429275 
Q 385.323459 90.075788 380.527836 95.527955 
Q 375.732213 100.980121 368.65296 100.980121 
Q 361.516616 100.980121 356.778083 95.499409 
Q 352.039551 90.018697 352.039551 78.08673 
M 608.262839 78.714729 
Q 608.262839 67.639123 613.172644 61.787321 
Q 618.082449 55.935519 624.819157 55.935519 
Q 631.498775 55.935519 636.208762 61.587503 
Q 640.918749 67.239488 640.918749 79.114364 
Q 640.918749 90.703786 636.008944 96.555588 
Q 631.09914 102.40739 624.362431 102.40739 
Q 616.084272 102.40739 611.231558 94.471776 
Q 608.262839 89.619062 608.262839 78.714729 
M 697.666955 73.348198 
Q 698.180772 65.412584 703.00494 60.674051 
Q 707.829108 55.935519 714.908361 55.935519 
Q 722.729794 55.935519 727.639599 61.872957 
Q 730.836681 65.698038 731.52177 73.348198 
L 697.666955 73.348198 
M 418.207731 73.348198 
Q 418.721548 65.412584 423.545716 60.674051 
Q 428.369885 55.935519 435.449138 55.935519 
Q 443.270571 55.935519 448.180375 61.872957 
Q 451.377457 65.698038 452.062546 73.348198 
L 418.207731 73.348198 
M 988.487238 79.057273 
L 988.487238 82.825263 
Q 988.487238 89.619062 986.831606 93.101598 
Q 984.662158 97.611767 980.037807 100.209396 
Q 975.413456 102.807025 969.476018 102.807025 
Q 963.481489 102.807025 960.370043 100.066669 
Q 957.258597 97.326313 957.258597 93.215779 
Q 957.258597 90.532514 958.685866 88.33452 
Q 960.113135 86.136526 962.739309 84.994711 
Q 965.365484 83.852896 971.702557 82.939444 
Q 982.892344 81.340903 988.487238 79.057273 
M 280.162296 79.057273 
L 280.162296 82.825263 
Q 280.162296 89.619062 278.506665 93.101598 
Q 276.337216 97.611767 271.712865 100.209396 
Q 267.088514 102.807025 261.151076 102.807025 
Q 255.156548 102.807025 252.045102 100.066669 
Q 248.933656 97.326313 248.933656 93.215779 
Q 248.933656 90.532514 250.360925 88.33452 
Q 251.788193 86.136526 254.414368 84.994711 
Q 257.040542 83.852896 263.377616 82.939444 
Q 274.567403 81.340903 280.162296 79.057273 
" clip-path="url(#pd462a82f71)"/>
   </g>
  </g>
 </g>
 <defs>
  <clipPath id="pd462a82f71">
   <rect x="7.2" y="7.2" width="1152" height="144"/>
  </clipPath>
 </defs>
</svg>
