<?xml version="1.0" encoding="utf-8" standalone="no"?>
<!DOCTYPE svg PUBLIC "-//W3C//DTD SVG 1.1//EN"
  "http://www.w3.org/Graphics/SVG/1.1/DTD/svg11.dtd">
<svg xmlns:xlink="http://www.w3.org/1999/xlink" width="360pt" height="360pt" viewBox="0 0 360 360" xmlns="http://www.w3.org/2000/svg" version="1.1">
 <metadata>
  <rdf:RDF xmlns:dc="http://purl.org/dc/elements/1.1/" xmlns:cc="http://creativecommons.org/ns#" xmlns:rdf="http://www.w3.org/1999/02/22-rdf-syntax-ns#">
   <cc:Work>
    <dc:type rdf:resource="http://purl.org/dc/dcmitype/StillImage"/>
    <dc:date>2026-02-17T12:14:11.214812</dc:date>
    <dc:format>image/svg+xml</dc:format>
    <dc:creator>
     <cc:Agent>
      <dc:title>Matplotlib v3.10.8, https://matplotlib.org/</dc:title>
     </cc:Agent>
    </dc:creator>
   </cc:Work>
  </rdf:RDF>
 </metadata>
 <defs>
  <style type="text/css">*{stroke-linejoin: round; stroke-linecap: butt}</style>
 </defs>
 <g id="figure_1">
  <g id="patch_1">
   <path d="M 0 360 
L 360 360 
L 360 0 
L 0 0 
L 0 360 
z
" style="fill: none"/>
  </g>
  <g id="axes_1">
   <g id="line2d_1">
    <path d="M 22.909091 22.909091 
L 22.909091 337.090909 
" clip-path="url(#pbbd5d06f65)" style="fill: none; stroke: #000000; stroke-width: 0.72; stroke-linecap: square"/>
   </g>
   <g id="line2d_2">
    <path d="M 337.090909 337.090909 
L 337.090909 22.909091 
" clip-path="url(#pbbd5d06f65)" style="fill: none; stroke: #000000; stroke-width: 0.72; stroke-linecap: square"/>
   </g>
   <g id="line2d_3">
    <path d="M 138.79407 100.191129 
L 221.288412 259.808871 
" clip-path="url(#pbbd5d06f65)" style="fill: none; stroke: #000000; stroke-width: 0.72; stroke-linecap: square"/>
   </g>
   <g id="line2d_4">
    <path d="M 138.79407 259.808871 
L 221.288412 100.191129 
" clip-path="url(#pbbd5d06f65)" style="fill: none; stroke: #000000; stroke-width: 0.72; stroke-linecap: square"/>
   </g>
   <g id="patch_2">
    <path d="M 142.96951 251.72984 
C 130.842898 270.246733 134.239325 294.871972 150.925693 309.414845 
C 167.612061 323.957718 192.470422 323.957718 209.15679 309.414845 
C 225.843157 294.871972 229.239584 270.246733 217.112972 251.72984 
" clip-path="url(#pbbd5d06f65)" style="fill: none; stroke: #000000; stroke-width: 0.72; stroke-linejoin: miter"/>
   </g>
   <g id="patch_3">
    <path d="M 217.112972 108.27016 
C 229.239584 89.753267 225.843157 65.128028 209.15679 50.585155 
C 192.470422 36.042282 167.612061 36.042282 150.925693 50.585155 
C 134.239325 65.128028 130.842898 89.753267 142.96951 108.27016 
" clip-path="url(#pbbd5d06f65)" style="fill: none; stroke: #000000; stroke-width: 0.72; stroke-linejoin: miter"/>
   </g>
   <g id="line2d_5">
    <path d="M 22.909091 337.090909 
L 337.090909 337.090909 
" clip-path="url(#pbbd5d06f65)" style="fill: none; stroke: #000000; stroke-width: 0.72; stroke-linecap: square"/>
   </g>
   <g id="line2d_6">
    <path d="M 337.090909 22.909091 
L 22.909091 22.909091 
" clip-path="url(#pbbd5d06f65)" style="fill: none; stroke: #000000; stroke-width: 0.72; stroke-linecap: square"/>
   </g>
  </g>
 </g>
 <defs>
  <clipPath id="pbbd5d06f65">
   <rect x="7.2" y="7.2" width="345.6" height="345.6"/>
  </clipPath>
 </defs>
</svg>
