<?xml version="1.0" encoding="utf-8" standalone="no"?>
<!DOCTYPE svg PUBLIC "-//W3C//DTD SVG 1.1//EN"
  "http://www.w3.org/Graphics/SVG/1.1/DTD/svg11.dtd">
<svg xmlns:xlink="http://www.w3.org/1999/xlink" width="360pt" height="360pt" viewBox="0 0 360 360" xmlns="http://www.w3.org/2000/svg" version="1.1">
 <metadata>
  <rdf:RDF xmlns:dc="http://purl.org/dc/elements/1.1/" xmlns:cc="http://creativecommons.org/ns#" xmlns:rdf="http://www.w3.org/1999/02/22-rdf-syntax-ns#">
   <cc:Work>
    <dc:type rdf:resource="http://purl.org/dc/dcmitype/StillImage"/>
    <dc:date>2026-02-17T12:15:49.031595</dc:date>
    <dc:format>image/svg+xml</dc:format>
    <dc:creator>
     <cc:Agent>
      <dc:title>Matplotlib v3.10.8, https://matplotlib.org/</dc:title>
     </cc:Agent>
    </dc:creator>
   </cc:Work>
  </rdf:RDF>
 </metadata>
 <defs>
  <style type="text/css">*{stroke-linejoin: round; stroke-linecap: butt}</style>
 </defs>
 <g id="figure_1">
  <g id="patch_1">
   <path d="M 0 360 
L 360 360 
L 360 0 
L 0 0 
L 0 360 
z
" style="fill: none"/>
  </g>
  <g id="axes_1">
   <g id="PathCollection_1">
    <defs>
     <path id="m3185bd6fb0" d="M 0 0.158114 
C 0.041932 0.158114 0.082153 0.141454 0.111803 0.111803 
C 0.141454 0.082153 0.158114 0.041932 0.158114 0 
C 0.158114 -0.041932 0.141454 -0.082153 0.111803 -0.111803 
C 0.082153 -0.141454 0.041932 -0.158114 0 -0.158114 
C -0.041932 -0.158114 -0.082153 -0.141454 -0.111803 -0.111803 
C -0.141454 -0.082153 -0.158114 -0.041932 -0.158114 0 
C -0.158114 0.041932 -0.141454 0.082153 -0.111803 0.111803 
C -0.082153 0.141454 -0.041932 0.158114 0 0.158114 
z
" style="stroke: #00ff00"/>
    </defs>
    <g clip-path="url(#p6d3117e2dd)">
     <use xlink:href="#m3185bd6fb0" x="180" y="180" style="fill: #00ff00; stroke: #00ff00"/>
    </g>
   </g>
   <g id="PathCollection_2">
    <g clip-path="url(#p6d3117e2dd)">
     <use xlink:href="#m3185bd6fb0" x="180" y="180" style="fill: #00ff00; stroke: #00ff00"/>
    </g>
   </g>
  </g>
 </g>
 <defs>
  <clipPath id="p6d3117e2dd">
   <rect x="7.2" y="7.2" width="345.6" height="345.6"/>
  </clipPath>
 </defs>
</svg>
