<?xml version="1.0" encoding="utf-8" standalone="no"?>
<!DOCTYPE svg PUBLIC "-//W3C//DTD SVG 1.1//EN"
  "http://www.w3.org/Graphics/SVG/1.1/DTD/svg11.dtd">
<svg xmlns:xlink="http://www.w3.org/1999/xlink" width="302.4pt" height="446.4pt" viewBox="0 0 302.4 446.4" xmlns="http://www.w3.org/2000/svg" version="1.1">
 <metadata>
  <rdf:RDF xmlns:dc="http://purl.org/dc/elements/1.1/" xmlns:cc="http://creativecommons.org/ns#" xmlns:rdf="http://www.w3.org/1999/02/22-rdf-syntax-ns#">
   <cc:Work>
    <dc:type rdf:resource="http://purl.org/dc/dcmitype/StillImage"/>
    <dc:date>2026-02-17T12:15:02.258322</dc:date>
    <dc:format>image/svg+xml</dc:format>
    <dc:creator>
     <cc:Agent>
      <dc:title>Matplotlib v3.10.8, https://matplotlib.org/</dc:title>
     </cc:Agent>
    </dc:creator>
   </cc:Work>
  </rdf:RDF>
 </metadata>
 <defs>
  <style type="text/css">*{stroke-linejoin: round; stroke-linecap: butt}</style>
 </defs>
 <g id="figure_1">
  <g id="patch_1">
   <path d="M 0 446.4 
L 302.4 446.4 
L 302.4 0 
L 0 0 
L 0 446.4 
z
" style="fill: none"/>
  </g>
  <g id="axes_1">
   <g id="patch_2">
    <path d="M 196.2 272.290909 
L 196.219699 272.691888 
L 196.278606 273.089006 
L 196.376153 273.478437 
L 196.511402 273.856432 
L 196.683049 274.21935 
L 196.889442 274.563696 
L 197.128594 274.886154 
L 197.3982 275.183619 
L 197.695664 275.453225 
L 198.018122 275.692376 
L 198.362468 275.898769 
L 198.725386 276.070416 
L 199.103381 276.205665 
L 199.492812 276.303213 
L 199.88993 276.362119 
L 200.290909 276.381818 
L 200.691888 276.362119 
L 201.089006 276.303213 
L 201.478437 276.205665 
L 201.856432 276.070416 
L 202.21935 275.898769 
L 202.563696 275.692376 
L 202.886154 275.453225 
L 203.183619 275.183619 
L 203.453225 274.886154 
L 203.692376 274.563696 
L 203.898769 274.21935 
L 204.070416 273.856432 
L 204.205665 273.478437 
L 204.303213 273.089006 
L 204.362119 272.691888 
L 204.381818 272.290909 
L 200.290909 272.290909 
z
" clip-path="url(#p923783be6e)"/>
   </g>
   <g id="patch_3">
    <path d="M 204.381818 272.290909 
L 204.362119 271.88993 
L 204.303213 271.492812 
L 204.205665 271.103381 
L 204.070416 270.725386 
L 203.898769 270.362468 
L 203.692376 270.018122 
L 203.453225 269.695664 
L 203.183619 269.3982 
L 202.886154 269.128594 
L 202.563696 268.889442 
L 202.21935 268.683049 
L 201.856432 268.511402 
L 201.478437 268.376153 
L 201.089006 268.278606 
L 200.691888 268.219699 
L 200.290909 268.2 
L 199.88993 268.219699 
L 199.492812 268.278606 
L 199.103381 268.376153 
L 198.725386 268.511402 
L 198.362468 268.683049 
L 198.018122 268.889442 
L 197.695664 269.128594 
L 197.3982 269.3982 
L 197.128594 269.695664 
L 196.889442 270.018122 
L 196.683049 270.362468 
L 196.511402 270.725386 
L 196.376153 271.103381 
L 196.278606 271.492812 
L 196.219699 271.88993 
L 196.2 272.290909 
L 200.290909 272.290909 
z
" clip-path="url(#p923783be6e)"/>
   </g>
   <g id="patch_4">
    <path d="M 98.018182 272.290909 
L 98.037881 272.691888 
L 98.096787 273.089006 
L 98.194335 273.478437 
L 98.329584 273.856432 
L 98.501231 274.21935 
L 98.707624 274.563696 
L 98.946775 274.886154 
L 99.216381 275.183619 
L 99.513846 275.453225 
L 99.836304 275.692376 
L 100.18065 275.898769 
L 100.543568 276.070416 
L 100.921563 276.205665 
L 101.310994 276.303213 
L 101.708112 276.362119 
L 102.109091 276.381818 
L 102.51007 276.362119 
L 102.907188 276.303213 
L 103.296619 276.205665 
L 103.674614 276.070416 
L 104.037532 275.898769 
L 104.381878 275.692376 
L 104.704336 275.453225 
L 105.0018 275.183619 
L 105.271406 274.886154 
L 105.510558 274.563696 
L 105.716951 274.21935 
L 105.888598 273.856432 
L 106.023847 273.478437 
L 106.121394 273.089006 
L 106.180301 272.691888 
L 106.2 272.290909 
L 102.109091 272.290909 
z
" clip-path="url(#p923783be6e)"/>
   </g>
   <g id="patch_5">
    <path d="M 106.2 272.290909 
L 106.180301 271.88993 
L 106.121394 271.492812 
L 106.023847 271.103381 
L 105.888598 270.725386 
L 105.716951 270.362468 
L 105.510558 270.018122 
L 105.271406 269.695664 
L 105.0018 269.3982 
L 104.704336 269.128594 
L 104.381878 268.889442 
L 104.037532 268.683049 
L 103.674614 268.511402 
L 103.296619 268.376153 
L 102.907188 268.278606 
L 102.51007 268.219699 
L 102.109091 268.2 
L 101.708112 268.219699 
L 101.310994 268.278606 
L 100.921563 268.376153 
L 100.543568 268.511402 
L 100.18065 268.683049 
L 99.836304 268.889442 
L 99.513846 269.128594 
L 99.216381 269.3982 
L 98.946775 269.695664 
L 98.707624 270.018122 
L 98.501231 270.362468 
L 98.329584 270.725386 
L 98.194335 271.103381 
L 98.096787 271.492812 
L 98.037881 271.88993 
L 98.018182 272.290909 
L 102.109091 272.290909 
z
" clip-path="url(#p923783be6e)"/>
   </g>
   <g id="patch_6">
    <path d="M 48.927273 321.381818 
L 48.946972 321.782797 
L 49.005878 322.179915 
L 49.103426 322.569346 
L 49.238675 322.947341 
L 49.410322 323.310259 
L 49.616715 323.654605 
L 49.855866 323.977063 
L 50.125472 324.274528 
L 50.422937 324.544134 
L 50.745395 324.783285 
L 51.089741 324.989678 
L 51.452659 325.161325 
L 51.830654 325.296574 
L 52.220085 325.394122 
L 52.617203 325.453028 
L 53.018182 325.472727 
L 53.419161 325.453028 
L 53.816279 325.394122 
L 54.20571 325.296574 
L 54.583705 325.161325 
L 54.946623 324.989678 
L 55.290969 324.783285 
L 55.613427 324.544134 
L 55.910891 324.274528 
L 56.180497 323.977063 
L 56.419648 323.654605 
L 56.626042 323.310259 
L 56.797689 322.947341 
L 56.932938 322.569346 
L 57.030485 322.179915 
L 57.089392 321.782797 
L 57.109091 321.381818 
L 53.018182 321.381818 
z
" clip-path="url(#p923783be6e)"/>
   </g>
   <g id="patch_7">
    <path d="M 57.109091 321.381818 
L 57.089392 320.980839 
L 57.030485 320.583721 
L 56.932938 320.19429 
L 56.797689 319.816295 
L 56.626042 319.453377 
L 56.419648 319.109031 
L 56.180497 318.786573 
L 55.910891 318.489109 
L 55.613427 318.219503 
L 55.290969 317.980352 
L 54.946623 317.773958 
L 54.583705 317.602311 
L 54.20571 317.467062 
L 53.816279 317.369515 
L 53.419161 317.310608 
L 53.018182 317.290909 
L 52.617203 317.310608 
L 52.220085 317.369515 
L 51.830654 317.467062 
L 51.452659 317.602311 
L 51.089741 317.773958 
L 50.745395 317.980352 
L 50.422937 318.219503 
L 50.125472 318.489109 
L 49.855866 318.786573 
L 49.616715 319.109031 
L 49.410322 319.453377 
L 49.238675 319.816295 
L 49.103426 320.19429 
L 49.005878 320.583721 
L 48.946972 320.980839 
L 48.927273 321.381818 
L 53.018182 321.381818 
z
" clip-path="url(#p923783be6e)"/>
   </g>
   <g id="patch_8">
    <path d="M 147.109091 321.381818 
L 147.12879 321.782797 
L 147.187697 322.179915 
L 147.285244 322.569346 
L 147.420493 322.947341 
L 147.59214 323.310259 
L 147.798533 323.654605 
L 148.037685 323.977063 
L 148.30729 324.274528 
L 148.604755 324.544134 
L 148.927213 324.783285 
L 149.271559 324.989678 
L 149.634477 325.161325 
L 150.012472 325.296574 
L 150.401903 325.394122 
L 150.799021 325.453028 
L 151.2 325.472727 
L 151.600979 325.453028 
L 151.998097 325.394122 
L 152.387528 325.296574 
L 152.765523 325.161325 
L 153.128441 324.989678 
L 153.472787 324.783285 
L 153.795245 324.544134 
L 154.09271 324.274528 
L 154.362315 323.977063 
L 154.601467 323.654605 
L 154.80786 323.310259 
L 154.979507 322.947341 
L 155.114756 322.569346 
L 155.212303 322.179915 
L 155.27121 321.782797 
L 155.290909 321.381818 
L 151.2 321.381818 
z
" clip-path="url(#p923783be6e)"/>
   </g>
   <g id="patch_9">
    <path d="M 155.290909 321.381818 
L 155.27121 320.980839 
L 155.212303 320.583721 
L 155.114756 320.19429 
L 154.979507 319.816295 
L 154.80786 319.453377 
L 154.601467 319.109031 
L 154.362315 318.786573 
L 154.09271 318.489109 
L 153.795245 318.219503 
L 153.472787 317.980352 
L 153.128441 317.773958 
L 152.765523 317.602311 
L 152.387528 317.467062 
L 151.998097 317.369515 
L 151.600979 317.310608 
L 151.2 317.290909 
L 150.799021 317.310608 
L 150.401903 317.369515 
L 150.012472 317.467062 
L 149.634477 317.602311 
L 149.271559 317.773958 
L 148.927213 317.980352 
L 148.604755 318.219503 
L 148.30729 318.489109 
L 148.037685 318.786573 
L 147.798533 319.109031 
L 147.59214 319.453377 
L 147.420493 319.816295 
L 147.285244 320.19429 
L 147.187697 320.583721 
L 147.12879 320.980839 
L 147.109091 321.381818 
L 151.2 321.381818 
z
" clip-path="url(#p923783be6e)"/>
   </g>
   <g id="patch_10">
    <path d="M 245.290909 321.381818 
L 245.310608 321.782797 
L 245.369515 322.179915 
L 245.467062 322.569346 
L 245.602311 322.947341 
L 245.773958 323.310259 
L 245.980352 323.654605 
L 246.219503 323.977063 
L 246.489109 324.274528 
L 246.786573 324.544134 
L 247.109031 324.783285 
L 247.453377 324.989678 
L 247.816295 325.161325 
L 248.19429 325.296574 
L 248.583721 325.394122 
L 248.980839 325.453028 
L 249.381818 325.472727 
L 249.782797 325.453028 
L 250.179915 325.394122 
L 250.569346 325.296574 
L 250.947341 325.161325 
L 251.310259 324.989678 
L 251.654605 324.783285 
L 251.977063 324.544134 
L 252.274528 324.274528 
L 252.544134 323.977063 
L 252.783285 323.654605 
L 252.989678 323.310259 
L 253.161325 322.947341 
L 253.296574 322.569346 
L 253.394122 322.179915 
L 253.453028 321.782797 
L 253.472727 321.381818 
L 249.381818 321.381818 
z
" clip-path="url(#p923783be6e)"/>
   </g>
   <g id="patch_11">
    <path d="M 253.472727 321.381818 
L 253.453028 320.980839 
L 253.394122 320.583721 
L 253.296574 320.19429 
L 253.161325 319.816295 
L 252.989678 319.453377 
L 252.783285 319.109031 
L 252.544134 318.786573 
L 252.274528 318.489109 
L 251.977063 318.219503 
L 251.654605 317.980352 
L 251.310259 317.773958 
L 250.947341 317.602311 
L 250.569346 317.467062 
L 250.179915 317.369515 
L 249.782797 317.310608 
L 249.381818 317.290909 
L 248.980839 317.310608 
L 248.583721 317.369515 
L 248.19429 317.467062 
L 247.816295 317.602311 
L 247.453377 317.773958 
L 247.109031 317.980352 
L 246.786573 318.219503 
L 246.489109 318.489109 
L 246.219503 318.786573 
L 245.980352 319.109031 
L 245.773958 319.453377 
L 245.602311 319.816295 
L 245.467062 320.19429 
L 245.369515 320.583721 
L 245.310608 320.980839 
L 245.290909 321.381818 
L 249.381818 321.381818 
z
" clip-path="url(#p923783be6e)"/>
   </g>
   <g id="patch_12">
    <path d="M 245.290909 223.2 
L 245.310608 223.600979 
L 245.369515 223.998097 
L 245.467062 224.387528 
L 245.602311 224.765523 
L 245.773958 225.128441 
L 245.980352 225.472787 
L 246.219503 225.795245 
L 246.489109 226.09271 
L 246.786573 226.362315 
L 247.109031 226.601467 
L 247.453377 226.80786 
L 247.816295 226.979507 
L 248.19429 227.114756 
L 248.583721 227.212303 
L 248.980839 227.27121 
L 249.381818 227.290909 
L 249.782797 227.27121 
L 250.179915 227.212303 
L 250.569346 227.114756 
L 250.947341 226.979507 
L 251.310259 226.80786 
L 251.654605 226.601467 
L 251.977063 226.362315 
L 252.274528 226.09271 
L 252.544134 225.795245 
L 252.783285 225.472787 
L 252.989678 225.128441 
L 253.161325 224.765523 
L 253.296574 224.387528 
L 253.394122 223.998097 
L 253.453028 223.600979 
L 253.472727 223.2 
L 249.381818 223.2 
z
" clip-path="url(#p923783be6e)"/>
   </g>
   <g id="patch_13">
    <path d="M 253.472727 223.2 
L 253.453028 222.799021 
L 253.394122 222.401903 
L 253.296574 222.012472 
L 253.161325 221.634477 
L 252.989678 221.271559 
L 252.783285 220.927213 
L 252.544134 220.604755 
L 252.274528 220.30729 
L 251.977063 220.037685 
L 251.654605 219.798533 
L 251.310259 219.59214 
L 250.947341 219.420493 
L 250.569346 219.285244 
L 250.179915 219.187697 
L 249.782797 219.12879 
L 249.381818 219.109091 
L 248.980839 219.12879 
L 248.583721 219.187697 
L 248.19429 219.285244 
L 247.816295 219.420493 
L 247.453377 219.59214 
L 247.109031 219.798533 
L 246.786573 220.037685 
L 246.489109 220.30729 
L 246.219503 220.604755 
L 245.980352 220.927213 
L 245.773958 221.271559 
L 245.602311 221.634477 
L 245.467062 222.012472 
L 245.369515 222.401903 
L 245.310608 222.799021 
L 245.290909 223.2 
L 249.381818 223.2 
z
" clip-path="url(#p923783be6e)"/>
   </g>
   <g id="patch_14">
    <path d="M 147.109091 223.2 
L 147.12879 223.600979 
L 147.187697 223.998097 
L 147.285244 224.387528 
L 147.420493 224.765523 
L 147.59214 225.128441 
L 147.798533 225.472787 
L 148.037685 225.795245 
L 148.30729 226.09271 
L 148.604755 226.362315 
L 148.927213 226.601467 
L 149.271559 226.80786 
L 149.634477 226.979507 
L 150.012472 227.114756 
L 150.401903 227.212303 
L 150.799021 227.27121 
L 151.2 227.290909 
L 151.600979 227.27121 
L 151.998097 227.212303 
L 152.387528 227.114756 
L 152.765523 226.979507 
L 153.128441 226.80786 
L 153.472787 226.601467 
L 153.795245 226.362315 
L 154.09271 226.09271 
L 154.362315 225.795245 
L 154.601467 225.472787 
L 154.80786 225.128441 
L 154.979507 224.765523 
L 155.114756 224.387528 
L 155.212303 223.998097 
L 155.27121 223.600979 
L 155.290909 223.2 
L 151.2 223.2 
z
" clip-path="url(#p923783be6e)"/>
   </g>
   <g id="patch_15">
    <path d="M 155.290909 223.2 
L 155.27121 222.799021 
L 155.212303 222.401903 
L 155.114756 222.012472 
L 154.979507 221.634477 
L 154.80786 221.271559 
L 154.601467 220.927213 
L 154.362315 220.604755 
L 154.09271 220.30729 
L 153.795245 220.037685 
L 153.472787 219.798533 
L 153.128441 219.59214 
L 152.765523 219.420493 
L 152.387528 219.285244 
L 151.998097 219.187697 
L 151.600979 219.12879 
L 151.2 219.109091 
L 150.799021 219.12879 
L 150.401903 219.187697 
L 150.012472 219.285244 
L 149.634477 219.420493 
L 149.271559 219.59214 
L 148.927213 219.798533 
L 148.604755 220.037685 
L 148.30729 220.30729 
L 148.037685 220.604755 
L 147.798533 220.927213 
L 147.59214 221.271559 
L 147.420493 221.634477 
L 147.285244 222.012472 
L 147.187697 222.401903 
L 147.12879 222.799021 
L 147.109091 223.2 
L 151.2 223.2 
z
" clip-path="url(#p923783be6e)"/>
   </g>
   <g id="patch_16">
    <path d="M 48.927273 223.2 
L 48.946972 223.600979 
L 49.005878 223.998097 
L 49.103426 224.387528 
L 49.238675 224.765523 
L 49.410322 225.128441 
L 49.616715 225.472787 
L 49.855866 225.795245 
L 50.125472 226.09271 
L 50.422937 226.362315 
L 50.745395 226.601467 
L 51.089741 226.80786 
L 51.452659 226.979507 
L 51.830654 227.114756 
L 52.220085 227.212303 
L 52.617203 227.27121 
L 53.018182 227.290909 
L 53.419161 227.27121 
L 53.816279 227.212303 
L 54.20571 227.114756 
L 54.583705 226.979507 
L 54.946623 226.80786 
L 55.290969 226.601467 
L 55.613427 226.362315 
L 55.910891 226.09271 
L 56.180497 225.795245 
L 56.419648 225.472787 
L 56.626042 225.128441 
L 56.797689 224.765523 
L 56.932938 224.387528 
L 57.030485 223.998097 
L 57.089392 223.600979 
L 57.109091 223.2 
L 53.018182 223.2 
z
" clip-path="url(#p923783be6e)"/>
   </g>
   <g id="patch_17">
    <path d="M 57.109091 223.2 
L 57.089392 222.799021 
L 57.030485 222.401903 
L 56.932938 222.012472 
L 56.797689 221.634477 
L 56.626042 221.271559 
L 56.419648 220.927213 
L 56.180497 220.604755 
L 55.910891 220.30729 
L 55.613427 220.037685 
L 55.290969 219.798533 
L 54.946623 219.59214 
L 54.583705 219.420493 
L 54.20571 219.285244 
L 53.816279 219.187697 
L 53.419161 219.12879 
L 53.018182 219.109091 
L 52.617203 219.12879 
L 52.220085 219.187697 
L 51.830654 219.285244 
L 51.452659 219.420493 
L 51.089741 219.59214 
L 50.745395 219.798533 
L 50.422937 220.037685 
L 50.125472 220.30729 
L 49.855866 220.604755 
L 49.616715 220.927213 
L 49.410322 221.271559 
L 49.238675 221.634477 
L 49.103426 222.012472 
L 49.005878 222.401903 
L 48.946972 222.799021 
L 48.927273 223.2 
L 53.018182 223.2 
z
" clip-path="url(#p923783be6e)"/>
   </g>
   <g id="patch_18">
    <path d="M 98.018182 174.109091 
L 98.037881 174.51007 
L 98.096787 174.907188 
L 98.194335 175.296619 
L 98.329584 175.674614 
L 98.501231 176.037532 
L 98.707624 176.381878 
L 98.946775 176.704336 
L 99.216381 177.0018 
L 99.513846 177.271406 
L 99.836304 177.510558 
L 100.18065 177.716951 
L 100.543568 177.888598 
L 100.921563 178.023847 
L 101.310994 178.121394 
L 101.708112 178.180301 
L 102.109091 178.2 
L 102.51007 178.180301 
L 102.907188 178.121394 
L 103.296619 178.023847 
L 103.674614 177.888598 
L 104.037532 177.716951 
L 104.381878 177.510558 
L 104.704336 177.271406 
L 105.0018 177.0018 
L 105.271406 176.704336 
L 105.510558 176.381878 
L 105.716951 176.037532 
L 105.888598 175.674614 
L 106.023847 175.296619 
L 106.121394 174.907188 
L 106.180301 174.51007 
L 106.2 174.109091 
L 102.109091 174.109091 
z
" clip-path="url(#p923783be6e)"/>
   </g>
   <g id="patch_19">
    <path d="M 106.2 174.109091 
L 106.180301 173.708112 
L 106.121394 173.310994 
L 106.023847 172.921563 
L 105.888598 172.543568 
L 105.716951 172.18065 
L 105.510558 171.836304 
L 105.271406 171.513846 
L 105.0018 171.216381 
L 104.704336 170.946775 
L 104.381878 170.707624 
L 104.037532 170.501231 
L 103.674614 170.329584 
L 103.296619 170.194335 
L 102.907188 170.096787 
L 102.51007 170.037881 
L 102.109091 170.018182 
L 101.708112 170.037881 
L 101.310994 170.096787 
L 100.921563 170.194335 
L 100.543568 170.329584 
L 100.18065 170.501231 
L 99.836304 170.707624 
L 99.513846 170.946775 
L 99.216381 171.216381 
L 98.946775 171.513846 
L 98.707624 171.836304 
L 98.501231 172.18065 
L 98.329584 172.543568 
L 98.194335 172.921563 
L 98.096787 173.310994 
L 98.037881 173.708112 
L 98.018182 174.109091 
L 102.109091 174.109091 
z
" clip-path="url(#p923783be6e)"/>
   </g>
   <g id="patch_20">
    <path d="M 196.2 174.109091 
L 196.219699 174.51007 
L 196.278606 174.907188 
L 196.376153 175.296619 
L 196.511402 175.674614 
L 196.683049 176.037532 
L 196.889442 176.381878 
L 197.128594 176.704336 
L 197.3982 177.0018 
L 197.695664 177.271406 
L 198.018122 177.510558 
L 198.362468 177.716951 
L 198.725386 177.888598 
L 199.103381 178.023847 
L 199.492812 178.121394 
L 199.88993 178.180301 
L 200.290909 178.2 
L 200.691888 178.180301 
L 201.089006 178.121394 
L 201.478437 178.023847 
L 201.856432 177.888598 
L 202.21935 177.716951 
L 202.563696 177.510558 
L 202.886154 177.271406 
L 203.183619 177.0018 
L 203.453225 176.704336 
L 203.692376 176.381878 
L 203.898769 176.037532 
L 204.070416 175.674614 
L 204.205665 175.296619 
L 204.303213 174.907188 
L 204.362119 174.51007 
L 204.381818 174.109091 
L 200.290909 174.109091 
z
" clip-path="url(#p923783be6e)"/>
   </g>
   <g id="patch_21">
    <path d="M 204.381818 174.109091 
L 204.362119 173.708112 
L 204.303213 173.310994 
L 204.205665 172.921563 
L 204.070416 172.543568 
L 203.898769 172.18065 
L 203.692376 171.836304 
L 203.453225 171.513846 
L 203.183619 171.216381 
L 202.886154 170.946775 
L 202.563696 170.707624 
L 202.21935 170.501231 
L 201.856432 170.329584 
L 201.478437 170.194335 
L 201.089006 170.096787 
L 200.691888 170.037881 
L 200.290909 170.018182 
L 199.88993 170.037881 
L 199.492812 170.096787 
L 199.103381 170.194335 
L 198.725386 170.329584 
L 198.362468 170.501231 
L 198.018122 170.707624 
L 197.695664 170.946775 
L 197.3982 171.216381 
L 197.128594 171.513846 
L 196.889442 171.836304 
L 196.683049 172.18065 
L 196.511402 172.543568 
L 196.376153 172.921563 
L 196.278606 173.310994 
L 196.219699 173.708112 
L 196.2 174.109091 
L 200.290909 174.109091 
z
" clip-path="url(#p923783be6e)"/>
   </g>
   <g id="patch_22">
    <path d="M 245.290909 125.018182 
L 245.310608 125.419161 
L 245.369515 125.816279 
L 245.467062 126.20571 
L 245.602311 126.583705 
L 245.773958 126.946623 
L 245.980352 127.290969 
L 246.219503 127.613427 
L 246.489109 127.910891 
L 246.786573 128.180497 
L 247.109031 128.419648 
L 247.453377 128.626042 
L 247.816295 128.797689 
L 248.19429 128.932938 
L 248.583721 129.030485 
L 248.980839 129.089392 
L 249.381818 129.109091 
L 249.782797 129.089392 
L 250.179915 129.030485 
L 250.569346 128.932938 
L 250.947341 128.797689 
L 251.310259 128.626042 
L 251.654605 128.419648 
L 251.977063 128.180497 
L 252.274528 127.910891 
L 252.544134 127.613427 
L 252.783285 127.290969 
L 252.989678 126.946623 
L 253.161325 126.583705 
L 253.296574 126.20571 
L 253.394122 125.816279 
L 253.453028 125.419161 
L 253.472727 125.018182 
L 249.381818 125.018182 
z
" clip-path="url(#p923783be6e)"/>
   </g>
   <g id="patch_23">
    <path d="M 253.472727 125.018182 
L 253.453028 124.617203 
L 253.394122 124.220085 
L 253.296574 123.830654 
L 253.161325 123.452659 
L 252.989678 123.089741 
L 252.783285 122.745395 
L 252.544134 122.422937 
L 252.274528 122.125472 
L 251.977063 121.855866 
L 251.654605 121.616715 
L 251.310259 121.410322 
L 250.947341 121.238675 
L 250.569346 121.103426 
L 250.179915 121.005878 
L 249.782797 120.946972 
L 249.381818 120.927273 
L 248.980839 120.946972 
L 248.583721 121.005878 
L 248.19429 121.103426 
L 247.816295 121.238675 
L 247.453377 121.410322 
L 247.109031 121.616715 
L 246.786573 121.855866 
L 246.489109 122.125472 
L 246.219503 122.422937 
L 245.980352 122.745395 
L 245.773958 123.089741 
L 245.602311 123.452659 
L 245.467062 123.830654 
L 245.369515 124.220085 
L 245.310608 124.617203 
L 245.290909 125.018182 
L 249.381818 125.018182 
z
" clip-path="url(#p923783be6e)"/>
   </g>
   <g id="patch_24">
    <path d="M 147.109091 125.018182 
L 147.12879 125.419161 
L 147.187697 125.816279 
L 147.285244 126.20571 
L 147.420493 126.583705 
L 147.59214 126.946623 
L 147.798533 127.290969 
L 148.037685 127.613427 
L 148.30729 127.910891 
L 148.604755 128.180497 
L 148.927213 128.419648 
L 149.271559 128.626042 
L 149.634477 128.797689 
L 150.012472 128.932938 
L 150.401903 129.030485 
L 150.799021 129.089392 
L 151.2 129.109091 
L 151.600979 129.089392 
L 151.998097 129.030485 
L 152.387528 128.932938 
L 152.765523 128.797689 
L 153.128441 128.626042 
L 153.472787 128.419648 
L 153.795245 128.180497 
L 154.09271 127.910891 
L 154.362315 127.613427 
L 154.601467 127.290969 
L 154.80786 126.946623 
L 154.979507 126.583705 
L 155.114756 126.20571 
L 155.212303 125.816279 
L 155.27121 125.419161 
L 155.290909 125.018182 
L 151.2 125.018182 
z
" clip-path="url(#p923783be6e)"/>
   </g>
   <g id="patch_25">
    <path d="M 155.290909 125.018182 
L 155.27121 124.617203 
L 155.212303 124.220085 
L 155.114756 123.830654 
L 154.979507 123.452659 
L 154.80786 123.089741 
L 154.601467 122.745395 
L 154.362315 122.422937 
L 154.09271 122.125472 
L 153.795245 121.855866 
L 153.472787 121.616715 
L 153.128441 121.410322 
L 152.765523 121.238675 
L 152.387528 121.103426 
L 151.998097 121.005878 
L 151.600979 120.946972 
L 151.2 120.927273 
L 150.799021 120.946972 
L 150.401903 121.005878 
L 150.012472 121.103426 
L 149.634477 121.238675 
L 149.271559 121.410322 
L 148.927213 121.616715 
L 148.604755 121.855866 
L 148.30729 122.125472 
L 148.037685 122.422937 
L 147.798533 122.745395 
L 147.59214 123.089741 
L 147.420493 123.452659 
L 147.285244 123.830654 
L 147.187697 124.220085 
L 147.12879 124.617203 
L 147.109091 125.018182 
L 151.2 125.018182 
z
" clip-path="url(#p923783be6e)"/>
   </g>
   <g id="patch_26">
    <path d="M 48.927273 125.018182 
L 48.946972 125.419161 
L 49.005878 125.816279 
L 49.103426 126.20571 
L 49.238675 126.583705 
L 49.410322 126.946623 
L 49.616715 127.290969 
L 49.855866 127.613427 
L 50.125472 127.910891 
L 50.422937 128.180497 
L 50.745395 128.419648 
L 51.089741 128.626042 
L 51.452659 128.797689 
L 51.830654 128.932938 
L 52.220085 129.030485 
L 52.617203 129.089392 
L 53.018182 129.109091 
L 53.419161 129.089392 
L 53.816279 129.030485 
L 54.20571 128.932938 
L 54.583705 128.797689 
L 54.946623 128.626042 
L 55.290969 128.419648 
L 55.613427 128.180497 
L 55.910891 127.910891 
L 56.180497 127.613427 
L 56.419648 127.290969 
L 56.626042 126.946623 
L 56.797689 126.583705 
L 56.932938 126.20571 
L 57.030485 125.816279 
L 57.089392 125.419161 
L 57.109091 125.018182 
L 53.018182 125.018182 
z
" clip-path="url(#p923783be6e)"/>
   </g>
   <g id="patch_27">
    <path d="M 57.109091 125.018182 
L 57.089392 124.617203 
L 57.030485 124.220085 
L 56.932938 123.830654 
L 56.797689 123.452659 
L 56.626042 123.089741 
L 56.419648 122.745395 
L 56.180497 122.422937 
L 55.910891 122.125472 
L 55.613427 121.855866 
L 55.290969 121.616715 
L 54.946623 121.410322 
L 54.583705 121.238675 
L 54.20571 121.103426 
L 53.816279 121.005878 
L 53.419161 120.946972 
L 53.018182 120.927273 
L 52.617203 120.946972 
L 52.220085 121.005878 
L 51.830654 121.103426 
L 51.452659 121.238675 
L 51.089741 121.410322 
L 50.745395 121.616715 
L 50.422937 121.855866 
L 50.125472 122.125472 
L 49.855866 122.422937 
L 49.616715 122.745395 
L 49.410322 123.089741 
L 49.238675 123.452659 
L 49.103426 123.830654 
L 49.005878 124.220085 
L 48.946972 124.617203 
L 48.927273 125.018182 
L 53.018182 125.018182 
z
" clip-path="url(#p923783be6e)"/>
   </g>
   <g id="line2d_1">
    <path d="M 20.290909 92.290909 
L 282.109091 92.290909 
" clip-path="url(#p923783be6e)" style="fill: none; stroke: #000000; stroke-width: 0.72; stroke-linecap: square"/>
   </g>
   <g id="line2d_2">
    <path d="M 20.290909 354.109091 
L 282.109091 354.109091 
" clip-path="url(#p923783be6e)" style="fill: none; stroke: #000000; stroke-width: 0.72; stroke-linecap: square"/>
   </g>
   <g id="line2d_3">
    <path d="M 282.109091 419.563636 
L 20.290909 419.563636 
" clip-path="url(#p923783be6e)" style="fill: none; stroke: #000000; stroke-width: 0.72; stroke-linecap: square"/>
   </g>
   <g id="line2d_4">
    <path d="M 282.109091 26.836364 
L 282.109091 419.563636 
" clip-path="url(#p923783be6e)" style="fill: none; stroke: #000000; stroke-width: 0.72; stroke-linecap: square"/>
   </g>
   <g id="line2d_5">
    <path d="M 20.290909 26.836364 
L 282.109091 26.836364 
" clip-path="url(#p923783be6e)" style="fill: none; stroke: #000000; stroke-width: 0.72; stroke-linecap: square"/>
   </g>
   <g id="line2d_6">
    <path d="M 20.290909 419.563636 
L 20.290909 26.836364 
" clip-path="url(#p923783be6e)" style="fill: none; stroke: #000000; stroke-width: 0.72; stroke-linecap: square"/>
   </g>
  </g>
 </g>
 <defs>
  <clipPath id="p923783be6e">
   <rect x="7.2" y="7.2" width="288" height="432"/>
  </clipPath>
 </defs>
</svg>
