<?xml version="1.0" encoding="utf-8" standalone="no"?>
<!DOCTYPE svg PUBLIC "-//W3C//DTD SVG 1.1//EN"
  "http://www.w3.org/Graphics/SVG/1.1/DTD/svg11.dtd">
<svg xmlns:xlink="http://www.w3.org/1999/xlink" width="302.4pt" height="446.4pt" viewBox="0 0 302.4 446.4" xmlns="http://www.w3.org/2000/svg" version="1.1">
 <metadata>
  <rdf:RDF xmlns:dc="http://purl.org/dc/elements/1.1/" xmlns:cc="http://creativecommons.org/ns#" xmlns:rdf="http://www.w3.org/1999/02/22-rdf-syntax-ns#">
   <cc:Work>
    <dc:type rdf:resource="http://purl.org/dc/dcmitype/StillImage"/>
    <dc:date>2026-02-17T12:15:11.967433</dc:date>
    <dc:format>image/svg+xml</dc:format>
    <dc:creator>
     <cc:Agent>
      <dc:title>Matplotlib v3.10.8, https://matplotlib.org/</dc:title>
     </cc:Agent>
    </dc:creator>
   </cc:Work>
  </rdf:RDF>
 </metadata>
 <defs>
  <style type="text/css">*{stroke-linejoin: round; stroke-linecap: butt}</style>
 </defs>
 <g id="figure_1">
  <g id="patch_1">
   <path d="M 0 446.4 
L 302.4 446.4 
L 302.4 0 
L 0 0 
L 0 446.4 
z
" style="fill: none"/>
  </g>
  <g id="axes_1">
   <g id="patch_2">
    <path d="M 140.290909 332.290909 
L 140.343439 333.360187 
L 140.500524 334.419167 
L 140.760651 335.457651 
L 141.121314 336.465637 
L 141.579041 337.433419 
L 142.129422 338.351675 
L 142.767159 339.211563 
L 143.486108 340.004801 
L 144.279346 340.72375 
L 145.139234 341.361487 
L 146.05749 341.911868 
L 147.025272 342.369595 
L 148.033258 342.730258 
L 149.071742 342.990385 
L 150.130722 343.14747 
L 151.2 343.2 
L 152.269278 343.14747 
L 153.328258 342.990385 
L 154.366742 342.730258 
L 155.374728 342.369595 
L 156.34251 341.911868 
L 157.260766 341.361487 
L 158.120654 340.72375 
L 158.913892 340.004801 
L 159.632841 339.211563 
L 160.270578 338.351675 
L 160.820959 337.433419 
L 161.278686 336.465637 
L 161.639349 335.457651 
L 161.899476 334.419167 
L 162.056561 333.360187 
L 162.109091 332.290909 
L 151.2 332.290909 
z
" clip-path="url(#p2260863004)"/>
   </g>
   <g id="patch_3">
    <path d="M 162.109091 332.290909 
L 162.056561 331.221631 
L 161.899476 330.162651 
L 161.639349 329.124167 
L 161.278686 328.116181 
L 160.820959 327.148399 
L 160.270578 326.230143 
L 159.632841 325.370255 
L 158.913892 324.577017 
L 158.120654 323.858068 
L 157.260766 323.220332 
L 156.34251 322.66995 
L 155.374728 322.212223 
L 154.366742 321.85156 
L 153.328258 321.591433 
L 152.269278 321.434348 
L 151.2 321.381818 
L 150.130722 321.434348 
L 149.071742 321.591433 
L 148.033258 321.85156 
L 147.025272 322.212223 
L 146.05749 322.66995 
L 145.139234 323.220332 
L 144.279346 323.858068 
L 143.486108 324.577017 
L 142.767159 325.370255 
L 142.129422 326.230143 
L 141.579041 327.148399 
L 141.121314 328.116181 
L 140.760651 329.124167 
L 140.500524 330.162651 
L 140.343439 331.221631 
L 140.290909 332.290909 
L 151.2 332.290909 
z
" clip-path="url(#p2260863004)"/>
   </g>
   <g id="line2d_1">
    <path d="M 151.2 70.472727 
L 151.2 245.018182 
" clip-path="url(#p2260863004)" style="fill: none; stroke: #000000; stroke-width: 0.72; stroke-linecap: square"/>
   </g>
   <g id="line2d_2">
    <path d="M 151.2 419.563636 
L 282.109091 288.654545 
" clip-path="url(#p2260863004)" style="fill: none; stroke: #000000; stroke-width: 0.72; stroke-linecap: square"/>
   </g>
   <g id="line2d_3">
    <path d="M 151.2 419.563636 
L 20.290909 288.654545 
" clip-path="url(#p2260863004)" style="fill: none; stroke: #000000; stroke-width: 0.72; stroke-linecap: square"/>
   </g>
   <g id="line2d_4">
    <path d="M 20.290909 26.836364 
L 20.290909 288.654545 
" clip-path="url(#p2260863004)" style="fill: none; stroke: #000000; stroke-width: 0.72; stroke-linecap: square"/>
   </g>
   <g id="line2d_5">
    <path d="M 282.109091 288.654545 
L 282.109091 26.836364 
" clip-path="url(#p2260863004)" style="fill: none; stroke: #000000; stroke-width: 0.72; stroke-linecap: square"/>
   </g>
   <g id="line2d_6">
    <path d="M 20.290909 26.836364 
L 282.109091 26.836364 
" clip-path="url(#p2260863004)" style="fill: none; stroke: #000000; stroke-width: 0.72; stroke-linecap: square"/>
   </g>
   <g id="line2d_7">
    <path d="M 151.2 245.018182 
L 107.563636 157.745455 
" clip-path="url(#p2260863004)" style="fill: none; stroke: #000000; stroke-width: 0.72; stroke-linecap: square"/>
   </g>
   <g id="line2d_8">
    <path d="M 151.2 245.018182 
L 194.836364 157.745455 
" clip-path="url(#p2260863004)" style="fill: none; stroke: #000000; stroke-width: 0.72; stroke-linecap: square"/>
   </g>
  </g>
 </g>
 <defs>
  <clipPath id="p2260863004">
   <rect x="7.2" y="7.2" width="288" height="432"/>
  </clipPath>
 </defs>
</svg>
