<?xml version="1.0" encoding="utf-8" standalone="no"?>
<!DOCTYPE svg PUBLIC "-//W3C//DTD SVG 1.1//EN"
  "http://www.w3.org/Graphics/SVG/1.1/DTD/svg11.dtd">
<svg xmlns:xlink="http://www.w3.org/1999/xlink" width="360pt" height="360pt" viewBox="0 0 360 360" xmlns="http://www.w3.org/2000/svg" version="1.1">
 <metadata>
  <rdf:RDF xmlns:dc="http://purl.org/dc/elements/1.1/" xmlns:cc="http://creativecommons.org/ns#" xmlns:rdf="http://www.w3.org/1999/02/22-rdf-syntax-ns#">
   <cc:Work>
    <dc:type rdf:resource="http://purl.org/dc/dcmitype/StillImage"/>
    <dc:date>2026-02-17T12:15:06.235029</dc:date>
    <dc:format>image/svg+xml</dc:format>
    <dc:creator>
     <cc:Agent>
      <dc:title>Matplotlib v3.10.8, https://matplotlib.org/</dc:title>
     </cc:Agent>
    </dc:creator>
   </cc:Work>
  </rdf:RDF>
 </metadata>
 <defs>
  <style type="text/css">*{stroke-linejoin: round; stroke-linecap: butt}</style>
 </defs>
 <g id="figure_1">
  <g id="patch_1">
   <path d="M 0 360 
L 360 360 
L 360 0 
L 0 0 
L 0 360 
z
" style="fill: none"/>
  </g>
  <g id="axes_1">
   <g id="line2d_1">
    <path d="M 242.836364 148.581818 
L 305.672727 148.581818 
" clip-path="url(#pd3a28c3eb6)" style="fill: none; stroke: #000000; stroke-width: 0.72; stroke-linecap: square"/>
   </g>
   <g id="line2d_2">
    <path d="M 148.581818 148.581818 
L 211.418182 148.581818 
" clip-path="url(#pd3a28c3eb6)" style="fill: none; stroke: #000000; stroke-width: 0.72; stroke-linecap: square"/>
   </g>
   <g id="line2d_3">
    <path d="M 54.327273 148.581818 
L 117.163636 148.581818 
" clip-path="url(#pd3a28c3eb6)" style="fill: none; stroke: #000000; stroke-width: 0.72; stroke-linecap: square"/>
   </g>
   <g id="line2d_4">
    <path d="M 54.327273 211.418182 
L 305.672727 211.418182 
" clip-path="url(#pd3a28c3eb6)" style="fill: none; stroke: #000000; stroke-width: 0.72; stroke-linecap: square"/>
   </g>
   <g id="patch_2">
    <path d="M 85.745455 180 
C 85.745455 197.351783 71.679055 211.418182 54.327273 211.418182 
C 36.97549 211.418182 22.909091 197.351783 22.909091 180 
C 22.909091 162.648217 36.97549 148.581818 54.327273 148.581818 
C 71.679055 148.581818 85.745455 162.648217 85.745455 180 
" clip-path="url(#pd3a28c3eb6)" style="fill: none; stroke: #000000; stroke-width: 0.72; stroke-linejoin: miter"/>
   </g>
   <g id="patch_3">
    <path d="M 337.090909 180 
C 337.090909 197.351783 323.02451 211.418182 305.672727 211.418182 
C 288.320945 211.418182 274.254545 197.351783 274.254545 180 
C 274.254545 162.648217 288.320945 148.581818 305.672727 148.581818 
C 323.02451 148.581818 337.090909 162.648217 337.090909 180 
" clip-path="url(#pd3a28c3eb6)" style="fill: none; stroke: #000000; stroke-width: 0.72; stroke-linejoin: miter"/>
   </g>
   <g id="line2d_5">
    <path d="M 180 337.090909 
L 274.254545 242.836364 
" clip-path="url(#pd3a28c3eb6)" style="fill: none; stroke: #000000; stroke-width: 0.72; stroke-linecap: square"/>
   </g>
   <g id="line2d_6">
    <path d="M 180 337.090909 
L 85.745455 242.836364 
" clip-path="url(#pd3a28c3eb6)" style="fill: none; stroke: #000000; stroke-width: 0.72; stroke-linecap: square"/>
   </g>
   <g id="line2d_7">
    <path d="M 274.254545 22.909091 
L 85.745455 22.909091 
" clip-path="url(#pd3a28c3eb6)" style="fill: none; stroke: #000000; stroke-width: 0.72; stroke-linecap: square"/>
   </g>
   <g id="line2d_8">
    <path d="M 85.745455 22.909091 
L 85.745455 337.090909 
" clip-path="url(#pd3a28c3eb6)" style="fill: none; stroke: #000000; stroke-width: 0.72; stroke-linecap: square"/>
   </g>
   <g id="line2d_9">
    <path d="M 85.745455 337.090909 
L 274.254545 337.090909 
" clip-path="url(#pd3a28c3eb6)" style="fill: none; stroke: #000000; stroke-width: 0.72; stroke-linecap: square"/>
   </g>
   <g id="line2d_10">
    <path d="M 274.254545 337.090909 
L 274.254545 22.909091 
" clip-path="url(#pd3a28c3eb6)" style="fill: none; stroke: #000000; stroke-width: 0.72; stroke-linecap: square"/>
   </g>
  </g>
 </g>
 <defs>
  <clipPath id="pd3a28c3eb6">
   <rect x="7.2" y="7.2" width="345.6" height="345.6"/>
  </clipPath>
 </defs>
</svg>
