<?xml version="1.0" encoding="utf-8" standalone="no"?>
<!DOCTYPE svg PUBLIC "-//W3C//DTD SVG 1.1//EN"
  "http://www.w3.org/Graphics/SVG/1.1/DTD/svg11.dtd">
<svg xmlns:xlink="http://www.w3.org/1999/xlink" width="302.4pt" height="446.4pt" viewBox="0 0 302.4 446.4" xmlns="http://www.w3.org/2000/svg" version="1.1">
 <metadata>
  <rdf:RDF xmlns:dc="http://purl.org/dc/elements/1.1/" xmlns:cc="http://creativecommons.org/ns#" xmlns:rdf="http://www.w3.org/1999/02/22-rdf-syntax-ns#">
   <cc:Work>
    <dc:type rdf:resource="http://purl.org/dc/dcmitype/StillImage"/>
    <dc:date>2026-02-17T12:15:11.578466</dc:date>
    <dc:format>image/svg+xml</dc:format>
    <dc:creator>
     <cc:Agent>
      <dc:title>Matplotlib v3.10.8, https://matplotlib.org/</dc:title>
     </cc:Agent>
    </dc:creator>
   </cc:Work>
  </rdf:RDF>
 </metadata>
 <defs>
  <style type="text/css">*{stroke-linejoin: round; stroke-linecap: butt}</style>
 </defs>
 <g id="figure_1">
  <g id="patch_1">
   <path d="M 0 446.4 
L 302.4 446.4 
L 302.4 0 
L 0 0 
L 0 446.4 
z
" style="fill: none"/>
  </g>
  <g id="axes_1">
   <g id="patch_2">
    <path d="M 140.290909 114.109091 
L 140.343439 115.178369 
L 140.500524 116.237349 
L 140.760651 117.275833 
L 141.121314 118.283819 
L 141.579041 119.251601 
L 142.129422 120.169857 
L 142.767159 121.029745 
L 143.486108 121.822983 
L 144.279346 122.541932 
L 145.139234 123.179668 
L 146.05749 123.73005 
L 147.025272 124.187777 
L 148.033258 124.54844 
L 149.071742 124.808567 
L 150.130722 124.965652 
L 151.2 125.018182 
L 152.269278 124.965652 
L 153.328258 124.808567 
L 154.366742 124.54844 
L 155.374728 124.187777 
L 156.34251 123.73005 
L 157.260766 123.179668 
L 158.120654 122.541932 
L 158.913892 121.822983 
L 159.632841 121.029745 
L 160.270578 120.169857 
L 160.820959 119.251601 
L 161.278686 118.283819 
L 161.639349 117.275833 
L 161.899476 116.237349 
L 162.056561 115.178369 
L 162.109091 114.109091 
L 151.2 114.109091 
z
" clip-path="url(#p90aa2fa1e4)"/>
   </g>
   <g id="patch_3">
    <path d="M 162.109091 114.109091 
L 162.056561 113.039813 
L 161.899476 111.980833 
L 161.639349 110.942349 
L 161.278686 109.934363 
L 160.820959 108.966581 
L 160.270578 108.048325 
L 159.632841 107.188437 
L 158.913892 106.395199 
L 158.120654 105.67625 
L 157.260766 105.038513 
L 156.34251 104.488132 
L 155.374728 104.030405 
L 154.366742 103.669742 
L 153.328258 103.409615 
L 152.269278 103.25253 
L 151.2 103.2 
L 150.130722 103.25253 
L 149.071742 103.409615 
L 148.033258 103.669742 
L 147.025272 104.030405 
L 146.05749 104.488132 
L 145.139234 105.038513 
L 144.279346 105.67625 
L 143.486108 106.395199 
L 142.767159 107.188437 
L 142.129422 108.048325 
L 141.579041 108.966581 
L 141.121314 109.934363 
L 140.760651 110.942349 
L 140.500524 111.980833 
L 140.343439 113.039813 
L 140.290909 114.109091 
L 151.2 114.109091 
z
" clip-path="url(#p90aa2fa1e4)"/>
   </g>
   <g id="line2d_1">
    <path d="M 20.290909 26.836364 
L 282.109091 26.836364 
" clip-path="url(#p90aa2fa1e4)" style="fill: none; stroke: #000000; stroke-width: 0.72; stroke-linecap: square"/>
   </g>
   <g id="line2d_2">
    <path d="M 282.109091 288.654545 
L 282.109091 26.836364 
" clip-path="url(#p90aa2fa1e4)" style="fill: none; stroke: #000000; stroke-width: 0.72; stroke-linecap: square"/>
   </g>
   <g id="line2d_3">
    <path d="M 20.290909 26.836364 
L 20.290909 288.654545 
" clip-path="url(#p90aa2fa1e4)" style="fill: none; stroke: #000000; stroke-width: 0.72; stroke-linecap: square"/>
   </g>
   <g id="line2d_4">
    <path d="M 151.2 419.563636 
L 20.290909 288.654545 
" clip-path="url(#p90aa2fa1e4)" style="fill: none; stroke: #000000; stroke-width: 0.72; stroke-linecap: square"/>
   </g>
   <g id="line2d_5">
    <path d="M 151.2 419.563636 
L 282.109091 288.654545 
" clip-path="url(#p90aa2fa1e4)" style="fill: none; stroke: #000000; stroke-width: 0.72; stroke-linecap: square"/>
   </g>
   <g id="patch_4">
    <path d="M 140.290909 245.018182 
L 140.343439 246.08746 
L 140.500524 247.14644 
L 140.760651 248.184924 
L 141.121314 249.19291 
L 141.579041 250.160692 
L 142.129422 251.078948 
L 142.767159 251.938836 
L 143.486108 252.732074 
L 144.279346 253.451023 
L 145.139234 254.088759 
L 146.05749 254.639141 
L 147.025272 255.096868 
L 148.033258 255.457531 
L 149.071742 255.717658 
L 150.130722 255.874742 
L 151.2 255.927273 
L 152.269278 255.874742 
L 153.328258 255.717658 
L 154.366742 255.457531 
L 155.374728 255.096868 
L 156.34251 254.639141 
L 157.260766 254.088759 
L 158.120654 253.451023 
L 158.913892 252.732074 
L 159.632841 251.938836 
L 160.270578 251.078948 
L 160.820959 250.160692 
L 161.278686 249.19291 
L 161.639349 248.184924 
L 161.899476 247.14644 
L 162.056561 246.08746 
L 162.109091 245.018182 
L 151.2 245.018182 
z
" clip-path="url(#p90aa2fa1e4)"/>
   </g>
   <g id="patch_5">
    <path d="M 162.109091 245.018182 
L 162.056561 243.948904 
L 161.899476 242.889924 
L 161.639349 241.85144 
L 161.278686 240.843453 
L 160.820959 239.875672 
L 160.270578 238.957416 
L 159.632841 238.097528 
L 158.913892 237.30429 
L 158.120654 236.585341 
L 157.260766 235.947604 
L 156.34251 235.397223 
L 155.374728 234.939496 
L 154.366742 234.578833 
L 153.328258 234.318706 
L 152.269278 234.161621 
L 151.2 234.109091 
L 150.130722 234.161621 
L 149.071742 234.318706 
L 148.033258 234.578833 
L 147.025272 234.939496 
L 146.05749 235.397223 
L 145.139234 235.947604 
L 144.279346 236.585341 
L 143.486108 237.30429 
L 142.767159 238.097528 
L 142.129422 238.957416 
L 141.579041 239.875672 
L 141.121314 240.843453 
L 140.760651 241.85144 
L 140.500524 242.889924 
L 140.343439 243.948904 
L 140.290909 245.018182 
L 151.2 245.018182 
z
" clip-path="url(#p90aa2fa1e4)"/>
   </g>
  </g>
 </g>
 <defs>
  <clipPath id="p90aa2fa1e4">
   <rect x="7.2" y="7.2" width="288" height="432"/>
  </clipPath>
 </defs>
</svg>
