<?xml version="1.0" encoding="utf-8" standalone="no"?>
<!DOCTYPE svg PUBLIC "-//W3C//DTD SVG 1.1//EN"
  "http://www.w3.org/Graphics/SVG/1.1/DTD/svg11.dtd">
<svg xmlns:xlink="http://www.w3.org/1999/xlink" width="590.4pt" height="360pt" viewBox="0 0 590.4 360" xmlns="http://www.w3.org/2000/svg" version="1.1">
 <metadata>
  <rdf:RDF xmlns:dc="http://purl.org/dc/elements/1.1/" xmlns:cc="http://creativecommons.org/ns#" xmlns:rdf="http://www.w3.org/1999/02/22-rdf-syntax-ns#">
   <cc:Work>
    <dc:type rdf:resource="http://purl.org/dc/dcmitype/StillImage"/>
    <dc:date>2026-02-17T12:15:09.338388</dc:date>
    <dc:format>image/svg+xml</dc:format>
    <dc:creator>
     <cc:Agent>
      <dc:title>Matplotlib v3.10.8, https://matplotlib.org/</dc:title>
     </cc:Agent>
    </dc:creator>
   </cc:Work>
  </rdf:RDF>
 </metadata>
 <defs>
  <style type="text/css">*{stroke-linejoin: round; stroke-linecap: butt}</style>
 </defs>
 <g id="figure_1">
  <g id="patch_1">
   <path d="M 0 360 
L 590.4 360 
L 590.4 0 
L 0 0 
L 0 360 
z
" style="fill: none"/>
  </g>
  <g id="axes_1">
   <g id="patch_2">
    <path d="M 399.927273 180 
C 399.927273 208.919638 376.483274 232.363636 347.563636 232.363636 
C 318.643999 232.363636 295.2 208.919638 295.2 180 
C 295.2 151.080362 318.643999 127.636364 347.563636 127.636364 
C 376.483274 127.636364 399.927273 151.080362 399.927273 180 
" clip-path="url(#p6d75d4c8da)" style="fill: none; stroke: #000000; stroke-width: 0.72; stroke-linejoin: miter"/>
   </g>
   <g id="patch_3">
    <path d="M 295.2 180 
C 295.2 208.919638 271.756001 232.363636 242.836364 232.363636 
C 213.916726 232.363636 190.472727 208.919638 190.472727 180 
C 190.472727 151.080362 213.916726 127.636364 242.836364 127.636364 
C 271.756001 127.636364 295.2 151.080362 295.2 180 
" clip-path="url(#p6d75d4c8da)" style="fill: none; stroke: #000000; stroke-width: 0.72; stroke-linejoin: miter"/>
   </g>
   <g id="line2d_1">
    <path d="M 138.109091 337.090909 
L 452.290909 337.090909 
" clip-path="url(#p6d75d4c8da)" style="fill: none; stroke: #000000; stroke-width: 0.72; stroke-linecap: square"/>
   </g>
   <g id="line2d_2">
    <path d="M 452.290909 337.090909 
L 557.018182 22.909091 
" clip-path="url(#p6d75d4c8da)" style="fill: none; stroke: #000000; stroke-width: 0.72; stroke-linecap: square"/>
   </g>
   <g id="line2d_3">
    <path d="M 138.109091 337.090909 
L 33.381818 22.909091 
" clip-path="url(#p6d75d4c8da)" style="fill: none; stroke: #000000; stroke-width: 0.72; stroke-linecap: square"/>
   </g>
   <g id="line2d_4">
    <path d="M 557.018182 22.909091 
L 33.381818 22.909091 
" clip-path="url(#p6d75d4c8da)" style="fill: none; stroke: #000000; stroke-width: 0.72; stroke-linecap: square"/>
   </g>
   <g id="line2d_5">
    <path d="M 138.109091 22.909091 
L 70.784416 135.116883 
" clip-path="url(#p6d75d4c8da)" style="fill: none; stroke: #000000; stroke-width: 0.72; stroke-linecap: square"/>
   </g>
   <g id="line2d_6">
    <path d="M 452.290909 22.909091 
L 519.615584 135.116883 
" clip-path="url(#p6d75d4c8da)" style="fill: none; stroke: #000000; stroke-width: 0.72; stroke-linecap: square"/>
   </g>
  </g>
 </g>
 <defs>
  <clipPath id="p6d75d4c8da">
   <rect x="7.2" y="7.2" width="576" height="345.6"/>
  </clipPath>
 </defs>
</svg>
