<?xml version="1.0" encoding="utf-8" standalone="no"?>
<!DOCTYPE svg PUBLIC "-//W3C//DTD SVG 1.1//EN"
  "http://www.w3.org/Graphics/SVG/1.1/DTD/svg11.dtd">
<svg xmlns:xlink="http://www.w3.org/1999/xlink" width="302.4pt" height="482.4pt" viewBox="0 0 302.4 482.4" xmlns="http://www.w3.org/2000/svg" version="1.1">
 <metadata>
  <rdf:RDF xmlns:dc="http://purl.org/dc/elements/1.1/" xmlns:cc="http://creativecommons.org/ns#" xmlns:rdf="http://www.w3.org/1999/02/22-rdf-syntax-ns#">
   <cc:Work>
    <dc:type rdf:resource="http://purl.org/dc/dcmitype/StillImage"/>
    <dc:date>2026-02-17T12:15:00.402557</dc:date>
    <dc:format>image/svg+xml</dc:format>
    <dc:creator>
     <cc:Agent>
      <dc:title>Matplotlib v3.10.8, https://matplotlib.org/</dc:title>
     </cc:Agent>
    </dc:creator>
   </cc:Work>
  </rdf:RDF>
 </metadata>
 <defs>
  <style type="text/css">*{stroke-linejoin: round; stroke-linecap: butt}</style>
 </defs>
 <g id="figure_1">
  <g id="patch_1">
   <path d="M 0 482.4 
L 302.4 482.4 
L 302.4 0 
L 0 0 
L 0 482.4 
z
" style="fill: none"/>
  </g>
  <g id="axes_1">
   <g id="patch_2">
    <path d="M 282.109091 381.74803 
C 266.657369 361.145734 242.407416 349.020757 216.654545 349.020757 
C 190.901675 349.020757 166.651722 361.145734 151.2 381.74803 
" clip-path="url(#pe5377e5ea5)" style="fill: none; stroke: #000000; stroke-width: 0.72; stroke-linejoin: miter"/>
   </g>
   <g id="patch_3">
    <path d="M 20.290909 381.74803 
C 35.742631 402.350326 59.992584 414.475303 85.745455 414.475303 
C 111.498325 414.475303 135.748278 402.350326 151.2 381.74803 
" clip-path="url(#pe5377e5ea5)" style="fill: none; stroke: #000000; stroke-width: 0.72; stroke-linejoin: miter"/>
   </g>
   <g id="line2d_1">
    <path d="M 151.2 381.74803 
L 151.2 28.472727 
" clip-path="url(#pe5377e5ea5)" style="fill: none; stroke: #000000; stroke-width: 0.72; stroke-linecap: square"/>
   </g>
   <g id="patch_4">
    <path d="M 282.109091 421.2 
C 266.657369 400.597704 242.407416 388.472727 216.654545 388.472727 
C 190.901675 388.472727 166.651722 400.597704 151.2 421.2 
" clip-path="url(#pe5377e5ea5)" style="fill: none; stroke: #000000; stroke-width: 0.72; stroke-linejoin: miter"/>
   </g>
   <g id="patch_5">
    <path d="M 20.290909 421.2 
C 35.742631 441.802296 59.992584 453.927273 85.745455 453.927273 
C 111.498325 453.927273 135.748278 441.802296 151.2 421.2 
" clip-path="url(#pe5377e5ea5)" style="fill: none; stroke: #000000; stroke-width: 0.72; stroke-linejoin: miter"/>
   </g>
   <g id="line2d_2">
    <path d="M 151.2 421.2 
L 151.2 28.472727 
" clip-path="url(#pe5377e5ea5)" style="fill: none; stroke: #000000; stroke-width: 0.72; stroke-linecap: square"/>
   </g>
  </g>
 </g>
 <defs>
  <clipPath id="pe5377e5ea5">
   <rect x="7.2" y="7.2" width="288" height="468"/>
  </clipPath>
 </defs>
</svg>
