<?xml version="1.0" encoding="utf-8" standalone="no"?>
<!DOCTYPE svg PUBLIC "-//W3C//DTD SVG 1.1//EN"
  "http://www.w3.org/Graphics/SVG/1.1/DTD/svg11.dtd">
<svg xmlns:xlink="http://www.w3.org/1999/xlink" width="302.4pt" height="360pt" viewBox="0 0 302.4 360" xmlns="http://www.w3.org/2000/svg" version="1.1">
 <metadata>
  <rdf:RDF xmlns:dc="http://purl.org/dc/elements/1.1/" xmlns:cc="http://creativecommons.org/ns#" xmlns:rdf="http://www.w3.org/1999/02/22-rdf-syntax-ns#">
   <cc:Work>
    <dc:type rdf:resource="http://purl.org/dc/dcmitype/StillImage"/>
    <dc:date>2026-02-17T12:15:14.289133</dc:date>
    <dc:format>image/svg+xml</dc:format>
    <dc:creator>
     <cc:Agent>
      <dc:title>Matplotlib v3.10.8, https://matplotlib.org/</dc:title>
     </cc:Agent>
    </dc:creator>
   </cc:Work>
  </rdf:RDF>
 </metadata>
 <defs>
  <style type="text/css">*{stroke-linejoin: round; stroke-linecap: butt}</style>
 </defs>
 <g id="figure_1">
  <g id="patch_1">
   <path d="M 0 360 
L 302.4 360 
L 302.4 0 
L 0 0 
L 0 360 
z
" style="fill: none"/>
  </g>
  <g id="axes_1">
   <g id="patch_2">
    <path d="M 255.927273 232.363636 
C 270.387092 232.363636 282.109091 220.641637 282.109091 206.181818 
C 282.109091 191.721999 270.387092 180 255.927273 180 
" clip-path="url(#p49e1f749c7)" style="fill: none; stroke: #000000; stroke-width: 0.72; stroke-linejoin: miter"/>
   </g>
   <g id="patch_3">
    <path d="M 255.927273 127.636364 
C 270.387092 127.636364 282.109091 115.914364 282.109091 101.454545 
C 282.109091 86.994727 270.387092 75.272727 255.927273 75.272727 
" clip-path="url(#p49e1f749c7)" style="fill: none; stroke: #000000; stroke-width: 0.72; stroke-linejoin: miter"/>
   </g>
   <g id="patch_4">
    <path d="M 46.472727 127.636364 
C 37.118865 127.636364 28.475539 132.62659 23.798608 140.727273 
C 19.121676 148.827955 19.121676 158.808408 23.798608 166.909091 
C 28.475539 175.009774 37.118865 180 46.472727 180 
" clip-path="url(#p49e1f749c7)" style="fill: none; stroke: #000000; stroke-width: 0.72; stroke-linejoin: miter"/>
   </g>
   <g id="patch_5">
    <path d="M 46.472727 232.363636 
C 37.118865 232.363636 28.475539 237.353863 23.798608 245.454545 
C 19.121676 253.555228 19.121676 263.535681 23.798608 271.636364 
C 28.475539 279.737046 37.118865 284.727273 46.472727 284.727273 
" clip-path="url(#p49e1f749c7)" style="fill: none; stroke: #000000; stroke-width: 0.72; stroke-linejoin: miter"/>
   </g>
   <g id="line2d_1">
    <path d="M 46.472727 337.090909 
L 46.472727 22.909091 
" clip-path="url(#p49e1f749c7)" style="fill: none; stroke: #000000; stroke-width: 0.72; stroke-linecap: square"/>
   </g>
   <g id="line2d_2">
    <path d="M 46.472727 22.909091 
L 255.927273 22.909091 
" clip-path="url(#p49e1f749c7)" style="fill: none; stroke: #000000; stroke-width: 0.72; stroke-linecap: square"/>
   </g>
   <g id="line2d_3">
    <path d="M 255.927273 22.909091 
L 255.927273 337.090909 
" clip-path="url(#p49e1f749c7)" style="fill: none; stroke: #000000; stroke-width: 0.72; stroke-linecap: square"/>
   </g>
   <g id="line2d_4">
    <path d="M 255.927273 337.090909 
L 46.472727 337.090909 
" clip-path="url(#p49e1f749c7)" style="fill: none; stroke: #000000; stroke-width: 0.72; stroke-linecap: square"/>
   </g>
  </g>
 </g>
 <defs>
  <clipPath id="p49e1f749c7">
   <rect x="7.2" y="7.2" width="288" height="345.6"/>
  </clipPath>
 </defs>
</svg>
