<?xml version="1.0" encoding="utf-8" standalone="no"?>
<!DOCTYPE svg PUBLIC "-//W3C//DTD SVG 1.1//EN"
  "http://www.w3.org/Graphics/SVG/1.1/DTD/svg11.dtd">
<svg xmlns:xlink="http://www.w3.org/1999/xlink" width="878.4pt" height="360pt" viewBox="0 0 878.4 360" xmlns="http://www.w3.org/2000/svg" version="1.1">
 <metadata>
  <rdf:RDF xmlns:dc="http://purl.org/dc/elements/1.1/" xmlns:cc="http://creativecommons.org/ns#" xmlns:rdf="http://www.w3.org/1999/02/22-rdf-syntax-ns#">
   <cc:Work>
    <dc:type rdf:resource="http://purl.org/dc/dcmitype/StillImage"/>
    <dc:date>2026-02-17T12:15:10.992526</dc:date>
    <dc:format>image/svg+xml</dc:format>
    <dc:creator>
     <cc:Agent>
      <dc:title>Matplotlib v3.10.8, https://matplotlib.org/</dc:title>
     </cc:Agent>
    </dc:creator>
   </cc:Work>
  </rdf:RDF>
 </metadata>
 <defs>
  <style type="text/css">*{stroke-linejoin: round; stroke-linecap: butt}</style>
 </defs>
 <g id="figure_1">
  <g id="patch_1">
   <path d="M 0 360 
L 878.4 360 
L 878.4 0 
L 0 0 
L 0 360 
z
" style="fill: none"/>
  </g>
  <g id="axes_1">
   <g id="line2d_1">
    <path d="M 360.654545 127.636364 
L 779.563636 127.636364 
" clip-path="url(#p91703a85cc)" style="fill: none; stroke: #000000; stroke-width: 0.72; stroke-linecap: square"/>
   </g>
   <g id="line2d_2">
    <path d="M 360.654545 22.909091 
L 779.563636 22.909091 
" clip-path="url(#p91703a85cc)" style="fill: none; stroke: #000000; stroke-width: 0.72; stroke-linecap: square"/>
   </g>
   <g id="patch_2">
    <path d="M 831.927273 75.272727 
C 831.927273 104.192365 808.483274 127.636364 779.563636 127.636364 
C 750.643999 127.636364 727.2 104.192365 727.2 75.272727 
C 727.2 46.353089 750.643999 22.909091 779.563636 22.909091 
C 808.483274 22.909091 831.927273 46.353089 831.927273 75.272727 
" clip-path="url(#p91703a85cc)" style="fill: none; stroke: #000000; stroke-width: 0.72; stroke-linejoin: miter"/>
   </g>
   <g id="patch_3">
    <path d="M 413.018182 75.272727 
C 413.018182 104.192365 389.574183 127.636364 360.654545 127.636364 
C 331.734908 127.636364 308.290909 104.192365 308.290909 75.272727 
C 308.290909 46.353089 331.734908 22.909091 360.654545 22.909091 
C 389.574183 22.909091 413.018182 46.353089 413.018182 75.272727 
" clip-path="url(#p91703a85cc)" style="fill: none; stroke: #000000; stroke-width: 0.72; stroke-linejoin: miter"/>
   </g>
   <g id="line2d_3">
    <path d="M 360.654545 337.090909 
L 308.290909 232.363636 
" clip-path="url(#p91703a85cc)" style="fill: none; stroke: #000000; stroke-width: 0.72; stroke-linecap: square"/>
   </g>
   <g id="line2d_4">
    <path d="M 255.927273 337.090909 
L 360.654545 337.090909 
" clip-path="url(#p91703a85cc)" style="fill: none; stroke: #000000; stroke-width: 0.72; stroke-linecap: square"/>
   </g>
   <g id="line2d_5">
    <path d="M 308.290909 232.363636 
L 255.927273 337.090909 
" clip-path="url(#p91703a85cc)" style="fill: none; stroke: #000000; stroke-width: 0.72; stroke-linecap: square"/>
   </g>
   <g id="line2d_6">
    <path d="M 570.109091 232.363636 
L 570.109091 127.636364 
" clip-path="url(#p91703a85cc)" style="fill: none; stroke: #000000; stroke-width: 0.72; stroke-linecap: square"/>
   </g>
   <g id="line2d_7">
    <path d="M 151.2 232.363636 
L 570.109091 232.363636 
" clip-path="url(#p91703a85cc)" style="fill: none; stroke: #000000; stroke-width: 0.72; stroke-linecap: square"/>
   </g>
   <g id="line2d_8">
    <path d="M 151.2 180 
L 46.472727 180 
" clip-path="url(#p91703a85cc)" style="fill: none; stroke: #000000; stroke-width: 0.72; stroke-linecap: square"/>
   </g>
   <g id="line2d_9">
    <path d="M 151.2 284.727273 
L 151.2 180 
" clip-path="url(#p91703a85cc)" style="fill: none; stroke: #000000; stroke-width: 0.72; stroke-linecap: square"/>
   </g>
   <g id="line2d_10">
    <path d="M 46.472727 284.727273 
L 151.2 284.727273 
" clip-path="url(#p91703a85cc)" style="fill: none; stroke: #000000; stroke-width: 0.72; stroke-linecap: square"/>
   </g>
   <g id="line2d_11">
    <path d="M 46.472727 180 
L 46.472727 284.727273 
" clip-path="url(#p91703a85cc)" style="fill: none; stroke: #000000; stroke-width: 0.72; stroke-linecap: square"/>
   </g>
  </g>
 </g>
 <defs>
  <clipPath id="p91703a85cc">
   <rect x="7.2" y="7.2" width="864" height="345.6"/>
  </clipPath>
 </defs>
</svg>
