<?xml version="1.0" encoding="utf-8" standalone="no"?>
<!DOCTYPE svg PUBLIC "-//W3C//DTD SVG 1.1//EN"
  "http://www.w3.org/Graphics/SVG/1.1/DTD/svg11.dtd">
<svg xmlns:xlink="http://www.w3.org/1999/xlink" width="446.4pt" height="360pt" viewBox="0 0 446.4 360" xmlns="http://www.w3.org/2000/svg" version="1.1">
 <metadata>
  <rdf:RDF xmlns:dc="http://purl.org/dc/elements/1.1/" xmlns:cc="http://creativecommons.org/ns#" xmlns:rdf="http://www.w3.org/1999/02/22-rdf-syntax-ns#">
   <cc:Work>
    <dc:type rdf:resource="http://purl.org/dc/dcmitype/StillImage"/>
    <dc:date>2026-02-17T12:15:13.620352</dc:date>
    <dc:format>image/svg+xml</dc:format>
    <dc:creator>
     <cc:Agent>
      <dc:title>Matplotlib v3.10.8, https://matplotlib.org/</dc:title>
     </cc:Agent>
    </dc:creator>
   </cc:Work>
  </rdf:RDF>
 </metadata>
 <defs>
  <style type="text/css">*{stroke-linejoin: round; stroke-linecap: butt}</style>
 </defs>
 <g id="figure_1">
  <g id="patch_1">
   <path d="M 0 360 
L 446.4 360 
L 446.4 0 
L 0 0 
L 0 360 
z
" style="fill: none"/>
  </g>
  <g id="axes_1">
   <g id="line2d_1">
    <path d="M 419.563636 22.909091 
L 419.563636 258.545455 
" clip-path="url(#pd179eab113)" style="fill: none; stroke: #000000; stroke-width: 0.72; stroke-linecap: square"/>
   </g>
   <g id="line2d_2">
    <path d="M 26.836364 22.909091 
L 26.836364 258.545455 
" clip-path="url(#pd179eab113)" style="fill: none; stroke: #000000; stroke-width: 0.72; stroke-linecap: square"/>
   </g>
   <g id="patch_2">
    <path d="M 380.290909 297.818182 
C 380.290909 319.50791 362.70791 337.090909 341.018182 337.090909 
C 319.328453 337.090909 301.745455 319.50791 301.745455 297.818182 
C 301.745455 276.128453 319.328453 258.545455 341.018182 258.545455 
C 362.70791 258.545455 380.290909 276.128453 380.290909 297.818182 
" clip-path="url(#pd179eab113)" style="fill: none; stroke: #000000; stroke-width: 0.72; stroke-linejoin: miter"/>
   </g>
   <g id="patch_3">
    <path d="M 144.654545 297.818182 
C 144.654545 319.50791 127.071547 337.090909 105.381818 337.090909 
C 83.69209 337.090909 66.109091 319.50791 66.109091 297.818182 
C 66.109091 276.128453 83.69209 258.545455 105.381818 258.545455 
C 127.071547 258.545455 144.654545 276.128453 144.654545 297.818182 
" clip-path="url(#pd179eab113)" style="fill: none; stroke: #000000; stroke-width: 0.72; stroke-linejoin: miter"/>
   </g>
   <g id="line2d_3">
    <path d="M 26.836364 258.545455 
L 419.563636 258.545455 
" clip-path="url(#pd179eab113)" style="fill: none; stroke: #000000; stroke-width: 0.72; stroke-linecap: square"/>
   </g>
   <g id="line2d_4">
    <path d="M 26.836364 22.909091 
L 419.563636 22.909091 
" clip-path="url(#pd179eab113)" style="fill: none; stroke: #000000; stroke-width: 0.72; stroke-linecap: square"/>
   </g>
  </g>
 </g>
 <defs>
  <clipPath id="pd179eab113">
   <rect x="7.2" y="7.2" width="432" height="345.6"/>
  </clipPath>
 </defs>
</svg>
