<?xml version="1.0" encoding="utf-8" standalone="no"?>
<!DOCTYPE svg PUBLIC "-//W3C//DTD SVG 1.1//EN"
  "http://www.w3.org/Graphics/SVG/1.1/DTD/svg11.dtd">
<svg xmlns:xlink="http://www.w3.org/1999/xlink" width="360pt" height="360pt" viewBox="0 0 360 360" xmlns="http://www.w3.org/2000/svg" version="1.1">
 <metadata>
  <rdf:RDF xmlns:dc="http://purl.org/dc/elements/1.1/" xmlns:cc="http://creativecommons.org/ns#" xmlns:rdf="http://www.w3.org/1999/02/22-rdf-syntax-ns#">
   <cc:Work>
    <dc:type rdf:resource="http://purl.org/dc/dcmitype/StillImage"/>
    <dc:date>2026-02-17T12:15:00.949211</dc:date>
    <dc:format>image/svg+xml</dc:format>
    <dc:creator>
     <cc:Agent>
      <dc:title>Matplotlib v3.10.8, https://matplotlib.org/</dc:title>
     </cc:Agent>
    </dc:creator>
   </cc:Work>
  </rdf:RDF>
 </metadata>
 <defs>
  <style type="text/css">*{stroke-linejoin: round; stroke-linecap: butt}</style>
 </defs>
 <g id="figure_1">
  <g id="patch_1">
   <path d="M 0 360 
L 360 360 
L 360 0 
L 0 0 
L 0 360 
z
" style="fill: none"/>
  </g>
  <g id="axes_1">
   <g id="line2d_1">
    <path d="M 180 232.363636 
L 180 310.909091 
" clip-path="url(#pf16fd067c8)" style="fill: none; stroke: #000000; stroke-width: 0.72; stroke-linecap: square"/>
   </g>
   <g id="patch_2">
    <path d="M 270.696479 232.363636 
C 251.988753 199.960905 217.415451 180 180 180 
C 142.584549 180 108.011247 199.960905 89.303521 232.363636 
" clip-path="url(#pf16fd067c8)" style="fill: none; stroke: #000000; stroke-width: 0.72; stroke-linejoin: miter"/>
   </g>
   <g id="patch_3">
    <path d="M 89.303521 232.363636 
C 126.718972 232.363636 161.292275 212.402731 180 180 
C 198.707725 147.597269 198.707725 107.675458 180 75.272727 
" clip-path="url(#pf16fd067c8)" style="fill: none; stroke: #000000; stroke-width: 0.72; stroke-linejoin: miter"/>
   </g>
   <g id="patch_4">
    <path d="M 180 75.272727 
C 161.292275 107.675458 161.292275 147.597269 180 180 
C 198.707725 212.402731 233.281028 232.363636 270.696479 232.363636 
" clip-path="url(#pf16fd067c8)" style="fill: none; stroke: #000000; stroke-width: 0.72; stroke-linejoin: miter"/>
   </g>
   <g id="patch_5">
    <path d="M 337.090909 180 
C 337.090909 266.758913 266.758913 337.090909 180 337.090909 
C 93.241087 337.090909 22.909091 266.758913 22.909091 180 
C 22.909091 93.241087 93.241087 22.909091 180 22.909091 
C 266.758913 22.909091 337.090909 93.241087 337.090909 180 
" clip-path="url(#pf16fd067c8)" style="fill: none; stroke: #000000; stroke-width: 0.72; stroke-linejoin: miter"/>
   </g>
   <g id="line2d_2">
    <path d="M 317.024182 256.824002 
L 264.751219 47.732148 
" clip-path="url(#pf16fd067c8)" style="fill: none; stroke: #000000; stroke-width: 0.72; stroke-linecap: square"/>
   </g>
   <g id="line2d_3">
    <path d="M 42.975818 256.824002 
L 95.248781 47.732148 
" clip-path="url(#pf16fd067c8)" style="fill: none; stroke: #000000; stroke-width: 0.72; stroke-linecap: square"/>
   </g>
  </g>
 </g>
 <defs>
  <clipPath id="pf16fd067c8">
   <rect x="7.2" y="7.2" width="345.6" height="345.6"/>
  </clipPath>
 </defs>
</svg>
