<?xml version="1.0" encoding="utf-8" standalone="no"?>
<!DOCTYPE svg PUBLIC "-//W3C//DTD SVG 1.1//EN"
  "http://www.w3.org/Graphics/SVG/1.1/DTD/svg11.dtd">
<svg xmlns:xlink="http://www.w3.org/1999/xlink" width="360pt" height="360pt" viewBox="0 0 360 360" xmlns="http://www.w3.org/2000/svg" version="1.1">
 <metadata>
  <rdf:RDF xmlns:dc="http://purl.org/dc/elements/1.1/" xmlns:cc="http://creativecommons.org/ns#" xmlns:rdf="http://www.w3.org/1999/02/22-rdf-syntax-ns#">
   <cc:Work>
    <dc:type rdf:resource="http://purl.org/dc/dcmitype/StillImage"/>
    <dc:date>2026-02-17T12:15:08.242065</dc:date>
    <dc:format>image/svg+xml</dc:format>
    <dc:creator>
     <cc:Agent>
      <dc:title>Matplotlib v3.10.8, https://matplotlib.org/</dc:title>
     </cc:Agent>
    </dc:creator>
   </cc:Work>
  </rdf:RDF>
 </metadata>
 <defs>
  <style type="text/css">*{stroke-linejoin: round; stroke-linecap: butt}</style>
 </defs>
 <g id="figure_1">
  <g id="patch_1">
   <path d="M 0 360 
L 360 360 
L 360 0 
L 0 0 
L 0 360 
z
" style="fill: none"/>
  </g>
  <g id="axes_1">
   <g id="line2d_1">
    <path d="M 297.818182 62.181818 
L 62.181818 297.818182 
" clip-path="url(#p31b9815922)" style="fill: none; stroke: #000000; stroke-width: 0.72; stroke-linecap: square"/>
   </g>
   <g id="line2d_2">
    <path d="M 62.181818 62.181818 
L 297.818182 297.818182 
" clip-path="url(#p31b9815922)" style="fill: none; stroke: #000000; stroke-width: 0.72; stroke-linecap: square"/>
   </g>
   <g id="patch_2">
    <path d="M 337.090909 180 
C 337.090909 266.758913 266.758913 337.090909 180 337.090909 
C 93.241087 337.090909 22.909091 266.758913 22.909091 180 
C 22.909091 93.241087 93.241087 22.909091 180 22.909091 
C 266.758913 22.909091 337.090909 93.241087 337.090909 180 
" clip-path="url(#p31b9815922)" style="fill: none; stroke: #000000; stroke-width: 0.72; stroke-linejoin: miter"/>
   </g>
   <g id="patch_3">
    <path d="M 297.818182 180 
C 297.818182 245.069185 245.069185 297.818182 180 297.818182 
C 114.930815 297.818182 62.181818 245.069185 62.181818 180 
C 62.181818 114.930815 114.930815 62.181818 180 62.181818 
C 245.069185 62.181818 297.818182 114.930815 297.818182 180 
" clip-path="url(#p31b9815922)" style="fill: none; stroke: #000000; stroke-width: 0.72; stroke-linejoin: miter"/>
   </g>
   <g id="patch_4">
    <path d="M 258.545455 180 
C 258.545455 223.379457 223.379457 258.545455 180 258.545455 
C 136.620543 258.545455 101.454545 223.379457 101.454545 180 
C 101.454545 136.620543 136.620543 101.454545 180 101.454545 
C 223.379457 101.454545 258.545455 136.620543 258.545455 180 
" clip-path="url(#p31b9815922)" style="fill: none; stroke: #000000; stroke-width: 0.72; stroke-linejoin: miter"/>
   </g>
  </g>
 </g>
 <defs>
  <clipPath id="p31b9815922">
   <rect x="7.2" y="7.2" width="345.6" height="345.6"/>
  </clipPath>
 </defs>
</svg>
