<?xml version="1.0" encoding="utf-8" standalone="no"?>
<!DOCTYPE svg PUBLIC "-//W3C//DTD SVG 1.1//EN"
  "http://www.w3.org/Graphics/SVG/1.1/DTD/svg11.dtd">
<svg xmlns:xlink="http://www.w3.org/1999/xlink" width="360pt" height="360pt" viewBox="0 0 360 360" xmlns="http://www.w3.org/2000/svg" version="1.1">
 <metadata>
  <rdf:RDF xmlns:dc="http://purl.org/dc/elements/1.1/" xmlns:cc="http://creativecommons.org/ns#" xmlns:rdf="http://www.w3.org/1999/02/22-rdf-syntax-ns#">
   <cc:Work>
    <dc:type rdf:resource="http://purl.org/dc/dcmitype/StillImage"/>
    <dc:date>2026-02-17T12:15:10.895851</dc:date>
    <dc:format>image/svg+xml</dc:format>
    <dc:creator>
     <cc:Agent>
      <dc:title>Matplotlib v3.10.8, https://matplotlib.org/</dc:title>
     </cc:Agent>
    </dc:creator>
   </cc:Work>
  </rdf:RDF>
 </metadata>
 <defs>
  <style type="text/css">*{stroke-linejoin: round; stroke-linecap: butt}</style>
 </defs>
 <g id="figure_1">
  <g id="patch_1">
   <path d="M 0 360 
L 360 360 
L 360 0 
L 0 0 
L 0 360 
z
" style="fill: none"/>
  </g>
  <g id="axes_1">
   <g id="line2d_1">
    <path d="M 189.841906 163.008129 
L 258.735245 44.065035 
" clip-path="url(#pd0851dbbff)" style="fill: none; stroke: #000000; stroke-width: 0.72; stroke-linecap: square"/>
   </g>
   <g id="line2d_2">
    <path d="M 199.636345 180.027405 
L 337.090756 180.21924 
" clip-path="url(#pd0851dbbff)" style="fill: none; stroke: #000000; stroke-width: 0.72; stroke-linecap: square"/>
   </g>
   <g id="line2d_3">
    <path d="M 189.794439 197.019276 
L 258.355511 316.154205 
" clip-path="url(#pd0851dbbff)" style="fill: none; stroke: #000000; stroke-width: 0.72; stroke-linecap: square"/>
   </g>
   <g id="line2d_4">
    <path d="M 170.158094 196.991871 
L 101.264755 315.934965 
" clip-path="url(#pd0851dbbff)" style="fill: none; stroke: #000000; stroke-width: 0.72; stroke-linecap: square"/>
   </g>
   <g id="line2d_5">
    <path d="M 160.363655 179.972595 
L 22.909244 179.78076 
" clip-path="url(#pd0851dbbff)" style="fill: none; stroke: #000000; stroke-width: 0.72; stroke-linecap: square"/>
   </g>
   <g id="line2d_6">
    <path d="M 170.205561 162.980724 
L 101.644489 43.845795 
" clip-path="url(#pd0851dbbff)" style="fill: none; stroke: #000000; stroke-width: 0.72; stroke-linecap: square"/>
   </g>
   <g id="patch_2">
    <path d="M 199.636364 180 
C 199.636364 190.844864 190.844864 199.636364 180 199.636364 
C 169.155136 199.636364 160.363636 190.844864 160.363636 180 
C 160.363636 169.155136 169.155136 160.363636 180 160.363636 
C 190.844864 160.363636 199.636364 169.155136 199.636364 180 
" clip-path="url(#pd0851dbbff)" style="fill: none; stroke: #000000; stroke-width: 0.72; stroke-linejoin: miter"/>
   </g>
   <g id="patch_3">
    <path d="M 337.090909 180 
C 337.090909 266.758913 266.758913 337.090909 180 337.090909 
C 93.241087 337.090909 22.909091 266.758913 22.909091 180 
C 22.909091 93.241087 93.241087 22.909091 180 22.909091 
C 266.758913 22.909091 337.090909 93.241087 337.090909 180 
" clip-path="url(#pd0851dbbff)" style="fill: none; stroke: #000000; stroke-width: 0.72; stroke-linejoin: miter"/>
   </g>
  </g>
 </g>
 <defs>
  <clipPath id="pd0851dbbff">
   <rect x="7.2" y="7.2" width="345.6" height="345.6"/>
  </clipPath>
 </defs>
</svg>
