<?xml version="1.0" encoding="utf-8" standalone="no"?>
<!DOCTYPE svg PUBLIC "-//W3C//DTD SVG 1.1//EN"
  "http://www.w3.org/Graphics/SVG/1.1/DTD/svg11.dtd">
<svg xmlns:xlink="http://www.w3.org/1999/xlink" width="302.4pt" height="446.4pt" viewBox="0 0 302.4 446.4" xmlns="http://www.w3.org/2000/svg" version="1.1">
 <metadata>
  <rdf:RDF xmlns:dc="http://purl.org/dc/elements/1.1/" xmlns:cc="http://creativecommons.org/ns#" xmlns:rdf="http://www.w3.org/1999/02/22-rdf-syntax-ns#">
   <cc:Work>
    <dc:type rdf:resource="http://purl.org/dc/dcmitype/StillImage"/>
    <dc:date>2026-02-17T12:15:05.216377</dc:date>
    <dc:format>image/svg+xml</dc:format>
    <dc:creator>
     <cc:Agent>
      <dc:title>Matplotlib v3.10.8, https://matplotlib.org/</dc:title>
     </cc:Agent>
    </dc:creator>
   </cc:Work>
  </rdf:RDF>
 </metadata>
 <defs>
  <style type="text/css">*{stroke-linejoin: round; stroke-linecap: butt}</style>
 </defs>
 <g id="figure_1">
  <g id="patch_1">
   <path d="M 0 446.4 
L 302.4 446.4 
L 302.4 0 
L 0 0 
L 0 446.4 
z
" style="fill: none"/>
  </g>
  <g id="axes_1">
   <g id="line2d_1">
    <path d="M 76.159858 180.887131 
L 226.240142 180.887131 
" clip-path="url(#p3aca063f3d)" style="fill: none; stroke: #000000; stroke-width: 0.72; stroke-linecap: square"/>
   </g>
   <g id="line2d_2">
    <path d="M 76.159858 134.603778 
L 226.240142 134.603778 
" clip-path="url(#p3aca063f3d)" style="fill: none; stroke: #000000; stroke-width: 0.72; stroke-linecap: square"/>
   </g>
   <g id="patch_2">
    <path d="M 249.381818 157.745455 
C 249.381818 170.52625 239.020937 180.887131 226.240142 180.887131 
C 213.459347 180.887131 203.098465 170.52625 203.098465 157.745455 
C 203.098465 144.96466 213.459347 134.603778 226.240142 134.603778 
C 239.020937 134.603778 249.381818 144.96466 249.381818 157.745455 
" clip-path="url(#p3aca063f3d)" style="fill: none; stroke: #000000; stroke-width: 0.72; stroke-linejoin: miter"/>
   </g>
   <g id="patch_3">
    <path d="M 99.301535 157.745455 
C 99.301535 170.52625 88.940653 180.887131 76.159858 180.887131 
C 63.379063 180.887131 53.018182 170.52625 53.018182 157.745455 
C 53.018182 144.96466 63.379063 134.603778 76.159858 134.603778 
C 88.940653 134.603778 99.301535 144.96466 99.301535 157.745455 
" clip-path="url(#p3aca063f3d)" style="fill: none; stroke: #000000; stroke-width: 0.72; stroke-linejoin: miter"/>
   </g>
   <g id="line2d_3">
    <path d="M 20.290909 419.563636 
L 282.109091 419.563636 
" clip-path="url(#p3aca063f3d)" style="fill: none; stroke: #000000; stroke-width: 0.72; stroke-linecap: square"/>
   </g>
   <g id="line2d_4">
    <path d="M 282.109091 419.563636 
L 282.109091 92.290909 
" clip-path="url(#p3aca063f3d)" style="fill: none; stroke: #000000; stroke-width: 0.72; stroke-linecap: square"/>
   </g>
   <g id="line2d_5">
    <path d="M 249.381818 26.836364 
L 53.018182 26.836364 
" clip-path="url(#p3aca063f3d)" style="fill: none; stroke: #000000; stroke-width: 0.72; stroke-linecap: square"/>
   </g>
   <g id="line2d_6">
    <path d="M 20.290909 92.290909 
L 20.290909 419.563636 
" clip-path="url(#p3aca063f3d)" style="fill: none; stroke: #000000; stroke-width: 0.72; stroke-linecap: square"/>
   </g>
   <g id="line2d_7">
    <path d="M 20.290909 92.290909 
L 53.018182 26.836364 
" clip-path="url(#p3aca063f3d)" style="fill: none; stroke: #000000; stroke-width: 0.72; stroke-linecap: square"/>
   </g>
   <g id="line2d_8">
    <path d="M 282.109091 92.290909 
L 249.381818 26.836364 
" clip-path="url(#p3aca063f3d)" style="fill: none; stroke: #000000; stroke-width: 0.72; stroke-linecap: square"/>
   </g>
  </g>
 </g>
 <defs>
  <clipPath id="p3aca063f3d">
   <rect x="7.2" y="7.2" width="288" height="432"/>
  </clipPath>
 </defs>
</svg>
