<?xml version="1.0" encoding="utf-8" standalone="no"?>
<!DOCTYPE svg PUBLIC "-//W3C//DTD SVG 1.1//EN"
  "http://www.w3.org/Graphics/SVG/1.1/DTD/svg11.dtd">
<svg xmlns:xlink="http://www.w3.org/1999/xlink" width="360pt" height="360pt" viewBox="0 0 360 360" xmlns="http://www.w3.org/2000/svg" version="1.1">
 <metadata>
  <rdf:RDF xmlns:dc="http://purl.org/dc/elements/1.1/" xmlns:cc="http://creativecommons.org/ns#" xmlns:rdf="http://www.w3.org/1999/02/22-rdf-syntax-ns#">
   <cc:Work>
    <dc:type rdf:resource="http://purl.org/dc/dcmitype/StillImage"/>
    <dc:date>2026-02-17T12:15:13.934666</dc:date>
    <dc:format>image/svg+xml</dc:format>
    <dc:creator>
     <cc:Agent>
      <dc:title>Matplotlib v3.10.8, https://matplotlib.org/</dc:title>
     </cc:Agent>
    </dc:creator>
   </cc:Work>
  </rdf:RDF>
 </metadata>
 <defs>
  <style type="text/css">*{stroke-linejoin: round; stroke-linecap: butt}</style>
 </defs>
 <g id="figure_1">
  <g id="patch_1">
   <path d="M 0 360 
L 360 360 
L 360 0 
L 0 0 
L 0 360 
z
" style="fill: none"/>
  </g>
  <g id="axes_1">
   <g id="line2d_1">
    <path d="M 284.727273 337.090909 
L 75.272727 337.090909 
" clip-path="url(#p6976bcf57f)" style="fill: none; stroke: #000000; stroke-width: 0.72; stroke-linecap: square"/>
   </g>
   <g id="line2d_2">
    <path d="M 284.727273 22.909091 
L 284.727273 337.090909 
" clip-path="url(#p6976bcf57f)" style="fill: none; stroke: #000000; stroke-width: 0.72; stroke-linecap: square"/>
   </g>
   <g id="line2d_3">
    <path d="M 75.272727 22.909091 
L 284.727273 22.909091 
" clip-path="url(#p6976bcf57f)" style="fill: none; stroke: #000000; stroke-width: 0.72; stroke-linecap: square"/>
   </g>
   <g id="line2d_4">
    <path d="M 75.272727 337.090909 
L 75.272727 22.909091 
" clip-path="url(#p6976bcf57f)" style="fill: none; stroke: #000000; stroke-width: 0.72; stroke-linecap: square"/>
   </g>
   <g id="patch_2">
    <path d="M 75.272727 258.545455 
C 75.272727 273.005273 63.550728 284.727273 49.090909 284.727273 
C 34.63109 284.727273 22.909091 273.005273 22.909091 258.545455 
C 22.909091 244.085636 34.63109 232.363636 49.090909 232.363636 
C 63.550728 232.363636 75.272727 244.085636 75.272727 258.545455 
" clip-path="url(#p6976bcf57f)" style="fill: none; stroke: #000000; stroke-width: 0.72; stroke-linejoin: miter"/>
   </g>
   <g id="patch_3">
    <path d="M 75.272727 153.818182 
C 75.272727 168.278001 63.550728 180 49.090909 180 
C 34.63109 180 22.909091 168.278001 22.909091 153.818182 
C 22.909091 139.358363 34.63109 127.636364 49.090909 127.636364 
C 63.550728 127.636364 75.272727 139.358363 75.272727 153.818182 
" clip-path="url(#p6976bcf57f)" style="fill: none; stroke: #000000; stroke-width: 0.72; stroke-linejoin: miter"/>
   </g>
   <g id="patch_4">
    <path d="M 337.090909 101.454545 
C 337.090909 115.914364 325.36891 127.636364 310.909091 127.636364 
C 296.449272 127.636364 284.727273 115.914364 284.727273 101.454545 
C 284.727273 86.994727 296.449272 75.272727 310.909091 75.272727 
C 325.36891 75.272727 337.090909 86.994727 337.090909 101.454545 
" clip-path="url(#p6976bcf57f)" style="fill: none; stroke: #000000; stroke-width: 0.72; stroke-linejoin: miter"/>
   </g>
   <g id="patch_5">
    <path d="M 337.090909 206.181818 
C 337.090909 220.641637 325.36891 232.363636 310.909091 232.363636 
C 296.449272 232.363636 284.727273 220.641637 284.727273 206.181818 
C 284.727273 191.721999 296.449272 180 310.909091 180 
C 325.36891 180 337.090909 191.721999 337.090909 206.181818 
" clip-path="url(#p6976bcf57f)" style="fill: none; stroke: #000000; stroke-width: 0.72; stroke-linejoin: miter"/>
   </g>
  </g>
 </g>
 <defs>
  <clipPath id="p6976bcf57f">
   <rect x="7.2" y="7.2" width="345.6" height="345.6"/>
  </clipPath>
 </defs>
</svg>
