<?xml version="1.0" encoding="utf-8" standalone="no"?>
<!DOCTYPE svg PUBLIC "-//W3C//DTD SVG 1.1//EN"
  "http://www.w3.org/Graphics/SVG/1.1/DTD/svg11.dtd">
<svg xmlns:xlink="http://www.w3.org/1999/xlink" width="302.4pt" height="446.4pt" viewBox="0 0 302.4 446.4" xmlns="http://www.w3.org/2000/svg" version="1.1">
 <metadata>
  <rdf:RDF xmlns:dc="http://purl.org/dc/elements/1.1/" xmlns:cc="http://creativecommons.org/ns#" xmlns:rdf="http://www.w3.org/1999/02/22-rdf-syntax-ns#">
   <cc:Work>
    <dc:type rdf:resource="http://purl.org/dc/dcmitype/StillImage"/>
    <dc:date>2026-02-17T12:15:04.949337</dc:date>
    <dc:format>image/svg+xml</dc:format>
    <dc:creator>
     <cc:Agent>
      <dc:title>Matplotlib v3.10.8, https://matplotlib.org/</dc:title>
     </cc:Agent>
    </dc:creator>
   </cc:Work>
  </rdf:RDF>
 </metadata>
 <defs>
  <style type="text/css">*{stroke-linejoin: round; stroke-linecap: butt}</style>
 </defs>
 <g id="figure_1">
  <g id="patch_1">
   <path d="M 0 446.4 
L 302.4 446.4 
L 302.4 0 
L 0 0 
L 0 446.4 
z
" style="fill: none"/>
  </g>
  <g id="axes_1">
   <g id="patch_2">
    <path d="M 48.927273 190.472727 
L 48.946972 190.873706 
L 49.005878 191.270824 
L 49.103426 191.660255 
L 49.238675 192.03825 
L 49.410322 192.401168 
L 49.616715 192.745515 
L 49.855866 193.067973 
L 50.125472 193.365437 
L 50.422937 193.635043 
L 50.745395 193.874194 
L 51.089741 194.080587 
L 51.452659 194.252234 
L 51.830654 194.387483 
L 52.220085 194.485031 
L 52.617203 194.543938 
L 53.018182 194.563636 
L 53.419161 194.543938 
L 53.816279 194.485031 
L 54.20571 194.387483 
L 54.583705 194.252234 
L 54.946623 194.080587 
L 55.290969 193.874194 
L 55.613427 193.635043 
L 55.910891 193.365437 
L 56.180497 193.067973 
L 56.419648 192.745515 
L 56.626042 192.401168 
L 56.797689 192.03825 
L 56.932938 191.660255 
L 57.030485 191.270824 
L 57.089392 190.873706 
L 57.109091 190.472727 
L 53.018182 190.472727 
z
" clip-path="url(#pc7bd8116b5)"/>
   </g>
   <g id="patch_3">
    <path d="M 57.109091 190.472727 
L 57.089392 190.071748 
L 57.030485 189.674631 
L 56.932938 189.285199 
L 56.797689 188.907204 
L 56.626042 188.544286 
L 56.419648 188.19994 
L 56.180497 187.877482 
L 55.910891 187.580018 
L 55.613427 187.310412 
L 55.290969 187.071261 
L 54.946623 186.864868 
L 54.583705 186.69322 
L 54.20571 186.557971 
L 53.816279 186.460424 
L 53.419161 186.401517 
L 53.018182 186.381818 
L 52.617203 186.401517 
L 52.220085 186.460424 
L 51.830654 186.557971 
L 51.452659 186.69322 
L 51.089741 186.864868 
L 50.745395 187.071261 
L 50.422937 187.310412 
L 50.125472 187.580018 
L 49.855866 187.877482 
L 49.616715 188.19994 
L 49.410322 188.544286 
L 49.238675 188.907204 
L 49.103426 189.285199 
L 49.005878 189.674631 
L 48.946972 190.071748 
L 48.927273 190.472727 
L 53.018182 190.472727 
z
" clip-path="url(#pc7bd8116b5)"/>
   </g>
   <g id="patch_4">
    <path d="M 114.381818 190.472727 
L 114.401517 190.873706 
L 114.460424 191.270824 
L 114.557971 191.660255 
L 114.69322 192.03825 
L 114.864868 192.401168 
L 115.071261 192.745515 
L 115.310412 193.067973 
L 115.580018 193.365437 
L 115.877482 193.635043 
L 116.19994 193.874194 
L 116.544286 194.080587 
L 116.907204 194.252234 
L 117.285199 194.387483 
L 117.674631 194.485031 
L 118.071748 194.543938 
L 118.472727 194.563636 
L 118.873706 194.543938 
L 119.270824 194.485031 
L 119.660255 194.387483 
L 120.03825 194.252234 
L 120.401168 194.080587 
L 120.745515 193.874194 
L 121.067973 193.635043 
L 121.365437 193.365437 
L 121.635043 193.067973 
L 121.874194 192.745515 
L 122.080587 192.401168 
L 122.252234 192.03825 
L 122.387483 191.660255 
L 122.485031 191.270824 
L 122.543938 190.873706 
L 122.563636 190.472727 
L 118.472727 190.472727 
z
" clip-path="url(#pc7bd8116b5)"/>
   </g>
   <g id="patch_5">
    <path d="M 122.563636 190.472727 
L 122.543938 190.071748 
L 122.485031 189.674631 
L 122.387483 189.285199 
L 122.252234 188.907204 
L 122.080587 188.544286 
L 121.874194 188.19994 
L 121.635043 187.877482 
L 121.365437 187.580018 
L 121.067973 187.310412 
L 120.745515 187.071261 
L 120.401168 186.864868 
L 120.03825 186.69322 
L 119.660255 186.557971 
L 119.270824 186.460424 
L 118.873706 186.401517 
L 118.472727 186.381818 
L 118.071748 186.401517 
L 117.674631 186.460424 
L 117.285199 186.557971 
L 116.907204 186.69322 
L 116.544286 186.864868 
L 116.19994 187.071261 
L 115.877482 187.310412 
L 115.580018 187.580018 
L 115.310412 187.877482 
L 115.071261 188.19994 
L 114.864868 188.544286 
L 114.69322 188.907204 
L 114.557971 189.285199 
L 114.460424 189.674631 
L 114.401517 190.071748 
L 114.381818 190.472727 
L 118.472727 190.472727 
z
" clip-path="url(#pc7bd8116b5)"/>
   </g>
   <g id="patch_6">
    <path d="M 179.836364 190.472727 
L 179.856062 190.873706 
L 179.914969 191.270824 
L 180.012517 191.660255 
L 180.147766 192.03825 
L 180.319413 192.401168 
L 180.525806 192.745515 
L 180.764957 193.067973 
L 181.034563 193.365437 
L 181.332027 193.635043 
L 181.654485 193.874194 
L 181.998832 194.080587 
L 182.36175 194.252234 
L 182.739745 194.387483 
L 183.129176 194.485031 
L 183.526294 194.543938 
L 183.927273 194.563636 
L 184.328252 194.543938 
L 184.725369 194.485031 
L 185.114801 194.387483 
L 185.492796 194.252234 
L 185.855714 194.080587 
L 186.20006 193.874194 
L 186.522518 193.635043 
L 186.819982 193.365437 
L 187.089588 193.067973 
L 187.328739 192.745515 
L 187.535132 192.401168 
L 187.70678 192.03825 
L 187.842029 191.660255 
L 187.939576 191.270824 
L 187.998483 190.873706 
L 188.018182 190.472727 
L 183.927273 190.472727 
z
" clip-path="url(#pc7bd8116b5)"/>
   </g>
   <g id="patch_7">
    <path d="M 188.018182 190.472727 
L 187.998483 190.071748 
L 187.939576 189.674631 
L 187.842029 189.285199 
L 187.70678 188.907204 
L 187.535132 188.544286 
L 187.328739 188.19994 
L 187.089588 187.877482 
L 186.819982 187.580018 
L 186.522518 187.310412 
L 186.20006 187.071261 
L 185.855714 186.864868 
L 185.492796 186.69322 
L 185.114801 186.557971 
L 184.725369 186.460424 
L 184.328252 186.401517 
L 183.927273 186.381818 
L 183.526294 186.401517 
L 183.129176 186.460424 
L 182.739745 186.557971 
L 182.36175 186.69322 
L 181.998832 186.864868 
L 181.654485 187.071261 
L 181.332027 187.310412 
L 181.034563 187.580018 
L 180.764957 187.877482 
L 180.525806 188.19994 
L 180.319413 188.544286 
L 180.147766 188.907204 
L 180.012517 189.285199 
L 179.914969 189.674631 
L 179.856062 190.071748 
L 179.836364 190.472727 
L 183.927273 190.472727 
z
" clip-path="url(#pc7bd8116b5)"/>
   </g>
   <g id="patch_8">
    <path d="M 245.290909 190.472727 
L 245.310608 190.873706 
L 245.369515 191.270824 
L 245.467062 191.660255 
L 245.602311 192.03825 
L 245.773958 192.401168 
L 245.980352 192.745515 
L 246.219503 193.067973 
L 246.489109 193.365437 
L 246.786573 193.635043 
L 247.109031 193.874194 
L 247.453377 194.080587 
L 247.816295 194.252234 
L 248.19429 194.387483 
L 248.583721 194.485031 
L 248.980839 194.543938 
L 249.381818 194.563636 
L 249.782797 194.543938 
L 250.179915 194.485031 
L 250.569346 194.387483 
L 250.947341 194.252234 
L 251.310259 194.080587 
L 251.654605 193.874194 
L 251.977063 193.635043 
L 252.274528 193.365437 
L 252.544134 193.067973 
L 252.783285 192.745515 
L 252.989678 192.401168 
L 253.161325 192.03825 
L 253.296574 191.660255 
L 253.394122 191.270824 
L 253.453028 190.873706 
L 253.472727 190.472727 
L 249.381818 190.472727 
z
" clip-path="url(#pc7bd8116b5)"/>
   </g>
   <g id="patch_9">
    <path d="M 253.472727 190.472727 
L 253.453028 190.071748 
L 253.394122 189.674631 
L 253.296574 189.285199 
L 253.161325 188.907204 
L 252.989678 188.544286 
L 252.783285 188.19994 
L 252.544134 187.877482 
L 252.274528 187.580018 
L 251.977063 187.310412 
L 251.654605 187.071261 
L 251.310259 186.864868 
L 250.947341 186.69322 
L 250.569346 186.557971 
L 250.179915 186.460424 
L 249.782797 186.401517 
L 249.381818 186.381818 
L 248.980839 186.401517 
L 248.583721 186.460424 
L 248.19429 186.557971 
L 247.816295 186.69322 
L 247.453377 186.864868 
L 247.109031 187.071261 
L 246.786573 187.310412 
L 246.489109 187.580018 
L 246.219503 187.877482 
L 245.980352 188.19994 
L 245.773958 188.544286 
L 245.602311 188.907204 
L 245.467062 189.285199 
L 245.369515 189.674631 
L 245.310608 190.071748 
L 245.290909 190.472727 
L 249.381818 190.472727 
z
" clip-path="url(#pc7bd8116b5)"/>
   </g>
   <g id="patch_10">
    <path d="M 212.563636 157.745455 
L 212.583335 158.146434 
L 212.642242 158.543551 
L 212.73979 158.932983 
L 212.875038 159.310978 
L 213.046686 159.673896 
L 213.253079 160.018242 
L 213.49223 160.3407 
L 213.761836 160.638164 
L 214.0593 160.90777 
L 214.381758 161.146921 
L 214.726104 161.353314 
L 215.089022 161.524962 
L 215.467017 161.66021 
L 215.856449 161.757758 
L 216.253566 161.816665 
L 216.654545 161.836364 
L 217.055525 161.816665 
L 217.452642 161.757758 
L 217.842074 161.66021 
L 218.220069 161.524962 
L 218.582987 161.353314 
L 218.927333 161.146921 
L 219.249791 160.90777 
L 219.547255 160.638164 
L 219.816861 160.3407 
L 220.056012 160.018242 
L 220.262405 159.673896 
L 220.434053 159.310978 
L 220.569301 158.932983 
L 220.666849 158.543551 
L 220.725756 158.146434 
L 220.745455 157.745455 
L 216.654545 157.745455 
z
" clip-path="url(#pc7bd8116b5)"/>
   </g>
   <g id="patch_11">
    <path d="M 220.745455 157.745455 
L 220.725756 157.344475 
L 220.666849 156.947358 
L 220.569301 156.557926 
L 220.434053 156.179931 
L 220.262405 155.817013 
L 220.056012 155.472667 
L 219.816861 155.150209 
L 219.547255 154.852745 
L 219.249791 154.583139 
L 218.927333 154.343988 
L 218.582987 154.137595 
L 218.220069 153.965947 
L 217.842074 153.830699 
L 217.452642 153.733151 
L 217.055525 153.674244 
L 216.654545 153.654545 
L 216.253566 153.674244 
L 215.856449 153.733151 
L 215.467017 153.830699 
L 215.089022 153.965947 
L 214.726104 154.137595 
L 214.381758 154.343988 
L 214.0593 154.583139 
L 213.761836 154.852745 
L 213.49223 155.150209 
L 213.253079 155.472667 
L 213.046686 155.817013 
L 212.875038 156.179931 
L 212.73979 156.557926 
L 212.642242 156.947358 
L 212.583335 157.344475 
L 212.563636 157.745455 
L 216.654545 157.745455 
z
" clip-path="url(#pc7bd8116b5)"/>
   </g>
   <g id="patch_12">
    <path d="M 147.109091 157.745455 
L 147.12879 158.146434 
L 147.187697 158.543551 
L 147.285244 158.932983 
L 147.420493 159.310978 
L 147.59214 159.673896 
L 147.798533 160.018242 
L 148.037685 160.3407 
L 148.30729 160.638164 
L 148.604755 160.90777 
L 148.927213 161.146921 
L 149.271559 161.353314 
L 149.634477 161.524962 
L 150.012472 161.66021 
L 150.401903 161.757758 
L 150.799021 161.816665 
L 151.2 161.836364 
L 151.600979 161.816665 
L 151.998097 161.757758 
L 152.387528 161.66021 
L 152.765523 161.524962 
L 153.128441 161.353314 
L 153.472787 161.146921 
L 153.795245 160.90777 
L 154.09271 160.638164 
L 154.362315 160.3407 
L 154.601467 160.018242 
L 154.80786 159.673896 
L 154.979507 159.310978 
L 155.114756 158.932983 
L 155.212303 158.543551 
L 155.27121 158.146434 
L 155.290909 157.745455 
L 151.2 157.745455 
z
" clip-path="url(#pc7bd8116b5)"/>
   </g>
   <g id="patch_13">
    <path d="M 155.290909 157.745455 
L 155.27121 157.344475 
L 155.212303 156.947358 
L 155.114756 156.557926 
L 154.979507 156.179931 
L 154.80786 155.817013 
L 154.601467 155.472667 
L 154.362315 155.150209 
L 154.09271 154.852745 
L 153.795245 154.583139 
L 153.472787 154.343988 
L 153.128441 154.137595 
L 152.765523 153.965947 
L 152.387528 153.830699 
L 151.998097 153.733151 
L 151.600979 153.674244 
L 151.2 153.654545 
L 150.799021 153.674244 
L 150.401903 153.733151 
L 150.012472 153.830699 
L 149.634477 153.965947 
L 149.271559 154.137595 
L 148.927213 154.343988 
L 148.604755 154.583139 
L 148.30729 154.852745 
L 148.037685 155.150209 
L 147.798533 155.472667 
L 147.59214 155.817013 
L 147.420493 156.179931 
L 147.285244 156.557926 
L 147.187697 156.947358 
L 147.12879 157.344475 
L 147.109091 157.745455 
L 151.2 157.745455 
z
" clip-path="url(#pc7bd8116b5)"/>
   </g>
   <g id="patch_14">
    <path d="M 81.654545 157.745455 
L 81.674244 158.146434 
L 81.733151 158.543551 
L 81.830699 158.932983 
L 81.965947 159.310978 
L 82.137595 159.673896 
L 82.343988 160.018242 
L 82.583139 160.3407 
L 82.852745 160.638164 
L 83.150209 160.90777 
L 83.472667 161.146921 
L 83.817013 161.353314 
L 84.179931 161.524962 
L 84.557926 161.66021 
L 84.947358 161.757758 
L 85.344475 161.816665 
L 85.745455 161.836364 
L 86.146434 161.816665 
L 86.543551 161.757758 
L 86.932983 161.66021 
L 87.310978 161.524962 
L 87.673896 161.353314 
L 88.018242 161.146921 
L 88.3407 160.90777 
L 88.638164 160.638164 
L 88.90777 160.3407 
L 89.146921 160.018242 
L 89.353314 159.673896 
L 89.524962 159.310978 
L 89.66021 158.932983 
L 89.757758 158.543551 
L 89.816665 158.146434 
L 89.836364 157.745455 
L 85.745455 157.745455 
z
" clip-path="url(#pc7bd8116b5)"/>
   </g>
   <g id="patch_15">
    <path d="M 89.836364 157.745455 
L 89.816665 157.344475 
L 89.757758 156.947358 
L 89.66021 156.557926 
L 89.524962 156.179931 
L 89.353314 155.817013 
L 89.146921 155.472667 
L 88.90777 155.150209 
L 88.638164 154.852745 
L 88.3407 154.583139 
L 88.018242 154.343988 
L 87.673896 154.137595 
L 87.310978 153.965947 
L 86.932983 153.830699 
L 86.543551 153.733151 
L 86.146434 153.674244 
L 85.745455 153.654545 
L 85.344475 153.674244 
L 84.947358 153.733151 
L 84.557926 153.830699 
L 84.179931 153.965947 
L 83.817013 154.137595 
L 83.472667 154.343988 
L 83.150209 154.583139 
L 82.852745 154.852745 
L 82.583139 155.150209 
L 82.343988 155.472667 
L 82.137595 155.817013 
L 81.965947 156.179931 
L 81.830699 156.557926 
L 81.733151 156.947358 
L 81.674244 157.344475 
L 81.654545 157.745455 
L 85.745455 157.745455 
z
" clip-path="url(#pc7bd8116b5)"/>
   </g>
   <g id="line2d_1">
    <path d="M 20.290909 223.2 
L 282.109091 223.2 
" clip-path="url(#pc7bd8116b5)" style="fill: none; stroke: #000000; stroke-width: 0.72; stroke-linecap: square"/>
   </g>
   <g id="line2d_2">
    <path d="M 20.290909 125.018182 
L 282.109091 125.018182 
" clip-path="url(#pc7bd8116b5)" style="fill: none; stroke: #000000; stroke-width: 0.72; stroke-linecap: square"/>
   </g>
   <g id="line2d_3">
    <path d="M 20.290909 419.563636 
L 282.109091 419.563636 
" clip-path="url(#pc7bd8116b5)" style="fill: none; stroke: #000000; stroke-width: 0.72; stroke-linecap: square"/>
   </g>
   <g id="line2d_4">
    <path d="M 282.109091 419.563636 
L 282.109091 92.290909 
" clip-path="url(#pc7bd8116b5)" style="fill: none; stroke: #000000; stroke-width: 0.72; stroke-linecap: square"/>
   </g>
   <g id="line2d_5">
    <path d="M 249.381818 26.836364 
L 53.018182 26.836364 
" clip-path="url(#pc7bd8116b5)" style="fill: none; stroke: #000000; stroke-width: 0.72; stroke-linecap: square"/>
   </g>
   <g id="line2d_6">
    <path d="M 20.290909 92.290909 
L 20.290909 419.563636 
" clip-path="url(#pc7bd8116b5)" style="fill: none; stroke: #000000; stroke-width: 0.72; stroke-linecap: square"/>
   </g>
   <g id="line2d_7">
    <path d="M 20.290909 92.290909 
L 53.018182 26.836364 
" clip-path="url(#pc7bd8116b5)" style="fill: none; stroke: #000000; stroke-width: 0.72; stroke-linecap: square"/>
   </g>
   <g id="line2d_8">
    <path d="M 282.109091 92.290909 
L 249.381818 26.836364 
" clip-path="url(#pc7bd8116b5)" style="fill: none; stroke: #000000; stroke-width: 0.72; stroke-linecap: square"/>
   </g>
  </g>
 </g>
 <defs>
  <clipPath id="pc7bd8116b5">
   <rect x="7.2" y="7.2" width="288" height="432"/>
  </clipPath>
 </defs>
</svg>
