<?xml version="1.0" encoding="utf-8" standalone="no"?>
<!DOCTYPE svg PUBLIC "-//W3C//DTD SVG 1.1//EN"
  "http://www.w3.org/Graphics/SVG/1.1/DTD/svg11.dtd">
<svg xmlns:xlink="http://www.w3.org/1999/xlink" width="1166.4pt" height="244.8pt" viewBox="0 0 1166.4 244.8" xmlns="http://www.w3.org/2000/svg" version="1.1">
 <metadata>
  <rdf:RDF xmlns:dc="http://purl.org/dc/elements/1.1/" xmlns:cc="http://creativecommons.org/ns#" xmlns:rdf="http://www.w3.org/1999/02/22-rdf-syntax-ns#">
   <cc:Work>
    <dc:type rdf:resource="http://purl.org/dc/dcmitype/StillImage"/>
    <dc:date>2026-02-17T12:15:03.507749</dc:date>
    <dc:format>image/svg+xml</dc:format>
    <dc:creator>
     <cc:Agent>
      <dc:title>Matplotlib v3.10.8, https://matplotlib.org/</dc:title>
     </cc:Agent>
    </dc:creator>
   </cc:Work>
  </rdf:RDF>
 </metadata>
 <defs>
  <style type="text/css">*{stroke-linejoin: round; stroke-linecap: butt}</style>
 </defs>
 <g id="figure_1">
  <g id="patch_1">
   <path d="M 0 244.8 
L 1166.4 244.8 
L 1166.4 -0 
L 0 -0 
L 0 244.8 
z
" style="fill: none"/>
  </g>
  <g id="axes_1">
   <g id="line2d_1">
    <path d="M 164.290909 227.127273 
L 1002.109091 227.127273 
" clip-path="url(#pef2c39e088)" style="fill: none; stroke: #000000; stroke-width: 0.72; stroke-linecap: square"/>
   </g>
   <g id="line2d_2">
    <path d="M 164.290909 17.672727 
L 1002.109091 17.672727 
" clip-path="url(#pef2c39e088)" style="fill: none; stroke: #000000; stroke-width: 0.72; stroke-linecap: square"/>
   </g>
   <g id="patch_2">
    <path d="M 1106.836364 122.4 
C 1106.836364 180.239276 1059.948367 227.127273 1002.109091 227.127273 
C 944.269815 227.127273 897.381818 180.239276 897.381818 122.4 
C 897.381818 64.560724 944.269815 17.672727 1002.109091 17.672727 
C 1059.948367 17.672727 1106.836364 64.560724 1106.836364 122.4 
" clip-path="url(#pef2c39e088)" style="fill: none; stroke: #000000; stroke-width: 0.72; stroke-linejoin: miter"/>
   </g>
   <g id="patch_3">
    <path d="M 269.018182 122.4 
C 269.018182 180.239276 222.130185 227.127273 164.290909 227.127273 
C 106.451633 227.127273 59.563636 180.239276 59.563636 122.4 
C 59.563636 64.560724 106.451633 17.672727 164.290909 17.672727 
C 222.130185 17.672727 269.018182 64.560724 269.018182 122.4 
" clip-path="url(#pef2c39e088)" style="fill: none; stroke: #000000; stroke-width: 0.72; stroke-linejoin: miter"/>
   </g>
  </g>
 </g>
 <defs>
  <clipPath id="pef2c39e088">
   <rect x="7.2" y="7.2" width="1152" height="230.4"/>
  </clipPath>
 </defs>
</svg>
