<?xml version="1.0" encoding="UTF-8"?>
<!-- Created with Inkscape (http://www.inkscape.org/) -->
<svg width="39.688mm" height="21.167mm" version="1.1" viewBox="0 0 39.688 21.167" xml:space="preserve" xmlns="http://www.w3.org/2000/svg" xmlns:xlink="http://www.w3.org/1999/xlink"><defs/><g transform="translate(-79.375 -66.41)" fill="none" stroke="#000"><g><path transform="translate(68.254 66.12)" d="m15.86 10.869h5.2275" stroke-width=".15"/><path transform="translate(93.236 66.123)" d="m15.86 10.869h5.2275" stroke-width=".15"/><path transform="matrix(1 0 0 -1 68.205 87.843)" d="m31.031 18.32c2.4898-2.5261 4.9795-5.0523 7.4693-7.5784" stroke-width=".3"/><path transform="translate(68.264 66.133)" d="m31.031 18.32c2.4898-2.5261 4.9795-5.0523 7.4693-7.5784" stroke-width=".3"/></g><circle transform="matrix(.30014 0 0 .30014 91.737 69.49)" cx="25" cy="25" r="25" pointer-events="all" stroke-width=".99954"/><path d="m92.842 80.889c0.14879-0.10926 0.29757-0.21853 0.45217-0.31966 0.1546-0.10113 0.31501-0.19412 0.49285-0.29757 0.17785-0.10345 0.37312-0.21736 0.55678-0.31733 0.18366-0.09997 0.35569-0.18598 0.52424-0.25689 0.16855-0.07091 0.3336-0.1267 0.53237-0.18714 0.19877-0.06044 0.43124-0.12554 0.64048-0.17901 0.20923-0.05347 0.39521-0.09532 0.60677-0.13019 0.21156-0.03487 0.44868-0.06277 0.67302-0.08137 0.22434-0.0186 0.43589-0.0279 0.65094-0.02906 0.21504-0.0012 0.43357 0.0058 0.67302 0.02557 0.23945 0.01976 0.49982 0.05231 0.74741 0.09648 0.24759 0.04417 0.48239 0.09996 0.70441 0.16041s0.43124 0.12554 0.64396 0.19528c0.21272 0.06974 0.42892 0.14414 0.61606 0.22783 0.18715 0.08369 0.34523 0.17668 0.49402 0.26502 0.14879 0.08834 0.28827 0.17203 0.42544 0.25921 0.13716 0.08718 0.27199 0.17784 0.38241 0.25223 0.11043 0.07439 0.19645 0.13252 0.28247 0.19064" stroke-width=".3"/><path transform="matrix(1 0 0 -1 -.046604 154.06)" d="m92.842 80.889c0.14879-0.10926 0.29757-0.21853 0.45217-0.31966 0.1546-0.10113 0.31501-0.19412 0.49285-0.29757 0.17785-0.10345 0.37312-0.21736 0.55678-0.31733 0.18366-0.09997 0.35569-0.18598 0.52424-0.25689 0.16855-0.07091 0.3336-0.1267 0.53237-0.18714 0.19877-0.06044 0.43124-0.12554 0.64048-0.17901 0.20923-0.05347 0.39521-0.09532 0.60677-0.13019 0.21156-0.03487 0.44868-0.06277 0.67302-0.08137 0.22434-0.0186 0.43589-0.0279 0.65094-0.02906 0.21504-0.0012 0.43357 0.0058 0.67302 0.02557 0.23945 0.01976 0.49982 0.05231 0.74741 0.09648 0.24759 0.04417 0.48239 0.09996 0.70441 0.16041s0.43124 0.12554 0.64396 0.19528c0.21272 0.06974 0.42892 0.14414 0.61606 0.22783 0.18715 0.08369 0.34523 0.17668 0.49402 0.26502 0.14879 0.08834 0.28827 0.17203 0.42544 0.25921 0.13716 0.08718 0.27199 0.17784 0.38241 0.25223 0.11043 0.07439 0.19645 0.13252 0.28247 0.19064" stroke-width=".3"/></g></svg>
