<?xml version="1.0" encoding="UTF-8"?>
<!-- Created with Inkscape (http://www.inkscape.org/) -->
<svg width="39.688mm" height="21.167mm" version="1.1" viewBox="0 0 39.688 21.167" xml:space="preserve" xmlns="http://www.w3.org/2000/svg" xmlns:xlink="http://www.w3.org/1999/xlink"><defs/><g transform="translate(-79.375 -66.41)" fill="none" stroke="#000"><g><path transform="translate(68.254 66.12)" d="m15.86 10.869h5.2275" stroke-width=".15"/><path transform="translate(93.236 66.123)" d="m15.86 10.869h5.2275" stroke-width=".15"/><path transform="matrix(1 0 0 -1 68.205 87.843)" d="m31.031 18.32c2.4898-2.5261 4.9795-5.0523 7.4693-7.5784" stroke-width=".3"/><path transform="translate(68.264 66.133)" d="m31.031 18.32c2.4898-2.5261 4.9795-5.0523 7.4693-7.5784" stroke-width=".3"/></g><circle transform="matrix(.30014 0 0 .30014 91.737 69.49)" cx="25" cy="25" r="25" pointer-events="all" stroke-width=".99954"/><path transform="matrix(.26458 0 0 .26458 51.823 59.389)" d="m160.27 66.838c0-2.5916 2.2097-4.6948 4.9324-4.6948 2.7227 0 4.9324 2.1033 4.9324 4.6948 0 2.2213 1.894 4.0241 4.2278 4.0241 2.3337 0 4.2278-1.8028 4.2278-4.0241 0-2.5916 2.2097-4.6948 4.9324-4.6948 2.7227 0 4.9324 2.1033 4.9324 4.6948" pointer-events="all" stroke-miterlimit="10" stroke-width="1.1325"/></g></svg>
