<?xml version="1.0" encoding="UTF-8"?>
<!-- Created with Inkscape (http://www.inkscape.org/) -->
<svg width="39.688mm" height="21.167mm" version="1.1" viewBox="0 0 39.688 21.167" xml:space="preserve" xmlns="http://www.w3.org/2000/svg" xmlns:xlink="http://www.w3.org/1999/xlink"><defs/><g transform="translate(-79.375 -66.41)" fill="none" stroke="#000"><g><path transform="translate(68.254 66.12)" d="m15.86 10.869h5.2275" stroke-width=".15"/><path transform="translate(93.236 66.123)" d="m15.86 10.869h5.2275" stroke-width=".15"/><path transform="matrix(1 0 0 -1 68.205 87.843)" d="m31.031 18.32c2.4898-2.5261 4.9795-5.0523 7.4693-7.5784" stroke-width=".3"/><path transform="translate(68.264 66.133)" d="m31.031 18.32c2.4898-2.5261 4.9795-5.0523 7.4693-7.5784" stroke-width=".3"/></g><circle transform="matrix(.30014 0 0 .30014 91.737 69.49)" cx="25" cy="25" r="25" pointer-events="all" stroke-width=".99954"/><path transform="translate(80.17 37.506)" d="m14.081 38.691 0.84951-0.84951 1.699 1.699 1.699-1.699 1.699 1.699 1.699-1.699 0.84951 0.84951m-8.4951 1.699 0.84951-0.84951 1.699 1.699 1.699-1.699 1.699 1.699 1.699-1.699 0.84951 0.84951" pointer-events="all" stroke-miterlimit="10" stroke-width=".3"/></g></svg>
