<?xml version="1.0" encoding="UTF-8"?>
<!-- Created with Inkscape (http://www.inkscape.org/) -->
<svg width="39.688mm" height="21.167mm" version="1.1" viewBox="0 0 39.688 21.167" xml:space="preserve" xmlns="http://www.w3.org/2000/svg" xmlns:xlink="http://www.w3.org/1999/xlink"><defs/><g transform="translate(-79.375 -66.41)" fill="none" stroke="#000"><g><path transform="translate(68.254 66.12)" d="m15.86 10.869h5.2275" stroke-width=".15"/><path transform="translate(93.236 66.123)" d="m15.86 10.869h5.2275" stroke-width=".15"/><path transform="matrix(1 0 0 -1 68.205 87.843)" d="m31.031 18.32c2.4898-2.5261 4.9795-5.0523 7.4693-7.5784" stroke-width=".3"/><path transform="translate(68.264 66.133)" d="m31.031 18.32c2.4898-2.5261 4.9795-5.0523 7.4693-7.5784" stroke-width=".3"/></g><circle transform="matrix(.30014 0 0 .30014 91.737 69.49)" cx="25" cy="25" r="25" pointer-events="all" stroke-width=".99954"/><path d="m99.299 84.509c-0.26959-0.21041-0.53919-0.42083-0.81371-0.67234-0.27453-0.25151-0.55398-0.54412-0.80056-0.84495s-0.46028-0.60987-0.67892-0.96495c-0.21864-0.35508-0.4422-0.75617-0.61974-1.1145-0.17754-0.35836-0.30904-0.67398-0.41096-0.96659-0.10192-0.29261-0.17425-0.5622-0.23836-0.85152-0.06411-0.28932-0.12-0.59836-0.16439-0.90741-0.04438-0.30905-0.07726-0.61809-0.09041-0.92878s-0.0066-0.62302 0.02137-0.93371c0.02795-0.31069 0.07726-0.61973 0.13151-0.92221 0.05425-0.30247 0.11343-0.59836 0.1874-0.88769 0.07397-0.28932 0.16274-0.57206 0.2663-0.84166s0.22192-0.52603 0.3485-0.7759c0.12658-0.24987 0.26137-0.49316 0.40932-0.73809 0.14795-0.24494 0.30904-0.49151 0.47672-0.72823s0.34192-0.46357 0.52768-0.67234c0.18576-0.20877 0.38302-0.39946 0.60166-0.61152 0.21864-0.21206 0.45864-0.44548 0.69864-0.67891" stroke-width=".3"/></g></svg>
