<svg width="90" height="65" viewBox="0 0 23.813 17.198" xml:space="preserve" xmlns:xlink="http://www.w3.org/1999/xlink" xmlns="http://www.w3.org/2000/svg"><g style="display:inline"><path d="m306.714 152.793 9.376-28.478h18.752l9.375 28.478z" fill="none" stroke="#000" stroke-width="1.747" stroke-miterlimit="10" pointer-events="all" style="stroke-width:1.13385828;stroke-dasharray:none" transform="matrix(.26458 0 0 .26458 -74.207 -28.06)"/><g style="display:inline" transform="matrix(.99998 0 0 .99998 14.879 -15.813)"><use xlink:href="#a" x="540.103" y="44.28" transform="translate(-326.723 -97.857) scale(.35278)"/><use xlink:href="#a" x="558.363" y="44.28" transform="translate(-326.723 -97.857) scale(.35278)"/><use xlink:href="#a" x="558.352" y="811.317" transform="translate(-326.723 -97.857) scale(.35278)"/><use xlink:href="#b" x="119.397" y="94.92" transform="translate(-326.723 -97.857) scale(.35278)"/><use xlink:href="#b" x="183.837" y="94.92" transform="translate(-326.723 -97.857) scale(.35278)"/><use xlink:href="#b" x="357.96" y="94.92" transform="translate(-326.723 -97.857) scale(.35278)"/><use xlink:href="#b" x="514.686" y="94.92" transform="translate(-326.723 -97.857) scale(.35278)"/><use xlink:href="#c" x="116.403" y="113.16" transform="translate(-326.723 -97.857) scale(.35278)"/><use xlink:href="#b" x="175.326" y="112.917" transform="translate(-326.723 -97.857) scale(.35278)"/><use xlink:href="#c" x="479.64" y="113.16" transform="translate(-326.723 -97.857) scale(.35278)"/><use xlink:href="#c" x="118.923" y="198.48" transform="translate(-326.723 -97.857) scale(.35278)"/><use xlink:href="#b" x="175.326" y="198.237" transform="translate(-326.723 -97.857) scale(.35278)"/><use xlink:href="#c" x="534.117" y="198.48" transform="translate(-326.723 -97.857) scale(.35278)"/><use xlink:href="#b" x="112.563" y="283.56" transform="translate(-326.723 -97.857) scale(.35278)"/><use xlink:href="#b" x="348.723" y="283.56" transform="translate(-326.723 -97.857) scale(.35278)"/><use xlink:href="#b" x="418.086" y="283.56" transform="translate(-326.723 -97.857) scale(.35278)"/><use xlink:href="#c" x="116.403" y="301.08" transform="translate(-326.723 -97.857) scale(.35278)"/><use xlink:href="#b" x="175.326" y="300.837" transform="translate(-326.723 -97.857) scale(.35278)"/><use xlink:href="#c" x="116.403" y="365.04" transform="translate(-326.723 -97.857) scale(.35278)"/><use xlink:href="#b" x="175.326" y="364.797" transform="translate(-326.723 -97.857) scale(.35278)"/><use xlink:href="#c" x="476.643" y="365.04" transform="translate(-326.723 -97.857) scale(.35278)"/><use xlink:href="#c" x="116.403" y="400.68" transform="translate(-326.723 -97.857) scale(.35278)"/><use xlink:href="#b" x="175.326" y="400.437" transform="translate(-326.723 -97.857) scale(.35278)"/><use xlink:href="#c" x="492.123" y="400.68" transform="translate(-326.723 -97.857) scale(.35278)"/><use xlink:href="#c" x="116.403" y="429.36" transform="translate(-326.723 -97.857) scale(.35278)"/><use xlink:href="#b" x="175.326" y="429.117" transform="translate(-326.723 -97.857) scale(.35278)"/><use xlink:href="#c" x="459.123" y="429.363" transform="translate(-326.723 -97.857) scale(.35278)"/><use xlink:href="#c" x="116.403" y="486.24" transform="translate(-326.723 -97.857) scale(.35278)"/><use xlink:href="#b" x="175.326" y="485.997" transform="translate(-326.723 -97.857) scale(.35278)"/><use xlink:href="#c" x="476.16" y="486.24" transform="translate(-326.723 -97.857) scale(.35278)"/><use xlink:href="#c" x="116.403" y="536.16" transform="translate(-326.723 -97.857) scale(.35278)"/><use xlink:href="#b" x="170.286" y="535.917" transform="translate(-326.723 -97.857) scale(.35278)"/><use xlink:href="#c" x="454.557" y="536.16" transform="translate(-326.723 -97.857) scale(.35278)"/><use xlink:href="#c" x="116.403" y="571.68" transform="translate(-326.723 -97.857) scale(.35278)"/><use xlink:href="#b" x="175.326" y="571.437" transform="translate(-326.723 -97.857) scale(.35278)"/><use xlink:href="#c" x="455.637" y="571.68" transform="translate(-326.723 -97.857) scale(.35278)"/><use xlink:href="#c" x="116.403" y="607.56" transform="translate(-326.723 -97.857) scale(.35278)"/><use xlink:href="#b" x="175.326" y="607.317" transform="translate(-326.723 -97.857) scale(.35278)"/><use xlink:href="#c" x="439.077" y="607.56" transform="translate(-326.723 -97.857) scale(.35278)"/><use xlink:href="#c" x="116.403" y="657.36" transform="translate(-326.723 -97.857) scale(.35278)"/><use xlink:href="#b" x="175.326" y="657.117" transform="translate(-326.723 -97.857) scale(.35278)"/><use xlink:href="#c" x="451.083" y="657.36" transform="translate(-326.723 -97.857) scale(.35278)"/><use xlink:href="#b" x="163.806" y="692.757" transform="translate(-326.723 -97.857) scale(.35278)"/><use xlink:href="#c" x="118.923" y="721.44" transform="translate(-326.723 -97.857) scale(.35278)"/><use xlink:href="#b" x="175.326" y="721.197" transform="translate(-326.723 -97.857) scale(.35278)"/><use xlink:href="#c" x="402.12" y="741.72" transform="translate(-326.723 -97.857) scale(.35278)"/><use xlink:href="#c" x="451.083" y="721.44" transform="translate(-326.723 -97.857) scale(.35278)"/><use xlink:href="#d" x="430.616" y="32.037" transform="translate(-326.723 -97.857) scale(.35278)"/><use xlink:href="#d" x="558.304" y="32.037" transform="translate(-326.723 -97.857) scale(.35278)"/></g></g></svg>