<?xml version="1.0" encoding="UTF-8"?>
<!-- Created with Inkscape (http://www.inkscape.org/) -->
<svg width="44.979mm" height="26.458mm" version="1.1" viewBox="0 0 44.979 26.458" xml:space="preserve" xmlns="http://www.w3.org/2000/svg" xmlns:xlink="http://www.w3.org/1999/xlink"><defs/><g transform="translate(-8.4654 -.19782)"><path transform="translate(.015464)" d="m30.924 3.3242v5.2379" fill="none" stroke="#000" stroke-width=".15"/><g transform="matrix(.26458 0 0 .26458 25.195 8.6023)"><path d="m2.406 8.8464h38.73m-19.367 0v47.572m3.8741-28.242c9.7438 0.79899 16.385 5.7369 14.226 10.877-0.99776 3.9794-8.1578 7.0116-18.1 7.0116-9.9386 0-17.177-3.0323-18.175-7.0116-2.1589-5.8017 4.3122-10.21 14.056-11.009" fill="none" pointer-events="all" stroke="#000" stroke-miterlimit="10" stroke-width="1.1339"/></g><path transform="translate(-.046393 -.0038661)" d="m28.346 17.258c0.49486-0.3995 0.98972-0.79899 1.4846-1.1985" fill="none" stroke="#000" stroke-width=".3"/><path transform="matrix(1 0 0 -1 -.039773 31.771)" d="m28.346 17.258c0.48197-0.49228 0.96395-0.98457 1.4459-1.4768" fill="none" stroke="#000" stroke-width=".3"/></g></svg>
