<?xml version="1.0" encoding="UTF-8" standalone="no"?>
<!-- Created with Inkscape (http://www.inkscape.org/) -->
<svg
   xmlns:dc="http://purl.org/dc/elements/1.1/"
   xmlns:cc="http://web.resource.org/cc/"
   xmlns:rdf="http://www.w3.org/1999/02/22-rdf-syntax-ns#"
   xmlns:svg="http://www.w3.org/2000/svg"
   xmlns="http://www.w3.org/2000/svg"
   xmlns:sodipodi="http://sodipodi.sourceforge.net/DTD/sodipodi-0.dtd"
   xmlns:inkscape="http://www.inkscape.org/namespaces/inkscape"
   width="70.866142"
   height="70.866142"
   id="svg2186"
   sodipodi:version="0.32"
   inkscape:version="0.46dev+devel"
   version="1.0"
   sodipodi:docname="Furnace.svg"
   inkscape:output_extension="org.inkscape.output.svg.inkscape">
  <defs
     id="defs2188" />
  <sodipodi:namedview
     id="base"
     pagecolor="#ffffff"
     bordercolor="#666666"
     borderopacity="1.0"
     gridtolerance="10"
     guidetolerance="10"
     objecttolerance="10"
     inkscape:pageopacity="0.0"
     inkscape:pageshadow="2"
     inkscape:zoom="11.2"
     inkscape:cx="26.754836"
     inkscape:cy="36.127697"
     inkscape:document-units="mm"
     inkscape:current-layer="layer1"
     width="20mm"
     height="20mm"
     units="mm"
     inkscape:window-width="1680"
     inkscape:window-height="1024"
     inkscape:window-x="0"
     inkscape:window-y="0">
    <inkscape:grid
       type="xygrid"
       id="grid2200"
       spacingx="0.5mm"
       spacingy="0.5mm"
       units="mm" />
  </sodipodi:namedview>
  <metadata
     id="metadata2191">
    <rdf:RDF>
      <cc:Work
         rdf:about="">
        <dc:format>image/svg+xml</dc:format>
        <dc:type
           rdf:resource="http://purl.org/dc/dcmitype/StillImage" />
      </cc:Work>
    </rdf:RDF>
  </metadata>
  <g
     inkscape:label="Layer 1"
     inkscape:groupmode="layer"
     id="layer1">
    <g
       id="g2769">
      <path
         id="path2272"
         d="M 17.185039,18.248032 C 52.61811,18.248032 52.61811,18.248032 52.61811,18.248032 C 52.61811,44.822835 52.61811,44.822835 52.61811,44.822835 C 43.759843,53.681103 43.759843,53.681103 43.759843,53.681103 C 26.043307,53.681103 26.043307,53.681103 26.043307,53.681103 C 17.185039,44.822835 17.185039,44.822835 17.185039,44.822835 C 17.185039,18.248032 17.147075,18.361924 17.185039,18.248032 z"
         style="color:#000000;fill:#ffffff;fill-opacity:1;fill-rule:nonzero;stroke:#000000;stroke-width:1.0629921;stroke-linecap:butt;stroke-linejoin:miter;marker:none;marker-start:none;marker-mid:none;marker-end:none;stroke-miterlimit:4;stroke-dasharray:none;stroke-dashoffset:0;stroke-opacity:1;visibility:visible;display:inline;overflow:visible;enable-background:accumulate" />
      <path
         id="path2276"
         d="M 22.5,18.248032 C 22.5,43.051182 22.5,43.051182 22.5,43.051182 C 27.814961,48.366142 27.814961,48.366142 27.814961,48.366142 C 41.988189,48.366142 41.988189,48.366142 41.988189,48.366142 C 47.30315,43.051182 47.30315,43.051182 47.30315,43.051182 C 47.30315,18.248032 47.30315,18.248032 47.30315,18.248032"
         style="color:#000000;fill:none;fill-opacity:1;fill-rule:nonzero;stroke:#000000;stroke-width:1.0629921;stroke-linecap:butt;stroke-linejoin:miter;marker:none;marker-start:none;marker-mid:none;marker-end:none;stroke-miterlimit:4;stroke-dasharray:none;stroke-dashoffset:0;stroke-opacity:1;visibility:visible;display:inline;overflow:visible;enable-background:accumulate" />
      <path
         id="path3238"
         d="M 22.491095,48.34078 L 18.183407,44.032407 L 18.183407,31.108638 L 18.183407,18.184874 L 20.370907,18.184874 L 22.558407,18.184874 L 22.558407,30.482373 L 22.558407,42.779873 L 25.305541,45.527016 L 28.052693,48.27416 L 35.417693,48.27416 L 42.782675,48.27416 L 45.572336,45.483458 L 48.361979,42.692756 L 48.361979,30.438815 L 48.361979,18.184874 L 50.504836,18.184874 L 52.647693,18.184874 L 52.647693,31.15328 L 52.647693,44.121682 L 48.384648,48.385423 L 44.121604,52.64916 L 35.460193,52.64916 L 26.798791,52.64916 L 22.491095,48.34078 z"
         style="fill:none;fill-opacity:1;stroke:none;stroke-width:0.07909168;stroke-miterlimit:4;stroke-dasharray:none;stroke-dashoffset:0;stroke-opacity:1" />
    </g>
  </g>
</svg>
