<?xml version="1.0" encoding="UTF-8" standalone="no"?>
<!-- Created with Inkscape (http://www.inkscape.org/) -->

<svg
   xmlns:dc="http://purl.org/dc/elements/1.1/"
   xmlns:cc="http://creativecommons.org/ns#"
   xmlns:rdf="http://www.w3.org/1999/02/22-rdf-syntax-ns#"
   xmlns:svg="http://www.w3.org/2000/svg"
   xmlns="http://www.w3.org/2000/svg"
   version="1.1"
   width="71"
   height="71"
   id="svg2">
  <defs
     id="defs4">
    <marker
       refX="0"
       refY="0"
       orient="auto"
       id="TriangleOutM"
       style="overflow:visible">
      <path
         d="m 5.77,0 -8.65,5 0,-10 8.65,5 z"
         transform="scale(0.4,0.4)"
         id="path3977"
         style="fill-rule:evenodd;stroke:#000000;stroke-width:1pt" />
    </marker>
    <marker
       refX="0"
       refY="0"
       orient="auto"
       id="TriangleOutL"
       style="overflow:visible">
      <path
         d="m 5.77,0 -8.65,5 0,-10 8.65,5 z"
         transform="scale(0.8,0.8)"
         id="path3974"
         style="fill-rule:evenodd;stroke:#000000;stroke-width:1pt" />
    </marker>
    <marker
       refX="0"
       refY="0"
       orient="auto"
       id="Arrow1Lend"
       style="overflow:visible">
      <path
         d="M 0,0 5,-5 -12.5,0 5,5 0,0 z"
         transform="matrix(-0.8,0,0,-0.8,-10,0)"
         id="path3835"
         style="fill-rule:evenodd;stroke:#000000;stroke-width:1pt" />
    </marker>
    <marker
       refX="0"
       refY="0"
       orient="auto"
       id="Arrow2Lend"
       style="overflow:visible">
      <path
         d="M 8.7185878,4.0337352 -2.2072895,0.01601326 8.7185884,-4.0017078 c -1.7454984,2.3720609 -1.7354408,5.6174519 -6e-7,8.035443 z"
         transform="matrix(-1.1,0,0,-1.1,-1.1,0)"
         id="path3853"
         style="fill-rule:evenodd;stroke-width:0.625;stroke-linejoin:round" />
    </marker>
    <marker
       refX="0"
       refY="0"
       orient="auto"
       id="TriangleOutL-1"
       style="overflow:visible">
      <path
         d="m 5.77,0 -8.65,5 0,-10 8.65,5 z"
         transform="scale(0.8,0.8)"
         id="path3974-7"
         style="fill-rule:evenodd;stroke:#000000;stroke-width:1pt" />
    </marker>
    <marker
       refX="0"
       refY="0"
       orient="auto"
       id="TriangleOutL-4"
       style="overflow:visible">
      <path
         d="m 5.77,0 -8.65,5 0,-10 8.65,5 z"
         transform="scale(0.8,0.8)"
         id="path3974-9"
         style="fill-rule:evenodd;stroke:#000000;stroke-width:1pt" />
    </marker>
    <marker
       refX="0"
       refY="0"
       orient="auto"
       id="TriangleOutL-5"
       style="overflow:visible">
      <path
         d="m 5.77,0 -8.65,5 0,-10 8.65,5 z"
         transform="scale(0.8,0.8)"
         id="path3974-3"
         style="fill-rule:evenodd;stroke:#000000;stroke-width:1pt" />
    </marker>
  </defs>
  <metadata
     id="metadata7">
    <rdf:RDF>
      <cc:Work
         rdf:about="">
        <dc:format>image/svg+xml</dc:format>
        <dc:type
           rdf:resource="http://purl.org/dc/dcmitype/StillImage" />
        <dc:title></dc:title>
      </cc:Work>
    </rdf:RDF>
  </metadata>
  <g
     transform="translate(-285.88438,-568.80842)"
     id="layer1">
    <path
       d="m 307.29094,580.15338 c -0.14032,0.0817 -0.14827,0.8775 -0.14827,14.85484 l 0,14.76851 6.7331,6.71822 c 7.475,7.4583 8.10565,8.07502 8.25786,8.07502 0.0589,0 3.42016,-3.30748 7.47491,-7.35539 l 7.36778,-7.35546 0,-14.79734 c 0,-11.3978 -0.0226,-14.82001 -0.0989,-14.89625 -0.12971,-0.1297 -29.36393,-0.14177 -29.58647,-0.0121 z m 28.94367,15.01553 0,14.36055 -7.08758,7.08348 -7.08758,7.08338 -7.08758,-7.08338 -7.08749,-7.08348 0,-28.72104 28.35023,0 0,14.36049"
       id="path66"
       style="fill:#000000;fill-opacity:1;fill-rule:nonzero;stroke:none" />
    <path
       d="m 307.93721,609.41501 0.025,-28.69479 28.25893,0.0893 0.15625,28.70536 -14.1741,14.10714 z"
       id="path6195"
       style="fill:#ffffff;fill-opacity:1;stroke:none" />
    <g
       transform="translate(0.05665726,1.5566499)"
       id="g6242">
      <path
         d="m 312.52723,582.80842 c 8,0 8,0 8,0"
         id="path3469-1-2-7-4-5-4"
         style="fill:none;stroke:#000000;stroke-width:0.37876564;stroke-linecap:butt;stroke-linejoin:miter;stroke-miterlimit:4;stroke-opacity:1;stroke-dasharray:none;marker-end:none" />
      <path
         d="m 327.52723,581.60008 0,2.49852 4.69366,-1.21356 z"
         id="path4517-6"
         style="fill:#000000;fill-opacity:1;stroke:#000000;stroke-width:0.06225296px;stroke-linecap:butt;stroke-linejoin:miter;stroke-opacity:1" />
      <path
         d="m 324.72149,584.28962 -1.17848,2.20313 4.71114,1.14381 z"
         id="path4517-6-9"
         style="fill:#000000;fill-opacity:1;stroke:#000000;stroke-width:0.06225296px;stroke-linecap:butt;stroke-linejoin:miter;stroke-opacity:1" />
      <path
         d="m 320.39913,582.80804 c 8,0 8,0 8,0"
         id="path3469-1-2-7-4-5-4-8"
         style="fill:none;stroke:#000000;stroke-width:0.37876564;stroke-linecap:butt;stroke-linejoin:miter;stroke-miterlimit:4;stroke-opacity:1;stroke-dasharray:none;marker-end:none" />
      <path
         d="m 320.06257,582.84003 c 6.8116,4.19548 6.8116,4.19548 6.8116,4.19548"
         id="path3469-1-2-7-4-5-4-8-3"
         style="fill:none;stroke:#000000;stroke-width:0.37876564;stroke-linecap:butt;stroke-linejoin:miter;stroke-miterlimit:4;stroke-opacity:1;stroke-dasharray:none;marker-end:none" />
    </g>
  </g>
</svg>
