<?xml version="1.0" encoding="UTF-8" standalone="no"?>
<!-- Created with Inkscape (http://www.inkscape.org/) -->

<svg
   xmlns:dc="http://purl.org/dc/elements/1.1/"
   xmlns:cc="http://creativecommons.org/ns#"
   xmlns:rdf="http://www.w3.org/1999/02/22-rdf-syntax-ns#"
   xmlns:svg="http://www.w3.org/2000/svg"
   xmlns="http://www.w3.org/2000/svg"
   xmlns:sodipodi="http://sodipodi.sourceforge.net/DTD/sodipodi-0.dtd"
   xmlns:inkscape="http://www.inkscape.org/namespaces/inkscape"
   width="70.866142"
   height="70.866142"
   id="svg2"
   sodipodi:version="0.32"
   inkscape:version="0.48.4 r9939"
   version="1.0"
   sodipodi:docname="Plate_heat_exchanger.svg"
   inkscape:output_extension="org.inkscape.output.svg.inkscape">
  <defs
     id="defs4">
    <clipPath
       id="clip60">
      <path
         inkscape:connector-curvature="0"
         d="m 130,570.96094 27,0 0,5.03906 -27,0 z"
         id="path522" />
    </clipPath>
    <clipPath
       id="clip59">
      <path
         inkscape:connector-curvature="0"
         d="m 130,570.96094 27,0 0,29.03906 -27,0 z"
         id="path519" />
    </clipPath>
    <clipPath
       id="clip58">
      <path
         inkscape:connector-curvature="0"
         d="m 130,570.96094 27,0 0,28.03906 -27,0 z"
         id="path516" />
    </clipPath>
    <clipPath
       id="clip55">
      <path
         inkscape:connector-curvature="0"
         d="m 130,563 27,0 0,7.96094 -27,0 z"
         id="path507" />
    </clipPath>
    <clipPath
       id="clip54">
      <path
         inkscape:connector-curvature="0"
         d="m 130,551 27,0 0,19.96094 -27,0 z"
         id="path504" />
    </clipPath>
  </defs>
  <sodipodi:namedview
     id="base"
     pagecolor="#ffffff"
     bordercolor="#666666"
     borderopacity="1.0"
     gridtolerance="10000"
     guidetolerance="10"
     objecttolerance="10"
     inkscape:pageopacity="0.0"
     inkscape:pageshadow="2"
     inkscape:zoom="5.6"
     inkscape:cx="79.328743"
     inkscape:cy="34.081682"
     inkscape:document-units="mm"
     inkscape:current-layer="layer1"
     width="20mm"
     height="20mm"
     units="mm"
     inkscape:window-width="1680"
     inkscape:window-height="1024"
     inkscape:window-x="0"
     inkscape:window-y="0"
     showgrid="false"
     inkscape:window-maximized="0">
    <inkscape:grid
       type="xygrid"
       id="grid2176"
       spacingx="0.5mm"
       spacingy="0.5mm"
       units="mm" />
  </sodipodi:namedview>
  <metadata
     id="metadata7">
    <rdf:RDF>
      <cc:Work
         rdf:about="">
        <dc:format>image/svg+xml</dc:format>
        <dc:type
           rdf:resource="http://purl.org/dc/dcmitype/StillImage" />
        <dc:title></dc:title>
      </cc:Work>
    </rdf:RDF>
  </metadata>
  <g
     inkscape:label="Layer 1"
     inkscape:groupmode="layer"
     id="layer1">
    <g
       transform="matrix(1.1227019,0,0,1.1227019,-125.68323,-610.23474)"
       clip-path="url(#clip54)"
       clip-rule="nonzero"
       id="g1993">
      <path
         inkscape:connector-curvature="0"
         style="fill:#ffffff;fill-opacity:1;fill-rule:evenodd;stroke:none"
         d="m 130.55859,551.57812 0,27.48047 12.96094,19.67969 12.96094,-19.67969 0,-27.48047 -25.92188,0"
         id="path1995" />
      <path
         inkscape:connector-curvature="0"
         style="fill:none;stroke:#000000;stroke-width:0.73100001;stroke-linecap:round;stroke-linejoin:round;stroke-miterlimit:10;stroke-opacity:1"
         d="m -0.00140625,0.001875 0,-27.480469 12.96093725,-19.679687 12.960938,19.679687 0,27.480469 z"
         transform="matrix(1,0,0,-1,130.56,551.58)"
         id="path1997" />
    </g>
    <g
       transform="matrix(1.1227019,0,0,1.1227019,-125.68323,-610.23474)"
       clip-path="url(#clip55)"
       clip-rule="nonzero"
       id="g1999">
      <path
         inkscape:connector-curvature="0"
         style="fill:none;stroke:#000000;stroke-width:0.73100001;stroke-linecap:round;stroke-linejoin:round;stroke-miterlimit:10;stroke-opacity:1;stroke-dasharray:0.73138, 1.4628"
         d="M -0.00140625,0.0015625 25.920469,-11.760156"
         transform="matrix(1,0,0,-1,130.56,563.4)"
         id="path2001" />
    </g>
    <g
       transform="matrix(1.1227019,0,0,1.1227019,-125.68323,-610.23474)"
       clip-path="url(#clip58)"
       clip-rule="nonzero"
       id="g2145">
      <path
         inkscape:connector-curvature="0"
         style="fill:#ffffff;fill-opacity:1;fill-rule:evenodd;stroke:none"
         d="m 130.55859,551.57812 0,27.48047 12.96094,19.67969 12.96094,-19.67969 0,-27.48047 -25.92188,0"
         id="path2147" />
    </g>
    <g
       transform="matrix(1.1227019,0,0,1.1227019,-125.68323,-610.23474)"
       clip-path="url(#clip59)"
       clip-rule="nonzero"
       id="g2149">
      <path
         inkscape:connector-curvature="0"
         style="fill:none;stroke:#000000;stroke-width:0.73100001;stroke-linecap:round;stroke-linejoin:round;stroke-miterlimit:10;stroke-opacity:1"
         d="m -0.00140625,0.001875 0,-27.480469 12.96093725,-19.679687 12.960938,19.679687 0,27.480469 z"
         transform="matrix(1,0,0,-1,130.56,551.58)"
         id="path2151" />
    </g>
    <g
       transform="matrix(1.1227019,0,0,1.1227019,-125.68323,-610.23474)"
       clip-path="url(#clip60)"
       clip-rule="nonzero"
       id="g2153">
      <path
         inkscape:connector-curvature="0"
         style="fill:none;stroke:#000000;stroke-width:0.73100001;stroke-linecap:round;stroke-linejoin:round;stroke-miterlimit:10;stroke-opacity:1;stroke-dasharray:0.73138, 1.4628"
         d="M -0.00140625,0.0015625 25.920469,-11.760156"
         transform="matrix(1,0,0,-1,130.56,563.4)"
         id="path2155" />
    </g>
  </g>
</svg>
