<?xml version="1.0" encoding="UTF-8"?>
<!-- Created with Inkscape (http://www.inkscape.org/) -->
<svg width="30.427mm" height="29.104mm" version="1.1" viewBox="0 0 30.427 29.104" xml:space="preserve" xmlns="http://www.w3.org/2000/svg" xmlns:xlink="http://www.w3.org/1999/xlink"><defs/><g transform="translate(275.39 -139.41)"><g transform="translate(-292.88 111.78)"><g transform="translate(1.7951 26.059)" fill="none" stroke="#000"><g stroke-width=".15"><path transform="translate(0 .019726)" d="m18.286 16.038h5.2275"/><path transform="translate(20.026 .023942)" d="m18.286 16.038h5.2275"/><path transform="rotate(90 30.867 16.09)" d="m18.286 16.038h5.2275"/><path transform="rotate(90 20.874 26.083)" d="m18.286 16.038h5.2275"/></g><circle cx="30.91" cy="16.069" r="4.9745" stroke-linecap="round" stroke-width=".3"/><path transform="matrix(1.0021 0 0 .95719 -.06558 .64677)" d="m29.047 18.76v-5.1979l1.8641 2.4658 1.874-2.377v5.0894" stroke-linecap="round" stroke-width=".30631"/></g></g><path d="m-262.81 157.77c0.24658-0.19726 0.49316-0.39453 0.7003-0.53755 0.20713-0.14302 0.37478-0.23178 0.51123-0.28766 0.13644-0.0559 0.24164-0.0789 0.35836-0.0789s0.24493 0.023 0.35343 0.0559c0.10851 0.0329 0.19727 0.0756 0.29096 0.12657 0.0937 0.051 0.19233 0.11014 0.2877 0.17098 0.0954 0.0608 0.18738 0.12328 0.26794 0.18082 0.0806 0.0575 0.14958 0.11013 0.21863 0.15781 0.0691 0.0477 0.13809 0.0904 0.20385 0.12164 0.0658 0.0312 0.12821 0.051 0.19068 0.0674 0.0625 0.0164 0.12491 0.0296 0.19065 0.0362 0.0657 7e-3 0.13482 7e-3 0.21374-3e-3 0.0789-0.01 0.16767-0.0296 0.25971-0.0608 0.0921-0.0312 0.18741-0.074 0.27288-0.12166 0.0855-0.0477 0.16111-0.10027 0.24002-0.15453 0.0789-0.0542 0.16109-0.11013 0.24824-0.17097 0.0872-0.0608 0.17916-0.12656 0.25643-0.1841 0.0773-0.0575 0.1397-0.10683 0.20219-0.15616" fill="none" stroke="#000" stroke-width=".3"/></g></svg>
