<?xml version="1.0" encoding="UTF-8"?>
<svg xmlns="http://www.w3.org/2000/svg"
     xmlns:xlink="http://www.w3.org/1999/xlink" xmlns:ev="http://www.w3.org/2001/xml-events"
     version="1.1" baseProfile="full"
     width="381" height="381">

    <path
       style="fill:#000000"
       d="M 161,374.99789 C 36.352294,353.97172 -32.627816,220.05399 23.213661,107.5 79.878087,-6.712722 231.65566,-31.678874 322.23507,58.313459 412.92433,148.41494 387.97032,300.19405 272.9603,358.01996 240.39977,374.39107 196.69337,381.01882 161,374.99789 z m 55.99387,-12.62802 c 51.68953,-7.90446 95.87812,-37.74756 123.32525,-83.28867 3.12214,-5.18034 5.55568,-9.53973 5.40788,-9.68754 -0.78234,-0.78233 -270.69176,50.21566 -270.40726,51.09206 0.181092,0.55786 2.995733,3.18163 6.254759,5.83062 37.205251,30.24101 86.903941,43.47259 135.419371,36.05353 z m -8.25875,-80.80175 c 78.22932,-14.53743 142.65642,-26.69207 143.17135,-27.01031 1.16568,-0.72043 5.36654,-13.43074 7.95131,-24.05781 6.42868,-26.43102 5.97143,-57.52096 -1.25011,-85 -3.58136,-13.62763 -3.94191,-14.28315 -8.31247,-15.11312 C 348.20784,129.99049 282.375,117.89435 204,103.50656 64.612272,77.918291 61.501876,77.298158 61.585916,75.112837 61.683272,72.581242 61.404156,72.858008 52.623289,84 4.7725959,144.71747 4.5816224,234.15901 52.170631,296 61.22728,307.76894 62.301298,308.84951 64.5,308.40455 c 1.1,-0.2226 66.00581,-12.299 144.23512,-26.83643 z M 75,195.5 l 0,-6.5 53.5,0 53.5,0 0,6.5 0,6.5 -53.5,0 -53.5,0 0,-6.5 z m 272.98593,-79.25 c -0.008,-0.4125 -1.84767,-4.125 -4.08875,-8.25 C 290.71746,10.115696 161.1654,-13.801695 76.506276,58.635343 c -6.520386,5.579049 -7.626257,6.91938 -6,7.272079 3.457199,0.749792 274.932064,50.838508 276.243724,50.968598 0.6875,0.0682 1.24367,-0.21352 1.23593,-0.62602 z"/>
</svg>
