<?xml version="1.0" encoding="UTF-8"?>
<svg xmlns="http://www.w3.org/2000/svg"
     xmlns:xlink="http://www.w3.org/1999/xlink" xmlns:ev="http://www.w3.org/2001/xml-events"
     version="1.1" baseProfile="full"
     width="591" height="378">

    <path
       style="fill:#000000"
       d="m 175,342 0,-32 -85.5,0 -85.5,0 0,-6.5 0,-6.5 85.490476,0 85.490474,0 2.7e-4,-104 2.7e-4,-104 L 89.490744,89 4,89 4,82.5 4,76 l 85.5,0 85.5,0 0,-36 0,-36 122,0 122,0 0,90.5 0,90.5 84,0 84,0 0,6.5 0,6.5 -84,0 -84,0 0,88 0,88 -122,0 -122,0 0,-32 z M 406,189 406,16 296.5,16 187,16 l 0.0137,78.75 0.0137,78.75 8.74803,-9 c 4.81142,-4.95 24.5375,-25.425 43.83574,-45.5 33.60047,-34.952907 35.33498,-36.586884 40.92155,-38.549821 5.73433,-2.014854 5.86648,-2.147716 7.74679,-7.788638 l 1.91294,-5.738816 4.65378,2.671584 c 2.55959,1.469371 5.00487,2.985337 5.43396,3.368813 0.4291,0.383475 -2.35642,1.927831 -6.19004,3.431902 l -6.97023,2.734674 -2.11469,6.354636 c -2.02256,6.077794 -3.32066,7.610648 -29.79663,35.185156 -15.22508,15.85678 -30.52202,31.81388 -33.9932,35.46023 l -6.31125,6.62971 3.75142,0.70377 c 31.23312,5.85937 30.50626,53.00422 -0.89987,58.36565 l -4.05682,0.69255 24.40057,25.42045 c 48.06035,50.06912 45.25,46.8814 47.28176,53.63075 l 1.82804,6.0726 6.89538,2.39108 c 8.22115,2.8508 8.18726,2.73523 1.83057,6.24158 -6.00377,3.31167 -6.39221,3.15397 -7.92018,-3.21534 -1.18088,-4.92244 -1.21398,-4.95354 -7.72094,-7.25308 -5.3696,-1.8976 -7.5389,-3.39536 -12.16452,-8.3988 -3.09625,-3.34915 -20.49352,-21.57415 -38.6606,-40.5 C 211.30186,237.98479 194.32479,220.25 191.74212,217.5 l -4.69576,-5 -0.0232,74.75 L 187,362 l 109.5,0 109.5,0 0,-173 z" />
</svg>
