<?xml version="1.0" encoding="UTF-8"?>
<svg xmlns="http://www.w3.org/2000/svg"
     xmlns:xlink="http://www.w3.org/1999/xlink" xmlns:ev="http://www.w3.org/2001/xml-events"
     version="1.1" baseProfile="full"
     width="566" height="390">

    <path
       style="fill:#000000"
       d="m 160,293.5 0,-92.5 -78,0 -78,0 0,-6 0,-6 78,0 78,0 0,-92.5 0,-92.5 124,0 124,0 0,37.464816 c 0,36.632972 0.0451,37.488953 2.03116,38.551863 l 2.03117,1.087046 -2.03117,2.852508 C 408.05333,86.733844 408,88.15033 408,137.90437 L 408,189 l 77,0 77,0 0,6 0,6 -77,0 -77,0 0,92.5 0,92.5 -124,0 -124,0 0,-92.5 z m 59,79.63845 c 0,-0.47385 17.15502,-28.93635 38.12228,-63.25 20.96725,-34.31365 38.30751,-62.86527 38.53392,-63.44805 0.27722,-0.71358 -2.45681,-0.93888 -8.37228,-0.68994 -6.50563,0.27378 -10.49898,-0.11994 -15.39632,-1.51796 l -6.61239,-1.88762 -38.38761,61.99667 c -21.11318,34.09817 -39.42561,63.72058 -40.69428,65.82756 L 183.88664,374 l 17.55668,0 C 211.09949,374 219,373.6123 219,373.13845 z M 395,241.33333 c 0,-72.96666 -0.17001,-132.47916 -0.3778,-132.25 -0.49281,0.5435 -65.50346,107.12843 -68.68676,112.6119 -1.33949,2.30738 -22.6304,37.18238 -47.31313,77.5 -24.68273,40.31763 -45.07179,73.64227 -45.30902,74.05477 -0.23723,0.4125 36.04523,0.75 80.62769,0.75 L 395,374 395,241.33333 z M 225.31911,283 l 29.42113,-47.5 -3.45015,-3.84146 c -5.06613,-5.64073 -9.22751,-12.57623 -10.45553,-17.42554 -0.5943,-2.34685 -1.42947,-4.48264 -1.85592,-4.7462 -0.42645,-0.26356 -15.44611,23.53466 -33.37701,52.88494 L 173,315.7359 l 4.3e-4,25.88205 4.4e-4,25.88205 11.44855,-18.5 c 6.29671,-10.175 24.68807,-39.875 40.86969,-66 z M 257.95143,152.55536 C 303.62814,77.867661 341,16.588646 341,16.379772 341,16.170897 303.2,16 257,16 l -84,0 0.0304,137.75 c 0.0186,84.44645 0.3868,137.14077 0.95142,136.17559 0.50656,-0.86593 38.29288,-62.68253 83.9696,-137.37023 z M 363.45201,135.76151 395.03439,84.023025 394.7672,58.867242 394.5,33.711458 355.5677,96.605729 c -21.41276,34.591851 -39.38123,63.638091 -39.92993,64.547211 -0.78918,1.30756 0.011,2.77022 3.82961,7 4.89986,5.4275 10.53039,15.7441 10.53183,19.29706 10e-4,3.09545 0.17977,2.81962 33.4528,-51.68849 z M 347.12127,86.234519 C 370.70457,48.138504 390,16.751004 390,16.484519 390,16.218033 382.40926,16 373.13169,16 l -16.86831,0 -42.13169,68.891023 C 290.95926,122.78109 272,154.02467 272,154.32122 c 0,0.29654 1.45953,0.12058 3.2434,-0.39103 4.62446,-1.32627 16.55111,-1.01218 21.2566,0.55982 2.2,0.73496 4.84207,1.26288 5.87127,1.17315 1.33338,-0.11626 14.1966,-20.07326 44.75,-69.428641 z"/>
</svg>
