<?xml version="1.0" encoding="UTF-8"?>
<svg xmlns="http://www.w3.org/2000/svg"
     xmlns:xlink="http://www.w3.org/1999/xlink" xmlns:ev="http://www.w3.org/2001/xml-events"
     version="1.1" baseProfile="full"
     width="566" height="390">

    <path
       style="fill:#000000"
       d="m 160,293.5 0,-92.5 -78,0 -78,0 0,-6 0,-6 78,0 78,0 0,-92.5 0,-92.5 124,0 124,0 0,37.932612 c 0,37.261839 0.036,37.944025 2.03337,38.577978 l 2.03336,0.645366 -2.03336,3.290056 C 408.05897,87.640651 408,89.204475 408,138.36803 L 408,189 l 77,0 77,0 0,6 0,6 -77,0 -77,0 0,92.5 0,92.5 -124,0 -124,0 0,-92.5 z m 59,79.64327 c 0,-0.69121 59.39897,-98.38363 74.01436,-121.73008 l 3.81047,-6.08681 -5.16241,0.86867 c -21.93981,3.69179 -44.7771,-10.7335 -51.6434,-32.62081 l -1.54527,-4.92576 -33.23688,54.59755 L 172,317.84358 l 0,28.07821 0,28.07821 23.5,0 c 12.925,0 23.5,-0.38553 23.5,-0.85673 z M 395,241.8 c 0,-74.24796 -0.37845,-131.78355 -0.86333,-131.25 -1.13275,1.24648 -62.74323,102.16637 -67.12326,109.95 -1.85698,3.3 -4.36295,7.35 -5.56881,9 -1.55803,2.13187 -83.97094,136.55817 -88.12901,143.75 -0.23849,0.4125 36.04293,0.75 80.62539,0.75 L 395,374 395,241.8 z M 252.72482,161 C 296.7106,88.675 334.56185,26.4625 336.83871,22.75 L 340.97844,16 256.48922,16 172,16 l 0,138.66667 c 0,76.26666 0.1689,138.47916 0.37533,138.25 C 172.58176,292.6875 208.73903,233.325 252.72482,161 z M 363.89558,135.57117 395,84.642331 395,50.321165 395,16 375.25,16.02228 355.5,16.04456 323.79637,68.272281 c -17.437,28.725246 -36.46719,60.045149 -42.28931,69.599789 -6.34815,10.41789 -9.86941,17.06991 -8.79637,16.61724 7.53138,-3.17719 23.99864,-1.20398 34.54272,4.1391 9.43235,4.77973 22.74659,21.60537 22.74659,28.7456 0,3.52443 1.57425,1.11849 33.89558,-51.80284 z"
       id="path3350"/>
</svg>
