<?xml version="1.0" encoding="UTF-8"?>
<svg xmlns="http://www.w3.org/2000/svg"
     xmlns:xlink="http://www.w3.org/1999/xlink" xmlns:ev="http://www.w3.org/2001/xml-events"
     version="1.1" baseProfile="full"
     width="600" height="389">

    <path
       style="fill:#000000"
       d="m 176,295 0,-90 -86,0 -86,0 0,-6.5 0,-6.5 86,0 86,0 0,-94 0,-94 123,0 123,0 0,190.5 0,190.5 -123,0 -123,0 0,-90 z M 409,194.5 409,16 l -110,0 -110,0 0,178.5 0,178.5 110,0 110,0 0,-178.5 z M 242.39344,322.85567 c -2.03063,-0.99604 -1.35829,-2.71524 18.65209,-47.69448 11.41725,-25.66365 20.35271,-46.81119 19.85656,-46.99452 -1.3724,-0.50712 -1.08064,-2.96453 0.66898,-5.6348 1.31398,-2.00538 1.36136,-2.77692 0.28954,-4.71481 -1.76327,-3.18805 -2.44141,-28.94642 -0.91164,-34.62754 2.89912,-10.76652 15.26474,-17.12386 25.05103,-12.87909 1.17894,0.51136 4.59294,-6.35511 15.95013,-32.07991 7.94757,-18.00178 17.32459,-39.105832 20.83783,-46.897881 l 6.38771,-14.167361 2.91217,1.015186 C 353.68953,78.738817 355,79.550641 355,79.984519 c 0,0.433878 -8.78923,20.527361 -19.53162,44.652171 -11.32633,25.43622 -19.33363,44.65196 -19.06034,45.74058 0.25921,1.0325 -0.1817,2.87386 -0.9798,4.0919 -1.27132,1.94029 -1.26385,2.74532 0.0603,6.49846 1.71748,4.86786 2.08175,26.86755 0.55395,33.45498 -2.33282,10.05836 -12.90561,16.33736 -22.14778,13.15317 l -3.61472,-1.24537 -21.57547,48.58479 c -11.86651,26.72164 -22.16701,48.67231 -22.89001,48.77928 -0.723,0.10696 -2.2625,-0.27051 -3.42111,-0.83881 z M 304.83353,219.3545 C 308.87298,216.7405 310,212.18543 310,198.4731 c 0,-13.95285 -0.33294,-14.32056 -4.76296,-5.26022 -10.10969,20.67647 -12.30888,26.81884 -9.95019,27.79112 2.62142,1.08059 6.31365,0.44263 9.54668,-1.6495 z m -4.88665,-31.68322 c 4.88915,-10.88082 4.75713,-11.62708 -2.06202,-11.65597 -8.43271,-0.0357 -10.87462,5.35145 -10.87185,23.98469 l 0.002,12.5 4.2578,-7.5 c 2.34179,-4.125 6.24519,-11.92293 8.67421,-17.32872 z M 424,198.5 l 0,-6.5 86,0 86,0 0,6.5 0,6.5 -86,0 -86,0 0,-6.5 z"/>
</svg>
