<?xml version="1.0" encoding="UTF-8"?>
<svg xmlns="http://www.w3.org/2000/svg"
     xmlns:xlink="http://www.w3.org/1999/xlink" xmlns:ev="http://www.w3.org/2001/xml-events"
     version="1.1" baseProfile="full"
     width="503" height="65">
  <path
     style="fill:#000000"
     d="m 4,56.380623 0,-6.04624 4.429696,-0.94476 c 9.140926,-1.94957 16.889784,-8.52536 21.467028,-18.21721 17.008585,-36.0139699 53.01969,-34.2020699 78.868586,3.96826 14.89228,21.99103 39.65552,19.21461 51.50567,-5.77475 C 175.97752,-3.7556969 236,1.2379031 236,35.666243 c 0,6.38395 13.41018,14.02895 24.5,13.96719 12.65249,-0.0705 19.02989,-4.81415 28.01919,-20.84147 19.15486,-34.1518099 58.6078,-29.3456699 86.01031,10.47775 12.37831,17.9891 36.54418,12.41807 49.00641,-11.2976 C 442.12622,-7.405307 499,1.8177631 499,40.209923 l 0,3.96249 -5.98095,0 c -5.72115,0 -6.00547,-0.11945 -6.54546,-2.75 -2.76349,-13.46207 -9.50179,-20.66086 -21.7119,-23.19567 -11.91191,-2.47291 -24.63421,3.57907 -29.04942,13.81876 -15.0777,34.968 -51.94225,40.45353 -74.22008,11.0441 -21.24638,-28.04779 -53.69454,-33.24684 -61.0245,-9.77773 -0.40549,1.2983 -1.06615,2.58554 -1.46814,2.86054 -0.40198,0.275 -1.65508,2.32351 -2.78465,4.55224 -11.57159,22.83163 -44.02006,28.79037 -63.32004,11.62791 -4.19847,-3.73347 -7.14493,-8.53237 -11.17991,-18.20869 -9.39106,-22.52082 -38.69932,-21.1839 -50.92905,2.32318 -17.55435,33.74168 -58.21251,34.42362 -75.785896,1.27113 -13.22493,-24.94903 -39.9415,-25.7865 -53.203327,-1.66773 -8.041176,14.62417 -20.856434,24.72868 -32.820693,25.87829 L 4,62.426873 4,56.380623 z"/>
</svg>
