<?xml version="1.0" encoding="UTF-8"?>
<svg xmlns="http://www.w3.org/2000/svg"
     xmlns:xlink="http://www.w3.org/1999/xlink" xmlns:ev="http://www.w3.org/2001/xml-events"
     version="1.1" baseProfile="full"
     width="328" height="280">

  <path
     style="fill:#000000"
     d="m 3.1724145,141.44828 0,-135.9999991 159.9999955,0 160,0 0,135.9999991 0,136 -160,0 -159.9999955,0 0,-136 z m 137.9778955,93 c 13.64422,-24.71541 17.18701,-30.43192 18.67986,-30.14102 1.01323,0.19744 3.34491,0.42792 5.1815,0.51218 3.3125,0.15196 3.47279,0.3955 20,30.3882 l 16.66074,30.23501 54.75,0.003 54.75,0.003 0,-124 0,-123.999999 -148,0 -147.999996,0 0,124.008539 0,124.00854 54.57014,-0.25854 54.570146,-0.25854 16.83761,-30.5 z m 43.76928,26.75 c -1.34357,-2.3375 -6.83472,-12.26411 -12.20255,-22.05913 -5.36784,-9.79502 -9.87737,-17.67002 -10.02119,-17.5 -0.80184,0.94794 -23.52344,42.65649 -23.52344,43.18043 0,0.34579 10.84276,0.6287 24.09502,0.6287 l 24.09502,0 -2.44286,-4.25 z"/>
</svg>
