<?xml version="1.0" encoding="UTF-8"?>
<svg xmlns="http://www.w3.org/2000/svg"
     xmlns:xlink="http://www.w3.org/1999/xlink" xmlns:ev="http://www.w3.org/2001/xml-events"
     version="1.1" baseProfile="full"
     width="603" height="382">

    <path
       style="fill:#000000"
       d="m 175,257 0,-121 -85.5,0 -85.5,0 0,-6.5 0,-6.5 85.5,0 85.5,0 0,-59.5 0,-59.5 211.98471,0 211.98471,0 0.26529,124.25 c 0.14591,68.3375 0.1461,152.4875 4.3e-4,187 L 598.97028,378 386.98514,378 175,378 175,257 z m 412,54.89301 c 0,-42.87131 -0.25957,-54.00872 -1.25,-53.63377 -0.6875,0.26027 -81.8,24.40568 -180.25,53.65647 -98.45,29.25078 -179.45,53.35045 -180,53.55482 -0.55,0.20437 80.5625,0.4071 180.25,0.45052 L 587,366 587,311.89301 z M 369.36379,255.2473 188,254.99461 l 0,-6.49731 0,-6.4973 199.5,0 199.5,0 0,-113 0,-113 -200,0 -200,0 0,39 c 0,25.333333 0.35043,39 1,39 0.62069,0 1,5.5 1,14.5 l 0,14.5 22.5,0 22.5,0 0,-14.5 0,-14.5 6.5,0 6.5,0 0,14.5 0,14.5 23.5,0 23.5,0 0,-14.5 0,-14.5 6.5,0 6.5,0 0,14.5 0,14.5 23,0 23,0 0,-14.5 0,-14.5 6.5,0 6.5,0 0,14.5 0,14.5 23,0 23,0 0,-14.5 0,-14.5 6.5,0 6.5,0 0,14.5 0,14.5 23,0 23,0 0,-14.5 0,-14.5 6.5,0 6.5,0 0,19.5 0,19.5 -3,0 c -2,0 -3,0.5 -3,1.5 0,1.32646 -16.83333,1.5 -145.5,1.5 l -145.5,0 0,113.82153 0,113.82153 L 368.86379,309.57153 550.72758,255.5 369.36379,255.2473 z"/>
</svg>
