<?xml version="1.0" encoding="UTF-8"?>
<svg xmlns="http://www.w3.org/2000/svg"
     xmlns:xlink="http://www.w3.org/1999/xlink" xmlns:ev="http://www.w3.org/2001/xml-events"
     version="1.1" baseProfile="full"
     width="906" height="379">

    <path
       style="fill:#000000"
       d="m 121,284 0,-91 -58.5,0 -58.5,0 0,-6.5 0,-6.5 58.5,0 58.5,0 0,-88 0,-88 93,0 93,0 0,88 0,88 55,0 55,0 0,6.5 0,6.5 -55,0 -55,0 0,91 0,91 -93,0 -93,0 0,-91 z m 173,-94.5 0,-173.5 -80.5,0 -80.5,0 0,173.5 0,173.5 80.5,0 80.5,0 0,-173.5 z m -127.80587,145.73186 -4.03673,-4.82142 11.5031,-8.95522 c 6.32671,-4.92537 12.14306,-9.45612 12.92524,-10.06834 1.22733,-0.96065 1.21613,-1.697 -0.0818,-5.37573 -9.16868,-25.98678 22.51369,-50.56693 44.25194,-34.332 3.57328,2.66865 3.68734,2.63917 10.24412,-2.64671 2.475,-1.99528 7.49288,-5.97207 11.15085,-8.83732 l 6.65085,-5.20953 4.06748,4.85816 4.06748,4.85816 -12.47683,9.6911 c -11.75927,9.13376 -12.4332,9.84684 -11.71833,12.39905 4.02617,14.37401 -2.3351,29.6282 -15.2415,36.54875 -6.36656,3.41382 -20.30959,3.1126 -26.85698,-0.58021 l -4.85698,-2.73939 -11.64302,9.14795 c -6.40366,5.03138 -12.15358,9.5386 -12.77759,10.01605 -0.74373,0.56904 -2.52517,-0.79283 -5.1713,-3.95335 z m -0.25769,-199.02816 -3.56355,-4.68093 12.06355,-9.33918 c 6.63496,-5.13656 12.38462,-9.64775 12.77704,-10.02487 0.39241,-0.37712 0.0747,-2.47961 -0.70611,-4.6722 -8.85767,-24.874436 17.70025,-47.520236 41.80991,-35.651089 l 6.66237,3.279875 11.97772,-9.540519 11.97772,-9.540519 3.90364,5.119207 3.90365,5.119207 -9.62119,7.328445 c -16.59734,12.642169 -15.60473,11.573019 -14.27797,15.378975 8.54567,24.514128 -21.4175,48.558848 -42.99383,34.501508 l -3.6506,-2.37844 -12.76498,9.94842 c -7.02074,5.47162 -13.02797,9.92245 -13.3494,9.89073 -0.32142,-0.0317 -2.18801,-2.1641 -4.14797,-4.73862 z M 600,284 l 0,-91 -55.5,0 -55.5,0 0,-6.5 0,-6.5 55.5,0 55.5,0 0,-88 0,-88 92.5,0 92.5,0 0,88 0,88 58.5,0 58.5,0 0,6.5 0,6.5 -58.5,0 -58.5,0 0,91 0,91 -92.5,0 -92.5,0 0,-91 z m 173,-94.5 0,-173.5 -80,0 -80,0 0,173.5 0,173.5 80,0 80,0 0,-173.5 z m -57.47546,118.57143 -11.67801,-13.92857 -4.04899,1.42857 c -20.32856,7.17234 -39.54007,-14.16406 -30.51114,-33.88583 l 2.53862,-5.54509 -11.60513,-13.73657 -11.60513,-13.73658 4.44262,-3.83097 c 2.44344,-2.10704 4.70879,-3.8322 5.03411,-3.83369 0.32532,-0.001 5.68143,6.06906 11.90248,13.49011 l 11.311,13.49281 6.59752,-0.60615 c 20.29814,-1.86489 35.09635,16.81185 27.16361,34.28305 l -1.88998,4.16252 12.04072,14.30878 12.04073,14.30878 -4.37878,3.776 c -2.40834,2.07679 -4.67072,3.77721 -5.02752,3.7787 -0.3568,10e-4 -5.90383,-6.26516 -12.32673,-13.92587 z M 667.46926,157.95026 c -0.36791,-0.5953 -2.37736,-2.31994 -4.46543,-3.83253 l -3.7965,-2.75017 10.9428,-13.14359 10.94279,-13.14359 -1.5463,-2.99022 C 669.12391,101.93485 688.74268,78.103073 709.3151,85.929098 710.8634,86.518094 712.28302,87 712.4698,87 c 0.18677,0 5.98044,-6.737019 12.87481,-14.971153 l 12.53522,-14.971152 4.31008,3.58213 c 2.37055,1.970171 4.42659,3.881679 4.56897,4.247795 0.14239,0.366115 -5.31295,7.363208 -12.12296,15.549094 l -12.38184,14.883429 1.94439,4.395618 c 8.10312,18.318449 -8.51643,38.411859 -28.26747,34.176019 -2.78796,-0.59791 -5.18204,-0.93066 -5.32019,-0.73944 -1.80699,2.50106 -20.86577,24.8872 -21.54603,25.30762 -0.50962,0.31497 -1.2276,0.0856 -1.59552,-0.5097 z"/>
</svg>
