<?xml version="1.0" encoding="UTF-8"?>
<svg xmlns="http://www.w3.org/2000/svg"
     xmlns:xlink="http://www.w3.org/1999/xlink" xmlns:ev="http://www.w3.org/2001/xml-events"
     version="1.1" baseProfile="full"
     width="673" height="382">

    <path
       style="fill:#000000"
       d="m 123,348.5 0,-29.5 -59.5,0 -59.5,0 0,-6.5 0,-6.5 59.5,0 59.5,0 0,-115 L 123,76 63.5,76 4,76 4,69.5 4,63 63.5,63 123,63 123,33.5 123,4 335.5,4 548,4 l 0,187 0,187 -212.5,0 -212.5,0 0,-29.5 z M 535,191 535,16 335.5,16 136,16 l 0,23.5 0,23.5 56.5,0 56.5,0 0,6.5 0,6.5 -56.5,0 -56.5,0 0,115 0,115 56.5,0 56.5,0 0,6.5 0,6.5 -56.5,0 -56.5,0 0,23.5 0,23.5 199.5,0 199.5,0 0,-175 z m 14,-1.5 0,-6.5 60,0 60,0 0,6.5 0,6.5 -60,0 -60,0 0,-6.5 z"/>
</svg>
