<?xml version="1.0" encoding="UTF-8"?>
<svg xmlns="http://www.w3.org/2000/svg"
     xmlns:xlink="http://www.w3.org/1999/xlink" xmlns:ev="http://www.w3.org/2001/xml-events"
     version="1.1" baseProfile="full"
     width="498" height="382">

    <path
       style="fill:#000000"
       d="m 127,191 0,-187 125,0 125,0 0,91 0,91 58.5,0 58.5,0 0,6.5 0,6.5 -58.5,0 -58.5,0 0,89.5 0,89.5 -125,0 -125,0 0,-187 z m 237,7.76335 0,-167.236653 -3.34752,4.986651 C 358.81134,39.256007 310.37534,113.275 253.01693,201 195.65851,288.725 147.85925,361.7375 146.79636,363.25 l -1.93255,2.75 109.5681,0 L 364,366 364,198.76335 z M 249.99168,182.5 C 307.8926,93.95 356.13685,20.2625 357.20113,18.75 L 359.13619,16 249.56809,16 140,16 l 0,167.23213 0,167.23214 2.35864,-3.48214 C 143.65589,345.06696 192.09076,271.05 249.99168,182.5 z M 4,192.5 4,186 l 60,0 60,0 0,6.5 0,6.5 -60,0 -60,0 0,-6.5 z"/>
</svg>
