<?xml version="1.0" encoding="UTF-8"?>
<svg xmlns="http://www.w3.org/2000/svg"
     xmlns:xlink="http://www.w3.org/1999/xlink" xmlns:ev="http://www.w3.org/2001/xml-events"
     version="1.1" baseProfile="full"
     width="637" height="436">

    <path
       style="fill:#000000"
       d="m 160,328.5 0,-103.5 -78,0 -78,0 0,-6.5 0,-6.5 78,0 78,0 0,-104 0,-104 152,0 152,0 0,104 0,104 84.5,0 84.5,0 0,6.5 0,6.5 -84.5,0 -84.5,0 0,103.5 0,103.5 -152,0 -152,0 0,-103.5 z m 122.45,90.65227 c -3.18237,-2.83979 -45.24877,-32.71349 -50.31446,-35.7311 C 228.76099,381.41096 226,379.41257 226,378.98029 c 0,-0.43227 -3.7125,-3.44424 -8.25,-6.69325 -4.5375,-3.24902 -16.4625,-11.84411 -26.5,-19.10022 L 173,339.9939 l 0,40.00305 0,40.00305 55.2,0 c 30.36,0 54.7725,-0.38148 54.25,-0.84773 z M 452,266.10207 452,112.20414 427.44483,94.490576 c -13.50535,-9.742458 -24.72803,-17.540707 -24.9393,-17.329441 -0.21126,0.211266 -14.8463,27.307825 -32.5223,60.214565 l -32.13819,59.83045 2.02863,2.15938 c 16.53954,17.60553 1.47553,48.57923 -23.66118,48.65072 l -5.71249,0.0162 -33.85637,63.0996 c -32.7335,61.00685 -33.79481,63.15743 -32,64.84291 2.5835,2.42615 56.27913,41.05813 57.96924,41.70668 0.7566,0.29034 1.12667,0.93074 0.82237,1.4231 C 303.11145,419.62868 333.8077,420 377.44098,420 L 452,420 452,266.10207 z m -187,40.27787 c 17.875,-33.31704 32.86511,-61.34 33.31137,-62.27324 0.59573,-1.24587 -0.17901,-2.74691 -2.91522,-5.64814 -18.77139,-19.90347 -3.22533,-51.10347 24.51597,-49.20204 l 7.60002,0.52092 31.99393,-59.56791 C 377.10273,97.447175 391.5941,70.159751 391.70912,69.570807 391.82413,68.981863 375.47985,56.6875 355.38849,42.25 L 318.85875,16 245.92937,16 173,16 l 0,154.25508 0,154.25508 29.25,21.19726 c 16.0875,11.65849 29.475,21.20889 29.75,21.2231 0.275,0.0142 15.125,-27.23355 33,-60.55058 z M 452,56 l 0,-40 -55.75,0.05245 c -48.59334,0.04572 -55.49326,0.235843 -53.75,1.481056 1.1,0.785733 25.85,18.726353 55,39.868046 29.15,21.141694 53.3375,38.475218 53.75,38.518944 C 451.6625,95.964224 452,78 452,56 z"/>
</svg>
