<?xml version="1.0" encoding="UTF-8"?>
<svg xmlns="http://www.w3.org/2000/svg"
     xmlns:xlink="http://www.w3.org/1999/xlink" xmlns:ev="http://www.w3.org/2001/xml-events"
     version="1.1" baseProfile="full"
     width="673" height="382">

    <path
       style="fill:#000000"
       d="m 123,290.5 0,-87.5 -59.5,0 -59.5,0 0,-6 0,-6 59.5,0 59.5,0 0,-93.5 0,-93.5 212.5,0 212.5,0 0,187 0,187 -212.5,0 -212.5,0 0,-87.5 z m 412,52.5 0,-23 -199.5,0 -199.5,0 0,23 0,23 199.5,0 199.5,0 0,-23 z M 180,195.5 180,84 l 3.5,0 3.5,0 0,18.87096 0,18.87096 43.25,-8.83829 c 23.7875,-4.86107 44.0375,-8.853 45,-8.87096 1.51401,-0.0283 1.75,0.97869 1.75,7.46733 l 0,7.5 55.5,0 55.5,0 0,3.5 0,3.5 -55.5,0 -55.5,0 0,7.5 c 0,4.125 -0.28531,7.5 -0.63401,7.5 -0.34871,0 -20.07537,-3.825 -43.83702,-8.5 C 208.76731,127.825 188.80262,124 188.16298,124 187.28748,124 187,146.61812 187,215.5 l 0,91.5 174,0 174,0 0,-145.5 0,-145.5 -199.5,0 -199.5,0 0,145.5 0,145.5 22,0 22,0 0,-111.5 z m 369,1.5 0,-6 60,0 60,0 0,6 0,6 -60,0 -60,0 0,-6 z"/>
</svg>
