<?xml version="1.0" encoding="UTF-8"?>
<svg xmlns="http://www.w3.org/2000/svg"
     xmlns:xlink="http://www.w3.org/1999/xlink" xmlns:ev="http://www.w3.org/2001/xml-events"
     version="1.1" baseProfile="full"
     width="498" height="382">

    <path
       style="fill:#000000"
       d="m 127,191 0,-187 125,0 125,0 0,91 0,91 58.5,0 58.5,0 0,6.5 0,6.5 -58.5,0 -58.5,0 0,89.5 0,89.5 -125,0 -125,0 0,-187 z M 355.71648,360.75 C 289.10671,256.20487 253.65852,201.00631 253.14567,201.03066 252.5815,201.05745 146.03452,363.02409 145.16667,365.17417 144.98333,365.62838 193.03466,366 251.9474,366 l 107.11406,0 -3.34498,-5.25 z M 204.02285,252.17425 c 22.81243,-34.82916 41.3937,-63.6545 41.29171,-64.05632 C 245.11973,187.35036 140.28306,22.949727 139.46984,22.136503 139.21143,21.878093 139,95.82379 139,186.46027 l 0,164.79361 11.77285,-17.87694 c 6.47507,-9.83232 30.43757,-46.37353 53.25,-81.20269 z M 363.756,110.94307 363.5,32.043642 l -49,74.656148 c -26.95,41.06088 -50.01505,76.33757 -51.25566,78.39263 l -2.25567,3.73648 51.25567,80.33555 L 363.5,349.5 l 0.256,-79.82875 c 0.14081,-43.90582 0.14081,-115.3335 0,-158.72818 z M 320.21907,75 358.58283,16.5 306.79141,16.241081 c -28.48527,-0.142406 -75.18915,-0.142406 -103.78638,0 L 151.01006,16.5 202.1937,96.71815 253.37733,176.9363 267.61632,155.21815 C 275.44776,143.27317 299.119,107.175 320.21907,75 z M 4,192.5 4,186 l 60,0 60,0 0,6.5 0,6.5 -60,0 -60,0 0,-6.5 z"/>
</svg>
