<?xml version="1.0" encoding="UTF-8"?>
<svg xmlns="http://www.w3.org/2000/svg"
     xmlns:xlink="http://www.w3.org/1999/xlink" xmlns:ev="http://www.w3.org/2001/xml-events"
     version="1.1" baseProfile="full"
     width="841" height="253">

    <path
       style="fill:#000000"
       d="m 179,191 0,-58 -87.5,0 -87.5,0 0,-6.5 0,-6.5 87.5,0 87.5,0 0,-58 0,-58 241.5,0 241.5,0 0,58 0,58 87.5,0 87.5,0 0,6.5 0,6.5 -87.5,0 -87.5,0 0,58 0,58 -241.5,0 -241.5,0 0,-58 z m 418,-7.93924 c 44.78124,-46.78706 51.5,-54.20122 51.5,-56.83037 0,-2.63257 -6.66047,-9.94821 -51.5,-56.565994 L 545.5,16.122009 368.75,16.061005 192,16 l 0,110.5 0,110.5 176.75,-0.0662 176.75,-0.0662 51.5,-53.80675 z m 52,8.71702 c 0,-43.98356 -0.0505,-45.1682 -1.84285,-43.25 -1.95619,2.09352 -70.996,74.32546 -79.5444,83.22222 l -5.04443,5.25 43.21584,0 43.21584,0 0,-45.22222 z M 648.66632,16.332991 c -0.19508,-0.195086 -19.54021,-0.237318 -42.98917,-0.09385 L 563.04267,16.5 605.77134,60.872428 648.5,105.24486 648.76051,60.966275 c 0.14329,-24.353219 0.1009,-44.438197 -0.0942,-44.633284 z"/>
</svg>
