<?xml version="1.0" encoding="UTF-8"?>
<svg xmlns="http://www.w3.org/2000/svg"
     xmlns:xlink="http://www.w3.org/1999/xlink" xmlns:ev="http://www.w3.org/2001/xml-events"
     version="1.1" baseProfile="full"
     width="137" height="382">

    <path
       style="fill:#000000"
       d="M 52.870092,375.46714 C 19.139596,367.28164 -3.0529007,330.25973 5.5099389,296.4601 11.576323,272.51459 32.406211,252.39542 55.75,247.93422 L 62,246.73979 62,125.36989 62,4 l 6.5,0 6.5,0 0,121.32413 0,121.32412 7.638426,1.6576 c 34.991384,7.59342 57.218444,43.8885 48.804604,79.69415 -7.96461,33.89391 -44.228663,55.80159 -78.572938,47.46714 z M 77,363.97628 C 105.41396,359.56725 125.41133,330.75434 119.66711,302.5 108.10478,245.62789 29.348603,245.24282 17.407265,302 9.9592294,337.40051 40.899271,369.57807 77,363.97628 z"/>
</svg>
