<?xml version="1.0" encoding="UTF-8"?>
<svg xmlns="http://www.w3.org/2000/svg"
     xmlns:xlink="http://www.w3.org/1999/xlink" xmlns:ev="http://www.w3.org/2001/xml-events"
     version="1.1" baseProfile="full"
     width="788" height="328">

    <path
       style="fill:#000000"
       d="m 766.5,321.93257 c -6.79076,-1.83049 -16.58751,-1.88758 -327.75,-1.90973 L 118,320 l 0,-29 0,-29 -57,0 -57,0 0,-6.5 0,-6.5 57,0 57,0 0,-20.11634 0,-20.11635 -5.40419,-5.83717 c -11.88148,-12.83342 -11.4777,-30.16121 0.98322,-42.19323 L 117.96697,156.5 117.98348,117.75 118,79 61,79 4,79 4,72.5 4,66 l 57,0 57,0 0,-31 0,-31 333,0 333,0 0,158 0,158 -2.88337,0 c -2.04236,0 -3.03592,0.58335 -3.40638,2 -0.63011,2.40955 -2.0529,2.401 -11.21025,-0.0674 z M 289,162 l 0,-146 -79,0 -79,0 0,68 0,68 5.03212,0 c 2.76766,0 6.58137,0.64732 8.47491,1.43849 l 3.44279,1.43849 5.27509,-5.85524 c 2.9013,-3.22038 22.90686,-23.81685 44.4568,-45.76993 l 39.18172,-39.914698 4.43314,4.43314 4.43314,4.43314 -26.58529,27.148304 C 204.5225,114.28326 184.75239,134.42194 175.21083,144.10431 l -17.34829,17.60432 2.56713,3.78287 c 7.55515,11.13314 6.38075,27.07129 -2.73851,37.16523 l -3.53419,3.91193 45.42151,20.92906 C 224.56032,239.00871 245,248.54243 245,248.68376 c 0,0.14133 -1.13839,2.74575 -2.52976,5.78759 l -2.52976,5.53062 -3.22024,-1.38562 c -1.77113,-0.76209 -24.74813,-11.33754 -51.06,-23.50099 C 152.89876,219.97039 136.74563,213 134.41024,213 L 131,213 l 0,47.5 0,47.5 79,0 79,0 0,-146 z m 219.5,95.58918 C 397.95,229.97945 306.2625,207.06842 304.75,206.67578 l -2.75,-0.71388 0,51.01905 0,51.01905 203.75,-0.10566 203.75,-0.10566 -201,-50.1995 z M 772,162.93261 C 772,25.239453 771.91104,17.891967 770.25,18.391299 769.2875,18.68064 665.225,44.836109 539,76.514564 412.775,108.19302 307.8125,134.55395 305.75,135.09442 l -3.75,0.98267 0,28.33691 0,28.33692 229.75,57.53341 c 146.89439,36.78492 231.64333,57.56627 235,57.62454 L 772,308 772,162.93261 z M 725,16.645645 c 0.825,-0.227503 -94.0125,-0.465843 -210.75,-0.529644 L 302,16 l 0,53.410165 0,53.410165 210.75,-52.880522 C 628.6625,40.855521 724.175,16.873148 725,16.645645 z"/>
</svg>
