<?xml version="1.0" encoding="UTF-8"?>
<svg xmlns="http://www.w3.org/2000/svg"
     xmlns:xlink="http://www.w3.org/1999/xlink" xmlns:ev="http://www.w3.org/2001/xml-events"
     version="1.1" baseProfile="full"
     width="789" height="328">

    <path
       style="fill:#000000"
       d="m 767.5,321.93257 c -6.79076,-1.83049 -16.58751,-1.88758 -327.75,-1.90973 L 119,320 l 0,-29 0,-29 -57.5,0 -57.5,0 0,-6.5 0,-6.5 57.5,0 57.5,0 0,-20.33264 0,-20.33263 -3.9347,-3.16202 C 101.70477,194.4359 101.38688,172.21917 114.41516,159.73588 L 119,155.34283 119,117.17142 119,79 61.5,79 4,79 4,72.5 4,66 l 57.5,0 57.5,0 0,-31 0,-31 333,0 333,0 0,158 0,158 -2.88337,0 c -2.04236,0 -3.03592,0.58335 -3.40638,2 -0.63011,2.40955 -2.0529,2.401 -11.21025,-0.0674 z M 289,162 l 0,-146 -78.5,0 -78.5,0 0,67.5 0,67.5 3.34107,0 c 1.83759,0 5.55009,0.68124 8.25,1.51386 l 4.90893,1.51386 30.457,-31.26386 c 16.75134,-17.19512 36.78012,-37.691674 44.50839,-45.54789 l 14.0514,-14.284031 4.34599,4.428243 4.34599,4.428242 -37.77038,38.855786 c -20.77371,21.37069 -40.47963,41.6526 -43.79094,45.07092 -5.80121,5.9887 -5.95716,6.28517 -4.28056,8.13778 8.03781,8.88168 7.09714,28.79092 -1.82029,38.52649 l -3.45768,3.77491 7.20554,3.30867 c 36.75782,16.87859 81.36012,37.7916 82.03099,38.46247 C 245.09511,248.69511 240.57858,259 239.47159,259 239.19949,259 216.64415,248.65 189.3486,236 151.68119,218.54321 138.79,213 135.86017,213 L 132,213 l 0,47.5 0,47.5 78.5,0 78.5,0 0,-146 z m 419.91916,145.34325 c -0.86946,-0.23361 -92.78196,-23.30457 -204.25,-51.2688 L 302,205.23039 302,256.6152 302,308 506.25,307.884 c 112.3375,-0.0638 203.53862,-0.30714 202.66916,-0.54075 z M 773,162.89301 C 773,47.229641 772.74636,17.879023 771.75,18.244359 771.0625,18.496444 665.08076,44.965139 536.23501,77.063682 l -234.26498,58.360988 0.26498,28.44663 0.26499,28.44663 230,57.72206 c 143.64678,36.05038 231.97111,57.76672 235.25,57.84103 L 773,308 773,162.89301 z M 597,197 l 0,-6 62,0 62,0 0,6 0,6 -62,0 -62,0 0,-6 z m 0,-66.5 0,-6.5 62,0 62,0 0,6.5 0,6.5 -62,0 -62,0 0,-6.5 z M 517.07889,68.566013 726.5,16.215774 514.25,16.107887 302,16 l 0,53.079455 0,53.079455 2.82889,-0.62133 c 1.5559,-0.34173 97.0684,-24.178936 212.25,-52.971567 z"/>
</svg>
