<?xml version="1.0" encoding="UTF-8"?>
<svg xmlns="http://www.w3.org/2000/svg"
     xmlns:xlink="http://www.w3.org/1999/xlink" xmlns:ev="http://www.w3.org/2001/xml-events"
     version="1.1" baseProfile="full"
     width="728" height="382">

    <path
       style="fill:#000000"
       d="M 331,375.01273 C 244.8975,360.61025 182.85583,292.72635 174.47649,203.75 L 173.84081,197 88.920406,197 4,197 l 0,-6.5 0,-6.5 84.920406,0 84.920404,0 0.62903,-6.75 c 2.98014,-31.97931 11.64735,-59.45668 26.19335,-83.03987 C 273.99281,-24.677954 442.66125,-26.630627 518.25491,90.533373 534.35469,115.48672 547,154.34677 547,178.86933 l 0,5.13067 88.5,0 88.5,0 0,6.5 0,6.5 -88.5,0 -88.5,0 0,5.01654 c 0,17.99431 -8.71948,50.53653 -19.04191,71.06681 C 490.98308,346.62301 410.44692,388.30193 331,375.01273 z m 56.26346,-12.59853 c 51.13335,-7.6465 95.69899,-37.81586 123.08574,-83.3247 3.11473,-5.17577 5.47921,-9.59442 5.25442,-9.81922 -0.2248,-0.2248 -61.15031,10.87243 -135.39002,24.6605 C 305.97389,307.71885 244.8853,319 244.46117,319 c -2.58165,0 12.86685,12.37251 24.56962,19.67749 34.26037,21.38566 76.81867,29.92978 118.23267,23.73671 z m -9.62263,-80.92731 c 78.57255,-14.58221 143.37391,-26.69976 144.00303,-26.92789 1.2121,-0.43952 5.1725,-11.74346 7.89238,-22.52673 7.68054,-30.45048 5.81696,-72.29295 -4.37349,-98.1967 C 523.80787,130.39152 540.08923,133.6864 378,104.05402 212.46343,73.791412 230.93039,77.426459 231.61646,75.239807 c 1.05812,-3.372473 -8.7735,8.158735 -15.24714,17.882895 C 178.18606,150.47844 176.9461,223.54597 213.15129,282.75348 220.60674,294.94561 231.17357,308 233.587,308 c 0.65707,0 65.48129,-11.9309 144.05383,-26.51311 z M 285,189 l 0,-63 6.5,0 6.5,0 0,63 0,63 -6.5,0 -6.5,0 0,-63 z M 515.52121,111.04185 C 464.0607,9.48943 329.0837,-14.927372 243.21887,61.78344 l -4.28113,3.824721 78.28113,14.350053 C 360.27349,87.850743 422.95,99.350952 456.5,105.51423 c 33.55,6.16329 61.14275,11.08867 61.31723,10.94531 0.17448,-0.14337 -0.85873,-2.58133 -2.29602,-5.41769 z"/>
</svg>
