<?xml version="1.0" encoding="UTF-8"?>
<svg xmlns="http://www.w3.org/2000/svg"
     xmlns:xlink="http://www.w3.org/1999/xlink" xmlns:ev="http://www.w3.org/2001/xml-events"
     version="1.1" baseProfile="full"
     width="566" height="390">

    <path
       style="fill:#000000"
       d="m 160,293.5 0,-92.5 -78,0 -78,0 0,-6 0,-6 78,0 78,0 0,-92.5 0,-92.5 124,0 124,0 0,92.5 0,92.5 77,0 77,0 0,6 0,6 -77,0 -77,0 0,92.5 0,92.5 -124,0 -124,0 0,-92.5 z m 235,-90.16667 c 0,-93.86666 -0.3375,-170.334785 -0.75,-169.929155 -0.4125,0.40563 -20.81175,32.31813 -45.33166,70.916665 L 304.33667,174.5 l 3.75656,4.30547 c 18.41113,21.10135 -1.81169,54.18085 -29.2272,47.80845 -3.50132,-0.81384 -6.64214,-1.17241 -6.97961,-0.79681 -0.33747,0.37559 -20.99631,32.85789 -45.90853,72.18289 -24.91223,39.325 -45.95037,72.5125 -46.75143,73.75 L 177.76998,374 286.38499,374 395,374 395,203.33333 z M 218.04452,286.99794 C 242.22003,248.91244 262,217.34783 262,216.85435 c 0,-0.49348 -1.11731,-2.58559 -2.4829,-4.64915 -12.07351,-18.2443 2.78397,-43.35269 25.97148,-43.89048 l 7.98857,-0.18528 45.29116,-71.314718 C 363.67845,57.591625 385.39193,23.3625 387.02049,20.75 L 389.98151,16 281.49076,16 173,16 l 0,170.66667 c 0,93.86666 0.24503,170.42163 0.54452,170.12215 0.29948,-0.29949 20.32448,-31.70538 44.5,-69.79088 z"/>
</svg>
