<?xml version="1.0" encoding="UTF-8"?>
<svg xmlns="http://www.w3.org/2000/svg"
     xmlns:xlink="http://www.w3.org/1999/xlink" xmlns:ev="http://www.w3.org/2001/xml-events"
     version="1.1" baseProfile="full"
     width="591" height="378">

    <path
       style="fill:#000000"
       d="m 175,286 0,-88 -85.5,0 -85.5,0 0,-6.5 0,-6.5 85.5,0 85.5,0 0,-90.5 0,-90.5 122,0 122,0 0,90.5 0,90.5 84,0 84,0 0,6.5 0,6.5 -84,0 -84,0 0,88 0,88 -122,0 -122,0 0,-88 z M 405.76877,339.26544 405.5,316.53088 297.5,287.31705 C 238.1,271.24944 188.9375,258.08 188.25,258.05161 187.26536,258.01096 187,269.03914 187,310 l 0,52 109.51877,0 109.51878,0 -0.26878,-22.73456 z M 406,191.1573 406,79.314597 329.75,99.711793 C 287.8125,110.93025 238.65,124.07258 220.5,128.91696 l -33,8.80798 0,53.37278 0,53.37279 107.5,29.14678 c 59.125,16.03073 108.2875,29.19987 109.25,29.26475 1.65694,0.11169 1.75,-5.82961 1.75,-111.72474 z M 228,201.5 l 0,-6.5 63,0 63,0 0,6.5 0,6.5 -63,0 -63,0 0,-6.5 z m 5,-25 0,-6.5 62.5,0 62.5,0 0,6.5 0,6.5 -62.5,0 -62.5,0 0,-6.5 z M 299.5,94.56255 405.5,66.246329 405.76717,41.123165 406.03434,16 296.51717,16 187,16 l 0,54.406399 0,54.406401 3.25,-0.96701 c 1.7875,-0.53186 50.95,-13.70932 109.25,-29.28324 z"/>
</svg>
