<?xml version="1.0" encoding="UTF-8"?>
<svg xmlns="http://www.w3.org/2000/svg"
     xmlns:xlink="http://www.w3.org/1999/xlink" xmlns:ev="http://www.w3.org/2001/xml-events"
     version="1.1" baseProfile="full"
     width="591" height="378">

    <path
       style="fill:#000000"
       d="m 175,286 0,-88 -85.5,0 -85.5,0 0,-6.5 0,-6.5 85.5,0 85.5,0 0,-90.5 0,-90.5 122,0 122,0 0,90.5 0,90.5 84,0 84,0 0,6.5 0,6.5 -84,0 -84,0 0,88 0,88 -122,0 -122,0 0,-88 z M 405.76877,339.26544 405.5,316.53088 297.5,287.31705 C 238.1,271.24944 188.9375,258.08 188.25,258.05161 187.26536,258.01096 187,269.03914 187,310 l 0,52 109.51877,0 109.51878,0 -0.26878,-22.73456 z M 406,191.1573 406,79.314597 329.75,99.711793 C 287.8125,110.93025 238.65,124.07258 220.5,128.91696 l -33,8.80798 0,53.37278 0,53.37279 107.5,29.14678 c 59.125,16.03073 108.2875,29.19987 109.25,29.26475 1.65694,0.11169 1.75,-5.82961 1.75,-111.72474 z m -156.63709,45.68589 -5.13334,-3.15682 7.88522,-12.36639 C 256.45165,214.51846 260,208.73903 260,208.47679 260,208.21456 252.8,208 244,208 l -16,0 0,-6.5 0,-6.5 20.35095,0 20.35094,0 3.57025,-5.75 3.57024,-5.75 -21.42119,-0.2695 L 233,182.961 l 0,-6.4805 0,-6.4805 25.75,-0.0352 25.75,-0.0352 11.36847,-18.39638 11.36847,-18.39637 5.29336,3.5146 5.29337,3.51459 -9.37586,14.91696 -9.37586,14.91696 29.46402,0 29.46403,0 0,6.5 0,6.5 -33.46927,0 -33.46927,0 -3.53073,5.51942 c -1.9419,3.03568 -3.53073,5.73568 -3.53073,6 0,0.26432 15.75,0.48058 35,0.48058 l 35,0 0,6.5 0,6.5 -39.35115,0 -39.35116,0 -9.89884,15.95868 c -5.44437,8.77728 -10.12469,15.97728 -10.40072,16 -0.27603,0.0227 -2.81188,-1.37925 -5.63522,-3.11549 z M 299.5,94.56255 405.5,66.246329 405.76717,41.123165 406.03434,16 296.51717,16 187,16 l 0,54.406399 0,54.406401 3.25,-0.96701 c 1.7875,-0.53186 50.95,-13.70932 109.25,-29.28324 z"/>
</svg>
