<?xml version="1.0" encoding="UTF-8"?>
<svg xmlns="http://www.w3.org/2000/svg"
     xmlns:xlink="http://www.w3.org/1999/xlink" xmlns:ev="http://www.w3.org/2001/xml-events"
     version="1.1" baseProfile="full"
     width="490" height="257">

    <path
       style="fill:#000000"
       d="M 4,128.5 4,4 245,4 486,4 486,128.5 486,253 245,253 4,253 4,128.5 z m 470,0 0,-112.5 -222.15004,0 -222.150037,0 3.900039,2.80713 C 35.744983,20.351051 69.225,43.822263 108,70.965379 c 38.775,27.143115 70.89283,49.695241 71.37296,50.115821 0.48012,0.42059 -0.16383,2.22073 -1.431,4.00031 l -2.30395,3.2356 2.18377,3.79439 2.18378,3.7944 -9.75278,6.89653 C 164.88875,146.59552 131.25,170.0822 95.5,194.99504 59.75,219.90788 30.3125,240.45062 30.083333,240.64556 29.854167,240.8405 129.64167,241 251.83333,241 L 474,241 474,128.5 z M 91.5,182.51676 c 40.15,-27.93892 73.7835,-51.53075 74.74112,-52.42629 1.75243,-1.63884 -14.42746,-13.31058 -141.938581,-102.390678 L 16,21.899584 16,128.57224 c 0,85.18614 0.251781,106.47827 1.25,105.7076 0.6875,-0.53077 34.1,-23.82416 74.25,-51.76308 z"/>
</svg>
