<?xml version="1.0" encoding="UTF-8"?>
<svg xmlns="http://www.w3.org/2000/svg"
     xmlns:xlink="http://www.w3.org/1999/xlink" xmlns:ev="http://www.w3.org/2001/xml-events"
     version="1.1" baseProfile="full"
     width="566" height="390">

    <path
       style="fill:#000000"
       d="m 160,293.5 0,-92.5 -78,0 -78,0 0,-6 0,-6 78,0 78,0 0,-92.5 0,-92.5 124,0 124,0 0,92.5 0,92.5 77,0 77,0 0,6 0,6 -77,0 -77,0 0,92.5 0,92.5 -124,0 -124,0 0,-92.5 z M 396,202.8 C 396,108.64 395.61987,32.0275 395.15527,32.55 394.4598,33.332146 210.98982,321.70804 208.602,325.77218 c -0.4685,0.79739 0.92479,3.13212 3.73325,6.2558 5.18064,5.76212 7.66475,12.11848 7.66475,19.61265 0,5.67328 -3.11267,15.37806 -5.59236,17.43602 C 208.11227,374.30135 202.6613,374 303.46482,374 L 396,374 396,202.8 z m -207.23588,119.4095 7.26412,-0.47433 96.98588,-152.40135 C 346.35635,85.513073 390,16.722659 390,16.466232 390,16.209804 341.175,16 281.5,16 l -108.5,0 0,155.52032 0,155.52033 4.25,-2.17841 c 2.75977,-1.41457 6.79711,-2.34473 11.51412,-2.65274 z"/>
</svg>
