<?xml version="1.0" encoding="UTF-8"?>
<svg xmlns="http://www.w3.org/2000/svg"
     xmlns:xlink="http://www.w3.org/1999/xlink" xmlns:ev="http://www.w3.org/2001/xml-events"
     version="1.1" baseProfile="full"
     width="815" height="255">

    <path
       style="fill:#000000"
       d="m 167,193 0,-58 -81.5,0 -81.5,0 0,-6.5 0,-6.5 81.5,0 81.5,0 0,-59 0,-59 245.5,0 245.5,0 0,59 0,59 76.5,0 76.5,0 0,6.5 0,6.5 -76.5,0 -76.5,0 0,58 0,58 -245.5,0 -245.5,0 0,-58 z m 234,-11.5 0,-57.5 6.5,0 6.5,0 0,57.5 0,57.5 115.5,0 115.5,0 0,-111.5 0,-111.5 -55.5,0 -55.5,0 0,44.5 0,44.5 -6.5,0 -6.5,0 0,-44.5 0,-44.5 -110.5,0 -110.5,0 0,44.5 0,44.5 -6.5,0 -6.5,0 0,-44.5 0,-44.5 -53.5,0 -53.5,0 0,111.5 0,111.5 110.5,0 110.5,0 0,-57.5 z"/>
</svg>
