<?xml version="1.0" encoding="UTF-8"?><svg xmlns="http://www.w3.org/2000/svg"     xmlns:xlink="http://www.w3.org/1999/xlink" xmlns:ev="http://www.w3.org/2001/xml-events"     version="1.1" baseProfile="full"     width="897" height="631">
  <path
     d="m 370.2726,623.83 c -6.3025,-2.7399 -8.9985,-10.782 -5.5636,-16.597 2.4673,-4.1768 6.9424,-5.9204 15.195,-5.9204 h 7.0989 v -3.8893 c 0,-6.753 -2.0033,-8.0391 -13,-8.3458 -9.396,-0.262 -9.5,-0.2923 -9.5,-2.7649 0,-2.4646 0.1302,-2.5041 9.1941,-2.7868 11.428,-0.3565 15.72,1.1393 17.842,6.2186 1.8939,4.5328 2.1089,32.523 0.26401,34.368 -1.6986,1.6985 -17.449,1.4918 -21.53,-0.2826 z m 16.73,-10.627 0,-6.1093 -7.5985,0.3837 c -7.9582,0.4018 -10.402,1.8174 -10.402,6.026 0,3.9397 3.5395,5.8089 11,5.8089 h 7 v -6.1093 z m 90.452,10.846 c -0.26667,-0.695 -0.36504,-13.858 -0.21861,-29.25 l 0.26623,-27.986 h 2.5 c 2.4412,0 2.5068,0.1941 2.7904,8.25 l 0.29044,8.25 h 6.9917 c 14.306,0 16.927,3.2523 16.927,21 0,13.397 -1.3176,17.399 -6.4319,19.536 -4.5529,1.9024 -22.403,2.0572 -23.116,0.2006 z m 21.233,-6.9109 c 2.1346,-2.0053 2.3144,-2.9912 2.3144,-12.686 0,-13.71 -1.0559,-15.14 -11.174,-15.14 h -6.8257 v 15 15 h 6.6856 c 5.4879,0 7.1002,-0.3895 9,-2.1744 z m -78.019,-1.4923 c -1.5601,-1.5601 -0.37831,-4.0574 4.0457,-8.549 l 4.7124,-4.7843 -4.849,-4.923 c -4.9063,-4.9812 -5.4691,-7.4133 -2.0215,-8.7363 1.0686,-0.41 3.2343,0.9961 6.5227,4.2351 l 4.923,4.849 4.7844,-4.7124 c 5.21,-5.1317 7.7118,-5.8753 8.751,-2.6011 0.5231,1.6481 -0.3863,3.1839 -4.145,7 l -4.8151,4.8887 4.8085,4.8818 c 4.9746,5.0505 5.779,8.2706 2.2367,8.9527 -1.1779,0.2269 -3.6414,-1.4003 -6.7385,-4.4509 l -4.8819,-4.8085 -4.7844,4.7124 c -4.4916,4.4241 -6.9889,5.6059 -8.549,4.0458 z m -416.66,-70.84 v -6.5 h 444.5 444.5 v 6.5 6.5 h -444.5 -444.5 v -6.5 z m 0,-28 0,-6.5 444.5,0 444.5,0 0,6.5 0,6.5 -444.5,0 -444.5,0 0,-6.5 z m 0,-218.5 0,-6 444.5,0 444.5,0 0,6 0,6 -444.5,0 -444.5,0 0,-6 z m 403.52,-13.971 c -0.32994,-0.53385 0.086,-2.2969 0.92424,-3.918 1.353,-2.6165 1.3576,-3.3458 0.0409,-6.4972 -2.3298,-5.5759 -2.0491,-31.786 0.39748,-37.114 4.2206,-9.1911 14.759,-13.017 23.533,-8.5439 3.8218,1.9484 3.8431,1.9482 5.4702,-0.0612 3.1695,-3.9142 6.4017,-0.78683 3.6023,3.4856 -1.3515,2.0626 -1.3515,2.6981 0,5.9327 2.3791,5.694 2.0995,31.8 -0.3995,37.303 -4.0213,8.8552 -15.016,12.903 -23.298,8.5778 -3.6247,-1.8933 -3.75,-1.8948 -5.405,-0.066 -1.8486,2.0427 -3.9233,2.4271 -4.8662,0.90154 z m 23.515,-6.5463 c 5.2571,-2.7185 6.0526,-5.7913 5.744,-22.186 l -0.27672,-14.699 -9.8549,17.762 c -5.4202,9.7693 -9.6952,17.893 -9.5,18.053 3.497,2.865 9.5181,3.3283 13.888,1.0688 z M 423.5,252.6465 c 10.275,-18.53 10.343,-19.017 2.8112,-20.028 -5.2814,-0.70838 -10.021,1.7736 -11.879,6.2208 -1.3982,3.3463 -2.1896,32.567 -0.84563,31.223 0.31658,-0.31658 4.7777,-8.1541 9.9135,-17.417 z M 4,80.3065 v -6 H 448.5 893 v 6 6 H 448.5 4 v -6 z m 367,-20.752 c -10.109,-5.0502 -11.243,-31.456 -1.6219,-37.761 6.3742,-4.1766 15.867,-2.6558 20.383,3.2654 3.9594,5.191 4.1802,24.726 0.3403,30.11 -4.2119,5.9054 -12.328,7.7688 -19.101,4.3853 z m 12.694,-6.6619 c 2.7323,-2.3502 2.8058,-2.6797 2.8058,-12.587 0,-11.394 -2.0432,-15 -8.5,-15 -6.4568,0 -8.5,3.6056 -8.5,15 0,11.3944 2.0432,15 8.5,15 1.6117,0 4.1287,-1.0668 5.6942,-2.4134 z m 28.446,6.6634 c -2.1299,-4.0054 -12.271,-37.466 -11.759,-38.8 0.30606,-0.79756 1.4817,-1.4501 2.6126,-1.4501 2.4044,0 2.7951,0.88536 7.8091,17.697 2.0007,6.7081 3.78,12.054 3.954,11.88 0.174,-0.174 2.1272,-6.3375 4.3405,-13.697 4.1602,-13.833 5.6322,-16.582 8.3255,-15.548 2.3149,0.88831 2.0716,2.3129 -3.5098,20.548 -6.3275,20.673 -8.8626,24.844 -11.773,19.371 z m 30.13,0.26741 c -6.3025,-2.7399 -8.9985,-10.782 -5.5636,-16.597 2.4673,-4.1768 6.9424,-5.9204 15.195,-5.9204 h 7.0989 v -3.8892 c 0,-6.753 -2.0033,-8.0391 -13,-8.3458 -9.396,-0.26205 -9.5,-0.29232 -9.5,-2.765 0,-2.4646 0.1302,-2.5041 9.1941,-2.7868 11.428,-0.35647 15.72,1.1393 17.842,6.2187 1.8939,4.5327 2.1089,32.523 0.26401,34.368 -1.6986,1.6986 -17.449,1.4918 -21.53,-0.28259 z m 16.73,-10.627 0,-6.1093 -7.5985,0.3837 c -7.9582,0.40187 -10.402,1.8174 -10.402,6.026 0,3.9397 3.5395,5.8089 11,5.8089 h 7 v -6.1093 z m 21.36,10.649 c -4.0267,-2.8204 -4.4097,-5.7932 -4.1283,-32.04 l 0.26801,-24.999 h 2.5 2.5 l 0.5,25.265 0.5,25.265 2.9184,2.3254 c 5.1178,4.078 0.38269,7.9958 -5.058,4.185 z"/>
</svg>
