<?xml version="1.0" encoding="UTF-8"?>
<svg xmlns="http://www.w3.org/2000/svg"
     xmlns:xlink="http://www.w3.org/1999/xlink" xmlns:ev="http://www.w3.org/2001/xml-events"
     version="1.1" baseProfile="full"
     width="557" height="301">
  <path
     style="fill:#000000"
     d="m 4,291.29618 0,-6 274.5,0 274.5,0 0,6 0,6 -274.5,0 -274.5,0 0,-6 z m 189,-19.57904 c 0,-0.31847 4.05,-6.38223 9,-13.47502 4.95,-7.0928 8.98572,-13.24473 8.96828,-13.67097 -0.10242,-2.50187 -17.72188,-25.80866 -19.72693,-26.09452 -2.03392,-0.28998 -2.24135,-0.8684 -2.24135,-6.25 l 0,-5.93045 106.5,0 106.5,0 0,6 0,6 -6.25,0.0302 -6.25,0.0302 -9.14586,13.20484 -9.14586,13.20484 9.45314,13.76494 9.45315,13.76495 -5.05176,0 -5.05175,0 -6.65804,-10 c -3.66193,-5.5 -6.97641,-10 -7.36552,-10 -0.38912,0 -3.78076,4.5 -7.537,10 l -6.82952,10 -4.78487,0 -4.78488,0 9.47439,-13.56254 C 356.73653,251.27425 361,244.93349 361,244.64306 c 0,-2.03357 -18.45161,-26.40656 -19.79523,-26.1478 -3.23917,0.62381 -20.40163,25.88219 -18.9775,27.92963 0.7,1.00637 5.0101,7.23911 9.57801,13.85053 l 8.30527,12.02076 -4.9108,0 -4.9108,0 -6.99169,-10.53945 -6.99168,-10.53945 -7.27834,10.53945 -7.27833,10.53945 -4.99643,0 c -4.77441,0 -4.93546,-0.0879 -3.62445,-1.97924 0.75458,-1.08858 5.06055,-7.31747 9.56882,-13.84199 l 8.19686,-11.86275 -9.12282,-13.15801 c -5.20005,-7.50013 -9.79965,-13.15272 -10.69686,-13.14571 -1.26942,0.01 -19.57403,24.65532 -19.57403,26.35456 0,0.25662 3.86134,6.01656 8.58076,12.79986 4.71942,6.7833 8.90848,12.89578 9.30902,13.58328 0.54111,0.92877 -0.52669,1.25 -4.15513,1.25 l -4.88339,0 -6.85126,-10 c -3.76819,-5.5 -7.15359,-10 -7.52312,-10 -0.36952,0 -3.66797,4.5 -7.3299,10 l -6.65804,10 -5.04468,0 -5.04468,0 6.15633,-8.75 c 3.38597,-4.8125 7.7192,-11.07021 9.62938,-13.90602 l 3.47307,-5.15602 -9.16812,-13.09398 c -5.6401,-8.05523 -9.80732,-13.07651 -10.82918,-13.04859 -1.37946,0.0377 -17.83845,22.48679 -18.96543,25.86773 -0.17525,0.52575 3.76699,7.06038 8.76054,14.52139 l 9.07918,13.56549 -5.01214,0 -5.01215,0 -6.65804,-10 c -3.66193,-5.5 -6.95414,-10 -7.31602,-10 -0.36189,0 -3.73127,4.5 -7.4875,10 l -6.82952,10 -4.35999,0 C 194.962,272.29618 193,272.03561 193,271.71714 z m 30.89243,-44.17096 6.15916,-9.25 -13.55135,0 -13.55135,0 6.77555,9.89943 c 3.72656,5.44469 7.05305,9.60719 7.3922,9.25 0.33914,-0.35719 3.38825,-4.81193 6.77579,-9.89943 z m 50,0 6.15916,-9.25 -13.53133,0 -13.53132,0 6.67702,10.02851 c 3.67237,5.51568 6.98984,9.67818 7.37217,9.25 0.38233,-0.42818 3.46676,-4.94101 6.8543,-10.02851 z m 43.36841,-9.03089 c -6.89282,-0.15449 -12.76193,-0.0514 -13.04247,0.22919 -0.28054,0.28054 2.31443,4.79355 5.76661,10.02892 l 6.27668,9.51884 6.76579,-9.74803 6.76578,-9.74803 -12.53239,-0.28089 z m 55.64152,10.27318 c 3.3537,-5.22923 6.09764,-9.72923 6.09764,-10 0,-0.27076 -5.85249,-0.49229 -13.00553,-0.49229 l -13.00553,0 6.65804,10 c 3.66193,5.5 6.77048,10 6.90789,10 0.13742,0 2.99379,-4.27847 6.34749,-9.50771 z M 4,76.796203 l 0,-6.5 274.5,0 274.5,0 0,6.5 0,6.5 -274.5,0 -274.5,0 0,-6.5 z m 189,-19.09058 c 0,-0.32482 4.05,-6.35906 9,-13.40942 4.95,-7.05035 9,-13.1424 9,-13.53787 0,-0.39547 -3.52366,-5.94874 -7.83036,-12.34058 -4.3067,-6.391853 -8.15825,-12.1840532 -8.55902,-12.8715532 -0.5418,-0.9294503 0.53477,-1.2500003 4.19823,-1.2500003 l 4.92689,0 6.25365,9.4839225 c 3.43951,5.216151 6.61136,9.262831 7.04855,8.992641 0.43719,-0.2702 3.39653,-4.53796 6.57632,-9.483923 l 5.78143,-8.9926405 4.91716,0 4.91717,0 -1.75714,2.7500003 c -0.96643,1.5125006 -4.64969,6.9577932 -8.18501,12.1006332 -3.53533,5.14285 -6.65487,9.94218 -6.93231,10.66519 -0.27744,0.723 3.58701,7.42772 8.58767,14.89937 l 9.09212,13.58481 -4.95936,0 -4.95936,0 -6.80832,-10.49277 C 219.56374,42.032403 216.275,37.315353 216,37.321093 c -0.275,0.006 -3.59782,4.72749 -7.38404,10.49278 l -6.88404,10.48233 -4.36596,0 c -2.40128,0 -4.36596,-0.26576 -4.36596,-0.59058 z m 55.10744,-8.15942 c 3.36193,-4.8125 7.6737,-11.07017 9.58172,-13.90595 l 3.46911,-5.15595 -8.57913,-12.48725 C 242.49566,3.3201596 242.76757,4.2918995 248.75,4.3127695 l 4.75,0.0166 6.48892,9.8953835 6.48892,9.89538 6.51108,-9.89131 6.51108,-9.8913135 4.79527,-0.0206 4.79527,-0.0206 -8.62626,12.7500035 c -4.74444,7.0125 -8.70231,13.03252 -8.79527,13.37783 -0.093,0.3453 3.69233,6.1953 8.41175,13 4.71942,6.80469 8.90848,12.93467 9.30902,13.62217 0.54146,0.92938 -0.53501,1.25 -4.19672,1.25 l -4.92498,0 -6.88404,-10.48233 C 269.59782,42.048693 266.275,37.327323 266,37.322043 c -0.275,-0.005 -3.52308,4.71176 -7.21796,10.48233 l -6.71795,10.49194 -5.03463,0 -5.03463,0 6.11261,-8.75 z m 45.02059,6.77076 c 0.75458,-1.08858 5.07107,-7.3328 9.5922,-13.87605 l 8.22023,-11.89682 -9.0053,-13.12394 -9.00529,-13.1239535 5.33722,0 5.33722,0 5.78143,8.9926405 c 3.17979,4.945963 6.1268,9.206093 6.54891,9.466983 0.42212,0.26088 3.63506,-3.78581 7.13987,-8.992641 l 6.37238,-9.4669825 4.77655,0 c 2.6271,0 4.77655,0.15165 4.77655,0.33699 0,0.1853399 -4.0447,6.1259805 -8.98823,13.2014235 -7.79663,11.15896 -8.82408,13.10246 -7.75,14.6598 0.68103,0.98744 4.96767,7.1968 9.52588,13.79857 l 8.28765,12.00322 -4.90552,0 -4.90552,0 -6.32594,-9.75 c -3.47927,-5.3625 -6.63885,-10.12762 -7.02128,-10.58915 -0.38244,-0.46153 -3.9808,3.92597 -7.99636,9.75 l -7.30101,10.58915 -4.93181,0 c -4.71001,0 -4.8701,-0.089 -3.55983,-1.97924 z m 58.39759,-11.58329 C 356.73653,37.274273 361,30.930353 361,30.636063 c 0,-0.29429 -3.825,-6.08505 -8.5,-12.86836 C 342.5002,3.2582396 342.78835,4.2921995 348.75,4.3118895 l 4.75,0.0157 5.90143,9.0188815 c 3.24578,4.960392 6.27268,9.248332 6.72643,9.528772 0.45375,0.28043 3.57955,-3.78513 6.94621,-9.034571 l 6.12121,-9.5444625 5.01737,0 c 4.98069,0 5.00641,0.0164 3.51832,2.2500003 -0.82448,1.2375006 -4.87491,7.1997722 -9.00096,13.2494832 l -7.50192,10.99947 9.44324,13.75053 9.44324,13.75052 -5.10505,0 -5.10504,0 -6.70224,-10.48084 C 369.51601,42.050903 366.275,37.339873 366,37.346423 c -0.275,0.006 -3.63582,4.72292 -7.4685,10.48084 l -6.96849,10.46895 -4.75589,0 -4.75589,0 9.47439,-13.56253 z"/>
</svg>
