<?xml version="1.0" encoding="UTF-8"?>
<svg xmlns="http://www.w3.org/2000/svg"
     xmlns:xlink="http://www.w3.org/1999/xlink" xmlns:ev="http://www.w3.org/2001/xml-events"
     version="1.1" baseProfile="full"
     width="701" height="258">
  <path
     style="fill:#000000"
     d="m 8.0753541,248.26218 0,-6 6.4785609,0 6.478561,0 -1.165386,-2.75 c -1.768725,-4.17372 -6.754121,-9.08248 -10.4696449,-10.30872 -3.308314,-1.09184 -3.322091,-1.12326 -3.322091,-7.57785 0,-4.06633 0.372622,-6.25117 1,-5.86343 0.603931,0.37325 1,-0.98962 1,-3.44098 l 0,-4.05902 332.5000059,0 332.5,0 0,4.31479 c 0,3.91831 0.3109,4.46304 3.38351,5.92827 5.3205,2.53717 10.39597,7.52047 15.76836,15.48199 l 4.95835,7.34797 -3.05511,3.8574 c -1.68031,2.12156 -3.05511,5.03013 -3.05511,6.46348 l 0,2.6061 -341.5,0 -341.5000059,0 0,-6 z m 40.6900079,-7.65719 c 2.164792,-1.02726 4.122829,-3.01115 5.151129,-5.21914 0.912374,-1.95907 2.229099,-4.25084 2.926053,-5.09281 0.696955,-0.84197 2.656072,-3.21836 4.353593,-5.28086 l 3.086401,-3.75 -21.353592,0.025 -21.353592,0.025 4.25,4.01111 c 2.3375,2.20612 4.25,4.38819 4.25,4.84905 0,8.03766 10.907041,14.1259 18.690008,10.43264 z m 46.309997,0.73493 c 0,-2.08473 -6.76354,-9.53768 -10.32361,-11.37591 -5.60823,-2.89578 -10.42287,-1.22883 -15.687502,5.43144 -5.533059,6.99984 -5.74651,6.86673 11.011102,6.86673 8.49042,0 15.00001,-0.40024 15.00001,-0.92226 z m 30.000001,-1.93645 c 1.375,-1.00958 3.175,-3.10848 4,-4.66422 1.66056,-3.13137 3.11577,-5.13399 7.35359,-10.11981 l 2.85359,-3.35726 -22.3118,0 -22.311801,0 4.260071,4.34069 c 2.34303,2.38738 5.70469,6.54988 7.47033,9.25 4.80413,7.34674 12.36883,9.18897 18.68602,4.5506 z m 41.62916,1.60871 c -0.29562,-0.6875 -1.09932,-3.1545 -1.78598,-5.48222 -2.73545,-9.27292 -21.84318,-8.4774 -21.84318,0.9094 0,0.53112 -0.675,1.64068 -1.5,2.46568 -2.93847,2.93847 -1.43155,3.35714 12.08333,3.35714 10.48667,0 13.4608,-0.28497 13.04583,-1.25 z m 28.21603,-0.52731 c 1.82269,-0.97752 4.06567,-3.11502 4.9844,-4.75 0.91872,-1.63498 3.57909,-5.56019 5.91192,-8.72269 l 4.2415,-5.75 -19.68767,0 -19.68767,0 3.32702,3.43261 c 1.82986,1.88794 4.1185,5.82544 5.08587,8.75 2.64538,7.99757 8.87316,10.76819 15.82463,7.04008 z m 45.04296,-1.6877 c -7.95366,-13.48044 -18.84489,-13.59623 -26.80794,-0.28499 l -2.24333,3.75 15.54784,0 15.54783,0 -2.0444,-3.46501 z m 29.61185,1.60188 c 2.28425,-1.03888 4.63724,-3.06692 5.48563,-4.72804 2.07597,-4.06472 5.04375,-8.42729 7.93129,-11.65883 l 2.45726,-2.75 -22.43709,0.0789 c -12.3404,0.0434 -21.86802,0.30811 -21.1725,0.58819 0.69552,0.28009 4.26389,4.35029 7.9297,9.04489 8.70841,11.15239 12.27524,12.84971 19.80571,9.42484 z m 42.48975,0.11313 c -0.56496,-0.9625 -1.62091,-3.55 -2.34656,-5.75 -3.23256,-9.80037 -14.77508,-8.29669 -21.10948,2.75 l -2.72375,4.75 13.60349,0 c 12.68036,0 13.53379,-0.11876 12.5763,-1.75 z m 28.58645,-0.14526 c 2.84016,-1.28994 4.49673,-2.87525 5.46303,-5.22803 1.60089,-3.89789 1.66075,-3.98619 6.52694,-9.62671 l 3.66655,-4.25 -19.81252,0 -19.81253,0 3.14548,3.25 c 3.36406,3.47584 6.24685,9.36715 6.24685,12.76616 0,4.34038 8.05982,6.0482 14.5762,3.08858 z m 46.92099,1.12995 c -0.55155,-0.40408 -2.24523,-2.5678 -3.76375,-4.80827 -7.39429,-10.90983 -18.55233,-10.63755 -24.24255,0.59157 l -2.52458,4.98201 15.76684,-0.0153 c 8.67177,-0.008 15.31558,-0.34592 14.76404,-0.75 z m 29.18767,-1.76386 c 1.25918,-0.82504 3.14903,-3.181 4.19966,-5.23545 1.05064,-2.05446 3.79467,-5.87288 6.09785,-8.48538 l 4.1876,-4.75 -22.22183,0 -22.22182,0 4.38684,4.90462 c 5.92566,6.62508 6.88684,7.86428 6.88684,8.87886 0,5.36854 12.7599,8.56954 18.68486,4.68735 z m 42.34884,0.77917 c -0.54079,-0.9625 -1.63415,-3.40761 -2.4297,-5.43358 -4.08725,-10.40876 -16.85216,-8.25312 -23.91054,4.03781 l -1.80653,3.14577 14.56501,0 c 13.57934,0 14.49847,-0.11843 13.58176,-1.75 z m 28.5425,-0.14526 c 2.84016,-1.28994 4.49673,-2.87525 5.46303,-5.22803 1.60089,-3.89789 1.66075,-3.98619 6.52694,-9.62671 l 3.66655,-4.25 -20.30345,0 -20.30345,0 2.74313,2.86321 c 1.50872,1.57477 3.79906,5.51227 5.08964,8.75 3.52132,8.83405 8.94012,11.2056 17.11761,7.49153 z m 45.05015,-0.85474 c -6.93783,-13.38864 -19.92014,-14.49736 -26.13546,-2.23201 l -2.52458,4.98201 15.04252,0 15.04253,0 -1.42501,-2.75 z m 28.82799,1.33353 c 1.86455,-0.77907 4.17217,-2.69157 5.12803,-4.25 4.53274,-7.39022 7.1203,-10.97013 9.41763,-13.02939 l 2.5,-2.24094 -22.39133,-0.0316 -22.39133,-0.0316 4.21382,4.75 c 2.3176,2.6125 5.66343,6.775 7.43517,9.25 4.49058,6.27302 9.92434,8.15887 16.08801,5.58353 z m 43.89033,-3.08539 c -2.53938,-7.45264 -7.94141,-10.49163 -15.18333,-8.54158 -3.98191,1.07221 -6.06465,3.08636 -10.64401,10.29344 l -1.74735,2.75 14.55431,0 14.55431,0 -1.53393,-4.50186 z m 31.63188,1.68803 c 1.3879,-1.02632 3.16269,-3.17195 3.94399,-4.76807 0.78129,-1.59612 2.01879,-3.50029 2.75,-4.23149 0.7312,-0.73121 1.32946,-1.7128 1.32946,-2.18131 0,-0.46852 1.165,-2.23638 2.58889,-3.92857 l 2.5889,-3.07673 -20.26321,0 -20.26321,0 2.42432,2.54919 c 1.33337,1.40205 3.77431,5.33955 5.42431,8.75 4.56792,9.44161 12.31664,12.18159 19.47655,6.88698 z m 44.26366,0.65705 c -10.45151,-12.95338 -18.09193,-15.1875 -24.17568,-7.06915 -1.12352,1.49926 -2.4426,3.2105 -2.93129,3.80274 -4.18217,5.06839 -3.31273,5.42319 13.28958,5.42319 l 15.55761,0 -1.74022,-2.15678 z M 4.7112781,39.622721 c -1.306613,-9.53279 -0.854832,-13.32671 1.702743,-14.29909 2.598371,-0.9879 5.8876479,-4.76372 9.6613329,-11.090409 8.308141,-13.9288156 39,-11.2187255 39,3.443709 0,9.05002 15.469228,9.76014 20.035855,0.91975 8.83823,-17.1096545 41.964151,-18.5659646 41.964151,-1.84486 0,9.41583 15.12642,11.46393 18.31718,2.48012 6.90648,-19.4456346 32.6202,-20.1905346 41.80797,-1.21114 5.0015,10.33173 14.44573,10.15302 20.64973,-0.39075 10.00969,-17.0116146 41.22512,-17.1207246 41.22512,-0.14411 0,8.66669 14.31541,10.38042 17.22894,2.06251 6.36873,-18.1822645 41.77106,-19.9690046 41.77106,-2.10817 0,8.13008 13.62019,10.50402 18.70522,3.26024 9.28501,-13.2268244 13.87959,-16.4382442 23.51815,-16.4382442 7.72495,0 19.77663,7.6475402 19.77663,12.5495242 0,9.45812 16.41981,11.45672 19.15383,2.33138 5.62594,-18.7777146 29.77256,-19.9369146 41.2815,-1.98179 7.55989,11.7942 11.80799,11.62114 22.07017,-0.899101 9.48531,-11.5724631 18.01626,-14.7255335 28.27662,-10.4511933 4.0607,1.6916399 11.21788,8.1245613 11.21788,10.0827123 0,0.674092 0.60393,1.829552 1.34206,2.567682 0.73814,0.73814 1.86843,2.32559 2.51177,3.52768 3.26639,6.10331 14.13998,4.36352 16.22511,-2.59603 5.69911,-19.0219646 29.76336,-20.3180546 41.35905,-2.22759 4.82552,7.5283 8.55046,9.81202 13.15115,8.06284 2.5374,-0.96471 8.41086,-6.71364 8.41086,-8.23253 0,-4.683734 12.81236,-12.7423442 20.21016,-12.7116242 8.49346,0.0353 20.78984,8.0087002 20.78984,13.4809342 0,0.82341 0.37777,1.49712 0.83948,1.49712 0.46172,0 1.33966,1.09775 1.95098,2.43946 3.19751,7.01777 17.20954,3.82831 17.20954,-3.91728 0,-5.550224 12.27351,-13.4652342 20.93428,-13.5002342 8.30162,-0.0335 20.06572,7.3010602 20.06572,12.5104742 0,1.98283 6.74494,8.46758 8.80732,8.46758 1.44197,0 2.37522,1.02308 3.19268,3.5 0.63531,1.925 1.57021,3.5 2.07755,3.5 0.50735,0 0.92245,2.7 0.92245,6 l 0,6 -338.36408,0 -338.3640779,0 -0.635924,-4.63957 z M 46.726164,27.512291 c -1.840225,-2.6125 -3.633151,-5.55782 -3.984279,-6.54516 -2.504077,-7.041203 -15.377139,-4.690371 -17.349538,3.16829 -0.333085,1.32712 -2.00317,3.68538 -3.711301,5.24059 l -3.105692,2.82765 15.748337,0.0293 15.748337,0.0293 -3.345864,-4.75 z m 61.276656,-1.5 c -5.33035,-8.26889 -6.07318,-8.92374 -10.25696,-9.04234 -4.628101,-0.13118 -7.892171,1.67802 -10.140561,5.6207 -0.99478,1.7444 -3.18424,4.63414 -4.86548,6.42164 l -3.0568,3.25 16.17436,0 16.174361,0 -4.02892,-6.25 z m 62.38217,4 c -1.12146,-1.2375 -3.25255,-4.36173 -4.73578,-6.94274 -3.8785,-6.74909 -15.57385,-9.217883 -15.57385,-3.28749 0,0.70242 -1.32596,3.79783 -2.94658,6.87868 l -2.94659,5.60155 14.1209,0 14.1209,0 -2.039,-2.25 z m 62.48415,0.5 c -0.83391,-0.9625 -2.7781,-3.94157 -4.32043,-6.62015 -5.28069,-9.171087 -13.99167,-9.720671 -18.98636,-1.19786 -1.37767,2.3508 -3.40083,5.08504 -4.49592,6.07609 -3.51053,3.17699 -2.2782,3.49192 13.66392,3.49192 14.82044,0 15.57416,-0.0933 14.13879,-1.75 z m 56.85703,-3 c -1.84023,-2.6125 -3.63315,-5.55782 -3.98428,-6.54516 -2.31261,-6.502808 -12.0535,-5.406924 -14.72141,1.6562 -1.00988,2.67358 -2.53566,5.63401 -3.39063,6.57874 -2.62158,2.89682 -1.98385,3.06022 11.94385,3.06022 l 13.49833,0 -3.34586,-4.75 z m 61.27665,-1.5 c -8.38681,-13.010333 -13.44281,-12.968953 -22.7199,0.18596 l -4.27647,6.06404 15.51265,0 15.51264,0 -4.02892,-6.25 z m 61.59519,1.5 c -6.73977,-9.24152 -7.48798,-9.99307 -10.56041,-10.60755 -4.539,-0.907802 -8.54039,1.5278 -10.00538,6.09015 -0.66534,2.07207 -1.75938,4.4424 -2.43118,5.2674 -3.24415,3.98391 -3.19626,4 11.9087,4 l 14.55241,0 -3.46414,-4.75 z m 62.74096,0.75 c -1.44038,-2.2 -2.94016,-4 -3.33283,-4 -0.39268,0 -1.00376,-1.15466 -1.35796,-2.5659 -1.74108,-6.936997 -12.32127,-6.407945 -17.16355,0.85825 -1.54221,2.31421 -3.92439,5.44515 -5.29374,6.95765 l -2.48971,2.75 16.12833,0 16.12834,0 -2.61888,-4 z m 60.25904,-0.75 c -1.90528,-2.6125 -4.38295,-5.95299 -5.50593,-7.4233 -4.38042,-5.735258 -12.80728,-4.109222 -15.05986,2.9059 -0.66534,2.07207 -1.75938,4.4424 -2.43118,5.2674 -3.24415,3.98391 -3.19626,4 11.9087,4 l 14.55241,0 -3.46414,-4.75 z m 63.25729,1.5 c -1.25397,-1.7875 -2.5141,-3.475 -2.80029,-3.75 -0.2862,-0.275 -1.07471,-1.76089 -1.75224,-3.30196 -3.02885,-6.889236 -13.20362,-6.821435 -17.34221,0.11557 -1.20961,2.02751 -3.56689,5.14889 -5.23841,6.93639 l -3.03912,3.25 16.2261,0 16.2261,0 -2.27993,-3.25 z m 60.73221,-0.5 c -1.38433,-2.0625 -2.91424,-4.65 -3.3998,-5.75 -3.76992,-8.540589 -16.63811,-7.488655 -18.61716,1.52189 -0.3347,1.5239 -1.48304,3.56213 -2.55187,4.5294 -3.43608,3.10961 -2.20002,3.44871 12.57124,3.44871 l 14.51456,0 -2.51697,-3.75 z"/>
</svg>
