<?xml version="1.0" encoding="UTF-8"?>
<svg xmlns="http://www.w3.org/2000/svg"
     xmlns:xlink="http://www.w3.org/1999/xlink" xmlns:ev="http://www.w3.org/2001/xml-events"
     version="1.1" baseProfile="full"
     width="458" height="511">

    <path
       style="fill:#000000"
       d="m 113,403 0,-104 -54.5,0 -54.5,0 0,-6 0,-6 54.5,0 54.5,0 0,-141.5 L 113,4 239.5,4 366,4 l 0,141.5 0,141.5 44,0 44,0 0,6 0,6 -44,0 -44,0 0,104 0,104 -126.5,0 -126.5,0 0,-104 z m 240,55 0,-37 -113.5,0 -113.5,0 0,37 0,37 113.5,0 113.5,0 0,-37 z m 0,-104.5 0,-54.5 -113.5,0 -113.5,0 0,54.5 0,54.5 113.5,0 113.5,0 0,-54.5 z m 0,-120.5 0,-54 -113.5,0 -113.5,0 0,54 0,54 113.5,0 113.5,0 0,-54 z m 0,-142 0,-75 -113.5,0 -113.5,0 0,75 0,75 113.5,0 113.5,0 0,-75 z"/>
</svg>
