<?xml version="1.0" encoding="UTF-8"?>
<svg xmlns="http://www.w3.org/2000/svg"
     xmlns:xlink="http://www.w3.org/1999/xlink" xmlns:ev="http://www.w3.org/2001/xml-events"
     version="1.1" baseProfile="full"
     width="432" height="382">
    <path
       style="fill:#000000"
       d="M 4,191 4,4 l 212,0 212,0 0,187 0,187 -212,0 -212,0 0,-187 z m 412,60 0,-115 -200,0 -200,0 0,115 0,115 200,0 200,0 0,-115 z m -244.84078,41.0501 c -49.8239,-12.23524 -67.48034,-74.85019 -31.30693,-111.02361 42.34304,-42.34303 113.74294,-12.49843 113.26734,47.34485 -0.33631,42.31626 -40.83146,73.77878 -81.96041,63.67876 z m 29.90017,-12.45481 c 1.38972,-0.59085 -13.37643,-74.24566 -15.26278,-76.13201 -0.40803,-0.40803 -15.93036,70.01801 -16.17794,73.40065 -0.24681,3.37196 24.81337,5.54902 31.44072,2.73136 z m 26.29957,-16.75553 c 26.29489,-30.05901 11.5642,-77.3103 -27.21958,-87.31161 -3.49835,-0.90213 -6.54277,-1.45809 -6.76539,-1.23547 -0.22262,0.22261 4.43966,22.69045 10.36062,49.92851 l 10.76539,49.52376 4.16078,-2.85913 c 2.28843,-1.57252 6.20261,-5.19325 8.69818,-8.04606 z M 167.46275,225.5 c 5.33176,-24.75 10.05607,-46.40281 10.49845,-48.11736 l 0.80434,-3.11737 -4.13277,0.88245 c -33.66916,7.18922 -51.51588,47.161 -34.90462,78.1768 3.37107,6.29432 15.86717,19.50873 17.14796,18.13368 0.49089,-0.52701 5.25488,-21.2082 10.58664,-45.9582 z M 206,69.99216 C 308.575,41.34762 393.625,17.51669 395,17.03453 396.44975,16.52617 317.36588,16.12473 206.75,16.07895 L 16,16 16,69.56739 c 0,50.55211 0.0985,53.53751 1.75,53.03657 C 18.7125,122.31201 103.425,98.6367 206,69.99216 z M 416,74 C 416,42.41951 415.64901,25 415.01268,25 414.13805,25 67.99985,121.52466 65.5,122.46568 c -0.55,0.20703 78.0875,0.41195 174.75,0.45537 L 416,123 416,74 z"/>
</svg>
