<?xml version="1.0" encoding="UTF-8"?>
<svg xmlns="http://www.w3.org/2000/svg"
     xmlns:xlink="http://www.w3.org/1999/xlink" xmlns:ev="http://www.w3.org/2001/xml-events"
     version="1.1" baseProfile="full"
     width="572" height="445">

    <path
       style="fill:#000000"
       d="m 159,334 0,-107 -77.5,0 -77.5,0 0,-6.5 0,-6.5 77.5,0 77.5,0 0,-105 0,-105 124.5,0 124.5,0 0,60.5 0,60.5 80,0 80,0 0,6 0,6 -80,0 -80,0 0.0171,27.75 0.0171,27.75 5.52183,2.39073 c 23.0706,9.98866 22.5183,45.65933 -0.84511,54.5819 L 408,251.27172 l 0,25.86414 0,25.86414 80,0 80,0 0,6.5 0,6.5 -80,0 -80,0 0,62.5 0,62.5 -124.5,0 -124.5,0 0,-107 z m 236,6.01905 0,-88.98095 -2.75,-0.67903 c -13.43324,-3.31693 -24.04548,-22.9392 -19.50869,-36.07199 L 373.70412,211.5 301.60206,163.21189 c -39.65613,-26.55845 -72.72122,-48.67003 -73.47796,-49.13683 -1.22743,-0.75713 0.67359,-4.56397 5.44001,-10.89378 0.132,-0.17529 33.26266,21.69945 73.62369,48.61055 l 73.38369,48.92928 3.46425,-2.89405 c 1.90534,-1.59173 5.15176,-3.40021 7.21426,-4.01885 L 395,192.68342 395,104.34171 395,16 283.5,16 172,16 l 0,206.5 0,206.5 111.5,0 111.5,0 0,-88.98095 z"/>
</svg>
