<?xml version="1.0" encoding="UTF-8"?>
<svg xmlns="http://www.w3.org/2000/svg"
     xmlns:xlink="http://www.w3.org/1999/xlink" xmlns:ev="http://www.w3.org/2001/xml-events"
     version="1.1" baseProfile="full"
     width="379" height="386">

    <path
       style="fill:#000000"
       d="M 4,193 4,4 l 126,0 126,0 0,92 0,92 59.5,0 59.5,0 0,6 0,6 -59.5,0 -59.5,0 0,91 0,91 -126,0 -126,0 0,-189 z m 239,0 0,-177 -113.5,0 -113.5,0 0,177 0,177 113.5,0 113.5,0 0,-177 z M 76.159334,285.79763 c -1.830329,-2.766 -2.95245,-5.37897 -2.493602,-5.80659 0.672375,-0.62662 86.978668,-57.80465 90.956098,-60.25853 0.67042,-0.41362 2.51047,1.41228 4.57286,4.53769 l 3.45103,5.2298 -45.07286,29.82747 c -24.79007,16.4051 -45.750739,30.20362 -46.579258,30.66336 -1.133232,0.62883 -2.330781,-0.40991 -4.834268,-4.1932 z m -0.183733,-60.83565 c -1.778089,-2.77091 -3.0625,-5.16567 -2.854245,-5.32169 C 75.958628,217.51472 164.87505,159 165.2677,159 c 0.29958,0 2.13352,2.21154 4.07543,4.91453 l 3.53073,4.91453 -46.26888,30.58547 C 101.15709,216.23654 80.082386,230 79.772294,230 c -0.310091,0 -2.018603,-2.26711 -3.796693,-5.03802 z m 0.360944,-59.33469 c -1.7399,-2.80409 -2.971497,-5.40893 -2.736882,-5.78855 0.350379,-0.56692 87.368537,-59.02366 91.022167,-61.146529 0.65261,-0.379189 2.56445,1.535599 4.57094,4.577989 L 172.64188,108.5 126.07094,139.61281 79.5,170.72562 76.336545,165.62729 z"/>
</svg>
