<?xml version="1.0" encoding="UTF-8"?>
<svg xmlns="http://www.w3.org/2000/svg"
     xmlns:xlink="http://www.w3.org/1999/xlink" xmlns:ev="http://www.w3.org/2001/xml-events"
     version="1.1" baseProfile="full"
     width="329" height="343">

  <path
     style="fill:#000000;fill-opacity:1;fill-rule:nonzero;stroke:#000000;stroke-opacity:1"
     d="m 141.58992,309.72965 -16.91008,-31.01537 -60.339921,0 -60.3399204,0 0,-136.5 0,-136.4999986 160.0000014,0 160,0 0,136.4923086 0,136.49232 -61.07359,0.25768 -61.0736,0.25769 -16.49708,30.07208 c -16.23868,29.60104 -16.54689,30.07257 -19.67641,30.10345 -1.74863,0.0173 -4.07932,0.32923 -5.17932,0.69329 -1.76963,0.58567 -3.94782,-2.91066 -18.91008,-30.35345 z m 35.32547,-11.33528 c 5.65297,-10.35095 10.07628,-19.02176 9.82958,-19.26845 -0.24669,-0.2467 -11.015,-0.32774 -23.92957,-0.18009 l -23.48104,0.26845 11.9643,21.79836 11.96431,21.79836 1.68715,-2.79836 c 0.92793,-1.5391 6.31231,-11.26732 11.96527,-21.61827 z M 312,141.71428 l 0,-123.999999 -148,0 -148.000001,0 0,123.999999 0,124 148.000001,0 148,0 0,-124 z"
   />
</svg>