<?xml version="1.0" encoding="UTF-8"?>
<svg xmlns="http://www.w3.org/2000/svg"
     xmlns:xlink="http://www.w3.org/1999/xlink" xmlns:ev="http://www.w3.org/2001/xml-events"
     version="1.1" baseProfile="full"
     width="941" height="379">

    <path
       style="fill:#000000"
       d="m 193.27777,346.34708 -58,-26.83965 -0.25735,-64.14261 -0.25735,-64.1426 -4.74265,0.0322 c -2.60846,0.0177 -21.95514,3.55935 -42.992643,7.87032 l -38.25,7.83811 0,-7.87031 0,-7.87032 -22.499999,0 -22.5000006,0 0,-3.5 0,-3.5 22.5000006,0 22.499999,0 0,-7.60841 c 0,-7.38268 0.06675,-7.59247 2.25,-7.07127 12.311287,2.93902 75.606583,14.67968 79.139943,14.67968 l 4.61005,0 0,-64.32961 0,-64.32961 58.34164,-26.67039 c 32.0879,-14.66871 58.7504,-26.65978 59.25,-26.64682 1.29807,0.0337 5.59926,10.19704 4.67672,11.05072 -0.4226,0.39105 -25.18086,11.8549 -55.01836,25.47522 l -54.25,24.76421 0,60.34314 0,60.34314 53,0 53,0 0,3.5 0,3.5 -53.00781,0 -53.0078,0 0.2578,60.17673 0.25781,60.17674 54.5,25.17405 c 29.975,13.84573 54.5,25.5787 54.5,26.07327 0,1.9609 -4.06156,10.39085 -5,10.37772 -0.55,-0.008 -27.1,-12.09184 -59,-26.85365 z m 492,22.12139 c -1.1,-2.61044 -2,-5.1509 -2,-5.64546 0,-0.49457 24.525,-12.22754 54.5,-26.07327 l 54.5,-25.17405 0.25781,-60.17674 0.2578,-60.17673 -4.7578,0.0342 c -2.6168,0.0188 -21.97031,3.53552 -43.00781,7.81488 l -38.25,7.78066 0,-7.81488 0,-7.81488 -10.5,0 -10.5,0 0,-3.5 0,-3.5 10.5,0 10.5,0 0,-7.60841 c 0,-7.3856 0.0659,-7.59239 2.25,-7.06143 11.5456,2.80676 75.5103,14.66986 79.09835,14.66986 l 4.65165,0 0,-60.34314 0,-60.34314 -54.25,-24.76421 c -29.8375,-13.62032 -54.59576,-25.08417 -55.01836,-25.47522 -0.92254,-0.85368 3.37865,-11.01704 4.67672,-11.05072 0.4996,-0.013 27.1621,11.97811 59.25,26.64682 l 58.34164,26.67039 0,64.32961 0,64.32961 65.5,0 65.5,0 0,3.5 0,3.5 -65.49265,0 -65.49265,0 -0.25735,64.1426 -0.25735,64.14261 -58,26.83965 c -31.9,14.76181 -58.45,26.84595 -59,26.85365 -0.55,0.008 -1.9,-2.12182 -3,-4.73226 z"/>
</svg>
