<?xml version="1.0" encoding="UTF-8"?>
<svg xmlns="http://www.w3.org/2000/svg"
     xmlns:xlink="http://www.w3.org/1999/xlink" xmlns:ev="http://www.w3.org/2001/xml-events"
     version="1.1" baseProfile="full"
     width="566" height="390">
    <path
       style="fill:#000000"
       d="m 160,293.5 0,-92.5 -78,0 -78,0 0,-6 0,-6 78,0 78,0 0,-92.5 0,-92.5 124,0 124,0 0,92.5 0,92.5 77,0 77,0 0,6 0,6 -77,0 -77,0 0,92.5 0,92.5 -124,0 -124,0 0,-92.5 z M 395,203.83333 C 395,110.24167 394.81555,33.854167 394.5901,34.083333 393.54518,35.145503 260,254.21936 260,254.87133 c 0,0.40758 9.7875,4.05135 21.75,8.09727 11.9625,4.04591 29.51475,10.03443 39.00501,13.30782 l 17.25501,5.95162 -3.21308,5.84458 c -1.76719,3.21452 -3.00694,6.01002 -2.75501,6.21223 0.25194,0.20221 11.03307,6.78354 23.95807,14.62519 12.925,7.84164 23.77815,14.55733 24.11811,14.92375 0.33997,0.36641 -0.80909,3.00123 -2.55345,5.85514 l -3.17156,5.18894 -24.40856,-14.86692 c -13.42471,-8.17681 -24.77027,-14.64338 -25.21234,-14.37016 -0.44207,0.27321 -1.82511,2.50642 -3.07342,4.96268 l -2.26964,4.46593 -30.96457,-27.49766 c -17.03051,-15.12371 -31.20161,-27.51432 -31.49134,-27.5347 -0.58511,-0.0411 -41.5559,66.71185 -42.57411,69.36525 -0.36048,0.93939 0.0521,2.4388 0.9414,3.42149 8.5744,9.4746 7.42577,28.15673 -2.3318,37.92622 l -3.24603,3.25 92.61865,0 92.61866,0 0,-170.16667 z m -203.81393,116.9805 c 3.47266,0.0216 7.51657,0.49788 8.98647,1.05849 1.93788,0.73909 2.93383,0.69056 3.62306,-0.17652 C 205.34979,319.74058 390,17.135036 390,16.543258 390,16.244466 341.175,16 281.5,16 l -108.5,0 0,155.3295 0,155.3295 5.93607,-2.94219 c 4.72669,-2.34276 7.22244,-2.9342 12.25,-2.90298 z"/>
</svg>
