<?xml version="1.0" encoding="UTF-8"?><svg xmlns="http://www.w3.org/2000/svg"     xmlns:xlink="http://www.w3.org/1999/xlink" xmlns:ev="http://www.w3.org/2001/xml-events"     version="1.1" baseProfile="full"     width="894" height="386">
<path fill="#000" d="m132.42,286.78,0-92.5-6.4411,0c-5.0478,0-57.381,9.8216-77.309,14.509-2.1808,0.51294-2.25,0.29785-2.25-6.9898v-7.519h-22.5-22.5v-3.5-3.5h22.5,22.5v-8.0674c0-7.2127,0.18541-8.0128,1.75-7.5526,4.1628,1.2246,79.518,15.62,81.766,15.62h2.4845v-93-93h92.5,92.5v6,6h-86-86v87,87h53,53v3.5,3.5h-53-53v86.5,86.5h86,86v6,6h-92.5-92.5v-92.5zm493,86.5,0-6,86.5,0,86.5,0,0-87,0-87-3.5034,0c-1.9269,0-19.539,3.15-39.138,7s-35.798,7-35.997,7c-0.19896,0-0.36174-3.15-0.36174-7v-7h-41-41v-3.5-3.5h41,41v-8.3874-8.3874l38.739,7.8874c21.306,4.338,39.081,7.8874,39.5,7.8874,0.41866,0,0.76121-38.7,0.76121-86v-86h-86.5-86.5v-6-6h93,93v92.5,92.5h38,38v3.5,3.5h-38-38v93,93h-93-93v-6z"/>
</svg>