<?xml version="1.0" encoding="utf-8" standalone="no"?>
<!DOCTYPE svg PUBLIC "-//W3C//DTD SVG 1.1//EN"
  "http://www.w3.org/Graphics/SVG/1.1/DTD/svg11.dtd">
<svg xmlns:xlink="http://www.w3.org/1999/xlink" width="1166.4pt" height="331.194599pt" viewBox="0 0 1166.4 331.194599" xmlns="http://www.w3.org/2000/svg" version="1.1">
 <metadata>
  <rdf:RDF xmlns:dc="http://purl.org/dc/elements/1.1/" xmlns:cc="http://creativecommons.org/ns#" xmlns:rdf="http://www.w3.org/1999/02/22-rdf-syntax-ns#">
   <cc:Work>
    <dc:type rdf:resource="http://purl.org/dc/dcmitype/StillImage"/>
    <dc:date>2026-02-17T12:15:33.891154</dc:date>
    <dc:format>image/svg+xml</dc:format>
    <dc:creator>
     <cc:Agent>
      <dc:title>Matplotlib v3.10.8, https://matplotlib.org/</dc:title>
     </cc:Agent>
    </dc:creator>
   </cc:Work>
  </rdf:RDF>
 </metadata>
 <defs>
  <style type="text/css">*{stroke-linejoin: round; stroke-linecap: butt}</style>
 </defs>
 <g id="figure_1">
  <g id="patch_1">
   <path d="M 0 331.194599 
L 1166.4 331.194599 
L 1166.4 0 
L 0 0 
L 0 331.194599 
z
" style="fill: none"/>
  </g>
  <g id="axes_1">
   <g id="line2d_1">
    <path d="M 440.243638 165.5973 
L 728.238727 165.5973 
" clip-path="url(#pdd71ba5fbf)" style="fill: none; stroke: #000000; stroke-width: 0.72; stroke-linecap: square"/>
   </g>
   <g id="patch_2">
    <path d="M 728.238728 165.5973 
C 728.238728 86.069651 663.768831 21.599755 584.241183 21.599755 
C 504.713535 21.599755 440.243638 86.069651 440.243638 165.5973 
" clip-path="url(#pdd71ba5fbf)" style="fill: none; stroke: #000000; stroke-width: 0.72; stroke-linejoin: miter"/>
   </g>
   <g id="patch_3">
    <path d="M 440.243638 165.5973 
C 440.243638 245.124948 504.713535 309.594845 584.241183 309.594845 
C 663.768831 309.594845 728.238728 245.124948 728.238728 165.5973 
" clip-path="url(#pdd71ba5fbf)" style="fill: none; stroke: #000000; stroke-width: 0.72; stroke-linejoin: miter"/>
   </g>
   <g id="patch_4">
    <path d="M 482.437083 82.38341 
L 688.724288 81.381406 
L 688.724288 154.527157 
L 482.216496 154.527157 
z
" clip-path="url(#pdd71ba5fbf)" style="fill: #ffffff"/>
   </g>
   <g id="patch_5">
    <path d="M 482.216496 176.571092 
L 688.724288 176.571092 
L 688.724288 251.720834 
L 482.216496 251.720834 
z
" clip-path="url(#pdd71ba5fbf)" style="fill: #ffffff"/>
   </g>
   <g id="patch_6">
    <path d="M 509.885016 118.824618 
Q 509.885016 126.407572 513.185369 133.204728 
Q 516.485722 140.001883 522.889978 143.930875 
Q 529.294234 147.859867 537.427247 147.859867 
Q 544.931621 147.859867 551.414457 144.304129 
Q 557.897294 140.748392 561.433386 133.833366 
Q 564.969479 126.918341 564.969479 118.15669 
Q 564.969479 109.512908 561.610191 102.696108 
Q 558.250903 95.879307 551.846647 92.068185 
Q 545.44239 88.257063 537.466537 88.257063 
Q 525.286663 88.257063 517.585839 96.370431 
Q 509.885016 104.483799 509.885016 118.824618 
M 781.771239 146.877619 
L 789.393482 146.877619 
L 789.393482 96.075757 
L 808.449092 96.075757 
L 808.449092 89.278601 
L 762.794209 89.278601 
L 762.794209 96.075757 
L 781.771239 96.075757 
L 781.771239 146.877619 
M 294.301243 146.877619 
L 301.923487 146.877619 
L 301.923487 96.075757 
L 320.979097 96.075757 
L 320.979097 89.278601 
L 275.324213 89.278601 
L 275.324213 96.075757 
L 294.301243 96.075757 
L 294.301243 146.877619 
M 205.938221 147.859867 
L 211.831708 147.859867 
L 215.249931 131.122362 
L 227.586965 131.122362 
L 224.208032 147.859867 
L 230.101519 147.859867 
L 233.519742 131.122362 
L 245.621036 131.122362 
L 245.621036 125.268165 
L 234.69844 125.268165 
L 237.645183 111.005925 
L 245.621036 111.005925 
L 245.621036 105.151727 
L 238.823881 105.151727 
L 242.242104 88.296353 
L 236.309326 88.296353 
L 232.891103 105.151727 
L 220.51478 105.151727 
L 223.933003 88.296353 
L 218.039515 88.296353 
L 214.621292 105.151727 
L 202.716448 105.151727 
L 202.716448 111.005925 
L 213.442595 111.005925 
L 210.535141 125.268165 
L 202.716448 125.268165 
L 202.716448 131.122362 
L 209.356443 131.122362 
L 205.938221 147.859867 
M 815.049798 162.947195 
Q 817.564353 163.811573 819.607428 163.811573 
Q 822.986361 163.811573 825.422336 162.181041 
Q 827.858311 160.55051 829.744227 157.053707 
Q 831.158664 154.460573 833.712508 147.584837 
L 849.585635 105.151727 
L 842.51345 105.151727 
L 833.594639 129.472186 
Q 831.905172 134.108396 830.687185 138.980346 
Q 829.351328 133.911946 827.661861 129.315026 
L 818.97879 105.151727 
L 811.356546 105.151727 
L 827.190382 146.956199 
Q 826.758193 148.095606 826.561743 148.684955 
Q 825.068727 152.888976 824.400798 153.949804 
Q 823.49713 155.364241 822.082693 156.150039 
Q 820.668256 156.935837 818.310861 156.935837 
Q 816.582105 156.935837 814.264 156.307199 
L 815.049798 162.947195 
M 398.144493 150.335131 
Q 397.987333 157.092997 402.584253 160.452285 
Q 407.181174 163.811573 414.646258 163.811573 
Q 420.932644 163.811573 425.23489 161.454178 
Q 429.537136 159.096783 431.521277 155.030276 
Q 433.505418 150.96377 433.505418 141.219871 
L 433.505418 105.151727 
L 426.983292 105.151727 
L 426.983292 110.180837 
Q 422.189922 104.208769 414.803417 104.208769 
Q 409.263539 104.208769 405.157743 106.959064 
Q 401.051947 109.709358 398.891001 114.758112 
Q 396.730056 119.806866 396.730056 125.778934 
Q 396.730056 134.462005 401.444846 140.669812 
Q 406.159636 146.877619 414.764127 146.877619 
Q 421.679153 146.877619 426.315363 141.41632 
Q 426.354653 148.331346 425.804594 150.492291 
Q 424.861636 154.028384 422.189922 155.992879 
Q 419.518207 157.957375 414.606968 157.957375 
Q 410.049337 157.957375 407.416913 155.992879 
Q 405.452417 154.539153 405.020228 151.356669 
L 398.144493 150.335131 
M 855.596992 162.868615 
L 862.669177 162.868615 
L 862.669177 142.555728 
Q 864.476513 144.834543 867.285742 146.32756 
Q 870.094971 147.820577 873.631064 147.820577 
Q 878.463723 147.820577 882.844549 145.089928 
Q 887.225375 142.359278 889.523835 137.231944 
Q 891.822295 132.10461 891.822295 125.700354 
Q 891.822295 119.728286 889.739929 114.718822 
Q 887.657564 109.709358 883.571412 106.959064 
Q 879.485261 104.208769 874.141833 104.208769 
Q 870.055681 104.208769 867.187517 105.800011 
Q 864.319353 107.391253 862.040538 110.573736 
L 862.040538 105.151727 
L 855.596992 105.151727 
L 855.596992 162.868615 
M 580.410416 146.877619 
L 580.410416 141.65206 
Q 584.614437 147.820577 592.000941 147.820577 
Q 599.426736 147.820577 604.730874 141.966379 
Q 610.035013 136.112182 610.035013 125.386034 
Q 610.035013 120.867694 608.777736 116.899412 
Q 607.520458 112.931131 605.300578 110.121902 
Q 603.080698 107.312673 599.64283 105.760721 
Q 596.204962 104.208769 592.354551 104.208769 
Q 585.400235 104.208769 580.921185 109.827227 
L 580.921185 89.278601 
L 573.849 89.278601 
L 573.849 146.877619 
L 580.410416 146.877619 
M 472.756044 133.440467 
Q 471.145158 137.919518 468.394864 139.962593 
Q 465.644569 142.005669 461.754868 142.005669 
Q 456.529309 142.005669 453.032506 138.351707 
Q 449.535704 134.697745 449.142805 127.822009 
L 480.260418 127.822009 
Q 480.299708 126.564732 480.299708 125.936093 
Q 480.299708 115.602845 474.99557 109.905807 
Q 469.691431 104.208769 461.322679 104.208769 
Q 452.678897 104.208769 447.256889 110.023677 
Q 441.83488 115.838585 441.83488 126.368282 
Q 441.83488 136.544371 447.197954 142.182474 
Q 452.561027 147.820577 461.715578 147.820577 
Q 468.984212 147.820577 473.659712 144.284484 
Q 478.335213 140.748392 480.063969 134.344135 
L 472.756044 133.440467 
M 928.911976 133.440467 
Q 927.30109 137.919518 924.550796 139.962593 
Q 921.800501 142.005669 917.9108 142.005669 
Q 912.685241 142.005669 909.188438 138.351707 
Q 905.691636 134.697745 905.298736 127.822009 
L 936.41635 127.822009 
Q 936.45564 126.564732 936.45564 125.936093 
Q 936.45564 115.602845 931.151502 109.905807 
Q 925.847363 104.208769 917.478611 104.208769 
Q 908.834829 104.208769 903.41282 110.023677 
Q 897.990812 115.838585 897.990812 126.368282 
Q 897.990812 136.544371 903.353886 142.182474 
Q 908.716959 147.820577 917.87151 147.820577 
Q 925.140144 147.820577 929.815644 144.284484 
Q 934.491144 140.748392 936.219901 134.344135 
L 928.911976 133.440467 
M 665.080186 133.440467 
Q 663.4693 137.919518 660.719005 139.962593 
Q 657.968711 142.005669 654.07901 142.005669 
Q 648.853451 142.005669 645.356648 138.351707 
Q 641.859846 134.697745 641.466946 127.822009 
L 672.58456 127.822009 
Q 672.62385 126.564732 672.62385 125.936093 
Q 672.62385 115.602845 667.319711 109.905807 
Q 662.015573 104.208769 653.64682 104.208769 
Q 645.003039 104.208769 639.58103 110.023677 
Q 634.159022 115.838585 634.159022 126.368282 
Q 634.159022 136.544371 639.522095 142.182474 
Q 644.885169 147.820577 654.03972 147.820577 
Q 661.308354 147.820577 665.983854 144.284484 
Q 670.659354 140.748392 672.388111 134.344135 
L 665.080186 133.440467 
M 355.122034 141.73064 
Q 355.436353 144.677383 356.536471 146.877619 
L 363.922975 146.877619 
Q 362.587118 144.480934 362.135284 141.868154 
Q 361.68345 139.255375 361.68345 129.393606 
L 361.68345 119.964026 
Q 361.68345 115.249236 361.329841 113.4419 
Q 360.701202 110.534446 359.129606 108.628885 
Q 357.558009 106.723324 354.218366 105.466047 
Q 350.878723 104.208769 345.535294 104.208769 
Q 340.152576 104.208769 336.066425 105.682141 
Q 331.980273 107.155513 329.819328 109.886162 
Q 327.658382 112.616811 326.715424 117.056572 
L 333.63045 117.99953 
Q 334.769857 113.559769 337.146897 111.811368 
Q 339.523937 110.062967 344.513757 110.062967 
Q 349.857185 110.062967 352.568189 112.459652 
Q 354.571975 114.227698 354.571975 118.549589 
Q 354.571975 118.942488 354.532685 120.396215 
Q 350.485824 121.810652 341.920622 122.83219 
Q 337.716601 123.342959 335.634235 123.893018 
Q 332.805361 124.678816 330.546191 126.211123 
Q 328.287021 127.743429 326.892229 130.277629 
Q 325.497437 132.811829 325.497437 135.876442 
Q 325.497437 141.102001 329.190689 144.461289 
Q 332.883941 147.820577 339.759677 147.820577 
Q 343.924408 147.820577 347.558725 146.44543 
Q 351.193042 145.070283 355.122034 141.73064 
M 708.495544 131.593841 
Q 707.749036 136.89798 704.959452 139.451825 
Q 702.169867 142.005669 698.005136 142.005669 
Q 692.818867 142.005669 689.597094 138.194547 
Q 686.375321 134.383425 686.375321 125.975383 
Q 686.375321 117.685211 689.714964 113.854444 
Q 693.054607 110.023677 698.398036 110.023677 
Q 701.934128 110.023677 704.429038 112.145332 
Q 706.923947 114.266988 707.906195 118.471009 
L 714.781931 117.410181 
Q 713.563943 111.084505 709.242052 107.646637 
Q 704.920162 104.208769 698.123006 104.208769 
Q 692.740288 104.208769 688.163012 106.742969 
Q 683.585737 109.277169 681.346212 114.345568 
Q 679.106686 119.413967 679.106686 126.171833 
Q 679.106686 136.622951 684.3126 142.221764 
Q 689.518514 147.820577 698.083716 147.820577 
Q 704.920162 147.820577 709.615307 143.75407 
Q 714.310452 139.687564 715.449859 132.497509 
L 708.495544 131.593841 
M 949.735632 163.811573 
Q 955.55054 156.425069 959.617046 146.52401 
Q 963.683552 136.622951 963.683552 126.014673 
Q 963.683552 116.663673 960.658229 108.098471 
Q 957.122136 98.158122 949.735632 88.296353 
L 944.667233 88.296353 
Q 949.460603 96.547236 950.992909 100.083328 
Q 953.389594 105.505337 954.725451 111.398824 
Q 956.414918 118.667459 956.414918 126.053963 
Q 956.414918 144.952413 944.667233 163.811573 
L 949.735632 163.811573 
M 265.462444 163.811573 
L 270.530844 163.811573 
Q 258.783159 144.952413 258.783159 126.053963 
Q 258.783159 118.628169 260.472625 111.280954 
Q 261.847772 105.387467 264.244457 99.965458 
Q 265.776764 96.468656 270.530844 88.296353 
L 265.462444 88.296353 
Q 258.07594 98.158122 254.539848 108.098471 
Q 251.514524 116.663673 251.514524 126.014673 
Q 251.514524 136.622951 255.561385 146.52401 
Q 259.608247 156.425069 265.462444 163.811573 
M 504.384427 140.551942 
Q 502.459221 140.826972 501.280524 140.826972 
Q 499.708927 140.826972 498.864194 140.316203 
Q 498.019461 139.805434 497.646207 138.941056 
Q 497.272952 138.076677 497.272952 135.051354 
L 497.272952 110.652316 
L 504.384427 110.652316 
L 504.384427 105.151727 
L 497.272952 105.151727 
L 497.272952 90.575168 
L 490.240057 94.818479 
L 490.240057 105.151727 
L 485.053788 105.151727 
L 485.053788 110.652316 
L 490.240057 110.652316 
L 490.240057 134.658455 
Q 490.240057 141.023421 491.104435 143.007562 
Q 491.968814 144.991703 494.090469 146.20969 
Q 496.212125 147.427678 500.062536 147.427678 
Q 502.419931 147.427678 505.405965 146.799039 
L 504.384427 140.551942 
M 736.941444 140.551942 
Q 735.016238 140.826972 733.83754 140.826972 
Q 732.265944 140.826972 731.42121 140.316203 
Q 730.576477 139.805434 730.203223 138.941056 
Q 729.829969 138.076677 729.829969 135.051354 
L 729.829969 110.652316 
L 736.941444 110.652316 
L 736.941444 105.151727 
L 729.829969 105.151727 
L 729.829969 90.575168 
L 722.797074 94.818479 
L 722.797074 105.151727 
L 717.610805 105.151727 
L 717.610805 110.652316 
L 722.797074 110.652316 
L 722.797074 134.658455 
Q 722.797074 141.023421 723.661452 143.007562 
Q 724.52583 144.991703 726.647486 146.20969 
Q 728.769141 147.427678 732.619553 147.427678 
Q 734.976948 147.427678 737.962982 146.799039 
L 736.941444 140.551942 
M 372.566757 146.877619 
L 379.638942 146.877619 
L 379.638942 125.032425 
Q 379.638942 120.553375 380.81764 116.781543 
Q 381.603438 114.306278 383.450064 112.911486 
Q 385.29669 111.516694 387.614795 111.516694 
Q 390.20793 111.516694 392.801064 113.049001 
L 395.237039 106.487585 
Q 391.543787 104.208769 387.968404 104.208769 
Q 385.49314 104.208769 383.430419 105.623206 
Q 381.367698 107.037643 378.931724 111.477404 
L 378.931724 105.151727 
L 372.566757 105.151727 
L 372.566757 146.877619 
M 609.642114 163.065064 
Q 612.313828 163.811573 615.181992 163.811573 
Q 621.11477 163.811573 623.668614 159.882581 
Q 625.6724 156.857258 625.6724 149.156434 
L 625.6724 105.151727 
L 618.600215 105.151727 
L 618.600215 148.999274 
Q 618.600215 154.735602 617.539387 156.169684 
Q 616.478559 157.603766 614.317614 157.603766 
Q 613.099627 157.603766 610.977971 157.053707 
L 609.642114 163.065064 
M 745.860255 146.877619 
L 753.914688 146.877619 
L 753.914688 138.823186 
L 745.860255 138.823186 
L 745.860255 146.877619 
M 618.600215 97.490194 
L 625.6724 97.490194 
L 625.6724 89.278601 
L 618.600215 89.278601 
L 618.600215 97.490194 
M 517.742999 118.942488 
Q 517.742999 105.937526 523.577552 100.378002 
Q 529.412104 94.818479 537.505827 94.818479 
Q 543.202865 94.818479 547.78014 97.706288 
Q 552.357415 100.594097 554.734455 105.839301 
Q 557.111495 111.084505 557.111495 118.1174 
Q 557.111495 129.236446 551.551972 135.287093 
Q 545.992449 141.337741 537.387957 141.337741 
Q 528.940625 141.337741 523.341812 135.346028 
Q 517.742999 129.354316 517.742999 118.942488 
M 216.428628 125.268165 
L 219.336082 111.005925 
L 231.712406 111.005925 
L 228.765662 125.268165 
L 216.428628 125.268165 
M 403.99869 125.268165 
Q 403.99869 117.724501 407.299043 113.893734 
Q 410.599396 110.062967 415.314186 110.062967 
Q 420.107556 110.062967 423.506134 113.952669 
Q 426.904712 117.84237 426.904712 125.503904 
Q 426.904712 133.519047 423.604359 137.271234 
Q 420.304006 141.023421 415.432056 141.023421 
Q 410.520816 141.023421 407.259753 137.251589 
Q 403.99869 133.479757 403.99869 125.268165 
M 862.001248 126.250413 
Q 862.001248 118.19598 865.478406 113.972314 
Q 868.955564 109.748648 873.473904 109.748648 
Q 878.031534 109.748648 881.312242 113.716929 
Q 884.59295 117.685211 884.59295 125.661064 
Q 884.59295 134.029816 881.233662 138.017743 
Q 877.874375 142.005669 873.159585 142.005669 
Q 868.523374 142.005669 865.262311 138.155257 
Q 862.001248 134.304845 862.001248 126.250413 
M 580.331836 125.700354 
Q 580.331836 118.07811 583.710769 114.050893 
Q 587.089702 110.023677 591.725912 110.023677 
Q 596.322832 110.023677 599.56425 113.913379 
Q 602.805668 117.80308 602.805668 125.975383 
Q 602.805668 133.951236 599.426736 137.978453 
Q 596.047803 142.005669 591.411593 142.005669 
Q 585.714555 142.005669 582.374912 136.544371 
Q 580.331836 133.204728 580.331836 125.700354 
M 449.535704 122.007102 
Q 449.889313 116.545803 453.209311 113.28474 
Q 456.529309 110.023677 461.401259 110.023677 
Q 466.783977 110.023677 470.16291 114.109828 
Q 472.363145 116.742253 472.834624 122.007102 
L 449.535704 122.007102 
M 905.691636 122.007102 
Q 906.045245 116.545803 909.365243 113.28474 
Q 912.685241 110.023677 917.55719 110.023677 
Q 922.939909 110.023677 926.318842 114.109828 
Q 928.519077 116.742253 928.990556 122.007102 
L 905.691636 122.007102 
M 641.859846 122.007102 
Q 642.213455 116.545803 645.533453 113.28474 
Q 648.853451 110.023677 653.7254 110.023677 
Q 659.108119 110.023677 662.487052 114.109828 
Q 664.687287 116.742253 665.158766 122.007102 
L 641.859846 122.007102 
M 354.532685 125.936093 
L 354.532685 128.529228 
Q 354.532685 133.204728 353.393278 135.601413 
Q 351.900261 138.705316 348.717778 140.493007 
Q 345.535294 142.280699 341.449143 142.280699 
Q 337.323702 142.280699 335.182401 140.394783 
Q 333.041101 138.508867 333.041101 135.679993 
Q 333.041101 133.833366 334.023349 132.320705 
Q 335.005597 130.808043 336.812933 130.022245 
Q 338.620269 129.236446 342.98145 128.607808 
Q 350.682273 127.50769 354.532685 125.936093 
" clip-path="url(#pdd71ba5fbf)"/>
   </g>
   <g id="patch_7">
    <path d="M 366.732204 213.862998 
Q 366.732204 221.445952 370.032557 228.243107 
Q 373.33291 235.040263 379.737167 238.969254 
Q 386.141423 242.898246 394.274436 242.898246 
Q 401.77881 242.898246 408.261646 239.342509 
Q 414.744483 235.786771 418.280575 228.871746 
Q 421.816668 221.95672 421.816668 213.195069 
Q 421.816668 204.551287 418.45738 197.734487 
Q 415.098092 190.917686 408.693835 187.106564 
Q 402.289579 183.295442 394.313726 183.295442 
Q 382.133852 183.295442 374.433028 191.40881 
Q 366.732204 199.522178 366.732204 213.862998 
M 151.148432 241.915998 
L 158.770676 241.915998 
L 158.770676 191.114136 
L 177.826285 191.114136 
L 177.826285 184.31698 
L 132.171402 184.31698 
L 132.171402 191.114136 
L 151.148432 191.114136 
L 151.148432 241.915998 
M 802.889569 241.915998 
L 810.197493 241.915998 
L 810.197493 196.654014 
L 840.450729 241.915998 
L 848.269422 241.915998 
L 848.269422 184.31698 
L 840.961498 184.31698 
L 840.961498 229.539674 
L 810.708262 184.31698 
L 802.889569 184.31698 
L 802.889569 241.915998 
M 62.78541 242.898246 
L 68.678897 242.898246 
L 72.09712 226.160742 
L 84.434154 226.160742 
L 81.055221 242.898246 
L 86.948708 242.898246 
L 90.366931 226.160742 
L 102.468225 226.160742 
L 102.468225 220.306544 
L 91.545628 220.306544 
L 94.492372 206.044304 
L 102.468225 206.044304 
L 102.468225 200.190107 
L 95.67107 200.190107 
L 99.089292 183.334732 
L 93.156515 183.334732 
L 89.738292 200.190107 
L 77.361969 200.190107 
L 80.780191 183.334732 
L 74.886704 183.334732 
L 71.468481 200.190107 
L 59.563636 200.190107 
L 59.563636 206.044304 
L 70.289784 206.044304 
L 67.38233 220.306544 
L 59.563636 220.306544 
L 59.563636 226.160742 
L 66.203632 226.160742 
L 62.78541 242.898246 
M 904.925482 241.915998 
L 911.997667 241.915998 
L 911.997667 220.267254 
Q 911.997667 214.570216 913.137075 211.544893 
Q 914.276482 208.519569 916.810682 206.947972 
Q 919.344882 205.376376 922.330915 205.376376 
Q 926.259907 205.376376 927.988663 207.733771 
Q 929.71742 210.091166 929.71742 214.805956 
L 929.71742 241.915998 
L 936.789605 241.915998 
L 936.789605 217.67412 
Q 936.789605 211.230573 939.697058 208.303474 
Q 942.604512 205.376376 947.004983 205.376376 
Q 949.440958 205.376376 951.248294 206.515783 
Q 953.05563 207.655191 953.743204 209.521462 
Q 954.430777 211.387733 954.430777 215.631044 
L 954.430777 241.915998 
L 961.463672 241.915998 
L 961.463672 213.273649 
Q 961.463672 206.122884 958.124029 202.685016 
Q 954.784386 199.247149 948.57658 199.247149 
Q 940.640016 199.247149 935.689487 206.555073 
Q 934.471499 203.09756 931.505111 201.172355 
Q 928.538722 199.247149 923.902512 199.247149 
Q 919.737781 199.247149 916.476718 201.11342 
Q 913.215655 202.979691 911.251159 206.044304 
L 911.251159 200.190107 
L 904.925482 200.190107 
L 904.925482 241.915998 
M 254.991682 245.373511 
Q 254.834522 252.131376 259.431442 255.490664 
Q 264.028362 258.849952 271.493447 258.849952 
Q 277.779833 258.849952 282.082079 256.492557 
Q 286.384325 254.135162 288.368466 250.068656 
Q 290.352607 246.002149 290.352607 236.25825 
L 290.352607 200.190107 
L 283.83048 200.190107 
L 283.83048 205.219216 
Q 279.037111 199.247149 271.650606 199.247149 
Q 266.110728 199.247149 262.004932 201.997443 
Q 257.899135 204.747737 255.73819 209.796491 
Q 253.577245 214.845246 253.577245 220.817313 
Q 253.577245 229.500384 258.292035 235.708191 
Q 263.006825 241.915998 271.611316 241.915998 
Q 278.526342 241.915998 283.162552 236.4547 
Q 283.201842 243.369725 282.651783 245.53067 
Q 281.708825 249.066763 279.037111 251.031259 
Q 276.365396 252.995755 271.454157 252.995755 
Q 266.896526 252.995755 264.264102 251.031259 
Q 262.299606 249.577532 261.867417 246.395049 
L 254.991682 245.373511 
M 757.313265 257.906994 
L 764.38545 257.906994 
L 764.38545 237.594107 
Q 766.192787 239.872922 769.002016 241.365939 
Q 771.811245 242.858956 775.347337 242.858956 
Q 780.179997 242.858956 784.560823 240.128307 
Q 788.941648 237.397658 791.240108 232.270324 
Q 793.538569 227.142989 793.538569 220.738733 
Q 793.538569 214.766666 791.456203 209.757201 
Q 789.373837 204.747737 785.287686 201.997443 
Q 781.201535 199.247149 775.858106 199.247149 
Q 771.771955 199.247149 768.903791 200.83839 
Q 766.035627 202.429632 763.756812 205.612115 
L 763.756812 200.190107 
L 757.313265 200.190107 
L 757.313265 257.906994 
M 978.476206 241.915998 
L 978.476206 236.690439 
Q 982.680227 242.858956 990.066731 242.858956 
Q 997.492526 242.858956 1002.796664 237.004758 
Q 1008.100803 231.150561 1008.100803 220.424414 
Q 1008.100803 215.906073 1006.843526 211.937792 
Q 1005.586249 207.96951 1003.366368 205.160281 
Q 1001.146488 202.351052 997.70862 200.7991 
Q 994.270753 199.247149 990.420341 199.247149 
Q 983.466025 199.247149 978.986975 204.865607 
L 978.986975 184.31698 
L 971.91479 184.31698 
L 971.91479 241.915998 
L 978.476206 241.915998 
M 437.257605 241.915998 
L 437.257605 236.690439 
Q 441.461626 242.858956 448.84813 242.858956 
Q 456.273924 242.858956 461.578063 237.004758 
Q 466.882202 231.150561 466.882202 220.424414 
Q 466.882202 215.906073 465.624925 211.937792 
Q 464.367647 207.96951 462.147767 205.160281 
Q 459.927887 202.351052 456.490019 200.7991 
Q 453.052151 199.247149 449.201739 199.247149 
Q 442.247424 199.247149 437.768374 204.865607 
L 437.768374 184.31698 
L 430.696189 184.31698 
L 430.696189 241.915998 
L 437.257605 241.915998 
M 623.648969 241.915998 
L 659.638533 241.915998 
L 659.638533 235.118842 
L 631.271213 235.118842 
L 631.271213 184.31698 
L 623.648969 184.31698 
L 623.648969 241.915998 
M 709.929626 221.053052 
Q 709.929626 231.62204 715.33199 237.240498 
Q 720.734353 242.858956 729.496005 242.858956 
Q 734.957303 242.858956 739.573868 240.305111 
Q 744.190433 237.751267 746.606763 233.134702 
Q 749.023093 228.518137 749.023093 220.463704 
Q 749.023093 210.523355 743.561795 204.885252 
Q 738.100496 199.247149 729.496005 199.247149 
Q 721.755891 199.247149 716.373172 203.883359 
Q 709.929626 209.462527 709.929626 221.053052 
M 665.178411 221.053052 
Q 665.178411 231.62204 670.580775 237.240498 
Q 675.983138 242.858956 684.744789 242.858956 
Q 690.206088 242.858956 694.822653 240.305111 
Q 699.439218 237.751267 701.855548 233.134702 
Q 704.271878 228.518137 704.271878 220.463704 
Q 704.271878 210.523355 698.81058 204.885252 
Q 693.349281 199.247149 684.744789 199.247149 
Q 677.004676 199.247149 671.621957 203.883359 
Q 665.178411 209.462527 665.178411 221.053052 
M 1045.269064 228.478847 
Q 1043.658178 232.957897 1040.907884 235.000973 
Q 1038.157589 237.044048 1034.267888 237.044048 
Q 1029.042329 237.044048 1025.545526 233.390086 
Q 1022.048724 229.736124 1021.655824 222.860389 
L 1052.773438 222.860389 
Q 1052.812728 221.603111 1052.812728 220.974473 
Q 1052.812728 210.641224 1047.50859 204.944187 
Q 1042.204451 199.247149 1033.835699 199.247149 
Q 1025.191917 199.247149 1019.769908 205.062056 
Q 1014.3479 210.876964 1014.3479 221.406662 
Q 1014.3479 231.58275 1019.710974 237.220853 
Q 1025.074047 242.858956 1034.228598 242.858956 
Q 1041.497232 242.858956 1046.172732 239.322864 
Q 1050.848232 235.786771 1052.576989 229.382515 
L 1045.269064 228.478847 
M 329.603233 228.478847 
Q 327.992347 232.957897 325.242052 235.000973 
Q 322.491758 237.044048 318.602057 237.044048 
Q 313.376498 237.044048 309.879695 233.390086 
Q 306.382893 229.736124 305.989993 222.860389 
L 337.107607 222.860389 
Q 337.146897 221.603111 337.146897 220.974473 
Q 337.146897 210.641224 331.842758 204.944187 
Q 326.53862 199.247149 318.169867 199.247149 
Q 309.526086 199.247149 304.104077 205.062056 
Q 298.682069 210.876964 298.682069 221.406662 
Q 298.682069 231.58275 304.045142 237.220853 
Q 309.408216 242.858956 318.562767 242.858956 
Q 325.831401 242.858956 330.506901 239.322864 
Q 335.182401 235.786771 336.911158 229.382515 
L 329.603233 228.478847 
M 521.927375 228.478847 
Q 520.316488 232.957897 517.566194 235.000973 
Q 514.8159 237.044048 510.926198 237.044048 
Q 505.700639 237.044048 502.203837 233.390086 
Q 498.707034 229.736124 498.314135 222.860389 
L 529.431749 222.860389 
Q 529.471039 221.603111 529.471039 220.974473 
Q 529.471039 210.641224 524.1669 204.944187 
Q 518.862762 199.247149 510.494009 199.247149 
Q 501.850228 199.247149 496.428219 205.062056 
Q 491.006211 210.876964 491.006211 221.406662 
Q 491.006211 231.58275 496.369284 237.220853 
Q 501.732358 242.858956 510.886908 242.858956 
Q 518.155543 242.858956 522.831043 239.322864 
Q 527.506543 235.786771 529.2353 229.382515 
L 521.927375 228.478847 
M 211.969223 236.769019 
Q 212.283542 239.715763 213.38366 241.915998 
L 220.770164 241.915998 
Q 219.434307 239.519313 218.982473 236.906534 
Q 218.530639 234.293754 218.530639 224.431985 
L 218.530639 215.002405 
Q 218.530639 210.287615 218.17703 208.480279 
Q 217.548391 205.572825 215.976794 203.667264 
Q 214.405198 201.761703 211.065555 200.504426 
Q 207.725912 199.247149 202.382483 199.247149 
Q 196.999765 199.247149 192.913613 200.720521 
Q 188.827462 202.193892 186.666517 204.924542 
Q 184.505571 207.655191 183.562613 212.094951 
L 190.477639 213.037909 
Q 191.617046 208.598149 193.994086 206.849747 
Q 196.371126 205.101346 201.360945 205.101346 
Q 206.704374 205.101346 209.415378 207.498031 
Q 211.419164 209.266077 211.419164 213.587968 
Q 211.419164 213.980867 211.379874 215.434594 
Q 207.333013 216.849031 198.767811 217.870569 
Q 194.56379 218.381338 192.481424 218.931397 
Q 189.65255 219.717195 187.39338 221.249502 
Q 185.13421 222.781809 183.739418 225.316008 
Q 182.344626 227.850208 182.344626 230.914821 
Q 182.344626 236.14038 186.037878 239.499668 
Q 189.73113 242.858956 196.606866 242.858956 
Q 200.771597 242.858956 204.405914 241.483809 
Q 208.040231 240.108662 211.969223 236.769019 
M 565.342733 226.632221 
Q 564.596224 231.936359 561.80664 234.490204 
Q 559.017056 237.044048 554.852325 237.044048 
Q 549.666056 237.044048 546.444283 233.232927 
Q 543.22251 229.421805 543.22251 221.013762 
Q 543.22251 212.72359 546.562153 208.892823 
Q 549.901796 205.062056 555.245224 205.062056 
Q 558.781317 205.062056 561.276227 207.183712 
Q 563.771136 209.305367 564.753384 213.509388 
L 571.62912 212.448561 
Q 570.411132 206.122884 566.089241 202.685016 
Q 561.76735 199.247149 554.970195 199.247149 
Q 549.587476 199.247149 545.010201 201.781348 
Q 540.432926 204.315548 538.193401 209.383947 
Q 535.953875 214.452346 535.953875 221.210212 
Q 535.953875 231.66133 541.159789 237.260143 
Q 546.365703 242.858956 554.930905 242.858956 
Q 561.76735 242.858956 566.462496 238.79245 
Q 571.157641 234.725943 572.297048 227.535889 
L 565.342733 226.632221 
M 887.520049 241.915998 
L 893.845726 241.915998 
L 893.845726 200.190107 
L 886.773541 200.190107 
L 886.773541 222.546069 
Q 886.773541 227.889498 885.614488 230.698727 
Q 884.455436 233.507956 881.665852 235.138487 
Q 878.876267 236.769019 875.693784 236.769019 
Q 872.511301 236.769019 870.350356 235.177777 
Q 868.18941 233.586536 867.521482 230.796952 
Q 867.089292 228.871746 867.089292 223.331868 
L 867.089292 200.190107 
L 860.017107 200.190107 
L 860.017107 226.042872 
Q 860.017107 230.561212 860.449297 232.643578 
Q 861.077935 235.747481 862.629887 237.888782 
Q 864.181839 240.030082 867.383967 241.444519 
Q 870.586095 242.858956 874.279347 242.858956 
Q 882.648099 242.858956 887.520049 235.786771 
L 887.520049 241.915998 
M 122.309633 258.849952 
L 127.378032 258.849952 
Q 115.630347 239.990792 115.630347 221.092342 
Q 115.630347 213.666548 117.319814 206.319334 
Q 118.694961 200.425846 121.091646 195.003838 
Q 122.623953 191.507035 127.378032 183.334732 
L 122.309633 183.334732 
Q 114.923129 193.196501 111.387036 203.13685 
Q 108.361713 211.702052 108.361713 221.053052 
Q 108.361713 231.66133 112.408574 241.562389 
Q 116.455436 251.463448 122.309633 258.849952 
M 1092.888443 258.849952 
Q 1098.703351 251.463448 1102.769857 241.562389 
Q 1106.836364 231.66133 1106.836364 221.053052 
Q 1106.836364 211.702052 1103.81104 203.13685 
Q 1100.274948 193.196501 1092.888443 183.334732 
L 1087.820044 183.334732 
Q 1092.613414 191.585615 1094.145721 195.121707 
Q 1096.542405 200.543716 1097.878263 206.437203 
Q 1099.567729 213.705838 1099.567729 221.092342 
Q 1099.567729 239.990792 1087.820044 258.849952 
L 1092.888443 258.849952 
M 361.231616 235.590321 
Q 359.30641 235.865351 358.127713 235.865351 
Q 356.556116 235.865351 355.711383 235.354582 
Q 354.86665 234.843813 354.493395 233.979435 
Q 354.120141 233.115057 354.120141 230.089733 
L 354.120141 205.690695 
L 361.231616 205.690695 
L 361.231616 200.190107 
L 354.120141 200.190107 
L 354.120141 185.613548 
L 347.087246 189.856859 
L 347.087246 200.190107 
L 341.900977 200.190107 
L 341.900977 205.690695 
L 347.087246 205.690695 
L 347.087246 229.696834 
Q 347.087246 236.0618 347.951624 238.045941 
Q 348.816002 240.030082 350.937658 241.248069 
Q 353.059313 242.466057 356.909725 242.466057 
Q 359.26712 242.466057 362.253154 241.837418 
L 361.231616 235.590321 
M 593.788633 235.590321 
Q 591.863427 235.865351 590.684729 235.865351 
Q 589.113132 235.865351 588.268399 235.354582 
Q 587.423666 234.843813 587.050412 233.979435 
Q 586.677158 233.115057 586.677158 230.089733 
L 586.677158 205.690695 
L 593.788633 205.690695 
L 593.788633 200.190107 
L 586.677158 200.190107 
L 586.677158 185.613548 
L 579.644263 189.856859 
L 579.644263 200.190107 
L 574.457994 200.190107 
L 574.457994 205.690695 
L 579.644263 205.690695 
L 579.644263 229.696834 
Q 579.644263 236.0618 580.508641 238.045941 
Q 581.373019 240.030082 583.494674 241.248069 
Q 585.61633 242.466057 589.466742 242.466057 
Q 591.824137 242.466057 594.81017 241.837418 
L 593.788633 235.590321 
M 1061.37793 241.915998 
L 1068.450115 241.915998 
L 1068.450115 220.070804 
Q 1068.450115 215.591754 1069.628813 211.819922 
Q 1070.414611 209.344657 1072.261237 207.949865 
Q 1074.107863 206.555073 1076.425968 206.555073 
Q 1079.019103 206.555073 1081.612237 208.08738 
L 1084.048212 201.525964 
Q 1080.35496 199.247149 1076.779577 199.247149 
Q 1074.304313 199.247149 1072.241592 200.661586 
Q 1070.178871 202.076023 1067.742897 206.515783 
L 1067.742897 200.190107 
L 1061.37793 200.190107 
L 1061.37793 241.915998 
M 229.413946 241.915998 
L 236.486131 241.915998 
L 236.486131 220.070804 
Q 236.486131 215.591754 237.664828 211.819922 
Q 238.450627 209.344657 240.297253 207.949865 
Q 242.143879 206.555073 244.461984 206.555073 
Q 247.055118 206.555073 249.648253 208.08738 
L 252.084228 201.525964 
Q 248.390976 199.247149 244.815593 199.247149 
Q 242.340328 199.247149 240.277608 200.661586 
Q 238.214887 202.076023 235.778912 206.515783 
L 235.778912 200.190107 
L 229.413946 200.190107 
L 229.413946 241.915998 
M 466.489303 258.103444 
Q 469.161017 258.849952 472.029181 258.849952 
Q 477.961958 258.849952 480.515803 254.92096 
Q 482.519589 251.895637 482.519589 244.194813 
L 482.519589 200.190107 
L 475.447404 200.190107 
L 475.447404 244.037654 
Q 475.447404 249.773981 474.386576 251.208063 
Q 473.325748 252.642145 471.164803 252.642145 
Q 469.946815 252.642145 467.82516 252.092086 
L 466.489303 258.103444 
M 602.707444 241.915998 
L 610.761877 241.915998 
L 610.761877 233.861565 
L 602.707444 233.861565 
L 602.707444 241.915998 
M 475.447404 192.528573 
L 482.519589 192.528573 
L 482.519589 184.31698 
L 475.447404 184.31698 
L 475.447404 192.528573 
M 374.590188 213.980867 
Q 374.590188 200.975905 380.42474 195.416382 
Q 386.259293 189.856859 394.353016 189.856859 
Q 400.050054 189.856859 404.627329 192.744667 
Q 409.204604 195.632476 411.581644 200.87768 
Q 413.958684 206.122884 413.958684 213.155779 
Q 413.958684 224.274826 408.399161 230.325473 
Q 402.839638 236.37612 394.235146 236.37612 
Q 385.787814 236.37612 380.189001 230.384408 
Q 374.590188 224.392695 374.590188 213.980867 
M 73.275817 220.306544 
L 76.183271 206.044304 
L 88.559595 206.044304 
L 85.612851 220.306544 
L 73.275817 220.306544 
M 260.845879 220.306544 
Q 260.845879 212.76288 264.146232 208.932113 
Q 267.446585 205.101346 272.161375 205.101346 
Q 276.954745 205.101346 280.353323 208.991048 
Q 283.751901 212.88075 283.751901 220.542283 
Q 283.751901 228.557426 280.451548 232.309613 
Q 277.151195 236.0618 272.279245 236.0618 
Q 267.368005 236.0618 264.106942 232.289969 
Q 260.845879 228.518137 260.845879 220.306544 
M 763.717522 221.288792 
Q 763.717522 213.234359 767.194679 209.010693 
Q 770.671837 204.787027 775.190178 204.787027 
Q 779.747808 204.787027 783.028516 208.755308 
Q 786.309224 212.72359 786.309224 220.699443 
Q 786.309224 229.068195 782.949936 233.056122 
Q 779.590648 237.044048 774.875858 237.044048 
Q 770.239648 237.044048 766.978585 233.193637 
Q 763.717522 229.343225 763.717522 221.288792 
M 978.397626 220.738733 
Q 978.397626 213.116489 981.776559 209.089273 
Q 985.155492 205.062056 989.791702 205.062056 
Q 994.388622 205.062056 997.63004 208.951758 
Q 1000.871459 212.84146 1000.871459 221.013762 
Q 1000.871459 228.989616 997.492526 233.016832 
Q 994.113593 237.044048 989.477383 237.044048 
Q 983.780345 237.044048 980.440702 231.58275 
Q 978.397626 228.243107 978.397626 220.738733 
M 437.179025 220.738733 
Q 437.179025 213.116489 440.557958 209.089273 
Q 443.936891 205.062056 448.573101 205.062056 
Q 453.170021 205.062056 456.411439 208.951758 
Q 459.652857 212.84146 459.652857 221.013762 
Q 459.652857 228.989616 456.273924 233.016832 
Q 452.894992 237.044048 448.258781 237.044048 
Q 442.561743 237.044048 439.222101 231.58275 
Q 437.179025 228.243107 437.179025 220.738733 
M 717.198261 221.053052 
Q 717.198261 213.037909 720.695063 209.069628 
Q 724.191866 205.101346 729.496005 205.101346 
Q 734.721563 205.101346 738.238011 209.089273 
Q 741.754458 213.077199 741.754458 220.817313 
Q 741.754458 229.028905 738.257656 233.036477 
Q 734.760853 237.044048 729.496005 237.044048 
Q 724.191866 237.044048 720.695063 233.056122 
Q 717.198261 229.068195 717.198261 221.053052 
M 672.447046 221.053052 
Q 672.447046 213.037909 675.943848 209.069628 
Q 679.440651 205.101346 684.744789 205.101346 
Q 689.970348 205.101346 693.486796 209.089273 
Q 697.003243 213.077199 697.003243 220.817313 
Q 697.003243 229.028905 693.506441 233.036477 
Q 690.009638 237.044048 684.744789 237.044048 
Q 679.440651 237.044048 675.943848 233.056122 
Q 672.447046 229.068195 672.447046 221.053052 
M 1022.048724 217.045481 
Q 1022.402333 211.584182 1025.722331 208.323119 
Q 1029.042329 205.062056 1033.914278 205.062056 
Q 1039.296997 205.062056 1042.67593 209.148208 
Q 1044.876165 211.780632 1045.347644 217.045481 
L 1022.048724 217.045481 
M 306.382893 217.045481 
Q 306.736502 211.584182 310.0565 208.323119 
Q 313.376498 205.062056 318.248447 205.062056 
Q 323.631166 205.062056 327.010099 209.148208 
Q 329.210334 211.780632 329.681813 217.045481 
L 306.382893 217.045481 
M 498.707034 217.045481 
Q 499.060644 211.584182 502.380642 208.323119 
Q 505.700639 205.062056 510.572589 205.062056 
Q 515.955308 205.062056 519.334241 209.148208 
Q 521.534476 211.780632 522.005955 217.045481 
L 498.707034 217.045481 
M 211.379874 220.974473 
L 211.379874 223.567607 
Q 211.379874 228.243107 210.240467 230.639792 
Q 208.74745 233.743695 205.564966 235.531387 
Q 202.382483 237.319078 198.296332 237.319078 
Q 194.170891 237.319078 192.02959 235.433162 
Q 189.88829 233.547246 189.88829 230.718372 
Q 189.88829 228.871746 190.870538 227.359084 
Q 191.852786 225.846422 193.660122 225.060624 
Q 195.467458 224.274826 199.828639 223.646187 
Q 207.529462 222.546069 211.379874 220.974473 
" clip-path="url(#pdd71ba5fbf)"/>
   </g>
  </g>
 </g>
 <defs>
  <clipPath id="pdd71ba5fbf">
   <rect x="7.2" y="7.2" width="1152" height="316.794599"/>
  </clipPath>
 </defs>
</svg>
