<?xml version="1.0" encoding="utf-8" standalone="no"?>
<!DOCTYPE svg PUBLIC "-//W3C//DTD SVG 1.1//EN"
  "http://www.w3.org/Graphics/SVG/1.1/DTD/svg11.dtd">
<svg xmlns:xlink="http://www.w3.org/1999/xlink" width="1166.4pt" height="331.194598pt" viewBox="0 0 1166.4 331.194598" xmlns="http://www.w3.org/2000/svg" version="1.1">
 <metadata>
  <rdf:RDF xmlns:dc="http://purl.org/dc/elements/1.1/" xmlns:cc="http://creativecommons.org/ns#" xmlns:rdf="http://www.w3.org/1999/02/22-rdf-syntax-ns#">
   <cc:Work>
    <dc:type rdf:resource="http://purl.org/dc/dcmitype/StillImage"/>
    <dc:date>2026-02-17T12:15:34.792213</dc:date>
    <dc:format>image/svg+xml</dc:format>
    <dc:creator>
     <cc:Agent>
      <dc:title>Matplotlib v3.10.8, https://matplotlib.org/</dc:title>
     </cc:Agent>
    </dc:creator>
   </cc:Work>
  </rdf:RDF>
 </metadata>
 <defs>
  <style type="text/css">*{stroke-linejoin: round; stroke-linecap: butt}</style>
 </defs>
 <g id="figure_1">
  <g id="patch_1">
   <path d="M 0 331.194598 
L 1166.4 331.194598 
L 1166.4 0 
L 0 0 
L 0 331.194598 
z
" style="fill: none"/>
  </g>
  <g id="axes_1">
   <g id="line2d_1">
    <path d="M 447.152299 154.150047 
L 721.578622 153.822596 
" clip-path="url(#p9fae146059)" style="fill: none; stroke: #000000; stroke-width: 0.72; stroke-linecap: square"/>
   </g>
   <g id="line2d_2">
    <path d="M 721.502232 177.353237 
L 446.976992 177.452461 
" clip-path="url(#p9fae146059)" style="fill: none; stroke: #000000; stroke-width: 0.72; stroke-linecap: square"/>
   </g>
   <g id="patch_2">
    <path d="M 440.338283 166.002687 
L 512.242411 309.594843 
L 656.239955 309.594843 
L 728.332883 165.471661 
L 656.239955 21.599754 
L 512.242411 21.599754 
L 440.338283 166.002687 
" clip-path="url(#p9fae146059)" style="fill: none; stroke: #000000; stroke-width: 0.72; stroke-linejoin: miter"/>
   </g>
   <g id="patch_3">
    <path d="M 482.437083 70.969619 
L 688.724288 69.967616 
L 688.724288 143.113367 
L 482.216496 143.113367 
z
" clip-path="url(#p9fae146059)" style="fill: #ffffff"/>
   </g>
   <g id="patch_4">
    <path d="M 482.216496 189.485578 
L 688.724288 189.485578 
L 688.724288 264.63532 
L 482.216496 264.63532 
z
" clip-path="url(#p9fae146059)" style="fill: #ffffff"/>
   </g>
   <g id="patch_5">
    <path d="M 509.885016 108.744789 
Q 509.885016 116.327743 513.185369 123.124899 
Q 516.485722 129.922055 522.889978 133.851046 
Q 529.294234 137.780038 537.427247 137.780038 
Q 544.931621 137.780038 551.414457 134.2243 
Q 557.897294 130.668563 561.433386 123.753538 
Q 564.969479 116.838512 564.969479 108.076861 
Q 564.969479 99.433079 561.610191 92.616279 
Q 558.250903 85.799478 551.846647 81.988356 
Q 545.44239 78.177234 537.466537 78.177234 
Q 525.286663 78.177234 517.585839 86.290602 
Q 509.885016 94.40397 509.885016 108.744789 
M 781.771239 136.79779 
L 789.393482 136.79779 
L 789.393482 85.995928 
L 808.449092 85.995928 
L 808.449092 79.198772 
L 762.794209 79.198772 
L 762.794209 85.995928 
L 781.771239 85.995928 
L 781.771239 136.79779 
M 294.301243 136.79779 
L 301.923487 136.79779 
L 301.923487 85.995928 
L 320.979097 85.995928 
L 320.979097 79.198772 
L 275.324213 79.198772 
L 275.324213 85.995928 
L 294.301243 85.995928 
L 294.301243 136.79779 
M 205.938221 137.780038 
L 211.831708 137.780038 
L 215.249931 121.042533 
L 227.586965 121.042533 
L 224.208032 137.780038 
L 230.101519 137.780038 
L 233.519742 121.042533 
L 245.621036 121.042533 
L 245.621036 115.188336 
L 234.69844 115.188336 
L 237.645183 100.926096 
L 245.621036 100.926096 
L 245.621036 95.071899 
L 238.823881 95.071899 
L 242.242104 78.216524 
L 236.309326 78.216524 
L 232.891103 95.071899 
L 220.51478 95.071899 
L 223.933003 78.216524 
L 218.039515 78.216524 
L 214.621292 95.071899 
L 202.716448 95.071899 
L 202.716448 100.926096 
L 213.442595 100.926096 
L 210.535141 115.188336 
L 202.716448 115.188336 
L 202.716448 121.042533 
L 209.356443 121.042533 
L 205.938221 137.780038 
M 815.049798 152.867366 
Q 817.564353 153.731744 819.607428 153.731744 
Q 822.986361 153.731744 825.422336 152.101212 
Q 827.858311 150.470681 829.744227 146.973878 
Q 831.158664 144.380744 833.712508 137.505008 
L 849.585635 95.071899 
L 842.51345 95.071899 
L 833.594639 119.392357 
Q 831.905172 124.028567 830.687185 128.900517 
Q 829.351328 123.832117 827.661861 119.235197 
L 818.97879 95.071899 
L 811.356546 95.071899 
L 827.190382 136.87637 
Q 826.758193 138.015777 826.561743 138.605126 
Q 825.068727 142.809147 824.400798 143.869975 
Q 823.49713 145.284412 822.082693 146.07021 
Q 820.668256 146.856009 818.310861 146.856009 
Q 816.582105 146.856009 814.264 146.22737 
L 815.049798 152.867366 
M 398.144493 140.255303 
Q 397.987333 147.013168 402.584253 150.372456 
Q 407.181174 153.731744 414.646258 153.731744 
Q 420.932644 153.731744 425.23489 151.374349 
Q 429.537136 149.016954 431.521277 144.950448 
Q 433.505418 140.883941 433.505418 131.140042 
L 433.505418 95.071899 
L 426.983292 95.071899 
L 426.983292 100.101008 
Q 422.189922 94.128941 414.803417 94.128941 
Q 409.263539 94.128941 405.157743 96.879235 
Q 401.051947 99.629529 398.891001 104.678283 
Q 396.730056 109.727037 396.730056 115.699105 
Q 396.730056 124.382176 401.444846 130.589983 
Q 406.159636 136.79779 414.764127 136.79779 
Q 421.679153 136.79779 426.315363 131.336492 
Q 426.354653 138.251517 425.804594 140.412462 
Q 424.861636 143.948555 422.189922 145.913051 
Q 419.518207 147.877546 414.606968 147.877546 
Q 410.049337 147.877546 407.416913 145.913051 
Q 405.452417 144.459324 405.020228 141.27684 
L 398.144493 140.255303 
M 855.596992 152.788786 
L 862.669177 152.788786 
L 862.669177 132.475899 
Q 864.476513 134.754714 867.285742 136.247731 
Q 870.094971 137.740748 873.631064 137.740748 
Q 878.463723 137.740748 882.844549 135.010099 
Q 887.225375 132.27945 889.523835 127.152115 
Q 891.822295 122.024781 891.822295 115.620525 
Q 891.822295 109.648458 889.739929 104.638993 
Q 887.657564 99.629529 883.571412 96.879235 
Q 879.485261 94.128941 874.141833 94.128941 
Q 870.055681 94.128941 867.187517 95.720182 
Q 864.319353 97.311424 862.040538 100.493907 
L 862.040538 95.071899 
L 855.596992 95.071899 
L 855.596992 152.788786 
M 580.410416 136.79779 
L 580.410416 131.572231 
Q 584.614437 137.740748 592.000941 137.740748 
Q 599.426736 137.740748 604.730874 131.88655 
Q 610.035013 126.032353 610.035013 115.306206 
Q 610.035013 110.787865 608.777736 106.819584 
Q 607.520458 102.851302 605.300578 100.042073 
Q 603.080698 97.232844 599.64283 95.680892 
Q 596.204962 94.128941 592.354551 94.128941 
Q 585.400235 94.128941 580.921185 99.747399 
L 580.921185 79.198772 
L 573.849 79.198772 
L 573.849 136.79779 
L 580.410416 136.79779 
M 472.756044 123.360638 
Q 471.145158 127.839689 468.394864 129.882765 
Q 465.644569 131.92584 461.754868 131.92584 
Q 456.529309 131.92584 453.032506 128.271878 
Q 449.535704 124.617916 449.142805 117.74218 
L 480.260418 117.74218 
Q 480.299708 116.484903 480.299708 115.856264 
Q 480.299708 105.523016 474.99557 99.825978 
Q 469.691431 94.128941 461.322679 94.128941 
Q 452.678897 94.128941 447.256889 99.943848 
Q 441.83488 105.758756 441.83488 116.288453 
Q 441.83488 126.464542 447.197954 132.102645 
Q 452.561027 137.740748 461.715578 137.740748 
Q 468.984212 137.740748 473.659712 134.204655 
Q 478.335213 130.668563 480.063969 124.264307 
L 472.756044 123.360638 
M 928.911976 123.360638 
Q 927.30109 127.839689 924.550796 129.882765 
Q 921.800501 131.92584 917.9108 131.92584 
Q 912.685241 131.92584 909.188438 128.271878 
Q 905.691636 124.617916 905.298736 117.74218 
L 936.41635 117.74218 
Q 936.45564 116.484903 936.45564 115.856264 
Q 936.45564 105.523016 931.151502 99.825978 
Q 925.847363 94.128941 917.478611 94.128941 
Q 908.834829 94.128941 903.41282 99.943848 
Q 897.990812 105.758756 897.990812 116.288453 
Q 897.990812 126.464542 903.353886 132.102645 
Q 908.716959 137.740748 917.87151 137.740748 
Q 925.140144 137.740748 929.815644 134.204655 
Q 934.491144 130.668563 936.219901 124.264307 
L 928.911976 123.360638 
M 665.080186 123.360638 
Q 663.4693 127.839689 660.719005 129.882765 
Q 657.968711 131.92584 654.07901 131.92584 
Q 648.853451 131.92584 645.356648 128.271878 
Q 641.859846 124.617916 641.466946 117.74218 
L 672.58456 117.74218 
Q 672.62385 116.484903 672.62385 115.856264 
Q 672.62385 105.523016 667.319711 99.825978 
Q 662.015573 94.128941 653.64682 94.128941 
Q 645.003039 94.128941 639.58103 99.943848 
Q 634.159022 105.758756 634.159022 116.288453 
Q 634.159022 126.464542 639.522095 132.102645 
Q 644.885169 137.740748 654.03972 137.740748 
Q 661.308354 137.740748 665.983854 134.204655 
Q 670.659354 130.668563 672.388111 124.264307 
L 665.080186 123.360638 
M 355.122034 131.650811 
Q 355.436353 134.597555 356.536471 136.79779 
L 363.922975 136.79779 
Q 362.587118 134.401105 362.135284 131.788326 
Q 361.68345 129.175546 361.68345 119.313777 
L 361.68345 109.884197 
Q 361.68345 105.169407 361.329841 103.362071 
Q 360.701202 100.454617 359.129606 98.549056 
Q 357.558009 96.643495 354.218366 95.386218 
Q 350.878723 94.128941 345.535294 94.128941 
Q 340.152576 94.128941 336.066425 95.602312 
Q 331.980273 97.075684 329.819328 99.806333 
Q 327.658382 102.536983 326.715424 106.976743 
L 333.63045 107.919701 
Q 334.769857 103.479941 337.146897 101.731539 
Q 339.523937 99.983138 344.513757 99.983138 
Q 349.857185 99.983138 352.568189 102.379823 
Q 354.571975 104.147869 354.571975 108.46976 
Q 354.571975 108.862659 354.532685 110.316386 
Q 350.485824 111.730823 341.920622 112.752361 
Q 337.716601 113.26313 335.634235 113.813189 
Q 332.805361 114.598987 330.546191 116.131294 
Q 328.287021 117.663601 326.892229 120.1978 
Q 325.497437 122.732 325.497437 125.796613 
Q 325.497437 131.022172 329.190689 134.38146 
Q 332.883941 137.740748 339.759677 137.740748 
Q 343.924408 137.740748 347.558725 136.365601 
Q 351.193042 134.990454 355.122034 131.650811 
M 708.495544 121.514012 
Q 707.749036 126.818151 704.959452 129.371996 
Q 702.169867 131.92584 698.005136 131.92584 
Q 692.818867 131.92584 689.597094 128.114718 
Q 686.375321 124.303596 686.375321 115.895554 
Q 686.375321 107.605382 689.714964 103.774615 
Q 693.054607 99.943848 698.398036 99.943848 
Q 701.934128 99.943848 704.429038 102.065504 
Q 706.923947 104.187159 707.906195 108.39118 
L 714.781931 107.330352 
Q 713.563943 101.004676 709.242052 97.566808 
Q 704.920162 94.128941 698.123006 94.128941 
Q 692.740288 94.128941 688.163012 96.66314 
Q 683.585737 99.19734 681.346212 104.265739 
Q 679.106686 109.334138 679.106686 116.092004 
Q 679.106686 126.543122 684.3126 132.141935 
Q 689.518514 137.740748 698.083716 137.740748 
Q 704.920162 137.740748 709.615307 133.674242 
Q 714.310452 129.607735 715.449859 122.41768 
L 708.495544 121.514012 
M 949.735632 153.731744 
Q 955.55054 146.34524 959.617046 136.444181 
Q 963.683552 126.543122 963.683552 115.934844 
Q 963.683552 106.583844 960.658229 98.018642 
Q 957.122136 88.078293 949.735632 78.216524 
L 944.667233 78.216524 
Q 949.460603 86.467407 950.992909 90.003499 
Q 953.389594 95.425508 954.725451 101.318995 
Q 956.414918 108.58763 956.414918 115.974134 
Q 956.414918 134.872584 944.667233 153.731744 
L 949.735632 153.731744 
M 265.462444 153.731744 
L 270.530844 153.731744 
Q 258.783159 134.872584 258.783159 115.974134 
Q 258.783159 108.54834 260.472625 101.201125 
Q 261.847772 95.307638 264.244457 89.88563 
Q 265.776764 86.388827 270.530844 78.216524 
L 265.462444 78.216524 
Q 258.07594 88.078293 254.539848 98.018642 
Q 251.514524 106.583844 251.514524 115.934844 
Q 251.514524 126.543122 255.561385 136.444181 
Q 259.608247 146.34524 265.462444 153.731744 
M 504.384427 130.472113 
Q 502.459221 130.747143 501.280524 130.747143 
Q 499.708927 130.747143 498.864194 130.236374 
Q 498.019461 129.725605 497.646207 128.861227 
Q 497.272952 127.996849 497.272952 124.971525 
L 497.272952 100.572487 
L 504.384427 100.572487 
L 504.384427 95.071899 
L 497.272952 95.071899 
L 497.272952 80.495339 
L 490.240057 84.73865 
L 490.240057 95.071899 
L 485.053788 95.071899 
L 485.053788 100.572487 
L 490.240057 100.572487 
L 490.240057 124.578626 
Q 490.240057 130.943592 491.104435 132.927733 
Q 491.968814 134.911874 494.090469 136.129861 
Q 496.212125 137.347849 500.062536 137.347849 
Q 502.419931 137.347849 505.405965 136.71921 
L 504.384427 130.472113 
M 736.941444 130.472113 
Q 735.016238 130.747143 733.83754 130.747143 
Q 732.265944 130.747143 731.42121 130.236374 
Q 730.576477 129.725605 730.203223 128.861227 
Q 729.829969 127.996849 729.829969 124.971525 
L 729.829969 100.572487 
L 736.941444 100.572487 
L 736.941444 95.071899 
L 729.829969 95.071899 
L 729.829969 80.495339 
L 722.797074 84.73865 
L 722.797074 95.071899 
L 717.610805 95.071899 
L 717.610805 100.572487 
L 722.797074 100.572487 
L 722.797074 124.578626 
Q 722.797074 130.943592 723.661452 132.927733 
Q 724.52583 134.911874 726.647486 136.129861 
Q 728.769141 137.347849 732.619553 137.347849 
Q 734.976948 137.347849 737.962982 136.71921 
L 736.941444 130.472113 
M 372.566757 136.79779 
L 379.638942 136.79779 
L 379.638942 114.952596 
Q 379.638942 110.473546 380.81764 106.701714 
Q 381.603438 104.226449 383.450064 102.831657 
Q 385.29669 101.436865 387.614795 101.436865 
Q 390.20793 101.436865 392.801064 102.969172 
L 395.237039 96.407756 
Q 391.543787 94.128941 387.968404 94.128941 
Q 385.49314 94.128941 383.430419 95.543378 
Q 381.367698 96.957814 378.931724 101.397575 
L 378.931724 95.071899 
L 372.566757 95.071899 
L 372.566757 136.79779 
M 609.642114 152.985236 
Q 612.313828 153.731744 615.181992 153.731744 
Q 621.11477 153.731744 623.668614 149.802752 
Q 625.6724 146.777429 625.6724 139.076605 
L 625.6724 95.071899 
L 618.600215 95.071899 
L 618.600215 138.919445 
Q 618.600215 144.655773 617.539387 146.089855 
Q 616.478559 147.523937 614.317614 147.523937 
Q 613.099627 147.523937 610.977971 146.973878 
L 609.642114 152.985236 
M 745.860255 136.79779 
L 753.914688 136.79779 
L 753.914688 128.743357 
L 745.860255 128.743357 
L 745.860255 136.79779 
M 618.600215 87.410365 
L 625.6724 87.410365 
L 625.6724 79.198772 
L 618.600215 79.198772 
L 618.600215 87.410365 
M 517.742999 108.862659 
Q 517.742999 95.857697 523.577552 90.298174 
Q 529.412104 84.73865 537.505827 84.73865 
Q 543.202865 84.73865 547.78014 87.626459 
Q 552.357415 90.514268 554.734455 95.759472 
Q 557.111495 101.004676 557.111495 108.037571 
Q 557.111495 119.156617 551.551972 125.207265 
Q 545.992449 131.257912 537.387957 131.257912 
Q 528.940625 131.257912 523.341812 125.266199 
Q 517.742999 119.274487 517.742999 108.862659 
M 216.428628 115.188336 
L 219.336082 100.926096 
L 231.712406 100.926096 
L 228.765662 115.188336 
L 216.428628 115.188336 
M 403.99869 115.188336 
Q 403.99869 107.644672 407.299043 103.813905 
Q 410.599396 99.983138 415.314186 99.983138 
Q 420.107556 99.983138 423.506134 103.87284 
Q 426.904712 107.762542 426.904712 115.424075 
Q 426.904712 123.439218 423.604359 127.191405 
Q 420.304006 130.943592 415.432056 130.943592 
Q 410.520816 130.943592 407.259753 127.17176 
Q 403.99869 123.399928 403.99869 115.188336 
M 862.001248 116.170584 
Q 862.001248 108.116151 865.478406 103.892485 
Q 868.955564 99.668819 873.473904 99.668819 
Q 878.031534 99.668819 881.312242 103.6371 
Q 884.59295 107.605382 884.59295 115.581235 
Q 884.59295 123.949987 881.233662 127.937914 
Q 877.874375 131.92584 873.159585 131.92584 
Q 868.523374 131.92584 865.262311 128.075428 
Q 862.001248 124.225017 862.001248 116.170584 
M 580.331836 115.620525 
Q 580.331836 107.998281 583.710769 103.971065 
Q 587.089702 99.943848 591.725912 99.943848 
Q 596.322832 99.943848 599.56425 103.83355 
Q 602.805668 107.723252 602.805668 115.895554 
Q 602.805668 123.871407 599.426736 127.898624 
Q 596.047803 131.92584 591.411593 131.92584 
Q 585.714555 131.92584 582.374912 126.464542 
Q 580.331836 123.124899 580.331836 115.620525 
M 449.535704 111.927273 
Q 449.889313 106.465974 453.209311 103.204911 
Q 456.529309 99.943848 461.401259 99.943848 
Q 466.783977 99.943848 470.16291 104.029999 
Q 472.363145 106.662424 472.834624 111.927273 
L 449.535704 111.927273 
M 905.691636 111.927273 
Q 906.045245 106.465974 909.365243 103.204911 
Q 912.685241 99.943848 917.55719 99.943848 
Q 922.939909 99.943848 926.318842 104.029999 
Q 928.519077 106.662424 928.990556 111.927273 
L 905.691636 111.927273 
M 641.859846 111.927273 
Q 642.213455 106.465974 645.533453 103.204911 
Q 648.853451 99.943848 653.7254 99.943848 
Q 659.108119 99.943848 662.487052 104.029999 
Q 664.687287 106.662424 665.158766 111.927273 
L 641.859846 111.927273 
M 354.532685 115.856264 
L 354.532685 118.449399 
Q 354.532685 123.124899 353.393278 125.521584 
Q 351.900261 128.625487 348.717778 130.413178 
Q 345.535294 132.20087 341.449143 132.20087 
Q 337.323702 132.20087 335.182401 130.314954 
Q 333.041101 128.429038 333.041101 125.600164 
Q 333.041101 123.753538 334.023349 122.240876 
Q 335.005597 120.728214 336.812933 119.942416 
Q 338.620269 119.156617 342.98145 118.527979 
Q 350.682273 117.427861 354.532685 115.856264 
" clip-path="url(#p9fae146059)"/>
   </g>
   <g id="patch_6">
    <path d="M 366.732204 223.942825 
Q 366.732204 231.525779 370.032557 238.322934 
Q 373.33291 245.12009 379.737167 249.049082 
Q 386.141423 252.978073 394.274436 252.978073 
Q 401.77881 252.978073 408.261646 249.422336 
Q 414.744483 245.866598 418.280575 238.951573 
Q 421.816668 232.036548 421.816668 223.274896 
Q 421.816668 214.631115 418.45738 207.814314 
Q 415.098092 200.997514 408.693835 197.186392 
Q 402.289579 193.37527 394.313726 193.37527 
Q 382.133852 193.37527 374.433028 201.488638 
Q 366.732204 209.602005 366.732204 223.942825 
M 151.148432 251.995825 
L 158.770676 251.995825 
L 158.770676 201.193963 
L 177.826285 201.193963 
L 177.826285 194.396808 
L 132.171402 194.396808 
L 132.171402 201.193963 
L 151.148432 201.193963 
L 151.148432 251.995825 
M 802.889569 251.995825 
L 810.197493 251.995825 
L 810.197493 206.733842 
L 840.450729 251.995825 
L 848.269422 251.995825 
L 848.269422 194.396808 
L 840.961498 194.396808 
L 840.961498 239.619502 
L 810.708262 194.396808 
L 802.889569 194.396808 
L 802.889569 251.995825 
M 62.78541 252.978073 
L 68.678897 252.978073 
L 72.09712 236.240569 
L 84.434154 236.240569 
L 81.055221 252.978073 
L 86.948708 252.978073 
L 90.366931 236.240569 
L 102.468225 236.240569 
L 102.468225 230.386371 
L 91.545628 230.386371 
L 94.492372 216.124132 
L 102.468225 216.124132 
L 102.468225 210.269934 
L 95.67107 210.269934 
L 99.089292 193.41456 
L 93.156515 193.41456 
L 89.738292 210.269934 
L 77.361969 210.269934 
L 80.780191 193.41456 
L 74.886704 193.41456 
L 71.468481 210.269934 
L 59.563636 210.269934 
L 59.563636 216.124132 
L 70.289784 216.124132 
L 67.38233 230.386371 
L 59.563636 230.386371 
L 59.563636 236.240569 
L 66.203632 236.240569 
L 62.78541 252.978073 
M 904.925482 251.995825 
L 911.997667 251.995825 
L 911.997667 230.347081 
Q 911.997667 224.650043 913.137075 221.62472 
Q 914.276482 218.599396 916.810682 217.0278 
Q 919.344882 215.456203 922.330915 215.456203 
Q 926.259907 215.456203 927.988663 217.813598 
Q 929.71742 220.170993 929.71742 224.885783 
L 929.71742 251.995825 
L 936.789605 251.995825 
L 936.789605 227.753947 
Q 936.789605 221.310401 939.697058 218.383302 
Q 942.604512 215.456203 947.004983 215.456203 
Q 949.440958 215.456203 951.248294 216.595611 
Q 953.05563 217.735018 953.743204 219.601289 
Q 954.430777 221.46756 954.430777 225.710871 
L 954.430777 251.995825 
L 961.463672 251.995825 
L 961.463672 223.353476 
Q 961.463672 216.202711 958.124029 212.764844 
Q 954.784386 209.326976 948.57658 209.326976 
Q 940.640016 209.326976 935.689487 216.6349 
Q 934.471499 213.177388 931.505111 211.252182 
Q 928.538722 209.326976 923.902512 209.326976 
Q 919.737781 209.326976 916.476718 211.193247 
Q 913.215655 213.059518 911.251159 216.124132 
L 911.251159 210.269934 
L 904.925482 210.269934 
L 904.925482 251.995825 
M 254.991682 255.453338 
Q 254.834522 262.211204 259.431442 265.570492 
Q 264.028362 268.92978 271.493447 268.92978 
Q 277.779833 268.92978 282.082079 266.572385 
Q 286.384325 264.21499 288.368466 260.148483 
Q 290.352607 256.081977 290.352607 246.338077 
L 290.352607 210.269934 
L 283.83048 210.269934 
L 283.83048 215.299043 
Q 279.037111 209.326976 271.650606 209.326976 
Q 266.110728 209.326976 262.004932 212.07727 
Q 257.899135 214.827564 255.73819 219.876319 
Q 253.577245 224.925073 253.577245 230.89714 
Q 253.577245 239.580212 258.292035 245.788019 
Q 263.006825 251.995825 271.611316 251.995825 
Q 278.526342 251.995825 283.162552 246.534527 
Q 283.201842 253.449552 282.651783 255.610498 
Q 281.708825 259.14659 279.037111 261.111086 
Q 276.365396 263.075582 271.454157 263.075582 
Q 266.896526 263.075582 264.264102 261.111086 
Q 262.299606 259.657359 261.867417 256.474876 
L 254.991682 255.453338 
M 757.313265 267.986822 
L 764.38545 267.986822 
L 764.38545 247.673935 
Q 766.192787 249.95275 769.002016 251.445767 
Q 771.811245 252.938783 775.347337 252.938783 
Q 780.179997 252.938783 784.560823 250.208134 
Q 788.941648 247.477485 791.240108 242.350151 
Q 793.538569 237.222817 793.538569 230.81856 
Q 793.538569 224.846493 791.456203 219.837029 
Q 789.373837 214.827564 785.287686 212.07727 
Q 781.201535 209.326976 775.858106 209.326976 
Q 771.771955 209.326976 768.903791 210.918218 
Q 766.035627 212.509459 763.756812 215.691942 
L 763.756812 210.269934 
L 757.313265 210.269934 
L 757.313265 267.986822 
M 978.476206 251.995825 
L 978.476206 246.770267 
Q 982.680227 252.938783 990.066731 252.938783 
Q 997.492526 252.938783 1002.796664 247.084586 
Q 1008.100803 241.230388 1008.100803 230.504241 
Q 1008.100803 225.985901 1006.843526 222.017619 
Q 1005.586249 218.049337 1003.366368 215.240108 
Q 1001.146488 212.430879 997.70862 210.878928 
Q 994.270753 209.326976 990.420341 209.326976 
Q 983.466025 209.326976 978.986975 214.945434 
L 978.986975 194.396808 
L 971.91479 194.396808 
L 971.91479 251.995825 
L 978.476206 251.995825 
M 437.257605 251.995825 
L 437.257605 246.770267 
Q 441.461626 252.938783 448.84813 252.938783 
Q 456.273924 252.938783 461.578063 247.084586 
Q 466.882202 241.230388 466.882202 230.504241 
Q 466.882202 225.985901 465.624925 222.017619 
Q 464.367647 218.049337 462.147767 215.240108 
Q 459.927887 212.430879 456.490019 210.878928 
Q 453.052151 209.326976 449.201739 209.326976 
Q 442.247424 209.326976 437.768374 214.945434 
L 437.768374 194.396808 
L 430.696189 194.396808 
L 430.696189 251.995825 
L 437.257605 251.995825 
M 623.648969 251.995825 
L 659.638533 251.995825 
L 659.638533 245.19867 
L 631.271213 245.19867 
L 631.271213 194.396808 
L 623.648969 194.396808 
L 623.648969 251.995825 
M 709.929626 231.13288 
Q 709.929626 241.701867 715.33199 247.320325 
Q 720.734353 252.938783 729.496005 252.938783 
Q 734.957303 252.938783 739.573868 250.384939 
Q 744.190433 247.831094 746.606763 243.214529 
Q 749.023093 238.597964 749.023093 230.543531 
Q 749.023093 220.603182 743.561795 214.965079 
Q 738.100496 209.326976 729.496005 209.326976 
Q 721.755891 209.326976 716.373172 213.963186 
Q 709.929626 219.542354 709.929626 231.13288 
M 665.178411 231.13288 
Q 665.178411 241.701867 670.580775 247.320325 
Q 675.983138 252.938783 684.744789 252.938783 
Q 690.206088 252.938783 694.822653 250.384939 
Q 699.439218 247.831094 701.855548 243.214529 
Q 704.271878 238.597964 704.271878 230.543531 
Q 704.271878 220.603182 698.81058 214.965079 
Q 693.349281 209.326976 684.744789 209.326976 
Q 677.004676 209.326976 671.621957 213.963186 
Q 665.178411 219.542354 665.178411 231.13288 
M 1045.269064 238.558674 
Q 1043.658178 243.037724 1040.907884 245.0808 
Q 1038.157589 247.123876 1034.267888 247.123876 
Q 1029.042329 247.123876 1025.545526 243.469914 
Q 1022.048724 239.815951 1021.655824 232.940216 
L 1052.773438 232.940216 
Q 1052.812728 231.682939 1052.812728 231.0543 
Q 1052.812728 220.721052 1047.50859 215.024014 
Q 1042.204451 209.326976 1033.835699 209.326976 
Q 1025.191917 209.326976 1019.769908 215.141884 
Q 1014.3479 220.956791 1014.3479 231.486489 
Q 1014.3479 241.662577 1019.710974 247.30068 
Q 1025.074047 252.938783 1034.228598 252.938783 
Q 1041.497232 252.938783 1046.172732 249.402691 
Q 1050.848232 245.866598 1052.576989 239.462342 
L 1045.269064 238.558674 
M 329.603233 238.558674 
Q 327.992347 243.037724 325.242052 245.0808 
Q 322.491758 247.123876 318.602057 247.123876 
Q 313.376498 247.123876 309.879695 243.469914 
Q 306.382893 239.815951 305.989993 232.940216 
L 337.107607 232.940216 
Q 337.146897 231.682939 337.146897 231.0543 
Q 337.146897 220.721052 331.842758 215.024014 
Q 326.53862 209.326976 318.169867 209.326976 
Q 309.526086 209.326976 304.104077 215.141884 
Q 298.682069 220.956791 298.682069 231.486489 
Q 298.682069 241.662577 304.045142 247.30068 
Q 309.408216 252.938783 318.562767 252.938783 
Q 325.831401 252.938783 330.506901 249.402691 
Q 335.182401 245.866598 336.911158 239.462342 
L 329.603233 238.558674 
M 521.927375 238.558674 
Q 520.316488 243.037724 517.566194 245.0808 
Q 514.8159 247.123876 510.926198 247.123876 
Q 505.700639 247.123876 502.203837 243.469914 
Q 498.707034 239.815951 498.314135 232.940216 
L 529.431749 232.940216 
Q 529.471039 231.682939 529.471039 231.0543 
Q 529.471039 220.721052 524.1669 215.024014 
Q 518.862762 209.326976 510.494009 209.326976 
Q 501.850228 209.326976 496.428219 215.141884 
Q 491.006211 220.956791 491.006211 231.486489 
Q 491.006211 241.662577 496.369284 247.30068 
Q 501.732358 252.938783 510.886908 252.938783 
Q 518.155543 252.938783 522.831043 249.402691 
Q 527.506543 245.866598 529.2353 239.462342 
L 521.927375 238.558674 
M 211.969223 246.848846 
Q 212.283542 249.79559 213.38366 251.995825 
L 220.770164 251.995825 
Q 219.434307 249.599141 218.982473 246.986361 
Q 218.530639 244.373582 218.530639 234.511813 
L 218.530639 225.082233 
Q 218.530639 220.367443 218.17703 218.560106 
Q 217.548391 215.652653 215.976794 213.747092 
Q 214.405198 211.841531 211.065555 210.584253 
Q 207.725912 209.326976 202.382483 209.326976 
Q 196.999765 209.326976 192.913613 210.800348 
Q 188.827462 212.27372 186.666517 215.004369 
Q 184.505571 217.735018 183.562613 222.174779 
L 190.477639 223.117737 
Q 191.617046 218.677976 193.994086 216.929575 
Q 196.371126 215.181174 201.360945 215.181174 
Q 206.704374 215.181174 209.415378 217.577858 
Q 211.419164 219.345905 211.419164 223.667796 
Q 211.419164 224.060695 211.379874 225.514422 
Q 207.333013 226.928859 198.767811 227.950396 
Q 194.56379 228.461165 192.481424 229.011224 
Q 189.65255 229.797023 187.39338 231.329329 
Q 185.13421 232.861636 183.739418 235.395836 
Q 182.344626 237.930035 182.344626 240.994649 
Q 182.344626 246.220208 186.037878 249.579496 
Q 189.73113 252.938783 196.606866 252.938783 
Q 200.771597 252.938783 204.405914 251.563636 
Q 208.040231 250.188489 211.969223 246.848846 
M 565.342733 236.712048 
Q 564.596224 242.016187 561.80664 244.570031 
Q 559.017056 247.123876 554.852325 247.123876 
Q 549.666056 247.123876 546.444283 243.312754 
Q 543.22251 239.501632 543.22251 231.09359 
Q 543.22251 222.803417 546.562153 218.972651 
Q 549.901796 215.141884 555.245224 215.141884 
Q 558.781317 215.141884 561.276227 217.263539 
Q 563.771136 219.385195 564.753384 223.589216 
L 571.62912 222.528388 
Q 570.411132 216.202711 566.089241 212.764844 
Q 561.76735 209.326976 554.970195 209.326976 
Q 549.587476 209.326976 545.010201 211.861176 
Q 540.432926 214.395375 538.193401 219.463774 
Q 535.953875 224.532174 535.953875 231.290039 
Q 535.953875 241.741157 541.159789 247.33997 
Q 546.365703 252.938783 554.930905 252.938783 
Q 561.76735 252.938783 566.462496 248.872277 
Q 571.157641 244.805771 572.297048 237.615716 
L 565.342733 236.712048 
M 887.520049 251.995825 
L 893.845726 251.995825 
L 893.845726 210.269934 
L 886.773541 210.269934 
L 886.773541 232.625897 
Q 886.773541 237.969325 885.614488 240.778554 
Q 884.455436 243.587783 881.665852 245.218315 
Q 878.876267 246.848846 875.693784 246.848846 
Q 872.511301 246.848846 870.350356 245.257605 
Q 868.18941 243.666363 867.521482 240.876779 
Q 867.089292 238.951573 867.089292 233.411695 
L 867.089292 210.269934 
L 860.017107 210.269934 
L 860.017107 236.122699 
Q 860.017107 240.64104 860.449297 242.723405 
Q 861.077935 245.827309 862.629887 247.968609 
Q 864.181839 250.109909 867.383967 251.524346 
Q 870.586095 252.938783 874.279347 252.938783 
Q 882.648099 252.938783 887.520049 245.866598 
L 887.520049 251.995825 
M 122.309633 268.92978 
L 127.378032 268.92978 
Q 115.630347 250.07062 115.630347 231.17217 
Q 115.630347 223.746375 117.319814 216.399161 
Q 118.694961 210.505674 121.091646 205.083665 
Q 122.623953 201.586862 127.378032 193.41456 
L 122.309633 193.41456 
Q 114.923129 203.276329 111.387036 213.216678 
Q 108.361713 221.78188 108.361713 231.13288 
Q 108.361713 241.741157 112.408574 251.642216 
Q 116.455436 261.543275 122.309633 268.92978 
M 1092.888443 268.92978 
Q 1098.703351 261.543275 1102.769857 251.642216 
Q 1106.836364 241.741157 1106.836364 231.13288 
Q 1106.836364 221.78188 1103.81104 213.216678 
Q 1100.274948 203.276329 1092.888443 193.41456 
L 1087.820044 193.41456 
Q 1092.613414 201.665442 1094.145721 205.201535 
Q 1096.542405 210.623543 1097.878263 216.517031 
Q 1099.567729 223.785665 1099.567729 231.17217 
Q 1099.567729 250.07062 1087.820044 268.92978 
L 1092.888443 268.92978 
M 361.231616 245.670149 
Q 359.30641 245.945178 358.127713 245.945178 
Q 356.556116 245.945178 355.711383 245.434409 
Q 354.86665 244.92364 354.493395 244.059262 
Q 354.120141 243.194884 354.120141 240.169561 
L 354.120141 215.770522 
L 361.231616 215.770522 
L 361.231616 210.269934 
L 354.120141 210.269934 
L 354.120141 195.693375 
L 347.087246 199.936686 
L 347.087246 210.269934 
L 341.900977 210.269934 
L 341.900977 215.770522 
L 347.087246 215.770522 
L 347.087246 239.776661 
Q 347.087246 246.141628 347.951624 248.125769 
Q 348.816002 250.109909 350.937658 251.327897 
Q 353.059313 252.545884 356.909725 252.545884 
Q 359.26712 252.545884 362.253154 251.917246 
L 361.231616 245.670149 
M 593.788633 245.670149 
Q 591.863427 245.945178 590.684729 245.945178 
Q 589.113132 245.945178 588.268399 245.434409 
Q 587.423666 244.92364 587.050412 244.059262 
Q 586.677158 243.194884 586.677158 240.169561 
L 586.677158 215.770522 
L 593.788633 215.770522 
L 593.788633 210.269934 
L 586.677158 210.269934 
L 586.677158 195.693375 
L 579.644263 199.936686 
L 579.644263 210.269934 
L 574.457994 210.269934 
L 574.457994 215.770522 
L 579.644263 215.770522 
L 579.644263 239.776661 
Q 579.644263 246.141628 580.508641 248.125769 
Q 581.373019 250.109909 583.494674 251.327897 
Q 585.61633 252.545884 589.466742 252.545884 
Q 591.824137 252.545884 594.81017 251.917246 
L 593.788633 245.670149 
M 1061.37793 251.995825 
L 1068.450115 251.995825 
L 1068.450115 230.150632 
Q 1068.450115 225.671581 1069.628813 221.899749 
Q 1070.414611 219.424485 1072.261237 218.029693 
Q 1074.107863 216.6349 1076.425968 216.6349 
Q 1079.019103 216.6349 1081.612237 218.167207 
L 1084.048212 211.605791 
Q 1080.35496 209.326976 1076.779577 209.326976 
Q 1074.304313 209.326976 1072.241592 210.741413 
Q 1070.178871 212.15585 1067.742897 216.595611 
L 1067.742897 210.269934 
L 1061.37793 210.269934 
L 1061.37793 251.995825 
M 229.413946 251.995825 
L 236.486131 251.995825 
L 236.486131 230.150632 
Q 236.486131 225.671581 237.664828 221.899749 
Q 238.450627 219.424485 240.297253 218.029693 
Q 242.143879 216.6349 244.461984 216.6349 
Q 247.055118 216.6349 249.648253 218.167207 
L 252.084228 211.605791 
Q 248.390976 209.326976 244.815593 209.326976 
Q 242.340328 209.326976 240.277608 210.741413 
Q 238.214887 212.15585 235.778912 216.595611 
L 235.778912 210.269934 
L 229.413946 210.269934 
L 229.413946 251.995825 
M 466.489303 268.183271 
Q 469.161017 268.92978 472.029181 268.92978 
Q 477.961958 268.92978 480.515803 265.000788 
Q 482.519589 261.975464 482.519589 254.274641 
L 482.519589 210.269934 
L 475.447404 210.269934 
L 475.447404 254.117481 
Q 475.447404 259.853809 474.386576 261.287891 
Q 473.325748 262.721973 471.164803 262.721973 
Q 469.946815 262.721973 467.82516 262.171914 
L 466.489303 268.183271 
M 602.707444 251.995825 
L 610.761877 251.995825 
L 610.761877 243.941393 
L 602.707444 243.941393 
L 602.707444 251.995825 
M 475.447404 202.6084 
L 482.519589 202.6084 
L 482.519589 194.396808 
L 475.447404 194.396808 
L 475.447404 202.6084 
M 374.590188 224.060695 
Q 374.590188 211.055732 380.42474 205.496209 
Q 386.259293 199.936686 394.353016 199.936686 
Q 400.050054 199.936686 404.627329 202.824495 
Q 409.204604 205.712304 411.581644 210.957508 
Q 413.958684 216.202711 413.958684 223.235606 
Q 413.958684 234.354653 408.399161 240.4053 
Q 402.839638 246.455947 394.235146 246.455947 
Q 385.787814 246.455947 380.189001 240.464235 
Q 374.590188 234.472523 374.590188 224.060695 
M 73.275817 230.386371 
L 76.183271 216.124132 
L 88.559595 216.124132 
L 85.612851 230.386371 
L 73.275817 230.386371 
M 260.845879 230.386371 
Q 260.845879 222.842707 264.146232 219.01194 
Q 267.446585 215.181174 272.161375 215.181174 
Q 276.954745 215.181174 280.353323 219.070875 
Q 283.751901 222.960577 283.751901 230.622111 
Q 283.751901 238.637254 280.451548 242.389441 
Q 277.151195 246.141628 272.279245 246.141628 
Q 267.368005 246.141628 264.106942 242.369796 
Q 260.845879 238.597964 260.845879 230.386371 
M 763.717522 231.368619 
Q 763.717522 223.314186 767.194679 219.09052 
Q 770.671837 214.866854 775.190178 214.866854 
Q 779.747808 214.866854 783.028516 218.835136 
Q 786.309224 222.803417 786.309224 230.77927 
Q 786.309224 239.148023 782.949936 243.135949 
Q 779.590648 247.123876 774.875858 247.123876 
Q 770.239648 247.123876 766.978585 243.273464 
Q 763.717522 239.423052 763.717522 231.368619 
M 978.397626 230.81856 
Q 978.397626 223.196317 981.776559 219.1691 
Q 985.155492 215.141884 989.791702 215.141884 
Q 994.388622 215.141884 997.63004 219.031585 
Q 1000.871459 222.921287 1000.871459 231.09359 
Q 1000.871459 239.069443 997.492526 243.096659 
Q 994.113593 247.123876 989.477383 247.123876 
Q 983.780345 247.123876 980.440702 241.662577 
Q 978.397626 238.322934 978.397626 230.81856 
M 437.179025 230.81856 
Q 437.179025 223.196317 440.557958 219.1691 
Q 443.936891 215.141884 448.573101 215.141884 
Q 453.170021 215.141884 456.411439 219.031585 
Q 459.652857 222.921287 459.652857 231.09359 
Q 459.652857 239.069443 456.273924 243.096659 
Q 452.894992 247.123876 448.258781 247.123876 
Q 442.561743 247.123876 439.222101 241.662577 
Q 437.179025 238.322934 437.179025 230.81856 
M 717.198261 231.13288 
Q 717.198261 223.117737 720.695063 219.149455 
Q 724.191866 215.181174 729.496005 215.181174 
Q 734.721563 215.181174 738.238011 219.1691 
Q 741.754458 223.157027 741.754458 230.89714 
Q 741.754458 239.108733 738.257656 243.116304 
Q 734.760853 247.123876 729.496005 247.123876 
Q 724.191866 247.123876 720.695063 243.135949 
Q 717.198261 239.148023 717.198261 231.13288 
M 672.447046 231.13288 
Q 672.447046 223.117737 675.943848 219.149455 
Q 679.440651 215.181174 684.744789 215.181174 
Q 689.970348 215.181174 693.486796 219.1691 
Q 697.003243 223.157027 697.003243 230.89714 
Q 697.003243 239.108733 693.506441 243.116304 
Q 690.009638 247.123876 684.744789 247.123876 
Q 679.440651 247.123876 675.943848 243.135949 
Q 672.447046 239.148023 672.447046 231.13288 
M 1022.048724 227.125308 
Q 1022.402333 221.66401 1025.722331 218.402947 
Q 1029.042329 215.141884 1033.914278 215.141884 
Q 1039.296997 215.141884 1042.67593 219.228035 
Q 1044.876165 221.860459 1045.347644 227.125308 
L 1022.048724 227.125308 
M 306.382893 227.125308 
Q 306.736502 221.66401 310.0565 218.402947 
Q 313.376498 215.141884 318.248447 215.141884 
Q 323.631166 215.141884 327.010099 219.228035 
Q 329.210334 221.860459 329.681813 227.125308 
L 306.382893 227.125308 
M 498.707034 227.125308 
Q 499.060644 221.66401 502.380642 218.402947 
Q 505.700639 215.141884 510.572589 215.141884 
Q 515.955308 215.141884 519.334241 219.228035 
Q 521.534476 221.860459 522.005955 227.125308 
L 498.707034 227.125308 
M 211.379874 231.0543 
L 211.379874 233.647434 
Q 211.379874 238.322934 210.240467 240.719619 
Q 208.74745 243.823523 205.564966 245.611214 
Q 202.382483 247.398905 198.296332 247.398905 
Q 194.170891 247.398905 192.02959 245.512989 
Q 189.88829 243.627073 189.88829 240.798199 
Q 189.88829 238.951573 190.870538 237.438911 
Q 191.852786 235.92625 193.660122 235.140451 
Q 195.467458 234.354653 199.828639 233.726014 
Q 207.529462 232.625897 211.379874 231.0543 
" clip-path="url(#p9fae146059)"/>
   </g>
  </g>
 </g>
 <defs>
  <clipPath id="p9fae146059">
   <rect x="7.2" y="7.2" width="1152" height="316.794598"/>
  </clipPath>
 </defs>
</svg>
