<?xml version="1.0" encoding="UTF-8" standalone="no"?>
<!-- Created with Inkscape (http://www.inkscape.org/) -->

<svg
   width="58.208332mm"
   height="58.208336mm"
   viewBox="0 0 58.208332 58.208336"
   version="1.1"
   id="svg2031"
   xmlns="http://www.w3.org/2000/svg"
   xmlns:svg="http://www.w3.org/2000/svg">
  <defs
     id="defs2028">
    <marker
       markerWidth="9.4488211"
       markerHeight="4.7226381"
       refX="4.7244105"
       refY="2.3613191"
       orient="auto"
       id="marker2480-6">
      <path
         style="opacity:1;fill:#000000;fill-opacity:1;stroke:#000000;stroke-width:0;stroke-linecap:round;stroke-linejoin:miter;stroke-miterlimit:4;stroke-dasharray:none;stroke-dashoffset:6.51969;stroke-opacity:1;paint-order:normal"
         d="m 9.4488194,2.4201489e-6 c 0,0 0,4.7226330798511 0,4.7226330798511 L 4.5817615e-7,2.3613379 Z"
         id="path2478-2" />
    </marker>
    <marker
       markerWidth="9.4488211"
       markerHeight="4.7226381"
       refX="4.7244105"
       refY="2.3613191"
       orient="auto"
       id="marker2430">
      <path
         style="opacity:1;fill:#000000;fill-opacity:1;stroke:#000000;stroke-width:0;stroke-linecap:round;stroke-linejoin:miter;stroke-miterlimit:4;stroke-dasharray:none;stroke-dashoffset:6.51969;stroke-opacity:1;paint-order:normal"
         d="m 1.8897638e-6,2.4201488e-6 c 0,0 0,4.7226330798512 0,4.7226330798512 L 9.4488208,2.3613379 Z"
         id="path2428" />
    </marker>
    <marker
       markerWidth="9.4488211"
       markerHeight="4.7226381"
       refX="4.7244105"
       refY="2.3613191"
       orient="auto"
       id="marker2430-9-7">
      <path
         style="opacity:1;fill:#000000;fill-opacity:1;stroke:#000000;stroke-width:0;stroke-linecap:round;stroke-linejoin:miter;stroke-miterlimit:4;stroke-dasharray:none;stroke-dashoffset:6.51969;stroke-opacity:1;paint-order:normal"
         d="m 1.8897638e-6,2.4201488e-6 c 0,0 0,4.7226330798512 0,4.7226330798512 L 9.4488208,2.3613379 Z"
         id="path2428-1-0" />
    </marker>
    <marker
       markerWidth="9.4488211"
       markerHeight="4.7226381"
       refX="4.7244105"
       refY="2.3613191"
       orient="auto"
       id="marker13516">
      <path
         style="opacity:1;fill:#000000;fill-opacity:1;stroke:#000000;stroke-width:0;stroke-linecap:round;stroke-linejoin:miter;stroke-miterlimit:4;stroke-dasharray:none;stroke-dashoffset:6.51969;stroke-opacity:1;paint-order:normal"
         d="m 1.8897638e-6,2.4201488e-6 c 0,0 0,4.7226330798512 0,4.7226330798512 L 9.4488208,2.3613379 Z"
         id="path13514" />
    </marker>
    <marker
       markerWidth="9.4488211"
       markerHeight="4.7226381"
       refX="4.7244105"
       refY="2.3613191"
       orient="auto"
       id="marker2430-9-7-4">
      <path
         style="opacity:1;fill:#000000;fill-opacity:1;stroke:#000000;stroke-width:0;stroke-linecap:round;stroke-linejoin:miter;stroke-miterlimit:4;stroke-dasharray:none;stroke-dashoffset:6.51969;stroke-opacity:1;paint-order:normal"
         d="m 1.8897638e-6,2.4201488e-6 c 0,0 0,4.7226330798512 0,4.7226330798512 L 9.4488208,2.3613379 Z"
         id="path2428-1-0-9" />
    </marker>
    <marker
       markerWidth="9.4488211"
       markerHeight="4.7226381"
       refX="4.7244105"
       refY="2.3613191"
       orient="auto"
       id="marker2430-9-7-0">
      <path
         style="opacity:1;fill:#000000;fill-opacity:1;stroke:#000000;stroke-width:0;stroke-linecap:round;stroke-linejoin:miter;stroke-miterlimit:4;stroke-dasharray:none;stroke-dashoffset:6.51969;stroke-opacity:1;paint-order:normal"
         d="m 1.8897638e-6,2.4201488e-6 c 0,0 0,4.7226330798512 0,4.7226330798512 L 9.4488208,2.3613379 Z"
         id="path2428-1-0-94" />
    </marker>
  </defs>
  <g
     id="layer1"
     transform="translate(61.707187,-1570.935)">
    <g
       id="g38155"
       transform="translate(-500.10302,1525.6017)">
      <path
         style="opacity:1;fill:none;fill-opacity:1;stroke:#000000;stroke-width:0.5;stroke-linecap:round;stroke-linejoin:round;stroke-miterlimit:4;stroke-dasharray:none;stroke-dashoffset:6.51969;stroke-opacity:1;paint-order:normal"
         d="m 467.5,59.5 h -7.49999 v 15 L 467.5,82 c 0,0 7.50001,-7.5 7.50001,-7.5 v -15 z"
         id="path2068" />
      <path
         id="path2070"
         d="m 477.5,62 h 5"
         style="display:inline;fill:none;stroke:#000000;stroke-width:0.25;stroke-linecap:round;stroke-linejoin:round;stroke-miterlimit:4;stroke-dasharray:none;stroke-opacity:1" />
      <path
         style="display:inline;fill:none;stroke:#000000;stroke-width:0.25;stroke-linecap:round;stroke-linejoin:round;stroke-miterlimit:4;stroke-dasharray:none;stroke-opacity:1"
         d="m 467.50001,89.5 v -5"
         id="path2072" />
      <path
         style="display:inline;fill:none;stroke:#000000;stroke-width:0.25;stroke-linecap:round;stroke-linejoin:round;stroke-miterlimit:4;stroke-dasharray:none;stroke-opacity:1"
         d="m 452.5,62 h 5"
         id="path2074" />
      <g
         id="g2038"
         transform="translate(-59.99998,24.999999)">
        <path
           style="opacity:1;fill:none;fill-opacity:1;stroke:#000000;stroke-width:0.5;stroke-linecap:round;stroke-linejoin:round;stroke-miterlimit:4;stroke-dasharray:none;stroke-dashoffset:18.8976;stroke-opacity:1;paint-order:normal"
           id="path2032"
           d="m 525.83335,-47 a 1.6666584,1.6670001 0 0 1 -0.83333,1.443664 1.6666584,1.6670001 0 0 1 -1.66666,0 A 1.6666584,1.6670001 0 0 1 522.50003,-47"
           transform="scale(1,-1)" />
        <path
           style="opacity:1;fill:none;fill-opacity:1;stroke:#000000;stroke-width:0.546958;stroke-linecap:round;stroke-linejoin:round;stroke-miterlimit:4;stroke-dasharray:none;stroke-dashoffset:18.8976;stroke-opacity:1;paint-order:normal"
           id="use2034"
           d="m 529.16666,-47.001034 a 1.6666584,1.6650804 0 0 1 -0.83333,1.442002 1.6666584,1.6650804 0 0 1 -1.66666,0 1.6666584,1.6650804 0 0 1 -0.83333,-1.442002"
           transform="scale(1,-1)" />
        <path
           style="opacity:1;fill:none;fill-opacity:1;stroke:#000000;stroke-width:0.546958;stroke-linecap:round;stroke-linejoin:round;stroke-miterlimit:4;stroke-dasharray:none;stroke-dashoffset:18.8976;stroke-opacity:1;paint-order:normal"
           id="use2036"
           d="m 532.49997,-47.001034 a 1.6666584,1.6650804 0 0 1 -0.83333,1.442002 1.6666584,1.6650804 0 0 1 -1.66666,0 1.6666584,1.6650804 0 0 1 -0.83333,-1.442002"
           transform="scale(1,-1)" />
        <path
           id="path2028"
           d="m 522.49998,47.000001 h -1.25"
           style="opacity:1;fill:none;fill-opacity:1;stroke:#000000;stroke-width:0.5;stroke-linecap:round;stroke-linejoin:round;stroke-miterlimit:4;stroke-dasharray:none;stroke-dashoffset:18.8976;stroke-opacity:1;paint-order:normal" />
        <path
           style="opacity:1;fill:none;fill-opacity:1;stroke:#000000;stroke-width:0.5;stroke-linecap:round;stroke-linejoin:round;stroke-miterlimit:4;stroke-dasharray:none;stroke-dashoffset:18.8976;stroke-opacity:1;paint-order:normal"
           d="M 533.75,47.000001 H 532.5"
           id="path2030" />
      </g>
    </g>
  </g>
</svg>
