<?xml version="1.0" encoding="UTF-8"?>
<!-- Created with Inkscape (http://www.inkscape.org/) -->
<svg width="39.688mm" height="34.396mm" version="1.1" viewBox="0 0 39.688 34.396" xml:space="preserve" xmlns="http://www.w3.org/2000/svg" xmlns:xlink="http://www.w3.org/1999/xlink"><defs/><g transform="translate(-14.799 -4.8696)" fill="none" stroke="#000"><path d="m34.554 6.9851v5.188" stroke-width=".15"/><path transform="translate(.0071697 24.977)" d="m34.554 6.9851v5.188" stroke-width=".15"/><g stroke-width=".3"><path d="m27.068 29.525h15.009l5.0215-14.897h-24.912z"/><path transform="translate(.019726)" d="m27.03 29.567v-14.992"/><path transform="translate(15.027)" d="m27.03 29.567v-14.992"/></g><g stroke-width=".3"><path d="m32.026 19.571c1.6924 1.6924 3.3849 3.3849 5.0773 5.0773"/><path d="m30.645 20.952c0.92526-0.90666 1.8505-1.8133 2.7758-2.72"/><path transform="translate(4.9794 5.0116)" d="m30.645 20.952c0.92526-0.90666 1.8505-1.8133 2.7758-2.72"/></g><g transform="matrix(-1 0 0 1 69.083 0)" stroke-width=".3"><path d="m32.026 19.571c1.6924 1.6924 3.3849 3.3849 5.0773 5.0773"/><path d="m30.645 20.952c0.92526-0.90666 1.8505-1.8133 2.7758-2.72"/><path transform="translate(4.9794 5.0116)" d="m30.645 20.952c0.92526-0.90666 1.8505-1.8133 2.7758-2.72"/></g></g></svg>
