<?xml version="1.0" encoding="UTF-8"?>
<!-- Created with Inkscape (http://www.inkscape.org/) -->
<svg width="39.688mm" height="34.396mm" version="1.1" viewBox="0 0 39.688 34.396" xml:space="preserve" xmlns="http://www.w3.org/2000/svg" xmlns:xlink="http://www.w3.org/1999/xlink"><defs/><g transform="translate(-14.799 -4.8696)" fill="none" stroke="#000"><g><path d="m34.554 6.9851v5.188" stroke-width=".15"/><path transform="translate(.0071697 24.977)" d="m34.554 6.9851v5.188" stroke-width=".15"/><g stroke-width=".3"><path d="m27.068 29.525h15.009l5.0215-14.897h-24.912z"/><path transform="translate(.019726)" d="m27.03 29.567v-14.992"/><path transform="translate(15.027)" d="m27.03 29.567v-14.992"/></g></g><circle cx="34.503" cy="22.081" r="2.4959" stroke-linecap="round" stroke-width=".3"/><g stroke-width=".3"><path transform="translate(0 .025714)" d="m29.418 17.033 3.3616 3.3616"/><path transform="translate(6.815 6.7714)" d="m29.418 17.033 3.3616 3.3616"/><path transform="matrix(-1 0 0 1 62.267 6.7714)" d="m29.418 17.033 3.3616 3.3616"/><path transform="matrix(-1 0 0 1 69.043 .025714)" d="m29.418 17.033 3.3616 3.3616"/></g></g></svg>
