<?xml version="1.0" encoding="UTF-8"?>
<!-- Created with Inkscape (http://www.inkscape.org/) -->
<svg width="39.688mm" height="34.396mm" version="1.1" viewBox="0 0 39.688 34.396" xml:space="preserve" xmlns="http://www.w3.org/2000/svg" xmlns:xlink="http://www.w3.org/1999/xlink"><defs/><g transform="translate(-14.799 -4.8696)" stroke="#000"><g fill="none"><g><path d="m34.554 6.9851v5.188" stroke-width=".15"/><path transform="translate(.0071697 24.977)" d="m34.554 6.9851v5.188" stroke-width=".15"/><g stroke-width=".3"><path d="m27.068 29.525h15.009l5.0215-14.897h-24.912z"/><path d="m24 20.375c1.4693-1.9342 2.9385-3.8684 4.4078-5.8026"/><path transform="matrix(-1 0 0 1 69.24 .05887)" d="m24 20.375c1.4693-1.9342 2.9385-3.8684 4.4078-5.8026"/></g></g><circle cx="34.613" cy="22.109" r="5.0007" stroke-linecap="round" stroke-width=".3"/></g><g><path transform="matrix(-.10203 0 0 .10203 46.95 20.203)" d="m146.89 30.677h-41.353" stroke-width="2"/><path transform="matrix(-.10203 0 0 .10203 46.95 20.203)" d="m120.94 25.324v10.6l-21.198-5.3z" stroke-width="2.12"/><path transform="matrix(.10203 0 0 .10203 22.16 17.74)" d="m147.34 30.677h-25.694" stroke-width="2"/><path transform="matrix(.10203 0 0 .10203 22.16 17.74)" d="m120.94 25.324v10.6l-21.198-5.3z" stroke-width="2.12"/></g></g></svg>
