<?xml version="1.0" encoding="UTF-8"?>
<!-- Created with Inkscape (http://www.inkscape.org/) -->
<svg width="39.688mm" height="34.396mm" version="1.1" viewBox="0 0 39.688 34.396" xml:space="preserve" xmlns="http://www.w3.org/2000/svg" xmlns:xlink="http://www.w3.org/1999/xlink"><defs/><g transform="translate(-14.799 -4.8696)" fill="none" stroke="#000"><g><path d="m34.554 6.9851v5.188" stroke-width=".15"/><path transform="translate(.0071697 24.977)" d="m34.554 6.9851v5.188" stroke-width=".15"/><g stroke-width=".3"><path d="m27.068 29.525h15.009l5.0215-14.897h-24.912z"/><path d="m24 20.375c1.4693-1.9342 2.9385-3.8684 4.4078-5.8026"/><path transform="matrix(-1 0 0 1 69.24 .05887)" d="m24 20.375c1.4693-1.9342 2.9385-3.8684 4.4078-5.8026"/></g></g><circle cx="34.581" cy="22.016" r="2.4843" stroke-linecap="round" stroke-width=".3"/><g stroke-width=".3"><path transform="translate(0 .053166)" d="m36.321 20.256c1.1178-1.1047 2.2357-2.2094 3.3535-3.314"/><path transform="translate(-6.8161 6.8754)" d="m36.321 20.256c1.1178-1.1047 2.2357-2.2094 3.3535-3.314"/><path transform="matrix(-1 0 0 1 75.951 6.8754)" d="m36.321 20.256c1.1178-1.1047 2.2357-2.2094 3.3535-3.314"/><path transform="matrix(-1 0 0 1 69.133 .053166)" d="m36.321 20.256c1.1178-1.1047 2.2357-2.2094 3.3535-3.314"/></g></g></svg>
