<?xml version="1.0" encoding="utf-8" standalone="no"?>
<!DOCTYPE svg PUBLIC "-//W3C//DTD SVG 1.1//EN"
  "http://www.w3.org/Graphics/SVG/1.1/DTD/svg11.dtd">
<svg xmlns:xlink="http://www.w3.org/1999/xlink" width="474.838871pt" height="360pt" viewBox="0 0 474.838871 360" xmlns="http://www.w3.org/2000/svg" version="1.1">
 <metadata>
  <rdf:RDF xmlns:dc="http://purl.org/dc/elements/1.1/" xmlns:cc="http://creativecommons.org/ns#" xmlns:rdf="http://www.w3.org/1999/02/22-rdf-syntax-ns#">
   <cc:Work>
    <dc:type rdf:resource="http://purl.org/dc/dcmitype/StillImage"/>
    <dc:date>2026-02-17T09:28:54.768624</dc:date>
    <dc:format>image/svg+xml</dc:format>
    <dc:creator>
     <cc:Agent>
      <dc:title>Matplotlib v3.10.8, https://matplotlib.org/</dc:title>
     </cc:Agent>
    </dc:creator>
   </cc:Work>
  </rdf:RDF>
 </metadata>
 <defs>
  <style type="text/css">*{stroke-linejoin: round; stroke-linecap: butt}</style>
 </defs>
 <g id="figure_1">
  <g id="patch_1">
   <path d="M 0 360 
L 474.838871 360 
L 474.838871 0 
L 0 0 
L 0 360 
z
" style="fill: none"/>
  </g>
  <g id="axes_1">
   <g id="patch_2">
    <path d="M 28.12904 337.090909 
L 446.709832 337.090909 
L 446.709832 22.909091 
L 28.12904 22.909091 
L 28.12904 337.090909 
" clip-path="url(#p3c6d079f1f)" style="fill: none; stroke: #ffdf7f; stroke-width: 0.72; stroke-linejoin: miter"/>
   </g>
   <g id="line2d_1">
    <path d="M 115.253577 84.38012 
L 119.193161 84.38012 
" clip-path="url(#p3c6d079f1f)" style="fill: none; stroke: #000000; stroke-width: 0.72; stroke-linecap: square"/>
   </g>
   <g id="line2d_2">
    <path d="M 115.253577 84.38012 
L 115.253577 81.425433 
" clip-path="url(#p3c6d079f1f)" style="fill: none; stroke: #000000; stroke-width: 0.72; stroke-linecap: square"/>
   </g>
   <g id="line2d_3">
    <path d="M 119.193161 84.38012 
L 119.193161 81.425433 
" clip-path="url(#p3c6d079f1f)" style="fill: none; stroke: #000000; stroke-width: 0.72; stroke-linecap: square"/>
   </g>
   <g id="line2d_4">
    <path d="M 115.253577 81.425433 
L 117.223369 80.440537 
" clip-path="url(#p3c6d079f1f)" style="fill: none; stroke: #000000; stroke-width: 0.72; stroke-linecap: square"/>
   </g>
   <g id="line2d_5">
    <path d="M 119.193161 81.425433 
L 117.223369 80.440537 
" clip-path="url(#p3c6d079f1f)" style="fill: none; stroke: #000000; stroke-width: 0.72; stroke-linecap: square"/>
   </g>
   <g id="patch_3">
    <path d="M 108.786995 85.447487 
L 108.953823 85.447487 
L 108.953823 84.747989 
L 109.147309 84.747989 
Q 109.211804 84.747989 109.240182 84.755511 
Q 109.278879 84.76733 109.316286 84.797416 
Q 109.353693 84.827502 109.40099 84.902717 
Q 109.448286 84.977932 109.521381 85.119765 
L 109.688209 85.447487 
L 109.898033 85.447487 
L 109.678749 85.018762 
Q 109.613394 84.893046 109.5403 84.809235 
Q 109.505902 84.770554 109.439687 84.730797 
Q 109.621134 84.699637 109.707987 84.584665 
Q 109.794841 84.469694 109.794841 84.302073 
Q 109.794841 84.172058 109.742385 84.064609 
Q 109.689929 83.957159 109.602215 83.914716 
Q 109.514502 83.872274 109.345954 83.872274 
L 108.786995 83.872274 
L 108.786995 85.447487 
M 108.953823 84.567474 
L 108.953823 84.046342 
L 109.352833 84.046342 
Q 109.493003 84.046342 109.557928 84.118334 
Q 109.622854 84.190325 109.622854 84.302073 
Q 109.622854 84.378362 109.589316 84.443369 
Q 109.555778 84.508376 109.491283 84.537925 
Q 109.426788 84.567474 109.312416 84.567474 
L 108.953823 84.567474 
" clip-path="url(#p3c6d079f1f)"/>
   </g>
   <g id="line2d_6">
    <path d="M 109.284469 82.513178 
L 106.920718 84.876929 
" clip-path="url(#p3c6d079f1f)" style="fill: none; stroke: #000000; stroke-width: 0.72; stroke-linecap: square"/>
   </g>
   <g id="line2d_7">
    <path d="M 106.920718 84.876929 
L 109.284469 87.240679 
" clip-path="url(#p3c6d079f1f)" style="fill: none; stroke: #000000; stroke-width: 0.72; stroke-linecap: square"/>
   </g>
   <g id="line2d_8">
    <path d="M 109.284469 87.240679 
L 111.648219 84.876929 
" clip-path="url(#p3c6d079f1f)" style="fill: none; stroke: #000000; stroke-width: 0.72; stroke-linecap: square"/>
   </g>
   <g id="line2d_9">
    <path d="M 111.648219 84.876929 
L 109.284469 82.513178 
" clip-path="url(#p3c6d079f1f)" style="fill: none; stroke: #000000; stroke-width: 0.72; stroke-linecap: square"/>
   </g>
   <g id="patch_4">
    <path d="M 89.37395 83.364914 
L 89.540777 83.417565 
Q 89.488321 83.674369 89.352021 83.809219 
Q 89.215722 83.944068 89.018796 83.944068 
Q 88.814991 83.944068 88.687291 83.840379 
Q 88.55959 83.73669 88.492945 83.540057 
Q 88.4263 83.343424 88.4263 83.11778 
Q 88.4263 82.87172 88.501544 82.688518 
Q 88.576789 82.505316 88.715668 82.410223 
Q 88.854548 82.31513 89.021376 82.31513 
Q 89.210562 82.31513 89.339552 82.435474 
Q 89.468543 82.555818 89.519279 82.773941 
L 89.355031 82.822293 
Q 89.311174 82.650373 89.227761 82.571935 
Q 89.144347 82.493497 89.017936 82.493497 
Q 88.872607 82.493497 88.775004 82.580531 
Q 88.677401 82.667565 88.637844 82.814234 
Q 88.598287 82.960903 88.598287 83.116705 
Q 88.598287 83.317636 88.645154 83.467529 
Q 88.69202 83.617421 88.790913 83.691561 
Q 88.889806 83.765702 89.005037 83.765702 
Q 89.145207 83.765702 89.24238 83.664699 
Q 89.339552 83.563696 89.37395 83.364914 
" clip-path="url(#p3c6d079f1f)"/>
   </g>
   <g id="patch_5">
    <path d="M 88.974509 80.982897 
L 85.428884 84.528523 
L 88.974509 88.074148 
L 92.520135 84.528523 
L 88.974509 80.982897 
" clip-path="url(#p3c6d079f1f)" style="fill: none; stroke: #000000; stroke-width: 0.72; stroke-linejoin: miter"/>
   </g>
   <g id="line2d_10">
    <path d="M 85.428884 84.528523 
L 92.520135 84.528523 
" clip-path="url(#p3c6d079f1f)" style="fill: none; stroke: #000000; stroke-width: 0.72; stroke-linecap: square"/>
   </g>
   <g id="line2d_11">
    <path d="M 151.241037 86.92733 
L 151.241037 81.411912 
" clip-path="url(#p3c6d079f1f)" style="fill: none; stroke: #000000; stroke-width: 0.72; stroke-linecap: square"/>
   </g>
   <g id="patch_6">
    <path d="M 151.625325 79.866358 
C 151.498225 79.846168 151.36973 79.836044 151.241037 79.836079 
C 151.112344 79.836044 150.983849 79.846168 150.85675 79.866358 
C 150.721088 79.887832 150.587573 79.921172 150.457742 79.965994 
C 150.344791 80.005057 150.23526 80.053387 150.130268 80.110489 
C 150.0281 80.166121 149.931129 80.230807 149.840521 80.303768 
C 149.753981 80.373503 149.674439 80.451501 149.603021 80.536657 
C 149.532695 80.620514 149.471723 80.71179 149.421187 80.808867 
C 149.372406 80.902689 149.334785 81.001904 149.309094 81.104482 
C 149.284023 81.205038 149.271313 81.308278 149.271245 81.411912 
L 153.210829 81.411912 
C 153.210762 81.308278 153.198052 81.205038 153.17298 81.104482 
C 153.14729 81.001904 153.109669 80.902689 153.060888 80.808867 
C 153.010352 80.71179 152.94938 80.620514 152.879053 80.536657 
C 152.807635 80.451501 152.728093 80.373503 152.641553 80.303768 
C 152.550945 80.230807 152.453974 80.166121 152.351806 80.110489 
C 152.246814 80.053387 152.137284 80.005057 152.024332 79.965994 
C 151.894501 79.921172 151.760986 79.887832 151.625325 79.866358 
" clip-path="url(#p3c6d079f1f)"/>
   </g>
   <g id="line2d_12">
    <path d="M 149.271245 81.411912 
L 153.210829 81.411912 
" clip-path="url(#p3c6d079f1f)" style="fill: none; stroke: #000000; stroke-width: 0.72; stroke-linecap: square"/>
   </g>
   <g id="patch_7">
    <path d="M 153.210829 81.411912 
C 153.210762 81.308278 153.198052 81.205038 153.17298 81.104482 
C 153.14729 81.001904 153.109669 80.902689 153.060888 80.808867 
C 153.010305 80.711701 152.949268 80.620346 152.878859 80.536426 
C 152.805383 80.448846 152.723317 80.368848 152.633891 80.29763 
C 152.540612 80.22329 152.440692 80.157689 152.335395 80.101654 
C 152.226236 80.043496 152.112304 79.994777 151.994844 79.956032 
C 151.874299 79.916196 151.75072 79.886207 151.625325 79.866358 
C 151.498225 79.846168 151.36973 79.836044 151.241037 79.836079 
C 151.112344 79.836044 150.983849 79.846168 150.85675 79.866358 
C 150.731354 79.886207 150.607776 79.916196 150.487231 79.956032 
C 150.36977 79.994777 150.255838 80.043496 150.14668 80.101654 
C 150.041383 80.157689 149.941463 80.22329 149.848184 80.29763 
C 149.758758 80.368848 149.676692 80.448846 149.603215 80.536426 
C 149.532807 80.620346 149.47177 80.711701 149.421187 80.808867 
C 149.372406 80.902689 149.334785 81.001904 149.309094 81.104482 
C 149.284023 81.205038 149.271313 81.308278 149.271245 81.411912 
" clip-path="url(#p3c6d079f1f)" style="fill: none; stroke: #000000; stroke-width: 0.72; stroke-linejoin: miter"/>
   </g>
   <g id="patch_8">
    <path d="M 99.57498 94.451792 
L 99.741807 94.451792 
L 99.741807 93.811391 
L 100.065143 93.811391 
Q 100.332584 93.811391 100.434916 93.672244 
Q 100.537249 93.533096 100.537249 93.332165 
Q 100.537249 93.215045 100.498981 93.117266 
Q 100.460714 93.019487 100.397939 92.965225 
Q 100.335163 92.910962 100.24229 92.891622 
Q 100.176075 92.876579 100.050525 92.876579 
L 99.57498 92.876579 
L 99.57498 94.451792 
M 99.741807 93.625503 
L 99.741807 93.062467 
L 100.064283 93.062467 
Q 100.177795 93.062467 100.219932 93.076435 
Q 100.285287 93.099 100.325274 93.169379 
Q 100.365261 93.239759 100.365261 93.338612 
Q 100.365261 93.475074 100.297326 93.550288 
Q 100.229391 93.625503 100.067723 93.625503 
L 99.741807 93.625503 
" clip-path="url(#p3c6d079f1f)"/>
   </g>
   <g id="line2d_13">
    <path d="M 100.026446 91.517483 
L 97.662696 93.881234 
" clip-path="url(#p3c6d079f1f)" style="fill: none; stroke: #000000; stroke-width: 0.72; stroke-linecap: square"/>
   </g>
   <g id="line2d_14">
    <path d="M 97.662696 93.881234 
L 100.026446 96.244984 
" clip-path="url(#p3c6d079f1f)" style="fill: none; stroke: #000000; stroke-width: 0.72; stroke-linecap: square"/>
   </g>
   <g id="line2d_15">
    <path d="M 100.026446 96.244984 
L 102.390197 93.881234 
" clip-path="url(#p3c6d079f1f)" style="fill: none; stroke: #000000; stroke-width: 0.72; stroke-linecap: square"/>
   </g>
   <g id="line2d_16">
    <path d="M 102.390197 93.881234 
L 100.026446 91.517483 
" clip-path="url(#p3c6d079f1f)" style="fill: none; stroke: #000000; stroke-width: 0.72; stroke-linecap: square"/>
   </g>
   <g id="line2d_17">
    <path d="M 129.573326 82.987746 
L 133.51291 82.987746 
" clip-path="url(#p3c6d079f1f)" style="fill: none; stroke: #000000; stroke-width: 0.72; stroke-linecap: square"/>
   </g>
   <g id="patch_9">
    <path d="M 132.528014 88.897122 
C 132.528014 89.441065 132.087061 89.882018 131.543118 89.882018 
C 130.999175 89.882018 130.558222 89.441065 130.558222 88.897122 
C 130.558222 88.353179 130.999175 87.912226 131.543118 87.912226 
C 132.087061 87.912226 132.528014 88.353179 132.528014 88.897122 
" clip-path="url(#p3c6d079f1f)" style="fill: none; stroke: #000000; stroke-width: 0.72; stroke-linejoin: miter"/>
   </g>
  </g>
 </g>
 <defs>
  <clipPath id="p3c6d079f1f">
   <rect x="7.2" y="7.2" width="460.438871" height="345.6"/>
  </clipPath>
 </defs>
</svg>
