<?xml version="1.0" encoding="utf-8" standalone="no"?>
<!DOCTYPE svg PUBLIC "-//W3C//DTD SVG 1.1//EN"
  "http://www.w3.org/Graphics/SVG/1.1/DTD/svg11.dtd">
<svg xmlns:xlink="http://www.w3.org/1999/xlink" width="379.2pt" height="360pt" viewBox="0 0 379.2 360" xmlns="http://www.w3.org/2000/svg" version="1.1">
 <metadata>
  <rdf:RDF xmlns:dc="http://purl.org/dc/elements/1.1/" xmlns:cc="http://creativecommons.org/ns#" xmlns:rdf="http://www.w3.org/1999/02/22-rdf-syntax-ns#">
   <cc:Work>
    <dc:type rdf:resource="http://purl.org/dc/dcmitype/StillImage"/>
    <dc:date>2026-02-17T09:28:51.095833</dc:date>
    <dc:format>image/svg+xml</dc:format>
    <dc:creator>
     <cc:Agent>
      <dc:title>Matplotlib v3.10.8, https://matplotlib.org/</dc:title>
     </cc:Agent>
    </dc:creator>
   </cc:Work>
  </rdf:RDF>
 </metadata>
 <defs>
  <style type="text/css">*{stroke-linejoin: round; stroke-linecap: butt}</style>
 </defs>
 <g id="figure_1">
  <g id="patch_1">
   <path d="M 0 360 
L 379.2 360 
L 379.2 0 
L 0 0 
L 0 360 
z
" style="fill: none"/>
  </g>
  <g id="axes_1">
   <g id="patch_2">
    <path d="M 263.597506 222.743396 
L 270.985261 222.743396 
L 270.985261 191.739551 
L 279.553534 191.739551 
Q 282.409625 191.739551 283.666305 192.072926 
Q 285.37996 192.5968 287.036492 193.930299 
Q 288.693025 195.263798 290.787492 198.597544 
Q 292.881959 201.931291 296.118862 208.217785 
L 303.506617 222.743396 
L 312.798433 222.743396 
L 303.087724 203.741039 
Q 300.193551 198.16892 296.956648 194.454173 
Q 295.4334 192.739675 292.501146 190.977552 
Q 300.536282 189.596428 304.382485 184.500558 
Q 308.228687 179.404688 308.228687 171.975195 
Q 308.228687 166.212576 305.905733 161.450081 
Q 303.582779 156.687585 299.698496 154.8064 
Q 295.814212 152.925214 288.350294 152.925214 
L 263.597506 152.925214 
L 263.597506 222.743396 
M 270.985261 183.738559 
L 270.985261 160.640456 
L 288.654944 160.640456 
Q 294.862182 160.640456 297.737313 163.831328 
Q 300.612445 167.0222 300.612445 171.975195 
Q 300.612445 175.356567 299.127277 178.237877 
Q 297.64211 181.119186 294.786019 182.428873 
Q 291.929928 183.738559 286.865127 183.738559 
L 270.985261 183.738559 
" clip-path="url(#pf42b37db81)"/>
   </g>
   <g id="patch_3">
    <path d="M 76.145455 197.454545 
L 215.781818 197.454545 
L 285.6 127.636364 
L 355.418182 197.454545 
L 285.6 267.272727 
L 215.781818 197.454545 
" clip-path="url(#pf42b37db81)" style="fill: none; stroke: #000000; stroke-width: 0.72; stroke-linejoin: miter"/>
   </g>
   <g id="patch_4">
    <path d="M 76.145455 337.090909 
L 76.145455 127.636364 
L 23.781818 127.636364 
L 23.781818 22.909091 
L 128.509091 22.909091 
L 128.509091 127.636364 
L 76.145455 127.636364 
" clip-path="url(#pf42b37db81)" style="fill: none; stroke: #000000; stroke-width: 0.72; stroke-linejoin: miter"/>
   </g>
   <g id="patch_5">
    <path d="M 53.666945 78.130224 
L 60.635807 77.368225 
Q 61.130863 82.60697 62.939721 85.964529 
Q 64.748578 89.322089 68.556699 91.393774 
Q 72.364821 93.46546 77.124972 93.46546 
Q 81.351987 93.46546 84.58889 91.893836 
Q 87.825793 90.322213 89.406163 87.583778 
Q 90.986534 84.845343 90.986534 81.606846 
Q 90.986534 78.320724 89.463285 75.868039 
Q 87.940037 73.415354 84.436565 71.748481 
Q 82.189774 70.653107 74.497369 68.343297 
Q 66.804964 66.033486 63.720385 63.985613 
Q 59.721858 61.366241 57.760676 57.484807 
Q 55.799493 53.603373 55.799493 48.793253 
Q 55.799493 43.506883 58.19861 38.911075 
Q 60.597726 34.315267 65.205553 31.93402 
Q 69.813379 29.552772 75.449399 29.552772 
Q 81.656637 29.552772 86.397748 32.053082 
Q 91.138859 34.553392 93.6903 39.411137 
Q 96.241741 44.268883 96.432147 50.412502 
L 89.349042 51.079251 
Q 88.777823 44.459382 85.483799 41.078011 
Q 82.189774 37.696639 75.754049 37.696639 
Q 69.051755 37.696639 65.986218 40.768448 
Q 62.92068 43.840258 62.92068 48.174129 
Q 62.92068 51.9365 65.091309 54.365373 
Q 67.223857 56.794245 76.230064 59.34218 
Q 85.236271 61.890115 88.587417 63.795113 
Q 93.461813 66.604986 95.784767 70.915044 
Q 98.107721 75.225102 98.107721 80.844847 
Q 98.107721 86.416966 95.556279 91.346149 
Q 93.004838 96.275332 88.225646 99.013767 
Q 83.446454 101.752201 77.467703 101.752201 
Q 69.889542 101.752201 64.767619 98.989954 
Q 59.645696 96.227707 56.732483 90.6794 
Q 53.81927 85.131093 53.666945 78.130224 
" clip-path="url(#pf42b37db81)"/>
   </g>
  </g>
 </g>
 <defs>
  <clipPath id="pf42b37db81">
   <rect x="7.2" y="7.2" width="364.8" height="345.6"/>
  </clipPath>
 </defs>
</svg>
