<?xml version="1.0" encoding="utf-8" standalone="no"?>
<!DOCTYPE svg PUBLIC "-//W3C//DTD SVG 1.1//EN"
  "http://www.w3.org/Graphics/SVG/1.1/DTD/svg11.dtd">
<svg xmlns:xlink="http://www.w3.org/1999/xlink" width="863.759736pt" height="360pt" viewBox="0 0 863.759736 360" xmlns="http://www.w3.org/2000/svg" version="1.1">
 <metadata>
  <rdf:RDF xmlns:dc="http://purl.org/dc/elements/1.1/" xmlns:cc="http://creativecommons.org/ns#" xmlns:rdf="http://www.w3.org/1999/02/22-rdf-syntax-ns#">
   <cc:Work>
    <dc:type rdf:resource="http://purl.org/dc/dcmitype/StillImage"/>
    <dc:date>2026-02-17T09:28:54.470719</dc:date>
    <dc:format>image/svg+xml</dc:format>
    <dc:creator>
     <cc:Agent>
      <dc:title>Matplotlib v3.10.8, https://matplotlib.org/</dc:title>
     </cc:Agent>
    </dc:creator>
   </cc:Work>
  </rdf:RDF>
 </metadata>
 <defs>
  <style type="text/css">*{stroke-linejoin: round; stroke-linecap: butt}</style>
 </defs>
 <g id="figure_1">
  <g id="patch_1">
   <path d="M 0 360 
L 863.759736 360 
L 863.759736 0 
L 0 0 
L 0 360 
z
" style="fill: none"/>
  </g>
  <g id="axes_1">
   <g id="patch_2">
    <path d="M 172.184645 218.583941 
L 183.20981 218.583941 
L 183.20981 176.2617 
L 204.578173 176.2617 
Q 222.252537 176.2617 229.015396 167.065844 
Q 235.778256 157.869988 235.778256 144.59103 
Q 235.778256 136.850888 233.249287 130.388935 
Q 230.720319 123.926982 226.571674 120.340954 
Q 222.423029 116.754925 216.285308 115.476736 
Q 211.90934 114.48259 203.61205 114.48259 
L 172.184645 114.48259 
L 172.184645 218.583941 
M 183.20981 163.976888 
L 183.20981 126.767401 
L 204.521342 126.767401 
Q 212.023001 126.767401 214.807708 127.690537 
Q 219.126845 129.181757 221.769475 133.832943 
Q 224.412105 138.484129 224.412105 145.017093 
Q 224.412105 154.035422 219.922476 159.006155 
Q 215.432847 163.976888 204.748665 163.976888 
L 183.20981 163.976888 
" clip-path="url(#p63b3118b3f)"/>
   </g>
   <g id="line2d_1">
    <path d="M 202.020789 24.663852 
L 45.807261 180.877381 
" clip-path="url(#p63b3118b3f)" style="fill: none; stroke: #000000; stroke-width: 0.72; stroke-linecap: square"/>
   </g>
   <g id="line2d_2">
    <path d="M 45.807261 180.877381 
L 202.020789 337.090909 
" clip-path="url(#p63b3118b3f)" style="fill: none; stroke: #000000; stroke-width: 0.72; stroke-linecap: square"/>
   </g>
   <g id="line2d_3">
    <path d="M 202.020789 337.090909 
L 358.234318 180.877381 
" clip-path="url(#p63b3118b3f)" style="fill: none; stroke: #000000; stroke-width: 0.72; stroke-linecap: square"/>
   </g>
   <g id="line2d_4">
    <path d="M 358.234318 180.877381 
L 202.020789 24.663852 
" clip-path="url(#p63b3118b3f)" style="fill: none; stroke: #000000; stroke-width: 0.72; stroke-linecap: square"/>
   </g>
   <g id="patch_3">
    <path d="M 704.006818 87.954683 
L 728.500872 87.954683 
L 728.500872 107.340542 
Q 724.977365 111.246118 718.157675 114.690125 
Q 711.337985 118.134133 704.17731 118.134133 
Q 695.936851 118.134133 688.605684 113.589463 
Q 681.274517 109.044793 677.438442 99.671411 
Q 673.602366 90.298028 673.602366 76.379976 
Q 673.602366 65.089311 676.784888 55.431887 
Q 678.660303 49.82206 682.041732 45.135369 
Q 685.423162 40.448677 690.935745 37.572753 
Q 696.448328 34.696829 704.006818 34.696829 
Q 710.315031 34.696829 715.48663 37.430732 
Q 720.658228 40.164636 723.442935 44.709306 
Q 726.227642 49.253976 728.103057 57.207149 
L 738.048438 53.798646 
Q 735.88887 43.289096 731.740225 36.756133 
Q 727.59158 30.223169 720.288828 26.56613 
Q 712.986077 22.909091 703.949987 22.909091 
Q 691.504053 22.909091 681.956486 29.300033 
Q 672.40892 35.690976 667.322568 48.863418 
Q 662.236215 62.035861 662.236215 77.232102 
Q 662.236215 92.570364 667.350983 104.997196 
Q 672.465751 117.424029 682.496378 123.992497 
Q 692.527006 130.560966 704.802448 130.560966 
Q 713.895369 130.560966 722.533643 126.477864 
Q 731.171917 122.394762 739.298715 114.299568 
L 739.298715 75.669871 
L 704.006818 75.740882 
L 704.006818 87.954683 
M 581.138733 128.785704 
L 592.163899 128.785704 
L 592.163899 82.557887 
L 604.950818 82.557887 
Q 609.213124 82.557887 611.088539 83.05496 
Q 613.645923 83.836076 616.118061 85.824369 
Q 618.590198 87.812662 621.71589 92.783395 
Q 624.841581 97.754128 629.672195 107.12751 
L 640.697361 128.785704 
L 654.564064 128.785704 
L 640.072222 100.452526 
Q 635.753085 92.144301 630.922471 86.605484 
Q 628.649241 84.049107 624.273273 81.42172 
Q 636.264562 79.362416 642.004468 71.764295 
Q 647.744374 64.166175 647.744374 53.088541 
Q 647.744374 44.496274 644.277698 37.395227 
Q 640.811022 30.29418 635.014285 27.489266 
Q 629.217549 24.684353 618.078722 24.684353 
L 581.138733 24.684353 
L 581.138733 128.785704 
M 551.586742 24.684353 
L 551.586742 84.759212 
Q 551.586742 104.358102 546.415144 111.246118 
Q 541.243545 118.134133 529.081765 118.134133 
Q 521.977921 118.134133 517.062061 114.65462 
Q 512.146201 111.175107 510.128709 104.748659 
Q 508.111217 98.322212 508.111217 84.759212 
L 508.111217 24.684353 
L 497.086051 24.684353 
L 497.086051 84.830222 
Q 497.086051 101.375662 500.268573 110.92657 
Q 503.451096 120.477479 510.895924 125.519222 
Q 518.340752 130.560966 530.047887 130.560966 
Q 542.096007 130.560966 549.51242 124.773612 
Q 556.928833 118.986259 559.77037 109.754898 
Q 562.611908 100.523536 562.611908 84.830222 
L 562.611908 24.684353 
L 551.586742 24.684353 
M 419.284752 128.785704 
L 430.309918 128.785704 
L 430.309918 86.463463 
L 451.678281 86.463463 
Q 469.352645 86.463463 476.115504 77.267607 
Q 482.878363 68.071751 482.878363 54.792793 
Q 482.878363 47.052651 480.349395 40.590698 
Q 477.820427 34.128745 473.671782 30.542717 
Q 469.523137 26.956688 463.385416 25.678499 
Q 459.009448 24.684353 450.712158 24.684353 
L 419.284752 24.684353 
L 419.284752 128.785704 
M 755.779633 128.785704 
L 817.952475 128.785704 
L 817.952475 116.500892 
L 766.804798 116.500892 
L 766.804798 81.066667 
L 812.894538 81.066667 
L 812.894538 68.852866 
L 766.804798 68.852866 
L 766.804798 36.969164 
L 816.020229 36.969164 
L 816.020229 24.684353 
L 755.779633 24.684353 
L 755.779633 128.785704 
M 592.163899 70.628128 
L 592.163899 36.188049 
L 618.533368 36.188049 
Q 627.79678 36.188049 632.087502 40.945751 
Q 636.378224 45.703452 636.378224 53.088541 
Q 636.378224 58.130285 634.161824 62.426418 
Q 631.945425 66.722552 627.683119 68.67534 
Q 623.420812 70.628128 615.862322 70.628128 
L 592.163899 70.628128 
M 430.309918 74.178651 
L 430.309918 36.969164 
L 451.62145 36.969164 
Q 459.123109 36.969164 461.907816 37.8923 
Q 466.226953 39.38352 468.869583 44.034706 
Q 471.512213 48.685892 471.512213 55.218855 
Q 471.512213 64.237185 467.022584 69.207918 
Q 462.532954 74.178651 451.848773 74.178651 
L 430.309918 74.178651 
" clip-path="url(#p63b3118b3f)"/>
   </g>
  </g>
 </g>
 <defs>
  <clipPath id="p63b3118b3f">
   <rect x="7.2" y="7.2" width="849.359736" height="345.6"/>
  </clipPath>
 </defs>
</svg>
