<?xml version="1.0" encoding="utf-8" standalone="no"?>
<!DOCTYPE svg PUBLIC "-//W3C//DTD SVG 1.1//EN"
  "http://www.w3.org/Graphics/SVG/1.1/DTD/svg11.dtd">
<svg xmlns:xlink="http://www.w3.org/1999/xlink" width="302.4pt" height="741.214401pt" viewBox="0 0 302.4 741.214401" xmlns="http://www.w3.org/2000/svg" version="1.1">
 <metadata>
  <rdf:RDF xmlns:dc="http://purl.org/dc/elements/1.1/" xmlns:cc="http://creativecommons.org/ns#" xmlns:rdf="http://www.w3.org/1999/02/22-rdf-syntax-ns#">
   <cc:Work>
    <dc:type rdf:resource="http://purl.org/dc/dcmitype/StillImage"/>
    <dc:date>2026-02-17T09:28:50.186317</dc:date>
    <dc:format>image/svg+xml</dc:format>
    <dc:creator>
     <cc:Agent>
      <dc:title>Matplotlib v3.10.8, https://matplotlib.org/</dc:title>
     </cc:Agent>
    </dc:creator>
   </cc:Work>
  </rdf:RDF>
 </metadata>
 <defs>
  <style type="text/css">*{stroke-linejoin: round; stroke-linecap: butt}</style>
 </defs>
 <g id="figure_1">
  <g id="patch_1">
   <path d="M 0 741.214401 
L 302.4 741.214401 
L 302.4 -0 
L 0 -0 
L 0 741.214401 
z
" style="fill: none"/>
  </g>
  <g id="axes_1">
   <g id="line2d_1">
    <path d="M 20.290909 40.237018 
L 282.109091 40.237018 
" clip-path="url(#p35132fa0be)" style="fill: none; stroke: #000000; stroke-width: 0.72; stroke-linecap: square"/>
   </g>
   <g id="line2d_2">
    <path d="M 282.109091 40.237018 
L 282.109091 316.521785 
" clip-path="url(#p35132fa0be)" style="fill: none; stroke: #000000; stroke-width: 0.72; stroke-linecap: square"/>
   </g>
   <g id="line2d_3">
    <path d="M 282.109091 316.521785 
L 20.290909 316.521785 
" clip-path="url(#p35132fa0be)" style="fill: none; stroke: #000000; stroke-width: 0.72; stroke-linecap: square"/>
   </g>
   <g id="line2d_4">
    <path d="M 20.290909 316.521785 
L 20.290909 40.237018 
" clip-path="url(#p35132fa0be)" style="fill: none; stroke: #000000; stroke-width: 0.72; stroke-linecap: square"/>
   </g>
   <g id="line2d_5">
    <path d="M 151.199278 316.521785 
L 151.199278 700.977383 
" clip-path="url(#p35132fa0be)" style="fill: none; stroke: #000000; stroke-width: 0.72; stroke-linecap: square"/>
   </g>
   <g id="patch_2">
    <path d="M 97.154587 174.097266 
L 115.013351 172.535844 
Q 116.282007 183.27062 120.917478 190.150635 
Q 125.55295 197.030651 135.311837 201.275767 
Q 145.070724 205.520883 157.269334 205.520883 
Q 168.101699 205.520883 176.396753 202.30045 
Q 184.691807 199.080017 188.741745 193.468657 
Q 192.791684 187.857297 192.791684 181.221253 
Q 192.791684 174.487621 188.888129 169.461794 
Q 184.984574 164.435967 176.006397 161.020356 
Q 170.248654 158.775812 150.535701 154.042752 
Q 130.822749 149.309692 122.91805 145.11337 
Q 112.671218 139.745982 107.645391 131.792489 
Q 102.619564 123.838996 102.619564 113.982519 
Q 102.619564 103.150154 108.767663 93.732828 
Q 114.915762 84.315502 126.724016 79.436058 
Q 138.53227 74.556614 152.975423 74.556614 
Q 168.88241 74.556614 181.032224 79.68003 
Q 193.182039 84.803446 199.720494 94.757511 
Q 206.258948 104.711576 206.746893 117.300541 
L 188.595362 118.666785 
Q 187.131529 105.101932 178.690091 98.173122 
Q 170.248654 91.244312 153.756134 91.244312 
Q 136.580492 91.244312 128.724588 97.538794 
Q 120.868684 103.833277 120.868684 112.713864 
Q 120.868684 120.423385 126.43125 125.400418 
Q 131.896226 130.37745 154.975995 135.598455 
Q 178.055764 140.81946 186.643585 144.723015 
Q 199.13496 150.480758 205.087882 159.312551 
Q 211.040803 168.144344 211.040803 179.659831 
Q 211.040803 191.07773 204.502348 201.178178 
Q 197.963894 211.278626 185.71649 216.889987 
Q 173.469087 222.501347 158.147633 222.501347 
Q 138.727448 222.501347 125.601744 216.841192 
Q 112.476041 211.181037 105.010492 199.811934 
Q 97.544943 188.44283 97.154587 174.097266 
" clip-path="url(#p35132fa0be)"/>
   </g>
  </g>
 </g>
 <defs>
  <clipPath id="p35132fa0be">
   <rect x="7.2" y="7.2" width="288" height="726.814401"/>
  </clipPath>
 </defs>
</svg>
