<?xml version="1.0" encoding="utf-8" standalone="no"?>
<!DOCTYPE svg PUBLIC "-//W3C//DTD SVG 1.1//EN"
  "http://www.w3.org/Graphics/SVG/1.1/DTD/svg11.dtd">
<svg xmlns:xlink="http://www.w3.org/1999/xlink" width="535.949039pt" height="360pt" viewBox="0 0 535.949039 360" xmlns="http://www.w3.org/2000/svg" version="1.1">
 <metadata>
  <rdf:RDF xmlns:dc="http://purl.org/dc/elements/1.1/" xmlns:cc="http://creativecommons.org/ns#" xmlns:rdf="http://www.w3.org/1999/02/22-rdf-syntax-ns#">
   <cc:Work>
    <dc:type rdf:resource="http://purl.org/dc/dcmitype/StillImage"/>
    <dc:date>2026-02-17T09:28:53.949342</dc:date>
    <dc:format>image/svg+xml</dc:format>
    <dc:creator>
     <cc:Agent>
      <dc:title>Matplotlib v3.10.8, https://matplotlib.org/</dc:title>
     </cc:Agent>
    </dc:creator>
   </cc:Work>
  </rdf:RDF>
 </metadata>
 <defs>
  <style type="text/css">*{stroke-linejoin: round; stroke-linecap: butt}</style>
 </defs>
 <g id="figure_1">
  <g id="patch_1">
   <path d="M 0 360 
L 535.949039 360 
L 535.949039 0 
L 0 0 
L 0 360 
z
" style="fill: none"/>
  </g>
  <g id="axes_1">
   <g id="line2d_1">
    <path d="M 38.207188 329.790495 
L 497.741851 329.790495 
" clip-path="url(#p0af302420e)" style="fill: none; stroke: #000000; stroke-width: 0.72; stroke-linecap: square"/>
   </g>
   <g id="line2d_2">
    <path d="M 497.741851 329.790495 
L 497.741851 30.209505 
" clip-path="url(#p0af302420e)" style="fill: none; stroke: #000000; stroke-width: 0.72; stroke-linecap: square"/>
   </g>
   <g id="line2d_3">
    <path d="M 497.741851 30.209505 
L 38.207188 30.209505 
" clip-path="url(#p0af302420e)" style="fill: none; stroke: #000000; stroke-width: 0.72; stroke-linecap: square"/>
   </g>
   <g id="line2d_4">
    <path d="M 38.207188 30.209505 
L 38.207188 329.790495 
" clip-path="url(#p0af302420e)" style="fill: none; stroke: #000000; stroke-width: 0.72; stroke-linecap: square"/>
   </g>
   <g id="line2d_5">
    <path d="M 505.042265 22.909091 
L 30.906775 22.909091 
" clip-path="url(#p0af302420e)" style="fill: none; stroke: #000000; stroke-width: 0.72; stroke-linecap: square"/>
   </g>
   <g id="line2d_6">
    <path d="M 30.906775 337.090909 
L 505.042265 337.090909 
" clip-path="url(#p0af302420e)" style="fill: none; stroke: #000000; stroke-width: 0.72; stroke-linecap: square"/>
   </g>
   <g id="line2d_7">
    <path d="M 30.906775 22.909091 
L 30.906775 337.090909 
" clip-path="url(#p0af302420e)" style="fill: none; stroke: #000000; stroke-width: 0.72; stroke-linecap: square"/>
   </g>
   <g id="line2d_8">
    <path d="M 439.338541 236.710221 
L 490.441437 236.710221 
" clip-path="url(#p0af302420e)" style="fill: none; stroke: #000000; stroke-width: 0.72; stroke-linecap: square"/>
   </g>
   <g id="line2d_9">
    <path d="M 490.441437 236.710221 
L 490.441437 37.509918 
" clip-path="url(#p0af302420e)" style="fill: none; stroke: #000000; stroke-width: 0.72; stroke-linecap: square"/>
   </g>
   <g id="line2d_10">
    <path d="M 490.441437 37.509918 
L 439.338541 37.509918 
" clip-path="url(#p0af302420e)" style="fill: none; stroke: #000000; stroke-width: 0.72; stroke-linecap: square"/>
   </g>
   <g id="line2d_11">
    <path d="M 439.338541 37.509918 
L 439.338541 236.710221 
" clip-path="url(#p0af302420e)" style="fill: none; stroke: #000000; stroke-width: 0.72; stroke-linecap: square"/>
   </g>
   <g id="line2d_12">
    <path d="M 435.688334 326.140289 
L 494.091644 326.140289 
" clip-path="url(#p0af302420e)" style="fill: none; stroke: #000000; stroke-width: 0.72; stroke-linecap: square"/>
   </g>
   <g id="line2d_13">
    <path d="M 494.091644 326.140289 
L 494.091644 33.859711 
" clip-path="url(#p0af302420e)" style="fill: none; stroke: #000000; stroke-width: 0.72; stroke-linecap: square"/>
   </g>
   <g id="line2d_14">
    <path d="M 494.091644 33.859711 
L 435.688334 33.859711 
" clip-path="url(#p0af302420e)" style="fill: none; stroke: #000000; stroke-width: 0.72; stroke-linecap: square"/>
   </g>
   <g id="line2d_15">
    <path d="M 435.688334 33.859711 
L 435.688334 326.140289 
" clip-path="url(#p0af302420e)" style="fill: none; stroke: #000000; stroke-width: 0.72; stroke-linecap: square"/>
   </g>
   <g id="line2d_16">
    <path d="M 505.042265 337.090909 
L 505.042265 22.909091 
" clip-path="url(#p0af302420e)" style="fill: none; stroke: #000000; stroke-width: 0.72; stroke-linecap: square"/>
   </g>
   <g id="line2d_17">
    <path d="M 439.338541 298.763737 
L 490.441437 298.763737 
" clip-path="url(#p0af302420e)" style="fill: none; stroke: #000000; stroke-width: 0.72; stroke-linecap: square"/>
   </g>
   <g id="line2d_18">
    <path d="M 490.441437 298.763737 
L 490.441437 269.562082 
" clip-path="url(#p0af302420e)" style="fill: none; stroke: #000000; stroke-width: 0.72; stroke-linecap: square"/>
   </g>
   <g id="line2d_19">
    <path d="M 490.441437 269.562082 
L 439.338541 269.562082 
" clip-path="url(#p0af302420e)" style="fill: none; stroke: #000000; stroke-width: 0.72; stroke-linecap: square"/>
   </g>
   <g id="line2d_20">
    <path d="M 439.338541 269.562082 
L 439.338541 298.763737 
" clip-path="url(#p0af302420e)" style="fill: none; stroke: #000000; stroke-width: 0.72; stroke-linecap: square"/>
   </g>
   <g id="line2d_21">
    <path d="M 439.338541 315.189668 
L 468.540196 315.189668 
" clip-path="url(#p0af302420e)" style="fill: none; stroke: #000000; stroke-width: 0.72; stroke-linecap: square"/>
   </g>
   <g id="line2d_22">
    <path d="M 439.338541 307.889254 
L 468.540196 307.889254 
" clip-path="url(#p0af302420e)" style="fill: none; stroke: #000000; stroke-width: 0.72; stroke-linecap: square"/>
   </g>
   <g id="line2d_23">
    <path d="M 439.338541 322.490082 
L 490.441437 322.490082 
" clip-path="url(#p0af302420e)" style="fill: none; stroke: #000000; stroke-width: 0.72; stroke-linecap: square"/>
   </g>
   <g id="line2d_24">
    <path d="M 490.441437 322.490082 
L 490.441437 300.588841 
" clip-path="url(#p0af302420e)" style="fill: none; stroke: #000000; stroke-width: 0.72; stroke-linecap: square"/>
   </g>
   <g id="line2d_25">
    <path d="M 490.441437 300.588841 
L 439.338541 300.588841 
" clip-path="url(#p0af302420e)" style="fill: none; stroke: #000000; stroke-width: 0.72; stroke-linecap: square"/>
   </g>
   <g id="line2d_26">
    <path d="M 439.338541 300.588841 
L 439.338541 322.490082 
" clip-path="url(#p0af302420e)" style="fill: none; stroke: #000000; stroke-width: 0.72; stroke-linecap: square"/>
   </g>
   <g id="patch_2">
    <path d="M 441.605568 317.187061 
L 441.738927 317.187061 
L 441.843155 316.899626 
L 442.239997 316.899626 
L 442.350698 317.187061 
L 442.493768 317.187061 
L 442.105342 316.238007 
L 441.970041 316.238007 
L 441.605568 317.187061 
M 443.684941 317.187061 
L 443.801468 317.187061 
L 443.801468 316.810935 
Q 443.801468 316.730013 443.82089 316.68405 
Q 443.840311 316.638086 443.885951 316.61122 
Q 443.931591 316.584354 443.983381 316.584354 
Q 444.05265 316.584354 444.090522 316.624167 
Q 444.128393 316.663981 444.128393 316.751377 
L 444.128393 317.187061 
L 444.244921 317.187061 
L 444.244921 316.751377 
Q 444.244921 316.650386 444.220645 316.597301 
Q 444.196368 316.544216 444.140046 316.514113 
Q 444.083724 316.48401 444.007334 316.48401 
Q 443.883038 316.48401 443.801468 316.578527 
L 443.801468 316.238007 
L 443.684941 316.238007 
L 443.684941 317.187061 
M 444.378928 316.843304 
Q 444.378928 317.017449 444.467942 317.110023 
Q 444.556957 317.202598 444.701322 317.202598 
Q 444.791307 317.202598 444.867374 317.160519 
Q 444.94344 317.118439 444.983254 317.042373 
Q 445.023068 316.966306 445.023068 316.833594 
Q 445.023068 316.669807 444.933082 316.576909 
Q 444.843097 316.48401 444.701322 316.48401 
Q 444.573788 316.48401 444.485098 316.560401 
Q 444.378928 316.652328 444.378928 316.843304 
M 443.029796 317.187061 
L 443.134023 317.187061 
L 443.134023 316.499547 
L 443.017496 316.499547 
L 443.017496 316.867905 
Q 443.017496 316.955948 442.998398 317.002235 
Q 442.9793 317.048523 442.933337 317.075389 
Q 442.887373 317.102255 442.834935 317.102255 
Q 442.782498 317.102255 442.746892 317.076036 
Q 442.711287 317.049817 442.700281 317.003854 
Q 442.69316 316.972132 442.69316 316.880852 
L 442.69316 316.499547 
L 442.576632 316.499547 
L 442.576632 316.925521 
Q 442.576632 316.999969 442.583753 317.03428 
Q 442.594111 317.085423 442.619683 317.120705 
Q 442.645254 317.155987 442.698015 317.179293 
Q 442.750777 317.202598 442.81163 317.202598 
Q 442.949521 317.202598 443.029796 317.08607 
L 443.029796 317.187061 
M 443.571002 317.082834 
Q 443.539281 317.087365 443.51986 317.087365 
Q 443.493965 317.087365 443.480046 317.078949 
Q 443.466127 317.070533 443.459977 317.056291 
Q 443.453827 317.042049 443.453827 316.992201 
L 443.453827 316.59018 
L 443.571002 316.59018 
L 443.571002 316.499547 
L 443.453827 316.499547 
L 443.453827 316.259371 
L 443.337947 316.329287 
L 443.337947 316.499547 
L 443.252493 316.499547 
L 443.252493 316.59018 
L 443.337947 316.59018 
L 443.337947 316.985727 
Q 443.337947 317.090602 443.352189 317.123295 
Q 443.366431 317.155987 443.40139 317.176056 
Q 443.436348 317.196124 443.499791 317.196124 
Q 443.538634 317.196124 443.587834 317.185766 
L 443.571002 317.082834 
M 445.158369 317.187061 
L 445.274897 317.187061 
L 445.274897 316.82712 
Q 445.274897 316.753319 445.294318 316.691171 
Q 445.307266 316.650386 445.337693 316.627404 
Q 445.368119 316.604422 445.406314 316.604422 
Q 445.449041 316.604422 445.491768 316.62967 
L 445.531905 316.521558 
Q 445.471052 316.48401 445.412141 316.48401 
Q 445.371356 316.48401 445.337369 316.507316 
Q 445.303382 316.530622 445.263244 316.603775 
L 445.263244 316.499547 
L 445.158369 316.499547 
L 445.158369 317.187061 
M 441.879408 316.797341 
L 441.983635 316.518969 
Q 442.016652 316.428983 442.034778 316.337703 
Q 442.056789 316.414741 442.102105 316.534506 
L 442.201154 316.797341 
L 441.879408 316.797341 
M 444.498693 316.843304 
Q 444.498693 316.71124 444.556309 316.645855 
Q 444.613926 316.58047 444.701322 316.58047 
Q 444.787423 316.58047 444.845363 316.646178 
Q 444.903303 316.711887 444.903303 316.83942 
Q 444.903303 316.974722 444.845686 317.040754 
Q 444.78807 317.106787 444.701322 317.106787 
Q 444.613926 317.106787 444.556309 317.041078 
Q 444.498693 316.975369 444.498693 316.843304 
" clip-path="url(#p0af302420e)"/>
   </g>
   <g id="patch_3">
    <path d="M 441.605568 303.003817 
L 441.738927 303.003817 
L 441.843155 302.716382 
L 442.239997 302.716382 
L 442.350698 303.003817 
L 442.493768 303.003817 
L 442.105342 302.054764 
L 441.970041 302.054764 
L 441.605568 303.003817 
M 443.491375 302.782415 
Q 443.464833 302.856216 443.419516 302.889879 
Q 443.3742 302.923543 443.31011 302.923543 
Q 443.224009 302.923543 443.166392 302.863337 
Q 443.108776 302.803131 443.102302 302.68984 
L 443.615024 302.68984 
Q 443.615671 302.669124 443.615671 302.658766 
Q 443.615671 302.488506 443.528276 302.394636 
Q 443.44088 302.300767 443.302989 302.300767 
Q 443.160566 302.300767 443.071228 302.396578 
Q 442.98189 302.49239 442.98189 302.665887 
Q 442.98189 302.833557 443.070257 302.926456 
Q 443.158624 303.019354 443.309462 303.019354 
Q 443.429227 303.019354 443.506265 302.961091 
Q 443.583303 302.902827 443.611787 302.797304 
L 443.491375 302.782415 
M 444.206726 302.919011 
Q 444.211905 302.967564 444.230032 303.003817 
L 444.351738 303.003817 
Q 444.329728 302.964327 444.322283 302.921277 
Q 444.314838 302.878226 444.314838 302.715735 
L 444.314838 302.560365 
Q 444.314838 302.482679 444.309011 302.4529 
Q 444.298653 302.404994 444.272758 302.373597 
Q 444.246863 302.342199 444.191836 302.321483 
Q 444.136809 302.300767 444.048766 302.300767 
Q 443.960076 302.300767 443.892748 302.325043 
Q 443.825421 302.34932 443.789816 302.394313 
Q 443.75421 302.439305 443.738673 302.512459 
L 443.852611 302.527996 
Q 443.871385 302.454842 443.910551 302.426034 
Q 443.949718 302.397226 444.031934 302.397226 
Q 444.119978 302.397226 444.164647 302.436716 
Q 444.197663 302.465848 444.197663 302.537059 
Q 444.197663 302.543533 444.197015 302.567486 
Q 444.130336 302.590791 443.989208 302.607623 
Q 443.919938 302.616039 443.885627 302.625102 
Q 443.839016 302.63805 443.801792 302.663297 
Q 443.764568 302.688545 443.741586 302.730301 
Q 443.718604 302.772057 443.718604 302.822552 
Q 443.718604 302.908653 443.779458 302.964004 
Q 443.840311 303.019354 443.953602 303.019354 
Q 444.022224 303.019354 444.082106 302.996696 
Q 444.141988 302.974038 444.206726 302.919011 
M 442.577927 303.003817 
L 442.694455 303.003817 
L 442.694455 302.643876 
Q 442.694455 302.570075 442.713876 302.507927 
Q 442.726824 302.467142 442.75725 302.444161 
Q 442.787677 302.421179 442.825872 302.421179 
Q 442.868599 302.421179 442.911326 302.446426 
L 442.951463 302.338315 
Q 442.89061 302.300767 442.831699 302.300767 
Q 442.790914 302.300767 442.756927 302.324072 
Q 442.722939 302.347378 442.682802 302.420531 
L 442.682802 302.316304 
L 442.577927 302.316304 
L 442.577927 303.003817 
M 441.879408 302.614097 
L 441.983635 302.335725 
Q 442.016652 302.24574 442.034778 302.15446 
Q 442.056789 302.231497 442.102105 302.351262 
L 442.201154 302.614097 
L 441.879408 302.614097 
M 443.108776 302.594028 
Q 443.114602 302.504043 443.169305 302.450311 
Q 443.224009 302.396578 443.304283 302.396578 
Q 443.392974 302.396578 443.448648 302.463906 
Q 443.484901 302.50728 443.49267 302.594028 
L 443.108776 302.594028 
M 444.197015 302.658766 
L 444.197015 302.701493 
Q 444.197015 302.77853 444.178241 302.81802 
Q 444.153641 302.869163 444.101204 302.898619 
Q 444.048766 302.928074 443.981439 302.928074 
Q 443.913464 302.928074 443.878182 302.897 
Q 443.8429 302.865926 443.8429 302.819315 
Q 443.8429 302.788888 443.859085 302.763964 
Q 443.875269 302.73904 443.905049 302.726093 
Q 443.934828 302.713145 444.006687 302.702787 
Q 444.133572 302.684661 444.197015 302.658766 
" clip-path="url(#p0af302420e)"/>
   </g>
   <g id="patch_4">
    <path d="M 441.709795 310.095439 
L 442.052257 310.095439 
Q 442.138358 310.095439 442.204715 310.079255 
Q 442.271071 310.06307 442.318005 310.031673 
Q 442.36494 310.000275 442.40443 309.945572 
Q 442.44392 309.890868 442.469168 309.807357 
Q 442.494415 309.723845 442.494415 309.615733 
Q 442.494415 309.488848 442.457191 309.390123 
Q 442.419967 309.291398 442.344872 309.227955 
Q 442.287255 309.178754 442.205686 309.15998 
Q 442.147422 309.146386 442.03672 309.146386 
L 441.709795 309.146386 
L 441.709795 310.095439 
M 446.939949 310.095439 
L 447.060361 310.095439 
L 447.060361 309.349662 
L 447.558841 310.095439 
L 447.687669 310.095439 
L 447.687669 309.146386 
L 447.567257 309.146386 
L 447.567257 309.891516 
L 447.068777 309.146386 
L 446.939949 309.146386 
L 446.939949 310.095439 
M 448.621186 310.095439 
L 448.737713 310.095439 
L 448.737713 309.738735 
Q 448.737713 309.644865 448.756487 309.595017 
Q 448.775261 309.545169 448.817017 309.519274 
Q 448.858773 309.493379 448.907973 309.493379 
Q 448.972711 309.493379 449.001196 309.532222 
Q 449.02968 309.571064 449.02968 309.64875 
L 449.02968 310.095439 
L 449.146208 310.095439 
L 449.146208 309.696008 
Q 449.146208 309.589838 449.194114 309.541609 
Q 449.24202 309.493379 449.314526 309.493379 
Q 449.354663 309.493379 449.384442 309.512153 
Q 449.414222 309.530927 449.425551 309.561677 
Q 449.43688 309.592428 449.43688 309.662345 
L 449.43688 310.095439 
L 449.55276 310.095439 
L 449.55276 309.623502 
Q 449.55276 309.505679 449.497733 309.449034 
Q 449.442706 309.392389 449.340421 309.392389 
Q 449.209651 309.392389 449.128081 309.512801 
Q 449.108013 309.455831 449.059136 309.42411 
Q 449.010259 309.392389 448.933868 309.392389 
Q 448.865246 309.392389 448.811514 309.423139 
Q 448.757782 309.453889 448.725413 309.504385 
L 448.725413 309.407926 
L 448.621186 309.407926 
L 448.621186 310.095439 
M 443.958133 310.095439 
L 444.07984 310.095439 
L 444.219026 309.566533 
L 444.245569 309.683708 
L 444.354975 310.095439 
L 444.476035 310.095439 
L 444.690964 309.407926 
L 444.577673 309.407926 
L 444.45985 309.805415 
L 444.42036 309.938127 
L 444.386049 309.806709 
L 444.283116 309.407926 
L 444.163352 309.407926 
L 444.053945 309.810594 
Q 444.020929 309.941364 444.018339 309.952369 
L 443.977555 309.804767 
L 443.868148 309.407926 
L 443.747736 309.407926 
L 443.958133 310.095439 
M 445.799272 310.152408 
Q 445.796682 310.263757 445.872425 310.319108 
Q 445.948168 310.374459 446.07117 310.374459 
Q 446.17475 310.374459 446.245638 310.335616 
Q 446.316526 310.296773 446.349218 310.22977 
Q 446.381911 310.162766 446.381911 310.002217 
L 446.381911 309.407926 
L 446.274446 309.407926 
L 446.274446 309.49079 
Q 446.195466 309.392389 446.073759 309.392389 
Q 445.982479 309.392389 445.914829 309.437705 
Q 445.847178 309.483021 445.811572 309.566209 
Q 445.775966 309.649397 445.775966 309.747798 
Q 445.775966 309.890868 445.853652 309.993154 
Q 445.931337 310.095439 446.073112 310.095439 
Q 446.18705 310.095439 446.263441 310.005454 
Q 446.264088 310.119392 446.255025 310.154998 
Q 446.239488 310.213262 446.195466 310.245631 
Q 446.151445 310.277999 446.070523 310.277999 
Q 445.995427 310.277999 445.952053 310.245631 
Q 445.919684 310.221678 445.912563 310.16924 
L 445.799272 310.152408 
M 449.833074 310.095439 
L 449.833074 310.009338 
Q 449.902343 310.110976 450.02405 310.110976 
Q 450.146404 310.110976 450.2338 310.014517 
Q 450.321196 309.918058 450.321196 309.741324 
Q 450.321196 309.666876 450.30048 309.601491 
Q 450.279764 309.536106 450.243187 309.489819 
Q 450.20661 309.443531 450.149965 309.41796 
Q 450.093319 309.392389 450.029877 309.392389 
Q 449.915291 309.392389 449.84149 309.484963 
L 449.84149 309.146386 
L 449.724962 309.146386 
L 449.724962 310.095439 
L 449.833074 310.095439 
M 450.933614 309.874037 
Q 450.907072 309.947837 450.861755 309.981501 
Q 450.816439 310.015165 450.752349 310.015165 
Q 450.666248 310.015165 450.608631 309.954959 
Q 450.551015 309.894753 450.544541 309.781462 
L 451.057263 309.781462 
Q 451.05791 309.760746 451.05791 309.750388 
Q 451.05791 309.580128 450.970514 309.486258 
Q 450.883119 309.392389 450.745227 309.392389 
Q 450.602805 309.392389 450.513467 309.4882 
Q 450.424129 309.584012 450.424129 309.757509 
Q 450.424129 309.925179 450.512496 310.018078 
Q 450.600863 310.110976 450.751701 310.110976 
Q 450.871466 310.110976 450.948504 310.052712 
Q 451.025541 309.994449 451.054026 309.888926 
L 450.933614 309.874037 
M 443.542518 310.010633 
Q 443.547697 310.059186 443.565823 310.095439 
L 443.68753 310.095439 
Q 443.665519 310.055949 443.658075 310.012899 
Q 443.65063 309.969848 443.65063 309.807357 
L 443.65063 309.651986 
Q 443.65063 309.574301 443.644803 309.544522 
Q 443.634445 309.496616 443.60855 309.465218 
Q 443.582655 309.433821 443.527628 309.413105 
Q 443.472601 309.392389 443.384558 309.392389 
Q 443.295867 309.392389 443.22854 309.416665 
Q 443.161213 309.440942 443.125607 309.485934 
Q 443.090002 309.530927 443.074465 309.604081 
L 443.188403 309.619618 
Q 443.207177 309.546464 443.246343 309.517656 
Q 443.285509 309.488848 443.367726 309.488848 
Q 443.455769 309.488848 443.500438 309.528338 
Q 443.533455 309.55747 443.533455 309.628681 
Q 443.533455 309.635155 443.532807 309.659108 
Q 443.466127 309.682413 443.324999 309.699245 
Q 443.25573 309.707661 443.221419 309.716724 
Q 443.174808 309.729672 443.137584 309.754919 
Q 443.10036 309.780167 443.077378 309.821923 
Q 443.054396 309.863679 443.054396 309.914174 
Q 443.054396 310.000275 443.115249 310.055626 
Q 443.176103 310.110976 443.289394 310.110976 
Q 443.358016 310.110976 443.417898 310.088318 
Q 443.47778 310.06566 443.542518 310.010633 
M 445.083274 310.095439 
L 445.199801 310.095439 
L 445.199801 309.719961 
Q 445.199801 309.587896 445.253857 309.540638 
Q 445.307913 309.493379 445.382362 309.493379 
Q 445.428973 309.493379 445.463607 309.514419 
Q 445.498242 309.535459 445.511837 309.570741 
Q 445.525432 309.606023 445.525432 309.677234 
L 445.525432 310.095439 
L 445.641959 310.095439 
L 445.641959 309.672703 
Q 445.641959 309.59178 445.635486 309.559412 
Q 445.625128 309.509564 445.599233 309.473311 
Q 445.573338 309.437058 445.521224 309.414723 
Q 445.46911 309.392389 445.406962 309.392389 
Q 445.263892 309.392389 445.188149 309.505679 
L 445.188149 309.407926 
L 445.083274 309.407926 
L 445.083274 310.095439 
M 448.334398 310.095439 
L 448.438625 310.095439 
L 448.438625 309.407926 
L 448.322098 309.407926 
L 448.322098 309.776283 
Q 448.322098 309.864326 448.303 309.910613 
Q 448.283902 309.956901 448.237939 309.983767 
Q 448.191975 310.010633 448.139538 310.010633 
Q 448.0871 310.010633 448.051494 309.984414 
Q 448.015889 309.958196 448.004883 309.912232 
Q 447.997762 309.88051 447.997762 309.78923 
L 447.997762 309.407926 
L 447.881234 309.407926 
L 447.881234 309.833899 
Q 447.881234 309.908348 447.888356 309.942658 
Q 447.898714 309.993801 447.924285 310.029083 
Q 447.949856 310.064365 448.002617 310.087671 
Q 448.055379 310.110976 448.116232 310.110976 
Q 448.254123 310.110976 448.334398 309.994449 
L 448.334398 310.095439 
M 451.199038 310.095439 
L 451.315566 310.095439 
L 451.315566 309.735498 
Q 451.315566 309.661697 451.334987 309.599549 
Q 451.347935 309.558764 451.378362 309.535782 
Q 451.408788 309.512801 451.446983 309.512801 
Q 451.48971 309.512801 451.532437 309.538048 
L 451.572575 309.429936 
Q 451.511721 309.392389 451.45281 309.392389 
Q 451.412025 309.392389 451.378038 309.415694 
Q 451.344051 309.439 451.303913 309.512153 
L 451.303913 309.407926 
L 451.199038 309.407926 
L 451.199038 310.095439 
M 442.651081 310.095439 
L 442.767608 310.095439 
L 442.767608 309.735498 
Q 442.767608 309.661697 442.78703 309.599549 
Q 442.799977 309.558764 442.830404 309.535782 
Q 442.86083 309.512801 442.899026 309.512801 
Q 442.941753 309.512801 442.984479 309.538048 
L 443.024617 309.429936 
Q 442.963763 309.392389 442.904852 309.392389 
Q 442.864067 309.392389 442.83008 309.415694 
Q 442.796093 309.439 442.755956 309.512153 
L 442.755956 309.407926 
L 442.651081 309.407926 
L 442.651081 310.095439 
M 444.789365 310.095439 
L 444.905892 310.095439 
L 444.905892 309.407926 
L 444.789365 309.407926 
L 444.789365 310.095439 
M 444.789365 309.280392 
L 444.905892 309.280392 
L 444.905892 309.146386 
L 444.789365 309.146386 
L 444.789365 309.280392 
M 441.835386 309.983443 
L 441.835386 309.258382 
L 442.034778 309.258382 
Q 442.146774 309.258382 442.19727 309.277803 
Q 442.267186 309.304993 442.316063 309.384944 
Q 442.36494 309.464895 442.36494 309.613791 
Q 442.36494 309.721256 442.340016 309.796675 
Q 442.315092 309.872094 442.270423 309.916763 
Q 442.238702 309.948485 442.185293 309.965964 
Q 442.131885 309.983443 442.038015 309.983443 
L 441.835386 309.983443 
M 445.895731 309.739382 
Q 445.895731 309.615086 445.950111 309.551967 
Q 446.00449 309.488848 446.082175 309.488848 
Q 446.161155 309.488848 446.217153 309.552938 
Q 446.273151 309.617028 446.273151 309.743267 
Q 446.273151 309.875331 446.218772 309.937156 
Q 446.164392 309.99898 446.084118 309.99898 
Q 446.003195 309.99898 445.949463 309.936832 
Q 445.895731 309.874684 445.895731 309.739382 
M 449.831779 309.746503 
Q 449.831779 309.620912 449.887454 309.554556 
Q 449.943128 309.4882 450.019519 309.4882 
Q 450.095262 309.4882 450.14867 309.552291 
Q 450.202079 309.616381 450.202079 309.751035 
Q 450.202079 309.882452 450.146404 309.948809 
Q 450.09073 310.015165 450.01434 310.015165 
Q 449.92047 310.015165 449.865443 309.925179 
Q 449.831779 309.870152 449.831779 309.746503 
M 450.551015 309.68565 
Q 450.556841 309.595665 450.611544 309.541932 
Q 450.666248 309.4882 450.746522 309.4882 
Q 450.835213 309.4882 450.890887 309.555527 
Q 450.92714 309.598902 450.934909 309.68565 
L 450.551015 309.68565 
M 443.532807 309.750388 
L 443.532807 309.793115 
Q 443.532807 309.870152 443.514033 309.909642 
Q 443.489433 309.960785 443.436995 309.990241 
Q 443.384558 310.019696 443.317231 310.019696 
Q 443.249256 310.019696 443.213974 309.988622 
Q 443.178692 309.957548 443.178692 309.910937 
Q 443.178692 309.88051 443.194877 309.855586 
Q 443.211061 309.830662 443.24084 309.817715 
Q 443.27062 309.804767 443.342479 309.794409 
Q 443.469364 309.776283 443.532807 309.750388 
" clip-path="url(#p0af302420e)"/>
   </g>
   <g id="line2d_27">
    <path d="M 468.540196 322.490082 
L 468.540196 300.588841 
" clip-path="url(#p0af302420e)" style="fill: none; stroke: #000000; stroke-width: 0.72; stroke-linecap: square"/>
   </g>
   <g id="patch_5">
    <path d="M 470.64241 302.698903 
Q 470.645 302.794067 470.694524 302.869487 
Q 470.744049 302.944906 470.831121 302.982454 
Q 470.918193 303.020002 471.047021 303.020002 
Q 471.148659 303.020002 471.229904 302.982778 
Q 471.31115 302.945554 471.354524 302.87855 
Q 471.397899 302.811547 471.397899 302.735804 
Q 471.397899 302.659413 471.358409 302.600826 
Q 471.318919 302.542238 471.236055 302.504043 
Q 471.179085 302.478148 471.025981 302.443513 
Q 470.872876 302.408879 470.836623 302.375862 
Q 470.799723 302.342846 470.799723 302.291703 
Q 470.799723 302.232792 470.851837 302.191036 
Q 470.90395 302.149281 471.017889 302.149281 
Q 471.127295 302.149281 471.183293 302.195244 
Q 471.239291 302.241208 471.249002 302.331193 
L 471.369414 302.32213 
Q 471.366177 302.238619 471.322803 302.172586 
Q 471.279429 302.106554 471.19883 302.072567 
Q 471.118232 302.038579 471.01271 302.038579 
Q 470.916898 302.038579 470.838565 302.070948 
Q 470.760233 302.103317 470.719448 302.165789 
Q 470.678663 302.228261 470.678663 302.300119 
Q 470.678663 302.365504 470.712003 302.418265 
Q 470.745343 302.471027 470.813318 302.506632 
Q 470.865755 302.53447 470.996525 302.565867 
Q 471.127295 302.597265 471.165491 302.612155 
Q 471.225049 302.634813 471.250944 302.668153 
Q 471.276839 302.701493 471.276839 302.746162 
Q 471.276839 302.790183 471.249973 302.827407 
Q 471.223107 302.864632 471.16808 302.885995 
Q 471.113053 302.907358 471.041194 302.907358 
Q 470.960272 302.907358 470.895535 302.879197 
Q 470.830797 302.851037 470.800047 302.805397 
Q 470.769296 302.759757 470.76088 302.688545 
L 470.64241 302.698903 
M 472.660283 303.003817 
L 472.77681 303.003817 
L 472.77681 302.647113 
Q 472.77681 302.553243 472.795584 302.503395 
Q 472.814358 302.453548 472.856114 302.427652 
Q 472.89787 302.401757 472.94707 302.401757 
Q 473.011808 302.401757 473.040293 302.4406 
Q 473.068777 302.479443 473.068777 302.557128 
L 473.068777 303.003817 
L 473.185305 303.003817 
L 473.185305 302.604386 
Q 473.185305 302.498216 473.233211 302.449987 
Q 473.281117 302.401757 473.353623 302.401757 
Q 473.39376 302.401757 473.423539 302.420531 
Q 473.453319 302.439305 473.464648 302.470056 
Q 473.475977 302.500806 473.475977 302.570723 
L 473.475977 303.003817 
L 473.591857 303.003817 
L 473.591857 302.53188 
Q 473.591857 302.414058 473.53683 302.357412 
Q 473.481803 302.300767 473.379518 302.300767 
Q 473.248748 302.300767 473.167178 302.421179 
Q 473.14711 302.36421 473.098233 302.332488 
Q 473.049356 302.300767 472.972965 302.300767 
Q 472.904344 302.300767 472.850611 302.331517 
Q 472.796879 302.362267 472.76451 302.412763 
L 472.76451 302.316304 
L 472.660283 302.316304 
L 472.660283 303.003817 
M 473.764707 303.2673 
L 473.881234 303.2673 
L 473.881234 302.932606 
Q 473.911014 302.970154 473.957301 302.994754 
Q 474.003589 303.019354 474.061852 303.019354 
Q 474.14148 303.019354 474.213662 302.974362 
Q 474.285845 302.929369 474.323716 302.844887 
Q 474.361588 302.760404 474.361588 302.654882 
Q 474.361588 302.55648 474.327277 302.47394 
Q 474.292966 302.391399 474.225639 302.346083 
Q 474.158312 302.300767 474.070268 302.300767 
Q 474.002941 302.300767 473.955683 302.326985 
Q 473.908424 302.353204 473.870876 302.405642 
L 473.870876 302.316304 
L 473.764707 302.316304 
L 473.764707 303.2673 
M 472.371553 302.919011 
Q 472.376732 302.967564 472.394858 303.003817 
L 472.516565 303.003817 
Q 472.494554 302.964327 472.487109 302.921277 
Q 472.479665 302.878226 472.479665 302.715735 
L 472.479665 302.560365 
Q 472.479665 302.482679 472.473838 302.4529 
Q 472.46348 302.404994 472.437585 302.373597 
Q 472.41169 302.342199 472.356663 302.321483 
Q 472.301636 302.300767 472.213593 302.300767 
Q 472.124902 302.300767 472.057575 302.325043 
Q 471.990248 302.34932 471.954642 302.394313 
Q 471.919037 302.439305 471.9035 302.512459 
L 472.017438 302.527996 
Q 472.036212 302.454842 472.075378 302.426034 
Q 472.114544 302.397226 472.196761 302.397226 
Q 472.284804 302.397226 472.329473 302.436716 
Q 472.362489 302.465848 472.362489 302.537059 
Q 472.362489 302.543533 472.361842 302.567486 
Q 472.295162 302.590791 472.154034 302.607623 
Q 472.084765 302.616039 472.050454 302.625102 
Q 472.003843 302.63805 471.966619 302.663297 
Q 471.929395 302.688545 471.906413 302.730301 
Q 471.883431 302.772057 471.883431 302.822552 
Q 471.883431 302.908653 471.944284 302.964004 
Q 472.005138 303.019354 472.118429 303.019354 
Q 472.18705 303.019354 472.246933 302.996696 
Q 472.306815 302.974038 472.371553 302.919011 
M 471.808983 302.89959 
Q 471.777261 302.904121 471.75784 302.904121 
Q 471.731945 302.904121 471.718026 302.895706 
Q 471.704108 302.88729 471.697958 302.873047 
Q 471.691808 302.858805 471.691808 302.808957 
L 471.691808 302.406936 
L 471.808983 302.406936 
L 471.808983 302.316304 
L 471.691808 302.316304 
L 471.691808 302.076127 
L 471.575927 302.146044 
L 471.575927 302.316304 
L 471.490473 302.316304 
L 471.490473 302.406936 
L 471.575927 302.406936 
L 471.575927 302.802483 
Q 471.575927 302.907358 471.590169 302.940051 
Q 471.604412 302.972743 471.63937 302.992812 
Q 471.674328 303.012881 471.737771 303.012881 
Q 471.776614 303.012881 471.825814 303.002523 
L 471.808983 302.89959 
M 473.870229 302.663945 
Q 473.870229 302.531233 473.927522 302.46164 
Q 473.984815 302.392047 474.059263 302.392047 
Q 474.134359 302.392047 474.188415 302.457432 
Q 474.24247 302.522817 474.24247 302.654234 
Q 474.24247 302.792125 474.18712 302.857834 
Q 474.131769 302.923543 474.054084 302.923543 
Q 473.977694 302.923543 473.923961 302.8601 
Q 473.870229 302.796657 473.870229 302.663945 
M 472.361842 302.658766 
L 472.361842 302.701493 
Q 472.361842 302.77853 472.343068 302.81802 
Q 472.318468 302.869163 472.26603 302.898619 
Q 472.213593 302.928074 472.146266 302.928074 
Q 472.078291 302.928074 472.043009 302.897 
Q 472.007727 302.865926 472.007727 302.819315 
Q 472.007727 302.788888 472.023912 302.763964 
Q 472.040096 302.73904 472.069875 302.726093 
Q 472.099655 302.713145 472.171513 302.702787 
Q 472.298399 302.684661 472.361842 302.658766 
" clip-path="url(#p0af302420e)"/>
   </g>
   <g id="line2d_28">
    <path d="M 481.31592 236.710221 
L 481.31592 220.28429 
" clip-path="url(#p0af302420e)" style="fill: none; stroke: #000000; stroke-width: 0.72; stroke-linecap: square"/>
   </g>
   <g id="patch_6">
    <path d="M 458.393396 234.470454 
L 458.586613 234.470454 
L 458.586613 233.822081 
L 458.810705 233.822081 
Q 458.885402 233.822081 458.918269 233.829053 
Q 458.963087 233.840009 459.006411 233.867896 
Q 459.049736 233.895783 459.104514 233.9655 
Q 459.159292 234.035218 459.243949 234.166685 
L 459.437166 234.470454 
L 459.680181 234.470454 
L 459.42621 234.073064 
Q 459.350517 233.956537 459.26586 233.878851 
Q 459.226021 233.842997 459.149332 233.806146 
Q 459.359481 233.777263 459.460073 233.670695 
Q 459.560665 233.564127 459.560665 233.408756 
Q 459.560665 233.288245 459.499911 233.188649 
Q 459.439158 233.089052 459.337569 233.049712 
Q 459.235981 233.010371 459.040772 233.010371 
L 458.393396 233.010371 
L 458.393396 234.470454 
M 463.854265 233.941597 
Q 463.854265 234.209511 463.99121 234.351934 
Q 464.128155 234.494357 464.350255 234.494357 
Q 464.488694 234.494357 464.605719 234.429619 
Q 464.722745 234.364882 464.783997 234.247856 
Q 464.845249 234.13083 464.845249 233.926658 
Q 464.845249 233.674679 464.70681 233.531758 
Q 464.568371 233.388837 464.350255 233.388837 
Q 464.15405 233.388837 464.017603 233.506361 
Q 463.854265 233.647788 463.854265 233.941597 
M 471.221408 234.129834 
Q 471.180573 234.243374 471.110856 234.295164 
Q 471.041138 234.346954 470.942538 234.346954 
Q 470.810075 234.346954 470.721434 234.25433 
Q 470.632793 234.161705 470.622834 233.987411 
L 471.411637 233.987411 
Q 471.412633 233.955541 471.412633 233.939605 
Q 471.412633 233.677667 471.278178 233.533252 
Q 471.143723 233.388837 470.931582 233.388837 
Q 470.71247 233.388837 470.575028 233.53624 
Q 470.437585 233.683642 470.437585 233.950561 
Q 470.437585 234.208515 470.573534 234.351436 
Q 470.709483 234.494357 470.941542 234.494357 
Q 471.125795 234.494357 471.244315 234.40472 
Q 471.362835 234.315083 471.406657 234.152741 
L 471.221408 234.129834 
M 460.564597 234.129834 
Q 460.523762 234.243374 460.454045 234.295164 
Q 460.384327 234.346954 460.285727 234.346954 
Q 460.153264 234.346954 460.064623 234.25433 
Q 459.975982 234.161705 459.966022 233.987411 
L 460.754826 233.987411 
Q 460.755822 233.955541 460.755822 233.939605 
Q 460.755822 233.677667 460.621367 233.533252 
Q 460.486911 233.388837 460.274771 233.388837 
Q 460.055659 233.388837 459.918216 233.53624 
Q 459.780773 233.683642 459.780773 233.950561 
Q 459.780773 234.208515 459.916722 234.351436 
Q 460.052671 234.494357 460.284731 234.494357 
Q 460.468984 234.494357 460.587504 234.40472 
Q 460.706023 234.315083 460.749846 234.152741 
L 460.564597 234.129834 
M 461.268743 234.470454 
L 461.436065 234.470454 
L 461.836442 233.41274 
L 461.652189 233.41274 
L 461.417142 234.058125 
Q 461.374315 234.175649 461.350412 234.259309 
Q 461.319537 234.148758 461.282686 234.046173 
L 461.055607 233.41274 
L 460.866374 233.41274 
L 461.268743 234.470454 
M 468.271364 234.154733 
Q 468.301242 234.323051 468.409305 234.408704 
Q 468.517367 234.494357 468.723531 234.494357 
Q 468.848026 234.494357 468.946627 234.451032 
Q 469.045227 234.407708 469.097515 234.328529 
Q 469.149803 234.24935 469.149803 234.159713 
Q 469.149803 234.068084 469.106977 234.006335 
Q 469.064151 233.944585 468.988955 233.912216 
Q 468.91376 233.879847 468.723531 233.829053 
Q 468.592064 233.793198 468.565173 233.783239 
Q 468.518363 233.764316 468.496451 233.735433 
Q 468.47454 233.707546 468.47454 233.672687 
Q 468.47454 233.617909 468.527326 233.577074 
Q 468.580112 233.53624 468.703612 233.53624 
Q 468.808188 233.53624 468.865456 233.582054 
Q 468.922724 233.627869 468.934675 233.709538 
L 469.109965 233.685634 
Q 469.093034 233.58305 469.048215 233.521798 
Q 469.003397 233.460547 468.909278 233.424692 
Q 468.81516 233.388837 468.690664 233.388837 
Q 468.607999 233.388837 468.535792 233.41025 
Q 468.463585 233.431664 468.421754 233.462539 
Q 468.36598 233.502377 468.333611 233.562633 
Q 468.301242 233.622889 468.301242 233.693602 
Q 468.301242 233.771287 468.340583 233.835527 
Q 468.379924 233.899767 468.456115 233.936119 
Q 468.532306 233.972472 468.729507 234.02227 
Q 468.875913 234.059121 468.912764 234.083024 
Q 468.96555 234.117883 468.96555 234.178636 
Q 468.96555 234.246362 468.905792 234.296658 
Q 468.846035 234.346954 468.722535 234.346954 
Q 468.600032 234.346954 468.531808 234.290184 
Q 468.463585 234.233414 468.448645 234.126846 
L 468.271364 234.154733 
M 467.251497 234.154733 
Q 467.281376 234.323051 467.389438 234.408704 
Q 467.4975 234.494357 467.703664 234.494357 
Q 467.82816 234.494357 467.92676 234.451032 
Q 468.025361 234.407708 468.077649 234.328529 
Q 468.129937 234.24935 468.129937 234.159713 
Q 468.129937 234.068084 468.08711 234.006335 
Q 468.044284 233.944585 467.969089 233.912216 
Q 467.893893 233.879847 467.703664 233.829053 
Q 467.572197 233.793198 467.545306 233.783239 
Q 467.498496 233.764316 467.476585 233.735433 
Q 467.454673 233.707546 467.454673 233.672687 
Q 467.454673 233.617909 467.507459 233.577074 
Q 467.560245 233.53624 467.683745 233.53624 
Q 467.788321 233.53624 467.845589 233.582054 
Q 467.902857 233.627869 467.914809 233.709538 
L 468.090098 233.685634 
Q 468.073167 233.58305 468.028348 233.521798 
Q 467.98353 233.460547 467.889411 233.424692 
Q 467.795293 233.388837 467.670797 233.388837 
Q 467.588132 233.388837 467.515925 233.41025 
Q 467.443718 233.431664 467.401887 233.462539 
Q 467.346113 233.502377 467.313744 233.562633 
Q 467.281376 233.622889 467.281376 233.693602 
Q 467.281376 233.771287 467.320716 233.835527 
Q 467.360057 233.899767 467.436248 233.936119 
Q 467.512439 233.972472 467.70964 234.02227 
Q 467.856047 234.059121 467.892897 234.083024 
Q 467.945683 234.117883 467.945683 234.178636 
Q 467.945683 234.246362 467.885926 234.296658 
Q 467.826168 234.346954 467.702668 234.346954 
Q 467.580165 234.346954 467.511941 234.290184 
Q 467.443718 234.233414 467.428778 234.126846 
L 467.251497 234.154733 
M 462.376255 234.154733 
Q 462.406133 234.323051 462.514196 234.408704 
Q 462.622258 234.494357 462.828422 234.494357 
Q 462.952918 234.494357 463.051518 234.451032 
Q 463.150118 234.407708 463.202406 234.328529 
Q 463.254695 234.24935 463.254695 234.159713 
Q 463.254695 234.068084 463.211868 234.006335 
Q 463.169042 233.944585 463.093846 233.912216 
Q 463.018651 233.879847 462.828422 233.829053 
Q 462.696955 233.793198 462.670064 233.783239 
Q 462.623254 233.764316 462.601342 233.735433 
Q 462.579431 233.707546 462.579431 233.672687 
Q 462.579431 233.617909 462.632217 233.577074 
Q 462.685003 233.53624 462.808503 233.53624 
Q 462.913079 233.53624 462.970347 233.582054 
Q 463.027615 233.627869 463.039566 233.709538 
L 463.214856 233.685634 
Q 463.197925 233.58305 463.153106 233.521798 
Q 463.108288 233.460547 463.014169 233.424692 
Q 462.920051 233.388837 462.795555 233.388837 
Q 462.71289 233.388837 462.640683 233.41025 
Q 462.568476 233.431664 462.526645 233.462539 
Q 462.470871 233.502377 462.438502 233.562633 
Q 462.406133 233.622889 462.406133 233.693602 
Q 462.406133 233.771287 462.445474 233.835527 
Q 462.484815 233.899767 462.561006 233.936119 
Q 462.637197 233.972472 462.834398 234.02227 
Q 462.980805 234.059121 463.017655 234.083024 
Q 463.070441 234.117883 463.070441 234.178636 
Q 463.070441 234.246362 463.010683 234.296658 
Q 462.950926 234.346954 462.827426 234.346954 
Q 462.704923 234.346954 462.636699 234.290184 
Q 462.568476 234.233414 462.553536 234.126846 
L 462.376255 234.154733 
M 465.055397 234.470454 
L 465.23467 234.470454 
L 465.23467 233.892795 
Q 465.23467 233.689618 465.317833 233.616913 
Q 465.400996 233.544208 465.515532 233.544208 
Q 465.587241 233.544208 465.640525 233.576576 
Q 465.69381 233.608945 465.714725 233.663225 
Q 465.73564 233.717505 465.73564 233.827061 
L 465.73564 234.470454 
L 465.914913 234.470454 
L 465.914913 233.820089 
Q 465.914913 233.695594 465.904954 233.645796 
Q 465.889018 233.569107 465.84918 233.513333 
Q 465.809341 233.457559 465.729166 233.423198 
Q 465.648991 233.388837 465.553379 233.388837 
Q 465.333271 233.388837 465.216743 233.563131 
L 465.216743 233.41274 
L 465.055397 233.41274 
L 465.055397 234.470454 
M 470.05613 234.470454 
L 470.216481 234.470454 
L 470.216481 233.41274 
L 470.037207 233.41274 
L 470.037207 233.979444 
Q 470.037207 234.114895 470.007826 234.186106 
Q 469.978445 234.257318 469.907732 234.29865 
Q 469.837018 234.339983 469.756345 234.339983 
Q 469.675672 234.339983 469.620894 234.299646 
Q 469.566116 234.259309 469.549185 234.188596 
Q 469.538229 234.139794 469.538229 233.999363 
L 469.538229 233.41274 
L 469.358956 233.41274 
L 469.358956 234.068084 
Q 469.358956 234.18262 469.369911 234.235406 
Q 469.385847 234.314087 469.425187 234.368367 
Q 469.464528 234.422648 469.545699 234.458502 
Q 469.62687 234.494357 469.720491 234.494357 
Q 469.932631 234.494357 470.05613 234.315083 
L 470.05613 234.470454 
M 466.055344 234.495353 
L 466.199759 234.495353 
L 466.622048 232.985472 
L 466.478629 232.985472 
L 466.055344 234.495353 
M 466.812277 234.470454 
L 467.005494 234.470454 
L 467.005494 233.010371 
L 466.812277 233.010371 
L 466.812277 234.470454 
M 463.468827 234.470454 
L 463.6481 234.470454 
L 463.6481 233.41274 
L 463.468827 233.41274 
L 463.468827 234.470454 
M 461.995796 234.470454 
L 462.17507 234.470454 
L 462.17507 233.41274 
L 461.995796 233.41274 
L 461.995796 234.470454 
M 463.468827 233.216536 
L 463.6481 233.216536 
L 463.6481 233.010371 
L 463.468827 233.010371 
L 463.468827 233.216536 
M 461.995796 233.216536 
L 462.17507 233.216536 
L 462.17507 233.010371 
L 461.995796 233.010371 
L 461.995796 233.216536 
M 458.586613 233.65476 
L 458.586613 233.171717 
L 459.04874 233.171717 
Q 459.211082 233.171717 459.286277 233.238447 
Q 459.361473 233.305176 459.361473 233.408756 
Q 459.361473 233.47947 459.32263 233.539726 
Q 459.283787 233.599982 459.20909 233.627371 
Q 459.134393 233.65476 459.00193 233.65476 
L 458.586613 233.65476 
M 464.038518 233.941597 
Q 464.038518 233.73842 464.127159 233.637828 
Q 464.215799 233.537236 464.350255 233.537236 
Q 464.482718 233.537236 464.571856 233.638326 
Q 464.660995 233.739416 464.660995 233.935621 
Q 464.660995 234.143778 464.572354 234.245366 
Q 464.483714 234.346954 464.350255 234.346954 
Q 464.215799 234.346954 464.127159 234.245864 
Q 464.038518 234.144774 464.038518 233.941597 
M 470.632793 233.840009 
Q 470.641757 233.70157 470.725916 233.618905 
Q 470.810075 233.53624 470.933574 233.53624 
Q 471.070021 233.53624 471.155674 233.63982 
Q 471.211448 233.70655 471.2234 233.840009 
L 470.632793 233.840009 
M 459.975982 233.840009 
Q 459.984946 233.70157 460.069105 233.618905 
Q 460.153264 233.53624 460.276763 233.53624 
Q 460.41321 233.53624 460.498863 233.63982 
Q 460.554637 233.70655 460.566589 233.840009 
L 459.975982 233.840009 
" clip-path="url(#p0af302420e)"/>
   </g>
   <g id="line2d_29">
    <path d="M 446.638955 236.710221 
L 446.638955 220.28429 
" clip-path="url(#p0af302420e)" style="fill: none; stroke: #000000; stroke-width: 0.72; stroke-linecap: square"/>
   </g>
   <g id="line2d_30">
    <path d="M 439.338541 267.736979 
L 490.441437 267.736979 
" clip-path="url(#p0af302420e)" style="fill: none; stroke: #000000; stroke-width: 0.72; stroke-linecap: square"/>
   </g>
   <g id="line2d_31">
    <path d="M 490.441437 267.736979 
L 490.441437 238.535324 
" clip-path="url(#p0af302420e)" style="fill: none; stroke: #000000; stroke-width: 0.72; stroke-linecap: square"/>
   </g>
   <g id="line2d_32">
    <path d="M 490.441437 238.535324 
L 439.338541 238.535324 
" clip-path="url(#p0af302420e)" style="fill: none; stroke: #000000; stroke-width: 0.72; stroke-linecap: square"/>
   </g>
   <g id="line2d_33">
    <path d="M 439.338541 238.535324 
L 439.338541 267.736979 
" clip-path="url(#p0af302420e)" style="fill: none; stroke: #000000; stroke-width: 0.72; stroke-linecap: square"/>
   </g>
   <g id="patch_7">
    <path d="M 452.585719 272.17417 
L 452.719078 272.17417 
L 452.823306 271.886735 
L 453.220147 271.886735 
L 453.330849 272.17417 
L 453.473919 272.17417 
L 453.085493 271.225117 
L 452.950191 271.225117 
L 452.585719 272.17417 
M 446.203235 272.17417 
L 446.323647 272.17417 
L 446.323647 271.428393 
L 446.822127 272.17417 
L 446.950954 272.17417 
L 446.950954 271.225117 
L 446.830542 271.225117 
L 446.830542 271.970247 
L 446.332063 271.225117 
L 446.203235 271.225117 
L 446.203235 272.17417 
M 441.709795 272.17417 
L 441.835386 272.17417 
L 441.835386 271.788334 
L 442.0788 271.788334 
Q 442.280134 271.788334 442.357172 271.704499 
Q 442.434209 271.620664 442.434209 271.499604 
Q 442.434209 271.42904 442.405401 271.370129 
Q 442.376593 271.311218 442.329334 271.278525 
Q 442.282076 271.245833 442.212159 271.23418 
Q 442.162311 271.225117 442.067794 271.225117 
L 441.709795 271.225117 
L 441.709795 272.17417 
M 447.884471 272.17417 
L 448.000999 272.17417 
L 448.000999 271.817466 
Q 448.000999 271.723596 448.019773 271.673748 
Q 448.038547 271.6239 448.080303 271.598005 
Q 448.122058 271.57211 448.171259 271.57211 
Q 448.235997 271.57211 448.264481 271.610953 
Q 448.292966 271.649795 448.292966 271.727481 
L 448.292966 272.17417 
L 448.409493 272.17417 
L 448.409493 271.774739 
Q 448.409493 271.668569 448.457399 271.62034 
Q 448.505305 271.57211 448.577811 271.57211 
Q 448.617949 271.57211 448.647728 271.590884 
Q 448.677507 271.609658 448.688836 271.640409 
Q 448.700165 271.671159 448.700165 271.741076 
L 448.700165 272.17417 
L 448.816046 272.17417 
L 448.816046 271.702233 
Q 448.816046 271.58441 448.761019 271.527765 
Q 448.705992 271.47112 448.603706 271.47112 
Q 448.472936 271.47112 448.391367 271.591532 
Q 448.371298 271.534563 448.322421 271.502841 
Q 448.273544 271.47112 448.197154 271.47112 
Q 448.128532 271.47112 448.0748 271.50187 
Q 448.021068 271.53262 447.988699 271.583116 
L 447.988699 271.486657 
L 447.884471 271.486657 
L 447.884471 272.17417 
M 452.01538 272.17417 
L 452.123492 272.17417 
L 452.123492 271.225117 
L 452.007611 271.225117 
L 452.007611 271.565637 
Q 451.977185 271.523557 451.928632 271.497338 
Q 451.880078 271.47112 451.81793 271.47112 
Q 451.733124 271.47112 451.664502 271.515789 
Q 451.59588 271.560458 451.561569 271.644293 
Q 451.527258 271.728128 451.527258 271.831061 
Q 451.527258 271.936583 451.56513 272.017829 
Q 451.603001 272.099075 451.671947 272.144391 
Q 451.740892 272.189707 451.823109 272.189707 
Q 451.949995 272.189707 452.01538 272.087422 
L 452.01538 272.17417 
M 454.742777 272.17417 
L 454.850889 272.17417 
L 454.850889 271.225117 
L 454.735008 271.225117 
L 454.735008 271.565637 
Q 454.704581 271.523557 454.656028 271.497338 
Q 454.607475 271.47112 454.545327 271.47112 
Q 454.460521 271.47112 454.391899 271.515789 
Q 454.323277 271.560458 454.288966 271.644293 
Q 454.254655 271.728128 454.254655 271.831061 
Q 454.254655 271.936583 454.292526 272.017829 
Q 454.330398 272.099075 454.399344 272.144391 
Q 454.468289 272.189707 454.550506 272.189707 
Q 454.677392 272.189707 454.742777 272.087422 
L 454.742777 272.17417 
M 454.005415 272.17417 
L 454.113527 272.17417 
L 454.113527 271.225117 
L 453.997646 271.225117 
L 453.997646 271.565637 
Q 453.96722 271.523557 453.918667 271.497338 
Q 453.870113 271.47112 453.807965 271.47112 
Q 453.723159 271.47112 453.654537 271.515789 
Q 453.585915 271.560458 453.551604 271.644293 
Q 453.517293 271.728128 453.517293 271.831061 
Q 453.517293 271.936583 453.555165 272.017829 
Q 453.593036 272.099075 453.661982 272.144391 
Q 453.730927 272.189707 453.813144 272.189707 
Q 453.94003 272.189707 454.005415 272.087422 
L 454.005415 272.17417 
M 442.977358 271.830414 
Q 442.977358 272.004558 443.066372 272.097133 
Q 443.155387 272.189707 443.299752 272.189707 
Q 443.389737 272.189707 443.465804 272.147628 
Q 443.54187 272.105548 443.581684 272.029482 
Q 443.621498 271.953415 443.621498 271.820703 
Q 443.621498 271.656917 443.531512 271.564018 
Q 443.441527 271.47112 443.299752 271.47112 
Q 443.172219 271.47112 443.083528 271.54751 
Q 442.977358 271.639437 442.977358 271.830414 
M 455.946249 271.952768 
Q 455.919707 272.026569 455.874391 272.060232 
Q 455.829074 272.093896 455.764984 272.093896 
Q 455.678883 272.093896 455.621266 272.03369 
Q 455.56365 271.973484 455.557176 271.860193 
L 456.069898 271.860193 
Q 456.070546 271.839477 456.070546 271.829119 
Q 456.070546 271.658859 455.98315 271.564989 
Q 455.895754 271.47112 455.757863 271.47112 
Q 455.61544 271.47112 455.526102 271.566931 
Q 455.436764 271.662743 455.436764 271.83624 
Q 455.436764 272.00391 455.525131 272.096809 
Q 455.613498 272.189707 455.764337 272.189707 
Q 455.884101 272.189707 455.961139 272.131444 
Q 456.038177 272.07318 456.066661 271.967657 
L 455.946249 271.952768 
M 449.459538 271.952768 
Q 449.432996 272.026569 449.387679 272.060232 
Q 449.342363 272.093896 449.278273 272.093896 
Q 449.192172 272.093896 449.134555 272.03369 
Q 449.076939 271.973484 449.070465 271.860193 
L 449.583187 271.860193 
Q 449.583834 271.839477 449.583834 271.829119 
Q 449.583834 271.658859 449.496438 271.564989 
Q 449.409043 271.47112 449.271151 271.47112 
Q 449.128729 271.47112 449.039391 271.566931 
Q 448.950053 271.662743 448.950053 271.83624 
Q 448.950053 272.00391 449.03842 272.096809 
Q 449.126787 272.189707 449.277625 272.189707 
Q 449.39739 272.189707 449.474428 272.131444 
Q 449.551465 272.07318 449.57995 271.967657 
L 449.459538 271.952768 
M 444.523293 271.952768 
Q 444.496751 272.026569 444.451434 272.060232 
Q 444.406118 272.093896 444.342028 272.093896 
Q 444.255927 272.093896 444.19831 272.03369 
Q 444.140694 271.973484 444.13422 271.860193 
L 444.646942 271.860193 
Q 444.647589 271.839477 444.647589 271.829119 
Q 444.647589 271.658859 444.560194 271.564989 
Q 444.472798 271.47112 444.334907 271.47112 
Q 444.192484 271.47112 444.103146 271.566931 
Q 444.013808 271.662743 444.013808 271.83624 
Q 444.013808 272.00391 444.102175 272.096809 
Q 444.190542 272.189707 444.34138 272.189707 
Q 444.461145 272.189707 444.538183 272.131444 
Q 444.61522 272.07318 444.643705 271.967657 
L 444.523293 271.952768 
M 450.543246 272.089364 
Q 450.548425 272.137917 450.566552 272.17417 
L 450.688258 272.17417 
Q 450.666248 272.13468 450.658803 272.09163 
Q 450.651358 272.048579 450.651358 271.886088 
L 450.651358 271.730718 
Q 450.651358 271.653032 450.645532 271.623253 
Q 450.635174 271.575347 450.609278 271.543949 
Q 450.583383 271.512552 450.528356 271.491836 
Q 450.473329 271.47112 450.385286 271.47112 
Q 450.296596 271.47112 450.229269 271.495396 
Q 450.161941 271.519673 450.126336 271.564666 
Q 450.09073 271.609658 450.075193 271.682812 
L 450.189131 271.698349 
Q 450.207905 271.625195 450.247071 271.596387 
Q 450.286238 271.567579 450.368454 271.567579 
Q 450.456498 271.567579 450.501167 271.607069 
Q 450.534183 271.636201 450.534183 271.707412 
Q 450.534183 271.713886 450.533535 271.737839 
Q 450.466856 271.761144 450.325728 271.777976 
Q 450.256458 271.786392 450.222147 271.795455 
Q 450.175536 271.808403 450.138312 271.83365 
Q 450.101088 271.858898 450.078106 271.900654 
Q 450.055124 271.94241 450.055124 271.992905 
Q 450.055124 272.079006 450.115978 272.134357 
Q 450.176831 272.189707 450.290122 272.189707 
Q 450.358744 272.189707 450.418626 272.167049 
Q 450.478508 272.144391 450.543246 272.089364 
M 447.595741 272.089364 
Q 447.60092 272.137917 447.619047 272.17417 
L 447.740754 272.17417 
Q 447.718743 272.13468 447.711298 272.09163 
Q 447.703853 272.048579 447.703853 271.886088 
L 447.703853 271.730718 
Q 447.703853 271.653032 447.698027 271.623253 
Q 447.687669 271.575347 447.661774 271.543949 
Q 447.635879 271.512552 447.580852 271.491836 
Q 447.525825 271.47112 447.437782 271.47112 
Q 447.349091 271.47112 447.281764 271.495396 
Q 447.214437 271.519673 447.178831 271.564666 
Q 447.143225 271.609658 447.127688 271.682812 
L 447.241626 271.698349 
Q 447.2604 271.625195 447.299567 271.596387 
Q 447.338733 271.567579 447.42095 271.567579 
Q 447.508993 271.567579 447.553662 271.607069 
Q 447.586678 271.636201 447.586678 271.707412 
Q 447.586678 271.713886 447.586031 271.737839 
Q 447.519351 271.761144 447.378223 271.777976 
Q 447.308954 271.786392 447.274643 271.795455 
Q 447.228032 271.808403 447.190807 271.83365 
Q 447.153583 271.858898 447.130601 271.900654 
Q 447.10762 271.94241 447.10762 271.992905 
Q 447.10762 272.079006 447.168473 272.134357 
Q 447.229326 272.189707 447.342617 272.189707 
Q 447.411239 272.189707 447.471121 272.167049 
Q 447.531004 272.144391 447.595741 272.089364 
M 445.238644 271.922341 
Q 445.226344 272.009737 445.18038 272.051816 
Q 445.134416 272.093896 445.065794 272.093896 
Q 444.980341 272.093896 444.927256 272.0311 
Q 444.874171 271.968305 444.874171 271.829766 
Q 444.874171 271.69317 444.929198 271.630051 
Q 444.984225 271.566931 445.072268 271.566931 
Q 445.130532 271.566931 445.171641 271.60189 
Q 445.212749 271.636848 445.228933 271.706117 
L 445.342224 271.688638 
Q 445.322156 271.58441 445.250944 271.527765 
Q 445.179733 271.47112 445.067737 271.47112 
Q 444.979046 271.47112 444.903627 271.512875 
Q 444.828207 271.554631 444.791307 271.638143 
Q 444.754406 271.721654 444.754406 271.833003 
Q 444.754406 272.005205 444.840184 272.097456 
Q 444.925961 272.189707 445.067089 272.189707 
Q 445.179733 272.189707 445.257094 272.122704 
Q 445.334456 272.0557 445.35323 271.937231 
L 445.238644 271.922341 
M 456.166357 271.968952 
Q 456.185779 272.078359 456.256019 272.134033 
Q 456.326259 272.189707 456.460266 272.189707 
Q 456.541188 272.189707 456.605279 272.161547 
Q 456.669369 272.133386 456.703356 272.081919 
Q 456.737343 272.030453 456.737343 271.972189 
Q 456.737343 271.91263 456.709506 271.872493 
Q 456.681669 271.832356 456.632792 271.811316 
Q 456.583915 271.790276 456.460266 271.75726 
Q 456.374813 271.733954 456.357333 271.727481 
Q 456.326907 271.715181 456.312664 271.696407 
Q 456.298422 271.67828 456.298422 271.655622 
Q 456.298422 271.620016 456.332733 271.593474 
Q 456.367044 271.566931 456.447319 271.566931 
Q 456.515293 271.566931 456.552517 271.596711 
Q 456.589742 271.62649 456.59751 271.679575 
L 456.711448 271.664038 
Q 456.700443 271.597358 456.671311 271.557544 
Q 456.642179 271.517731 456.581002 271.494425 
Q 456.519825 271.47112 456.438903 271.47112 
Q 456.385171 271.47112 456.338236 271.485038 
Q 456.291301 271.498957 456.264111 271.519025 
Q 456.227858 271.544921 456.206818 271.584087 
Q 456.185779 271.623253 456.185779 271.669217 
Q 456.185779 271.719712 456.21135 271.761468 
Q 456.236921 271.803224 456.286446 271.826853 
Q 456.33597 271.850482 456.46415 271.882851 
Q 456.559315 271.906804 456.583268 271.922341 
Q 456.617579 271.944999 456.617579 271.984489 
Q 456.617579 272.028511 456.578736 272.061203 
Q 456.539894 272.093896 456.459619 272.093896 
Q 456.379992 272.093896 456.335646 272.056995 
Q 456.291301 272.020095 456.28159 271.950826 
L 456.166357 271.968952 
M 456.829271 271.968952 
Q 456.848692 272.078359 456.918932 272.134033 
Q 456.989173 272.189707 457.12318 272.189707 
Q 457.204102 272.189707 457.268192 272.161547 
Q 457.332282 272.133386 457.366269 272.081919 
Q 457.400257 272.030453 457.400257 271.972189 
Q 457.400257 271.91263 457.37242 271.872493 
Q 457.344582 271.832356 457.295705 271.811316 
Q 457.246829 271.790276 457.12318 271.75726 
Q 457.037726 271.733954 457.020247 271.727481 
Q 456.98982 271.715181 456.975578 271.696407 
Q 456.961336 271.67828 456.961336 271.655622 
Q 456.961336 271.620016 456.995646 271.593474 
Q 457.029957 271.566931 457.110232 271.566931 
Q 457.178207 271.566931 457.215431 271.596711 
Q 457.252655 271.62649 457.260423 271.679575 
L 457.374362 271.664038 
Q 457.363356 271.597358 457.334224 271.557544 
Q 457.305092 271.517731 457.243915 271.494425 
Q 457.182738 271.47112 457.101816 271.47112 
Q 457.048084 271.47112 457.001149 271.485038 
Q 456.954214 271.498957 456.927025 271.519025 
Q 456.890772 271.544921 456.869732 271.584087 
Q 456.848692 271.623253 456.848692 271.669217 
Q 456.848692 271.719712 456.874263 271.761468 
Q 456.899835 271.803224 456.949359 271.826853 
Q 456.998883 271.850482 457.127064 271.882851 
Q 457.222228 271.906804 457.246181 271.922341 
Q 457.280492 271.944999 457.280492 271.984489 
Q 457.280492 272.028511 457.24165 272.061203 
Q 457.202807 272.093896 457.122532 272.093896 
Q 457.042905 272.093896 456.99856 272.056995 
Q 456.954214 272.020095 456.944504 271.950826 
L 456.829271 271.968952 
M 450.831976 272.17417 
L 450.948504 272.17417 
L 450.948504 271.798692 
Q 450.948504 271.666627 451.00256 271.619369 
Q 451.056616 271.57211 451.131064 271.57211 
Q 451.177675 271.57211 451.21231 271.59315 
Q 451.246944 271.61419 451.260539 271.649472 
Q 451.274134 271.684754 451.274134 271.755965 
L 451.274134 272.17417 
L 451.390662 272.17417 
L 451.390662 271.751434 
Q 451.390662 271.670512 451.384188 271.638143 
Q 451.37383 271.588295 451.347935 271.552042 
Q 451.32204 271.515789 451.269926 271.493454 
Q 451.217812 271.47112 451.155664 271.47112 
Q 451.012594 271.47112 450.936851 271.58441 
L 450.936851 271.486657 
L 450.831976 271.486657 
L 450.831976 272.17417 
M 445.707344 272.069943 
Q 445.675623 272.074474 445.656202 272.074474 
Q 445.630307 272.074474 445.616388 272.066059 
Q 445.602469 272.057643 445.596319 272.0434 
Q 445.590169 272.029158 445.590169 271.97931 
L 445.590169 271.577289 
L 445.707344 271.577289 
L 445.707344 271.486657 
L 445.590169 271.486657 
L 445.590169 271.24648 
L 445.474289 271.316397 
L 445.474289 271.486657 
L 445.388835 271.486657 
L 445.388835 271.577289 
L 445.474289 271.577289 
L 445.474289 271.972836 
Q 445.474289 272.077711 445.488531 272.110404 
Q 445.502774 272.143096 445.537732 272.163165 
Q 445.57269 272.183234 445.636133 272.183234 
Q 445.674976 272.183234 445.724176 272.172876 
L 445.707344 272.069943 
M 455.032801 272.17417 
L 455.149329 272.17417 
L 455.149329 271.814229 
Q 455.149329 271.740428 455.16875 271.67828 
Q 455.181698 271.637495 455.212125 271.614513 
Q 455.242551 271.591532 455.280746 271.591532 
Q 455.323473 271.591532 455.3662 271.616779 
L 455.406337 271.508667 
Q 455.345484 271.47112 455.286573 271.47112 
Q 455.245788 271.47112 455.211801 271.494425 
Q 455.177814 271.517731 455.137676 271.590884 
L 455.137676 271.486657 
L 455.032801 271.486657 
L 455.032801 272.17417 
M 442.577927 272.17417 
L 442.694455 272.17417 
L 442.694455 271.814229 
Q 442.694455 271.740428 442.713876 271.67828 
Q 442.726824 271.637495 442.75725 271.614513 
Q 442.787677 271.591532 442.825872 271.591532 
Q 442.868599 271.591532 442.911326 271.616779 
L 442.951463 271.508667 
Q 442.89061 271.47112 442.831699 271.47112 
Q 442.790914 271.47112 442.756927 271.494425 
Q 442.722939 271.517731 442.682802 271.590884 
L 442.682802 271.486657 
L 442.577927 271.486657 
L 442.577927 272.17417 
M 443.609845 272.440889 
Q 443.653867 272.45319 443.701125 272.45319 
Q 443.798879 272.45319 443.840958 272.388452 
Q 443.873975 272.338604 443.873975 272.211718 
L 443.873975 271.486657 
L 443.757447 271.486657 
L 443.757447 272.209129 
Q 443.757447 272.303646 443.739968 272.327275 
Q 443.722488 272.350904 443.686883 272.350904 
Q 443.666814 272.350904 443.631856 272.341841 
L 443.609845 272.440889 
M 443.757447 271.360418 
L 443.873975 271.360418 
L 443.873975 271.225117 
L 443.757447 271.225117 
L 443.757447 271.360418 
M 452.859559 271.78445 
L 452.963786 271.506078 
Q 452.996803 271.416093 453.014929 271.324813 
Q 453.03694 271.40185 453.082256 271.521615 
L 453.181305 271.78445 
L 452.859559 271.78445 
M 441.835386 271.676338 
L 441.835386 271.337113 
L 442.078152 271.337113 
Q 442.163606 271.337113 442.195328 271.345529 
Q 442.244528 271.359124 442.274631 271.401527 
Q 442.304734 271.44393 442.304734 271.503488 
Q 442.304734 271.585705 442.253591 271.631022 
Q 442.202449 271.676338 442.080742 271.676338 
L 441.835386 271.676338 
M 451.647023 271.831061 
Q 451.647023 271.694464 451.699137 271.631022 
Q 451.75125 271.567579 451.828936 271.567579 
Q 451.908563 271.567579 451.962942 271.633611 
Q 452.017322 271.699643 452.017322 271.840772 
Q 452.017322 271.968952 451.963914 272.031424 
Q 451.910505 272.093896 451.834115 272.093896 
Q 451.758372 272.093896 451.702697 272.028511 
Q 451.647023 271.963126 451.647023 271.831061 
M 454.37442 271.831061 
Q 454.37442 271.694464 454.426533 271.631022 
Q 454.478647 271.567579 454.556332 271.567579 
Q 454.63596 271.567579 454.690339 271.633611 
Q 454.744719 271.699643 454.744719 271.840772 
Q 454.744719 271.968952 454.69131 272.031424 
Q 454.637902 272.093896 454.561511 272.093896 
Q 454.485768 272.093896 454.430094 272.028511 
Q 454.37442 271.963126 454.37442 271.831061 
M 453.637058 271.831061 
Q 453.637058 271.694464 453.689172 271.631022 
Q 453.741285 271.567579 453.818971 271.567579 
Q 453.898598 271.567579 453.952977 271.633611 
Q 454.007357 271.699643 454.007357 271.840772 
Q 454.007357 271.968952 453.953949 272.031424 
Q 453.90054 272.093896 453.82415 272.093896 
Q 453.748407 272.093896 453.692732 272.028511 
Q 453.637058 271.963126 453.637058 271.831061 
M 443.097123 271.830414 
Q 443.097123 271.698349 443.154739 271.632964 
Q 443.212356 271.567579 443.299752 271.567579 
Q 443.385853 271.567579 443.443793 271.633287 
Q 443.501733 271.698996 443.501733 271.826529 
Q 443.501733 271.961831 443.444117 272.027863 
Q 443.3865 272.093896 443.299752 272.093896 
Q 443.212356 272.093896 443.154739 272.028187 
Q 443.097123 271.962478 443.097123 271.830414 
M 455.56365 271.764381 
Q 455.569476 271.674396 455.62418 271.620664 
Q 455.678883 271.566931 455.759158 271.566931 
Q 455.847848 271.566931 455.903523 271.634258 
Q 455.939776 271.677633 455.947544 271.764381 
L 455.56365 271.764381 
M 449.076939 271.764381 
Q 449.082765 271.674396 449.137468 271.620664 
Q 449.192172 271.566931 449.272446 271.566931 
Q 449.361137 271.566931 449.416811 271.634258 
Q 449.453064 271.677633 449.460833 271.764381 
L 449.076939 271.764381 
M 444.140694 271.764381 
Q 444.14652 271.674396 444.201223 271.620664 
Q 444.255927 271.566931 444.336201 271.566931 
Q 444.424892 271.566931 444.480566 271.634258 
Q 444.516819 271.677633 444.524588 271.764381 
L 444.140694 271.764381 
M 450.533535 271.829119 
L 450.533535 271.871846 
Q 450.533535 271.948883 450.514761 271.988373 
Q 450.490161 272.039516 450.437724 272.068972 
Q 450.385286 272.098427 450.317959 272.098427 
Q 450.249985 272.098427 450.214703 272.067353 
Q 450.179421 272.036279 450.179421 271.989668 
Q 450.179421 271.959241 450.195605 271.934317 
Q 450.211789 271.909393 450.241569 271.896446 
Q 450.271348 271.883498 450.343207 271.87314 
Q 450.470093 271.855014 450.533535 271.829119 
M 447.586031 271.829119 
L 447.586031 271.871846 
Q 447.586031 271.948883 447.567257 271.988373 
Q 447.542657 272.039516 447.490219 272.068972 
Q 447.437782 272.098427 447.370454 272.098427 
Q 447.30248 272.098427 447.267198 272.067353 
Q 447.231916 272.036279 447.231916 271.989668 
Q 447.231916 271.959241 447.2481 271.934317 
Q 447.264285 271.909393 447.294064 271.896446 
Q 447.323843 271.883498 447.395702 271.87314 
Q 447.522588 271.855014 447.586031 271.829119 
" clip-path="url(#p0af302420e)"/>
   </g>
   <g id="patch_8">
    <path d="M 441.709795 241.147412 
L 442.052257 241.147412 
Q 442.138358 241.147412 442.204715 241.131228 
Q 442.271071 241.115043 442.318005 241.083646 
Q 442.36494 241.052248 442.40443 240.997545 
Q 442.44392 240.942841 442.469168 240.85933 
Q 442.494415 240.775818 442.494415 240.667706 
Q 442.494415 240.54082 442.457191 240.442096 
Q 442.419967 240.343371 442.344872 240.279928 
Q 442.287255 240.230727 442.205686 240.211953 
Q 442.147422 240.198358 442.03672 240.198358 
L 441.709795 240.198358 
L 441.709795 241.147412 
M 446.939949 241.147412 
L 447.060361 241.147412 
L 447.060361 240.401635 
L 447.558841 241.147412 
L 447.687669 241.147412 
L 447.687669 240.198358 
L 447.567257 240.198358 
L 447.567257 240.943489 
L 447.068777 240.198358 
L 446.939949 240.198358 
L 446.939949 241.147412 
M 448.621186 241.147412 
L 448.737713 241.147412 
L 448.737713 240.790708 
Q 448.737713 240.696838 448.756487 240.64699 
Q 448.775261 240.597142 448.817017 240.571247 
Q 448.858773 240.545352 448.907973 240.545352 
Q 448.972711 240.545352 449.001196 240.584195 
Q 449.02968 240.623037 449.02968 240.700722 
L 449.02968 241.147412 
L 449.146208 241.147412 
L 449.146208 240.747981 
Q 449.146208 240.641811 449.194114 240.593582 
Q 449.24202 240.545352 449.314526 240.545352 
Q 449.354663 240.545352 449.384442 240.564126 
Q 449.414222 240.5829 449.425551 240.61365 
Q 449.43688 240.644401 449.43688 240.714317 
L 449.43688 241.147412 
L 449.55276 241.147412 
L 449.55276 240.675475 
Q 449.55276 240.557652 449.497733 240.501007 
Q 449.442706 240.444361 449.340421 240.444361 
Q 449.209651 240.444361 449.128081 240.564773 
Q 449.108013 240.507804 449.059136 240.476083 
Q 449.010259 240.444361 448.933868 240.444361 
Q 448.865246 240.444361 448.811514 240.475112 
Q 448.757782 240.505862 448.725413 240.556357 
L 448.725413 240.459898 
L 448.621186 240.459898 
L 448.621186 241.147412 
M 443.958133 241.147412 
L 444.07984 241.147412 
L 444.219026 240.618506 
L 444.245569 240.735681 
L 444.354975 241.147412 
L 444.476035 241.147412 
L 444.690964 240.459898 
L 444.577673 240.459898 
L 444.45985 240.857388 
L 444.42036 240.9901 
L 444.386049 240.858682 
L 444.283116 240.459898 
L 444.163352 240.459898 
L 444.053945 240.862567 
Q 444.020929 240.993337 444.018339 241.004342 
L 443.977555 240.85674 
L 443.868148 240.459898 
L 443.747736 240.459898 
L 443.958133 241.147412 
M 445.799272 241.204381 
Q 445.796682 241.31573 445.872425 241.371081 
Q 445.948168 241.426431 446.07117 241.426431 
Q 446.17475 241.426431 446.245638 241.387589 
Q 446.316526 241.348746 446.349218 241.281743 
Q 446.381911 241.214739 446.381911 241.05419 
L 446.381911 240.459898 
L 446.274446 240.459898 
L 446.274446 240.542763 
Q 446.195466 240.444361 446.073759 240.444361 
Q 445.982479 240.444361 445.914829 240.489678 
Q 445.847178 240.534994 445.811572 240.618182 
Q 445.775966 240.70137 445.775966 240.799771 
Q 445.775966 240.942841 445.853652 241.045127 
Q 445.931337 241.147412 446.073112 241.147412 
Q 446.18705 241.147412 446.263441 241.057427 
Q 446.264088 241.171365 446.255025 241.206971 
Q 446.239488 241.265235 446.195466 241.297603 
Q 446.151445 241.329972 446.070523 241.329972 
Q 445.995427 241.329972 445.952053 241.297603 
Q 445.919684 241.273651 445.912563 241.221213 
L 445.799272 241.204381 
M 450.196252 240.926009 
Q 450.16971 240.99981 450.124394 241.033474 
Q 450.079077 241.067137 450.014987 241.067137 
Q 449.928886 241.067137 449.871269 241.006931 
Q 449.813653 240.946725 449.807179 240.833435 
L 450.319901 240.833435 
Q 450.320549 240.812719 450.320549 240.802361 
Q 450.320549 240.632101 450.233153 240.538231 
Q 450.145757 240.444361 450.007866 240.444361 
Q 449.865443 240.444361 449.776105 240.540173 
Q 449.686767 240.635985 449.686767 240.809482 
Q 449.686767 240.977152 449.775134 241.070051 
Q 449.863501 241.162949 450.01434 241.162949 
Q 450.134104 241.162949 450.211142 241.104685 
Q 450.28818 241.046421 450.316664 240.940899 
L 450.196252 240.926009 
M 443.542518 241.062606 
Q 443.547697 241.111159 443.565823 241.147412 
L 443.68753 241.147412 
Q 443.665519 241.107922 443.658075 241.064872 
Q 443.65063 241.021821 443.65063 240.85933 
L 443.65063 240.703959 
Q 443.65063 240.626274 443.644803 240.596495 
Q 443.634445 240.548589 443.60855 240.517191 
Q 443.582655 240.485793 443.527628 240.465077 
Q 443.472601 240.444361 443.384558 240.444361 
Q 443.295867 240.444361 443.22854 240.468638 
Q 443.161213 240.492915 443.125607 240.537907 
Q 443.090002 240.5829 443.074465 240.656053 
L 443.188403 240.67159 
Q 443.207177 240.598437 443.246343 240.569629 
Q 443.285509 240.54082 443.367726 240.54082 
Q 443.455769 240.54082 443.500438 240.58031 
Q 443.533455 240.609442 443.533455 240.680654 
Q 443.533455 240.687128 443.532807 240.71108 
Q 443.466127 240.734386 443.324999 240.751218 
Q 443.25573 240.759634 443.221419 240.768697 
Q 443.174808 240.781644 443.137584 240.806892 
Q 443.10036 240.83214 443.077378 240.873896 
Q 443.054396 240.915651 443.054396 240.966147 
Q 443.054396 241.052248 443.115249 241.107598 
Q 443.176103 241.162949 443.289394 241.162949 
Q 443.358016 241.162949 443.417898 241.140291 
Q 443.47778 241.117633 443.542518 241.062606 
M 448.332456 241.062606 
Q 448.337635 241.111159 448.355761 241.147412 
L 448.477468 241.147412 
Q 448.455457 241.107922 448.448012 241.064872 
Q 448.440568 241.021821 448.440568 240.85933 
L 448.440568 240.703959 
Q 448.440568 240.626274 448.434741 240.596495 
Q 448.424383 240.548589 448.398488 240.517191 
Q 448.372593 240.485793 448.317566 240.465077 
Q 448.262539 240.444361 448.174496 240.444361 
Q 448.085805 240.444361 448.018478 240.468638 
Q 447.951151 240.492915 447.915545 240.537907 
Q 447.87994 240.5829 447.864403 240.656053 
L 447.978341 240.67159 
Q 447.997115 240.598437 448.036281 240.569629 
Q 448.075447 240.54082 448.157664 240.54082 
Q 448.245707 240.54082 448.290376 240.58031 
Q 448.323392 240.609442 448.323392 240.680654 
Q 448.323392 240.687128 448.322745 240.71108 
Q 448.256065 240.734386 448.114937 240.751218 
Q 448.045668 240.759634 448.011357 240.768697 
Q 447.964746 240.781644 447.927522 240.806892 
Q 447.890298 240.83214 447.867316 240.873896 
Q 447.844334 240.915651 447.844334 240.966147 
Q 447.844334 241.052248 447.905187 241.107598 
Q 447.966041 241.162949 448.079332 241.162949 
Q 448.147953 241.162949 448.207836 241.140291 
Q 448.267718 241.117633 448.332456 241.062606 
M 445.083274 241.147412 
L 445.199801 241.147412 
L 445.199801 240.771934 
Q 445.199801 240.639869 445.253857 240.592611 
Q 445.307913 240.545352 445.382362 240.545352 
Q 445.428973 240.545352 445.463607 240.566392 
Q 445.498242 240.587432 445.511837 240.622714 
Q 445.525432 240.657996 445.525432 240.729207 
L 445.525432 241.147412 
L 445.641959 241.147412 
L 445.641959 240.724675 
Q 445.641959 240.643753 445.635486 240.611384 
Q 445.625128 240.561537 445.599233 240.525283 
Q 445.573338 240.48903 445.521224 240.466696 
Q 445.46911 240.444361 445.406962 240.444361 
Q 445.263892 240.444361 445.188149 240.557652 
L 445.188149 240.459898 
L 445.083274 240.459898 
L 445.083274 241.147412 
M 442.651081 241.147412 
L 442.767608 241.147412 
L 442.767608 240.787471 
Q 442.767608 240.71367 442.78703 240.651522 
Q 442.799977 240.610737 442.830404 240.587755 
Q 442.86083 240.564773 442.899026 240.564773 
Q 442.941753 240.564773 442.984479 240.590021 
L 443.024617 240.481909 
Q 442.963763 240.444361 442.904852 240.444361 
Q 442.864067 240.444361 442.83008 240.467667 
Q 442.796093 240.490972 442.755956 240.564126 
L 442.755956 240.459898 
L 442.651081 240.459898 
L 442.651081 241.147412 
M 444.789365 241.147412 
L 444.905892 241.147412 
L 444.905892 240.459898 
L 444.789365 240.459898 
L 444.789365 241.147412 
M 444.789365 240.332365 
L 444.905892 240.332365 
L 444.905892 240.198358 
L 444.789365 240.198358 
L 444.789365 240.332365 
M 441.835386 241.035416 
L 441.835386 240.310354 
L 442.034778 240.310354 
Q 442.146774 240.310354 442.19727 240.329776 
Q 442.267186 240.356966 442.316063 240.436917 
Q 442.36494 240.516868 442.36494 240.665764 
Q 442.36494 240.773229 442.340016 240.848648 
Q 442.315092 240.924067 442.270423 240.968736 
Q 442.238702 241.000458 442.185293 241.017937 
Q 442.131885 241.035416 442.038015 241.035416 
L 441.835386 241.035416 
M 445.895731 240.791355 
Q 445.895731 240.667059 445.950111 240.60394 
Q 446.00449 240.54082 446.082175 240.54082 
Q 446.161155 240.54082 446.217153 240.604911 
Q 446.273151 240.669001 446.273151 240.795239 
Q 446.273151 240.927304 446.218772 240.989129 
Q 446.164392 241.050953 446.084118 241.050953 
Q 446.003195 241.050953 445.949463 240.988805 
Q 445.895731 240.926657 445.895731 240.791355 
M 449.813653 240.737623 
Q 449.819479 240.647638 449.874183 240.593905 
Q 449.928886 240.540173 450.009161 240.540173 
Q 450.097851 240.540173 450.153525 240.6075 
Q 450.189779 240.650874 450.197547 240.737623 
L 449.813653 240.737623 
M 443.532807 240.802361 
L 443.532807 240.845087 
Q 443.532807 240.922125 443.514033 240.961615 
Q 443.489433 241.012758 443.436995 241.042213 
Q 443.384558 241.071669 443.317231 241.071669 
Q 443.249256 241.071669 443.213974 241.040595 
Q 443.178692 241.009521 443.178692 240.96291 
Q 443.178692 240.932483 443.194877 240.907559 
Q 443.211061 240.882635 443.24084 240.869688 
Q 443.27062 240.85674 443.342479 240.846382 
Q 443.469364 240.828256 443.532807 240.802361 
M 448.322745 240.802361 
L 448.322745 240.845087 
Q 448.322745 240.922125 448.303971 240.961615 
Q 448.279371 241.012758 448.226933 241.042213 
Q 448.174496 241.071669 448.107169 241.071669 
Q 448.039194 241.071669 448.003912 241.040595 
Q 447.96863 241.009521 447.96863 240.96291 
Q 447.96863 240.932483 447.984815 240.907559 
Q 448.000999 240.882635 448.030778 240.869688 
Q 448.060558 240.85674 448.132416 240.846382 
Q 448.259302 240.828256 448.322745 240.802361 
" clip-path="url(#p0af302420e)"/>
   </g>
   <g id="line2d_34">
    <path d="M 439.338541 220.28429 
L 490.441437 220.28429 
" clip-path="url(#p0af302420e)" style="fill: none; stroke: #000000; stroke-width: 0.72; stroke-linecap: square"/>
   </g>
   <g id="line2d_35">
    <path d="M 439.338541 225.7596 
L 490.441437 225.7596 
" clip-path="url(#p0af302420e)" style="fill: none; stroke: #000000; stroke-width: 0.72; stroke-linecap: square"/>
   </g>
   <g id="line2d_36">
    <path d="M 439.338541 231.23491 
L 490.441437 231.23491 
" clip-path="url(#p0af302420e)" style="fill: none; stroke: #000000; stroke-width: 0.72; stroke-linecap: square"/>
   </g>
   <g id="patch_9">
    <path d="M 441.755622 234.470454 
L 441.940871 234.470454 
L 441.940871 233.323104 
L 442.707763 234.470454 
L 442.90596 234.470454 
L 442.90596 233.010371 
L 442.72071 233.010371 
L 442.72071 234.156725 
L 441.953818 233.010371 
L 441.755622 233.010371 
L 441.755622 234.470454 
M 443.141007 233.941597 
Q 443.141007 234.209511 443.277952 234.351934 
Q 443.414897 234.494357 443.636997 234.494357 
Q 443.775436 234.494357 443.892462 234.429619 
Q 444.009487 234.364882 444.070739 234.247856 
Q 444.131991 234.13083 444.131991 233.926658 
Q 444.131991 233.674679 443.993552 233.531758 
Q 443.855113 233.388837 443.636997 233.388837 
Q 443.440792 233.388837 443.304345 233.506361 
Q 443.141007 233.647788 443.141007 233.941597 
M 444.392933 234.470454 
L 444.597106 234.470454 
L 444.597106 234.266281 
L 444.392933 234.266281 
L 444.392933 234.470454 
M 443.32526 233.941597 
Q 443.32526 233.73842 443.413901 233.637828 
Q 443.502542 233.537236 443.636997 233.537236 
Q 443.76946 233.537236 443.858599 233.638326 
Q 443.947738 233.739416 443.947738 233.935621 
Q 443.947738 234.143778 443.859097 234.245366 
Q 443.770456 234.346954 443.636997 234.346954 
Q 443.502542 234.346954 443.413901 234.245864 
Q 443.32526 234.144774 443.32526 233.941597 
" clip-path="url(#p0af302420e)"/>
   </g>
   <g id="patch_10">
    <path d="M 483.827748 234.470454 
L 484.354613 234.470454 
Q 484.487076 234.470454 484.589163 234.445555 
Q 484.691249 234.420656 484.763456 234.372351 
Q 484.835664 234.324047 484.896417 234.239888 
Q 484.957171 234.155729 484.996014 234.02725 
Q 485.034856 233.898771 485.034856 233.732445 
Q 485.034856 233.537236 484.977588 233.385351 
Q 484.920321 233.233467 484.804789 233.135862 
Q 484.716148 233.060169 484.590657 233.031286 
Q 484.50102 233.010371 484.33071 233.010371 
L 483.827748 233.010371 
L 483.827748 234.470454 
M 487.703043 234.129834 
Q 487.662208 234.243374 487.592491 234.295164 
Q 487.522774 234.346954 487.424173 234.346954 
Q 487.29171 234.346954 487.203069 234.25433 
Q 487.114428 234.161705 487.104469 233.987411 
L 487.893272 233.987411 
Q 487.894268 233.955541 487.894268 233.939605 
Q 487.894268 233.677667 487.759813 233.533252 
Q 487.625358 233.388837 487.413218 233.388837 
Q 487.194106 233.388837 487.056663 233.53624 
Q 486.91922 233.683642 486.91922 233.950561 
Q 486.91922 234.208515 487.055169 234.351436 
Q 487.191118 234.494357 487.423177 234.494357 
Q 487.60743 234.494357 487.72595 234.40472 
Q 487.84447 234.315083 487.888292 234.152741 
L 487.703043 234.129834 
M 485.968074 234.339983 
Q 485.976042 234.41468 486.003929 234.470454 
L 486.19117 234.470454 
Q 486.157307 234.4097 486.145854 234.343468 
Q 486.1344 234.277237 486.1344 234.02725 
L 486.1344 233.788219 
Q 486.1344 233.668703 486.125437 233.622889 
Q 486.109501 233.549187 486.069663 233.500883 
Q 486.029824 233.452579 485.945167 233.420708 
Q 485.86051 233.388837 485.725059 233.388837 
Q 485.588612 233.388837 485.485032 233.426186 
Q 485.381452 233.463534 485.326674 233.532754 
Q 485.271896 233.601973 485.247993 233.714517 
L 485.423282 233.73842 
Q 485.452165 233.625877 485.512421 233.581556 
Q 485.572677 233.537236 485.699164 233.537236 
Q 485.834615 233.537236 485.903337 233.59799 
Q 485.954131 233.642808 485.954131 233.752364 
Q 485.954131 233.762324 485.953135 233.799174 
Q 485.850551 233.835029 485.63343 233.860924 
Q 485.526862 233.873872 485.474076 233.887815 
Q 485.402367 233.907734 485.345099 233.946577 
Q 485.287831 233.985419 485.252474 234.049659 
Q 485.217118 234.113899 485.217118 234.191584 
Q 485.217118 234.324047 485.310738 234.409202 
Q 485.404359 234.494357 485.578652 234.494357 
Q 485.684225 234.494357 485.776351 234.459498 
Q 485.868478 234.424639 485.968074 234.339983 
M 486.803688 234.310104 
Q 486.754886 234.317075 486.725007 234.317075 
Q 486.685168 234.317075 486.663755 234.304128 
Q 486.642342 234.29118 486.63288 234.269269 
Q 486.623418 234.247358 486.623418 234.170669 
L 486.623418 233.552175 
L 486.803688 233.552175 
L 486.803688 233.41274 
L 486.623418 233.41274 
L 486.623418 233.043238 
L 486.445141 233.150802 
L 486.445141 233.41274 
L 486.313674 233.41274 
L 486.313674 233.552175 
L 486.445141 233.552175 
L 486.445141 234.160709 
Q 486.445141 234.322055 486.467052 234.372351 
Q 486.488963 234.422648 486.542745 234.453522 
Q 486.596527 234.484397 486.694132 234.484397 
Q 486.75389 234.484397 486.829583 234.468462 
L 486.803688 234.310104 
M 484.020965 234.298152 
L 484.020965 233.182673 
L 484.327722 233.182673 
Q 484.500024 233.182673 484.577709 233.212552 
Q 484.685273 233.254382 484.760468 233.377384 
Q 484.835664 233.500385 484.835664 233.729457 
Q 484.835664 233.894787 484.797319 234.010817 
Q 484.758974 234.126846 484.690253 234.195568 
Q 484.641451 234.24437 484.559284 234.271261 
Q 484.477117 234.298152 484.332702 234.298152 
L 484.020965 234.298152 
M 487.114428 233.840009 
Q 487.123392 233.70157 487.207551 233.618905 
Q 487.29171 233.53624 487.41521 233.53624 
Q 487.551657 233.53624 487.637309 233.63982 
Q 487.693083 233.70655 487.705035 233.840009 
L 487.114428 233.840009 
M 485.953135 233.939605 
L 485.953135 234.005339 
Q 485.953135 234.123858 485.924252 234.184612 
Q 485.886405 234.263293 485.805732 234.30861 
Q 485.725059 234.353926 485.621479 234.353926 
Q 485.516903 234.353926 485.462623 234.30612 
Q 485.408343 234.258314 485.408343 234.186604 
Q 485.408343 234.139794 485.433242 234.101449 
Q 485.458141 234.063105 485.503955 234.043185 
Q 485.54977 234.023266 485.660322 234.007331 
Q 485.85553 233.979444 485.953135 233.939605 
" clip-path="url(#p0af302420e)"/>
   </g>
   <g id="patch_11">
    <path d="M 459.129911 40.47356 
L 459.559171 40.47356 
L 459.559171 40.745458 
Q 459.497422 40.800236 459.377906 40.84854 
Q 459.25839 40.896844 459.132899 40.896844 
Q 458.988484 40.896844 458.860005 40.833102 
Q 458.731526 40.769361 458.664298 40.637894 
Q 458.59707 40.506426 458.59707 40.311218 
Q 458.59707 40.152859 458.652844 40.017408 
Q 458.685711 39.938727 458.744971 39.872994 
Q 458.804231 39.80726 458.900839 39.766923 
Q 458.997448 39.726587 459.129911 39.726587 
Q 459.240463 39.726587 459.331096 39.764931 
Q 459.421728 39.803276 459.470531 39.867018 
Q 459.519333 39.930759 459.5522 40.042307 
L 459.726493 39.994501 
Q 459.688647 39.847098 459.615941 39.75547 
Q 459.543236 39.663841 459.415255 39.612549 
Q 459.287273 39.561257 459.128915 39.561257 
Q 458.910799 39.561257 458.743477 39.650894 
Q 458.576155 39.74053 458.487016 39.925282 
Q 458.397878 40.110033 458.397878 40.323169 
Q 458.397878 40.538297 458.487514 40.712591 
Q 458.577151 40.886885 458.752939 40.979011 
Q 458.928726 41.071138 459.143854 41.071138 
Q 459.303209 41.071138 459.454595 41.01387 
Q 459.605982 40.956602 459.748404 40.843062 
L 459.748404 40.301258 
L 459.129911 40.302254 
L 459.129911 40.47356 
M 466.267983 41.046239 
L 466.453232 41.046239 
L 466.453232 39.898889 
L 467.220124 41.046239 
L 467.418321 41.046239 
L 467.418321 39.586156 
L 467.233071 39.586156 
L 467.233071 40.73251 
L 466.466179 39.586156 
L 466.267983 39.586156 
L 466.267983 41.046239 
M 467.653368 40.517382 
Q 467.653368 40.785296 467.790313 40.927719 
Q 467.927258 41.070142 468.149358 41.070142 
Q 468.287797 41.070142 468.404823 41.005404 
Q 468.521848 40.940667 468.5831 40.823641 
Q 468.644352 40.706615 468.644352 40.502443 
Q 468.644352 40.250464 468.505913 40.107543 
Q 468.367474 39.964622 468.149358 39.964622 
Q 467.953153 39.964622 467.816706 40.082146 
Q 467.653368 40.223573 467.653368 40.517382 
M 463.003214 40.705619 
Q 462.962379 40.819159 462.892662 40.870949 
Q 462.822944 40.922739 462.724344 40.922739 
Q 462.591881 40.922739 462.50324 40.830115 
Q 462.414599 40.73749 462.40464 40.563196 
L 463.193443 40.563196 
Q 463.194439 40.531325 463.194439 40.51539 
Q 463.194439 40.253452 463.059984 40.109037 
Q 462.925529 39.964622 462.713388 39.964622 
Q 462.494276 39.964622 462.356833 40.112025 
Q 462.21939 40.259427 462.21939 40.526346 
Q 462.21939 40.7843 462.355339 40.927221 
Q 462.491288 41.070142 462.723348 41.070142 
Q 462.907601 41.070142 463.026121 40.980505 
Q 463.144641 40.890868 463.188463 40.728526 
L 463.003214 40.705619 
M 460.734408 40.705619 
Q 460.693574 40.819159 460.623856 40.870949 
Q 460.554139 40.922739 460.455539 40.922739 
Q 460.323075 40.922739 460.234435 40.830115 
Q 460.145794 40.73749 460.135834 40.563196 
L 460.924638 40.563196 
Q 460.925633 40.531325 460.925633 40.51539 
Q 460.925633 40.253452 460.791178 40.109037 
Q 460.656723 39.964622 460.444583 39.964622 
Q 460.225471 39.964622 460.088028 40.112025 
Q 459.950585 40.259427 459.950585 40.526346 
Q 459.950585 40.7843 460.086534 40.927221 
Q 460.222483 41.070142 460.454543 41.070142 
Q 460.638796 41.070142 460.757316 40.980505 
Q 460.875835 40.890868 460.919658 40.728526 
L 460.734408 40.705619 
M 470.145269 40.705619 
Q 470.104435 40.819159 470.034717 40.870949 
Q 469.965 40.922739 469.866399 40.922739 
Q 469.733936 40.922739 469.645295 40.830115 
Q 469.556655 40.73749 469.546695 40.563196 
L 470.335498 40.563196 
Q 470.336494 40.531325 470.336494 40.51539 
Q 470.336494 40.253452 470.202039 40.109037 
Q 470.067584 39.964622 469.855444 39.964622 
Q 469.636332 39.964622 469.498889 40.112025 
Q 469.361446 40.259427 469.361446 40.526346 
Q 469.361446 40.7843 469.497395 40.927221 
Q 469.633344 41.070142 469.865403 41.070142 
Q 470.049657 41.070142 470.168176 40.980505 
Q 470.286696 40.890868 470.330518 40.728526 
L 470.145269 40.705619 
M 464.783001 40.915767 
Q 464.790968 40.990465 464.818855 41.046239 
L 465.006097 41.046239 
Q 464.972234 40.985485 464.96078 40.919253 
Q 464.949327 40.853022 464.949327 40.603035 
L 464.949327 40.364004 
Q 464.949327 40.244488 464.940363 40.198674 
Q 464.924428 40.124972 464.884589 40.076668 
Q 464.844751 40.028364 464.760094 39.996493 
Q 464.675437 39.964622 464.539986 39.964622 
Q 464.403539 39.964622 464.299958 40.001971 
Q 464.196378 40.039319 464.1416 40.108539 
Q 464.086822 40.177758 464.062919 40.290302 
L 464.238209 40.314205 
Q 464.267092 40.201662 464.327347 40.157341 
Q 464.387603 40.113021 464.514091 40.113021 
Q 464.649542 40.113021 464.718263 40.173775 
Q 464.769057 40.218593 464.769057 40.328149 
Q 464.769057 40.338109 464.768061 40.374959 
Q 464.665477 40.410814 464.448357 40.436709 
Q 464.341789 40.449656 464.289003 40.4636 
Q 464.217293 40.483519 464.160026 40.522362 
Q 464.102758 40.561204 464.067401 40.625444 
Q 464.032044 40.689684 464.032044 40.767369 
Q 464.032044 40.899832 464.125665 40.984987 
Q 464.219285 41.070142 464.393579 41.070142 
Q 464.499151 41.070142 464.591278 41.035283 
Q 464.683404 41.000424 464.783001 40.915767 
M 470.483897 40.730518 
Q 470.513776 40.898836 470.621838 40.984489 
Q 470.7299 41.070142 470.936064 41.070142 
Q 471.06056 41.070142 471.15916 41.026817 
Q 471.257761 40.983493 471.310049 40.904314 
Q 471.362337 40.825135 471.362337 40.735498 
Q 471.362337 40.643869 471.31951 40.58212 
Q 471.276684 40.52037 471.201489 40.488001 
Q 471.126293 40.455632 470.936064 40.404838 
Q 470.804597 40.368983 470.777706 40.359024 
Q 470.730896 40.3401 470.708985 40.311218 
Q 470.687073 40.283331 470.687073 40.248472 
Q 470.687073 40.193694 470.739859 40.152859 
Q 470.792646 40.112025 470.916145 40.112025 
Q 471.020721 40.112025 471.077989 40.157839 
Q 471.135257 40.203653 471.147209 40.285322 
L 471.322498 40.261419 
Q 471.305567 40.158835 471.260748 40.097583 
Q 471.21593 40.036332 471.121812 40.000477 
Q 471.027693 39.964622 470.903198 39.964622 
Q 470.820533 39.964622 470.748325 39.986035 
Q 470.676118 40.007449 470.634287 40.038323 
Q 470.578513 40.078162 470.546145 40.138418 
Q 470.513776 40.198674 470.513776 40.269387 
Q 470.513776 40.347072 470.553116 40.411312 
Q 470.592457 40.475552 470.668648 40.511904 
Q 470.744839 40.548257 470.94204 40.598055 
Q 471.088447 40.634906 471.125297 40.658809 
Q 471.178084 40.693668 471.178084 40.754421 
Q 471.178084 40.822147 471.118326 40.872443 
Q 471.058568 40.922739 470.935068 40.922739 
Q 470.812565 40.922739 470.744341 40.865969 
Q 470.676118 40.809199 470.661178 40.702631 
L 470.483897 40.730518 
M 461.144745 41.046239 
L 461.324019 41.046239 
L 461.324019 40.46858 
Q 461.324019 40.265403 461.407182 40.192698 
Q 461.490345 40.119992 461.604881 40.119992 
Q 461.67659 40.119992 461.729874 40.152361 
Q 461.783158 40.18473 461.804073 40.23901 
Q 461.824989 40.29329 461.824989 40.402846 
L 461.824989 41.046239 
L 462.004262 41.046239 
L 462.004262 40.395874 
Q 462.004262 40.271379 461.994303 40.221581 
Q 461.978367 40.144892 461.938529 40.089118 
Q 461.89869 40.033344 461.818515 39.998983 
Q 461.73834 39.964622 461.642727 39.964622 
Q 461.422619 39.964622 461.306092 40.138916 
L 461.306092 39.988525 
L 461.144745 39.988525 
L 461.144745 41.046239 
M 469.245914 40.885889 
Q 469.197112 40.89286 469.167233 40.89286 
Q 469.127394 40.89286 469.105981 40.879913 
Q 469.084568 40.866965 469.075106 40.845054 
Q 469.065645 40.823143 469.065645 40.746454 
L 469.065645 40.12796 
L 469.245914 40.12796 
L 469.245914 39.988525 
L 469.065645 39.988525 
L 469.065645 39.619023 
L 468.887367 39.726587 
L 468.887367 39.988525 
L 468.7559 39.988525 
L 468.7559 40.12796 
L 468.887367 40.12796 
L 468.887367 40.736494 
Q 468.887367 40.89784 468.909278 40.948136 
Q 468.931189 40.998432 468.984972 41.029307 
Q 469.038754 41.060182 469.136358 41.060182 
Q 469.196116 41.060182 469.271809 41.044247 
L 469.245914 40.885889 
M 463.411559 41.046239 
L 463.590832 41.046239 
L 463.590832 40.492483 
Q 463.590832 40.378943 463.620711 40.283331 
Q 463.64063 40.220585 463.687441 40.185228 
Q 463.734251 40.149871 463.793013 40.149871 
Q 463.858746 40.149871 463.92448 40.188714 
L 463.98623 40.022388 
Q 463.892609 39.964622 463.801977 39.964622 
Q 463.739231 39.964622 463.686943 40.000477 
Q 463.634655 40.036332 463.572905 40.148875 
L 463.572905 39.988525 
L 463.411559 39.988525 
L 463.411559 41.046239 
M 465.223217 41.046239 
L 465.40249 41.046239 
L 465.40249 39.586156 
L 465.223217 39.586156 
L 465.223217 41.046239 
M 467.837621 40.517382 
Q 467.837621 40.314205 467.926262 40.213613 
Q 468.014903 40.113021 468.149358 40.113021 
Q 468.281821 40.113021 468.37096 40.214111 
Q 468.460099 40.315201 468.460099 40.511406 
Q 468.460099 40.719563 468.371458 40.821151 
Q 468.282817 40.922739 468.149358 40.922739 
Q 468.014903 40.922739 467.926262 40.821649 
Q 467.837621 40.720559 467.837621 40.517382 
M 462.414599 40.415794 
Q 462.423563 40.277355 462.507722 40.19469 
Q 462.591881 40.112025 462.71538 40.112025 
Q 462.851827 40.112025 462.93748 40.215605 
Q 462.993254 40.282335 463.005206 40.415794 
L 462.414599 40.415794 
M 460.145794 40.415794 
Q 460.154758 40.277355 460.238917 40.19469 
Q 460.323075 40.112025 460.446575 40.112025 
Q 460.583022 40.112025 460.668675 40.215605 
Q 460.724449 40.282335 460.7364 40.415794 
L 460.145794 40.415794 
M 469.556655 40.415794 
Q 469.565618 40.277355 469.649777 40.19469 
Q 469.733936 40.112025 469.857436 40.112025 
Q 469.993883 40.112025 470.079536 40.215605 
Q 470.13531 40.282335 470.147261 40.415794 
L 469.556655 40.415794 
M 464.768061 40.51539 
L 464.768061 40.581124 
Q 464.768061 40.699643 464.739178 40.760397 
Q 464.701332 40.839078 464.620659 40.884395 
Q 464.539986 40.929711 464.436405 40.929711 
Q 464.331829 40.929711 464.277549 40.881905 
Q 464.223269 40.834098 464.223269 40.762389 
Q 464.223269 40.715579 464.248168 40.677234 
Q 464.273067 40.63889 464.318882 40.61897 
Q 464.364696 40.599051 464.475248 40.583116 
Q 464.670457 40.555229 464.768061 40.51539 
" clip-path="url(#p0af302420e)"/>
   </g>
   <g id="line2d_37">
    <path d="M 439.338541 42.985229 
L 490.441437 42.985229 
" clip-path="url(#p0af302420e)" style="fill: none; stroke: #000000; stroke-width: 0.72; stroke-linecap: square"/>
   </g>
  </g>
 </g>
 <defs>
  <clipPath id="p0af302420e">
   <rect x="7.2" y="7.2" width="521.549039" height="345.6"/>
  </clipPath>
 </defs>
</svg>
