<?xml version="1.0" encoding="utf-8" standalone="no"?>
<!DOCTYPE svg PUBLIC "-//W3C//DTD SVG 1.1//EN"
  "http://www.w3.org/Graphics/SVG/1.1/DTD/svg11.dtd">
<svg xmlns:xlink="http://www.w3.org/1999/xlink" width="302.4pt" height="532.800006pt" viewBox="0 0 302.4 532.800006" xmlns="http://www.w3.org/2000/svg" version="1.1">
 <metadata>
  <rdf:RDF xmlns:dc="http://purl.org/dc/elements/1.1/" xmlns:cc="http://creativecommons.org/ns#" xmlns:rdf="http://www.w3.org/1999/02/22-rdf-syntax-ns#">
   <cc:Work>
    <dc:type rdf:resource="http://purl.org/dc/dcmitype/StillImage"/>
    <dc:date>2026-02-17T09:28:51.641337</dc:date>
    <dc:format>image/svg+xml</dc:format>
    <dc:creator>
     <cc:Agent>
      <dc:title>Matplotlib v3.10.8, https://matplotlib.org/</dc:title>
     </cc:Agent>
    </dc:creator>
   </cc:Work>
  </rdf:RDF>
 </metadata>
 <defs>
  <style type="text/css">*{stroke-linejoin: round; stroke-linecap: butt}</style>
 </defs>
 <g id="figure_1">
  <g id="patch_1">
   <path d="M 0 532.800006 
L 302.4 532.800006 
L 302.4 0 
L 0 0 
L 0 532.800006 
z
" style="fill: none"/>
  </g>
  <g id="axes_1">
   <g id="line2d_1">
    <path d="M 151.2 502.03637 
L 151.2 135.490915 
" clip-path="url(#p379f1615a9)" style="fill: none; stroke: #000000; stroke-width: 0.72; stroke-linecap: square"/>
   </g>
   <g id="line2d_2">
    <path d="M 20.290909 135.490915 
L 282.109091 135.490915 
" clip-path="url(#p379f1615a9)" style="fill: none; stroke: #000000; stroke-width: 0.72; stroke-linecap: square"/>
   </g>
   <g id="patch_2">
    <path d="M 282.109091 135.490915 
C 282.104625 128.603539 281.259924 121.74243 279.593709 115.059638 
C 277.886346 108.242469 275.386143 101.648816 272.14423 95.413523 
C 268.782591 88.956021 264.726135 82.884745 260.046931 77.30756 
C 255.163786 71.487153 249.70981 66.170601 243.766706 61.437551 
C 237.567537 56.497083 230.927058 52.137323 223.929194 48.413371 
C 216.674683 44.548223 209.102951 41.310483 201.29674 38.735532 
C 193.285502 36.08813 185.072679 34.095064 176.739097 32.775948 
C 168.292282 31.434169 159.752722 30.76131 151.2 30.763643 
C 142.647278 30.76131 134.107718 31.434169 125.660903 32.775948 
C 117.327321 34.095064 109.114498 36.08813 101.10326 38.735532 
C 93.297049 41.310483 85.725317 44.548223 78.470806 48.413371 
C 71.472942 52.137323 64.832463 56.497083 58.633294 61.437551 
C 52.69019 66.170601 47.236214 71.487153 42.353069 77.30756 
C 37.673865 82.884745 33.617409 88.956021 30.25577 95.413523 
C 27.013857 101.648816 24.513654 108.242469 22.806291 115.059638 
C 21.140076 121.74243 20.295375 128.603539 20.290909 135.490915 
" clip-path="url(#p379f1615a9)" style="fill: none; stroke: #000000; stroke-width: 0.72; stroke-linejoin: miter"/>
   </g>
  </g>
 </g>
 <defs>
  <clipPath id="p379f1615a9">
   <rect x="7.2" y="7.2" width="288" height="518.400006"/>
  </clipPath>
 </defs>
</svg>
