<?xml version="1.0" encoding="utf-8" standalone="no"?>
<!DOCTYPE svg PUBLIC "-//W3C//DTD SVG 1.1//EN"
  "http://www.w3.org/Graphics/SVG/1.1/DTD/svg11.dtd">
<svg xmlns:xlink="http://www.w3.org/1999/xlink" width="302.4pt" height="485.672733pt" viewBox="0 0 302.4 485.672733" xmlns="http://www.w3.org/2000/svg" version="1.1">
 <metadata>
  <rdf:RDF xmlns:dc="http://purl.org/dc/elements/1.1/" xmlns:cc="http://creativecommons.org/ns#" xmlns:rdf="http://www.w3.org/1999/02/22-rdf-syntax-ns#">
   <cc:Work>
    <dc:type rdf:resource="http://purl.org/dc/dcmitype/StillImage"/>
    <dc:date>2026-02-17T09:28:51.837597</dc:date>
    <dc:format>image/svg+xml</dc:format>
    <dc:creator>
     <cc:Agent>
      <dc:title>Matplotlib v3.10.8, https://matplotlib.org/</dc:title>
     </cc:Agent>
    </dc:creator>
   </cc:Work>
  </rdf:RDF>
 </metadata>
 <defs>
  <style type="text/css">*{stroke-linejoin: round; stroke-linecap: butt}</style>
 </defs>
 <g id="figure_1">
  <g id="patch_1">
   <path d="M 0 485.672733 
L 302.4 485.672733 
L 302.4 0 
L 0 0 
L 0 485.672733 
z
" style="fill: none"/>
  </g>
  <g id="axes_1">
   <g id="patch_2">
    <path d="M 139.299174 266.638022 
L 282.109091 266.638022 
L 282.109091 231.02925 
L 282.109091 302.434209 
" clip-path="url(#pae92859b7f)" style="fill: none; stroke: #000000; stroke-width: 0.72; stroke-linejoin: miter"/>
   </g>
   <g id="line2d_1">
    <path d="M 139.299174 457.051245 
L 139.299174 123.828105 
" clip-path="url(#pae92859b7f)" style="fill: none; stroke: #000000; stroke-width: 0.72; stroke-linecap: square"/>
   </g>
   <g id="line2d_2">
    <path d="M 20.290909 123.828105 
L 258.307438 123.828105 
" clip-path="url(#pae92859b7f)" style="fill: none; stroke: #000000; stroke-width: 0.72; stroke-linecap: square"/>
   </g>
   <g id="patch_3">
    <path d="M 258.307438 123.828105 
C 258.303378 117.566854 257.535468 111.329481 256.020728 105.254216 
C 254.468579 99.05679 252.195667 93.06256 249.248473 87.394112 
C 246.192438 81.523656 242.504751 76.004314 238.250929 70.934146 
C 233.811706 65.642866 228.853546 60.809638 223.450724 56.506864 
C 217.815116 52.01553 211.778317 48.052112 205.416623 44.666701 
C 198.821613 41.15293 191.93822 38.20953 184.841665 35.868665 
C 177.558721 33.461936 170.092519 31.650058 162.516534 30.450862 
C 154.837611 29.231063 147.074375 28.619373 139.299174 28.621493 
C 131.523972 28.619373 123.760736 29.231063 116.081813 30.450862 
C 108.505829 31.650058 101.039626 33.461936 93.756682 35.868665 
C 86.660128 38.20953 79.776734 41.15293 73.181724 44.666701 
C 66.82003 48.052112 60.783231 52.01553 55.147623 56.506864 
C 49.744801 60.809638 44.786641 65.642866 40.347418 70.934146 
C 36.093596 76.004314 32.405909 81.523656 29.349874 87.394112 
C 26.40268 93.06256 24.129768 99.05679 22.57762 105.254216 
C 21.062879 111.329481 20.294969 117.566854 20.290909 123.828105 
" clip-path="url(#pae92859b7f)" style="fill: none; stroke: #000000; stroke-width: 0.72; stroke-linejoin: miter"/>
   </g>
  </g>
 </g>
 <defs>
  <clipPath id="pae92859b7f">
   <rect x="7.2" y="7.2" width="288" height="471.272733"/>
  </clipPath>
 </defs>
</svg>
