<?xml version="1.0" encoding="utf-8" standalone="no"?>
<!DOCTYPE svg PUBLIC "-//W3C//DTD SVG 1.1//EN"
  "http://www.w3.org/Graphics/SVG/1.1/DTD/svg11.dtd">
<svg xmlns:xlink="http://www.w3.org/1999/xlink" width="302.4pt" height="705.599999pt" viewBox="0 0 302.4 705.599999" xmlns="http://www.w3.org/2000/svg" version="1.1">
 <metadata>
  <rdf:RDF xmlns:dc="http://purl.org/dc/elements/1.1/" xmlns:cc="http://creativecommons.org/ns#" xmlns:rdf="http://www.w3.org/1999/02/22-rdf-syntax-ns#">
   <cc:Work>
    <dc:type rdf:resource="http://purl.org/dc/dcmitype/StillImage"/>
    <dc:date>2026-02-17T09:28:52.013094</dc:date>
    <dc:format>image/svg+xml</dc:format>
    <dc:creator>
     <cc:Agent>
      <dc:title>Matplotlib v3.10.8, https://matplotlib.org/</dc:title>
     </cc:Agent>
    </dc:creator>
   </cc:Work>
  </rdf:RDF>
 </metadata>
 <defs>
  <style type="text/css">*{stroke-linejoin: round; stroke-linecap: butt}</style>
 </defs>
 <g id="figure_1">
  <g id="patch_1">
   <path d="M 0 705.599999 
L 302.4 705.599999 
L 302.4 0 
L 0 0 
L 0 705.599999 
z
" style="fill: none"/>
  </g>
  <g id="axes_1">
   <g id="line2d_1">
    <path d="M 151.2 666.981817 
L 151.2 300.436363 
" clip-path="url(#p6eb9541e1c)" style="fill: none; stroke: #000000; stroke-width: 0.72; stroke-linecap: square"/>
   </g>
   <g id="patch_2">
    <path d="M 111.137889 207.460548 
L 111.137889 102.733276 
L 127.825673 102.733276 
L 147.656703 176.885328 
Q 150.399901 187.243755 151.6572 192.38725 
Q 153.085948 186.672256 156.114895 175.599454 
L 176.174526 102.733276 
L 191.090661 102.733276 
L 191.090661 207.460548 
L 180.403621 207.460548 
L 180.403621 119.806821 
L 156.057745 207.460548 
L 146.056505 207.460548 
L 121.824929 118.306635 
L 121.824929 207.460548 
L 111.137889 207.460548 
" clip-path="url(#p6eb9541e1c)"/>
   </g>
   <g id="patch_3">
    <path d="M 282.109091 169.527273 
C 282.109091 241.826367 223.499095 300.436364 151.2 300.436364 
C 78.900905 300.436364 20.290909 241.826367 20.290909 169.527273 
C 20.290909 97.228178 78.900905 38.618182 151.2 38.618182 
C 223.499095 38.618182 282.109091 97.228178 282.109091 169.527273 
" clip-path="url(#p6eb9541e1c)" style="fill: none; stroke: #000000; stroke-width: 0.72; stroke-linejoin: miter"/>
   </g>
  </g>
 </g>
 <defs>
  <clipPath id="p6eb9541e1c">
   <rect x="7.2" y="7.2" width="288" height="691.199999"/>
  </clipPath>
 </defs>
</svg>
