<?xml version="1.0" encoding="UTF-8"?>
<!-- Created with Inkscape (http://www.inkscape.org/) -->
<svg width="39.688mm" height="21.167mm" version="1.1" viewBox="0 0 39.688 21.167" xml:space="preserve" xmlns="http://www.w3.org/2000/svg" xmlns:xlink="http://www.w3.org/1999/xlink"><defs/><g transform="translate(-11.121 -.29084)" fill="none" stroke="#000"><g><path d="m15.86 10.869h5.2275" stroke-width=".15"/><path transform="translate(24.982 .0039141)" d="m15.86 10.869h5.2275" stroke-width=".15"/><path d="m26.921 17.227c3.5244-0.89271 7.0487-1.7854 10.573-2.6781" stroke-width=".3"/><path transform="matrix(1 0 0 -1 -.04849 21.724)" d="m26.921 17.227c3.5244-0.89271 7.0487-1.7854 10.573-2.6781" stroke-width=".3"/></g><circle transform="matrix(.30014 0 0 .30014 23.483 3.3707)" cx="25" cy="25" r="25" pointer-events="all" stroke-width=".99954"/><path d="m24.665 14.756c0.18133-0.14878 0.36266-0.29757 0.53005-0.42543 0.16738-0.12786 0.32082-0.2348 0.47193-0.33012 0.15111-0.09532 0.2999-0.17901 0.45333-0.2627 0.15344-0.08369 0.31152-0.16738 0.49285-0.25108 0.18133-0.08369 0.38591-0.16738 0.57654-0.2348 0.19063-0.06742 0.36731-0.11856 0.5626-0.15808 0.19528-0.03952 0.40916-0.06742 0.60444-0.08602 0.19528-0.0186 0.37196-0.0279 0.60212-0.03022 0.23016-0.0023 0.51377 0.0023 0.77648 0.02325 0.2627 0.02092 0.50447 0.05812 0.75555 0.10926 0.25108 0.05115 0.51145 0.11624 0.75788 0.19993 0.24643 0.08369 0.4789 0.18598 0.72035 0.30755 0.24144 0.12157 0.49185 0.26241 0.71404 0.40024 0.2222 0.13782 0.41617 0.27262 0.58384 0.39591 0.16768 0.12329 0.30904 0.23507 0.44384 0.35507 0.1348 0.12 0.26302 0.24822 0.36329 0.35014s0.1726 0.17754 0.24494 0.25315" stroke-width=".3"/><path transform="matrix(1 0 0 -1 0 21.684)" d="m24.665 14.756c0.18133-0.14878 0.36266-0.29757 0.53005-0.42543 0.16738-0.12786 0.32082-0.2348 0.47193-0.33012 0.15111-0.09532 0.2999-0.17901 0.45333-0.2627 0.15344-0.08369 0.31152-0.16738 0.49285-0.25108 0.18133-0.08369 0.38591-0.16738 0.57654-0.2348 0.19063-0.06742 0.36731-0.11856 0.5626-0.15808 0.19528-0.03952 0.40916-0.06742 0.60444-0.08602 0.19528-0.0186 0.37196-0.0279 0.60212-0.03022 0.23016-0.0023 0.51377 0.0023 0.77648 0.02325 0.2627 0.02092 0.50447 0.05812 0.75555 0.10926 0.25108 0.05115 0.51145 0.11624 0.75788 0.19993 0.24643 0.08369 0.4789 0.18598 0.72035 0.30755 0.24144 0.12157 0.49185 0.26241 0.71404 0.40024 0.2222 0.13782 0.41617 0.27262 0.58384 0.39591 0.16768 0.12329 0.30904 0.23507 0.44384 0.35507 0.1348 0.12 0.26302 0.24822 0.36329 0.35014s0.1726 0.17754 0.24494 0.25315" stroke-width=".3"/></g></svg>
