<?xml version="1.0" encoding="UTF-8"?>
<!-- Created with Inkscape (http://www.inkscape.org/) -->
<svg width="39.688mm" height="21.167mm" version="1.1" viewBox="0 0 39.688 21.167" xml:space="preserve" xmlns="http://www.w3.org/2000/svg" xmlns:xlink="http://www.w3.org/1999/xlink"><defs/><g transform="translate(-11.121 -.29084)" fill="none" stroke="#000"><g><path d="m15.86 10.869h5.2275" stroke-width=".15"/><path transform="translate(24.982 .0039141)" d="m15.86 10.869h5.2275" stroke-width=".15"/><path d="m26.921 17.227c3.5244-0.89271 7.0487-1.7854 10.573-2.6781" stroke-width=".3"/><path transform="matrix(1 0 0 -1 -.04849 21.724)" d="m26.921 17.227c3.5244-0.89271 7.0487-1.7854 10.573-2.6781" stroke-width=".3"/></g><g pointer-events="all"><circle transform="matrix(.30014 0 0 .30014 23.483 3.3707)" cx="25" cy="25" r="25" stroke-width=".99954"/><path transform="matrix(.26458 0 0 .26458 .86337 -34.349)" d="m104.59 161.35c-8.3295 6.7144-4.6762 16.17 0 18.933" stroke-miterlimit="10" stroke-width="1.1339"/><path transform="matrix(.26458 0 0 .26458 .86337 -34.349)" d="m99.704 170.8h28.431m-5.3038-9.4667c8.3295 6.7144 4.6762 16.17 0 18.933" stroke-miterlimit="10" stroke-width="1.1339"/></g></g></svg>
