<?xml version="1.0" encoding="UTF-8"?>
<!-- Created with Inkscape (http://www.inkscape.org/) -->
<svg width="39.688mm" height="21.167mm" version="1.1" viewBox="0 0 39.688 21.167" xml:space="preserve" xmlns="http://www.w3.org/2000/svg" xmlns:xlink="http://www.w3.org/1999/xlink"><defs/><g transform="translate(-11.121 -.29084)" fill="none" stroke="#000"><g><path d="m15.86 10.869h5.2275" stroke-width=".15"/><path transform="translate(24.982 .0039141)" d="m15.86 10.869h5.2275" stroke-width=".15"/><path d="m26.921 17.227c3.5244-0.89271 7.0487-1.7854 10.573-2.6781" stroke-width=".3"/><path transform="matrix(1 0 0 -1 -.04849 21.724)" d="m26.921 17.227c3.5244-0.89271 7.0487-1.7854 10.573-2.6781" stroke-width=".3"/></g><circle transform="matrix(.30014 0 0 .30014 23.483 3.3707)" cx="25" cy="25" r="25" pointer-events="all" stroke-width=".99954"/><circle cx="31.002" cy="10.868" r="3.7247" stroke-linecap="round" stroke-width=".3"/><path d="m27.04 17.256c-0.08548-0.35179-0.17096-0.70357-0.24822-1.006-0.07726-0.30247-0.1463-0.55562-0.2137-0.83837-0.0674-0.28275-0.13315-0.59508-0.1874-0.88275-0.05425-0.28768-0.09699-0.55069-0.13808-0.8433-0.0411-0.29261-0.08055-0.6148-0.11178-0.92549-0.03123-0.31069-0.05425-0.60987-0.06904-0.89591s-0.02137-0.55891-0.02301-0.87454c-0.0016-0.31563 0.0017-0.67398 0.0066-0.97974 0.0049-0.30576 0.01151-0.55891 0.03782-0.83344 0.0263-0.27453 0.07233-0.57042 0.11672-0.86303 0.04438-0.29261 0.08713-0.58192 0.12987-0.84001 0.04274-0.25809 0.08548-0.48494 0.13808-0.75125 0.0526-0.26631 0.11507-0.57206 0.19726-0.91563 0.08219-0.34357 0.18411-0.72494 0.24822-0.95672 0.06411-0.23179 0.09041-0.31398 0.11672-0.39617" stroke-width=".3"/></g></svg>
