<?xml version="1.0" encoding="UTF-8"?>
<!-- Created with Inkscape (http://www.inkscape.org/) -->
<svg width="39.688mm" height="21.167mm" version="1.1" viewBox="0 0 39.688 21.167" xml:space="preserve" xmlns="http://www.w3.org/2000/svg" xmlns:xlink="http://www.w3.org/1999/xlink"><defs/><g transform="translate(-11.121 -.29084)" fill="none" stroke="#000"><g><path d="m15.86 10.869h5.2275" stroke-width=".15"/><path transform="translate(24.982 .0039141)" d="m15.86 10.869h5.2275" stroke-width=".15"/><path d="m26.921 17.227c3.5244-0.89271 7.0487-1.7854 10.573-2.6781" stroke-width=".3"/><path transform="matrix(1 0 0 -1 -.04849 21.724)" d="m26.921 17.227c3.5244-0.89271 7.0487-1.7854 10.573-2.6781" stroke-width=".3"/></g><circle transform="matrix(.30014 0 0 .30014 23.483 3.3707)" cx="25" cy="25" r="25" pointer-events="all" stroke-width=".99954"/><circle cx="30.976" cy="10.844" r="2.1505" stroke-linecap="round" stroke-width=".3"/><g stroke-width=".3"><path d="m29.023 7.4811c0.2959 0.5096 0.59179 1.0192 0.88769 1.5288"/><path transform="translate(3.0088 5.1971)" d="m29.023 7.4811c0.2959 0.5096 0.59179 1.0192 0.88769 1.5288"/><path transform="matrix(-1 0 0 1 61.965 -.015498)" d="m29.023 7.4811c0.2959 0.5096 0.59179 1.0192 0.88769 1.5288"/><path transform="matrix(-1 0 0 1 58.917 5.2284)" d="m29.023 7.4811c0.2959 0.5096 0.59179 1.0192 0.88769 1.5288"/><path transform="matrix(-.49667 -.86794 -.86794 .49667 55.806 32.343)" d="m29.023 7.4811c0.2959 0.5096 0.59179 1.0192 0.88769 1.5288"/><path transform="matrix(-.49667 -.86794 -.86794 .49667 49.825 32.342)" d="m29.023 7.4811c0.2959 0.5096 0.59179 1.0192 0.88769 1.5288"/></g></g></svg>
