<svg width="140" height="20" viewBox="0 0 37.042 5.292" xml:space="preserve" xmlns="http://www.w3.org/2000/svg"><path style="fill:none;stroke:#000;stroke-width:.3;stroke-linecap:butt;stroke-linejoin:miter;stroke-dasharray:none;stroke-opacity:1" d="M19.904 2.383h10.198" transform="translate(-13.995 1.5)"/><path style="fill:none;stroke:#000;stroke-width:.3;stroke-linecap:butt;stroke-linejoin:miter;stroke-dasharray:none;stroke-opacity:1" d="M19.904 2.383h10.198" transform="translate(1.03 1.513)"/><path style="fill:none;stroke:#000;stroke-width:.3;stroke-linecap:butt;stroke-linejoin:miter;stroke-dasharray:none;stroke-opacity:1" d="M27.445 1.202c.358-.149.716-.298 1.02-.421.305-.123.556-.22.781-.3.226-.079.426-.14.651-.2a10.525 10.525 0 0 1 1.43-.284c.218-.027.414-.046.632-.055.219-.01.46-.01.735-.003.274.007.581.021.862.042.282.021.537.05.788.091.252.042.498.098.74.16a10.932 10.932 0 0 1 1.383.458c.22.089.44.182.64.27.2.088.38.172.562.256" transform="translate(-13.995 1.461)"/></svg>