<?xml version="1.0" encoding="UTF-8" standalone="no"?>
<!-- Created with Inkscape (http://www.inkscape.org/) -->

<svg
   xmlns:dc="http://purl.org/dc/elements/1.1/"
   xmlns:cc="http://creativecommons.org/ns#"
   xmlns:rdf="http://www.w3.org/1999/02/22-rdf-syntax-ns#"
   xmlns:svg="http://www.w3.org/2000/svg"
   xmlns="http://www.w3.org/2000/svg"
   xmlns:sodipodi="http://sodipodi.sourceforge.net/DTD/sodipodi-0.dtd"
   xmlns:inkscape="http://www.inkscape.org/namespaces/inkscape"
   width="71"
   height="71"
   id="svg2"
   version="1.1"
   inkscape:version="0.48.2 r9819"
   sodipodi:docname="P&amp;ID 2062.svg">
  <defs
     id="defs4" />
  <sodipodi:namedview
     id="base"
     pagecolor="#ffffff"
     bordercolor="#666666"
     borderopacity="1.0"
     inkscape:pageopacity="0.0"
     inkscape:pageshadow="2"
     inkscape:zoom="5.6"
     inkscape:cx="47.994458"
     inkscape:cy="31.209056"
     inkscape:document-units="px"
     inkscape:current-layer="layer1"
     showgrid="false"
     fit-margin-top="50"
     fit-margin-left="50"
     fit-margin-right="50"
     fit-margin-bottom="50"
     inkscape:window-width="1366"
     inkscape:window-height="712"
     inkscape:window-x="-4"
     inkscape:window-y="-4"
     inkscape:window-maximized="1" />
  <metadata
     id="metadata7">
    <rdf:RDF>
      <cc:Work
         rdf:about="">
        <dc:format>image/svg+xml</dc:format>
        <dc:type
           rdf:resource="http://purl.org/dc/dcmitype/StillImage" />
        <dc:title />
      </cc:Work>
    </rdf:RDF>
  </metadata>
  <g
     inkscape:label="Livello 1"
     inkscape:groupmode="layer"
     id="layer1"
     transform="translate(-285.88438,-568.80842)">
    <path
       style="fill:#ffffff;fill-opacity:1;stroke:none"
       d="m 314.03641,628.6824 c -2.50698,-0.65448 -5.45835,-1.9741 -6.82892,-3.05337 -0.60408,-0.47568 -0.6388,-1.86499 -0.55013,-22.01273 l 0.0946,-21.50499 1.77813,-1.18335 c 3.62487,-2.41237 10.67871,-3.77605 15.89738,-3.07336 3.76353,0.50677 7.21996,1.59741 9.37232,2.95732 l 1.74206,1.1007 0,21.53687 0,21.53686 -1.19193,0.8885 c -1.89265,1.41082 -3.33484,2.0239 -6.5876,2.80044 -4.01393,0.95824 -10.07064,0.96139 -13.72595,0.007 l 0,0 z"
       id="path3768"
       inkscape:connector-curvature="0" />
    <path
       style="fill:none;stroke:#000000;stroke-width:1.00144088;stroke-linecap:butt;stroke-linejoin:miter;stroke-miterlimit:4;stroke-opacity:1;stroke-dasharray:none"
       d="m 306.40194,581.8077 c 0,43.41735 0,43.41735 0,43.41735"
       id="path3471-8-15"
       inkscape:connector-curvature="0" />
    <path
       style="fill:none;stroke:#000000;stroke-width:1;stroke-linecap:butt;stroke-linejoin:miter;stroke-miterlimit:4;stroke-opacity:1;stroke-dasharray:none"
       d="m 335.82794,581.8742 c 0,43.29231 0,43.29231 0,43.29231"
       id="path3471-7-45-7"
       inkscape:connector-curvature="0" />
    <path
       sodipodi:type="arc"
       style="fill:none;stroke:#000000;stroke-width:1.85160232;stroke-miterlimit:4;stroke-opacity:1;stroke-dasharray:none"
       id="path4684-8"
       sodipodi:cx="-850.17859"
       sodipodi:cy="643.61218"
       sodipodi:rx="38.75"
       sodipodi:ry="14.107142"
       d="m -883.73707,636.55861 a 38.75,14.107142 0 0 1 67.11696,0"
       sodipodi:start="3.6651914"
       sodipodi:end="5.7595865"
       transform="matrix(0.44218501,0,0,-0.66507637,697.1257,1048.3035)"
       sodipodi:open="true" />
    <path
       sodipodi:type="arc"
       style="fill:none;stroke:#000000;stroke-width:1.85160232;stroke-miterlimit:4;stroke-opacity:1;stroke-dasharray:none"
       id="path4684-8-2"
       sodipodi:cx="-850.17859"
       sodipodi:cy="643.61218"
       sodipodi:rx="38.75"
       sodipodi:ry="14.107142"
       d="m -883.73707,636.55861 a 38.75,14.107142 0 0 1 67.11696,0"
       sodipodi:start="3.6651914"
       sodipodi:end="5.7595865"
       transform="matrix(0.44428132,0,0,0.66507637,698.87026,158.8133)"
       sodipodi:open="true" />
  </g>
</svg>
