<?xml version="1.0" encoding="UTF-8" standalone="no"?>
<!-- Created with Inkscape (http://www.inkscape.org/) -->

<svg
   width="58.208332mm"
   height="58.208336mm"
   viewBox="0 0 58.208332 58.208336"
   version="1.1"
   id="svg2031"
   xmlns="http://www.w3.org/2000/svg"
   xmlns:svg="http://www.w3.org/2000/svg">
  <defs
     id="defs2028" />
  <g
     id="layer1"
     transform="translate(-150.13561,-84.799062)">
    <g
       id="g12497"
       transform="translate(-288.26001,-33.096991)">
      <path
         id="path4392"
         d="m 467.49979,164.50021 v 5.00002"
         style="fill:none;stroke:#000000;stroke-width:0.25;stroke-linecap:round;stroke-linejoin:round;stroke-miterlimit:4;stroke-dasharray:none;stroke-opacity:1" />
      <path
         id="path4394"
         d="m 454.99979,137.00021 h -5.00001"
         style="fill:none;stroke:#000000;stroke-width:0.25;stroke-linecap:round;stroke-linejoin:round;stroke-miterlimit:4;stroke-dasharray:none;stroke-opacity:1" />
      <path
         id="path4402"
         d="m 457.49979,147.00019 v 12.5 c 0,0 2.49999,2.5 10,2.5 7.49999,0 9.99998,-2.5 9.99998,-2.5 v -12.5"
         style="opacity:1;fill:none;fill-opacity:1;stroke:#000000;stroke-width:0.5;stroke-linecap:round;stroke-linejoin:round;stroke-miterlimit:4;stroke-dasharray:none;stroke-dashoffset:0;stroke-opacity:1;paint-order:normal" />
      <path
         style="opacity:1;fill:none;fill-opacity:1;stroke:#000000;stroke-width:0.5;stroke-linecap:round;stroke-linejoin:round;stroke-miterlimit:4;stroke-dasharray:none;stroke-dashoffset:0;stroke-opacity:1;paint-order:normal"
         d="m 457.49979,147.00019 v -12.5 c 0,0 2.50102,-2.375 10,-2.49999 7.49999,-0.12499 9.99998,2.49999 9.99998,2.49999 v 12.5"
         id="path4404" />
      <path
         style="fill:none;stroke:#000000;stroke-width:0.25;stroke-linecap:round;stroke-linejoin:round;stroke-miterlimit:4;stroke-dasharray:none;stroke-opacity:1"
         d="m 467.49979,129.5002 v -4.99999"
         id="path4406" />
      <path
         style="fill:none;stroke:#000000;stroke-width:0.25;stroke-linecap:round;stroke-linejoin:round;stroke-miterlimit:4;stroke-dasharray:none;stroke-opacity:1"
         d="M 484.99979,157.0002 H 479.9998"
         id="path4408" />
      <path
         style="opacity:1;fill:none;fill-opacity:1;stroke:#000000;stroke-width:0.5;stroke-linecap:round;stroke-linejoin:round;stroke-miterlimit:4;stroke-dasharray:4, 4;stroke-dashoffset:0;stroke-opacity:1;paint-order:normal"
         d="M 457.49979,138.25021 H 477.4998"
         id="path4410" />
      <path
         id="path4412"
         d="M 457.49979,155.7502 H 477.4998"
         style="opacity:1;fill:none;fill-opacity:1;stroke:#000000;stroke-width:0.5;stroke-linecap:round;stroke-linejoin:round;stroke-miterlimit:4;stroke-dasharray:none;stroke-dashoffset:0;stroke-opacity:1;paint-order:normal" />
      <path
         id="path4610"
         style="opacity:1;fill:none;fill-opacity:1;stroke:#000000;stroke-width:0.75;stroke-linecap:round;stroke-linejoin:round;stroke-miterlimit:4;stroke-dasharray:none;stroke-dashoffset:0;stroke-opacity:1;paint-order:normal"
         d="m 474.99978,154.5002 v 0 m -12.5,0 v 0 m 2.49999,0 v 0 m 2.5,0 h 2e-5 m 2.49997,0 h 3e-5 m 2.49999,0 v 0 m -12.5,0 v 0 m 16.25,-1.24999 v 0 m -2.5,0 h 3e-5 m -12.50003,0 h 3e-5 m 2.49996,0 h 3e-5 m 2.5,0 v 0 m 2.49999,0 v 0 m 2.5,0 v 0 m -12.50001,0 v 0 m 16.25,-1.25 v 0 m -12.5,0 v 0 m 2.49999,0 v 0 m 2.5,0 h 2e-5 m 2.49997,0 h 3e-5 m 2.49999,0 v 0 m -12.5,0 v 0 m 16.25,-1.25 v 0 m -2.5,0 h 3e-5 m -12.50003,0 h 3e-5 m 2.49996,0 h 3e-5 m 2.5,0 v 0 m 2.49999,0 v 0 m 2.5,0 v 0 m -12.50001,0 v 0 m 16.25,-1.25 v 0 m -12.5,0 v 0 m 2.49999,0 v 0 m 2.5,0 h 2e-5 m 2.49997,0 h 3e-5 m 2.49999,0 v 0 m -12.5,0 v 0 m 16.25,-1.25002 v 0 m -2.5,0 h 3e-5 m -12.50003,0 h 3e-5 m 2.49996,0 h 3e-5 m 2.5,0 v 0 m 2.49999,0 v 0 m 2.5,0 v 0 m -12.50001,0 v 0 m 16.25,-1.24997 v -3e-5 m -12.5,3e-5 v -3e-5 m 2.49999,3e-5 v -3e-5 m 2.5,3e-5 2e-5,-3e-5 m 2.49997,3e-5 3e-5,-3e-5 m 2.49999,3e-5 v -3e-5 m -12.5,3e-5 v -3e-5 m 16.25,-1.24999 v 0 m -2.5,0 h 3e-5 m -12.50003,0 h 3e-5 m 2.49996,0 h 3e-5 m 2.5,0 v 0 m 2.49999,0 v 0 m 2.5,0 v 0 m -12.50001,0 v 0 m 16.25,-1.25 v 0 m -12.5,0 v 0 m 2.49999,0 v 0 m 2.5,0 h 2e-5 m 2.49997,0 h 3e-5 m 2.49999,0 v 0 m -12.5,0 v 0 m 16.25,-1.25 v 0 m -2.5,0 h 3e-5 m -12.50003,0 h 3e-5 m 2.49996,0 h 3e-5 m 2.5,0 v 0 m 2.49999,0 v 0 m 2.5,0 v 0 m -12.50001,0 v 0 m 16.25,-1.25 v 0 m -12.5,0 v 0 m 2.49999,0 v 0 m 2.5,0 h 2e-5 m 2.49997,0 h 3e-5 m 2.49999,0 v 0 m -12.5,0 v 0 m 16.25,-1.24999 v 0 m -2.5,0 h 3e-5 m -12.50003,0 h 3e-5 m 2.49996,0 h 3e-5 m 2.5,0 v 0 m 2.49999,0 v 0 m 2.5,0 v 0 m -12.50001,0 v 0 m 16.25,-1.25 v 0 m -12.5,0 v 0 m 2.49999,0 v 0 m 2.5,0 h 2e-5 m 2.49997,0 h 3e-5 m 2.49999,0 v 0 m -12.5,0 v 0" />
    </g>
  </g>
</svg>
