<?xml version="1.0" encoding="UTF-8" standalone="no"?>
<!-- Created with Inkscape (http://www.inkscape.org/) -->

<svg
   xmlns:dc="http://purl.org/dc/elements/1.1/"
   xmlns:cc="http://creativecommons.org/ns#"
   xmlns:rdf="http://www.w3.org/1999/02/22-rdf-syntax-ns#"
   xmlns:svg="http://www.w3.org/2000/svg"
   xmlns="http://www.w3.org/2000/svg"
   xmlns:sodipodi="http://sodipodi.sourceforge.net/DTD/sodipodi-0.dtd"
   xmlns:inkscape="http://www.inkscape.org/namespaces/inkscape"
   width="71"
   height="71"
   id="svg2"
   version="1.1"
   inkscape:version="0.48.2 r9819"
   sodipodi:docname="P&amp;ID X8016.svg">
  <defs
     id="defs4" />
  <sodipodi:namedview
     id="base"
     pagecolor="#ffffff"
     bordercolor="#666666"
     borderopacity="1.0"
     inkscape:pageopacity="0.0"
     inkscape:pageshadow="2"
     inkscape:zoom="3.959798"
     inkscape:cx="-6.4768231"
     inkscape:cy="35.941628"
     inkscape:document-units="px"
     inkscape:current-layer="layer1"
     showgrid="false"
     fit-margin-top="50"
     fit-margin-left="50"
     fit-margin-right="50"
     fit-margin-bottom="50"
     inkscape:window-width="1366"
     inkscape:window-height="712"
     inkscape:window-x="-4"
     inkscape:window-y="-4"
     inkscape:window-maximized="1" />
  <metadata
     id="metadata7">
    <rdf:RDF>
      <cc:Work
         rdf:about="">
        <dc:format>image/svg+xml</dc:format>
        <dc:type
           rdf:resource="http://purl.org/dc/dcmitype/StillImage" />
        <dc:title />
      </cc:Work>
    </rdf:RDF>
  </metadata>
  <g
     inkscape:label="Livello 1"
     inkscape:groupmode="layer"
     id="layer1"
     transform="translate(-285.88438,-568.80842)">
    <path
       style="opacity:1;fill:#ffffff;fill-opacity:1;stroke:none"
       d="m 318.06406,628.05331 c -4.0842,-0.39432 -8.33914,-1.61965 -11.04531,-3.18081 l -1.25832,-0.72591 0,-20.32203 0,-20.32204 0.79228,-0.49023 c 4.07171,-2.51944 10.66203,-3.82448 17.75638,-3.5162 5.47448,0.2379 10.19956,1.43084 13.38339,3.37892 l 1.06405,0.65105 -0.001,20.27283 -0.001,20.27281 -0.60459,0.38318 c -2.64959,1.67926 -6.2229,2.8614 -10.40804,3.44327 -1.76233,0.245 -7.75196,0.34105 -9.6773,0.15516 l 6e-5,0 z"
       id="path3020"
       inkscape:connector-curvature="0" />
    <path
       style="fill:none;stroke:#000000;stroke-width:1.00694716;stroke-linecap:butt;stroke-linejoin:miter;stroke-miterlimit:4;stroke-opacity:1;stroke-dasharray:none"
       d="m 305.84995,583.53122 c 0,40.58141 0,40.58141 0,40.58141"
       id="path3471-8-6-61-9-1-3-98-4"
       inkscape:connector-curvature="0" />
    <path
       style="fill:none;stroke:#000000;stroke-width:1.00694716;stroke-linecap:butt;stroke-linejoin:miter;stroke-miterlimit:4;stroke-opacity:1;stroke-dasharray:none"
       d="m 338.57495,583.5934 c 0,40.58163 0,40.58163 0,40.58163"
       id="path3471-7-45-4-89-5-2-3-6-0"
       inkscape:connector-curvature="0" />
    <path
       sodipodi:type="arc"
       style="fill:none;stroke:#000000;stroke-width:1.76297057;stroke-miterlimit:4;stroke-opacity:1;stroke-dasharray:none"
       id="path4684-8-3-9"
       sodipodi:cx="-850.17859"
       sodipodi:cy="643.61218"
       sodipodi:rx="38.75"
       sodipodi:ry="14.107142"
       d="m -883.73707,636.55861 c 10.70051,-6.74734 34.39964,-9.05915 52.93348,-5.16357 5.89074,1.23816 10.78246,3.01901 14.18348,5.16357"
       sodipodi:start="3.6651914"
       sodipodi:end="5.7595865"
       transform="matrix(0.49373302,0,0,-0.64218946,741.95101,1032.7461)"
       sodipodi:open="true" />
    <path
       sodipodi:type="arc"
       style="fill:none;stroke:#000000;stroke-width:1.76297057;stroke-miterlimit:4;stroke-opacity:1;stroke-dasharray:none"
       id="path4684-8-5-4"
       sodipodi:cx="-850.17859"
       sodipodi:cy="643.61218"
       sodipodi:rx="38.75"
       sodipodi:ry="14.107142"
       d="m -883.73707,636.55861 c 10.70051,-6.74734 34.39964,-9.05915 52.93348,-5.16357 5.89074,1.23816 10.78246,3.01901 14.18348,5.16357"
       sodipodi:start="3.6651914"
       sodipodi:end="5.7595865"
       transform="matrix(0.49531993,0,0,0.64218946,743.31048,175.14997)"
       sodipodi:open="true" />
    <path
       style="fill:none;stroke:#000000;stroke-width:1;stroke-linecap:butt;stroke-linejoin:miter;stroke-miterlimit:4;stroke-opacity:1;stroke-dasharray:8, 4;stroke-dashoffset:0"
       d="m 306.02336,620.45852 c 32.6216,0 32.6216,0 32.6216,0"
       id="path3471-8-6-61-9-1-3-0-1-8-7"
       inkscape:connector-curvature="0" />
    <path
       style="fill:none;stroke:#000000;stroke-width:1;stroke-linecap:butt;stroke-linejoin:miter;stroke-miterlimit:4;stroke-opacity:1;stroke-dasharray:8, 4;stroke-dashoffset:0"
       d="m 306.10876,586.9324 c 32.6216,0 32.6216,0 32.6216,0"
       id="path3471-7-45-4-89-5-2-3-9-7-6-40"
       inkscape:connector-curvature="0" />
    <path
       style="fill:none;stroke:#000000;stroke-width:1;stroke-linecap:butt;stroke-linejoin:miter;stroke-miterlimit:4;stroke-opacity:1;stroke-dasharray:8, 4;stroke-dashoffset:0"
       d="m 306.09315,598.13575 c 32.6216,0 32.6216,0 32.6216,0"
       id="path3471-7-45-4-89-5-2-3-9-7-6-3-9"
       inkscape:connector-curvature="0" />
    <path
       style="fill:none;stroke:#000000;stroke-width:1;stroke-linecap:butt;stroke-linejoin:miter;stroke-miterlimit:4;stroke-opacity:1;stroke-dasharray:8, 4;stroke-dashoffset:0"
       d="m 306.27172,609.92146 c 32.6216,0 32.6216,0 32.6216,0"
       id="path3471-7-45-4-89-5-2-3-9-7-6-4-4"
       inkscape:connector-curvature="0" />
    <path
       style="fill:none;stroke:#000000;stroke-width:1;stroke-linecap:butt;stroke-linejoin:miter;stroke-miterlimit:4;stroke-opacity:1;stroke-dasharray:none"
       d="m 322.3459,604.02861 c -16.73947,0 -16.73947,0 -16.73947,0"
       id="path3471-7-45-4-89-5-2-3-6-0-0-9-88"
       inkscape:connector-curvature="0" />
    <path
       style="fill:none;stroke:#000000;stroke-width:1;stroke-linecap:butt;stroke-linejoin:miter;stroke-miterlimit:4;stroke-opacity:1;stroke-dasharray:none"
       d="m 337.98376,587.17063 c -32.23104,10.30333 -32.23104,10.30333 -32.23104,10.30333"
       id="path3471-8-6-61-9-1-3-98-4-5-5-2"
       inkscape:connector-curvature="0" />
    <path
       style="fill:none;stroke:#000000;stroke-width:1;stroke-linecap:butt;stroke-linejoin:miter;stroke-miterlimit:4;stroke-opacity:1;stroke-dasharray:none"
       d="m 338.34088,609.94837 c -32.231,10.30333 -32.231,10.30333 -32.231,10.30333"
       id="path3471-8-6-61-9-1-3-98-4-5-5-1-4"
       inkscape:connector-curvature="0" />
    <path
       style="fill:none;stroke:#000000;stroke-width:1;stroke-linecap:butt;stroke-linejoin:miter;stroke-miterlimit:4;stroke-opacity:1;stroke-dasharray:none"
       d="m 306.10988,587.09123 c 32.231,10.30333 32.231,10.30333 32.231,10.30333"
       id="path3471-8-6-61-9-1-3-98-4-5-5-0-5"
       inkscape:connector-curvature="0" />
    <path
       style="fill:none;stroke:#000000;stroke-width:1;stroke-linecap:butt;stroke-linejoin:miter;stroke-miterlimit:4;stroke-opacity:1;stroke-dasharray:none"
       d="m 305.75274,610.12695 c 32.231,10.30333 32.231,10.30333 32.231,10.30333"
       id="path3471-8-6-61-9-1-3-98-4-5-5-0-9-5"
       inkscape:connector-curvature="0" />
    <path
       style="fill:none;stroke:#000000;stroke-width:1;stroke-linecap:butt;stroke-linejoin:miter;stroke-miterlimit:4;stroke-opacity:1;stroke-dasharray:none"
       d="m 322.40395,608.4698 c 0,-4.66536 0,-4.66536 0,-4.66536"
       id="path3471-7-45-4-89-5-2-3-6-0-0-9-8-1"
       inkscape:connector-curvature="0" />
    <path
       style="fill:none;stroke:#000000;stroke-width:1;stroke-linecap:butt;stroke-linejoin:miter;stroke-miterlimit:4;stroke-opacity:1;stroke-dasharray:none"
       d="m 326.73196,608.17807 c -4.37033,-4.37033 -4.37033,-4.37033 -4.37033,-4.37033"
       id="path3471-7-45-4-89-5-2-3-6-0-0-9-8-3-7"
       inkscape:connector-curvature="0" />
    <path
       style="fill:none;stroke:#000000;stroke-width:1;stroke-linecap:butt;stroke-linejoin:miter;stroke-miterlimit:4;stroke-opacity:1;stroke-dasharray:none"
       d="m 317.93309,608.2852 c 4.3703,-4.37033 4.3703,-4.37033 4.3703,-4.37033"
       id="path3471-7-45-4-89-5-2-3-6-0-0-9-8-3-4-1"
       inkscape:connector-curvature="0" />
  </g>
</svg>
