<?xml version="1.0" encoding="UTF-8" standalone="no"?>
<!-- Created with Inkscape (http://www.inkscape.org/) -->

<svg
   xmlns:dc="http://purl.org/dc/elements/1.1/"
   xmlns:cc="http://creativecommons.org/ns#"
   xmlns:rdf="http://www.w3.org/1999/02/22-rdf-syntax-ns#"
   xmlns:svg="http://www.w3.org/2000/svg"
   xmlns="http://www.w3.org/2000/svg"
   xmlns:sodipodi="http://sodipodi.sourceforge.net/DTD/sodipodi-0.dtd"
   xmlns:inkscape="http://www.inkscape.org/namespaces/inkscape"
   width="71"
   height="91"
   id="svg2"
   version="1.1"
   inkscape:version="0.48.2 r9819"
   sodipodi:docname="P&amp;ID X8011.svg">
  <defs
     id="defs4" />
  <sodipodi:namedview
     id="base"
     pagecolor="#ffffff"
     bordercolor="#666666"
     borderopacity="1.0"
     inkscape:pageopacity="0.0"
     inkscape:pageshadow="2"
     inkscape:zoom="3.959798"
     inkscape:cx="19.194099"
     inkscape:cy="48.304829"
     inkscape:document-units="px"
     inkscape:current-layer="layer1"
     showgrid="false"
     fit-margin-top="50"
     fit-margin-left="50"
     fit-margin-right="50"
     fit-margin-bottom="50"
     inkscape:window-width="1366"
     inkscape:window-height="712"
     inkscape:window-x="-4"
     inkscape:window-y="-4"
     inkscape:window-maximized="1" />
  <metadata
     id="metadata7">
    <rdf:RDF>
      <cc:Work
         rdf:about="">
        <dc:format>image/svg+xml</dc:format>
        <dc:type
           rdf:resource="http://purl.org/dc/dcmitype/StillImage" />
        <dc:title />
      </cc:Work>
    </rdf:RDF>
  </metadata>
  <g
     inkscape:label="Livello 1"
     inkscape:groupmode="layer"
     id="layer1"
     transform="translate(-285.88438,-548.80842)">
    <path
       style="fill:#ffffff;fill-opacity:1;stroke:none"
       d="m 315.91215,631.67517 c -4.20624,-0.71889 -9.43992,-2.5441 -10.32153,-3.59954 -0.25798,-0.30887 -0.31186,-7.25859 -0.25964,-33.49788 l 0.0659,-33.10817 2.19899,-1.07145 c 4.00836,-1.95306 10.80404,-3.13633 16.1278,-2.80821 5.05068,0.31131 10.43827,1.64656 13.02434,3.22793 l 1.23327,0.75416 0,33.26473 0,33.26472 -1.20222,0.69194 c -1.56213,0.89908 -4.08983,1.79698 -6.84651,2.43207 -2.54214,0.58566 -11.53684,0.87416 -14.02038,0.4497 z"
       id="path3098"
       inkscape:connector-curvature="0" />
    <path
       style="fill:none;stroke:#000000;stroke-width:1.02288461;stroke-linecap:butt;stroke-linejoin:miter;stroke-miterlimit:4;stroke-opacity:1;stroke-dasharray:8.18307727, 4.09153863;stroke-dashoffset:0"
       d="m 305.18144,624.15005 c 34.13175,0 34.13175,0 34.13175,0"
       id="path3471-8-6-61-9-1-3-0-1-3"
       inkscape:connector-curvature="0" />
    <path
       style="fill:none;stroke:#000000;stroke-width:1.02288461;stroke-linecap:butt;stroke-linejoin:miter;stroke-miterlimit:4;stroke-opacity:1;stroke-dasharray:8.18307727, 4.09153863;stroke-dashoffset:0"
       d="m 305.18144,565.44536 c 34.13175,0 34.13175,0 34.13175,0"
       id="path3471-7-45-4-89-5-2-3-9-7-12"
       inkscape:connector-curvature="0" />
    <path
       style="fill:none;stroke:#000000;stroke-width:1;stroke-linecap:butt;stroke-linejoin:miter;stroke-miterlimit:4;stroke-opacity:1;stroke-dasharray:none"
       d="m 304.86187,561.28822 c 0,66.41656 0,66.41656 0,66.41656"
       id="path3471-8-6-61-9-1-3-98-4-3"
       inkscape:connector-curvature="0" />
    <path
       style="fill:none;stroke:#000000;stroke-width:1;stroke-linecap:butt;stroke-linejoin:miter;stroke-miterlimit:4;stroke-opacity:1;stroke-dasharray:none"
       d="m 337.94401,561.39002 c 0,66.41694 0,66.41694 0,66.41694"
       id="path3471-7-45-4-89-5-2-3-6-0-3"
       inkscape:connector-curvature="0" />
    <path
       sodipodi:type="arc"
       style="fill:none;stroke:#000000;stroke-width:1.76297057;stroke-miterlimit:4;stroke-opacity:1;stroke-dasharray:none"
       id="path4684-8-3-9-4"
       sodipodi:cx="-850.17859"
       sodipodi:cy="643.61218"
       sodipodi:rx="38.75"
       sodipodi:ry="14.107142"
       d="m -883.73707,636.55861 a 38.75,14.107142 0 0 1 67.11696,0"
       sodipodi:start="3.6651914"
       sodipodi:end="5.7595865"
       transform="matrix(0.50101039,0,0,-0.64218946,747.44057,1036.4111)"
       sodipodi:open="true" />
    <path
       sodipodi:type="arc"
       style="fill:none;stroke:#000000;stroke-width:1.76297057;stroke-miterlimit:4;stroke-opacity:1;stroke-dasharray:none"
       id="path4684-8-5-4-1"
       sodipodi:cx="-850.17859"
       sodipodi:cy="643.61218"
       sodipodi:rx="38.75"
       sodipodi:ry="14.107142"
       d="m -883.73707,636.55861 a 38.75,14.107142 0 0 1 67.11696,0"
       sodipodi:start="3.6651914"
       sodipodi:end="5.7595865"
       transform="matrix(0.50101039,0,0,0.64218946,747.44057,152.79711)"
       sodipodi:open="true" />
    <path
       sodipodi:type="arc"
       style="fill:none;stroke:#000000;stroke-width:3.95032597;stroke-miterlimit:4;stroke-opacity:1;stroke-dasharray:none"
       id="path4684-8-5-4-1-8"
       sodipodi:cx="-850.17859"
       sodipodi:cy="643.61218"
       sodipodi:rx="38.75"
       sodipodi:ry="14.107142"
       d="m -883.73707,636.55861 a 38.75,14.107142 0 0 1 67.11696,0"
       sodipodi:start="3.6651914"
       sodipodi:end="5.7595865"
       transform="matrix(0.24825336,0,0,0.25813034,532.55197,407.67067)"
       sodipodi:open="true" />
    <path
       sodipodi:type="arc"
       style="fill:none;stroke:#000000;stroke-width:3.95032597;stroke-miterlimit:4;stroke-opacity:1;stroke-dasharray:none"
       id="path4684-8-5-4-1-8-3"
       sodipodi:cx="-850.17859"
       sodipodi:cy="643.61218"
       sodipodi:rx="38.75"
       sodipodi:ry="14.107142"
       d="m -883.73707,636.55861 a 38.75,14.107142 0 0 1 67.11696,0"
       sodipodi:start="3.6651914"
       sodipodi:end="5.7595865"
       transform="matrix(0.24825336,0,0,0.25813034,532.55197,415.89999)"
       sodipodi:open="true" />
    <path
       sodipodi:type="arc"
       style="fill:none;stroke:#000000;stroke-width:3.95032597;stroke-miterlimit:4;stroke-opacity:1;stroke-dasharray:none"
       id="path4684-8-5-4-1-8-5"
       sodipodi:cx="-850.17859"
       sodipodi:cy="643.61218"
       sodipodi:rx="38.75"
       sodipodi:ry="14.107142"
       d="m -883.73707,636.55861 a 38.75,14.107142 0 0 1 67.11696,0"
       sodipodi:start="3.6651914"
       sodipodi:end="5.7595865"
       transform="matrix(0.24825336,0,0,0.25813034,532.55197,424.12891)"
       sodipodi:open="true" />
    <path
       sodipodi:type="arc"
       style="fill:none;stroke:#000000;stroke-width:3.95032597;stroke-miterlimit:4;stroke-opacity:1;stroke-dasharray:none"
       id="path4684-8-5-4-1-8-1"
       sodipodi:cx="-850.17859"
       sodipodi:cy="643.61218"
       sodipodi:rx="38.75"
       sodipodi:ry="14.107142"
       d="m -883.73707,636.55861 a 38.75,14.107142 0 0 1 67.11696,0"
       sodipodi:start="3.6651914"
       sodipodi:end="5.7595865"
       transform="matrix(0.24825336,0,0,0.25813034,532.55197,432.35778)"
       sodipodi:open="true" />
    <path
       sodipodi:type="arc"
       style="fill:none;stroke:#000000;stroke-width:3.95032597;stroke-miterlimit:4;stroke-opacity:1;stroke-dasharray:none"
       id="path4684-8-5-4-1-8-1-2"
       sodipodi:cx="-850.17859"
       sodipodi:cy="643.61218"
       sodipodi:rx="38.75"
       sodipodi:ry="14.107142"
       d="m -883.73707,636.55861 a 38.75,14.107142 0 0 1 67.11696,0"
       sodipodi:start="3.6651914"
       sodipodi:end="5.7595865"
       transform="matrix(0.24825336,0,0,0.25813034,532.55197,440.587)"
       sodipodi:open="true" />
    <path
       sodipodi:type="arc"
       style="fill:none;stroke:#000000;stroke-width:3.95032597;stroke-miterlimit:4;stroke-opacity:1;stroke-dasharray:none"
       id="path4684-8-5-4-1-8-1-0"
       sodipodi:cx="-850.17859"
       sodipodi:cy="643.61218"
       sodipodi:rx="38.75"
       sodipodi:ry="14.107142"
       d="m -883.73707,636.55861 a 38.75,14.107142 0 0 1 67.11696,0"
       sodipodi:start="3.6651914"
       sodipodi:end="5.7595865"
       transform="matrix(0.24825336,0,0,0.25813034,532.55197,448.81572)"
       sodipodi:open="true" />
    <path
       style="fill:none;stroke:#000000;stroke-width:1;stroke-linecap:butt;stroke-linejoin:miter;stroke-miterlimit:4;stroke-opacity:1;stroke-dasharray:none"
       d="m 316.97927,574.00585 c -11.59334,0 -11.59334,0 -11.59334,0"
       id="path3471-8-6-61-9-1-3-98-4-3-6"
       inkscape:connector-curvature="0" />
    <path
       style="fill:none;stroke:#000000;stroke-width:1;stroke-linecap:butt;stroke-linejoin:miter;stroke-miterlimit:4;stroke-opacity:1;stroke-dasharray:none"
       d="m 337.51258,574.00585 c -11.5933,0 -11.5933,0 -11.5933,0"
       id="path3471-8-6-61-9-1-3-98-4-3-6-4"
       inkscape:connector-curvature="0" />
    <path
       style="fill:none;stroke:#000000;stroke-width:1;stroke-linecap:butt;stroke-linejoin:miter;stroke-miterlimit:4;stroke-opacity:1;stroke-dasharray:none"
       d="m 316.97923,582.36312 c -11.5933,0 -11.5933,0 -11.5933,0"
       id="path3471-8-6-61-9-1-3-98-4-3-6-0"
       inkscape:connector-curvature="0" />
    <path
       style="fill:none;stroke:#000000;stroke-width:1;stroke-linecap:butt;stroke-linejoin:miter;stroke-miterlimit:4;stroke-opacity:1;stroke-dasharray:none"
       d="m 316.97923,590.72004 c -11.5933,0 -11.5933,0 -11.5933,0"
       id="path3471-8-6-61-9-1-3-98-4-3-6-6"
       inkscape:connector-curvature="0" />
    <path
       style="fill:none;stroke:#000000;stroke-width:1;stroke-linecap:butt;stroke-linejoin:miter;stroke-miterlimit:4;stroke-opacity:1;stroke-dasharray:none"
       d="m 316.97923,599.07724 c -11.5933,0 -11.5933,0 -11.5933,0"
       id="path3471-8-6-61-9-1-3-98-4-3-6-1"
       inkscape:connector-curvature="0" />
    <path
       style="fill:none;stroke:#000000;stroke-width:1;stroke-linecap:butt;stroke-linejoin:miter;stroke-miterlimit:4;stroke-opacity:1;stroke-dasharray:none"
       d="m 316.97923,607.43416 c -11.5933,0 -11.5933,0 -11.5933,0"
       id="path3471-8-6-61-9-1-3-98-4-3-6-8"
       inkscape:connector-curvature="0" />
    <path
       style="fill:none;stroke:#000000;stroke-width:1;stroke-linecap:butt;stroke-linejoin:miter;stroke-miterlimit:4;stroke-opacity:1;stroke-dasharray:none"
       d="m 316.97923,615.79156 c -11.5933,0 -11.5933,0 -11.5933,0"
       id="path3471-8-6-61-9-1-3-98-4-3-6-9"
       inkscape:connector-curvature="0" />
    <path
       style="fill:none;stroke:#000000;stroke-width:1;stroke-linecap:butt;stroke-linejoin:miter;stroke-miterlimit:4;stroke-opacity:1;stroke-dasharray:none"
       d="m 337.51258,615.79156 c -11.5933,0 -11.5933,0 -11.5933,0"
       id="path3471-8-6-61-9-1-3-98-4-3-6-84"
       inkscape:connector-curvature="0" />
    <path
       style="fill:none;stroke:#000000;stroke-width:1;stroke-linecap:butt;stroke-linejoin:miter;stroke-miterlimit:4;stroke-opacity:1;stroke-dasharray:none"
       d="m 337.51258,607.43415 c -11.5933,0 -11.5933,0 -11.5933,0"
       id="path3471-8-6-61-9-1-3-98-4-3-6-14"
       inkscape:connector-curvature="0" />
    <path
       style="fill:none;stroke:#000000;stroke-width:1;stroke-linecap:butt;stroke-linejoin:miter;stroke-miterlimit:4;stroke-opacity:1;stroke-dasharray:none"
       d="m 337.51258,599.07724 c -11.5933,0 -11.5933,0 -11.5933,0"
       id="path3471-8-6-61-9-1-3-98-4-3-6-3"
       inkscape:connector-curvature="0" />
    <path
       style="fill:none;stroke:#000000;stroke-width:1;stroke-linecap:butt;stroke-linejoin:miter;stroke-miterlimit:4;stroke-opacity:1;stroke-dasharray:none"
       d="m 337.51258,590.72011 c -11.5933,0 -11.5933,0 -11.5933,0"
       id="path3471-8-6-61-9-1-3-98-4-3-6-98"
       inkscape:connector-curvature="0" />
    <path
       style="fill:none;stroke:#000000;stroke-width:1;stroke-linecap:butt;stroke-linejoin:miter;stroke-miterlimit:4;stroke-opacity:1;stroke-dasharray:none"
       d="m 337.51258,582.36305 c -11.5933,0 -11.5933,0 -11.5933,0"
       id="path3471-8-6-61-9-1-3-98-4-3-6-80"
       inkscape:connector-curvature="0" />
  </g>
</svg>
