<svg width="190" height="95" viewBox="0 0 50.271 25.135" xml:space="preserve" xmlns="http://www.w3.org/2000/svg"><g style="fill:#000;fill-opacity:1"><path style="fill:#000;fill-opacity:1;stroke:#000;stroke-width:.3;stroke-dasharray:none;stroke-opacity:1;paint-order:markers fill stroke" d="M30.084 12.765V2.431M32.633 12.765V2.431" transform="translate(-6.212 4.97)"/><path style="fill:#000;fill-opacity:1;stroke:none;stroke-width:.3;stroke-dasharray:none;stroke-opacity:1;paint-order:markers fill stroke" d="M30.086 10.287h-.714l-.16-.153V5.06l.162-.15h.77v5.381l-.058-.003zM32.628 10.287h.714l.16-.153V5.06l-.162-.15h-.77v5.381l.058-.003z" transform="translate(-6.212 4.97)"/><path style="fill:none;fill-opacity:1;stroke:#000;stroke-width:.3;stroke-dasharray:none;stroke-opacity:1;paint-order:markers fill stroke" d="M29.673 8.804h3.382M29.68 6.312h3.382" transform="translate(-6.212 4.97)"/><path style="fill:none;fill-opacity:1;stroke:#000;stroke-width:.2;stroke-dasharray:none;stroke-opacity:1;paint-order:markers fill stroke" d="m30.038 12.53 2.659-2.658M29.956 5.571l2.658-2.658M30.09 3.995l1.427-1.427M30.556 6.375l2.086-2.023M31.952 6.384l1.06-1.003M30.019 11.154l2.297-2.31M30.038 9.693l.829-.834M31.416 12.641l1.205-1.222" transform="translate(-6.212 4.97)"/><path style="fill:none;fill-opacity:1;stroke:#000;stroke-width:.15;stroke-dasharray:none;stroke-opacity:1;paint-order:markers fill stroke" d="M22.466 7.606H27.7M34.996 7.606h5.234" transform="translate(-6.212 4.97)"/></g></svg>