<svg width="29.104mm" height="30.427mm" version="1.1" viewBox="0 0 29.104 30.427" xml:space="preserve" xmlns="http://www.w3.org/2000/svg" xmlns:xlink="http://www.w3.org/1999/xlink"><defs/><g transform="translate(-15.382 .13272)" fill="none"><g stroke="#000"><path transform="translate(3.9084 -4.6239)" d="m21.13 27.09v5.2339" stroke-width=".15" style="paint-order:markers fill stroke"/><path transform="translate(3.9084 -4.6239)" d="m33.785 19.716h-5.2339" stroke-width=".15" style="paint-order:markers fill stroke"/><path transform="translate(3.9084 -4.6239)" d="m24.689 17.088v5.2339" stroke-width=".65" style="paint-order:markers fill stroke"/><path transform="translate(3.9084 -4.6239)" d="m21.151 18.62v-1.3957l-2.5091-1.1212 4.979-2.1249-4.9319-2.2347 4.9398-2.1798-2.4934-1.0977v-1.38" stroke-width=".3" style="paint-order:markers fill stroke"/></g><g transform="matrix(.26458 0 0 .26458 32.864 2.7148)"><g transform="matrix(.3312 0 0 .3312 23.355 21.477)" pointer-events="all" stroke="#000"><circle cx="-159.52" cy="76.485" r="14.282" fill="#000" stroke-width=".89263"/><path d="m-159.58 82.939 28.892 50.062h-57.784z" fill="none" stroke-linejoin="round" stroke-miterlimit="10" stroke-width="3.3617"/><path d="m-152.2 76.015 50.062 28.892v-57.784z" fill="none" stroke-linejoin="round" stroke-miterlimit="10" stroke-width="3.3617"/></g></g></g></svg>
