<svg width="190" height="45" viewBox="0 0 50.271 11.906" xml:space="preserve" xmlns="http://www.w3.org/2000/svg"><g style="display:inline"><path style="fill:#000;stroke:#000;stroke-width:.3;paint-order:markers fill stroke" d="M14.866 2.572h30.36M14.866 7.595h30.36M14.866 5.09h30.36M15.12 5.084l2.6-2.54M19.995 5.084l2.6-2.54M25.124 5.084l2.6-2.54M30.136 5.084l2.6-2.54M34.938 5.084l2.6-2.54M39.95 5.084l2.6-2.54M42.478 7.546l2.59-2.492M37.51 7.546l2.6-2.54M32.52 7.546l2.6-2.54M27.641 7.546l2.6-2.54M22.563 7.546l2.6-2.54M17.573 7.546l2.6-2.54" transform="translate(-4.948 .87)"/><path style="fill:#000;stroke:#000;stroke-width:.15;stroke-dasharray:none;paint-order:markers fill stroke" d="M7.452 5.079h5.222" transform="translate(-4.948 .87)"/><path style="display:inline;fill:#000;stroke:#000;stroke-width:.15;stroke-dasharray:none;paint-order:markers fill stroke" d="M47.493 5.075h5.223" transform="translate(-4.948 .87)"/></g></svg>