<svg width="190" height="45" viewBox="0 0 50.271 11.906" xml:space="preserve" xmlns="http://www.w3.org/2000/svg"><path style="fill:none;stroke:#000;stroke-width:.3;stroke-dasharray:none;stroke-opacity:1;paint-order:markers fill stroke" d="M14.911 2.54h30.297M14.911 10.07h30.297M14.911 7.574h30.297M14.911 5.09h7.02M22.943 5.09h1.086M25.027 5.09h1.065M27.035 5.09h6.1M34.06 5.09h1.005M36.1 5.09h1.082M38.104 5.09h7.104M15.02 5.05l2.633-2.544M15.06 9.98l7.604-7.454M19.814 9.98l7.605-7.454M24.801 9.98l7.605-7.454M30.008 9.98l7.604-7.454M35.057 9.98l7.605-7.454M40.056 9.976l5.048-4.85" transform="translate(-4.932 -.352)"/><path style="fill:none;stroke:#000;stroke-width:.15;stroke-dasharray:none;stroke-opacity:1;paint-order:markers fill stroke" d="M7.463 7.551h5.211M47.46 7.551h5.211" transform="translate(-4.932 -.352)"/></svg>