<?xml version="1.0" encoding="UTF-8"?>

<svg version="1.2" baseProfile="tiny" width="50mm" height="25mm" viewBox="0 0 5000 2500" preserveAspectRatio="xMidYMid" fill-rule="evenodd" stroke-width="28.222" stroke-linejoin="round" xmlns="http://www.w3.org/2000/svg" xmlns:xlink="http://www.w3.org/1999/xlink" xml:space="preserve">
 <g visibility="visible" id="MasterSlide_1_Domyślnie">
  <desc>Master slide
  </desc>
  <rect fill="none" stroke="none" x="0" y="0" width="5000" height="2500"/>
 </g>
 <g visibility="visible" id="Slide_1_page1">
  <g>
   <path fill="none" stroke="rgb(0,0,0)" id="Drawing_1_0" stroke-width="100" stroke-linejoin="round" d="M 2250,500 L 4050,500"/>
  </g>
  <g>
   <path fill="none" stroke="rgb(0,0,0)" id="Drawing_2_0" stroke-width="100" stroke-linejoin="round" d="M 1750,1000 L 2250,500"/>
  </g>
  <g>
   <path fill="none" stroke="rgb(0,0,0)" id="Drawing_3_0" stroke-width="100" stroke-linejoin="round" d="M 1000,1000 L 1000,2000"/>
  </g>
  <g>
   <path fill="none" stroke="rgb(0,0,0)" id="Drawing_4_0" stroke-width="100" stroke-linejoin="round" d="M 4050,2000 L 950,2000"/>
  </g>
  <g>
   <path fill="none" stroke="rgb(0,0,0)" id="Drawing_5_0" stroke-width="100" stroke-linejoin="round" d="M 950,1000 L 1780,1000"/>
  </g>
  <g>
   <path fill="none" stroke="rgb(0,0,0)" id="Drawing_6_0" stroke-width="100" stroke-linejoin="round" d="M 4000,2000 L 4000,500"/>
  </g>
  <g>
   <path fill="none" stroke="rgb(0,0,0)" id="Drawing_7_0" stroke-width="100" stroke-linejoin="round" d="M 1500,1000 L 1500,2000"/>
  </g>
  <g>
   <path fill="none" stroke="rgb(0,0,0)" id="Drawing_8_0" stroke-width="100" stroke-linejoin="round" d="M 970,1500 L 1500,1500"/>
  </g>
  <g>
   <path fill="none" stroke="rgb(0,0,0)" id="Drawing_9_0" stroke-width="100" stroke-linejoin="round" d="M 1500,1250 L 3270,1250"/>
  </g>
  <g>
   <path fill="none" stroke="rgb(0,0,0)" id="Drawing_10_0" stroke-width="100" stroke-linejoin="round" d="M 1500,1750 L 3270,1750"/>
  </g>
  <g>
   <path fill="none" stroke="rgb(0,0,0)" id="Drawing_11_0" stroke-width="100" stroke-linejoin="round" d="M 3250,1250 L 3250,1250 C 3296,1250 3335,1260 3375,1283 3415,1307 3443,1335 3467,1375 3490,1415 3500,1454 3500,1500 3500,1546 3490,1585 3467,1625 3443,1665 3415,1693 3375,1717 3335,1740 3296,1750 3250,1750"/>
  </g>
  <g>
   <path fill="none" stroke="rgb(0,0,0)" id="Drawing_12_0" stroke-width="100" stroke-linejoin="round" d="M 500,1250 L 1000,1250"/>
  </g>
  <g>
   <path fill="none" stroke="rgb(0,0,0)" id="Drawing_13_0" stroke-width="100" stroke-linejoin="round" d="M 500,1750 L 1000,1750"/>
  </g>
  <g>
   <path fill="none" stroke="rgb(0,0,0)" id="Drawing_14_0" stroke-width="100" stroke-linejoin="round" d="M 4000,750 L 4500,750"/>
  </g>
 </g>
</svg>