<?xml version="1.0" encoding="UTF-8"?>

<svg version="1.2" baseProfile="tiny" width="40mm" height="40mm" viewBox="0 0 4000 4000" preserveAspectRatio="xMidYMid" fill-rule="evenodd" stroke-width="28.222" stroke-linejoin="round" xmlns="http://www.w3.org/2000/svg" xmlns:xlink="http://www.w3.org/1999/xlink" xml:space="preserve">
 <g visibility="visible" id="MasterSlide_1_Domyślnie">
  <desc>Master slide
  </desc>
  <rect fill="none" stroke="none" x="0" y="0" width="4000" height="4000"/>
 </g>
 <g visibility="visible" id="Slide_1_page1">
  <g>
   <path fill="none" stroke="rgb(0,0,0)" id="Drawing_1_0" stroke-width="100" stroke-linejoin="round" d="M 2000,1000 L 2000,500"/>
  </g>
  <g>
   <path fill="none" stroke="rgb(0,0,0)" id="Drawing_2_0" stroke-width="100" stroke-linejoin="round" d="M 1000,1000 L 1000,3000"/>
  </g>
  <g>
   <path fill="none" stroke="rgb(0,0,0)" id="Drawing_3_0" stroke-width="100" stroke-linejoin="round" d="M 3050,3000 L 950,3000"/>
  </g>
  <g>
   <path fill="none" stroke="rgb(0,0,0)" id="Drawing_4_0" stroke-width="100" stroke-linejoin="round" d="M 950,1000 L 3050,1000"/>
  </g>
  <g>
   <path fill="none" stroke="rgb(0,0,0)" id="Drawing_5_0" stroke-width="100" stroke-linejoin="round" d="M 3000,3050 L 3000,1000"/>
  </g>
  <g>
   <path fill="none" stroke="rgb(0,0,0)" id="Drawing_6_0" stroke-width="100" stroke-linejoin="round" d="M 500,2000 L 1200,2000"/>
  </g>
  <g>
   <path fill="none" stroke="rgb(0,0,0)" id="Drawing_7_0" stroke-width="100" stroke-linejoin="round" d="M 2800,2000 L 3500,2000"/>
  </g>
  <g>
   <path fill="none" stroke="rgb(0,0,0)" id="Drawing_8_0" stroke-width="100" stroke-linejoin="round" d="M 2000,3500 L 2000,3000"/>
  </g>
  <g>
   <path fill="none" stroke="rgb(0,0,0)" id="Drawing_9_0" stroke-width="100" stroke-linejoin="round" d="M 2000,2250 C 1954,2250 1915,2240 1875,2217 1835,2193 1807,2165 1783,2125 1760,2085 1750,2046 1750,2000 1750,1954 1760,1915 1783,1875 1807,1835 1835,1807 1875,1783 1915,1760 1954,1750 2000,1750 2046,1750 2085,1760 2125,1783 2165,1807 2193,1835 2217,1875 2240,1915 2250,1954 2250,2000 2250,2046 2240,2085 2217,2125 2193,2165 2165,2193 2125,2217 2085,2240 2046,2250 2000,2250 L 2000,2250 Z"/>
  </g>
  <g>
   <path fill="none" stroke="rgb(0,0,0)" id="Drawing_10_0" stroke-width="100" stroke-linejoin="round" d="M 2000,2500 C 1908,2500 1830,2479 1750,2433 1670,2387 1613,2330 1567,2250 1521,2170 1500,2092 1500,2000 1500,1908 1521,1830 1567,1750 1613,1670 1670,1613 1750,1567 1830,1521 1908,1500 2000,1500 2092,1500 2170,1521 2250,1567 2330,1613 2387,1670 2433,1750 2479,1830 2500,1908 2500,2000 2500,2092 2479,2170 2433,2250 2387,2330 2330,2387 2250,2433 2170,2479 2092,2500 2000,2500 L 2000,2500 Z"/>
  </g>
  <g>
   <path fill="none" stroke="rgb(0,0,0)" id="Drawing_11_0" stroke-width="100" stroke-linejoin="round" d="M 2000,2750 C 1862,2750 1745,2719 1625,2650 1505,2580 1420,2495 1350,2375 1281,2255 1250,2138 1250,2000 1250,1862 1281,1745 1350,1625 1420,1505 1505,1420 1625,1350 1745,1281 1862,1250 2000,1250 2138,1250 2255,1281 2375,1350 2495,1420 2580,1505 2650,1625 2719,1745 2750,1862 2750,2000 2750,2138 2719,2255 2650,2375 2580,2495 2495,2580 2375,2650 2255,2719 2138,2750 2000,2750 L 2000,2750 Z"/>
  </g>
 </g>
</svg>