<?xml version="1.0" encoding="utf-8" standalone="no"?>
<!DOCTYPE svg PUBLIC "-//W3C//DTD SVG 1.1//EN"
  "http://www.w3.org/Graphics/SVG/1.1/DTD/svg11.dtd">
<svg xmlns:xlink="http://www.w3.org/1999/xlink" width="1166.4pt" height="302.4pt" viewBox="0 0 1166.4 302.4" xmlns="http://www.w3.org/2000/svg" version="1.1">
 <metadata>
  <rdf:RDF xmlns:dc="http://purl.org/dc/elements/1.1/" xmlns:cc="http://creativecommons.org/ns#" xmlns:rdf="http://www.w3.org/1999/02/22-rdf-syntax-ns#">
   <cc:Work>
    <dc:type rdf:resource="http://purl.org/dc/dcmitype/StillImage"/>
    <dc:date>2026-02-17T12:13:13.192199</dc:date>
    <dc:format>image/svg+xml</dc:format>
    <dc:creator>
     <cc:Agent>
      <dc:title>Matplotlib v3.10.8, https://matplotlib.org/</dc:title>
     </cc:Agent>
    </dc:creator>
   </cc:Work>
  </rdf:RDF>
 </metadata>
 <defs>
  <style type="text/css">*{stroke-linejoin: round; stroke-linecap: butt}</style>
 </defs>
 <g id="figure_1">
  <g id="patch_1">
   <path d="M 0 302.4 
L 1166.4 302.4 
L 1166.4 0 
L 0 0 
L 0 302.4 
z
" style="fill: none"/>
  </g>
  <g id="axes_1">
   <g id="patch_2">
    <path d="M 321.381818 151.2 
C 321.381818 223.499095 262.771822 282.109091 190.472727 282.109091 
C 118.173633 282.109091 59.563636 223.499095 59.563636 151.2 
C 59.563636 78.900905 118.173633 20.290909 190.472727 20.290909 
C 262.771822 20.290909 321.381818 78.900905 321.381818 151.2 
" clip-path="url(#pce148f4b73)" style="fill: none; stroke: #000000; stroke-width: 0.72; stroke-linejoin: miter"/>
   </g>
   <g id="patch_3">
    <path d="M 1106.836364 151.2 
C 1106.836364 223.499095 1048.226367 282.109091 975.927273 282.109091 
C 903.628178 282.109091 845.018182 223.499095 845.018182 151.2 
C 845.018182 78.900905 903.628178 20.290909 975.927273 20.290909 
C 1048.226367 20.290909 1106.836364 78.900905 1106.836364 151.2 
" clip-path="url(#pce148f4b73)" style="fill: none; stroke: #000000; stroke-width: 0.72; stroke-linejoin: miter"/>
   </g>
   <g id="line2d_1">
    <path d="M 190.472727 20.290909 
L 975.927273 20.290909 
" clip-path="url(#pce148f4b73)" style="fill: none; stroke: #000000; stroke-width: 0.72; stroke-linecap: square"/>
   </g>
   <g id="line2d_2">
    <path d="M 190.472727 282.109091 
L 975.927273 282.109091 
" clip-path="url(#pce148f4b73)" style="fill: none; stroke: #000000; stroke-width: 0.72; stroke-linecap: square"/>
   </g>
  </g>
 </g>
 <defs>
  <clipPath id="pce148f4b73">
   <rect x="7.2" y="7.2" width="1152" height="288"/>
  </clipPath>
 </defs>
</svg>
