<?xml version="1.0" encoding="utf-8" standalone="no"?>
<!DOCTYPE svg PUBLIC "-//W3C//DTD SVG 1.1//EN"
  "http://www.w3.org/Graphics/SVG/1.1/DTD/svg11.dtd">
<svg xmlns:xlink="http://www.w3.org/1999/xlink" width="360pt" height="360pt" viewBox="0 0 360 360" xmlns="http://www.w3.org/2000/svg" version="1.1">
 <metadata>
  <rdf:RDF xmlns:dc="http://purl.org/dc/elements/1.1/" xmlns:cc="http://creativecommons.org/ns#" xmlns:rdf="http://www.w3.org/1999/02/22-rdf-syntax-ns#">
   <cc:Work>
    <dc:type rdf:resource="http://purl.org/dc/dcmitype/StillImage"/>
    <dc:date>2026-02-17T12:13:14.210722</dc:date>
    <dc:format>image/svg+xml</dc:format>
    <dc:creator>
     <cc:Agent>
      <dc:title>Matplotlib v3.10.8, https://matplotlib.org/</dc:title>
     </cc:Agent>
    </dc:creator>
   </cc:Work>
  </rdf:RDF>
 </metadata>
 <defs>
  <style type="text/css">*{stroke-linejoin: round; stroke-linecap: butt}</style>
 </defs>
 <g id="figure_1">
  <g id="patch_1">
   <path d="M 0 360 
L 360 360 
L 360 0 
L 0 0 
L 0 360 
z
" style="fill: none"/>
  </g>
  <g id="axes_1">
   <g id="patch_2">
    <path d="M 258.545455 101.454545 
C 258.545455 144.834002 223.379457 180 180 180 
C 136.620543 180 101.454545 144.834002 101.454545 101.454545 
C 101.454545 58.075089 136.620543 22.909091 180 22.909091 
C 223.379457 22.909091 258.545455 58.075089 258.545455 101.454545 
" clip-path="url(#p2ed5451907)" style="fill: none; stroke: #000000; stroke-width: 0.72; stroke-linejoin: miter"/>
   </g>
   <g id="patch_3">
    <path d="M 258.545455 258.545455 
C 258.545455 301.924911 223.379457 337.090909 180 337.090909 
C 136.620543 337.090909 101.454545 301.924911 101.454545 258.545455 
C 101.454545 215.165998 136.620543 180 180 180 
C 223.379457 180 258.545455 215.165998 258.545455 258.545455 
" clip-path="url(#p2ed5451907)" style="fill: none; stroke: #000000; stroke-width: 0.72; stroke-linejoin: miter"/>
   </g>
   <g id="patch_4">
    <path d="M 176.764822 101.454545 
L 176.7804 101.771648 
L 176.826985 102.085697 
L 176.904128 102.393668 
L 177.011085 102.692595 
L 177.146828 102.979598 
L 177.310048 103.251914 
L 177.499173 103.506921 
L 177.712384 103.742162 
L 177.947625 103.955372 
L 178.202631 104.144498 
L 178.474948 104.307718 
L 178.761951 104.44346 
L 179.060877 104.550418 
L 179.368848 104.627561 
L 179.682897 104.674145 
L 180 104.689724 
L 180.317103 104.674145 
L 180.631152 104.627561 
L 180.939123 104.550418 
L 181.238049 104.44346 
L 181.525052 104.307718 
L 181.797369 104.144498 
L 182.052375 103.955372 
L 182.287616 103.742162 
L 182.500827 103.506921 
L 182.689952 103.251914 
L 182.853172 102.979598 
L 182.988915 102.692595 
L 183.095872 102.393668 
L 183.173015 102.085697 
L 183.2196 101.771648 
L 183.235178 101.454545 
L 180 101.454545 
z
" clip-path="url(#p2ed5451907)"/>
   </g>
   <g id="patch_5">
    <path d="M 183.235178 101.454545 
L 183.2196 101.137443 
L 183.173015 100.823394 
L 183.095872 100.515423 
L 182.988915 100.216496 
L 182.853172 99.929493 
L 182.689952 99.657177 
L 182.500827 99.40217 
L 182.287616 99.166929 
L 182.052375 98.953719 
L 181.797369 98.764593 
L 181.525052 98.601373 
L 181.238049 98.465631 
L 180.939123 98.358673 
L 180.631152 98.28153 
L 180.317103 98.234946 
L 180 98.219367 
L 179.682897 98.234946 
L 179.368848 98.28153 
L 179.060877 98.358673 
L 178.761951 98.465631 
L 178.474948 98.601373 
L 178.202631 98.764593 
L 177.947625 98.953719 
L 177.712384 99.166929 
L 177.499173 99.40217 
L 177.310048 99.657177 
L 177.146828 99.929493 
L 177.011085 100.216496 
L 176.904128 100.515423 
L 176.826985 100.823394 
L 176.7804 101.137443 
L 176.764822 101.454545 
L 180 101.454545 
z
" clip-path="url(#p2ed5451907)"/>
   </g>
   <g id="patch_6">
    <path d="M 176.764822 258.545455 
L 176.7804 258.862557 
L 176.826985 259.176606 
L 176.904128 259.484577 
L 177.011085 259.783504 
L 177.146828 260.070507 
L 177.310048 260.342823 
L 177.499173 260.59783 
L 177.712384 260.833071 
L 177.947625 261.046281 
L 178.202631 261.235407 
L 178.474948 261.398627 
L 178.761951 261.534369 
L 179.060877 261.641327 
L 179.368848 261.71847 
L 179.682897 261.765054 
L 180 261.780633 
L 180.317103 261.765054 
L 180.631152 261.71847 
L 180.939123 261.641327 
L 181.238049 261.534369 
L 181.525052 261.398627 
L 181.797369 261.235407 
L 182.052375 261.046281 
L 182.287616 260.833071 
L 182.500827 260.59783 
L 182.689952 260.342823 
L 182.853172 260.070507 
L 182.988915 259.783504 
L 183.095872 259.484577 
L 183.173015 259.176606 
L 183.2196 258.862557 
L 183.235178 258.545455 
L 180 258.545455 
z
" clip-path="url(#p2ed5451907)"/>
   </g>
   <g id="patch_7">
    <path d="M 183.235178 258.545455 
L 183.2196 258.228352 
L 183.173015 257.914303 
L 183.095872 257.606332 
L 182.988915 257.307405 
L 182.853172 257.020402 
L 182.689952 256.748086 
L 182.500827 256.493079 
L 182.287616 256.257838 
L 182.052375 256.044628 
L 181.797369 255.855502 
L 181.525052 255.692282 
L 181.238049 255.55654 
L 180.939123 255.449582 
L 180.631152 255.372439 
L 180.317103 255.325855 
L 180 255.310276 
L 179.682897 255.325855 
L 179.368848 255.372439 
L 179.060877 255.449582 
L 178.761951 255.55654 
L 178.474948 255.692282 
L 178.202631 255.855502 
L 177.947625 256.044628 
L 177.712384 256.257838 
L 177.499173 256.493079 
L 177.310048 256.748086 
L 177.146828 257.020402 
L 177.011085 257.307405 
L 176.904128 257.606332 
L 176.826985 257.914303 
L 176.7804 258.228352 
L 176.764822 258.545455 
L 180 258.545455 
z
" clip-path="url(#p2ed5451907)"/>
   </g>
   <g id="line2d_1">
    <path d="M 22.909091 180 
L 337.090909 180 
" clip-path="url(#p2ed5451907)" style="fill: none; stroke: #000000; stroke-width: 0.72; stroke-linecap: square"/>
   </g>
  </g>
 </g>
 <defs>
  <clipPath id="p2ed5451907">
   <rect x="7.2" y="7.2" width="345.6" height="345.6"/>
  </clipPath>
 </defs>
</svg>
