<?xml version="1.0" encoding="UTF-8"?>
<!-- Created with Inkscape (http://www.inkscape.org/) -->
<svg width="42.333mm" height="39.688mm" version="1.1" viewBox="0 0 42.333 39.688" xml:space="preserve" xmlns="http://www.w3.org/2000/svg" xmlns:xlink="http://www.w3.org/1999/xlink"><defs/><g transform="translate(-98.14 29.275)" fill="none" stroke="#000"><g><g stroke-width=".15"><path transform="translate(5.555 -118.88)" d="m123.65 110.73h5.2307"/><path transform="translate(5.5797 -128.85)" d="m123.65 110.73h5.2307"/><path transform="rotate(90 179.74 55.297)" d="m123.65 110.73h5.2307"/></g><rect x="106.84" y="-23.151" width="19.977" height="19.998" stroke-linecap="round" stroke-width=".3"/></g><path d="m104.15-13.127h20.363" stroke-width=".26458px"/><g stroke-width=".3"><path d="m112-20.613h-2.6137v14.972h2.5842"/><path transform="translate(0 .019728)" d="m114.16-5.6606h5.336"/><path transform="translate(0 .0098378)" d="m121.66-5.6507h2.8176"/><path transform="translate(.0074401 -14.953)" d="m114.16-5.6606h5.336"/><path transform="translate(.0074401 -14.962)" d="m121.66-5.6507h2.8176"/><path d="m111.79-13.113c0.83692-1.6366 1.6738-3.2733 2.5108-4.9099l4.9797 9.7501 2.5666-4.896"/></g></g></svg>
