<?xml version="1.0" encoding="UTF-8"?>
<!-- Created with Inkscape (http://www.inkscape.org/) -->
<svg width="42.333mm" height="39.688mm" version="1.1" viewBox="0 0 42.333 39.688" xml:space="preserve" xmlns="http://www.w3.org/2000/svg" xmlns:xlink="http://www.w3.org/1999/xlink"><defs/><g transform="translate(-98.158 29.254)" fill="none" stroke="#000"><g stroke-width=".15"><path transform="translate(5.5727 -118.85)" d="m123.65 110.73h5.2307"/><path transform="translate(5.5727 -128.88)" d="m123.65 110.73h5.2307"/><path transform="rotate(90 179.72 55.32)" d="m123.65 110.73h5.2307"/></g><rect x="106.84" y="-23.151" width="19.977" height="19.998" stroke-linecap="round" stroke-width=".3"/><g stroke-width=".3"><path transform="translate(0 .019726)" d="m104.19-13.172h5.1683"/><path d="m112.04-20.653h-2.6851v15.017h2.6891"/><path transform="translate(0 .0079002)" d="m114.16-5.6447h5.3354"/><path transform="translate(0 .0049319)" d="m121.64-5.6417h2.8652"/><path transform="translate(.077489 -15.009)" d="m114.16-5.6447h5.3354"/><path transform="translate(.077489 -15.012)" d="m121.64-5.6417h2.8652"/><path transform="translate(.019726 .019726)" d="m121.98-18.143h-5.1584v-2.3392l2.5644 2.3491"/></g></g></svg>
