<?xml version="1.0" encoding="utf-8" standalone="no"?>
<!DOCTYPE svg PUBLIC "-//W3C//DTD SVG 1.1//EN"
  "http://www.w3.org/Graphics/SVG/1.1/DTD/svg11.dtd">
<svg xmlns:xlink="http://www.w3.org/1999/xlink" width="1166.4pt" height="180.491536pt" viewBox="0 0 1166.4 180.491536" xmlns="http://www.w3.org/2000/svg" version="1.1">
 <metadata>
  <rdf:RDF xmlns:dc="http://purl.org/dc/elements/1.1/" xmlns:cc="http://creativecommons.org/ns#" xmlns:rdf="http://www.w3.org/1999/02/22-rdf-syntax-ns#">
   <cc:Work>
    <dc:type rdf:resource="http://purl.org/dc/dcmitype/StillImage"/>
    <dc:date>2026-02-17T12:14:32.102724</dc:date>
    <dc:format>image/svg+xml</dc:format>
    <dc:creator>
     <cc:Agent>
      <dc:title>Matplotlib v3.10.8, https://matplotlib.org/</dc:title>
     </cc:Agent>
    </dc:creator>
   </cc:Work>
  </rdf:RDF>
 </metadata>
 <defs>
  <style type="text/css">*{stroke-linejoin: round; stroke-linecap: butt}</style>
 </defs>
 <g id="figure_1">
  <g id="patch_1">
   <path d="M 0 180.491536 
L 1166.4 180.491536 
L 1166.4 -0 
L 0 -0 
L 0 180.491536 
z
" style="fill: none"/>
  </g>
  <g id="axes_1">
   <g id="line2d_1">
    <path d="M 118.886822 165.741921 
L 1060.571562 165.741921 
" clip-path="url(#pf91c8895e3)" style="fill: none; stroke: #000000; stroke-width: 0.72; stroke-linecap: square"/>
   </g>
   <g id="patch_2">
    <path d="M 875.108717 110.563792 
L 887.575485 110.563792 
L 887.575485 27.473429 
L 918.742403 27.473429 
L 918.742403 16.356157 
L 844.070322 16.356157 
L 844.070322 27.473429 
L 875.108717 27.473429 
L 875.108717 110.563792 
M 64.833095 112.170334 
L 74.472348 112.170334 
L 80.063115 84.794855 
L 100.241285 84.794855 
L 94.71478 112.170334 
L 104.354033 112.170334 
L 109.9448 84.794855 
L 129.7374 84.794855 
L 129.7374 75.219864 
L 111.87265 75.219864 
L 116.692277 51.892871 
L 129.7374 51.892871 
L 129.7374 42.317879 
L 118.620128 42.317879 
L 124.210894 14.749615 
L 114.507379 14.749615 
L 108.916613 42.317879 
L 88.674181 42.317879 
L 94.264948 14.749615 
L 84.625695 14.749615 
L 79.034928 42.317879 
L 59.563636 42.317879 
L 59.563636 51.892871 
L 77.107077 51.892871 
L 72.351712 75.219864 
L 59.563636 75.219864 
L 59.563636 84.794855 
L 70.423862 84.794855 
L 64.833095 112.170334 
M 185.645068 110.563792 
L 255.947355 110.563792 
L 255.947355 99.44652 
L 198.111835 99.44652 
L 198.111835 67.379938 
L 250.228064 67.379938 
L 250.228064 56.326927 
L 198.111835 56.326927 
L 198.111835 27.473429 
L 253.762457 27.473429 
L 253.762457 16.356157 
L 185.645068 16.356157 
L 185.645068 110.563792 
M 520.512723 110.563792 
L 532.079827 110.563792 
L 532.079827 75.155602 
Q 532.079827 65.837657 533.943416 60.889507 
Q 535.807005 55.941357 539.951884 53.37089 
Q 544.096763 50.800422 548.980651 50.800422 
Q 555.40682 50.800422 558.234334 54.656123 
Q 561.061849 58.511825 561.061849 66.223227 
L 561.061849 110.563792 
L 572.628952 110.563792 
L 572.628952 70.91433 
Q 572.628952 60.375414 577.384317 55.587918 
Q 582.139682 50.800422 589.336991 50.800422 
Q 593.321216 50.800422 596.277253 52.664011 
Q 599.233291 54.5276 600.357871 57.58003 
Q 601.48245 60.63246 601.48245 67.572723 
L 601.48245 110.563792 
L 612.985292 110.563792 
L 612.985292 63.717021 
Q 612.985292 52.021394 607.523049 46.398497 
Q 602.060805 40.775599 591.907459 40.775599 
Q 578.926598 40.775599 570.829625 52.728273 
Q 568.837513 47.073244 563.985755 43.924422 
Q 559.133998 40.775599 551.551119 40.775599 
Q 544.73938 40.775599 539.40566 43.828029 
Q 534.07194 46.880459 530.858855 51.892871 
L 530.858855 42.317879 
L 520.512723 42.317879 
L 520.512723 110.563792 
M 1001.125887 116.21882 
Q 1000.86884 127.271831 1008.387458 132.766205 
Q 1015.906075 138.260579 1028.115796 138.260579 
Q 1038.397666 138.260579 1045.434321 134.404878 
Q 1052.470976 130.549177 1055.716191 123.898092 
Q 1058.961406 117.247007 1058.961406 101.310109 
L 1058.961406 42.317879 
L 1048.293966 42.317879 
L 1048.293966 50.543375 
Q 1040.45404 40.775599 1028.372843 40.775599 
Q 1019.311945 40.775599 1012.596598 45.273917 
Q 1005.881252 49.772235 1002.346859 58.029862 
Q 998.812466 66.287489 998.812466 76.055266 
Q 998.812466 90.257099 1006.523869 100.410445 
Q 1014.235271 110.563792 1028.308581 110.563792 
Q 1039.618638 110.563792 1047.201517 101.631417 
Q 1047.265779 112.941474 1046.366115 116.475867 
Q 1044.823835 122.259419 1040.45404 125.472503 
Q 1036.084245 128.685588 1028.051534 128.685588 
Q 1020.597179 128.685588 1016.291645 125.472503 
Q 1013.078561 123.094821 1012.371682 117.889624 
L 1001.125887 116.21882 
M 447.318661 136.718299 
L 458.885765 136.718299 
L 458.885765 103.495006 
Q 461.841802 107.222184 466.436513 109.664128 
Q 471.031224 112.106072 476.814776 112.106072 
Q 484.718963 112.106072 491.884142 107.639885 
Q 499.04932 103.173698 502.808628 94.787548 
Q 506.567937 86.401397 506.567937 75.926742 
Q 506.567937 66.158966 503.162068 57.9656 
Q 499.756198 49.772235 493.072983 45.273917 
Q 486.389767 40.775599 477.650178 40.775599 
Q 470.966962 40.775599 466.275859 43.378197 
Q 461.584756 45.980796 457.857578 51.185992 
L 457.857578 42.317879 
L 447.318661 42.317879 
L 447.318661 136.718299 
M 315.196631 136.718299 
L 326.763735 136.718299 
L 326.763735 42.317879 
L 316.353341 42.317879 
L 316.353341 51.443039 
Q 309.09177 40.775599 296.432218 40.775599 
Q 288.335245 40.775599 281.555637 44.984739 
Q 274.776029 49.19388 271.209505 57.355114 
Q 267.642982 65.516349 267.642982 75.798219 
Q 267.642982 92.699043 276.414702 102.402558 
Q 285.186422 112.106072 297.331881 112.106072 
Q 302.794125 112.106072 307.645882 109.599867 
Q 312.49764 107.093661 315.196631 103.302221 
L 315.196631 136.718299 
M 676.86141 88.586295 
Q 674.226681 95.912127 669.728363 99.253735 
Q 665.230045 102.595343 658.868137 102.595343 
Q 650.321333 102.595343 644.602043 96.619006 
Q 638.882753 90.642669 638.240136 79.396873 
L 689.135392 79.396873 
Q 689.199654 77.340499 689.199654 76.312312 
Q 689.199654 59.411488 680.524326 50.093544 
Q 671.848998 40.775599 658.161259 40.775599 
Q 644.023688 40.775599 635.155575 50.286329 
Q 626.287462 59.797058 626.287462 77.019191 
Q 626.287462 93.662968 635.059182 102.88452 
Q 643.830903 112.106072 658.803876 112.106072 
Q 670.692288 112.106072 678.339429 106.322521 
Q 685.98657 100.538969 688.814084 90.064313 
L 676.86141 88.586295 
M 974.58581 102.145511 
Q 975.099903 106.965137 976.899231 110.563792 
L 988.980428 110.563792 
Q 986.795531 106.643829 986.056521 102.370427 
Q 985.317512 98.097024 985.317512 81.967341 
L 985.317512 66.544536 
Q 985.317512 58.833133 984.739157 55.877096 
Q 983.71097 51.121731 981.140502 48.005039 
Q 978.570035 44.888347 973.107791 42.831973 
Q 967.645548 40.775599 958.905958 40.775599 
Q 950.102107 40.775599 943.418891 43.185412 
Q 936.735676 45.595225 933.201283 50.061413 
Q 929.66689 54.5276 928.12461 61.789171 
L 939.434667 63.331451 
Q 941.298256 56.069881 945.186088 53.210235 
Q 949.07392 50.35059 957.235154 50.35059 
Q 965.974744 50.35059 970.4088 54.270553 
Q 973.686146 57.162329 973.686146 64.231115 
Q 973.686146 64.873732 973.621885 67.251414 
Q 967.002931 69.564835 952.993883 71.235639 
Q 946.117882 72.071041 942.712013 72.970704 
Q 938.085171 74.255938 934.390124 76.762144 
Q 930.695077 79.26835 928.413787 83.413229 
Q 926.132497 87.558108 926.132497 92.570519 
Q 926.132497 101.117324 932.173096 106.611698 
Q 938.213695 112.106072 949.45949 112.106072 
Q 956.271229 112.106072 962.215435 109.856913 
Q 968.159641 107.607754 974.58581 102.145511 
M 703.337225 110.563792 
L 714.904329 110.563792 
L 714.904329 73.292013 
Q 714.904329 60.182629 720.27018 55.491525 
Q 725.636031 50.800422 733.026125 50.800422 
Q 737.652967 50.800422 741.090967 52.888927 
Q 744.528967 54.977432 745.878463 58.479694 
Q 747.227958 61.981956 747.227958 69.050742 
L 747.227958 110.563792 
L 758.795062 110.563792 
L 758.795062 68.60091 
Q 758.795062 60.568199 758.152445 57.355114 
Q 757.124258 52.406964 754.553791 48.80831 
Q 751.983323 45.209655 746.810257 42.992627 
Q 741.637191 40.775599 735.468069 40.775599 
Q 721.266236 40.775599 713.747619 52.021394 
L 713.747619 42.317879 
L 703.337225 42.317879 
L 703.337225 110.563792 
M 389.611665 110.563792 
L 399.957797 110.563792 
L 399.957797 42.317879 
L 388.390693 42.317879 
L 388.390693 78.88278 
Q 388.390693 87.622369 386.494973 92.21708 
Q 384.599254 96.811791 380.036674 99.478651 
Q 375.474094 102.145511 370.268897 102.145511 
Q 365.063701 102.145511 361.529308 99.542912 
Q 357.994915 96.940314 356.902466 92.377734 
Q 356.195588 89.228912 356.195588 80.168014 
L 356.195588 42.317879 
L 344.628484 42.317879 
L 344.628484 84.60207 
Q 344.628484 91.992164 345.335362 95.398034 
Q 346.363549 100.474707 348.901886 103.976969 
Q 351.440223 107.479231 356.67755 109.792652 
Q 361.914878 112.106072 367.955476 112.106072 
Q 381.643216 112.106072 389.611665 100.538969 
L 389.611665 110.563792 
M 1084.023464 138.260579 
Q 1093.534194 126.179382 1100.185279 109.985437 
Q 1106.836364 93.791491 1106.836364 76.440836 
Q 1106.836364 61.146554 1101.888214 47.137506 
Q 1096.104662 30.879299 1084.023464 14.749615 
L 1075.733707 14.749615 
Q 1083.573633 28.24457 1086.079838 34.028122 
Q 1089.999801 42.896235 1092.184699 52.535488 
Q 1094.947951 64.4239 1094.947951 76.505097 
Q 1094.947951 107.414969 1075.733707 138.260579 
L 1084.023464 138.260579 
M 162.189552 138.260579 
L 170.47931 138.260579 
Q 151.265065 107.414969 151.265065 76.505097 
Q 151.265065 64.359638 154.028318 52.342703 
Q 156.277477 42.70345 160.19744 33.835337 
Q 162.703645 28.116046 170.47931 14.749615 
L 162.189552 14.749615 
Q 150.108355 30.879299 144.324803 47.137506 
Q 139.376653 61.146554 139.376653 76.440836 
Q 139.376653 93.791491 145.995607 109.985437 
Q 152.61456 126.179382 162.189552 138.260579 
M 801.786131 100.21766 
Q 798.637309 100.667492 796.709458 100.667492 
Q 794.13899 100.667492 792.757364 99.83209 
Q 791.375738 98.996688 790.765252 97.582931 
Q 790.154766 96.169174 790.154766 91.221024 
L 790.154766 51.314516 
L 801.786131 51.314516 
L 801.786131 42.317879 
L 790.154766 42.317879 
L 790.154766 18.476793 
L 778.651924 25.417055 
L 778.651924 42.317879 
L 770.169381 42.317879 
L 770.169381 51.314516 
L 778.651924 51.314516 
L 778.651924 90.578407 
Q 778.651924 100.9888 780.065681 104.234016 
Q 781.479438 107.479231 784.949569 109.471343 
Q 788.4197 111.463456 794.717346 111.463456 
Q 798.573047 111.463456 803.456935 110.435269 
L 801.786131 100.21766 
M 418.143855 110.563792 
L 429.710959 110.563792 
L 429.710959 42.317879 
L 418.143855 42.317879 
L 418.143855 110.563792 
M 816.373534 110.563792 
L 829.54718 110.563792 
L 829.54718 97.390146 
L 816.373534 97.390146 
L 816.373534 110.563792 
M 418.143855 29.658327 
L 429.710959 29.658327 
L 429.710959 16.356157 
L 418.143855 16.356157 
L 418.143855 29.658327 
M 81.990965 75.219864 
L 86.74633 51.892871 
L 106.988762 51.892871 
L 102.169135 75.219864 
L 81.990965 75.219864 
M 1010.700879 75.219864 
Q 1010.700879 62.88162 1016.09886 56.616105 
Q 1021.496842 50.35059 1029.208245 50.35059 
Q 1037.048171 50.35059 1042.606807 56.712497 
Q 1048.165443 63.074405 1048.165443 75.605434 
Q 1048.165443 88.714818 1042.767461 94.851809 
Q 1037.369479 100.9888 1029.40103 100.9888 
Q 1021.368319 100.9888 1016.034599 94.819678 
Q 1010.700879 88.650556 1010.700879 75.219864 
M 457.793316 76.826406 
Q 457.793316 63.65276 463.480475 56.744628 
Q 469.167635 49.836497 476.557729 49.836497 
Q 484.012085 49.836497 489.377936 56.326927 
Q 494.743787 62.817358 494.743787 75.86248 
Q 494.743787 89.55022 489.249412 96.072781 
Q 483.755038 102.595343 476.043635 102.595343 
Q 468.460756 102.595343 463.127036 96.297697 
Q 457.793316 90.000052 457.793316 76.826406 
M 279.531394 76.248051 
Q 279.531394 62.688834 284.768722 56.294796 
Q 290.006049 49.900759 297.524667 49.900759 
Q 305.107546 49.900759 310.730443 56.776759 
Q 316.353341 63.65276 316.353341 77.276238 
Q 316.353341 90.064313 311.019621 96.329828 
Q 305.685901 102.595343 298.295807 102.595343 
Q 290.584404 102.595343 285.057899 96.00852 
Q 279.531394 89.421697 279.531394 76.248051 
M 638.882753 69.886143 
Q 639.461108 60.953769 644.89122 55.620049 
Q 650.321333 50.286329 658.289782 50.286329 
Q 667.093634 50.286329 672.620139 56.969544 
Q 676.218793 61.275077 676.989933 69.886143 
L 638.882753 69.886143 
M 973.621885 76.312312 
L 973.621885 80.553584 
Q 973.621885 88.200725 971.758296 92.120687 
Q 969.316352 97.197361 964.111155 100.121268 
Q 958.905958 103.045174 952.222743 103.045174 
Q 945.475265 103.045174 941.973003 99.960613 
Q 938.470741 96.876052 938.470741 92.249211 
Q 938.470741 89.228912 940.077284 86.754837 
Q 941.683826 84.280762 944.639863 82.995528 
Q 947.595901 81.710294 954.728948 80.682107 
Q 967.324239 78.88278 973.621885 76.312312 
" clip-path="url(#pf91c8895e3)"/>
   </g>
   <g id="line2d_2">
    <path d="M 118.886822 165.741921 
L 1060.571562 165.741921 
" clip-path="url(#pf91c8895e3)" style="fill: none; stroke: #000000; stroke-width: 0.72; stroke-linecap: square"/>
   </g>
   <g id="patch_3">
    <path d="M 875.108717 110.563792 
L 887.575485 110.563792 
L 887.575485 27.473429 
L 918.742403 27.473429 
L 918.742403 16.356157 
L 844.070322 16.356157 
L 844.070322 27.473429 
L 875.108717 27.473429 
L 875.108717 110.563792 
M 64.833095 112.170334 
L 74.472348 112.170334 
L 80.063115 84.794855 
L 100.241285 84.794855 
L 94.71478 112.170334 
L 104.354033 112.170334 
L 109.9448 84.794855 
L 129.7374 84.794855 
L 129.7374 75.219864 
L 111.87265 75.219864 
L 116.692277 51.892871 
L 129.7374 51.892871 
L 129.7374 42.317879 
L 118.620128 42.317879 
L 124.210894 14.749615 
L 114.507379 14.749615 
L 108.916613 42.317879 
L 88.674181 42.317879 
L 94.264948 14.749615 
L 84.625695 14.749615 
L 79.034928 42.317879 
L 59.563636 42.317879 
L 59.563636 51.892871 
L 77.107077 51.892871 
L 72.351712 75.219864 
L 59.563636 75.219864 
L 59.563636 84.794855 
L 70.423862 84.794855 
L 64.833095 112.170334 
M 185.645068 110.563792 
L 255.947355 110.563792 
L 255.947355 99.44652 
L 198.111835 99.44652 
L 198.111835 67.379938 
L 250.228064 67.379938 
L 250.228064 56.326927 
L 198.111835 56.326927 
L 198.111835 27.473429 
L 253.762457 27.473429 
L 253.762457 16.356157 
L 185.645068 16.356157 
L 185.645068 110.563792 
M 520.512723 110.563792 
L 532.079827 110.563792 
L 532.079827 75.155602 
Q 532.079827 65.837657 533.943416 60.889507 
Q 535.807005 55.941357 539.951884 53.37089 
Q 544.096763 50.800422 548.980651 50.800422 
Q 555.40682 50.800422 558.234334 54.656123 
Q 561.061849 58.511825 561.061849 66.223227 
L 561.061849 110.563792 
L 572.628952 110.563792 
L 572.628952 70.91433 
Q 572.628952 60.375414 577.384317 55.587918 
Q 582.139682 50.800422 589.336991 50.800422 
Q 593.321216 50.800422 596.277253 52.664011 
Q 599.233291 54.5276 600.357871 57.58003 
Q 601.48245 60.63246 601.48245 67.572723 
L 601.48245 110.563792 
L 612.985292 110.563792 
L 612.985292 63.717021 
Q 612.985292 52.021394 607.523049 46.398497 
Q 602.060805 40.775599 591.907459 40.775599 
Q 578.926598 40.775599 570.829625 52.728273 
Q 568.837513 47.073244 563.985755 43.924422 
Q 559.133998 40.775599 551.551119 40.775599 
Q 544.73938 40.775599 539.40566 43.828029 
Q 534.07194 46.880459 530.858855 51.892871 
L 530.858855 42.317879 
L 520.512723 42.317879 
L 520.512723 110.563792 
M 1001.125887 116.21882 
Q 1000.86884 127.271831 1008.387458 132.766205 
Q 1015.906075 138.260579 1028.115796 138.260579 
Q 1038.397666 138.260579 1045.434321 134.404878 
Q 1052.470976 130.549177 1055.716191 123.898092 
Q 1058.961406 117.247007 1058.961406 101.310109 
L 1058.961406 42.317879 
L 1048.293966 42.317879 
L 1048.293966 50.543375 
Q 1040.45404 40.775599 1028.372843 40.775599 
Q 1019.311945 40.775599 1012.596598 45.273917 
Q 1005.881252 49.772235 1002.346859 58.029862 
Q 998.812466 66.287489 998.812466 76.055266 
Q 998.812466 90.257099 1006.523869 100.410445 
Q 1014.235271 110.563792 1028.308581 110.563792 
Q 1039.618638 110.563792 1047.201517 101.631417 
Q 1047.265779 112.941474 1046.366115 116.475867 
Q 1044.823835 122.259419 1040.45404 125.472503 
Q 1036.084245 128.685588 1028.051534 128.685588 
Q 1020.597179 128.685588 1016.291645 125.472503 
Q 1013.078561 123.094821 1012.371682 117.889624 
L 1001.125887 116.21882 
M 447.318661 136.718299 
L 458.885765 136.718299 
L 458.885765 103.495006 
Q 461.841802 107.222184 466.436513 109.664128 
Q 471.031224 112.106072 476.814776 112.106072 
Q 484.718963 112.106072 491.884142 107.639885 
Q 499.04932 103.173698 502.808628 94.787548 
Q 506.567937 86.401397 506.567937 75.926742 
Q 506.567937 66.158966 503.162068 57.9656 
Q 499.756198 49.772235 493.072983 45.273917 
Q 486.389767 40.775599 477.650178 40.775599 
Q 470.966962 40.775599 466.275859 43.378197 
Q 461.584756 45.980796 457.857578 51.185992 
L 457.857578 42.317879 
L 447.318661 42.317879 
L 447.318661 136.718299 
M 315.196631 136.718299 
L 326.763735 136.718299 
L 326.763735 42.317879 
L 316.353341 42.317879 
L 316.353341 51.443039 
Q 309.09177 40.775599 296.432218 40.775599 
Q 288.335245 40.775599 281.555637 44.984739 
Q 274.776029 49.19388 271.209505 57.355114 
Q 267.642982 65.516349 267.642982 75.798219 
Q 267.642982 92.699043 276.414702 102.402558 
Q 285.186422 112.106072 297.331881 112.106072 
Q 302.794125 112.106072 307.645882 109.599867 
Q 312.49764 107.093661 315.196631 103.302221 
L 315.196631 136.718299 
M 676.86141 88.586295 
Q 674.226681 95.912127 669.728363 99.253735 
Q 665.230045 102.595343 658.868137 102.595343 
Q 650.321333 102.595343 644.602043 96.619006 
Q 638.882753 90.642669 638.240136 79.396873 
L 689.135392 79.396873 
Q 689.199654 77.340499 689.199654 76.312312 
Q 689.199654 59.411488 680.524326 50.093544 
Q 671.848998 40.775599 658.161259 40.775599 
Q 644.023688 40.775599 635.155575 50.286329 
Q 626.287462 59.797058 626.287462 77.019191 
Q 626.287462 93.662968 635.059182 102.88452 
Q 643.830903 112.106072 658.803876 112.106072 
Q 670.692288 112.106072 678.339429 106.322521 
Q 685.98657 100.538969 688.814084 90.064313 
L 676.86141 88.586295 
M 974.58581 102.145511 
Q 975.099903 106.965137 976.899231 110.563792 
L 988.980428 110.563792 
Q 986.795531 106.643829 986.056521 102.370427 
Q 985.317512 98.097024 985.317512 81.967341 
L 985.317512 66.544536 
Q 985.317512 58.833133 984.739157 55.877096 
Q 983.71097 51.121731 981.140502 48.005039 
Q 978.570035 44.888347 973.107791 42.831973 
Q 967.645548 40.775599 958.905958 40.775599 
Q 950.102107 40.775599 943.418891 43.185412 
Q 936.735676 45.595225 933.201283 50.061413 
Q 929.66689 54.5276 928.12461 61.789171 
L 939.434667 63.331451 
Q 941.298256 56.069881 945.186088 53.210235 
Q 949.07392 50.35059 957.235154 50.35059 
Q 965.974744 50.35059 970.4088 54.270553 
Q 973.686146 57.162329 973.686146 64.231115 
Q 973.686146 64.873732 973.621885 67.251414 
Q 967.002931 69.564835 952.993883 71.235639 
Q 946.117882 72.071041 942.712013 72.970704 
Q 938.085171 74.255938 934.390124 76.762144 
Q 930.695077 79.26835 928.413787 83.413229 
Q 926.132497 87.558108 926.132497 92.570519 
Q 926.132497 101.117324 932.173096 106.611698 
Q 938.213695 112.106072 949.45949 112.106072 
Q 956.271229 112.106072 962.215435 109.856913 
Q 968.159641 107.607754 974.58581 102.145511 
M 703.337225 110.563792 
L 714.904329 110.563792 
L 714.904329 73.292013 
Q 714.904329 60.182629 720.27018 55.491525 
Q 725.636031 50.800422 733.026125 50.800422 
Q 737.652967 50.800422 741.090967 52.888927 
Q 744.528967 54.977432 745.878463 58.479694 
Q 747.227958 61.981956 747.227958 69.050742 
L 747.227958 110.563792 
L 758.795062 110.563792 
L 758.795062 68.60091 
Q 758.795062 60.568199 758.152445 57.355114 
Q 757.124258 52.406964 754.553791 48.80831 
Q 751.983323 45.209655 746.810257 42.992627 
Q 741.637191 40.775599 735.468069 40.775599 
Q 721.266236 40.775599 713.747619 52.021394 
L 713.747619 42.317879 
L 703.337225 42.317879 
L 703.337225 110.563792 
M 389.611665 110.563792 
L 399.957797 110.563792 
L 399.957797 42.317879 
L 388.390693 42.317879 
L 388.390693 78.88278 
Q 388.390693 87.622369 386.494973 92.21708 
Q 384.599254 96.811791 380.036674 99.478651 
Q 375.474094 102.145511 370.268897 102.145511 
Q 365.063701 102.145511 361.529308 99.542912 
Q 357.994915 96.940314 356.902466 92.377734 
Q 356.195588 89.228912 356.195588 80.168014 
L 356.195588 42.317879 
L 344.628484 42.317879 
L 344.628484 84.60207 
Q 344.628484 91.992164 345.335362 95.398034 
Q 346.363549 100.474707 348.901886 103.976969 
Q 351.440223 107.479231 356.67755 109.792652 
Q 361.914878 112.106072 367.955476 112.106072 
Q 381.643216 112.106072 389.611665 100.538969 
L 389.611665 110.563792 
M 1084.023464 138.260579 
Q 1093.534194 126.179382 1100.185279 109.985437 
Q 1106.836364 93.791491 1106.836364 76.440836 
Q 1106.836364 61.146554 1101.888214 47.137506 
Q 1096.104662 30.879299 1084.023464 14.749615 
L 1075.733707 14.749615 
Q 1083.573633 28.24457 1086.079838 34.028122 
Q 1089.999801 42.896235 1092.184699 52.535488 
Q 1094.947951 64.4239 1094.947951 76.505097 
Q 1094.947951 107.414969 1075.733707 138.260579 
L 1084.023464 138.260579 
M 162.189552 138.260579 
L 170.47931 138.260579 
Q 151.265065 107.414969 151.265065 76.505097 
Q 151.265065 64.359638 154.028318 52.342703 
Q 156.277477 42.70345 160.19744 33.835337 
Q 162.703645 28.116046 170.47931 14.749615 
L 162.189552 14.749615 
Q 150.108355 30.879299 144.324803 47.137506 
Q 139.376653 61.146554 139.376653 76.440836 
Q 139.376653 93.791491 145.995607 109.985437 
Q 152.61456 126.179382 162.189552 138.260579 
M 801.786131 100.21766 
Q 798.637309 100.667492 796.709458 100.667492 
Q 794.13899 100.667492 792.757364 99.83209 
Q 791.375738 98.996688 790.765252 97.582931 
Q 790.154766 96.169174 790.154766 91.221024 
L 790.154766 51.314516 
L 801.786131 51.314516 
L 801.786131 42.317879 
L 790.154766 42.317879 
L 790.154766 18.476793 
L 778.651924 25.417055 
L 778.651924 42.317879 
L 770.169381 42.317879 
L 770.169381 51.314516 
L 778.651924 51.314516 
L 778.651924 90.578407 
Q 778.651924 100.9888 780.065681 104.234016 
Q 781.479438 107.479231 784.949569 109.471343 
Q 788.4197 111.463456 794.717346 111.463456 
Q 798.573047 111.463456 803.456935 110.435269 
L 801.786131 100.21766 
M 418.143855 110.563792 
L 429.710959 110.563792 
L 429.710959 42.317879 
L 418.143855 42.317879 
L 418.143855 110.563792 
M 816.373534 110.563792 
L 829.54718 110.563792 
L 829.54718 97.390146 
L 816.373534 97.390146 
L 816.373534 110.563792 
M 418.143855 29.658327 
L 429.710959 29.658327 
L 429.710959 16.356157 
L 418.143855 16.356157 
L 418.143855 29.658327 
M 81.990965 75.219864 
L 86.74633 51.892871 
L 106.988762 51.892871 
L 102.169135 75.219864 
L 81.990965 75.219864 
M 1010.700879 75.219864 
Q 1010.700879 62.88162 1016.09886 56.616105 
Q 1021.496842 50.35059 1029.208245 50.35059 
Q 1037.048171 50.35059 1042.606807 56.712497 
Q 1048.165443 63.074405 1048.165443 75.605434 
Q 1048.165443 88.714818 1042.767461 94.851809 
Q 1037.369479 100.9888 1029.40103 100.9888 
Q 1021.368319 100.9888 1016.034599 94.819678 
Q 1010.700879 88.650556 1010.700879 75.219864 
M 457.793316 76.826406 
Q 457.793316 63.65276 463.480475 56.744628 
Q 469.167635 49.836497 476.557729 49.836497 
Q 484.012085 49.836497 489.377936 56.326927 
Q 494.743787 62.817358 494.743787 75.86248 
Q 494.743787 89.55022 489.249412 96.072781 
Q 483.755038 102.595343 476.043635 102.595343 
Q 468.460756 102.595343 463.127036 96.297697 
Q 457.793316 90.000052 457.793316 76.826406 
M 279.531394 76.248051 
Q 279.531394 62.688834 284.768722 56.294796 
Q 290.006049 49.900759 297.524667 49.900759 
Q 305.107546 49.900759 310.730443 56.776759 
Q 316.353341 63.65276 316.353341 77.276238 
Q 316.353341 90.064313 311.019621 96.329828 
Q 305.685901 102.595343 298.295807 102.595343 
Q 290.584404 102.595343 285.057899 96.00852 
Q 279.531394 89.421697 279.531394 76.248051 
M 638.882753 69.886143 
Q 639.461108 60.953769 644.89122 55.620049 
Q 650.321333 50.286329 658.289782 50.286329 
Q 667.093634 50.286329 672.620139 56.969544 
Q 676.218793 61.275077 676.989933 69.886143 
L 638.882753 69.886143 
M 973.621885 76.312312 
L 973.621885 80.553584 
Q 973.621885 88.200725 971.758296 92.120687 
Q 969.316352 97.197361 964.111155 100.121268 
Q 958.905958 103.045174 952.222743 103.045174 
Q 945.475265 103.045174 941.973003 99.960613 
Q 938.470741 96.876052 938.470741 92.249211 
Q 938.470741 89.228912 940.077284 86.754837 
Q 941.683826 84.280762 944.639863 82.995528 
Q 947.595901 81.710294 954.728948 80.682107 
Q 967.324239 78.88278 973.621885 76.312312 
" clip-path="url(#pf91c8895e3)"/>
   </g>
   <g id="line2d_3">
    <path d="M 118.886822 165.741921 
L 1060.571562 165.741921 
" clip-path="url(#pf91c8895e3)" style="fill: none; stroke: #000000; stroke-width: 0.72; stroke-linecap: square"/>
   </g>
   <g id="patch_4">
    <path d="M 875.108717 110.563792 
L 887.575485 110.563792 
L 887.575485 27.473429 
L 918.742403 27.473429 
L 918.742403 16.356157 
L 844.070322 16.356157 
L 844.070322 27.473429 
L 875.108717 27.473429 
L 875.108717 110.563792 
M 64.833095 112.170334 
L 74.472348 112.170334 
L 80.063115 84.794855 
L 100.241285 84.794855 
L 94.71478 112.170334 
L 104.354033 112.170334 
L 109.9448 84.794855 
L 129.7374 84.794855 
L 129.7374 75.219864 
L 111.87265 75.219864 
L 116.692277 51.892871 
L 129.7374 51.892871 
L 129.7374 42.317879 
L 118.620128 42.317879 
L 124.210894 14.749615 
L 114.507379 14.749615 
L 108.916613 42.317879 
L 88.674181 42.317879 
L 94.264948 14.749615 
L 84.625695 14.749615 
L 79.034928 42.317879 
L 59.563636 42.317879 
L 59.563636 51.892871 
L 77.107077 51.892871 
L 72.351712 75.219864 
L 59.563636 75.219864 
L 59.563636 84.794855 
L 70.423862 84.794855 
L 64.833095 112.170334 
M 185.645068 110.563792 
L 255.947355 110.563792 
L 255.947355 99.44652 
L 198.111835 99.44652 
L 198.111835 67.379938 
L 250.228064 67.379938 
L 250.228064 56.326927 
L 198.111835 56.326927 
L 198.111835 27.473429 
L 253.762457 27.473429 
L 253.762457 16.356157 
L 185.645068 16.356157 
L 185.645068 110.563792 
M 520.512723 110.563792 
L 532.079827 110.563792 
L 532.079827 75.155602 
Q 532.079827 65.837657 533.943416 60.889507 
Q 535.807005 55.941357 539.951884 53.37089 
Q 544.096763 50.800422 548.980651 50.800422 
Q 555.40682 50.800422 558.234334 54.656123 
Q 561.061849 58.511825 561.061849 66.223227 
L 561.061849 110.563792 
L 572.628952 110.563792 
L 572.628952 70.91433 
Q 572.628952 60.375414 577.384317 55.587918 
Q 582.139682 50.800422 589.336991 50.800422 
Q 593.321216 50.800422 596.277253 52.664011 
Q 599.233291 54.5276 600.357871 57.58003 
Q 601.48245 60.63246 601.48245 67.572723 
L 601.48245 110.563792 
L 612.985292 110.563792 
L 612.985292 63.717021 
Q 612.985292 52.021394 607.523049 46.398497 
Q 602.060805 40.775599 591.907459 40.775599 
Q 578.926598 40.775599 570.829625 52.728273 
Q 568.837513 47.073244 563.985755 43.924422 
Q 559.133998 40.775599 551.551119 40.775599 
Q 544.73938 40.775599 539.40566 43.828029 
Q 534.07194 46.880459 530.858855 51.892871 
L 530.858855 42.317879 
L 520.512723 42.317879 
L 520.512723 110.563792 
M 1001.125887 116.21882 
Q 1000.86884 127.271831 1008.387458 132.766205 
Q 1015.906075 138.260579 1028.115796 138.260579 
Q 1038.397666 138.260579 1045.434321 134.404878 
Q 1052.470976 130.549177 1055.716191 123.898092 
Q 1058.961406 117.247007 1058.961406 101.310109 
L 1058.961406 42.317879 
L 1048.293966 42.317879 
L 1048.293966 50.543375 
Q 1040.45404 40.775599 1028.372843 40.775599 
Q 1019.311945 40.775599 1012.596598 45.273917 
Q 1005.881252 49.772235 1002.346859 58.029862 
Q 998.812466 66.287489 998.812466 76.055266 
Q 998.812466 90.257099 1006.523869 100.410445 
Q 1014.235271 110.563792 1028.308581 110.563792 
Q 1039.618638 110.563792 1047.201517 101.631417 
Q 1047.265779 112.941474 1046.366115 116.475867 
Q 1044.823835 122.259419 1040.45404 125.472503 
Q 1036.084245 128.685588 1028.051534 128.685588 
Q 1020.597179 128.685588 1016.291645 125.472503 
Q 1013.078561 123.094821 1012.371682 117.889624 
L 1001.125887 116.21882 
M 447.318661 136.718299 
L 458.885765 136.718299 
L 458.885765 103.495006 
Q 461.841802 107.222184 466.436513 109.664128 
Q 471.031224 112.106072 476.814776 112.106072 
Q 484.718963 112.106072 491.884142 107.639885 
Q 499.04932 103.173698 502.808628 94.787548 
Q 506.567937 86.401397 506.567937 75.926742 
Q 506.567937 66.158966 503.162068 57.9656 
Q 499.756198 49.772235 493.072983 45.273917 
Q 486.389767 40.775599 477.650178 40.775599 
Q 470.966962 40.775599 466.275859 43.378197 
Q 461.584756 45.980796 457.857578 51.185992 
L 457.857578 42.317879 
L 447.318661 42.317879 
L 447.318661 136.718299 
M 315.196631 136.718299 
L 326.763735 136.718299 
L 326.763735 42.317879 
L 316.353341 42.317879 
L 316.353341 51.443039 
Q 309.09177 40.775599 296.432218 40.775599 
Q 288.335245 40.775599 281.555637 44.984739 
Q 274.776029 49.19388 271.209505 57.355114 
Q 267.642982 65.516349 267.642982 75.798219 
Q 267.642982 92.699043 276.414702 102.402558 
Q 285.186422 112.106072 297.331881 112.106072 
Q 302.794125 112.106072 307.645882 109.599867 
Q 312.49764 107.093661 315.196631 103.302221 
L 315.196631 136.718299 
M 676.86141 88.586295 
Q 674.226681 95.912127 669.728363 99.253735 
Q 665.230045 102.595343 658.868137 102.595343 
Q 650.321333 102.595343 644.602043 96.619006 
Q 638.882753 90.642669 638.240136 79.396873 
L 689.135392 79.396873 
Q 689.199654 77.340499 689.199654 76.312312 
Q 689.199654 59.411488 680.524326 50.093544 
Q 671.848998 40.775599 658.161259 40.775599 
Q 644.023688 40.775599 635.155575 50.286329 
Q 626.287462 59.797058 626.287462 77.019191 
Q 626.287462 93.662968 635.059182 102.88452 
Q 643.830903 112.106072 658.803876 112.106072 
Q 670.692288 112.106072 678.339429 106.322521 
Q 685.98657 100.538969 688.814084 90.064313 
L 676.86141 88.586295 
M 974.58581 102.145511 
Q 975.099903 106.965137 976.899231 110.563792 
L 988.980428 110.563792 
Q 986.795531 106.643829 986.056521 102.370427 
Q 985.317512 98.097024 985.317512 81.967341 
L 985.317512 66.544536 
Q 985.317512 58.833133 984.739157 55.877096 
Q 983.71097 51.121731 981.140502 48.005039 
Q 978.570035 44.888347 973.107791 42.831973 
Q 967.645548 40.775599 958.905958 40.775599 
Q 950.102107 40.775599 943.418891 43.185412 
Q 936.735676 45.595225 933.201283 50.061413 
Q 929.66689 54.5276 928.12461 61.789171 
L 939.434667 63.331451 
Q 941.298256 56.069881 945.186088 53.210235 
Q 949.07392 50.35059 957.235154 50.35059 
Q 965.974744 50.35059 970.4088 54.270553 
Q 973.686146 57.162329 973.686146 64.231115 
Q 973.686146 64.873732 973.621885 67.251414 
Q 967.002931 69.564835 952.993883 71.235639 
Q 946.117882 72.071041 942.712013 72.970704 
Q 938.085171 74.255938 934.390124 76.762144 
Q 930.695077 79.26835 928.413787 83.413229 
Q 926.132497 87.558108 926.132497 92.570519 
Q 926.132497 101.117324 932.173096 106.611698 
Q 938.213695 112.106072 949.45949 112.106072 
Q 956.271229 112.106072 962.215435 109.856913 
Q 968.159641 107.607754 974.58581 102.145511 
M 703.337225 110.563792 
L 714.904329 110.563792 
L 714.904329 73.292013 
Q 714.904329 60.182629 720.27018 55.491525 
Q 725.636031 50.800422 733.026125 50.800422 
Q 737.652967 50.800422 741.090967 52.888927 
Q 744.528967 54.977432 745.878463 58.479694 
Q 747.227958 61.981956 747.227958 69.050742 
L 747.227958 110.563792 
L 758.795062 110.563792 
L 758.795062 68.60091 
Q 758.795062 60.568199 758.152445 57.355114 
Q 757.124258 52.406964 754.553791 48.80831 
Q 751.983323 45.209655 746.810257 42.992627 
Q 741.637191 40.775599 735.468069 40.775599 
Q 721.266236 40.775599 713.747619 52.021394 
L 713.747619 42.317879 
L 703.337225 42.317879 
L 703.337225 110.563792 
M 389.611665 110.563792 
L 399.957797 110.563792 
L 399.957797 42.317879 
L 388.390693 42.317879 
L 388.390693 78.88278 
Q 388.390693 87.622369 386.494973 92.21708 
Q 384.599254 96.811791 380.036674 99.478651 
Q 375.474094 102.145511 370.268897 102.145511 
Q 365.063701 102.145511 361.529308 99.542912 
Q 357.994915 96.940314 356.902466 92.377734 
Q 356.195588 89.228912 356.195588 80.168014 
L 356.195588 42.317879 
L 344.628484 42.317879 
L 344.628484 84.60207 
Q 344.628484 91.992164 345.335362 95.398034 
Q 346.363549 100.474707 348.901886 103.976969 
Q 351.440223 107.479231 356.67755 109.792652 
Q 361.914878 112.106072 367.955476 112.106072 
Q 381.643216 112.106072 389.611665 100.538969 
L 389.611665 110.563792 
M 1084.023464 138.260579 
Q 1093.534194 126.179382 1100.185279 109.985437 
Q 1106.836364 93.791491 1106.836364 76.440836 
Q 1106.836364 61.146554 1101.888214 47.137506 
Q 1096.104662 30.879299 1084.023464 14.749615 
L 1075.733707 14.749615 
Q 1083.573633 28.24457 1086.079838 34.028122 
Q 1089.999801 42.896235 1092.184699 52.535488 
Q 1094.947951 64.4239 1094.947951 76.505097 
Q 1094.947951 107.414969 1075.733707 138.260579 
L 1084.023464 138.260579 
M 162.189552 138.260579 
L 170.47931 138.260579 
Q 151.265065 107.414969 151.265065 76.505097 
Q 151.265065 64.359638 154.028318 52.342703 
Q 156.277477 42.70345 160.19744 33.835337 
Q 162.703645 28.116046 170.47931 14.749615 
L 162.189552 14.749615 
Q 150.108355 30.879299 144.324803 47.137506 
Q 139.376653 61.146554 139.376653 76.440836 
Q 139.376653 93.791491 145.995607 109.985437 
Q 152.61456 126.179382 162.189552 138.260579 
M 801.786131 100.21766 
Q 798.637309 100.667492 796.709458 100.667492 
Q 794.13899 100.667492 792.757364 99.83209 
Q 791.375738 98.996688 790.765252 97.582931 
Q 790.154766 96.169174 790.154766 91.221024 
L 790.154766 51.314516 
L 801.786131 51.314516 
L 801.786131 42.317879 
L 790.154766 42.317879 
L 790.154766 18.476793 
L 778.651924 25.417055 
L 778.651924 42.317879 
L 770.169381 42.317879 
L 770.169381 51.314516 
L 778.651924 51.314516 
L 778.651924 90.578407 
Q 778.651924 100.9888 780.065681 104.234016 
Q 781.479438 107.479231 784.949569 109.471343 
Q 788.4197 111.463456 794.717346 111.463456 
Q 798.573047 111.463456 803.456935 110.435269 
L 801.786131 100.21766 
M 418.143855 110.563792 
L 429.710959 110.563792 
L 429.710959 42.317879 
L 418.143855 42.317879 
L 418.143855 110.563792 
M 816.373534 110.563792 
L 829.54718 110.563792 
L 829.54718 97.390146 
L 816.373534 97.390146 
L 816.373534 110.563792 
M 418.143855 29.658327 
L 429.710959 29.658327 
L 429.710959 16.356157 
L 418.143855 16.356157 
L 418.143855 29.658327 
M 81.990965 75.219864 
L 86.74633 51.892871 
L 106.988762 51.892871 
L 102.169135 75.219864 
L 81.990965 75.219864 
M 1010.700879 75.219864 
Q 1010.700879 62.88162 1016.09886 56.616105 
Q 1021.496842 50.35059 1029.208245 50.35059 
Q 1037.048171 50.35059 1042.606807 56.712497 
Q 1048.165443 63.074405 1048.165443 75.605434 
Q 1048.165443 88.714818 1042.767461 94.851809 
Q 1037.369479 100.9888 1029.40103 100.9888 
Q 1021.368319 100.9888 1016.034599 94.819678 
Q 1010.700879 88.650556 1010.700879 75.219864 
M 457.793316 76.826406 
Q 457.793316 63.65276 463.480475 56.744628 
Q 469.167635 49.836497 476.557729 49.836497 
Q 484.012085 49.836497 489.377936 56.326927 
Q 494.743787 62.817358 494.743787 75.86248 
Q 494.743787 89.55022 489.249412 96.072781 
Q 483.755038 102.595343 476.043635 102.595343 
Q 468.460756 102.595343 463.127036 96.297697 
Q 457.793316 90.000052 457.793316 76.826406 
M 279.531394 76.248051 
Q 279.531394 62.688834 284.768722 56.294796 
Q 290.006049 49.900759 297.524667 49.900759 
Q 305.107546 49.900759 310.730443 56.776759 
Q 316.353341 63.65276 316.353341 77.276238 
Q 316.353341 90.064313 311.019621 96.329828 
Q 305.685901 102.595343 298.295807 102.595343 
Q 290.584404 102.595343 285.057899 96.00852 
Q 279.531394 89.421697 279.531394 76.248051 
M 638.882753 69.886143 
Q 639.461108 60.953769 644.89122 55.620049 
Q 650.321333 50.286329 658.289782 50.286329 
Q 667.093634 50.286329 672.620139 56.969544 
Q 676.218793 61.275077 676.989933 69.886143 
L 638.882753 69.886143 
M 973.621885 76.312312 
L 973.621885 80.553584 
Q 973.621885 88.200725 971.758296 92.120687 
Q 969.316352 97.197361 964.111155 100.121268 
Q 958.905958 103.045174 952.222743 103.045174 
Q 945.475265 103.045174 941.973003 99.960613 
Q 938.470741 96.876052 938.470741 92.249211 
Q 938.470741 89.228912 940.077284 86.754837 
Q 941.683826 84.280762 944.639863 82.995528 
Q 947.595901 81.710294 954.728948 80.682107 
Q 967.324239 78.88278 973.621885 76.312312 
" clip-path="url(#pf91c8895e3)"/>
   </g>
  </g>
 </g>
 <defs>
  <clipPath id="pf91c8895e3">
   <rect x="7.2" y="7.2" width="1152" height="166.091536"/>
  </clipPath>
 </defs>
</svg>
