<?xml version="1.0" encoding="utf-8" standalone="no"?>
<!DOCTYPE svg PUBLIC "-//W3C//DTD SVG 1.1//EN"
  "http://www.w3.org/Graphics/SVG/1.1/DTD/svg11.dtd">
<svg xmlns:xlink="http://www.w3.org/1999/xlink" width="1166.4pt" height="331.194598pt" viewBox="0 0 1166.4 331.194598" xmlns="http://www.w3.org/2000/svg" version="1.1">
 <metadata>
  <rdf:RDF xmlns:dc="http://purl.org/dc/elements/1.1/" xmlns:cc="http://creativecommons.org/ns#" xmlns:rdf="http://www.w3.org/1999/02/22-rdf-syntax-ns#">
   <cc:Work>
    <dc:type rdf:resource="http://purl.org/dc/dcmitype/StillImage"/>
    <dc:date>2026-02-17T12:14:32.994376</dc:date>
    <dc:format>image/svg+xml</dc:format>
    <dc:creator>
     <cc:Agent>
      <dc:title>Matplotlib v3.10.8, https://matplotlib.org/</dc:title>
     </cc:Agent>
    </dc:creator>
   </cc:Work>
  </rdf:RDF>
 </metadata>
 <defs>
  <style type="text/css">*{stroke-linejoin: round; stroke-linecap: butt}</style>
 </defs>
 <g id="figure_1">
  <g id="patch_1">
   <path d="M 0 331.194598 
L 1166.4 331.194598 
L 1166.4 0 
L 0 0 
L 0 331.194598 
z
" style="fill: none"/>
  </g>
  <g id="axes_1">
   <g id="patch_2">
    <path d="M 728.238727 165.597299 
C 728.238727 245.124947 663.768831 309.594843 584.241183 309.594843 
C 504.713535 309.594843 440.243638 245.124947 440.243638 165.597299 
C 440.243638 86.069651 504.713535 21.599754 584.241183 21.599754 
C 663.768831 21.599754 728.238727 86.069651 728.238727 165.597299 
" clip-path="url(#pd7f07c86cb)" style="fill: none; stroke: #000000; stroke-width: 0.72; stroke-linejoin: miter"/>
   </g>
   <g id="patch_3">
    <path d="M 482.437083 79.503458 
L 688.724288 78.501455 
L 688.724288 151.647206 
L 482.216496 151.647206 
z
" clip-path="url(#pd7f07c86cb)" style="fill: #ffffff"/>
   </g>
   <g id="patch_4">
    <path d="M 509.885016 118.824618 
Q 509.885016 126.407571 513.185369 133.204727 
Q 516.485722 140.001883 522.889978 143.930874 
Q 529.294234 147.859866 537.427247 147.859866 
Q 544.931621 147.859866 551.414457 144.304129 
Q 557.897294 140.748391 561.433386 133.833366 
Q 564.969479 126.91834 564.969479 118.156689 
Q 564.969479 109.512907 561.610191 102.696107 
Q 558.250903 95.879306 551.846647 92.068184 
Q 545.44239 88.257062 537.466537 88.257062 
Q 525.286663 88.257062 517.585839 96.37043 
Q 509.885016 104.483798 509.885016 118.824618 
M 781.771239 146.877618 
L 789.393482 146.877618 
L 789.393482 96.075756 
L 808.449092 96.075756 
L 808.449092 89.2786 
L 762.794209 89.2786 
L 762.794209 96.075756 
L 781.771239 96.075756 
L 781.771239 146.877618 
M 294.301243 146.877618 
L 301.923487 146.877618 
L 301.923487 96.075756 
L 320.979097 96.075756 
L 320.979097 89.2786 
L 275.324213 89.2786 
L 275.324213 96.075756 
L 294.301243 96.075756 
L 294.301243 146.877618 
M 205.938221 147.859866 
L 211.831708 147.859866 
L 215.249931 131.122361 
L 227.586965 131.122361 
L 224.208032 147.859866 
L 230.101519 147.859866 
L 233.519742 131.122361 
L 245.621036 131.122361 
L 245.621036 125.268164 
L 234.69844 125.268164 
L 237.645183 111.005924 
L 245.621036 111.005924 
L 245.621036 105.151727 
L 238.823881 105.151727 
L 242.242104 88.296352 
L 236.309326 88.296352 
L 232.891103 105.151727 
L 220.51478 105.151727 
L 223.933003 88.296352 
L 218.039515 88.296352 
L 214.621292 105.151727 
L 202.716448 105.151727 
L 202.716448 111.005924 
L 213.442595 111.005924 
L 210.535141 125.268164 
L 202.716448 125.268164 
L 202.716448 131.122361 
L 209.356443 131.122361 
L 205.938221 147.859866 
M 815.049798 162.947194 
Q 817.564353 163.811572 819.607428 163.811572 
Q 822.986361 163.811572 825.422336 162.181041 
Q 827.858311 160.550509 829.744227 157.053706 
Q 831.158664 154.460572 833.712508 147.584837 
L 849.585635 105.151727 
L 842.51345 105.151727 
L 833.594639 129.472185 
Q 831.905172 134.108395 830.687185 138.980345 
Q 829.351328 133.911946 827.661861 129.315025 
L 818.97879 105.151727 
L 811.356546 105.151727 
L 827.190382 146.956198 
Q 826.758193 148.095605 826.561743 148.684954 
Q 825.068727 152.888975 824.400798 153.949803 
Q 823.49713 155.36424 822.082693 156.150038 
Q 820.668256 156.935837 818.310861 156.935837 
Q 816.582105 156.935837 814.264 156.307198 
L 815.049798 162.947194 
M 398.144493 150.335131 
Q 397.987333 157.092996 402.584253 160.452284 
Q 407.181174 163.811572 414.646258 163.811572 
Q 420.932644 163.811572 425.23489 161.454177 
Q 429.537136 159.096782 431.521277 155.030276 
Q 433.505418 150.963769 433.505418 141.21987 
L 433.505418 105.151727 
L 426.983292 105.151727 
L 426.983292 110.180836 
Q 422.189922 104.208769 414.803417 104.208769 
Q 409.263539 104.208769 405.157743 106.959063 
Q 401.051947 109.709357 398.891001 114.758111 
Q 396.730056 119.806866 396.730056 125.778933 
Q 396.730056 134.462004 401.444846 140.669811 
Q 406.159636 146.877618 414.764127 146.877618 
Q 421.679153 146.877618 426.315363 141.41632 
Q 426.354653 148.331345 425.804594 150.49229 
Q 424.861636 154.028383 422.189922 155.992879 
Q 419.518207 157.957375 414.606968 157.957375 
Q 410.049337 157.957375 407.416913 155.992879 
Q 405.452417 154.539152 405.020228 151.356669 
L 398.144493 150.335131 
M 855.596992 162.868614 
L 862.669177 162.868614 
L 862.669177 142.555727 
Q 864.476513 144.834542 867.285742 146.327559 
Q 870.094971 147.820576 873.631064 147.820576 
Q 878.463723 147.820576 882.844549 145.089927 
Q 887.225375 142.359278 889.523835 137.231944 
Q 891.822295 132.104609 891.822295 125.700353 
Q 891.822295 119.728286 889.739929 114.718821 
Q 887.657564 109.709357 883.571412 106.959063 
Q 879.485261 104.208769 874.141833 104.208769 
Q 870.055681 104.208769 867.187517 105.80001 
Q 864.319353 107.391252 862.040538 110.573735 
L 862.040538 105.151727 
L 855.596992 105.151727 
L 855.596992 162.868614 
M 580.410416 146.877618 
L 580.410416 141.652059 
Q 584.614437 147.820576 592.000941 147.820576 
Q 599.426736 147.820576 604.730874 141.966378 
Q 610.035013 136.112181 610.035013 125.386034 
Q 610.035013 120.867693 608.777736 116.899412 
Q 607.520458 112.93113 605.300578 110.121901 
Q 603.080698 107.312672 599.64283 105.76072 
Q 596.204962 104.208769 592.354551 104.208769 
Q 585.400235 104.208769 580.921185 109.827227 
L 580.921185 89.2786 
L 573.849 89.2786 
L 573.849 146.877618 
L 580.410416 146.877618 
M 928.911976 133.440467 
Q 927.30109 137.919517 924.550796 139.962593 
Q 921.800501 142.005668 917.9108 142.005668 
Q 912.685241 142.005668 909.188438 138.351706 
Q 905.691636 134.697744 905.298736 127.822008 
L 936.41635 127.822008 
Q 936.45564 126.564731 936.45564 125.936092 
Q 936.45564 115.602844 931.151502 109.905807 
Q 925.847363 104.208769 917.478611 104.208769 
Q 908.834829 104.208769 903.41282 110.023676 
Q 897.990812 115.838584 897.990812 126.368282 
Q 897.990812 136.54437 903.353886 142.182473 
Q 908.716959 147.820576 917.87151 147.820576 
Q 925.140144 147.820576 929.815644 144.284484 
Q 934.491144 140.748391 936.219901 134.344135 
L 928.911976 133.440467 
M 665.080186 133.440467 
Q 663.4693 137.919517 660.719005 139.962593 
Q 657.968711 142.005668 654.07901 142.005668 
Q 648.853451 142.005668 645.356648 138.351706 
Q 641.859846 134.697744 641.466946 127.822008 
L 672.58456 127.822008 
Q 672.62385 126.564731 672.62385 125.936092 
Q 672.62385 115.602844 667.319711 109.905807 
Q 662.015573 104.208769 653.64682 104.208769 
Q 645.003039 104.208769 639.58103 110.023676 
Q 634.159022 115.838584 634.159022 126.368282 
Q 634.159022 136.54437 639.522095 142.182473 
Q 644.885169 147.820576 654.03972 147.820576 
Q 661.308354 147.820576 665.983854 144.284484 
Q 670.659354 140.748391 672.388111 134.344135 
L 665.080186 133.440467 
M 472.756044 133.440467 
Q 471.145158 137.919517 468.394864 139.962593 
Q 465.644569 142.005668 461.754868 142.005668 
Q 456.529309 142.005668 453.032506 138.351706 
Q 449.535704 134.697744 449.142805 127.822008 
L 480.260418 127.822008 
Q 480.299708 126.564731 480.299708 125.936092 
Q 480.299708 115.602844 474.99557 109.905807 
Q 469.691431 104.208769 461.322679 104.208769 
Q 452.678897 104.208769 447.256889 110.023676 
Q 441.83488 115.838584 441.83488 126.368282 
Q 441.83488 136.54437 447.197954 142.182473 
Q 452.561027 147.820576 461.715578 147.820576 
Q 468.984212 147.820576 473.659712 144.284484 
Q 478.335213 140.748391 480.063969 134.344135 
L 472.756044 133.440467 
M 355.122034 141.730639 
Q 355.436353 144.677383 356.536471 146.877618 
L 363.922975 146.877618 
Q 362.587118 144.480933 362.135284 141.868154 
Q 361.68345 139.255374 361.68345 129.393605 
L 361.68345 119.964025 
Q 361.68345 115.249235 361.329841 113.441899 
Q 360.701202 110.534445 359.129606 108.628884 
Q 357.558009 106.723323 354.218366 105.466046 
Q 350.878723 104.208769 345.535294 104.208769 
Q 340.152576 104.208769 336.066425 105.68214 
Q 331.980273 107.155512 329.819328 109.886162 
Q 327.658382 112.616811 326.715424 117.056571 
L 333.63045 117.999529 
Q 334.769857 113.559769 337.146897 111.811367 
Q 339.523937 110.062966 344.513757 110.062966 
Q 349.857185 110.062966 352.568189 112.459651 
Q 354.571975 114.227697 354.571975 118.549588 
Q 354.571975 118.942487 354.532685 120.396214 
Q 350.485824 121.810651 341.920622 122.832189 
Q 337.716601 123.342958 335.634235 123.893017 
Q 332.805361 124.678815 330.546191 126.211122 
Q 328.287021 127.743429 326.892229 130.277628 
Q 325.497437 132.811828 325.497437 135.876441 
Q 325.497437 141.102 329.190689 144.461288 
Q 332.883941 147.820576 339.759677 147.820576 
Q 343.924408 147.820576 347.558725 146.445429 
Q 351.193042 145.070282 355.122034 141.730639 
M 708.495544 131.59384 
Q 707.749036 136.897979 704.959452 139.451824 
Q 702.169867 142.005668 698.005136 142.005668 
Q 692.818867 142.005668 689.597094 138.194546 
Q 686.375321 134.383425 686.375321 125.975382 
Q 686.375321 117.68521 689.714964 113.854443 
Q 693.054607 110.023676 698.398036 110.023676 
Q 701.934128 110.023676 704.429038 112.145332 
Q 706.923947 114.266987 707.906195 118.471008 
L 714.781931 117.410181 
Q 713.563943 111.084504 709.242052 107.646636 
Q 704.920162 104.208769 698.123006 104.208769 
Q 692.740288 104.208769 688.163012 106.742968 
Q 683.585737 109.277168 681.346212 114.345567 
Q 679.106686 119.413966 679.106686 126.171832 
Q 679.106686 136.62295 684.3126 142.221763 
Q 689.518514 147.820576 698.083716 147.820576 
Q 704.920162 147.820576 709.615307 143.75407 
Q 714.310452 139.687563 715.449859 132.497509 
L 708.495544 131.59384 
M 949.735632 163.811572 
Q 955.55054 156.425068 959.617046 146.524009 
Q 963.683552 136.62295 963.683552 126.014672 
Q 963.683552 116.663672 960.658229 108.09847 
Q 957.122136 98.158121 949.735632 88.296352 
L 944.667233 88.296352 
Q 949.460603 96.547235 950.992909 100.083327 
Q 953.389594 105.505336 954.725451 111.398823 
Q 956.414918 118.667458 956.414918 126.053962 
Q 956.414918 144.952412 944.667233 163.811572 
L 949.735632 163.811572 
M 265.462444 163.811572 
L 270.530844 163.811572 
Q 258.783159 144.952412 258.783159 126.053962 
Q 258.783159 118.628168 260.472625 111.280954 
Q 261.847772 105.387466 264.244457 99.965458 
Q 265.776764 96.468655 270.530844 88.296352 
L 265.462444 88.296352 
Q 258.07594 98.158121 254.539848 108.09847 
Q 251.514524 116.663672 251.514524 126.014672 
Q 251.514524 136.62295 255.561385 146.524009 
Q 259.608247 156.425068 265.462444 163.811572 
M 504.384427 140.551941 
Q 502.459221 140.826971 501.280524 140.826971 
Q 499.708927 140.826971 498.864194 140.316202 
Q 498.019461 139.805433 497.646207 138.941055 
Q 497.272952 138.076677 497.272952 135.051353 
L 497.272952 110.652315 
L 504.384427 110.652315 
L 504.384427 105.151727 
L 497.272952 105.151727 
L 497.272952 90.575168 
L 490.240057 94.818479 
L 490.240057 105.151727 
L 485.053788 105.151727 
L 485.053788 110.652315 
L 490.240057 110.652315 
L 490.240057 134.658454 
Q 490.240057 141.02342 491.104435 143.007561 
Q 491.968814 144.991702 494.090469 146.209689 
Q 496.212125 147.427677 500.062536 147.427677 
Q 502.419931 147.427677 505.405965 146.799038 
L 504.384427 140.551941 
M 736.941444 140.551941 
Q 735.016238 140.826971 733.83754 140.826971 
Q 732.265944 140.826971 731.42121 140.316202 
Q 730.576477 139.805433 730.203223 138.941055 
Q 729.829969 138.076677 729.829969 135.051353 
L 729.829969 110.652315 
L 736.941444 110.652315 
L 736.941444 105.151727 
L 729.829969 105.151727 
L 729.829969 90.575168 
L 722.797074 94.818479 
L 722.797074 105.151727 
L 717.610805 105.151727 
L 717.610805 110.652315 
L 722.797074 110.652315 
L 722.797074 134.658454 
Q 722.797074 141.02342 723.661452 143.007561 
Q 724.52583 144.991702 726.647486 146.209689 
Q 728.769141 147.427677 732.619553 147.427677 
Q 734.976948 147.427677 737.962982 146.799038 
L 736.941444 140.551941 
M 372.566757 146.877618 
L 379.638942 146.877618 
L 379.638942 125.032424 
Q 379.638942 120.553374 380.81764 116.781542 
Q 381.603438 114.306277 383.450064 112.911485 
Q 385.29669 111.516693 387.614795 111.516693 
Q 390.20793 111.516693 392.801064 113.049 
L 395.237039 106.487584 
Q 391.543787 104.208769 387.968404 104.208769 
Q 385.49314 104.208769 383.430419 105.623206 
Q 381.367698 107.037643 378.931724 111.477403 
L 378.931724 105.151727 
L 372.566757 105.151727 
L 372.566757 146.877618 
M 609.642114 163.065064 
Q 612.313828 163.811572 615.181992 163.811572 
Q 621.11477 163.811572 623.668614 159.88258 
Q 625.6724 156.857257 625.6724 149.156433 
L 625.6724 105.151727 
L 618.600215 105.151727 
L 618.600215 148.999274 
Q 618.600215 154.735601 617.539387 156.169683 
Q 616.478559 157.603765 614.317614 157.603765 
Q 613.099627 157.603765 610.977971 157.053706 
L 609.642114 163.065064 
M 745.860255 146.877618 
L 753.914688 146.877618 
L 753.914688 138.823185 
L 745.860255 138.823185 
L 745.860255 146.877618 
M 618.600215 97.490193 
L 625.6724 97.490193 
L 625.6724 89.2786 
L 618.600215 89.2786 
L 618.600215 97.490193 
M 517.742999 118.942487 
Q 517.742999 105.937525 523.577552 100.378002 
Q 529.412104 94.818479 537.505827 94.818479 
Q 543.202865 94.818479 547.78014 97.706287 
Q 552.357415 100.594096 554.734455 105.8393 
Q 557.111495 111.084504 557.111495 118.117399 
Q 557.111495 129.236445 551.551972 135.287093 
Q 545.992449 141.33774 537.387957 141.33774 
Q 528.940625 141.33774 523.341812 135.346028 
Q 517.742999 129.354315 517.742999 118.942487 
M 216.428628 125.268164 
L 219.336082 111.005924 
L 231.712406 111.005924 
L 228.765662 125.268164 
L 216.428628 125.268164 
M 403.99869 125.268164 
Q 403.99869 117.7245 407.299043 113.893733 
Q 410.599396 110.062966 415.314186 110.062966 
Q 420.107556 110.062966 423.506134 113.952668 
Q 426.904712 117.84237 426.904712 125.503903 
Q 426.904712 133.519046 423.604359 137.271233 
Q 420.304006 141.02342 415.432056 141.02342 
Q 410.520816 141.02342 407.259753 137.251588 
Q 403.99869 133.479756 403.99869 125.268164 
M 862.001248 126.250412 
Q 862.001248 118.195979 865.478406 113.972313 
Q 868.955564 109.748647 873.473904 109.748647 
Q 878.031534 109.748647 881.312242 113.716928 
Q 884.59295 117.68521 884.59295 125.661063 
Q 884.59295 134.029815 881.233662 138.017742 
Q 877.874375 142.005668 873.159585 142.005668 
Q 868.523374 142.005668 865.262311 138.155257 
Q 862.001248 134.304845 862.001248 126.250412 
M 580.331836 125.700353 
Q 580.331836 118.078109 583.710769 114.050893 
Q 587.089702 110.023676 591.725912 110.023676 
Q 596.322832 110.023676 599.56425 113.913378 
Q 602.805668 117.80308 602.805668 125.975382 
Q 602.805668 133.951235 599.426736 137.978452 
Q 596.047803 142.005668 591.411593 142.005668 
Q 585.714555 142.005668 582.374912 136.54437 
Q 580.331836 133.204727 580.331836 125.700353 
M 905.691636 122.007101 
Q 906.045245 116.545802 909.365243 113.284739 
Q 912.685241 110.023676 917.55719 110.023676 
Q 922.939909 110.023676 926.318842 114.109828 
Q 928.519077 116.742252 928.990556 122.007101 
L 905.691636 122.007101 
M 641.859846 122.007101 
Q 642.213455 116.545802 645.533453 113.284739 
Q 648.853451 110.023676 653.7254 110.023676 
Q 659.108119 110.023676 662.487052 114.109828 
Q 664.687287 116.742252 665.158766 122.007101 
L 641.859846 122.007101 
M 449.535704 122.007101 
Q 449.889313 116.545802 453.209311 113.284739 
Q 456.529309 110.023676 461.401259 110.023676 
Q 466.783977 110.023676 470.16291 114.109828 
Q 472.363145 116.742252 472.834624 122.007101 
L 449.535704 122.007101 
M 354.532685 125.936092 
L 354.532685 128.529227 
Q 354.532685 133.204727 353.393278 135.601412 
Q 351.900261 138.705315 348.717778 140.493007 
Q 345.535294 142.280698 341.449143 142.280698 
Q 337.323702 142.280698 335.182401 140.394782 
Q 333.041101 138.508866 333.041101 135.679992 
Q 333.041101 133.833366 334.023349 132.320704 
Q 335.005597 130.808042 336.812933 130.022244 
Q 338.620269 129.236445 342.98145 128.607807 
Q 350.682273 127.507689 354.532685 125.936092 
" clip-path="url(#pd7f07c86cb)"/>
   </g>
   <g id="patch_5">
    <path d="M 482.216496 179.451042 
L 688.724288 179.451042 
L 688.724288 254.600784 
L 482.216496 254.600784 
z
" clip-path="url(#pd7f07c86cb)" style="fill: #ffffff"/>
   </g>
   <g id="patch_6">
    <path d="M 366.732204 213.862997 
Q 366.732204 221.445951 370.032557 228.243106 
Q 373.33291 235.040262 379.737167 238.969254 
Q 386.141423 242.898245 394.274436 242.898245 
Q 401.77881 242.898245 408.261646 239.342508 
Q 414.744483 235.78677 418.280575 228.871745 
Q 421.816668 221.95672 421.816668 213.195068 
Q 421.816668 204.551287 418.45738 197.734486 
Q 415.098092 190.917686 408.693835 187.106564 
Q 402.289579 183.295442 394.313726 183.295442 
Q 382.133852 183.295442 374.433028 191.40881 
Q 366.732204 199.522177 366.732204 213.862997 
M 151.148432 241.915997 
L 158.770676 241.915997 
L 158.770676 191.114135 
L 177.826285 191.114135 
L 177.826285 184.31698 
L 132.171402 184.31698 
L 132.171402 191.114135 
L 151.148432 191.114135 
L 151.148432 241.915997 
M 802.889569 241.915997 
L 810.197493 241.915997 
L 810.197493 196.654013 
L 840.450729 241.915997 
L 848.269422 241.915997 
L 848.269422 184.31698 
L 840.961498 184.31698 
L 840.961498 229.539674 
L 810.708262 184.31698 
L 802.889569 184.31698 
L 802.889569 241.915997 
M 62.78541 242.898245 
L 68.678897 242.898245 
L 72.09712 226.160741 
L 84.434154 226.160741 
L 81.055221 242.898245 
L 86.948708 242.898245 
L 90.366931 226.160741 
L 102.468225 226.160741 
L 102.468225 220.306543 
L 91.545628 220.306543 
L 94.492372 206.044303 
L 102.468225 206.044303 
L 102.468225 200.190106 
L 95.67107 200.190106 
L 99.089292 183.334732 
L 93.156515 183.334732 
L 89.738292 200.190106 
L 77.361969 200.190106 
L 80.780191 183.334732 
L 74.886704 183.334732 
L 71.468481 200.190106 
L 59.563636 200.190106 
L 59.563636 206.044303 
L 70.289784 206.044303 
L 67.38233 220.306543 
L 59.563636 220.306543 
L 59.563636 226.160741 
L 66.203632 226.160741 
L 62.78541 242.898245 
M 904.925482 241.915997 
L 911.997667 241.915997 
L 911.997667 220.267253 
Q 911.997667 214.570215 913.137075 211.544892 
Q 914.276482 208.519568 916.810682 206.947972 
Q 919.344882 205.376375 922.330915 205.376375 
Q 926.259907 205.376375 927.988663 207.73377 
Q 929.71742 210.091165 929.71742 214.805955 
L 929.71742 241.915997 
L 936.789605 241.915997 
L 936.789605 217.674119 
Q 936.789605 211.230572 939.697058 208.303474 
Q 942.604512 205.376375 947.004983 205.376375 
Q 949.440958 205.376375 951.248294 206.515782 
Q 953.05563 207.65519 953.743204 209.521461 
Q 954.430777 211.387732 954.430777 215.631043 
L 954.430777 241.915997 
L 961.463672 241.915997 
L 961.463672 213.273648 
Q 961.463672 206.122883 958.124029 202.685016 
Q 954.784386 199.247148 948.57658 199.247148 
Q 940.640016 199.247148 935.689487 206.555072 
Q 934.471499 203.09756 931.505111 201.172354 
Q 928.538722 199.247148 923.902512 199.247148 
Q 919.737781 199.247148 916.476718 201.113419 
Q 913.215655 202.97969 911.251159 206.044303 
L 911.251159 200.190106 
L 904.925482 200.190106 
L 904.925482 241.915997 
M 254.991682 245.37351 
Q 254.834522 252.131376 259.431442 255.490664 
Q 264.028362 258.849951 271.493447 258.849951 
Q 277.779833 258.849951 282.082079 256.492556 
Q 286.384325 254.135161 288.368466 250.068655 
Q 290.352607 246.002149 290.352607 236.258249 
L 290.352607 200.190106 
L 283.83048 200.190106 
L 283.83048 205.219215 
Q 279.037111 199.247148 271.650606 199.247148 
Q 266.110728 199.247148 262.004932 201.997442 
Q 257.899135 204.747736 255.73819 209.796491 
Q 253.577245 214.845245 253.577245 220.817312 
Q 253.577245 229.500384 258.292035 235.708191 
Q 263.006825 241.915997 271.611316 241.915997 
Q 278.526342 241.915997 283.162552 236.454699 
Q 283.201842 243.369724 282.651783 245.53067 
Q 281.708825 249.066762 279.037111 251.031258 
Q 276.365396 252.995754 271.454157 252.995754 
Q 266.896526 252.995754 264.264102 251.031258 
Q 262.299606 249.577531 261.867417 246.395048 
L 254.991682 245.37351 
M 757.313265 257.906993 
L 764.38545 257.906993 
L 764.38545 237.594107 
Q 766.192787 239.872922 769.002016 241.365939 
Q 771.811245 242.858955 775.347337 242.858955 
Q 780.179997 242.858955 784.560823 240.128306 
Q 788.941648 237.397657 791.240108 232.270323 
Q 793.538569 227.142989 793.538569 220.738732 
Q 793.538569 214.766665 791.456203 209.757201 
Q 789.373837 204.747736 785.287686 201.997442 
Q 781.201535 199.247148 775.858106 199.247148 
Q 771.771955 199.247148 768.903791 200.83839 
Q 766.035627 202.429631 763.756812 205.612114 
L 763.756812 200.190106 
L 757.313265 200.190106 
L 757.313265 257.906993 
M 978.476206 241.915997 
L 978.476206 236.690438 
Q 982.680227 242.858955 990.066731 242.858955 
Q 997.492526 242.858955 1002.796664 237.004758 
Q 1008.100803 231.15056 1008.100803 220.424413 
Q 1008.100803 215.906073 1006.843526 211.937791 
Q 1005.586249 207.969509 1003.366368 205.16028 
Q 1001.146488 202.351051 997.70862 200.7991 
Q 994.270753 199.247148 990.420341 199.247148 
Q 983.466025 199.247148 978.986975 204.865606 
L 978.986975 184.31698 
L 971.91479 184.31698 
L 971.91479 241.915997 
L 978.476206 241.915997 
M 437.257605 241.915997 
L 437.257605 236.690438 
Q 441.461626 242.858955 448.84813 242.858955 
Q 456.273924 242.858955 461.578063 237.004758 
Q 466.882202 231.15056 466.882202 220.424413 
Q 466.882202 215.906073 465.624925 211.937791 
Q 464.367647 207.969509 462.147767 205.16028 
Q 459.927887 202.351051 456.490019 200.7991 
Q 453.052151 199.247148 449.201739 199.247148 
Q 442.247424 199.247148 437.768374 204.865606 
L 437.768374 184.31698 
L 430.696189 184.31698 
L 430.696189 241.915997 
L 437.257605 241.915997 
M 623.648969 241.915997 
L 659.638533 241.915997 
L 659.638533 235.118842 
L 631.271213 235.118842 
L 631.271213 184.31698 
L 623.648969 184.31698 
L 623.648969 241.915997 
M 709.929626 221.053052 
Q 709.929626 231.622039 715.33199 237.240497 
Q 720.734353 242.858955 729.496005 242.858955 
Q 734.957303 242.858955 739.573868 240.305111 
Q 744.190433 237.751266 746.606763 233.134701 
Q 749.023093 228.518136 749.023093 220.463703 
Q 749.023093 210.523354 743.561795 204.885251 
Q 738.100496 199.247148 729.496005 199.247148 
Q 721.755891 199.247148 716.373172 203.883358 
Q 709.929626 209.462526 709.929626 221.053052 
M 665.178411 221.053052 
Q 665.178411 231.622039 670.580775 237.240497 
Q 675.983138 242.858955 684.744789 242.858955 
Q 690.206088 242.858955 694.822653 240.305111 
Q 699.439218 237.751266 701.855548 233.134701 
Q 704.271878 228.518136 704.271878 220.463703 
Q 704.271878 210.523354 698.81058 204.885251 
Q 693.349281 199.247148 684.744789 199.247148 
Q 677.004676 199.247148 671.621957 203.883358 
Q 665.178411 209.462526 665.178411 221.053052 
M 1045.269064 228.478846 
Q 1043.658178 232.957896 1040.907884 235.000972 
Q 1038.157589 237.044048 1034.267888 237.044048 
Q 1029.042329 237.044048 1025.545526 233.390085 
Q 1022.048724 229.736123 1021.655824 222.860388 
L 1052.773438 222.860388 
Q 1052.812728 221.60311 1052.812728 220.974472 
Q 1052.812728 210.641224 1047.50859 204.944186 
Q 1042.204451 199.247148 1033.835699 199.247148 
Q 1025.191917 199.247148 1019.769908 205.062056 
Q 1014.3479 210.876963 1014.3479 221.406661 
Q 1014.3479 231.582749 1019.710974 237.220852 
Q 1025.074047 242.858955 1034.228598 242.858955 
Q 1041.497232 242.858955 1046.172732 239.322863 
Q 1050.848232 235.78677 1052.576989 229.382514 
L 1045.269064 228.478846 
M 521.927375 228.478846 
Q 520.316488 232.957896 517.566194 235.000972 
Q 514.8159 237.044048 510.926198 237.044048 
Q 505.700639 237.044048 502.203837 233.390085 
Q 498.707034 229.736123 498.314135 222.860388 
L 529.431749 222.860388 
Q 529.471039 221.60311 529.471039 220.974472 
Q 529.471039 210.641224 524.1669 204.944186 
Q 518.862762 199.247148 510.494009 199.247148 
Q 501.850228 199.247148 496.428219 205.062056 
Q 491.006211 210.876963 491.006211 221.406661 
Q 491.006211 231.582749 496.369284 237.220852 
Q 501.732358 242.858955 510.886908 242.858955 
Q 518.155543 242.858955 522.831043 239.322863 
Q 527.506543 235.78677 529.2353 229.382514 
L 521.927375 228.478846 
M 329.603233 228.478846 
Q 327.992347 232.957896 325.242052 235.000972 
Q 322.491758 237.044048 318.602057 237.044048 
Q 313.376498 237.044048 309.879695 233.390085 
Q 306.382893 229.736123 305.989993 222.860388 
L 337.107607 222.860388 
Q 337.146897 221.60311 337.146897 220.974472 
Q 337.146897 210.641224 331.842758 204.944186 
Q 326.53862 199.247148 318.169867 199.247148 
Q 309.526086 199.247148 304.104077 205.062056 
Q 298.682069 210.876963 298.682069 221.406661 
Q 298.682069 231.582749 304.045142 237.220852 
Q 309.408216 242.858955 318.562767 242.858955 
Q 325.831401 242.858955 330.506901 239.322863 
Q 335.182401 235.78677 336.911158 229.382514 
L 329.603233 228.478846 
M 211.969223 236.769018 
Q 212.283542 239.715762 213.38366 241.915997 
L 220.770164 241.915997 
Q 219.434307 239.519312 218.982473 236.906533 
Q 218.530639 234.293754 218.530639 224.431984 
L 218.530639 215.002404 
Q 218.530639 210.287614 218.17703 208.480278 
Q 217.548391 205.572824 215.976794 203.667264 
Q 214.405198 201.761703 211.065555 200.504425 
Q 207.725912 199.247148 202.382483 199.247148 
Q 196.999765 199.247148 192.913613 200.72052 
Q 188.827462 202.193892 186.666517 204.924541 
Q 184.505571 207.65519 183.562613 212.094951 
L 190.477639 213.037909 
Q 191.617046 208.598148 193.994086 206.849747 
Q 196.371126 205.101345 201.360945 205.101345 
Q 206.704374 205.101345 209.415378 207.49803 
Q 211.419164 209.266077 211.419164 213.587967 
Q 211.419164 213.980867 211.379874 215.434594 
Q 207.333013 216.849031 198.767811 217.870568 
Q 194.56379 218.381337 192.481424 218.931396 
Q 189.65255 219.717194 187.39338 221.249501 
Q 185.13421 222.781808 183.739418 225.316008 
Q 182.344626 227.850207 182.344626 230.914821 
Q 182.344626 236.14038 186.037878 239.499667 
Q 189.73113 242.858955 196.606866 242.858955 
Q 200.771597 242.858955 204.405914 241.483808 
Q 208.040231 240.108661 211.969223 236.769018 
M 565.342733 226.63222 
Q 564.596224 231.936359 561.80664 234.490203 
Q 559.017056 237.044048 554.852325 237.044048 
Q 549.666056 237.044048 546.444283 233.232926 
Q 543.22251 229.421804 543.22251 221.013762 
Q 543.22251 212.723589 546.562153 208.892822 
Q 549.901796 205.062056 555.245224 205.062056 
Q 558.781317 205.062056 561.276227 207.183711 
Q 563.771136 209.305367 564.753384 213.509388 
L 571.62912 212.44856 
Q 570.411132 206.122883 566.089241 202.685016 
Q 561.76735 199.247148 554.970195 199.247148 
Q 549.587476 199.247148 545.010201 201.781348 
Q 540.432926 204.315547 538.193401 209.383946 
Q 535.953875 214.452346 535.953875 221.210211 
Q 535.953875 231.661329 541.159789 237.260142 
Q 546.365703 242.858955 554.930905 242.858955 
Q 561.76735 242.858955 566.462496 238.792449 
Q 571.157641 234.725943 572.297048 227.535888 
L 565.342733 226.63222 
M 887.520049 241.915997 
L 893.845726 241.915997 
L 893.845726 200.190106 
L 886.773541 200.190106 
L 886.773541 222.546068 
Q 886.773541 227.889497 885.614488 230.698726 
Q 884.455436 233.507955 881.665852 235.138487 
Q 878.876267 236.769018 875.693784 236.769018 
Q 872.511301 236.769018 870.350356 235.177777 
Q 868.18941 233.586535 867.521482 230.796951 
Q 867.089292 228.871745 867.089292 223.331867 
L 867.089292 200.190106 
L 860.017107 200.190106 
L 860.017107 226.042871 
Q 860.017107 230.561211 860.449297 232.643577 
Q 861.077935 235.74748 862.629887 237.888781 
Q 864.181839 240.030081 867.383967 241.444518 
Q 870.586095 242.858955 874.279347 242.858955 
Q 882.648099 242.858955 887.520049 235.78677 
L 887.520049 241.915997 
M 1092.888443 258.849951 
Q 1098.703351 251.463447 1102.769857 241.562388 
Q 1106.836364 231.661329 1106.836364 221.053052 
Q 1106.836364 211.702051 1103.81104 203.13685 
Q 1100.274948 193.196501 1092.888443 183.334732 
L 1087.820044 183.334732 
Q 1092.613414 191.585614 1094.145721 195.121707 
Q 1096.542405 200.543715 1097.878263 206.437203 
Q 1099.567729 213.705837 1099.567729 221.092342 
Q 1099.567729 239.990791 1087.820044 258.849951 
L 1092.888443 258.849951 
M 122.309633 258.849951 
L 127.378032 258.849951 
Q 115.630347 239.990791 115.630347 221.092342 
Q 115.630347 213.666547 117.319814 206.319333 
Q 118.694961 200.425845 121.091646 195.003837 
Q 122.623953 191.507034 127.378032 183.334732 
L 122.309633 183.334732 
Q 114.923129 193.196501 111.387036 203.13685 
Q 108.361713 211.702051 108.361713 221.053052 
Q 108.361713 231.661329 112.408574 241.562388 
Q 116.455436 251.463447 122.309633 258.849951 
M 361.231616 235.590321 
Q 359.30641 235.86535 358.127713 235.86535 
Q 356.556116 235.86535 355.711383 235.354581 
Q 354.86665 234.843812 354.493395 233.979434 
Q 354.120141 233.115056 354.120141 230.089732 
L 354.120141 205.690694 
L 361.231616 205.690694 
L 361.231616 200.190106 
L 354.120141 200.190106 
L 354.120141 185.613547 
L 347.087246 189.856858 
L 347.087246 200.190106 
L 341.900977 200.190106 
L 341.900977 205.690694 
L 347.087246 205.690694 
L 347.087246 229.696833 
Q 347.087246 236.0618 347.951624 238.045941 
Q 348.816002 240.030081 350.937658 241.248069 
Q 353.059313 242.466056 356.909725 242.466056 
Q 359.26712 242.466056 362.253154 241.837418 
L 361.231616 235.590321 
M 593.788633 235.590321 
Q 591.863427 235.86535 590.684729 235.86535 
Q 589.113132 235.86535 588.268399 235.354581 
Q 587.423666 234.843812 587.050412 233.979434 
Q 586.677158 233.115056 586.677158 230.089732 
L 586.677158 205.690694 
L 593.788633 205.690694 
L 593.788633 200.190106 
L 586.677158 200.190106 
L 586.677158 185.613547 
L 579.644263 189.856858 
L 579.644263 200.190106 
L 574.457994 200.190106 
L 574.457994 205.690694 
L 579.644263 205.690694 
L 579.644263 229.696833 
Q 579.644263 236.0618 580.508641 238.045941 
Q 581.373019 240.030081 583.494674 241.248069 
Q 585.61633 242.466056 589.466742 242.466056 
Q 591.824137 242.466056 594.81017 241.837418 
L 593.788633 235.590321 
M 1061.37793 241.915997 
L 1068.450115 241.915997 
L 1068.450115 220.070804 
Q 1068.450115 215.591753 1069.628813 211.819921 
Q 1070.414611 209.344656 1072.261237 207.949864 
Q 1074.107863 206.555072 1076.425968 206.555072 
Q 1079.019103 206.555072 1081.612237 208.087379 
L 1084.048212 201.525963 
Q 1080.35496 199.247148 1076.779577 199.247148 
Q 1074.304313 199.247148 1072.241592 200.661585 
Q 1070.178871 202.076022 1067.742897 206.515782 
L 1067.742897 200.190106 
L 1061.37793 200.190106 
L 1061.37793 241.915997 
M 229.413946 241.915997 
L 236.486131 241.915997 
L 236.486131 220.070804 
Q 236.486131 215.591753 237.664828 211.819921 
Q 238.450627 209.344656 240.297253 207.949864 
Q 242.143879 206.555072 244.461984 206.555072 
Q 247.055118 206.555072 249.648253 208.087379 
L 252.084228 201.525963 
Q 248.390976 199.247148 244.815593 199.247148 
Q 242.340328 199.247148 240.277608 200.661585 
Q 238.214887 202.076022 235.778912 206.515782 
L 235.778912 200.190106 
L 229.413946 200.190106 
L 229.413946 241.915997 
M 466.489303 258.103443 
Q 469.161017 258.849951 472.029181 258.849951 
Q 477.961958 258.849951 480.515803 254.92096 
Q 482.519589 251.895636 482.519589 244.194813 
L 482.519589 200.190106 
L 475.447404 200.190106 
L 475.447404 244.037653 
Q 475.447404 249.773981 474.386576 251.208063 
Q 473.325748 252.642145 471.164803 252.642145 
Q 469.946815 252.642145 467.82516 252.092086 
L 466.489303 258.103443 
M 602.707444 241.915997 
L 610.761877 241.915997 
L 610.761877 233.861564 
L 602.707444 233.861564 
L 602.707444 241.915997 
M 475.447404 192.528572 
L 482.519589 192.528572 
L 482.519589 184.31698 
L 475.447404 184.31698 
L 475.447404 192.528572 
M 374.590188 213.980867 
Q 374.590188 200.975904 380.42474 195.416381 
Q 386.259293 189.856858 394.353016 189.856858 
Q 400.050054 189.856858 404.627329 192.744667 
Q 409.204604 195.632476 411.581644 200.877679 
Q 413.958684 206.122883 413.958684 213.155778 
Q 413.958684 224.274825 408.399161 230.325472 
Q 402.839638 236.376119 394.235146 236.376119 
Q 385.787814 236.376119 380.189001 230.384407 
Q 374.590188 224.392695 374.590188 213.980867 
M 73.275817 220.306543 
L 76.183271 206.044303 
L 88.559595 206.044303 
L 85.612851 220.306543 
L 73.275817 220.306543 
M 260.845879 220.306543 
Q 260.845879 212.762879 264.146232 208.932112 
Q 267.446585 205.101345 272.161375 205.101345 
Q 276.954745 205.101345 280.353323 208.991047 
Q 283.751901 212.880749 283.751901 220.542283 
Q 283.751901 228.557426 280.451548 232.309613 
Q 277.151195 236.0618 272.279245 236.0618 
Q 267.368005 236.0618 264.106942 232.289968 
Q 260.845879 228.518136 260.845879 220.306543 
M 763.717522 221.288791 
Q 763.717522 213.234358 767.194679 209.010692 
Q 770.671837 204.787026 775.190178 204.787026 
Q 779.747808 204.787026 783.028516 208.755308 
Q 786.309224 212.723589 786.309224 220.699442 
Q 786.309224 229.068195 782.949936 233.056121 
Q 779.590648 237.044048 774.875858 237.044048 
Q 770.239648 237.044048 766.978585 233.193636 
Q 763.717522 229.343224 763.717522 221.288791 
M 978.397626 220.738732 
Q 978.397626 213.116488 981.776559 209.089272 
Q 985.155492 205.062056 989.791702 205.062056 
Q 994.388622 205.062056 997.63004 208.951757 
Q 1000.871459 212.841459 1000.871459 221.013762 
Q 1000.871459 228.989615 997.492526 233.016831 
Q 994.113593 237.044048 989.477383 237.044048 
Q 983.780345 237.044048 980.440702 231.582749 
Q 978.397626 228.243106 978.397626 220.738732 
M 437.179025 220.738732 
Q 437.179025 213.116488 440.557958 209.089272 
Q 443.936891 205.062056 448.573101 205.062056 
Q 453.170021 205.062056 456.411439 208.951757 
Q 459.652857 212.841459 459.652857 221.013762 
Q 459.652857 228.989615 456.273924 233.016831 
Q 452.894992 237.044048 448.258781 237.044048 
Q 442.561743 237.044048 439.222101 231.582749 
Q 437.179025 228.243106 437.179025 220.738732 
M 717.198261 221.053052 
Q 717.198261 213.037909 720.695063 209.069627 
Q 724.191866 205.101345 729.496005 205.101345 
Q 734.721563 205.101345 738.238011 209.089272 
Q 741.754458 213.077199 741.754458 220.817312 
Q 741.754458 229.028905 738.257656 233.036476 
Q 734.760853 237.044048 729.496005 237.044048 
Q 724.191866 237.044048 720.695063 233.056121 
Q 717.198261 229.068195 717.198261 221.053052 
M 672.447046 221.053052 
Q 672.447046 213.037909 675.943848 209.069627 
Q 679.440651 205.101345 684.744789 205.101345 
Q 689.970348 205.101345 693.486796 209.089272 
Q 697.003243 213.077199 697.003243 220.817312 
Q 697.003243 229.028905 693.506441 233.036476 
Q 690.009638 237.044048 684.744789 237.044048 
Q 679.440651 237.044048 675.943848 233.056121 
Q 672.447046 229.068195 672.447046 221.053052 
M 1022.048724 217.04548 
Q 1022.402333 211.584182 1025.722331 208.323119 
Q 1029.042329 205.062056 1033.914278 205.062056 
Q 1039.296997 205.062056 1042.67593 209.148207 
Q 1044.876165 211.780631 1045.347644 217.04548 
L 1022.048724 217.04548 
M 498.707034 217.04548 
Q 499.060644 211.584182 502.380642 208.323119 
Q 505.700639 205.062056 510.572589 205.062056 
Q 515.955308 205.062056 519.334241 209.148207 
Q 521.534476 211.780631 522.005955 217.04548 
L 498.707034 217.04548 
M 306.382893 217.04548 
Q 306.736502 211.584182 310.0565 208.323119 
Q 313.376498 205.062056 318.248447 205.062056 
Q 323.631166 205.062056 327.010099 209.148207 
Q 329.210334 211.780631 329.681813 217.04548 
L 306.382893 217.04548 
M 211.379874 220.974472 
L 211.379874 223.567606 
Q 211.379874 228.243106 210.240467 230.639791 
Q 208.74745 233.743695 205.564966 235.531386 
Q 202.382483 237.319077 198.296332 237.319077 
Q 194.170891 237.319077 192.02959 235.433161 
Q 189.88829 233.547245 189.88829 230.718371 
Q 189.88829 228.871745 190.870538 227.359083 
Q 191.852786 225.846421 193.660122 225.060623 
Q 195.467458 224.274825 199.828639 223.646186 
Q 207.529462 222.546068 211.379874 220.974472 
" clip-path="url(#pd7f07c86cb)"/>
   </g>
  </g>
 </g>
 <defs>
  <clipPath id="pd7f07c86cb">
   <rect x="7.2" y="7.2" width="1152" height="316.794598"/>
  </clipPath>
 </defs>
</svg>
