<?xml version="1.0" encoding="utf-8" standalone="no"?>
<!DOCTYPE svg PUBLIC "-//W3C//DTD SVG 1.1//EN"
  "http://www.w3.org/Graphics/SVG/1.1/DTD/svg11.dtd">
<svg xmlns:xlink="http://www.w3.org/1999/xlink" width="321.6pt" height="360pt" viewBox="0 0 321.6 360" xmlns="http://www.w3.org/2000/svg" version="1.1">
 <metadata>
  <rdf:RDF xmlns:dc="http://purl.org/dc/elements/1.1/" xmlns:cc="http://creativecommons.org/ns#" xmlns:rdf="http://www.w3.org/1999/02/22-rdf-syntax-ns#">
   <cc:Work>
    <dc:type rdf:resource="http://purl.org/dc/dcmitype/StillImage"/>
    <dc:date>2026-02-17T12:14:36.788223</dc:date>
    <dc:format>image/svg+xml</dc:format>
    <dc:creator>
     <cc:Agent>
      <dc:title>Matplotlib v3.10.8, https://matplotlib.org/</dc:title>
     </cc:Agent>
    </dc:creator>
   </cc:Work>
  </rdf:RDF>
 </metadata>
 <defs>
  <style type="text/css">*{stroke-linejoin: round; stroke-linecap: butt}</style>
 </defs>
 <g id="figure_1">
  <g id="patch_1">
   <path d="M 0 360 
L 321.6 360 
L 321.6 0 
L 0 0 
L 0 360 
z
" style="fill: none"/>
  </g>
  <g id="axes_1">
   <g id="line2d_1">
    <path d="M 90.981818 337.090909 
L 90.981818 141.6 
" clip-path="url(#p091f4e03e9)" style="fill: none; stroke: #000000; stroke-width: 0.72; stroke-linecap: square"/>
   </g>
   <g id="line2d_2">
    <path d="M 21.163636 141.6 
L 160.8 141.6 
" clip-path="url(#p091f4e03e9)" style="fill: none; stroke: #000000; stroke-width: 0.72; stroke-linecap: square"/>
   </g>
   <g id="patch_2">
    <path d="M 160.8 141.6 
C 160.797618 137.926733 160.347111 134.267474 159.458463 130.703319 
C 158.54787 127.067496 157.214428 123.55088 155.485407 120.225391 
C 153.692533 116.78139 151.52909 113.543376 149.033515 110.568877 
C 146.429171 107.46466 143.520383 104.629166 140.350728 102.104872 
C 137.044505 99.469956 133.502916 97.144751 129.770722 95.158643 
C 125.901649 93.097231 121.863392 91.370436 117.70008 89.997129 
C 113.42742 88.585181 109.047247 87.522213 104.60267 86.818684 
C 100.097702 86.103068 95.54327 85.744211 90.981818 85.745455 
C 86.420367 85.744211 81.865935 86.103068 77.360967 86.818684 
C 72.916389 87.522213 68.536217 88.585181 64.263557 89.997129 
C 60.100245 91.370436 56.061987 93.097231 52.192915 95.158643 
C 48.460721 97.144751 44.919132 99.469956 41.612908 102.104872 
C 38.443253 104.629166 35.534466 107.46466 32.930122 110.568877 
C 30.434546 113.543376 28.271103 116.78139 26.478229 120.225391 
C 24.749209 123.55088 23.415767 127.067496 22.505173 130.703319 
C 21.616525 134.267474 21.166018 137.926733 21.163636 141.6 
" clip-path="url(#p091f4e03e9)" style="fill: none; stroke: #000000; stroke-width: 0.72; stroke-linejoin: miter"/>
   </g>
   <g id="line2d_3">
    <path d="M 90.981818 85.745455 
L 90.981818 22.909091 
" clip-path="url(#p091f4e03e9)" style="fill: none; stroke: #000000; stroke-width: 0.72; stroke-linecap: square"/>
   </g>
   <g id="line2d_4">
    <path d="M 90.981818 22.909091 
L 300.436364 22.909091 
" clip-path="url(#p091f4e03e9)" style="fill: none; stroke: #000000; stroke-width: 0.72; stroke-linecap: square"/>
   </g>
   <g id="line2d_5">
    <path d="M 300.436364 22.909091 
L 300.436364 337.090909 
" clip-path="url(#p091f4e03e9)" style="fill: none; stroke: #000000; stroke-width: 0.72; stroke-linecap: square"/>
   </g>
  </g>
 </g>
 <defs>
  <clipPath id="p091f4e03e9">
   <rect x="7.2" y="7.2" width="307.2" height="345.6"/>
  </clipPath>
 </defs>
</svg>
