<?xml version="1.0" encoding="utf-8" standalone="no"?>
<!DOCTYPE svg PUBLIC "-//W3C//DTD SVG 1.1//EN"
  "http://www.w3.org/Graphics/SVG/1.1/DTD/svg11.dtd">
<svg xmlns:xlink="http://www.w3.org/1999/xlink" width="302.4pt" height="770.39973pt" viewBox="0 0 302.4 770.39973" xmlns="http://www.w3.org/2000/svg" version="1.1">
 <metadata>
  <rdf:RDF xmlns:dc="http://purl.org/dc/elements/1.1/" xmlns:cc="http://creativecommons.org/ns#" xmlns:rdf="http://www.w3.org/1999/02/22-rdf-syntax-ns#">
   <cc:Work>
    <dc:type rdf:resource="http://purl.org/dc/dcmitype/StillImage"/>
    <dc:date>2026-02-17T12:14:37.342252</dc:date>
    <dc:format>image/svg+xml</dc:format>
    <dc:creator>
     <cc:Agent>
      <dc:title>Matplotlib v3.10.8, https://matplotlib.org/</dc:title>
     </cc:Agent>
    </dc:creator>
   </cc:Work>
  </rdf:RDF>
 </metadata>
 <defs>
  <style type="text/css">*{stroke-linejoin: round; stroke-linecap: butt}</style>
 </defs>
 <g id="figure_1">
  <g id="patch_1">
   <path d="M 0 770.39973 
L 302.4 770.39973 
L 302.4 0 
L 0 0 
L 0 770.39973 
z
" style="fill: none"/>
  </g>
  <g id="axes_1">
   <g id="line2d_1">
    <path d="M 180.233796 339.803046 
L 56.712149 463.324693 
" clip-path="url(#p1d507e2fc6)" style="fill: none; stroke: #000000; stroke-width: 0.72; stroke-linecap: square"/>
   </g>
   <g id="line2d_2">
    <path d="M 164.729167 300.762303 
L 72.216779 393.274691 
" clip-path="url(#p1d507e2fc6)" style="fill: none; stroke: #000000; stroke-width: 0.72; stroke-linecap: square"/>
   </g>
   <g id="line2d_3">
    <path d="M 149.353385 261.592712 
L 87.592561 323.353536 
" clip-path="url(#p1d507e2fc6)" style="fill: none; stroke: #000000; stroke-width: 0.72; stroke-linecap: square"/>
   </g>
   <g id="patch_2">
    <path d="M 118.472973 237.927751 
L 118.472973 565.199988 
L 282.109091 483.381929 
L 282.109091 647.018047 
L 118.472973 565.199988 
L 200.291032 728.836106 
L 36.654914 728.836106 
L 118.472973 565.199988 
" clip-path="url(#p1d507e2fc6)" style="fill: none; stroke: #000000; stroke-width: 0.72; stroke-linejoin: miter"/>
   </g>
   <g id="patch_3">
    <path d="M 76.325662 145.103508 
L 89.392311 143.674756 
Q 90.320543 153.497427 93.71216 159.792867 
Q 97.103776 166.088306 104.244021 169.972726 
Q 111.384267 173.857146 120.309573 173.857146 
Q 128.235245 173.857146 134.304454 170.910345 
Q 140.373662 167.963543 143.336864 162.828965 
Q 146.300066 157.694387 146.300066 151.62219 
Q 146.300066 145.460696 143.443968 140.8619 
Q 140.58787 136.263104 134.018844 133.137709 
Q 129.806099 131.083878 115.382804 126.752973 
Q 100.959509 122.422068 95.17591 118.582296 
Q 87.678652 113.670961 84.001426 106.393254 
Q 80.3242 99.115548 80.3242 90.09655 
Q 80.3242 80.184581 84.822554 71.56742 
Q 89.320909 62.950258 97.960606 58.485408 
Q 106.600302 54.020557 117.167865 54.020557 
Q 128.806465 54.020557 137.69607 58.70865 
Q 146.585676 63.396743 151.36964 72.505038 
Q 156.153604 81.613334 156.510617 93.132648 
L 143.22976 94.382806 
Q 142.158724 81.970522 135.982412 75.630434 
Q 129.806099 69.290346 117.739085 69.290346 
Q 105.172253 69.290346 99.424356 75.050003 
Q 93.676458 80.80966 93.676458 88.935688 
Q 93.676458 95.990152 97.746398 100.5443 
Q 101.744936 105.098447 118.631616 109.875838 
Q 135.518296 114.653228 141.801711 118.225108 
Q 150.941225 123.493632 155.296775 131.575011 
Q 159.652325 139.656391 159.652325 150.193438 
Q 159.652325 160.641188 154.86836 169.883429 
Q 150.084396 179.12567 141.123388 184.260248 
Q 132.16238 189.394826 120.952195 189.394826 
Q 106.743107 189.394826 97.139477 184.215599 
Q 87.535847 179.036373 82.07356 168.633271 
Q 76.611272 158.230169 76.325662 145.103508 
" clip-path="url(#p1d507e2fc6)"/>
   </g>
   <g id="line2d_4">
    <path d="M 118.472973 237.927751 
L 20.290909 237.927751 
" clip-path="url(#p1d507e2fc6)" style="fill: none; stroke: #000000; stroke-width: 0.72; stroke-linecap: square"/>
   </g>
   <g id="line2d_5">
    <path d="M 20.290909 237.927751 
L 20.290909 41.563624 
" clip-path="url(#p1d507e2fc6)" style="fill: none; stroke: #000000; stroke-width: 0.72; stroke-linecap: square"/>
   </g>
   <g id="line2d_6">
    <path d="M 20.290909 41.563624 
L 216.655036 41.563624 
" clip-path="url(#p1d507e2fc6)" style="fill: none; stroke: #000000; stroke-width: 0.72; stroke-linecap: square"/>
   </g>
   <g id="line2d_7">
    <path d="M 216.655036 41.563624 
L 216.655036 237.927751 
" clip-path="url(#p1d507e2fc6)" style="fill: none; stroke: #000000; stroke-width: 0.72; stroke-linecap: square"/>
   </g>
   <g id="line2d_8">
    <path d="M 216.655036 237.927751 
L 118.472973 237.927751 
" clip-path="url(#p1d507e2fc6)" style="fill: none; stroke: #000000; stroke-width: 0.72; stroke-linecap: square"/>
   </g>
  </g>
 </g>
 <defs>
  <clipPath id="p1d507e2fc6">
   <rect x="7.2" y="7.2" width="288" height="755.99973"/>
  </clipPath>
 </defs>
</svg>
