<?xml version="1.0" encoding="utf-8" standalone="no"?>
<!DOCTYPE svg PUBLIC "-//W3C//DTD SVG 1.1//EN"
  "http://www.w3.org/Graphics/SVG/1.1/DTD/svg11.dtd">
<svg xmlns:xlink="http://www.w3.org/1999/xlink" width="1166.4pt" height="193.646835pt" viewBox="0 0 1166.4 193.646835" xmlns="http://www.w3.org/2000/svg" version="1.1">
 <metadata>
  <rdf:RDF xmlns:dc="http://purl.org/dc/elements/1.1/" xmlns:cc="http://creativecommons.org/ns#" xmlns:rdf="http://www.w3.org/1999/02/22-rdf-syntax-ns#">
   <cc:Work>
    <dc:type rdf:resource="http://purl.org/dc/dcmitype/StillImage"/>
    <dc:date>2026-02-17T12:14:30.162686</dc:date>
    <dc:format>image/svg+xml</dc:format>
    <dc:creator>
     <cc:Agent>
      <dc:title>Matplotlib v3.10.8, https://matplotlib.org/</dc:title>
     </cc:Agent>
    </dc:creator>
   </cc:Work>
  </rdf:RDF>
 </metadata>
 <defs>
  <style type="text/css">*{stroke-linejoin: round; stroke-linecap: butt}</style>
 </defs>
 <g id="figure_1">
  <g id="patch_1">
   <path d="M 0 193.646835 
L 1166.4 193.646835 
L 1166.4 -0 
L 0 -0 
L 0 193.646835 
z
" style="fill: none"/>
  </g>
  <g id="axes_1">
   <g id="line2d_1">
    <path d="M 581.303087 15.347583 
L 1025.36053 15.347583 
" clip-path="url(#pc9d1745f37)" style="fill: none; stroke: #000000; stroke-width: 0.72; stroke-linecap: square"/>
   </g>
   <g id="patch_2">
    <path d="M 1025.36053 178.299251 
C 1070.35839 178.299251 1106.836364 141.821278 1106.836364 96.823417 
C 1106.836364 51.825557 1070.35839 15.347583 1025.36053 15.347583 
" clip-path="url(#pc9d1745f37)" style="fill: none; stroke: #000000; stroke-width: 0.72; stroke-linejoin: miter"/>
   </g>
   <g id="line2d_2">
    <path d="M 1025.36053 178.299251 
L 141.03947 178.299251 
" clip-path="url(#pc9d1745f37)" style="fill: none; stroke: #000000; stroke-width: 0.72; stroke-linecap: square"/>
   </g>
   <g id="patch_3">
    <path d="M 141.03947 15.347583 
C 96.04161 15.347583 59.563636 51.825557 59.563636 96.823417 
C 59.563636 141.821278 96.04161 178.299251 141.03947 178.299251 
" clip-path="url(#pc9d1745f37)" style="fill: none; stroke: #000000; stroke-width: 0.72; stroke-linejoin: miter"/>
   </g>
   <g id="line2d_3">
    <path d="M 141.03947 15.347583 
L 581.303087 15.347583 
" clip-path="url(#pc9d1745f37)" style="fill: none; stroke: #000000; stroke-width: 0.72; stroke-linecap: square"/>
   </g>
   <g id="patch_4">
    <path d="M 505.795434 97.395225 
Q 505.795434 108.076416 510.444243 117.650748 
Q 515.093051 127.22508 524.113954 132.759376 
Q 533.134856 138.293672 544.590849 138.293672 
Q 555.161354 138.293672 564.292943 133.285134 
Q 573.424531 128.276596 578.405398 118.536236 
Q 583.386264 108.795875 583.386264 96.454394 
Q 583.386264 84.278943 578.654441 74.67694 
Q 573.922618 65.074936 564.901715 59.706669 
Q 555.880813 54.338402 544.646192 54.338402 
Q 527.489874 54.338402 516.642654 65.766723 
Q 505.795434 77.195044 505.795434 97.395225 
M 888.768718 136.910098 
L 899.505252 136.910098 
L 899.505252 65.351651 
L 926.346588 65.351651 
L 926.346588 55.777319 
L 862.038068 55.777319 
L 862.038068 65.351651 
L 888.768718 65.351651 
L 888.768718 136.910098 
M 202.128612 136.910098 
L 212.865146 136.910098 
L 212.865146 65.351651 
L 239.706482 65.351651 
L 239.706482 55.777319 
L 175.397962 55.777319 
L 175.397962 65.351651 
L 202.128612 65.351651 
L 202.128612 136.910098 
M 77.662295 138.293672 
L 85.963739 138.293672 
L 90.778577 114.717571 
L 108.156266 114.717571 
L 103.396771 138.293672 
L 111.698215 138.293672 
L 116.513053 114.717571 
L 133.558685 114.717571 
L 133.558685 106.47147 
L 118.173342 106.47147 
L 122.324064 86.381976 
L 133.558685 86.381976 
L 133.558685 78.135875 
L 123.984353 78.135875 
L 128.79919 54.393745 
L 120.442403 54.393745 
L 115.627566 78.135875 
L 98.194533 78.135875 
L 103.009371 54.393745 
L 94.707927 54.393745 
L 89.893089 78.135875 
L 73.124172 78.135875 
L 73.124172 86.381976 
L 88.2328 86.381976 
L 84.137421 106.47147 
L 73.124172 106.47147 
L 73.124172 114.717571 
L 82.477133 114.717571 
L 77.662295 138.293672 
M 997.296262 141.780279 
Q 997.074891 151.299268 1003.550017 156.031091 
Q 1010.025143 160.762914 1020.540306 160.762914 
Q 1029.395179 160.762914 1035.455233 157.442336 
Q 1041.515287 154.121759 1044.310107 148.393762 
Q 1047.104926 142.665766 1047.104926 128.940712 
L 1047.104926 78.135875 
L 1037.917995 78.135875 
L 1037.917995 85.219774 
Q 1031.166154 76.807644 1020.761677 76.807644 
Q 1012.95832 76.807644 1007.174981 80.681651 
Q 1001.391641 84.555658 998.347779 91.667228 
Q 995.303916 98.778799 995.303916 107.190929 
Q 995.303916 119.421723 1001.945071 128.165911 
Q 1008.586226 136.910098 1020.706335 136.910098 
Q 1030.446695 136.910098 1036.977165 129.217427 
Q 1037.032508 138.957788 1036.257706 142.001651 
Q 1034.929475 146.982517 1031.166154 149.749665 
Q 1027.402833 152.516813 1020.484963 152.516813 
Q 1014.065179 152.516813 1010.357201 149.749665 
Q 1007.590053 147.701975 1006.98128 143.219196 
L 997.296262 141.780279 
M 348.400056 141.780279 
Q 348.178684 151.299268 354.65381 156.031091 
Q 361.128936 160.762914 371.644099 160.762914 
Q 380.498972 160.762914 386.559027 157.442336 
Q 392.619081 154.121759 395.4139 148.393762 
Q 398.20872 142.665766 398.20872 128.940712 
L 398.20872 78.135875 
L 389.021788 78.135875 
L 389.021788 85.219774 
Q 382.269947 76.807644 371.865471 76.807644 
Q 364.062113 76.807644 358.278774 80.681651 
Q 352.495435 84.555658 349.451572 91.667228 
Q 346.407709 98.778799 346.407709 107.190929 
Q 346.407709 119.421723 353.048864 128.165911 
Q 359.69002 136.910098 371.810128 136.910098 
Q 381.550489 136.910098 388.080958 129.217427 
Q 388.136301 138.957788 387.3615 142.001651 
Q 386.033268 146.982517 382.269947 149.749665 
Q 378.506626 152.516813 371.588756 152.516813 
Q 365.168973 152.516813 361.460994 149.749665 
Q 358.693846 147.701975 358.085074 143.219196 
L 348.400056 141.780279 
M 605.136047 136.910098 
L 605.136047 129.549485 
Q 611.057744 138.238329 621.462221 138.238329 
Q 631.92204 138.238329 639.39334 129.992228 
Q 646.864639 121.746127 646.864639 106.637499 
Q 646.864639 100.273059 645.093665 94.68342 
Q 643.32269 89.093781 640.195813 85.136759 
Q 637.068935 81.179737 632.226426 78.993691 
Q 627.383917 76.807644 621.960307 76.807644 
Q 612.164603 76.807644 605.855506 84.721687 
L 605.855506 55.777319 
L 595.893773 55.777319 
L 595.893773 136.910098 
L 605.136047 136.910098 
M 724.400126 117.982806 
Q 722.131065 124.291903 718.257058 127.169737 
Q 714.383051 130.047571 708.904098 130.047571 
Q 701.543484 130.047571 696.61796 124.900676 
Q 691.692437 119.753781 691.139007 110.068763 
L 734.970632 110.068763 
Q 735.025975 108.297788 735.025975 107.412301 
Q 735.025975 92.857102 727.554675 84.832373 
Q 720.083375 76.807644 708.295325 76.807644 
Q 696.119874 76.807644 688.482545 84.998402 
Q 680.845217 93.18916 680.845217 108.021073 
Q 680.845217 122.3549 688.399531 130.296615 
Q 695.953845 138.238329 708.848755 138.238329 
Q 719.087202 138.238329 725.673014 133.257463 
Q 732.258827 128.276596 734.693917 119.255694 
L 724.400126 117.982806 
M 453.496337 117.982806 
Q 451.227275 124.291903 447.353268 127.169737 
Q 443.479261 130.047571 438.000308 130.047571 
Q 430.639694 130.047571 425.714171 124.900676 
Q 420.788647 119.753781 420.235218 110.068763 
L 464.066842 110.068763 
Q 464.122185 108.297788 464.122185 107.412301 
Q 464.122185 92.857102 456.650886 84.832373 
Q 449.179586 76.807644 437.391535 76.807644 
Q 425.216084 76.807644 417.578756 84.998402 
Q 409.941427 93.18916 409.941427 108.021073 
Q 409.941427 122.3549 417.495741 130.296615 
Q 425.050055 138.238329 437.944965 138.238329 
Q 448.183413 138.238329 454.769225 133.257463 
Q 461.355037 128.276596 463.790127 119.255694 
L 453.496337 117.982806 
M 974.43962 129.66017 
Q 974.882364 133.810892 976.431966 136.910098 
L 986.836443 136.910098 
Q 984.954782 133.534178 984.318338 129.853871 
Q 983.681894 126.173564 983.681894 112.282481 
L 983.681894 99.000171 
Q 983.681894 92.359015 983.183808 89.813239 
Q 982.29832 85.71786 980.084602 83.033727 
Q 977.870883 80.349593 973.166732 78.578618 
Q 968.46258 76.807644 960.935938 76.807644 
Q 953.353952 76.807644 947.598284 78.883005 
Q 941.842616 80.958366 938.798754 84.804701 
Q 935.754891 88.651037 934.42666 94.904792 
L 944.167021 96.233023 
Q 945.771967 89.979268 949.120216 87.516506 
Q 952.468465 85.053745 959.497021 85.053745 
Q 967.023663 85.053745 970.842327 88.429665 
Q 973.664818 90.920098 973.664818 97.007824 
Q 973.664818 97.561254 973.609475 99.608943 
Q 967.909151 101.60129 955.844385 103.040207 
Q 949.922689 103.759665 946.989512 104.534467 
Q 943.004819 105.641326 939.822598 107.799701 
Q 936.640378 109.958077 934.675703 113.527698 
Q 932.711028 117.097319 932.711028 121.414069 
Q 932.711028 128.774683 937.913266 133.506506 
Q 943.115504 138.238329 952.800523 138.238329 
Q 958.666876 138.238329 963.7861 136.301326 
Q 968.905324 134.364322 974.43962 129.66017 
M 287.799514 129.66017 
Q 288.242258 133.810892 289.791861 136.910098 
L 300.196337 136.910098 
Q 298.314677 133.534178 297.678233 129.853871 
Q 297.041789 126.173564 297.041789 112.282481 
L 297.041789 99.000171 
Q 297.041789 92.359015 296.543702 89.813239 
Q 295.658215 85.71786 293.444496 83.033727 
Q 291.230778 80.349593 286.526626 78.578618 
Q 281.822475 76.807644 274.295832 76.807644 
Q 266.713847 76.807644 260.958179 78.883005 
Q 255.202511 80.958366 252.158648 84.804701 
Q 249.114785 88.651037 247.786554 94.904792 
L 257.526915 96.233023 
Q 259.131861 89.979268 262.48011 87.516506 
Q 265.828359 85.053745 272.856915 85.053745 
Q 280.383558 85.053745 284.202222 88.429665 
Q 287.024713 90.920098 287.024713 97.007824 
Q 287.024713 97.561254 286.96937 99.608943 
Q 281.269045 101.60129 269.20428 103.040207 
Q 263.282583 103.759665 260.349406 104.534467 
Q 256.364713 105.641326 253.182493 107.799701 
Q 250.000273 109.958077 248.035598 113.527698 
Q 246.070922 117.097319 246.070922 121.414069 
Q 246.070922 128.774683 251.273161 133.506506 
Q 256.475399 138.238329 266.160417 138.238329 
Q 272.026771 138.238329 277.145995 136.301326 
Q 282.265218 134.364322 287.799514 129.66017 
M 785.554097 115.381687 
Q 784.502581 122.852986 780.573231 126.450279 
Q 776.643881 130.047571 770.777527 130.047571 
Q 763.472256 130.047571 758.934133 124.679304 
Q 754.396011 119.311037 754.396011 107.467643 
Q 754.396011 95.790279 759.100162 90.39434 
Q 763.804314 84.998402 771.330956 84.998402 
Q 776.311823 84.998402 779.826101 87.986922 
Q 783.340379 90.975441 784.723953 96.897138 
L 794.408971 95.402878 
Q 792.693339 86.492662 786.605613 81.650153 
Q 780.517888 76.807644 770.943556 76.807644 
Q 763.36157 76.807644 756.914115 80.377265 
Q 750.466661 83.946885 747.312112 91.086127 
Q 744.157563 98.225369 744.157563 107.744358 
Q 744.157563 122.465586 751.490505 130.351957 
Q 758.823447 138.238329 770.888213 138.238329 
Q 780.517888 138.238329 787.131372 132.510333 
Q 793.744855 126.782337 795.349801 116.654575 
L 785.554097 115.381687 
M 1068.688681 160.762914 
Q 1076.879439 150.358438 1082.607435 136.412012 
Q 1088.335432 122.465586 1088.335432 107.522986 
Q 1088.335432 94.351362 1084.074024 82.286597 
Q 1079.093157 68.284828 1068.688681 54.393745 
L 1061.549439 54.393745 
Q 1068.30128 66.015766 1070.459656 70.996633 
Q 1073.835576 78.633961 1075.717237 86.935405 
Q 1078.096984 97.173853 1078.096984 107.578329 
Q 1078.096984 134.198293 1061.549439 160.762914 
L 1068.688681 160.762914 
M 161.50688 160.762914 
L 168.646121 160.762914 
Q 152.098576 134.198293 152.098576 107.578329 
Q 152.098576 97.11851 154.478324 86.769376 
Q 156.415327 78.467932 159.791248 70.830604 
Q 161.949623 65.90508 168.646121 54.393745 
L 161.50688 54.393745 
Q 151.102403 68.284828 146.121537 82.286597 
Q 141.860129 94.351362 141.860129 107.522986 
Q 141.860129 122.465586 147.560454 136.412012 
Q 153.260778 150.358438 161.50688 160.762914 
M 498.04742 127.999882 
Q 495.335615 128.387282 493.675326 128.387282 
Q 491.461607 128.387282 490.271734 127.667824 
Q 489.08186 126.948365 488.556102 125.73082 
Q 488.030344 124.513275 488.030344 120.251867 
L 488.030344 85.883889 
L 498.04742 85.883889 
L 498.04742 78.135875 
L 488.030344 78.135875 
L 488.030344 57.603636 
L 478.123954 63.580676 
L 478.123954 78.135875 
L 470.818683 78.135875 
L 470.818683 85.883889 
L 478.123954 85.883889 
L 478.123954 119.698438 
Q 478.123954 128.663997 479.341499 131.458817 
Q 480.559044 134.253636 483.547564 135.969268 
Q 486.536084 137.6849 491.959694 137.6849 
Q 495.280272 137.6849 499.486337 136.799412 
L 498.04742 127.999882 
M 825.6224 127.999882 
Q 822.910595 128.387282 821.250306 128.387282 
Q 819.036588 128.387282 817.846714 127.667824 
Q 816.656841 126.948365 816.131083 125.73082 
Q 815.605325 124.513275 815.605325 120.251867 
L 815.605325 85.883889 
L 825.6224 85.883889 
L 825.6224 78.135875 
L 815.605325 78.135875 
L 815.605325 57.603636 
L 805.698935 63.580676 
L 805.698935 78.135875 
L 798.393664 78.135875 
L 798.393664 85.883889 
L 805.698935 85.883889 
L 805.698935 119.698438 
Q 805.698935 128.663997 806.91648 131.458817 
Q 808.134025 134.253636 811.122545 135.969268 
Q 814.111065 137.6849 819.534675 137.6849 
Q 822.855252 137.6849 827.061317 136.799412 
L 825.6224 127.999882 
M 312.371789 136.910098 
L 322.333521 136.910098 
L 322.333521 106.139412 
Q 322.333521 99.830315 323.99381 94.517391 
Q 325.100669 91.030784 327.701789 89.066109 
Q 330.302908 87.101434 333.568142 87.101434 
Q 337.220778 87.101434 340.873413 89.25981 
L 344.304677 80.017535 
Q 339.102438 76.807644 334.066229 76.807644 
Q 330.579623 76.807644 327.674117 78.79999 
Q 324.768612 80.792337 321.337348 87.046091 
L 321.337348 78.135875 
L 312.371789 78.135875 
L 312.371789 136.910098 
M 646.31121 159.711398 
Q 650.074531 160.762914 654.114567 160.762914 
Q 662.471354 160.762914 666.068646 155.228618 
Q 668.891137 150.96721 668.891137 140.11999 
L 668.891137 78.135875 
L 658.929405 78.135875 
L 658.929405 139.898618 
Q 658.929405 147.97869 657.435145 149.998708 
Q 655.940885 152.018726 652.897022 152.018726 
Q 651.18139 152.018726 648.19287 151.243925 
L 646.31121 159.711398 
M 838.185252 136.910098 
L 849.530559 136.910098 
L 849.530559 125.564791 
L 838.185252 125.564791 
L 838.185252 136.910098 
M 658.929405 67.343997 
L 668.891137 67.343997 
L 668.891137 55.777319 
L 658.929405 55.777319 
L 658.929405 67.343997 
M 516.864026 97.561254 
Q 516.864026 79.242734 525.082456 71.411705 
Q 533.300885 63.580676 544.701535 63.580676 
Q 552.726264 63.580676 559.173719 67.648384 
Q 565.621174 71.716091 568.969423 79.104376 
Q 572.317672 86.492662 572.317672 96.399051 
Q 572.317672 112.061109 564.486643 120.583925 
Q 556.655614 129.106741 544.535506 129.106741 
Q 532.63677 129.106741 524.750398 120.666939 
Q 516.864026 112.227138 516.864026 97.561254 
M 92.438865 106.47147 
L 96.534244 86.381976 
L 113.967277 86.381976 
L 109.816555 106.47147 
L 92.438865 106.47147 
M 1005.542363 106.47147 
Q 1005.542363 95.845622 1010.191172 90.449683 
Q 1014.839981 85.053745 1021.481136 85.053745 
Q 1028.232977 85.053745 1033.020143 90.532698 
Q 1037.807309 96.011651 1037.807309 106.803528 
Q 1037.807309 118.093492 1033.158501 123.378745 
Q 1028.509692 128.663997 1021.647165 128.663997 
Q 1014.729295 128.663997 1010.135829 123.351073 
Q 1005.542363 118.038149 1005.542363 106.47147 
M 356.646157 106.47147 
Q 356.646157 95.845622 361.294965 90.449683 
Q 365.943774 85.053745 372.584929 85.053745 
Q 379.33677 85.053745 384.123936 90.532698 
Q 388.911102 96.011651 388.911102 106.803528 
Q 388.911102 118.093492 384.262294 123.378745 
Q 379.613485 128.663997 372.750958 128.663997 
Q 365.833088 128.663997 361.239622 123.351073 
Q 356.646157 118.038149 356.646157 106.47147 
M 605.025361 107.080243 
Q 605.025361 96.343709 609.784856 90.671055 
Q 614.544351 84.998402 621.07482 84.998402 
Q 627.549946 84.998402 632.11574 90.477355 
Q 636.681535 95.956308 636.681535 107.467643 
Q 636.681535 118.702264 631.92204 124.374918 
Q 627.162545 130.047571 620.632076 130.047571 
Q 612.607347 130.047571 607.903195 122.3549 
Q 605.025361 117.650748 605.025361 107.080243 
M 691.692437 101.878005 
Q 692.190524 94.185333 696.867004 89.591867 
Q 701.543484 84.998402 708.406011 84.998402 
Q 715.987996 84.998402 720.747491 90.75407 
Q 723.846697 94.462048 724.510812 101.878005 
L 691.692437 101.878005 
M 420.788647 101.878005 
Q 421.286734 94.185333 425.963214 89.591867 
Q 430.639694 84.998402 437.502221 84.998402 
Q 445.084207 84.998402 449.843701 90.75407 
Q 452.942907 94.462048 453.607023 101.878005 
L 420.788647 101.878005 
M 973.609475 107.412301 
L 973.609475 111.064936 
Q 973.609475 117.650748 972.00453 121.026669 
Q 969.901497 125.398763 965.418717 127.916867 
Q 960.935938 130.434972 955.18027 130.434972 
Q 949.369259 130.434972 946.353068 127.77851 
Q 943.336876 125.122048 943.336876 121.137355 
Q 943.336876 118.536236 944.72045 116.405532 
Q 946.104024 114.274828 948.649801 113.167968 
Q 951.195577 112.061109 957.338645 111.175622 
Q 968.185865 109.626019 973.609475 107.412301 
M 286.96937 107.412301 
L 286.96937 111.064936 
Q 286.96937 117.650748 285.364424 121.026669 
Q 283.261392 125.398763 278.778612 127.916867 
Q 274.295832 130.434972 268.540164 130.434972 
Q 262.729153 130.434972 259.712962 127.77851 
Q 256.696771 125.122048 256.696771 121.137355 
Q 256.696771 118.536236 258.080345 116.405532 
Q 259.463919 114.274828 262.009695 113.167968 
Q 264.555471 112.061109 270.69854 111.175622 
Q 281.54576 109.626019 286.96937 107.412301 
" clip-path="url(#pc9d1745f37)"/>
   </g>
   <g id="line2d_4">
    <path d="M 581.303087 15.347583 
L 1025.36053 15.347583 
" clip-path="url(#pc9d1745f37)" style="fill: none; stroke: #000000; stroke-width: 0.72; stroke-linecap: square"/>
   </g>
   <g id="patch_5">
    <path d="M 1025.36053 178.299251 
C 1070.35839 178.299251 1106.836364 141.821278 1106.836364 96.823417 
C 1106.836364 51.825557 1070.35839 15.347583 1025.36053 15.347583 
" clip-path="url(#pc9d1745f37)" style="fill: none; stroke: #000000; stroke-width: 0.72; stroke-linejoin: miter"/>
   </g>
   <g id="line2d_5">
    <path d="M 1025.36053 178.299251 
L 141.03947 178.299251 
" clip-path="url(#pc9d1745f37)" style="fill: none; stroke: #000000; stroke-width: 0.72; stroke-linecap: square"/>
   </g>
   <g id="patch_6">
    <path d="M 141.03947 15.347583 
C 96.04161 15.347583 59.563636 51.825557 59.563636 96.823417 
C 59.563636 141.821278 96.04161 178.299251 141.03947 178.299251 
" clip-path="url(#pc9d1745f37)" style="fill: none; stroke: #000000; stroke-width: 0.72; stroke-linejoin: miter"/>
   </g>
   <g id="line2d_6">
    <path d="M 141.03947 15.347583 
L 581.303087 15.347583 
" clip-path="url(#pc9d1745f37)" style="fill: none; stroke: #000000; stroke-width: 0.72; stroke-linecap: square"/>
   </g>
   <g id="patch_7">
    <path d="M 505.795434 97.395225 
Q 505.795434 108.076416 510.444243 117.650748 
Q 515.093051 127.22508 524.113954 132.759376 
Q 533.134856 138.293672 544.590849 138.293672 
Q 555.161354 138.293672 564.292943 133.285134 
Q 573.424531 128.276596 578.405398 118.536236 
Q 583.386264 108.795875 583.386264 96.454394 
Q 583.386264 84.278943 578.654441 74.67694 
Q 573.922618 65.074936 564.901715 59.706669 
Q 555.880813 54.338402 544.646192 54.338402 
Q 527.489874 54.338402 516.642654 65.766723 
Q 505.795434 77.195044 505.795434 97.395225 
M 888.768718 136.910098 
L 899.505252 136.910098 
L 899.505252 65.351651 
L 926.346588 65.351651 
L 926.346588 55.777319 
L 862.038068 55.777319 
L 862.038068 65.351651 
L 888.768718 65.351651 
L 888.768718 136.910098 
M 202.128612 136.910098 
L 212.865146 136.910098 
L 212.865146 65.351651 
L 239.706482 65.351651 
L 239.706482 55.777319 
L 175.397962 55.777319 
L 175.397962 65.351651 
L 202.128612 65.351651 
L 202.128612 136.910098 
M 77.662295 138.293672 
L 85.963739 138.293672 
L 90.778577 114.717571 
L 108.156266 114.717571 
L 103.396771 138.293672 
L 111.698215 138.293672 
L 116.513053 114.717571 
L 133.558685 114.717571 
L 133.558685 106.47147 
L 118.173342 106.47147 
L 122.324064 86.381976 
L 133.558685 86.381976 
L 133.558685 78.135875 
L 123.984353 78.135875 
L 128.79919 54.393745 
L 120.442403 54.393745 
L 115.627566 78.135875 
L 98.194533 78.135875 
L 103.009371 54.393745 
L 94.707927 54.393745 
L 89.893089 78.135875 
L 73.124172 78.135875 
L 73.124172 86.381976 
L 88.2328 86.381976 
L 84.137421 106.47147 
L 73.124172 106.47147 
L 73.124172 114.717571 
L 82.477133 114.717571 
L 77.662295 138.293672 
M 997.296262 141.780279 
Q 997.074891 151.299268 1003.550017 156.031091 
Q 1010.025143 160.762914 1020.540306 160.762914 
Q 1029.395179 160.762914 1035.455233 157.442336 
Q 1041.515287 154.121759 1044.310107 148.393762 
Q 1047.104926 142.665766 1047.104926 128.940712 
L 1047.104926 78.135875 
L 1037.917995 78.135875 
L 1037.917995 85.219774 
Q 1031.166154 76.807644 1020.761677 76.807644 
Q 1012.95832 76.807644 1007.174981 80.681651 
Q 1001.391641 84.555658 998.347779 91.667228 
Q 995.303916 98.778799 995.303916 107.190929 
Q 995.303916 119.421723 1001.945071 128.165911 
Q 1008.586226 136.910098 1020.706335 136.910098 
Q 1030.446695 136.910098 1036.977165 129.217427 
Q 1037.032508 138.957788 1036.257706 142.001651 
Q 1034.929475 146.982517 1031.166154 149.749665 
Q 1027.402833 152.516813 1020.484963 152.516813 
Q 1014.065179 152.516813 1010.357201 149.749665 
Q 1007.590053 147.701975 1006.98128 143.219196 
L 997.296262 141.780279 
M 348.400056 141.780279 
Q 348.178684 151.299268 354.65381 156.031091 
Q 361.128936 160.762914 371.644099 160.762914 
Q 380.498972 160.762914 386.559027 157.442336 
Q 392.619081 154.121759 395.4139 148.393762 
Q 398.20872 142.665766 398.20872 128.940712 
L 398.20872 78.135875 
L 389.021788 78.135875 
L 389.021788 85.219774 
Q 382.269947 76.807644 371.865471 76.807644 
Q 364.062113 76.807644 358.278774 80.681651 
Q 352.495435 84.555658 349.451572 91.667228 
Q 346.407709 98.778799 346.407709 107.190929 
Q 346.407709 119.421723 353.048864 128.165911 
Q 359.69002 136.910098 371.810128 136.910098 
Q 381.550489 136.910098 388.080958 129.217427 
Q 388.136301 138.957788 387.3615 142.001651 
Q 386.033268 146.982517 382.269947 149.749665 
Q 378.506626 152.516813 371.588756 152.516813 
Q 365.168973 152.516813 361.460994 149.749665 
Q 358.693846 147.701975 358.085074 143.219196 
L 348.400056 141.780279 
M 605.136047 136.910098 
L 605.136047 129.549485 
Q 611.057744 138.238329 621.462221 138.238329 
Q 631.92204 138.238329 639.39334 129.992228 
Q 646.864639 121.746127 646.864639 106.637499 
Q 646.864639 100.273059 645.093665 94.68342 
Q 643.32269 89.093781 640.195813 85.136759 
Q 637.068935 81.179737 632.226426 78.993691 
Q 627.383917 76.807644 621.960307 76.807644 
Q 612.164603 76.807644 605.855506 84.721687 
L 605.855506 55.777319 
L 595.893773 55.777319 
L 595.893773 136.910098 
L 605.136047 136.910098 
M 724.400126 117.982806 
Q 722.131065 124.291903 718.257058 127.169737 
Q 714.383051 130.047571 708.904098 130.047571 
Q 701.543484 130.047571 696.61796 124.900676 
Q 691.692437 119.753781 691.139007 110.068763 
L 734.970632 110.068763 
Q 735.025975 108.297788 735.025975 107.412301 
Q 735.025975 92.857102 727.554675 84.832373 
Q 720.083375 76.807644 708.295325 76.807644 
Q 696.119874 76.807644 688.482545 84.998402 
Q 680.845217 93.18916 680.845217 108.021073 
Q 680.845217 122.3549 688.399531 130.296615 
Q 695.953845 138.238329 708.848755 138.238329 
Q 719.087202 138.238329 725.673014 133.257463 
Q 732.258827 128.276596 734.693917 119.255694 
L 724.400126 117.982806 
M 453.496337 117.982806 
Q 451.227275 124.291903 447.353268 127.169737 
Q 443.479261 130.047571 438.000308 130.047571 
Q 430.639694 130.047571 425.714171 124.900676 
Q 420.788647 119.753781 420.235218 110.068763 
L 464.066842 110.068763 
Q 464.122185 108.297788 464.122185 107.412301 
Q 464.122185 92.857102 456.650886 84.832373 
Q 449.179586 76.807644 437.391535 76.807644 
Q 425.216084 76.807644 417.578756 84.998402 
Q 409.941427 93.18916 409.941427 108.021073 
Q 409.941427 122.3549 417.495741 130.296615 
Q 425.050055 138.238329 437.944965 138.238329 
Q 448.183413 138.238329 454.769225 133.257463 
Q 461.355037 128.276596 463.790127 119.255694 
L 453.496337 117.982806 
M 974.43962 129.66017 
Q 974.882364 133.810892 976.431966 136.910098 
L 986.836443 136.910098 
Q 984.954782 133.534178 984.318338 129.853871 
Q 983.681894 126.173564 983.681894 112.282481 
L 983.681894 99.000171 
Q 983.681894 92.359015 983.183808 89.813239 
Q 982.29832 85.71786 980.084602 83.033727 
Q 977.870883 80.349593 973.166732 78.578618 
Q 968.46258 76.807644 960.935938 76.807644 
Q 953.353952 76.807644 947.598284 78.883005 
Q 941.842616 80.958366 938.798754 84.804701 
Q 935.754891 88.651037 934.42666 94.904792 
L 944.167021 96.233023 
Q 945.771967 89.979268 949.120216 87.516506 
Q 952.468465 85.053745 959.497021 85.053745 
Q 967.023663 85.053745 970.842327 88.429665 
Q 973.664818 90.920098 973.664818 97.007824 
Q 973.664818 97.561254 973.609475 99.608943 
Q 967.909151 101.60129 955.844385 103.040207 
Q 949.922689 103.759665 946.989512 104.534467 
Q 943.004819 105.641326 939.822598 107.799701 
Q 936.640378 109.958077 934.675703 113.527698 
Q 932.711028 117.097319 932.711028 121.414069 
Q 932.711028 128.774683 937.913266 133.506506 
Q 943.115504 138.238329 952.800523 138.238329 
Q 958.666876 138.238329 963.7861 136.301326 
Q 968.905324 134.364322 974.43962 129.66017 
M 287.799514 129.66017 
Q 288.242258 133.810892 289.791861 136.910098 
L 300.196337 136.910098 
Q 298.314677 133.534178 297.678233 129.853871 
Q 297.041789 126.173564 297.041789 112.282481 
L 297.041789 99.000171 
Q 297.041789 92.359015 296.543702 89.813239 
Q 295.658215 85.71786 293.444496 83.033727 
Q 291.230778 80.349593 286.526626 78.578618 
Q 281.822475 76.807644 274.295832 76.807644 
Q 266.713847 76.807644 260.958179 78.883005 
Q 255.202511 80.958366 252.158648 84.804701 
Q 249.114785 88.651037 247.786554 94.904792 
L 257.526915 96.233023 
Q 259.131861 89.979268 262.48011 87.516506 
Q 265.828359 85.053745 272.856915 85.053745 
Q 280.383558 85.053745 284.202222 88.429665 
Q 287.024713 90.920098 287.024713 97.007824 
Q 287.024713 97.561254 286.96937 99.608943 
Q 281.269045 101.60129 269.20428 103.040207 
Q 263.282583 103.759665 260.349406 104.534467 
Q 256.364713 105.641326 253.182493 107.799701 
Q 250.000273 109.958077 248.035598 113.527698 
Q 246.070922 117.097319 246.070922 121.414069 
Q 246.070922 128.774683 251.273161 133.506506 
Q 256.475399 138.238329 266.160417 138.238329 
Q 272.026771 138.238329 277.145995 136.301326 
Q 282.265218 134.364322 287.799514 129.66017 
M 785.554097 115.381687 
Q 784.502581 122.852986 780.573231 126.450279 
Q 776.643881 130.047571 770.777527 130.047571 
Q 763.472256 130.047571 758.934133 124.679304 
Q 754.396011 119.311037 754.396011 107.467643 
Q 754.396011 95.790279 759.100162 90.39434 
Q 763.804314 84.998402 771.330956 84.998402 
Q 776.311823 84.998402 779.826101 87.986922 
Q 783.340379 90.975441 784.723953 96.897138 
L 794.408971 95.402878 
Q 792.693339 86.492662 786.605613 81.650153 
Q 780.517888 76.807644 770.943556 76.807644 
Q 763.36157 76.807644 756.914115 80.377265 
Q 750.466661 83.946885 747.312112 91.086127 
Q 744.157563 98.225369 744.157563 107.744358 
Q 744.157563 122.465586 751.490505 130.351957 
Q 758.823447 138.238329 770.888213 138.238329 
Q 780.517888 138.238329 787.131372 132.510333 
Q 793.744855 126.782337 795.349801 116.654575 
L 785.554097 115.381687 
M 1068.688681 160.762914 
Q 1076.879439 150.358438 1082.607435 136.412012 
Q 1088.335432 122.465586 1088.335432 107.522986 
Q 1088.335432 94.351362 1084.074024 82.286597 
Q 1079.093157 68.284828 1068.688681 54.393745 
L 1061.549439 54.393745 
Q 1068.30128 66.015766 1070.459656 70.996633 
Q 1073.835576 78.633961 1075.717237 86.935405 
Q 1078.096984 97.173853 1078.096984 107.578329 
Q 1078.096984 134.198293 1061.549439 160.762914 
L 1068.688681 160.762914 
M 161.50688 160.762914 
L 168.646121 160.762914 
Q 152.098576 134.198293 152.098576 107.578329 
Q 152.098576 97.11851 154.478324 86.769376 
Q 156.415327 78.467932 159.791248 70.830604 
Q 161.949623 65.90508 168.646121 54.393745 
L 161.50688 54.393745 
Q 151.102403 68.284828 146.121537 82.286597 
Q 141.860129 94.351362 141.860129 107.522986 
Q 141.860129 122.465586 147.560454 136.412012 
Q 153.260778 150.358438 161.50688 160.762914 
M 498.04742 127.999882 
Q 495.335615 128.387282 493.675326 128.387282 
Q 491.461607 128.387282 490.271734 127.667824 
Q 489.08186 126.948365 488.556102 125.73082 
Q 488.030344 124.513275 488.030344 120.251867 
L 488.030344 85.883889 
L 498.04742 85.883889 
L 498.04742 78.135875 
L 488.030344 78.135875 
L 488.030344 57.603636 
L 478.123954 63.580676 
L 478.123954 78.135875 
L 470.818683 78.135875 
L 470.818683 85.883889 
L 478.123954 85.883889 
L 478.123954 119.698438 
Q 478.123954 128.663997 479.341499 131.458817 
Q 480.559044 134.253636 483.547564 135.969268 
Q 486.536084 137.6849 491.959694 137.6849 
Q 495.280272 137.6849 499.486337 136.799412 
L 498.04742 127.999882 
M 825.6224 127.999882 
Q 822.910595 128.387282 821.250306 128.387282 
Q 819.036588 128.387282 817.846714 127.667824 
Q 816.656841 126.948365 816.131083 125.73082 
Q 815.605325 124.513275 815.605325 120.251867 
L 815.605325 85.883889 
L 825.6224 85.883889 
L 825.6224 78.135875 
L 815.605325 78.135875 
L 815.605325 57.603636 
L 805.698935 63.580676 
L 805.698935 78.135875 
L 798.393664 78.135875 
L 798.393664 85.883889 
L 805.698935 85.883889 
L 805.698935 119.698438 
Q 805.698935 128.663997 806.91648 131.458817 
Q 808.134025 134.253636 811.122545 135.969268 
Q 814.111065 137.6849 819.534675 137.6849 
Q 822.855252 137.6849 827.061317 136.799412 
L 825.6224 127.999882 
M 312.371789 136.910098 
L 322.333521 136.910098 
L 322.333521 106.139412 
Q 322.333521 99.830315 323.99381 94.517391 
Q 325.100669 91.030784 327.701789 89.066109 
Q 330.302908 87.101434 333.568142 87.101434 
Q 337.220778 87.101434 340.873413 89.25981 
L 344.304677 80.017535 
Q 339.102438 76.807644 334.066229 76.807644 
Q 330.579623 76.807644 327.674117 78.79999 
Q 324.768612 80.792337 321.337348 87.046091 
L 321.337348 78.135875 
L 312.371789 78.135875 
L 312.371789 136.910098 
M 646.31121 159.711398 
Q 650.074531 160.762914 654.114567 160.762914 
Q 662.471354 160.762914 666.068646 155.228618 
Q 668.891137 150.96721 668.891137 140.11999 
L 668.891137 78.135875 
L 658.929405 78.135875 
L 658.929405 139.898618 
Q 658.929405 147.97869 657.435145 149.998708 
Q 655.940885 152.018726 652.897022 152.018726 
Q 651.18139 152.018726 648.19287 151.243925 
L 646.31121 159.711398 
M 838.185252 136.910098 
L 849.530559 136.910098 
L 849.530559 125.564791 
L 838.185252 125.564791 
L 838.185252 136.910098 
M 658.929405 67.343997 
L 668.891137 67.343997 
L 668.891137 55.777319 
L 658.929405 55.777319 
L 658.929405 67.343997 
M 516.864026 97.561254 
Q 516.864026 79.242734 525.082456 71.411705 
Q 533.300885 63.580676 544.701535 63.580676 
Q 552.726264 63.580676 559.173719 67.648384 
Q 565.621174 71.716091 568.969423 79.104376 
Q 572.317672 86.492662 572.317672 96.399051 
Q 572.317672 112.061109 564.486643 120.583925 
Q 556.655614 129.106741 544.535506 129.106741 
Q 532.63677 129.106741 524.750398 120.666939 
Q 516.864026 112.227138 516.864026 97.561254 
M 92.438865 106.47147 
L 96.534244 86.381976 
L 113.967277 86.381976 
L 109.816555 106.47147 
L 92.438865 106.47147 
M 1005.542363 106.47147 
Q 1005.542363 95.845622 1010.191172 90.449683 
Q 1014.839981 85.053745 1021.481136 85.053745 
Q 1028.232977 85.053745 1033.020143 90.532698 
Q 1037.807309 96.011651 1037.807309 106.803528 
Q 1037.807309 118.093492 1033.158501 123.378745 
Q 1028.509692 128.663997 1021.647165 128.663997 
Q 1014.729295 128.663997 1010.135829 123.351073 
Q 1005.542363 118.038149 1005.542363 106.47147 
M 356.646157 106.47147 
Q 356.646157 95.845622 361.294965 90.449683 
Q 365.943774 85.053745 372.584929 85.053745 
Q 379.33677 85.053745 384.123936 90.532698 
Q 388.911102 96.011651 388.911102 106.803528 
Q 388.911102 118.093492 384.262294 123.378745 
Q 379.613485 128.663997 372.750958 128.663997 
Q 365.833088 128.663997 361.239622 123.351073 
Q 356.646157 118.038149 356.646157 106.47147 
M 605.025361 107.080243 
Q 605.025361 96.343709 609.784856 90.671055 
Q 614.544351 84.998402 621.07482 84.998402 
Q 627.549946 84.998402 632.11574 90.477355 
Q 636.681535 95.956308 636.681535 107.467643 
Q 636.681535 118.702264 631.92204 124.374918 
Q 627.162545 130.047571 620.632076 130.047571 
Q 612.607347 130.047571 607.903195 122.3549 
Q 605.025361 117.650748 605.025361 107.080243 
M 691.692437 101.878005 
Q 692.190524 94.185333 696.867004 89.591867 
Q 701.543484 84.998402 708.406011 84.998402 
Q 715.987996 84.998402 720.747491 90.75407 
Q 723.846697 94.462048 724.510812 101.878005 
L 691.692437 101.878005 
M 420.788647 101.878005 
Q 421.286734 94.185333 425.963214 89.591867 
Q 430.639694 84.998402 437.502221 84.998402 
Q 445.084207 84.998402 449.843701 90.75407 
Q 452.942907 94.462048 453.607023 101.878005 
L 420.788647 101.878005 
M 973.609475 107.412301 
L 973.609475 111.064936 
Q 973.609475 117.650748 972.00453 121.026669 
Q 969.901497 125.398763 965.418717 127.916867 
Q 960.935938 130.434972 955.18027 130.434972 
Q 949.369259 130.434972 946.353068 127.77851 
Q 943.336876 125.122048 943.336876 121.137355 
Q 943.336876 118.536236 944.72045 116.405532 
Q 946.104024 114.274828 948.649801 113.167968 
Q 951.195577 112.061109 957.338645 111.175622 
Q 968.185865 109.626019 973.609475 107.412301 
M 286.96937 107.412301 
L 286.96937 111.064936 
Q 286.96937 117.650748 285.364424 121.026669 
Q 283.261392 125.398763 278.778612 127.916867 
Q 274.295832 130.434972 268.540164 130.434972 
Q 262.729153 130.434972 259.712962 127.77851 
Q 256.696771 125.122048 256.696771 121.137355 
Q 256.696771 118.536236 258.080345 116.405532 
Q 259.463919 114.274828 262.009695 113.167968 
Q 264.555471 112.061109 270.69854 111.175622 
Q 281.54576 109.626019 286.96937 107.412301 
" clip-path="url(#pc9d1745f37)"/>
   </g>
   <g id="line2d_7">
    <path d="M 581.303087 15.347583 
L 1025.36053 15.347583 
" clip-path="url(#pc9d1745f37)" style="fill: none; stroke: #000000; stroke-width: 0.72; stroke-linecap: square"/>
   </g>
   <g id="patch_8">
    <path d="M 1025.36053 178.299251 
C 1070.35839 178.299251 1106.836364 141.821278 1106.836364 96.823417 
C 1106.836364 51.825557 1070.35839 15.347583 1025.36053 15.347583 
" clip-path="url(#pc9d1745f37)" style="fill: none; stroke: #000000; stroke-width: 0.72; stroke-linejoin: miter"/>
   </g>
   <g id="line2d_8">
    <path d="M 1025.36053 178.299251 
L 141.03947 178.299251 
" clip-path="url(#pc9d1745f37)" style="fill: none; stroke: #000000; stroke-width: 0.72; stroke-linecap: square"/>
   </g>
   <g id="patch_9">
    <path d="M 141.03947 15.347583 
C 96.04161 15.347583 59.563636 51.825557 59.563636 96.823417 
C 59.563636 141.821278 96.04161 178.299251 141.03947 178.299251 
" clip-path="url(#pc9d1745f37)" style="fill: none; stroke: #000000; stroke-width: 0.72; stroke-linejoin: miter"/>
   </g>
   <g id="line2d_9">
    <path d="M 141.03947 15.347583 
L 581.303087 15.347583 
" clip-path="url(#pc9d1745f37)" style="fill: none; stroke: #000000; stroke-width: 0.72; stroke-linecap: square"/>
   </g>
   <g id="patch_10">
    <path d="M 505.795434 97.395225 
Q 505.795434 108.076416 510.444243 117.650748 
Q 515.093051 127.22508 524.113954 132.759376 
Q 533.134856 138.293672 544.590849 138.293672 
Q 555.161354 138.293672 564.292943 133.285134 
Q 573.424531 128.276596 578.405398 118.536236 
Q 583.386264 108.795875 583.386264 96.454394 
Q 583.386264 84.278943 578.654441 74.67694 
Q 573.922618 65.074936 564.901715 59.706669 
Q 555.880813 54.338402 544.646192 54.338402 
Q 527.489874 54.338402 516.642654 65.766723 
Q 505.795434 77.195044 505.795434 97.395225 
M 888.768718 136.910098 
L 899.505252 136.910098 
L 899.505252 65.351651 
L 926.346588 65.351651 
L 926.346588 55.777319 
L 862.038068 55.777319 
L 862.038068 65.351651 
L 888.768718 65.351651 
L 888.768718 136.910098 
M 202.128612 136.910098 
L 212.865146 136.910098 
L 212.865146 65.351651 
L 239.706482 65.351651 
L 239.706482 55.777319 
L 175.397962 55.777319 
L 175.397962 65.351651 
L 202.128612 65.351651 
L 202.128612 136.910098 
M 77.662295 138.293672 
L 85.963739 138.293672 
L 90.778577 114.717571 
L 108.156266 114.717571 
L 103.396771 138.293672 
L 111.698215 138.293672 
L 116.513053 114.717571 
L 133.558685 114.717571 
L 133.558685 106.47147 
L 118.173342 106.47147 
L 122.324064 86.381976 
L 133.558685 86.381976 
L 133.558685 78.135875 
L 123.984353 78.135875 
L 128.79919 54.393745 
L 120.442403 54.393745 
L 115.627566 78.135875 
L 98.194533 78.135875 
L 103.009371 54.393745 
L 94.707927 54.393745 
L 89.893089 78.135875 
L 73.124172 78.135875 
L 73.124172 86.381976 
L 88.2328 86.381976 
L 84.137421 106.47147 
L 73.124172 106.47147 
L 73.124172 114.717571 
L 82.477133 114.717571 
L 77.662295 138.293672 
M 997.296262 141.780279 
Q 997.074891 151.299268 1003.550017 156.031091 
Q 1010.025143 160.762914 1020.540306 160.762914 
Q 1029.395179 160.762914 1035.455233 157.442336 
Q 1041.515287 154.121759 1044.310107 148.393762 
Q 1047.104926 142.665766 1047.104926 128.940712 
L 1047.104926 78.135875 
L 1037.917995 78.135875 
L 1037.917995 85.219774 
Q 1031.166154 76.807644 1020.761677 76.807644 
Q 1012.95832 76.807644 1007.174981 80.681651 
Q 1001.391641 84.555658 998.347779 91.667228 
Q 995.303916 98.778799 995.303916 107.190929 
Q 995.303916 119.421723 1001.945071 128.165911 
Q 1008.586226 136.910098 1020.706335 136.910098 
Q 1030.446695 136.910098 1036.977165 129.217427 
Q 1037.032508 138.957788 1036.257706 142.001651 
Q 1034.929475 146.982517 1031.166154 149.749665 
Q 1027.402833 152.516813 1020.484963 152.516813 
Q 1014.065179 152.516813 1010.357201 149.749665 
Q 1007.590053 147.701975 1006.98128 143.219196 
L 997.296262 141.780279 
M 348.400056 141.780279 
Q 348.178684 151.299268 354.65381 156.031091 
Q 361.128936 160.762914 371.644099 160.762914 
Q 380.498972 160.762914 386.559027 157.442336 
Q 392.619081 154.121759 395.4139 148.393762 
Q 398.20872 142.665766 398.20872 128.940712 
L 398.20872 78.135875 
L 389.021788 78.135875 
L 389.021788 85.219774 
Q 382.269947 76.807644 371.865471 76.807644 
Q 364.062113 76.807644 358.278774 80.681651 
Q 352.495435 84.555658 349.451572 91.667228 
Q 346.407709 98.778799 346.407709 107.190929 
Q 346.407709 119.421723 353.048864 128.165911 
Q 359.69002 136.910098 371.810128 136.910098 
Q 381.550489 136.910098 388.080958 129.217427 
Q 388.136301 138.957788 387.3615 142.001651 
Q 386.033268 146.982517 382.269947 149.749665 
Q 378.506626 152.516813 371.588756 152.516813 
Q 365.168973 152.516813 361.460994 149.749665 
Q 358.693846 147.701975 358.085074 143.219196 
L 348.400056 141.780279 
M 605.136047 136.910098 
L 605.136047 129.549485 
Q 611.057744 138.238329 621.462221 138.238329 
Q 631.92204 138.238329 639.39334 129.992228 
Q 646.864639 121.746127 646.864639 106.637499 
Q 646.864639 100.273059 645.093665 94.68342 
Q 643.32269 89.093781 640.195813 85.136759 
Q 637.068935 81.179737 632.226426 78.993691 
Q 627.383917 76.807644 621.960307 76.807644 
Q 612.164603 76.807644 605.855506 84.721687 
L 605.855506 55.777319 
L 595.893773 55.777319 
L 595.893773 136.910098 
L 605.136047 136.910098 
M 724.400126 117.982806 
Q 722.131065 124.291903 718.257058 127.169737 
Q 714.383051 130.047571 708.904098 130.047571 
Q 701.543484 130.047571 696.61796 124.900676 
Q 691.692437 119.753781 691.139007 110.068763 
L 734.970632 110.068763 
Q 735.025975 108.297788 735.025975 107.412301 
Q 735.025975 92.857102 727.554675 84.832373 
Q 720.083375 76.807644 708.295325 76.807644 
Q 696.119874 76.807644 688.482545 84.998402 
Q 680.845217 93.18916 680.845217 108.021073 
Q 680.845217 122.3549 688.399531 130.296615 
Q 695.953845 138.238329 708.848755 138.238329 
Q 719.087202 138.238329 725.673014 133.257463 
Q 732.258827 128.276596 734.693917 119.255694 
L 724.400126 117.982806 
M 453.496337 117.982806 
Q 451.227275 124.291903 447.353268 127.169737 
Q 443.479261 130.047571 438.000308 130.047571 
Q 430.639694 130.047571 425.714171 124.900676 
Q 420.788647 119.753781 420.235218 110.068763 
L 464.066842 110.068763 
Q 464.122185 108.297788 464.122185 107.412301 
Q 464.122185 92.857102 456.650886 84.832373 
Q 449.179586 76.807644 437.391535 76.807644 
Q 425.216084 76.807644 417.578756 84.998402 
Q 409.941427 93.18916 409.941427 108.021073 
Q 409.941427 122.3549 417.495741 130.296615 
Q 425.050055 138.238329 437.944965 138.238329 
Q 448.183413 138.238329 454.769225 133.257463 
Q 461.355037 128.276596 463.790127 119.255694 
L 453.496337 117.982806 
M 974.43962 129.66017 
Q 974.882364 133.810892 976.431966 136.910098 
L 986.836443 136.910098 
Q 984.954782 133.534178 984.318338 129.853871 
Q 983.681894 126.173564 983.681894 112.282481 
L 983.681894 99.000171 
Q 983.681894 92.359015 983.183808 89.813239 
Q 982.29832 85.71786 980.084602 83.033727 
Q 977.870883 80.349593 973.166732 78.578618 
Q 968.46258 76.807644 960.935938 76.807644 
Q 953.353952 76.807644 947.598284 78.883005 
Q 941.842616 80.958366 938.798754 84.804701 
Q 935.754891 88.651037 934.42666 94.904792 
L 944.167021 96.233023 
Q 945.771967 89.979268 949.120216 87.516506 
Q 952.468465 85.053745 959.497021 85.053745 
Q 967.023663 85.053745 970.842327 88.429665 
Q 973.664818 90.920098 973.664818 97.007824 
Q 973.664818 97.561254 973.609475 99.608943 
Q 967.909151 101.60129 955.844385 103.040207 
Q 949.922689 103.759665 946.989512 104.534467 
Q 943.004819 105.641326 939.822598 107.799701 
Q 936.640378 109.958077 934.675703 113.527698 
Q 932.711028 117.097319 932.711028 121.414069 
Q 932.711028 128.774683 937.913266 133.506506 
Q 943.115504 138.238329 952.800523 138.238329 
Q 958.666876 138.238329 963.7861 136.301326 
Q 968.905324 134.364322 974.43962 129.66017 
M 287.799514 129.66017 
Q 288.242258 133.810892 289.791861 136.910098 
L 300.196337 136.910098 
Q 298.314677 133.534178 297.678233 129.853871 
Q 297.041789 126.173564 297.041789 112.282481 
L 297.041789 99.000171 
Q 297.041789 92.359015 296.543702 89.813239 
Q 295.658215 85.71786 293.444496 83.033727 
Q 291.230778 80.349593 286.526626 78.578618 
Q 281.822475 76.807644 274.295832 76.807644 
Q 266.713847 76.807644 260.958179 78.883005 
Q 255.202511 80.958366 252.158648 84.804701 
Q 249.114785 88.651037 247.786554 94.904792 
L 257.526915 96.233023 
Q 259.131861 89.979268 262.48011 87.516506 
Q 265.828359 85.053745 272.856915 85.053745 
Q 280.383558 85.053745 284.202222 88.429665 
Q 287.024713 90.920098 287.024713 97.007824 
Q 287.024713 97.561254 286.96937 99.608943 
Q 281.269045 101.60129 269.20428 103.040207 
Q 263.282583 103.759665 260.349406 104.534467 
Q 256.364713 105.641326 253.182493 107.799701 
Q 250.000273 109.958077 248.035598 113.527698 
Q 246.070922 117.097319 246.070922 121.414069 
Q 246.070922 128.774683 251.273161 133.506506 
Q 256.475399 138.238329 266.160417 138.238329 
Q 272.026771 138.238329 277.145995 136.301326 
Q 282.265218 134.364322 287.799514 129.66017 
M 785.554097 115.381687 
Q 784.502581 122.852986 780.573231 126.450279 
Q 776.643881 130.047571 770.777527 130.047571 
Q 763.472256 130.047571 758.934133 124.679304 
Q 754.396011 119.311037 754.396011 107.467643 
Q 754.396011 95.790279 759.100162 90.39434 
Q 763.804314 84.998402 771.330956 84.998402 
Q 776.311823 84.998402 779.826101 87.986922 
Q 783.340379 90.975441 784.723953 96.897138 
L 794.408971 95.402878 
Q 792.693339 86.492662 786.605613 81.650153 
Q 780.517888 76.807644 770.943556 76.807644 
Q 763.36157 76.807644 756.914115 80.377265 
Q 750.466661 83.946885 747.312112 91.086127 
Q 744.157563 98.225369 744.157563 107.744358 
Q 744.157563 122.465586 751.490505 130.351957 
Q 758.823447 138.238329 770.888213 138.238329 
Q 780.517888 138.238329 787.131372 132.510333 
Q 793.744855 126.782337 795.349801 116.654575 
L 785.554097 115.381687 
M 1068.688681 160.762914 
Q 1076.879439 150.358438 1082.607435 136.412012 
Q 1088.335432 122.465586 1088.335432 107.522986 
Q 1088.335432 94.351362 1084.074024 82.286597 
Q 1079.093157 68.284828 1068.688681 54.393745 
L 1061.549439 54.393745 
Q 1068.30128 66.015766 1070.459656 70.996633 
Q 1073.835576 78.633961 1075.717237 86.935405 
Q 1078.096984 97.173853 1078.096984 107.578329 
Q 1078.096984 134.198293 1061.549439 160.762914 
L 1068.688681 160.762914 
M 161.50688 160.762914 
L 168.646121 160.762914 
Q 152.098576 134.198293 152.098576 107.578329 
Q 152.098576 97.11851 154.478324 86.769376 
Q 156.415327 78.467932 159.791248 70.830604 
Q 161.949623 65.90508 168.646121 54.393745 
L 161.50688 54.393745 
Q 151.102403 68.284828 146.121537 82.286597 
Q 141.860129 94.351362 141.860129 107.522986 
Q 141.860129 122.465586 147.560454 136.412012 
Q 153.260778 150.358438 161.50688 160.762914 
M 498.04742 127.999882 
Q 495.335615 128.387282 493.675326 128.387282 
Q 491.461607 128.387282 490.271734 127.667824 
Q 489.08186 126.948365 488.556102 125.73082 
Q 488.030344 124.513275 488.030344 120.251867 
L 488.030344 85.883889 
L 498.04742 85.883889 
L 498.04742 78.135875 
L 488.030344 78.135875 
L 488.030344 57.603636 
L 478.123954 63.580676 
L 478.123954 78.135875 
L 470.818683 78.135875 
L 470.818683 85.883889 
L 478.123954 85.883889 
L 478.123954 119.698438 
Q 478.123954 128.663997 479.341499 131.458817 
Q 480.559044 134.253636 483.547564 135.969268 
Q 486.536084 137.6849 491.959694 137.6849 
Q 495.280272 137.6849 499.486337 136.799412 
L 498.04742 127.999882 
M 825.6224 127.999882 
Q 822.910595 128.387282 821.250306 128.387282 
Q 819.036588 128.387282 817.846714 127.667824 
Q 816.656841 126.948365 816.131083 125.73082 
Q 815.605325 124.513275 815.605325 120.251867 
L 815.605325 85.883889 
L 825.6224 85.883889 
L 825.6224 78.135875 
L 815.605325 78.135875 
L 815.605325 57.603636 
L 805.698935 63.580676 
L 805.698935 78.135875 
L 798.393664 78.135875 
L 798.393664 85.883889 
L 805.698935 85.883889 
L 805.698935 119.698438 
Q 805.698935 128.663997 806.91648 131.458817 
Q 808.134025 134.253636 811.122545 135.969268 
Q 814.111065 137.6849 819.534675 137.6849 
Q 822.855252 137.6849 827.061317 136.799412 
L 825.6224 127.999882 
M 312.371789 136.910098 
L 322.333521 136.910098 
L 322.333521 106.139412 
Q 322.333521 99.830315 323.99381 94.517391 
Q 325.100669 91.030784 327.701789 89.066109 
Q 330.302908 87.101434 333.568142 87.101434 
Q 337.220778 87.101434 340.873413 89.25981 
L 344.304677 80.017535 
Q 339.102438 76.807644 334.066229 76.807644 
Q 330.579623 76.807644 327.674117 78.79999 
Q 324.768612 80.792337 321.337348 87.046091 
L 321.337348 78.135875 
L 312.371789 78.135875 
L 312.371789 136.910098 
M 646.31121 159.711398 
Q 650.074531 160.762914 654.114567 160.762914 
Q 662.471354 160.762914 666.068646 155.228618 
Q 668.891137 150.96721 668.891137 140.11999 
L 668.891137 78.135875 
L 658.929405 78.135875 
L 658.929405 139.898618 
Q 658.929405 147.97869 657.435145 149.998708 
Q 655.940885 152.018726 652.897022 152.018726 
Q 651.18139 152.018726 648.19287 151.243925 
L 646.31121 159.711398 
M 838.185252 136.910098 
L 849.530559 136.910098 
L 849.530559 125.564791 
L 838.185252 125.564791 
L 838.185252 136.910098 
M 658.929405 67.343997 
L 668.891137 67.343997 
L 668.891137 55.777319 
L 658.929405 55.777319 
L 658.929405 67.343997 
M 516.864026 97.561254 
Q 516.864026 79.242734 525.082456 71.411705 
Q 533.300885 63.580676 544.701535 63.580676 
Q 552.726264 63.580676 559.173719 67.648384 
Q 565.621174 71.716091 568.969423 79.104376 
Q 572.317672 86.492662 572.317672 96.399051 
Q 572.317672 112.061109 564.486643 120.583925 
Q 556.655614 129.106741 544.535506 129.106741 
Q 532.63677 129.106741 524.750398 120.666939 
Q 516.864026 112.227138 516.864026 97.561254 
M 92.438865 106.47147 
L 96.534244 86.381976 
L 113.967277 86.381976 
L 109.816555 106.47147 
L 92.438865 106.47147 
M 1005.542363 106.47147 
Q 1005.542363 95.845622 1010.191172 90.449683 
Q 1014.839981 85.053745 1021.481136 85.053745 
Q 1028.232977 85.053745 1033.020143 90.532698 
Q 1037.807309 96.011651 1037.807309 106.803528 
Q 1037.807309 118.093492 1033.158501 123.378745 
Q 1028.509692 128.663997 1021.647165 128.663997 
Q 1014.729295 128.663997 1010.135829 123.351073 
Q 1005.542363 118.038149 1005.542363 106.47147 
M 356.646157 106.47147 
Q 356.646157 95.845622 361.294965 90.449683 
Q 365.943774 85.053745 372.584929 85.053745 
Q 379.33677 85.053745 384.123936 90.532698 
Q 388.911102 96.011651 388.911102 106.803528 
Q 388.911102 118.093492 384.262294 123.378745 
Q 379.613485 128.663997 372.750958 128.663997 
Q 365.833088 128.663997 361.239622 123.351073 
Q 356.646157 118.038149 356.646157 106.47147 
M 605.025361 107.080243 
Q 605.025361 96.343709 609.784856 90.671055 
Q 614.544351 84.998402 621.07482 84.998402 
Q 627.549946 84.998402 632.11574 90.477355 
Q 636.681535 95.956308 636.681535 107.467643 
Q 636.681535 118.702264 631.92204 124.374918 
Q 627.162545 130.047571 620.632076 130.047571 
Q 612.607347 130.047571 607.903195 122.3549 
Q 605.025361 117.650748 605.025361 107.080243 
M 691.692437 101.878005 
Q 692.190524 94.185333 696.867004 89.591867 
Q 701.543484 84.998402 708.406011 84.998402 
Q 715.987996 84.998402 720.747491 90.75407 
Q 723.846697 94.462048 724.510812 101.878005 
L 691.692437 101.878005 
M 420.788647 101.878005 
Q 421.286734 94.185333 425.963214 89.591867 
Q 430.639694 84.998402 437.502221 84.998402 
Q 445.084207 84.998402 449.843701 90.75407 
Q 452.942907 94.462048 453.607023 101.878005 
L 420.788647 101.878005 
M 973.609475 107.412301 
L 973.609475 111.064936 
Q 973.609475 117.650748 972.00453 121.026669 
Q 969.901497 125.398763 965.418717 127.916867 
Q 960.935938 130.434972 955.18027 130.434972 
Q 949.369259 130.434972 946.353068 127.77851 
Q 943.336876 125.122048 943.336876 121.137355 
Q 943.336876 118.536236 944.72045 116.405532 
Q 946.104024 114.274828 948.649801 113.167968 
Q 951.195577 112.061109 957.338645 111.175622 
Q 968.185865 109.626019 973.609475 107.412301 
M 286.96937 107.412301 
L 286.96937 111.064936 
Q 286.96937 117.650748 285.364424 121.026669 
Q 283.261392 125.398763 278.778612 127.916867 
Q 274.295832 130.434972 268.540164 130.434972 
Q 262.729153 130.434972 259.712962 127.77851 
Q 256.696771 125.122048 256.696771 121.137355 
Q 256.696771 118.536236 258.080345 116.405532 
Q 259.463919 114.274828 262.009695 113.167968 
Q 264.555471 112.061109 270.69854 111.175622 
Q 281.54576 109.626019 286.96937 107.412301 
" clip-path="url(#pc9d1745f37)"/>
   </g>
  </g>
 </g>
 <defs>
  <clipPath id="pc9d1745f37">
   <rect x="7.2" y="7.2" width="1152" height="179.246835"/>
  </clipPath>
 </defs>
</svg>
