<?xml version="1.0" encoding="utf-8" standalone="no"?>
<!DOCTYPE svg PUBLIC "-//W3C//DTD SVG 1.1//EN"
  "http://www.w3.org/Graphics/SVG/1.1/DTD/svg11.dtd">
<svg xmlns:xlink="http://www.w3.org/1999/xlink" width="302.4pt" height="878.4pt" viewBox="0 0 302.4 878.4" xmlns="http://www.w3.org/2000/svg" version="1.1">
 <metadata>
  <rdf:RDF xmlns:dc="http://purl.org/dc/elements/1.1/" xmlns:cc="http://creativecommons.org/ns#" xmlns:rdf="http://www.w3.org/1999/02/22-rdf-syntax-ns#">
   <cc:Work>
    <dc:type rdf:resource="http://purl.org/dc/dcmitype/StillImage"/>
    <dc:date>2026-02-17T12:14:34.719593</dc:date>
    <dc:format>image/svg+xml</dc:format>
    <dc:creator>
     <cc:Agent>
      <dc:title>Matplotlib v3.10.8, https://matplotlib.org/</dc:title>
     </cc:Agent>
    </dc:creator>
   </cc:Work>
  </rdf:RDF>
 </metadata>
 <defs>
  <style type="text/css">*{stroke-linejoin: round; stroke-linecap: butt}</style>
 </defs>
 <g id="figure_1">
  <g id="patch_1">
   <path d="M 0 878.4 
L 302.4 878.4 
L 302.4 0 
L 0 0 
L 0 878.4 
z
" style="fill: none"/>
  </g>
  <g id="axes_1">
   <g id="patch_2">
    <path d="M 151.2 831.927273 
L 151.2 308.290909 
L 20.290909 308.290909 
L 20.290909 46.472727 
L 282.109091 46.472727 
L 282.109091 308.290909 
L 151.2 308.290909 
" clip-path="url(#p9b63709d42)" style="fill: none; stroke: #000000; stroke-width: 0.72; stroke-linejoin: miter"/>
   </g>
   <g id="patch_3">
    <path d="M 95.003727 184.525561 
L 112.425882 182.620563 
Q 113.663521 195.717425 118.185665 204.111323 
Q 122.707809 212.505221 132.228112 217.684435 
Q 141.748415 222.863649 153.648794 222.863649 
Q 164.216331 222.863649 172.308589 218.93459 
Q 180.400846 215.005531 184.351772 208.159444 
Q 188.302698 201.313357 188.302698 193.217115 
Q 188.302698 185.001811 184.494577 178.870098 
Q 180.686456 172.738385 171.927777 168.571202 
Q 166.310798 165.832767 147.079785 160.058241 
Q 127.848773 154.283716 120.137327 149.164033 
Q 110.141009 142.615602 105.238053 132.912018 
Q 100.335097 123.208434 100.335097 111.183133 
Q 100.335097 97.967208 106.332888 86.477688 
Q 112.330679 74.988168 123.850245 69.035049 
Q 135.369812 63.08193 149.459861 63.08193 
Q 164.977955 63.08193 176.830733 69.332705 
Q 188.68351 75.58348 195.062113 87.727843 
Q 201.440717 99.872206 201.916732 115.231254 
L 184.208968 116.898127 
Q 182.780922 100.348456 174.54586 91.895027 
Q 166.310798 83.441597 150.221485 83.441597 
Q 133.465752 83.441597 125.801908 91.121121 
Q 118.138064 98.800645 118.138064 109.635322 
Q 118.138064 119.04125 123.564636 125.113432 
Q 128.896006 131.185613 151.411523 137.555451 
Q 173.92704 143.925288 182.304907 148.687784 
Q 194.490895 155.712464 200.29828 166.48761 
Q 206.105665 177.262756 206.105665 191.312117 
Q 206.105665 205.242416 199.727062 217.565373 
Q 193.348459 229.888329 181.400478 236.734416 
Q 169.452498 243.580504 154.505622 243.580504 
Q 135.560218 243.580504 122.755411 236.674885 
Q 109.950603 229.769267 102.667571 215.898499 
Q 95.384539 202.027732 95.003727 184.525561 
" clip-path="url(#p9b63709d42)"/>
   </g>
  </g>
 </g>
 <defs>
  <clipPath id="p9b63709d42">
   <rect x="7.2" y="7.2" width="288" height="864"/>
  </clipPath>
 </defs>
</svg>
