<?xml version="1.0" encoding="utf-8" standalone="no"?>
<!DOCTYPE svg PUBLIC "-//W3C//DTD SVG 1.1//EN"
  "http://www.w3.org/Graphics/SVG/1.1/DTD/svg11.dtd">
<svg xmlns:xlink="http://www.w3.org/1999/xlink" width="302.4pt" height="705.6pt" viewBox="0 0 302.4 705.6" xmlns="http://www.w3.org/2000/svg" version="1.1">
 <metadata>
  <rdf:RDF xmlns:dc="http://purl.org/dc/elements/1.1/" xmlns:cc="http://creativecommons.org/ns#" xmlns:rdf="http://www.w3.org/1999/02/22-rdf-syntax-ns#">
   <cc:Work>
    <dc:type rdf:resource="http://purl.org/dc/dcmitype/StillImage"/>
    <dc:date>2026-02-17T12:14:34.625769</dc:date>
    <dc:format>image/svg+xml</dc:format>
    <dc:creator>
     <cc:Agent>
      <dc:title>Matplotlib v3.10.8, https://matplotlib.org/</dc:title>
     </cc:Agent>
    </dc:creator>
   </cc:Work>
  </rdf:RDF>
 </metadata>
 <defs>
  <style type="text/css">*{stroke-linejoin: round; stroke-linecap: butt}</style>
 </defs>
 <g id="figure_1">
  <g id="patch_1">
   <path d="M 0 705.6 
L 302.4 705.6 
L 302.4 0 
L 0 0 
L 0 705.6 
z
" style="fill: none"/>
  </g>
  <g id="axes_1">
   <g id="patch_2">
    <path d="M 169.364964 198.888225 
L 178.089499 198.888225 
L 178.089499 160.680281 
L 212.358034 160.680281 
L 212.358034 198.888225 
L 221.082569 198.888225 
L 221.082569 117.827667 
L 212.358034 117.827667 
L 212.358034 151.114472 
L 178.089499 151.114472 
L 178.089499 117.827667 
L 169.364964 117.827667 
L 169.364964 198.888225 
M 82.254527 198.888225 
L 131.45371 198.888225 
L 131.45371 189.322416 
L 90.979062 189.322416 
L 90.979062 161.730862 
L 127.451217 161.730862 
L 127.451217 152.220346 
L 90.979062 152.220346 
L 90.979062 127.393476 
L 129.924668 127.393476 
L 129.924668 117.827667 
L 82.254527 117.827667 
L 82.254527 198.888225 
M 136.400611 200.270568 
L 142.921527 200.270568 
L 161.989583 116.445325 
L 155.51364 116.445325 
L 136.400611 200.270568 
" clip-path="url(#p2a1235f88a)"/>
   </g>
   <g id="patch_3">
    <path d="M 282.109091 169.527273 
C 282.109091 241.826367 223.499095 300.436364 151.2 300.436364 
C 78.900905 300.436364 20.290909 241.826367 20.290909 169.527273 
C 20.290909 97.228178 78.900905 38.618182 151.2 38.618182 
C 223.499095 38.618182 282.109091 97.228178 282.109091 169.527273 
" clip-path="url(#p2a1235f88a)" style="fill: none; stroke: #000000; stroke-width: 0.72; stroke-linejoin: miter"/>
   </g>
   <g id="line2d_1">
    <path d="M 151.2 666.981818 
L 151.2 300.436364 
" clip-path="url(#p2a1235f88a)" style="fill: none; stroke: #000000; stroke-width: 0.72; stroke-linecap: square"/>
   </g>
  </g>
 </g>
 <defs>
  <clipPath id="p2a1235f88a">
   <rect x="7.2" y="7.2" width="288" height="691.2"/>
  </clipPath>
 </defs>
</svg>
