<?xml version="1.0" encoding="utf-8" standalone="no"?>
<!DOCTYPE svg PUBLIC "-//W3C//DTD SVG 1.1//EN"
  "http://www.w3.org/Graphics/SVG/1.1/DTD/svg11.dtd">
<svg xmlns:xlink="http://www.w3.org/1999/xlink" width="302.4pt" height="374.400004pt" viewBox="0 0 302.4 374.400004" xmlns="http://www.w3.org/2000/svg" version="1.1">
 <metadata>
  <rdf:RDF xmlns:dc="http://purl.org/dc/elements/1.1/" xmlns:cc="http://creativecommons.org/ns#" xmlns:rdf="http://www.w3.org/1999/02/22-rdf-syntax-ns#">
   <cc:Work>
    <dc:type rdf:resource="http://purl.org/dc/dcmitype/StillImage"/>
    <dc:date>2026-02-17T12:14:35.290900</dc:date>
    <dc:format>image/svg+xml</dc:format>
    <dc:creator>
     <cc:Agent>
      <dc:title>Matplotlib v3.10.8, https://matplotlib.org/</dc:title>
     </cc:Agent>
    </dc:creator>
   </cc:Work>
  </rdf:RDF>
 </metadata>
 <defs>
  <style type="text/css">*{stroke-linejoin: round; stroke-linecap: butt}</style>
 </defs>
 <g id="figure_1">
  <g id="patch_1">
   <path d="M 0 374.400004 
L 302.4 374.400004 
L 302.4 0 
L 0 0 
L 0 374.400004 
z
" style="fill: none"/>
  </g>
  <g id="axes_1">
   <g id="line2d_1">
    <path d="M 85.745455 115.2 
L 216.654545 115.2 
" clip-path="url(#p660c5e3421)" style="fill: none; stroke: #000000; stroke-width: 0.72; stroke-linecap: square"/>
   </g>
   <g id="line2d_2">
    <path d="M 151.2 350.836364 
L 151.2 167.563637 
" clip-path="url(#p660c5e3421)" style="fill: none; stroke: #000000; stroke-width: 0.72; stroke-linecap: square"/>
   </g>
   <g id="patch_2">
    <path d="M 216.654546 115.2 
C 216.652312 118.643688 216.229962 122.074243 215.396855 125.415639 
C 214.543173 128.824223 213.293071 132.12105 211.672115 135.238696 
C 209.991295 138.467447 207.963068 141.503085 205.623466 144.291678 
C 203.181893 147.201882 200.454905 149.860157 197.483353 152.226683 
C 194.383769 154.696916 191.063529 156.876796 187.564597 158.738773 
C 183.937342 160.671346 180.151475 162.290216 176.24837 163.577692 
C 172.242751 164.901393 168.13634 165.897926 163.969548 166.557484 
C 159.746141 167.228373 155.476361 167.564803 151.2 167.563637 
C 146.923639 167.564803 142.653859 167.228373 138.430452 166.557484 
C 134.26366 165.897926 130.157249 164.901393 126.15163 163.577692 
C 122.248525 162.290216 118.462658 160.671346 114.835403 158.738773 
C 111.336471 156.876796 108.016231 154.696916 104.916647 152.226683 
C 101.945095 149.860157 99.218107 147.201882 96.776534 144.291678 
C 94.436932 141.503085 92.408705 138.467447 90.727885 135.238696 
C 89.106929 132.12105 87.856827 128.824223 87.003145 125.415639 
C 86.170038 122.074243 85.747688 118.643688 85.745454 115.2 
" clip-path="url(#p660c5e3421)" style="fill: none; stroke: #000000; stroke-width: 0.72; stroke-linejoin: miter"/>
   </g>
   <g id="patch_3">
    <path d="M 216.654546 115.2 
C 216.652312 111.756312 216.229962 108.325757 215.396855 104.984361 
C 214.543173 101.575777 213.293071 98.27895 211.672115 95.161304 
C 209.991295 91.932553 207.963068 88.896915 205.623466 86.108323 
C 203.181893 83.198119 200.454905 80.539843 197.483353 78.173318 
C 194.383769 75.703084 191.063529 73.523204 187.564597 71.661228 
C 183.937342 69.728654 180.151475 68.109784 176.24837 66.822308 
C 172.242751 65.498607 168.13634 64.502074 163.969548 63.842516 
C 159.746141 63.171627 155.476361 62.835198 151.2 62.836364 
C 146.923639 62.835198 142.653859 63.171627 138.430452 63.842516 
C 134.26366 64.502074 130.157249 65.498607 126.15163 66.822308 
C 122.248525 68.109784 118.462658 69.728654 114.835403 71.661228 
C 111.336471 73.523204 108.016231 75.703084 104.916647 78.173318 
C 101.945095 80.539843 99.218107 83.198119 96.776534 86.108323 
C 94.436932 88.896915 92.408705 91.932553 90.727885 95.161304 
C 89.106929 98.27895 87.856827 101.575777 87.003145 104.984361 
C 86.170038 108.325757 85.747688 111.756312 85.745454 115.2 
" clip-path="url(#p660c5e3421)" style="fill: none; stroke: #000000; stroke-width: 0.72; stroke-linejoin: miter"/>
   </g>
   <g id="line2d_3">
    <path d="M 151.2 62.836364 
L 151.2 23.56364 
" clip-path="url(#p660c5e3421)" style="fill: none; stroke: #000000; stroke-width: 0.72; stroke-linecap: square"/>
   </g>
   <g id="line2d_4">
    <path d="M 20.290909 23.56364 
L 151.200005 23.56364 
" clip-path="url(#p660c5e3421)" style="fill: none; stroke: #000000; stroke-width: 0.72; stroke-linecap: square"/>
   </g>
   <g id="line2d_5">
    <path d="M 20.290909 23.563637 
L 20.290909 121.745455 
" clip-path="url(#p660c5e3421)" style="fill: none; stroke: #000000; stroke-width: 0.72; stroke-linecap: square"/>
   </g>
   <g id="line2d_6">
    <path d="M 20.290909 121.745455 
L 151.200005 350.836367 
" clip-path="url(#p660c5e3421)" style="fill: none; stroke: #000000; stroke-width: 0.72; stroke-linecap: square"/>
   </g>
   <g id="line2d_7">
    <path d="M 210.055552 138.109091 
L 282.109091 138.109091 
" clip-path="url(#p660c5e3421)" style="fill: none; stroke: #000000; stroke-width: 0.72; stroke-linecap: square"/>
   </g>
   <g id="line2d_8">
    <path d="M 282.109091 138.109091 
L 282.109091 350.836364 
" clip-path="url(#p660c5e3421)" style="fill: none; stroke: #000000; stroke-width: 0.72; stroke-linecap: square"/>
   </g>
  </g>
 </g>
 <defs>
  <clipPath id="p660c5e3421">
   <rect x="7.2" y="7.2" width="288" height="360.000004"/>
  </clipPath>
 </defs>
</svg>
