<?xml version="1.0" encoding="utf-8" standalone="no"?>
<!DOCTYPE svg PUBLIC "-//W3C//DTD SVG 1.1//EN"
  "http://www.w3.org/Graphics/SVG/1.1/DTD/svg11.dtd">
<svg xmlns:xlink="http://www.w3.org/1999/xlink" width="302.4pt" height="648.000006pt" viewBox="0 0 302.4 648.000006" xmlns="http://www.w3.org/2000/svg" version="1.1">
 <metadata>
  <rdf:RDF xmlns:dc="http://purl.org/dc/elements/1.1/" xmlns:cc="http://creativecommons.org/ns#" xmlns:rdf="http://www.w3.org/1999/02/22-rdf-syntax-ns#">
   <cc:Work>
    <dc:type rdf:resource="http://purl.org/dc/dcmitype/StillImage"/>
    <dc:date>2026-02-17T12:14:34.256163</dc:date>
    <dc:format>image/svg+xml</dc:format>
    <dc:creator>
     <cc:Agent>
      <dc:title>Matplotlib v3.10.8, https://matplotlib.org/</dc:title>
     </cc:Agent>
    </dc:creator>
   </cc:Work>
  </rdf:RDF>
 </metadata>
 <defs>
  <style type="text/css">*{stroke-linejoin: round; stroke-linecap: butt}</style>
 </defs>
 <g id="figure_1">
  <g id="patch_1">
   <path d="M 0 648.000006 
L 302.4 648.000006 
L 302.4 0 
L 0 0 
L 0 648.000006 
z
" style="fill: none"/>
  </g>
  <g id="axes_1">
   <g id="line2d_1">
    <path d="M 20.290909 140.727279 
L 282.109091 140.727279 
" clip-path="url(#p8645c7b779)" style="fill: none; stroke: #000000; stroke-width: 0.72; stroke-linecap: square"/>
   </g>
   <g id="line2d_2">
    <path d="M 151.2 612.000006 
L 151.2 245.454552 
" clip-path="url(#p8645c7b779)" style="fill: none; stroke: #000000; stroke-width: 0.72; stroke-linecap: square"/>
   </g>
   <g id="patch_2">
    <path d="M 282.109091 140.727279 
C 282.104625 147.614655 281.259924 154.475765 279.593709 161.158556 
C 277.886346 167.975725 275.386143 174.569378 272.14423 180.804671 
C 268.782591 187.262173 264.726135 193.333449 260.046931 198.910634 
C 255.163786 204.731042 249.70981 210.047593 243.766706 214.780644 
C 237.567537 219.721111 230.927058 224.080872 223.929194 227.804824 
C 216.674683 231.669971 209.102951 234.907711 201.29674 237.482663 
C 193.285502 240.130064 185.072679 242.12313 176.739097 243.442246 
C 168.292282 244.784025 159.752722 245.456884 151.2 245.454552 
C 142.647278 245.456884 134.107718 244.784025 125.660903 243.442246 
C 117.327321 242.12313 109.114498 240.130064 101.10326 237.482663 
C 93.297049 234.907711 85.725317 231.669971 78.470806 227.804824 
C 71.472942 224.080872 64.832463 219.721111 58.633294 214.780644 
C 52.69019 210.047593 47.236214 204.731042 42.353069 198.910634 
C 37.673865 193.333449 33.617409 187.262173 30.25577 180.804671 
C 27.013857 174.569378 24.513654 167.975725 22.806291 161.158556 
C 21.140076 154.475765 20.295375 147.614655 20.290909 140.727279 
" clip-path="url(#p8645c7b779)" style="fill: none; stroke: #000000; stroke-width: 0.72; stroke-linejoin: miter"/>
   </g>
   <g id="patch_3">
    <path d="M 282.109091 140.727279 
C 282.104625 133.839902 281.259924 126.978793 279.593709 120.296002 
C 277.886346 113.478833 275.386143 106.88518 272.14423 100.649887 
C 268.782591 94.192385 264.726135 88.121109 260.046931 82.543924 
C 255.163786 76.723516 249.70981 71.406965 243.766706 66.673914 
C 237.567537 61.733447 230.927058 57.373686 223.929194 53.649734 
C 216.674683 49.784587 209.102951 46.546847 201.29674 43.971895 
C 193.285502 41.324494 185.072679 39.331428 176.739097 38.012311 
C 168.292282 36.670532 159.752722 35.997674 151.2 36.000006 
C 142.647278 35.997674 134.107718 36.670532 125.660903 38.012311 
C 117.327321 39.331428 109.114498 41.324494 101.10326 43.971895 
C 93.297049 46.546847 85.725317 49.784587 78.470806 53.649734 
C 71.472942 57.373686 64.832463 61.733447 58.633294 66.673914 
C 52.69019 71.406965 47.236214 76.723516 42.353069 82.543924 
C 37.673865 88.121109 33.617409 94.192385 30.25577 100.649887 
C 27.013857 106.88518 24.513654 113.478833 22.806291 120.296002 
C 21.140076 126.978793 20.295375 133.839902 20.290909 140.727279 
" clip-path="url(#p8645c7b779)" style="fill: none; stroke: #000000; stroke-width: 0.72; stroke-linejoin: miter"/>
   </g>
  </g>
 </g>
 <defs>
  <clipPath id="p8645c7b779">
   <rect x="7.2" y="7.2" width="288" height="633.600006"/>
  </clipPath>
 </defs>
</svg>
