<?xml version="1.0" encoding="utf-8" standalone="no"?>
<!DOCTYPE svg PUBLIC "-//W3C//DTD SVG 1.1//EN"
  "http://www.w3.org/Graphics/SVG/1.1/DTD/svg11.dtd">
<svg xmlns:xlink="http://www.w3.org/1999/xlink" width="705.6pt" height="360pt" viewBox="0 0 705.6 360" xmlns="http://www.w3.org/2000/svg" version="1.1">
 <metadata>
  <rdf:RDF xmlns:dc="http://purl.org/dc/elements/1.1/" xmlns:cc="http://creativecommons.org/ns#" xmlns:rdf="http://www.w3.org/1999/02/22-rdf-syntax-ns#">
   <cc:Work>
    <dc:type rdf:resource="http://purl.org/dc/dcmitype/StillImage"/>
    <dc:date>2026-02-17T12:14:31.203170</dc:date>
    <dc:format>image/svg+xml</dc:format>
    <dc:creator>
     <cc:Agent>
      <dc:title>Matplotlib v3.10.8, https://matplotlib.org/</dc:title>
     </cc:Agent>
    </dc:creator>
   </cc:Work>
  </rdf:RDF>
 </metadata>
 <defs>
  <style type="text/css">*{stroke-linejoin: round; stroke-linecap: butt}</style>
 </defs>
 <g id="figure_1">
  <g id="patch_1">
   <path d="M 0 360 
L 705.6 360 
L 705.6 0 
L 0 0 
L 0 360 
z
" style="fill: none"/>
  </g>
  <g id="axes_1">
   <g id="patch_2">
    <path d="M 457.527273 180 
C 457.527273 237.839276 410.639276 284.727273 352.8 284.727273 
C 294.960724 284.727273 248.072727 237.839276 248.072727 180 
C 248.072727 122.160724 294.960724 75.272727 352.8 75.272727 
C 410.639276 75.272727 457.527273 122.160724 457.527273 180 
" clip-path="url(#p38aa954288)" style="fill: none; stroke: #000000; stroke-width: 0.72; stroke-linejoin: miter"/>
   </g>
   <g id="patch_3">
    <path d="M 422.975519 144.788547 
L 666.981818 22.909091 
L 666.981818 337.090909 
L 422.975519 215.128991 
" clip-path="url(#p38aa954288)" style="fill: none; stroke: #000000; stroke-width: 0.72; stroke-linejoin: miter"/>
   </g>
   <g id="patch_4">
    <path d="M 282.459556 144.788547 
L 38.618182 22.909091 
L 38.618182 337.090909 
L 282.459556 215.128991 
" clip-path="url(#p38aa954288)" style="fill: none; stroke: #000000; stroke-width: 0.72; stroke-linejoin: miter"/>
   </g>
   <g id="patch_5">
    <path d="M 248.072727 180 
C 248.072727 237.839276 294.960724 284.727273 352.8 284.727273 
C 410.639276 284.727273 457.527273 237.839276 457.527273 180 
C 457.527273 122.160724 410.639276 75.272727 352.8 75.272727 
C 294.960724 75.272727 248.072727 122.160724 248.072727 180 
" clip-path="url(#p38aa954288)"/>
   </g>
   <g id="patch_6">
    <path d="M 457.527273 180 
C 457.527273 237.839276 410.639276 284.727273 352.8 284.727273 
C 294.960724 284.727273 248.072727 237.839276 248.072727 180 
C 248.072727 122.160724 294.960724 75.272727 352.8 75.272727 
C 410.639276 75.272727 457.527273 122.160724 457.527273 180 
" clip-path="url(#p38aa954288)" style="fill: none; stroke: #000000; stroke-width: 0.72; stroke-linejoin: miter"/>
   </g>
   <g id="patch_7">
    <path d="M 422.975519 144.788547 
L 666.981818 22.909091 
L 666.981818 337.090909 
L 422.975519 215.128991 
" clip-path="url(#p38aa954288)" style="fill: none; stroke: #000000; stroke-width: 0.72; stroke-linejoin: miter"/>
   </g>
   <g id="patch_8">
    <path d="M 282.459556 144.788547 
L 38.618182 22.909091 
L 38.618182 337.090909 
L 282.459556 215.128991 
" clip-path="url(#p38aa954288)" style="fill: none; stroke: #000000; stroke-width: 0.72; stroke-linejoin: miter"/>
   </g>
   <g id="patch_9">
    <path d="M 248.072727 180 
C 248.072727 237.839276 294.960724 284.727273 352.8 284.727273 
C 410.639276 284.727273 457.527273 237.839276 457.527273 180 
C 457.527273 122.160724 410.639276 75.272727 352.8 75.272727 
C 294.960724 75.272727 248.072727 122.160724 248.072727 180 
" clip-path="url(#p38aa954288)"/>
   </g>
   <g id="patch_10">
    <path d="M 457.527273 180 
C 457.527273 237.839276 410.639276 284.727273 352.8 284.727273 
C 294.960724 284.727273 248.072727 237.839276 248.072727 180 
C 248.072727 122.160724 294.960724 75.272727 352.8 75.272727 
C 410.639276 75.272727 457.527273 122.160724 457.527273 180 
" clip-path="url(#p38aa954288)" style="fill: none; stroke: #000000; stroke-width: 0.72; stroke-linejoin: miter"/>
   </g>
   <g id="patch_11">
    <path d="M 422.975519 144.788547 
L 666.981818 22.909091 
L 666.981818 337.090909 
L 422.975519 215.128991 
" clip-path="url(#p38aa954288)" style="fill: none; stroke: #000000; stroke-width: 0.72; stroke-linejoin: miter"/>
   </g>
   <g id="patch_12">
    <path d="M 282.459556 144.788547 
L 38.618182 22.909091 
L 38.618182 337.090909 
L 282.459556 215.128991 
" clip-path="url(#p38aa954288)" style="fill: none; stroke: #000000; stroke-width: 0.72; stroke-linejoin: miter"/>
   </g>
   <g id="patch_13">
    <path d="M 248.072727 180 
C 248.072727 237.839276 294.960724 284.727273 352.8 284.727273 
C 410.639276 284.727273 457.527273 237.839276 457.527273 180 
C 457.527273 122.160724 410.639276 75.272727 352.8 75.272727 
C 294.960724 75.272727 248.072727 122.160724 248.072727 180 
" clip-path="url(#p38aa954288)"/>
   </g>
  </g>
 </g>
 <defs>
  <clipPath id="p38aa954288">
   <rect x="7.2" y="7.2" width="691.2" height="345.6"/>
  </clipPath>
 </defs>
</svg>
