<?xml version="1.0" encoding="utf-8" standalone="no"?>
<!DOCTYPE svg PUBLIC "-//W3C//DTD SVG 1.1//EN"
  "http://www.w3.org/Graphics/SVG/1.1/DTD/svg11.dtd">
<svg xmlns:xlink="http://www.w3.org/1999/xlink" width="302.4pt" height="475.2pt" viewBox="0 0 302.4 475.2" xmlns="http://www.w3.org/2000/svg" version="1.1">
 <metadata>
  <rdf:RDF xmlns:dc="http://purl.org/dc/elements/1.1/" xmlns:cc="http://creativecommons.org/ns#" xmlns:rdf="http://www.w3.org/1999/02/22-rdf-syntax-ns#">
   <cc:Work>
    <dc:type rdf:resource="http://purl.org/dc/dcmitype/StillImage"/>
    <dc:date>2026-02-17T12:14:35.195967</dc:date>
    <dc:format>image/svg+xml</dc:format>
    <dc:creator>
     <cc:Agent>
      <dc:title>Matplotlib v3.10.8, https://matplotlib.org/</dc:title>
     </cc:Agent>
    </dc:creator>
   </cc:Work>
  </rdf:RDF>
 </metadata>
 <defs>
  <style type="text/css">*{stroke-linejoin: round; stroke-linecap: butt}</style>
 </defs>
 <g id="figure_1">
  <g id="patch_1">
   <path d="M 0 475.2 
L 302.4 475.2 
L 302.4 0 
L 0 0 
L 0 475.2 
z
" style="fill: none"/>
  </g>
  <g id="axes_1">
   <g id="line2d_1">
    <path d="M 177.381818 447.054545 
L 177.381818 153.818182 
" clip-path="url(#pce00ae26ee)" style="fill: none; stroke: #000000; stroke-width: 0.72; stroke-linecap: square"/>
   </g>
   <g id="line2d_2">
    <path d="M 72.654545 153.818182 
L 282.109091 153.818182 
" clip-path="url(#pce00ae26ee)" style="fill: none; stroke: #000000; stroke-width: 0.72; stroke-linecap: square"/>
   </g>
   <g id="patch_2">
    <path d="M 282.109091 153.818182 
C 282.105518 148.308281 281.429758 142.819393 280.096786 137.47316 
C 278.730895 132.019425 276.730732 126.744502 274.137202 121.756268 
C 271.447891 116.590266 268.202726 111.733246 264.459363 107.271498 
C 260.552847 102.615172 256.189666 98.361931 251.435183 94.57549 
C 246.475848 90.623116 241.163464 87.135308 235.565173 84.156146 
C 229.761565 81.064028 223.704179 78.473836 217.45921 76.413875 
C 211.05022 74.295953 204.479962 72.701501 197.813095 71.646208 
C 191.055643 70.572785 184.223996 70.034498 177.381818 70.036364 
C 170.539641 70.034498 163.707993 70.572785 156.950541 71.646208 
C 150.283675 72.701501 143.713416 74.295953 137.304426 76.413875 
C 131.059458 78.473836 125.002072 81.064028 119.198463 84.156146 
C 113.600172 87.135308 108.287788 90.623116 103.328453 94.57549 
C 98.57397 98.361931 94.21079 102.615172 90.304273 107.271498 
C 86.56091 111.733246 83.315745 116.590266 80.626434 121.756268 
C 78.032904 126.744502 76.032741 132.019425 74.666851 137.47316 
C 73.333879 142.819393 72.658118 148.308281 72.654545 153.818182 
" clip-path="url(#pce00ae26ee)" style="fill: none; stroke: #000000; stroke-width: 0.72; stroke-linejoin: miter"/>
   </g>
   <g id="line2d_3">
    <path d="M 177.381818 70.036364 
L 177.381818 28.145455 
" clip-path="url(#pce00ae26ee)" style="fill: none; stroke: #000000; stroke-width: 0.72; stroke-linecap: square"/>
   </g>
   <g id="line2d_4">
    <path d="M 20.290909 28.145455 
L 177.381818 28.145455 
" clip-path="url(#pce00ae26ee)" style="fill: none; stroke: #000000; stroke-width: 0.72; stroke-linecap: square"/>
   </g>
   <g id="line2d_5">
    <path d="M 20.290909 28.145455 
L 20.290909 159.054545 
" clip-path="url(#pce00ae26ee)" style="fill: none; stroke: #000000; stroke-width: 0.72; stroke-linecap: square"/>
   </g>
   <g id="line2d_6">
    <path d="M 20.290909 159.054545 
L 177.381818 447.054545 
" clip-path="url(#pce00ae26ee)" style="fill: none; stroke: #000000; stroke-width: 0.72; stroke-linecap: square"/>
   </g>
  </g>
 </g>
 <defs>
  <clipPath id="pce00ae26ee">
   <rect x="7.2" y="7.2" width="288" height="460.8"/>
  </clipPath>
 </defs>
</svg>
