<?xml version="1.0" encoding="utf-8" standalone="no"?>
<!DOCTYPE svg PUBLIC "-//W3C//DTD SVG 1.1//EN"
  "http://www.w3.org/Graphics/SVG/1.1/DTD/svg11.dtd">
<svg xmlns:xlink="http://www.w3.org/1999/xlink" width="1166.4pt" height="158.4pt" viewBox="0 0 1166.4 158.4" xmlns="http://www.w3.org/2000/svg" version="1.1">
 <metadata>
  <rdf:RDF xmlns:dc="http://purl.org/dc/elements/1.1/" xmlns:cc="http://creativecommons.org/ns#" xmlns:rdf="http://www.w3.org/1999/02/22-rdf-syntax-ns#">
   <cc:Work>
    <dc:type rdf:resource="http://purl.org/dc/dcmitype/StillImage"/>
    <dc:date>2026-02-17T12:14:31.106921</dc:date>
    <dc:format>image/svg+xml</dc:format>
    <dc:creator>
     <cc:Agent>
      <dc:title>Matplotlib v3.10.8, https://matplotlib.org/</dc:title>
     </cc:Agent>
    </dc:creator>
   </cc:Work>
  </rdf:RDF>
 </metadata>
 <defs>
  <style type="text/css">*{stroke-linejoin: round; stroke-linecap: butt}</style>
 </defs>
 <g id="figure_1">
  <g id="patch_1">
   <path d="M 0 158.4 
L 1166.4 158.4 
L 1166.4 0 
L 0 0 
L 0 158.4 
z
" style="fill: none"/>
  </g>
  <g id="axes_1">
   <g id="patch_2">
    <path d="M 495.096281 68.977406 
Q 495.096281 79.729235 499.775833 89.366885 
Q 504.455386 99.004535 513.535946 104.575431 
Q 522.616507 110.146327 534.148261 110.146327 
Q 544.788673 110.146327 553.980651 105.104666 
Q 563.172629 100.063005 568.186435 90.258228 
Q 573.200242 80.453452 573.200242 68.030354 
Q 573.200242 55.774383 568.437126 46.108878 
Q 563.67401 36.443374 554.593449 31.039605 
Q 545.512889 25.635836 534.20397 25.635836 
Q 516.934193 25.635836 506.015237 37.139736 
Q 495.096281 48.643636 495.096281 68.977406 
M 856.146046 82.514683 
Q 856.368882 90.7039 860.630618 97.193994 
Q 864.892353 103.684088 872.385208 106.915207 
Q 879.878063 110.146327 890.964146 110.146327 
Q 899.710453 110.146327 906.701927 106.943062 
Q 913.693401 103.739797 917.425902 97.973919 
Q 921.158402 92.208042 921.158402 85.690094 
Q 921.158402 79.116437 917.760156 74.074776 
Q 914.361909 69.033115 907.231162 65.746286 
Q 902.328774 63.517928 889.153605 60.537499 
Q 875.978436 57.557069 872.858734 54.715912 
Q 869.683324 51.874755 869.683324 47.473748 
Q 869.683324 42.404232 874.167895 38.811004 
Q 878.652466 35.217777 888.457243 35.217777 
Q 897.872057 35.217777 902.690882 39.173113 
Q 907.509707 43.128449 908.345341 50.871994 
L 918.707208 50.092069 
Q 918.428663 42.905613 914.696163 37.223299 
Q 910.963662 31.540985 904.027897 28.616265 
Q 897.092132 25.691545 888.011571 25.691545 
Q 879.766645 25.691545 873.025861 28.476992 
Q 866.285077 31.26244 862.775413 36.638355 
Q 859.265748 42.01427 859.265748 48.197964 
Q 859.265748 53.824569 862.13476 58.364849 
Q 865.003771 62.905129 870.853212 65.969122 
Q 875.365637 68.364607 886.618847 71.066492 
Q 897.872057 73.768376 901.158886 75.049683 
Q 906.28411 76.999496 908.512468 79.868508 
Q 910.740827 82.737519 910.740827 86.581437 
Q 910.740827 90.369646 908.428905 93.572912 
Q 906.116983 96.776177 901.381721 98.614572 
Q 896.64646 100.452968 890.462765 100.452968 
Q 883.499146 100.452968 877.92825 98.029628 
Q 872.357354 95.606289 869.711178 91.678807 
Q 867.065002 87.751325 866.340786 81.62334 
L 856.146046 82.514683 
M 189.421221 108.753603 
L 200.228759 108.753603 
L 200.228759 36.721918 
L 227.247604 36.721918 
L 227.247604 27.084269 
L 162.513793 27.084269 
L 162.513793 36.721918 
L 189.421221 36.721918 
L 189.421221 108.753603 
M 64.131771 110.146327 
L 72.488115 110.146327 
L 77.334794 86.41431 
L 94.827408 86.41431 
L 90.036437 110.146327 
L 98.392781 110.146327 
L 103.239461 86.41431 
L 120.39782 86.41431 
L 120.39782 78.113675 
L 104.910729 78.113675 
L 109.088901 57.891323 
L 120.39782 57.891323 
L 120.39782 49.590688 
L 110.76017 49.590688 
L 115.606849 25.691545 
L 107.194797 25.691545 
L 102.348117 49.590688 
L 84.799795 49.590688 
L 89.646474 25.691545 
L 81.290131 25.691545 
L 76.443451 49.590688 
L 59.563636 49.590688 
L 59.563636 57.891323 
L 74.772182 57.891323 
L 70.649719 78.113675 
L 59.563636 78.113675 
L 59.563636 86.41431 
L 68.97845 86.41431 
L 64.131771 110.146327 
M 336.66 113.655991 
Q 336.437164 123.237932 342.955113 128.001048 
Q 349.473061 132.764164 360.057763 132.764164 
Q 368.971197 132.764164 375.071328 129.421627 
Q 381.171459 126.079089 383.984761 120.313212 
Q 386.798064 114.547335 386.798064 100.731513 
L 386.798064 49.590688 
L 377.550376 49.590688 
L 377.550376 56.721435 
Q 370.753883 48.253673 360.280599 48.253673 
Q 352.425636 48.253673 346.60405 52.1533 
Q 340.782463 56.052927 337.718471 63.211529 
Q 334.654478 70.37013 334.654478 78.837892 
Q 334.654478 91.149572 341.339553 99.951587 
Q 348.024628 108.753603 360.22489 108.753603 
Q 370.029667 108.753603 376.603324 101.010058 
Q 376.659033 110.814834 375.879108 113.878827 
Q 374.542093 118.892634 370.753883 121.678082 
Q 366.965674 124.463529 360.002054 124.463529 
Q 353.539815 124.463529 349.807315 121.678082 
Q 347.021867 119.61685 346.409068 115.104424 
L 336.66 113.655991 
M 595.093863 108.753603 
L 595.093863 101.344311 
Q 601.054721 110.090618 611.528006 110.090618 
Q 622.056999 110.090618 629.577709 101.789983 
Q 637.098418 93.489348 637.098418 78.280802 
Q 637.098418 71.874272 635.315731 66.247667 
Q 633.533045 60.621062 630.385489 56.637871 
Q 627.237932 52.654681 622.363398 50.454177 
Q 617.488864 48.253673 612.029386 48.253673 
Q 602.168901 48.253673 595.818079 56.220054 
L 595.818079 27.084269 
L 585.790467 27.084269 
L 585.790467 108.753603 
L 595.093863 108.753603 
M 1057.533935 89.701139 
Q 1055.249867 96.05196 1051.35024 98.948826 
Q 1047.450613 101.845692 1041.935426 101.845692 
Q 1034.526134 101.845692 1029.568037 96.664759 
Q 1024.60994 91.483826 1024.05285 81.734758 
L 1068.174346 81.734758 
Q 1068.230055 79.952071 1068.230055 79.060728 
Q 1068.230055 64.409271 1060.709345 56.331472 
Q 1053.188636 48.253673 1041.322627 48.253673 
Q 1029.066656 48.253673 1021.37882 56.498599 
Q 1013.690984 64.743525 1013.690984 79.673526 
Q 1013.690984 94.102147 1021.295257 102.096382 
Q 1028.899529 110.090618 1041.879717 110.090618 
Q 1052.185874 110.090618 1058.815241 105.076812 
Q 1065.444607 100.063005 1067.895801 90.982445 
L 1057.533935 89.701139 
M 715.14667 89.701139 
Q 712.862603 96.05196 708.962976 98.948826 
Q 705.063349 101.845692 699.548162 101.845692 
Q 692.13887 101.845692 687.180773 96.664759 
Q 682.222675 91.483826 681.665586 81.734758 
L 725.787082 81.734758 
Q 725.84279 79.952071 725.84279 79.060728 
Q 725.84279 64.409271 718.322081 56.331472 
Q 710.801371 48.253673 698.935363 48.253673 
Q 686.679392 48.253673 678.991556 56.498599 
Q 671.303719 64.743525 671.303719 79.673526 
Q 671.303719 94.102147 678.907992 102.096382 
Q 686.512265 110.090618 699.492453 110.090618 
Q 709.79861 110.090618 716.427976 105.076812 
Q 723.057343 100.063005 725.508537 90.982445 
L 715.14667 89.701139 
M 442.451314 89.701139 
Q 440.167247 96.05196 436.26762 98.948826 
Q 432.367992 101.845692 426.852806 101.845692 
Q 419.443514 101.845692 414.485417 96.664759 
Q 409.527319 91.483826 408.97023 81.734758 
L 453.091725 81.734758 
Q 453.147434 79.952071 453.147434 79.060728 
Q 453.147434 64.409271 445.626725 56.331472 
Q 438.106015 48.253673 426.240007 48.253673 
Q 413.984036 48.253673 406.2962 56.498599 
Q 398.608363 64.743525 398.608363 79.673526 
Q 398.608363 94.102147 406.212636 102.096382 
Q 413.816909 110.090618 426.797097 110.090618 
Q 437.103254 110.090618 443.73262 105.076812 
Q 450.361986 100.063005 452.813181 90.982445 
L 442.451314 89.701139 
M 275.65869 101.455729 
Q 276.104361 105.633901 277.664212 108.753603 
L 288.137497 108.753603 
Q 286.243392 105.355356 285.602739 101.650711 
Q 284.962086 97.946065 284.962086 83.963116 
L 284.962086 70.592966 
Q 284.962086 63.907891 284.460705 61.345279 
Q 283.569362 57.222816 281.341004 54.520931 
Q 279.112645 51.819046 274.377384 50.03636 
Q 269.642122 48.253673 262.065704 48.253673 
Q 254.433576 48.253673 248.639844 50.342759 
Q 242.846113 52.431845 239.78212 56.303618 
Q 236.718127 60.17539 235.381112 66.470503 
L 245.185889 67.807518 
Q 246.801449 61.512405 250.171841 59.033357 
Q 253.542233 56.554308 260.617271 56.554308 
Q 268.193689 56.554308 272.037607 59.952555 
Q 274.878764 62.459458 274.878764 68.587443 
Q 274.878764 69.144533 274.823055 71.205764 
Q 269.085033 73.211287 256.940479 74.65972 
Q 250.979621 75.383936 248.027046 76.163862 
Q 244.016001 77.278041 240.812736 79.45069 
Q 237.609471 81.62334 235.631802 85.216568 
Q 233.654134 88.809795 233.654134 93.155094 
Q 233.654134 100.564386 238.890777 105.327502 
Q 244.127419 110.090618 253.876487 110.090618 
Q 259.781636 110.090618 264.934715 108.140804 
Q 270.087794 106.190991 275.65869 101.455729 
M 776.70507 87.082818 
Q 775.6466 94.603527 771.691264 98.22461 
Q 767.735928 101.845692 761.830778 101.845692 
Q 754.477196 101.845692 749.909061 96.441923 
Q 745.340926 91.038154 745.340926 79.116437 
Q 745.340926 67.361846 750.076188 61.930223 
Q 754.811449 56.498599 762.387868 56.498599 
Q 767.401674 56.498599 770.939193 59.506883 
Q 774.476712 62.515167 775.869436 68.476025 
L 785.618504 66.971883 
Q 783.891526 58.002741 777.763541 53.128207 
Q 771.635555 48.253673 761.997905 48.253673 
Q 754.365778 48.253673 747.875684 51.846901 
Q 741.38559 55.440129 738.210179 62.626585 
Q 735.034769 69.81304 735.034769 79.394981 
Q 735.034769 94.213565 742.416206 102.152091 
Q 749.797643 110.090618 761.942196 110.090618 
Q 771.635555 110.090618 778.292776 104.324741 
Q 784.949996 98.558863 786.565556 88.364124 
L 776.70507 87.082818 
M 954.695196 108.753603 
L 1007.061617 108.753603 
L 1007.061617 100.118714 
L 979.708518 100.118714 
Q 973.803369 100.118714 967.062585 100.620095 
L 973.246279 93.767893 
L 1005.278931 56.220054 
L 1005.278931 49.590688 
L 956.923554 49.590688 
L 956.923554 57.724196 
L 981.045533 57.724196 
Q 985.947922 57.724196 992.354452 57.389942 
L 954.695196 100.620095 
L 954.695196 108.753603 
M 1087.059683 132.764164 
Q 1095.304609 122.29088 1101.070486 108.252222 
Q 1106.836364 94.213565 1106.836364 79.172146 
Q 1106.836364 65.913413 1102.546774 53.76886 
Q 1097.532967 39.674493 1087.059683 25.691545 
L 1079.873227 25.691545 
Q 1086.66972 37.390426 1088.84237 42.404232 
Q 1092.240616 50.092069 1094.134721 58.448413 
Q 1096.530206 68.75457 1096.530206 79.227854 
Q 1096.530206 106.023864 1079.873227 132.764164 
L 1087.059683 132.764164 
M 148.530844 132.764164 
L 155.7173 132.764164 
Q 139.060321 106.023864 139.060321 79.227854 
Q 139.060321 68.698861 141.455807 58.281286 
Q 143.40562 49.924942 146.803867 42.237105 
Q 148.976516 37.279008 155.7173 25.691545 
L 148.530844 25.691545 
Q 138.05756 39.674493 133.043754 53.76886 
Q 128.754164 65.913413 128.754164 79.172146 
Q 128.754164 94.213565 134.492187 108.252222 
Q 140.23021 122.29088 148.530844 132.764164 
M 487.297026 99.78446 
Q 484.567287 100.174423 482.896019 100.174423 
Q 480.66766 100.174423 479.469918 99.450207 
Q 478.272175 98.72599 477.74294 97.500393 
Q 477.213705 96.274796 477.213705 91.985206 
L 477.213705 57.389942 
L 487.297026 57.389942 
L 487.297026 49.590688 
L 477.213705 49.590688 
L 477.213705 28.922664 
L 467.241801 34.939232 
L 467.241801 49.590688 
L 459.888218 49.590688 
L 459.888218 57.389942 
L 467.241801 57.389942 
L 467.241801 91.428117 
Q 467.241801 100.452968 468.467398 103.26627 
Q 469.692995 106.079573 472.701279 107.806551 
Q 475.709563 109.533528 481.169041 109.533528 
Q 484.511578 109.533528 488.745459 108.642185 
L 487.297026 99.78446 
M 817.038357 99.78446 
Q 814.308618 100.174423 812.637349 100.174423 
Q 810.408991 100.174423 809.211248 99.450207 
Q 808.013506 98.72599 807.48427 97.500393 
Q 806.955035 96.274796 806.955035 91.985206 
L 806.955035 57.389942 
L 817.038357 57.389942 
L 817.038357 49.590688 
L 806.955035 49.590688 
L 806.955035 28.922664 
L 796.983132 34.939232 
L 796.983132 49.590688 
L 789.629549 49.590688 
L 789.629549 57.389942 
L 796.983132 57.389942 
L 796.983132 91.428117 
Q 796.983132 100.452968 798.208729 103.26627 
Q 799.434326 106.079573 802.44261 107.806551 
Q 805.450893 109.533528 810.910371 109.533528 
Q 814.252909 109.533528 818.48679 108.642185 
L 817.038357 99.78446 
M 300.393468 108.753603 
L 310.42108 108.753603 
L 310.42108 77.779422 
Q 310.42108 71.4286 312.092349 66.08054 
Q 313.206528 62.570876 315.824849 60.593208 
Q 318.443171 58.61554 321.729999 58.61554 
Q 325.40679 58.61554 329.083582 60.788189 
L 332.537537 51.484793 
Q 327.300895 48.253673 322.23138 48.253673 
Q 318.721715 48.253673 315.796995 50.259196 
Q 312.872275 52.264718 309.418319 58.559831 
L 309.418319 49.590688 
L 300.393468 49.590688 
L 300.393468 108.753603 
M 636.541329 131.705694 
Q 640.329538 132.764164 644.396292 132.764164 
Q 652.808345 132.764164 656.429427 127.193269 
Q 659.270584 122.903679 659.270584 111.984723 
L 659.270584 49.590688 
L 649.242971 49.590688 
L 649.242971 111.761887 
Q 649.242971 119.895395 647.738829 121.928772 
Q 646.234688 123.962149 643.170695 123.962149 
Q 641.443717 123.962149 638.435433 123.182223 
L 636.541329 131.705694 
M 934.695679 108.753603 
L 944.723292 108.753603 
L 944.723292 49.590688 
L 934.695679 49.590688 
L 934.695679 108.753603 
M 829.684291 108.753603 
L 841.104627 108.753603 
L 841.104627 97.333266 
L 829.684291 97.333266 
L 829.684291 108.753603 
M 649.242971 38.727441 
L 659.270584 38.727441 
L 659.270584 27.084269 
L 649.242971 27.084269 
L 649.242971 38.727441 
M 934.695679 38.616023 
L 944.723292 38.616023 
L 944.723292 27.084269 
L 934.695679 27.084269 
L 934.695679 38.616023 
M 506.238073 69.144533 
Q 506.238073 50.704867 514.510853 42.82205 
Q 522.783634 34.939232 534.259679 34.939232 
Q 542.337478 34.939232 548.827572 39.03384 
Q 555.317666 43.128449 558.688058 50.565595 
Q 562.05845 58.002741 562.05845 67.974645 
Q 562.05845 83.74028 554.175632 92.31946 
Q 546.292814 100.89864 534.092552 100.89864 
Q 522.115126 100.89864 514.176599 92.403023 
Q 506.238073 83.907407 506.238073 69.144533 
M 79.006063 78.113675 
L 83.128526 57.891323 
L 100.676848 57.891323 
L 96.498676 78.113675 
L 79.006063 78.113675 
M 344.960635 78.113675 
Q 344.960635 67.417555 349.640188 61.985932 
Q 354.31974 56.554308 361.004816 56.554308 
Q 367.801309 56.554308 372.620134 62.069495 
Q 377.438959 67.584682 377.438959 78.447929 
Q 377.438959 89.812557 372.759406 95.132762 
Q 368.079853 100.452968 361.171942 100.452968 
Q 354.208322 100.452968 349.584479 95.104908 
Q 344.960635 89.756848 344.960635 78.113675 
M 594.982445 78.726474 
Q 594.982445 67.918936 599.773415 62.208767 
Q 604.564386 56.498599 611.138043 56.498599 
Q 617.655991 56.498599 622.251981 62.013786 
Q 626.84797 67.528973 626.84797 79.116437 
Q 626.84797 90.425355 622.056999 96.135524 
Q 617.266029 101.845692 610.692371 101.845692 
Q 602.614572 101.845692 597.879311 94.102147 
Q 594.982445 89.366885 594.982445 78.726474 
M 1024.60994 73.489832 
Q 1025.11132 65.746286 1029.818727 61.122443 
Q 1034.526134 56.498599 1041.434045 56.498599 
Q 1049.066173 56.498599 1053.857143 62.292331 
Q 1056.976845 66.024831 1057.645353 73.489832 
L 1024.60994 73.489832 
M 682.222675 73.489832 
Q 682.724056 65.746286 687.431463 61.122443 
Q 692.13887 56.498599 699.046781 56.498599 
Q 706.678908 56.498599 711.469879 62.292331 
Q 714.589581 66.024831 715.258088 73.489832 
L 682.222675 73.489832 
M 409.527319 73.489832 
Q 410.0287 65.746286 414.736107 61.122443 
Q 419.443514 56.498599 426.351425 56.498599 
Q 433.983552 56.498599 438.774523 62.292331 
Q 441.894225 66.024831 442.562732 73.489832 
L 409.527319 73.489832 
M 274.823055 79.060728 
L 274.823055 82.737519 
Q 274.823055 89.366885 273.207496 92.765132 
Q 271.090555 97.166139 266.578129 99.700897 
Q 262.065704 102.235655 256.271972 102.235655 
Q 250.422531 102.235655 247.386393 99.561625 
Q 244.350255 96.887595 244.350255 92.87655 
Q 244.350255 90.258228 245.742979 88.113433 
Q 247.135703 85.968639 249.698315 84.854459 
Q 252.260927 83.74028 258.444621 82.848937 
Q 269.363577 81.289086 274.823055 79.060728 
" clip-path="url(#p138114724d)"/>
   </g>
   <g id="patch_3">
    <path d="M 495.096281 68.977406 
Q 495.096281 79.729235 499.775833 89.366885 
Q 504.455386 99.004535 513.535946 104.575431 
Q 522.616507 110.146327 534.148261 110.146327 
Q 544.788673 110.146327 553.980651 105.104666 
Q 563.172629 100.063005 568.186435 90.258228 
Q 573.200242 80.453452 573.200242 68.030354 
Q 573.200242 55.774383 568.437126 46.108878 
Q 563.67401 36.443374 554.593449 31.039605 
Q 545.512889 25.635836 534.20397 25.635836 
Q 516.934193 25.635836 506.015237 37.139736 
Q 495.096281 48.643636 495.096281 68.977406 
M 856.146046 82.514683 
Q 856.368882 90.7039 860.630618 97.193994 
Q 864.892353 103.684088 872.385208 106.915207 
Q 879.878063 110.146327 890.964146 110.146327 
Q 899.710453 110.146327 906.701927 106.943062 
Q 913.693401 103.739797 917.425902 97.973919 
Q 921.158402 92.208042 921.158402 85.690094 
Q 921.158402 79.116437 917.760156 74.074776 
Q 914.361909 69.033115 907.231162 65.746286 
Q 902.328774 63.517928 889.153605 60.537499 
Q 875.978436 57.557069 872.858734 54.715912 
Q 869.683324 51.874755 869.683324 47.473748 
Q 869.683324 42.404232 874.167895 38.811004 
Q 878.652466 35.217777 888.457243 35.217777 
Q 897.872057 35.217777 902.690882 39.173113 
Q 907.509707 43.128449 908.345341 50.871994 
L 918.707208 50.092069 
Q 918.428663 42.905613 914.696163 37.223299 
Q 910.963662 31.540985 904.027897 28.616265 
Q 897.092132 25.691545 888.011571 25.691545 
Q 879.766645 25.691545 873.025861 28.476992 
Q 866.285077 31.26244 862.775413 36.638355 
Q 859.265748 42.01427 859.265748 48.197964 
Q 859.265748 53.824569 862.13476 58.364849 
Q 865.003771 62.905129 870.853212 65.969122 
Q 875.365637 68.364607 886.618847 71.066492 
Q 897.872057 73.768376 901.158886 75.049683 
Q 906.28411 76.999496 908.512468 79.868508 
Q 910.740827 82.737519 910.740827 86.581437 
Q 910.740827 90.369646 908.428905 93.572912 
Q 906.116983 96.776177 901.381721 98.614572 
Q 896.64646 100.452968 890.462765 100.452968 
Q 883.499146 100.452968 877.92825 98.029628 
Q 872.357354 95.606289 869.711178 91.678807 
Q 867.065002 87.751325 866.340786 81.62334 
L 856.146046 82.514683 
M 189.421221 108.753603 
L 200.228759 108.753603 
L 200.228759 36.721918 
L 227.247604 36.721918 
L 227.247604 27.084269 
L 162.513793 27.084269 
L 162.513793 36.721918 
L 189.421221 36.721918 
L 189.421221 108.753603 
M 64.131771 110.146327 
L 72.488115 110.146327 
L 77.334794 86.41431 
L 94.827408 86.41431 
L 90.036437 110.146327 
L 98.392781 110.146327 
L 103.239461 86.41431 
L 120.39782 86.41431 
L 120.39782 78.113675 
L 104.910729 78.113675 
L 109.088901 57.891323 
L 120.39782 57.891323 
L 120.39782 49.590688 
L 110.76017 49.590688 
L 115.606849 25.691545 
L 107.194797 25.691545 
L 102.348117 49.590688 
L 84.799795 49.590688 
L 89.646474 25.691545 
L 81.290131 25.691545 
L 76.443451 49.590688 
L 59.563636 49.590688 
L 59.563636 57.891323 
L 74.772182 57.891323 
L 70.649719 78.113675 
L 59.563636 78.113675 
L 59.563636 86.41431 
L 68.97845 86.41431 
L 64.131771 110.146327 
M 336.66 113.655991 
Q 336.437164 123.237932 342.955113 128.001048 
Q 349.473061 132.764164 360.057763 132.764164 
Q 368.971197 132.764164 375.071328 129.421627 
Q 381.171459 126.079089 383.984761 120.313212 
Q 386.798064 114.547335 386.798064 100.731513 
L 386.798064 49.590688 
L 377.550376 49.590688 
L 377.550376 56.721435 
Q 370.753883 48.253673 360.280599 48.253673 
Q 352.425636 48.253673 346.60405 52.1533 
Q 340.782463 56.052927 337.718471 63.211529 
Q 334.654478 70.37013 334.654478 78.837892 
Q 334.654478 91.149572 341.339553 99.951587 
Q 348.024628 108.753603 360.22489 108.753603 
Q 370.029667 108.753603 376.603324 101.010058 
Q 376.659033 110.814834 375.879108 113.878827 
Q 374.542093 118.892634 370.753883 121.678082 
Q 366.965674 124.463529 360.002054 124.463529 
Q 353.539815 124.463529 349.807315 121.678082 
Q 347.021867 119.61685 346.409068 115.104424 
L 336.66 113.655991 
M 595.093863 108.753603 
L 595.093863 101.344311 
Q 601.054721 110.090618 611.528006 110.090618 
Q 622.056999 110.090618 629.577709 101.789983 
Q 637.098418 93.489348 637.098418 78.280802 
Q 637.098418 71.874272 635.315731 66.247667 
Q 633.533045 60.621062 630.385489 56.637871 
Q 627.237932 52.654681 622.363398 50.454177 
Q 617.488864 48.253673 612.029386 48.253673 
Q 602.168901 48.253673 595.818079 56.220054 
L 595.818079 27.084269 
L 585.790467 27.084269 
L 585.790467 108.753603 
L 595.093863 108.753603 
M 1057.533935 89.701139 
Q 1055.249867 96.05196 1051.35024 98.948826 
Q 1047.450613 101.845692 1041.935426 101.845692 
Q 1034.526134 101.845692 1029.568037 96.664759 
Q 1024.60994 91.483826 1024.05285 81.734758 
L 1068.174346 81.734758 
Q 1068.230055 79.952071 1068.230055 79.060728 
Q 1068.230055 64.409271 1060.709345 56.331472 
Q 1053.188636 48.253673 1041.322627 48.253673 
Q 1029.066656 48.253673 1021.37882 56.498599 
Q 1013.690984 64.743525 1013.690984 79.673526 
Q 1013.690984 94.102147 1021.295257 102.096382 
Q 1028.899529 110.090618 1041.879717 110.090618 
Q 1052.185874 110.090618 1058.815241 105.076812 
Q 1065.444607 100.063005 1067.895801 90.982445 
L 1057.533935 89.701139 
M 715.14667 89.701139 
Q 712.862603 96.05196 708.962976 98.948826 
Q 705.063349 101.845692 699.548162 101.845692 
Q 692.13887 101.845692 687.180773 96.664759 
Q 682.222675 91.483826 681.665586 81.734758 
L 725.787082 81.734758 
Q 725.84279 79.952071 725.84279 79.060728 
Q 725.84279 64.409271 718.322081 56.331472 
Q 710.801371 48.253673 698.935363 48.253673 
Q 686.679392 48.253673 678.991556 56.498599 
Q 671.303719 64.743525 671.303719 79.673526 
Q 671.303719 94.102147 678.907992 102.096382 
Q 686.512265 110.090618 699.492453 110.090618 
Q 709.79861 110.090618 716.427976 105.076812 
Q 723.057343 100.063005 725.508537 90.982445 
L 715.14667 89.701139 
M 442.451314 89.701139 
Q 440.167247 96.05196 436.26762 98.948826 
Q 432.367992 101.845692 426.852806 101.845692 
Q 419.443514 101.845692 414.485417 96.664759 
Q 409.527319 91.483826 408.97023 81.734758 
L 453.091725 81.734758 
Q 453.147434 79.952071 453.147434 79.060728 
Q 453.147434 64.409271 445.626725 56.331472 
Q 438.106015 48.253673 426.240007 48.253673 
Q 413.984036 48.253673 406.2962 56.498599 
Q 398.608363 64.743525 398.608363 79.673526 
Q 398.608363 94.102147 406.212636 102.096382 
Q 413.816909 110.090618 426.797097 110.090618 
Q 437.103254 110.090618 443.73262 105.076812 
Q 450.361986 100.063005 452.813181 90.982445 
L 442.451314 89.701139 
M 275.65869 101.455729 
Q 276.104361 105.633901 277.664212 108.753603 
L 288.137497 108.753603 
Q 286.243392 105.355356 285.602739 101.650711 
Q 284.962086 97.946065 284.962086 83.963116 
L 284.962086 70.592966 
Q 284.962086 63.907891 284.460705 61.345279 
Q 283.569362 57.222816 281.341004 54.520931 
Q 279.112645 51.819046 274.377384 50.03636 
Q 269.642122 48.253673 262.065704 48.253673 
Q 254.433576 48.253673 248.639844 50.342759 
Q 242.846113 52.431845 239.78212 56.303618 
Q 236.718127 60.17539 235.381112 66.470503 
L 245.185889 67.807518 
Q 246.801449 61.512405 250.171841 59.033357 
Q 253.542233 56.554308 260.617271 56.554308 
Q 268.193689 56.554308 272.037607 59.952555 
Q 274.878764 62.459458 274.878764 68.587443 
Q 274.878764 69.144533 274.823055 71.205764 
Q 269.085033 73.211287 256.940479 74.65972 
Q 250.979621 75.383936 248.027046 76.163862 
Q 244.016001 77.278041 240.812736 79.45069 
Q 237.609471 81.62334 235.631802 85.216568 
Q 233.654134 88.809795 233.654134 93.155094 
Q 233.654134 100.564386 238.890777 105.327502 
Q 244.127419 110.090618 253.876487 110.090618 
Q 259.781636 110.090618 264.934715 108.140804 
Q 270.087794 106.190991 275.65869 101.455729 
M 776.70507 87.082818 
Q 775.6466 94.603527 771.691264 98.22461 
Q 767.735928 101.845692 761.830778 101.845692 
Q 754.477196 101.845692 749.909061 96.441923 
Q 745.340926 91.038154 745.340926 79.116437 
Q 745.340926 67.361846 750.076188 61.930223 
Q 754.811449 56.498599 762.387868 56.498599 
Q 767.401674 56.498599 770.939193 59.506883 
Q 774.476712 62.515167 775.869436 68.476025 
L 785.618504 66.971883 
Q 783.891526 58.002741 777.763541 53.128207 
Q 771.635555 48.253673 761.997905 48.253673 
Q 754.365778 48.253673 747.875684 51.846901 
Q 741.38559 55.440129 738.210179 62.626585 
Q 735.034769 69.81304 735.034769 79.394981 
Q 735.034769 94.213565 742.416206 102.152091 
Q 749.797643 110.090618 761.942196 110.090618 
Q 771.635555 110.090618 778.292776 104.324741 
Q 784.949996 98.558863 786.565556 88.364124 
L 776.70507 87.082818 
M 954.695196 108.753603 
L 1007.061617 108.753603 
L 1007.061617 100.118714 
L 979.708518 100.118714 
Q 973.803369 100.118714 967.062585 100.620095 
L 973.246279 93.767893 
L 1005.278931 56.220054 
L 1005.278931 49.590688 
L 956.923554 49.590688 
L 956.923554 57.724196 
L 981.045533 57.724196 
Q 985.947922 57.724196 992.354452 57.389942 
L 954.695196 100.620095 
L 954.695196 108.753603 
M 1087.059683 132.764164 
Q 1095.304609 122.29088 1101.070486 108.252222 
Q 1106.836364 94.213565 1106.836364 79.172146 
Q 1106.836364 65.913413 1102.546774 53.76886 
Q 1097.532967 39.674493 1087.059683 25.691545 
L 1079.873227 25.691545 
Q 1086.66972 37.390426 1088.84237 42.404232 
Q 1092.240616 50.092069 1094.134721 58.448413 
Q 1096.530206 68.75457 1096.530206 79.227854 
Q 1096.530206 106.023864 1079.873227 132.764164 
L 1087.059683 132.764164 
M 148.530844 132.764164 
L 155.7173 132.764164 
Q 139.060321 106.023864 139.060321 79.227854 
Q 139.060321 68.698861 141.455807 58.281286 
Q 143.40562 49.924942 146.803867 42.237105 
Q 148.976516 37.279008 155.7173 25.691545 
L 148.530844 25.691545 
Q 138.05756 39.674493 133.043754 53.76886 
Q 128.754164 65.913413 128.754164 79.172146 
Q 128.754164 94.213565 134.492187 108.252222 
Q 140.23021 122.29088 148.530844 132.764164 
M 487.297026 99.78446 
Q 484.567287 100.174423 482.896019 100.174423 
Q 480.66766 100.174423 479.469918 99.450207 
Q 478.272175 98.72599 477.74294 97.500393 
Q 477.213705 96.274796 477.213705 91.985206 
L 477.213705 57.389942 
L 487.297026 57.389942 
L 487.297026 49.590688 
L 477.213705 49.590688 
L 477.213705 28.922664 
L 467.241801 34.939232 
L 467.241801 49.590688 
L 459.888218 49.590688 
L 459.888218 57.389942 
L 467.241801 57.389942 
L 467.241801 91.428117 
Q 467.241801 100.452968 468.467398 103.26627 
Q 469.692995 106.079573 472.701279 107.806551 
Q 475.709563 109.533528 481.169041 109.533528 
Q 484.511578 109.533528 488.745459 108.642185 
L 487.297026 99.78446 
M 817.038357 99.78446 
Q 814.308618 100.174423 812.637349 100.174423 
Q 810.408991 100.174423 809.211248 99.450207 
Q 808.013506 98.72599 807.48427 97.500393 
Q 806.955035 96.274796 806.955035 91.985206 
L 806.955035 57.389942 
L 817.038357 57.389942 
L 817.038357 49.590688 
L 806.955035 49.590688 
L 806.955035 28.922664 
L 796.983132 34.939232 
L 796.983132 49.590688 
L 789.629549 49.590688 
L 789.629549 57.389942 
L 796.983132 57.389942 
L 796.983132 91.428117 
Q 796.983132 100.452968 798.208729 103.26627 
Q 799.434326 106.079573 802.44261 107.806551 
Q 805.450893 109.533528 810.910371 109.533528 
Q 814.252909 109.533528 818.48679 108.642185 
L 817.038357 99.78446 
M 300.393468 108.753603 
L 310.42108 108.753603 
L 310.42108 77.779422 
Q 310.42108 71.4286 312.092349 66.08054 
Q 313.206528 62.570876 315.824849 60.593208 
Q 318.443171 58.61554 321.729999 58.61554 
Q 325.40679 58.61554 329.083582 60.788189 
L 332.537537 51.484793 
Q 327.300895 48.253673 322.23138 48.253673 
Q 318.721715 48.253673 315.796995 50.259196 
Q 312.872275 52.264718 309.418319 58.559831 
L 309.418319 49.590688 
L 300.393468 49.590688 
L 300.393468 108.753603 
M 636.541329 131.705694 
Q 640.329538 132.764164 644.396292 132.764164 
Q 652.808345 132.764164 656.429427 127.193269 
Q 659.270584 122.903679 659.270584 111.984723 
L 659.270584 49.590688 
L 649.242971 49.590688 
L 649.242971 111.761887 
Q 649.242971 119.895395 647.738829 121.928772 
Q 646.234688 123.962149 643.170695 123.962149 
Q 641.443717 123.962149 638.435433 123.182223 
L 636.541329 131.705694 
M 934.695679 108.753603 
L 944.723292 108.753603 
L 944.723292 49.590688 
L 934.695679 49.590688 
L 934.695679 108.753603 
M 829.684291 108.753603 
L 841.104627 108.753603 
L 841.104627 97.333266 
L 829.684291 97.333266 
L 829.684291 108.753603 
M 649.242971 38.727441 
L 659.270584 38.727441 
L 659.270584 27.084269 
L 649.242971 27.084269 
L 649.242971 38.727441 
M 934.695679 38.616023 
L 944.723292 38.616023 
L 944.723292 27.084269 
L 934.695679 27.084269 
L 934.695679 38.616023 
M 506.238073 69.144533 
Q 506.238073 50.704867 514.510853 42.82205 
Q 522.783634 34.939232 534.259679 34.939232 
Q 542.337478 34.939232 548.827572 39.03384 
Q 555.317666 43.128449 558.688058 50.565595 
Q 562.05845 58.002741 562.05845 67.974645 
Q 562.05845 83.74028 554.175632 92.31946 
Q 546.292814 100.89864 534.092552 100.89864 
Q 522.115126 100.89864 514.176599 92.403023 
Q 506.238073 83.907407 506.238073 69.144533 
M 79.006063 78.113675 
L 83.128526 57.891323 
L 100.676848 57.891323 
L 96.498676 78.113675 
L 79.006063 78.113675 
M 344.960635 78.113675 
Q 344.960635 67.417555 349.640188 61.985932 
Q 354.31974 56.554308 361.004816 56.554308 
Q 367.801309 56.554308 372.620134 62.069495 
Q 377.438959 67.584682 377.438959 78.447929 
Q 377.438959 89.812557 372.759406 95.132762 
Q 368.079853 100.452968 361.171942 100.452968 
Q 354.208322 100.452968 349.584479 95.104908 
Q 344.960635 89.756848 344.960635 78.113675 
M 594.982445 78.726474 
Q 594.982445 67.918936 599.773415 62.208767 
Q 604.564386 56.498599 611.138043 56.498599 
Q 617.655991 56.498599 622.251981 62.013786 
Q 626.84797 67.528973 626.84797 79.116437 
Q 626.84797 90.425355 622.056999 96.135524 
Q 617.266029 101.845692 610.692371 101.845692 
Q 602.614572 101.845692 597.879311 94.102147 
Q 594.982445 89.366885 594.982445 78.726474 
M 1024.60994 73.489832 
Q 1025.11132 65.746286 1029.818727 61.122443 
Q 1034.526134 56.498599 1041.434045 56.498599 
Q 1049.066173 56.498599 1053.857143 62.292331 
Q 1056.976845 66.024831 1057.645353 73.489832 
L 1024.60994 73.489832 
M 682.222675 73.489832 
Q 682.724056 65.746286 687.431463 61.122443 
Q 692.13887 56.498599 699.046781 56.498599 
Q 706.678908 56.498599 711.469879 62.292331 
Q 714.589581 66.024831 715.258088 73.489832 
L 682.222675 73.489832 
M 409.527319 73.489832 
Q 410.0287 65.746286 414.736107 61.122443 
Q 419.443514 56.498599 426.351425 56.498599 
Q 433.983552 56.498599 438.774523 62.292331 
Q 441.894225 66.024831 442.562732 73.489832 
L 409.527319 73.489832 
M 274.823055 79.060728 
L 274.823055 82.737519 
Q 274.823055 89.366885 273.207496 92.765132 
Q 271.090555 97.166139 266.578129 99.700897 
Q 262.065704 102.235655 256.271972 102.235655 
Q 250.422531 102.235655 247.386393 99.561625 
Q 244.350255 96.887595 244.350255 92.87655 
Q 244.350255 90.258228 245.742979 88.113433 
Q 247.135703 85.968639 249.698315 84.854459 
Q 252.260927 83.74028 258.444621 82.848937 
Q 269.363577 81.289086 274.823055 79.060728 
" clip-path="url(#p138114724d)"/>
   </g>
   <g id="patch_4">
    <path d="M 495.096281 68.977406 
Q 495.096281 79.729235 499.775833 89.366885 
Q 504.455386 99.004535 513.535946 104.575431 
Q 522.616507 110.146327 534.148261 110.146327 
Q 544.788673 110.146327 553.980651 105.104666 
Q 563.172629 100.063005 568.186435 90.258228 
Q 573.200242 80.453452 573.200242 68.030354 
Q 573.200242 55.774383 568.437126 46.108878 
Q 563.67401 36.443374 554.593449 31.039605 
Q 545.512889 25.635836 534.20397 25.635836 
Q 516.934193 25.635836 506.015237 37.139736 
Q 495.096281 48.643636 495.096281 68.977406 
M 856.146046 82.514683 
Q 856.368882 90.7039 860.630618 97.193994 
Q 864.892353 103.684088 872.385208 106.915207 
Q 879.878063 110.146327 890.964146 110.146327 
Q 899.710453 110.146327 906.701927 106.943062 
Q 913.693401 103.739797 917.425902 97.973919 
Q 921.158402 92.208042 921.158402 85.690094 
Q 921.158402 79.116437 917.760156 74.074776 
Q 914.361909 69.033115 907.231162 65.746286 
Q 902.328774 63.517928 889.153605 60.537499 
Q 875.978436 57.557069 872.858734 54.715912 
Q 869.683324 51.874755 869.683324 47.473748 
Q 869.683324 42.404232 874.167895 38.811004 
Q 878.652466 35.217777 888.457243 35.217777 
Q 897.872057 35.217777 902.690882 39.173113 
Q 907.509707 43.128449 908.345341 50.871994 
L 918.707208 50.092069 
Q 918.428663 42.905613 914.696163 37.223299 
Q 910.963662 31.540985 904.027897 28.616265 
Q 897.092132 25.691545 888.011571 25.691545 
Q 879.766645 25.691545 873.025861 28.476992 
Q 866.285077 31.26244 862.775413 36.638355 
Q 859.265748 42.01427 859.265748 48.197964 
Q 859.265748 53.824569 862.13476 58.364849 
Q 865.003771 62.905129 870.853212 65.969122 
Q 875.365637 68.364607 886.618847 71.066492 
Q 897.872057 73.768376 901.158886 75.049683 
Q 906.28411 76.999496 908.512468 79.868508 
Q 910.740827 82.737519 910.740827 86.581437 
Q 910.740827 90.369646 908.428905 93.572912 
Q 906.116983 96.776177 901.381721 98.614572 
Q 896.64646 100.452968 890.462765 100.452968 
Q 883.499146 100.452968 877.92825 98.029628 
Q 872.357354 95.606289 869.711178 91.678807 
Q 867.065002 87.751325 866.340786 81.62334 
L 856.146046 82.514683 
M 189.421221 108.753603 
L 200.228759 108.753603 
L 200.228759 36.721918 
L 227.247604 36.721918 
L 227.247604 27.084269 
L 162.513793 27.084269 
L 162.513793 36.721918 
L 189.421221 36.721918 
L 189.421221 108.753603 
M 64.131771 110.146327 
L 72.488115 110.146327 
L 77.334794 86.41431 
L 94.827408 86.41431 
L 90.036437 110.146327 
L 98.392781 110.146327 
L 103.239461 86.41431 
L 120.39782 86.41431 
L 120.39782 78.113675 
L 104.910729 78.113675 
L 109.088901 57.891323 
L 120.39782 57.891323 
L 120.39782 49.590688 
L 110.76017 49.590688 
L 115.606849 25.691545 
L 107.194797 25.691545 
L 102.348117 49.590688 
L 84.799795 49.590688 
L 89.646474 25.691545 
L 81.290131 25.691545 
L 76.443451 49.590688 
L 59.563636 49.590688 
L 59.563636 57.891323 
L 74.772182 57.891323 
L 70.649719 78.113675 
L 59.563636 78.113675 
L 59.563636 86.41431 
L 68.97845 86.41431 
L 64.131771 110.146327 
M 336.66 113.655991 
Q 336.437164 123.237932 342.955113 128.001048 
Q 349.473061 132.764164 360.057763 132.764164 
Q 368.971197 132.764164 375.071328 129.421627 
Q 381.171459 126.079089 383.984761 120.313212 
Q 386.798064 114.547335 386.798064 100.731513 
L 386.798064 49.590688 
L 377.550376 49.590688 
L 377.550376 56.721435 
Q 370.753883 48.253673 360.280599 48.253673 
Q 352.425636 48.253673 346.60405 52.1533 
Q 340.782463 56.052927 337.718471 63.211529 
Q 334.654478 70.37013 334.654478 78.837892 
Q 334.654478 91.149572 341.339553 99.951587 
Q 348.024628 108.753603 360.22489 108.753603 
Q 370.029667 108.753603 376.603324 101.010058 
Q 376.659033 110.814834 375.879108 113.878827 
Q 374.542093 118.892634 370.753883 121.678082 
Q 366.965674 124.463529 360.002054 124.463529 
Q 353.539815 124.463529 349.807315 121.678082 
Q 347.021867 119.61685 346.409068 115.104424 
L 336.66 113.655991 
M 595.093863 108.753603 
L 595.093863 101.344311 
Q 601.054721 110.090618 611.528006 110.090618 
Q 622.056999 110.090618 629.577709 101.789983 
Q 637.098418 93.489348 637.098418 78.280802 
Q 637.098418 71.874272 635.315731 66.247667 
Q 633.533045 60.621062 630.385489 56.637871 
Q 627.237932 52.654681 622.363398 50.454177 
Q 617.488864 48.253673 612.029386 48.253673 
Q 602.168901 48.253673 595.818079 56.220054 
L 595.818079 27.084269 
L 585.790467 27.084269 
L 585.790467 108.753603 
L 595.093863 108.753603 
M 1057.533935 89.701139 
Q 1055.249867 96.05196 1051.35024 98.948826 
Q 1047.450613 101.845692 1041.935426 101.845692 
Q 1034.526134 101.845692 1029.568037 96.664759 
Q 1024.60994 91.483826 1024.05285 81.734758 
L 1068.174346 81.734758 
Q 1068.230055 79.952071 1068.230055 79.060728 
Q 1068.230055 64.409271 1060.709345 56.331472 
Q 1053.188636 48.253673 1041.322627 48.253673 
Q 1029.066656 48.253673 1021.37882 56.498599 
Q 1013.690984 64.743525 1013.690984 79.673526 
Q 1013.690984 94.102147 1021.295257 102.096382 
Q 1028.899529 110.090618 1041.879717 110.090618 
Q 1052.185874 110.090618 1058.815241 105.076812 
Q 1065.444607 100.063005 1067.895801 90.982445 
L 1057.533935 89.701139 
M 715.14667 89.701139 
Q 712.862603 96.05196 708.962976 98.948826 
Q 705.063349 101.845692 699.548162 101.845692 
Q 692.13887 101.845692 687.180773 96.664759 
Q 682.222675 91.483826 681.665586 81.734758 
L 725.787082 81.734758 
Q 725.84279 79.952071 725.84279 79.060728 
Q 725.84279 64.409271 718.322081 56.331472 
Q 710.801371 48.253673 698.935363 48.253673 
Q 686.679392 48.253673 678.991556 56.498599 
Q 671.303719 64.743525 671.303719 79.673526 
Q 671.303719 94.102147 678.907992 102.096382 
Q 686.512265 110.090618 699.492453 110.090618 
Q 709.79861 110.090618 716.427976 105.076812 
Q 723.057343 100.063005 725.508537 90.982445 
L 715.14667 89.701139 
M 442.451314 89.701139 
Q 440.167247 96.05196 436.26762 98.948826 
Q 432.367992 101.845692 426.852806 101.845692 
Q 419.443514 101.845692 414.485417 96.664759 
Q 409.527319 91.483826 408.97023 81.734758 
L 453.091725 81.734758 
Q 453.147434 79.952071 453.147434 79.060728 
Q 453.147434 64.409271 445.626725 56.331472 
Q 438.106015 48.253673 426.240007 48.253673 
Q 413.984036 48.253673 406.2962 56.498599 
Q 398.608363 64.743525 398.608363 79.673526 
Q 398.608363 94.102147 406.212636 102.096382 
Q 413.816909 110.090618 426.797097 110.090618 
Q 437.103254 110.090618 443.73262 105.076812 
Q 450.361986 100.063005 452.813181 90.982445 
L 442.451314 89.701139 
M 275.65869 101.455729 
Q 276.104361 105.633901 277.664212 108.753603 
L 288.137497 108.753603 
Q 286.243392 105.355356 285.602739 101.650711 
Q 284.962086 97.946065 284.962086 83.963116 
L 284.962086 70.592966 
Q 284.962086 63.907891 284.460705 61.345279 
Q 283.569362 57.222816 281.341004 54.520931 
Q 279.112645 51.819046 274.377384 50.03636 
Q 269.642122 48.253673 262.065704 48.253673 
Q 254.433576 48.253673 248.639844 50.342759 
Q 242.846113 52.431845 239.78212 56.303618 
Q 236.718127 60.17539 235.381112 66.470503 
L 245.185889 67.807518 
Q 246.801449 61.512405 250.171841 59.033357 
Q 253.542233 56.554308 260.617271 56.554308 
Q 268.193689 56.554308 272.037607 59.952555 
Q 274.878764 62.459458 274.878764 68.587443 
Q 274.878764 69.144533 274.823055 71.205764 
Q 269.085033 73.211287 256.940479 74.65972 
Q 250.979621 75.383936 248.027046 76.163862 
Q 244.016001 77.278041 240.812736 79.45069 
Q 237.609471 81.62334 235.631802 85.216568 
Q 233.654134 88.809795 233.654134 93.155094 
Q 233.654134 100.564386 238.890777 105.327502 
Q 244.127419 110.090618 253.876487 110.090618 
Q 259.781636 110.090618 264.934715 108.140804 
Q 270.087794 106.190991 275.65869 101.455729 
M 776.70507 87.082818 
Q 775.6466 94.603527 771.691264 98.22461 
Q 767.735928 101.845692 761.830778 101.845692 
Q 754.477196 101.845692 749.909061 96.441923 
Q 745.340926 91.038154 745.340926 79.116437 
Q 745.340926 67.361846 750.076188 61.930223 
Q 754.811449 56.498599 762.387868 56.498599 
Q 767.401674 56.498599 770.939193 59.506883 
Q 774.476712 62.515167 775.869436 68.476025 
L 785.618504 66.971883 
Q 783.891526 58.002741 777.763541 53.128207 
Q 771.635555 48.253673 761.997905 48.253673 
Q 754.365778 48.253673 747.875684 51.846901 
Q 741.38559 55.440129 738.210179 62.626585 
Q 735.034769 69.81304 735.034769 79.394981 
Q 735.034769 94.213565 742.416206 102.152091 
Q 749.797643 110.090618 761.942196 110.090618 
Q 771.635555 110.090618 778.292776 104.324741 
Q 784.949996 98.558863 786.565556 88.364124 
L 776.70507 87.082818 
M 954.695196 108.753603 
L 1007.061617 108.753603 
L 1007.061617 100.118714 
L 979.708518 100.118714 
Q 973.803369 100.118714 967.062585 100.620095 
L 973.246279 93.767893 
L 1005.278931 56.220054 
L 1005.278931 49.590688 
L 956.923554 49.590688 
L 956.923554 57.724196 
L 981.045533 57.724196 
Q 985.947922 57.724196 992.354452 57.389942 
L 954.695196 100.620095 
L 954.695196 108.753603 
M 1087.059683 132.764164 
Q 1095.304609 122.29088 1101.070486 108.252222 
Q 1106.836364 94.213565 1106.836364 79.172146 
Q 1106.836364 65.913413 1102.546774 53.76886 
Q 1097.532967 39.674493 1087.059683 25.691545 
L 1079.873227 25.691545 
Q 1086.66972 37.390426 1088.84237 42.404232 
Q 1092.240616 50.092069 1094.134721 58.448413 
Q 1096.530206 68.75457 1096.530206 79.227854 
Q 1096.530206 106.023864 1079.873227 132.764164 
L 1087.059683 132.764164 
M 148.530844 132.764164 
L 155.7173 132.764164 
Q 139.060321 106.023864 139.060321 79.227854 
Q 139.060321 68.698861 141.455807 58.281286 
Q 143.40562 49.924942 146.803867 42.237105 
Q 148.976516 37.279008 155.7173 25.691545 
L 148.530844 25.691545 
Q 138.05756 39.674493 133.043754 53.76886 
Q 128.754164 65.913413 128.754164 79.172146 
Q 128.754164 94.213565 134.492187 108.252222 
Q 140.23021 122.29088 148.530844 132.764164 
M 487.297026 99.78446 
Q 484.567287 100.174423 482.896019 100.174423 
Q 480.66766 100.174423 479.469918 99.450207 
Q 478.272175 98.72599 477.74294 97.500393 
Q 477.213705 96.274796 477.213705 91.985206 
L 477.213705 57.389942 
L 487.297026 57.389942 
L 487.297026 49.590688 
L 477.213705 49.590688 
L 477.213705 28.922664 
L 467.241801 34.939232 
L 467.241801 49.590688 
L 459.888218 49.590688 
L 459.888218 57.389942 
L 467.241801 57.389942 
L 467.241801 91.428117 
Q 467.241801 100.452968 468.467398 103.26627 
Q 469.692995 106.079573 472.701279 107.806551 
Q 475.709563 109.533528 481.169041 109.533528 
Q 484.511578 109.533528 488.745459 108.642185 
L 487.297026 99.78446 
M 817.038357 99.78446 
Q 814.308618 100.174423 812.637349 100.174423 
Q 810.408991 100.174423 809.211248 99.450207 
Q 808.013506 98.72599 807.48427 97.500393 
Q 806.955035 96.274796 806.955035 91.985206 
L 806.955035 57.389942 
L 817.038357 57.389942 
L 817.038357 49.590688 
L 806.955035 49.590688 
L 806.955035 28.922664 
L 796.983132 34.939232 
L 796.983132 49.590688 
L 789.629549 49.590688 
L 789.629549 57.389942 
L 796.983132 57.389942 
L 796.983132 91.428117 
Q 796.983132 100.452968 798.208729 103.26627 
Q 799.434326 106.079573 802.44261 107.806551 
Q 805.450893 109.533528 810.910371 109.533528 
Q 814.252909 109.533528 818.48679 108.642185 
L 817.038357 99.78446 
M 300.393468 108.753603 
L 310.42108 108.753603 
L 310.42108 77.779422 
Q 310.42108 71.4286 312.092349 66.08054 
Q 313.206528 62.570876 315.824849 60.593208 
Q 318.443171 58.61554 321.729999 58.61554 
Q 325.40679 58.61554 329.083582 60.788189 
L 332.537537 51.484793 
Q 327.300895 48.253673 322.23138 48.253673 
Q 318.721715 48.253673 315.796995 50.259196 
Q 312.872275 52.264718 309.418319 58.559831 
L 309.418319 49.590688 
L 300.393468 49.590688 
L 300.393468 108.753603 
M 636.541329 131.705694 
Q 640.329538 132.764164 644.396292 132.764164 
Q 652.808345 132.764164 656.429427 127.193269 
Q 659.270584 122.903679 659.270584 111.984723 
L 659.270584 49.590688 
L 649.242971 49.590688 
L 649.242971 111.761887 
Q 649.242971 119.895395 647.738829 121.928772 
Q 646.234688 123.962149 643.170695 123.962149 
Q 641.443717 123.962149 638.435433 123.182223 
L 636.541329 131.705694 
M 934.695679 108.753603 
L 944.723292 108.753603 
L 944.723292 49.590688 
L 934.695679 49.590688 
L 934.695679 108.753603 
M 829.684291 108.753603 
L 841.104627 108.753603 
L 841.104627 97.333266 
L 829.684291 97.333266 
L 829.684291 108.753603 
M 649.242971 38.727441 
L 659.270584 38.727441 
L 659.270584 27.084269 
L 649.242971 27.084269 
L 649.242971 38.727441 
M 934.695679 38.616023 
L 944.723292 38.616023 
L 944.723292 27.084269 
L 934.695679 27.084269 
L 934.695679 38.616023 
M 506.238073 69.144533 
Q 506.238073 50.704867 514.510853 42.82205 
Q 522.783634 34.939232 534.259679 34.939232 
Q 542.337478 34.939232 548.827572 39.03384 
Q 555.317666 43.128449 558.688058 50.565595 
Q 562.05845 58.002741 562.05845 67.974645 
Q 562.05845 83.74028 554.175632 92.31946 
Q 546.292814 100.89864 534.092552 100.89864 
Q 522.115126 100.89864 514.176599 92.403023 
Q 506.238073 83.907407 506.238073 69.144533 
M 79.006063 78.113675 
L 83.128526 57.891323 
L 100.676848 57.891323 
L 96.498676 78.113675 
L 79.006063 78.113675 
M 344.960635 78.113675 
Q 344.960635 67.417555 349.640188 61.985932 
Q 354.31974 56.554308 361.004816 56.554308 
Q 367.801309 56.554308 372.620134 62.069495 
Q 377.438959 67.584682 377.438959 78.447929 
Q 377.438959 89.812557 372.759406 95.132762 
Q 368.079853 100.452968 361.171942 100.452968 
Q 354.208322 100.452968 349.584479 95.104908 
Q 344.960635 89.756848 344.960635 78.113675 
M 594.982445 78.726474 
Q 594.982445 67.918936 599.773415 62.208767 
Q 604.564386 56.498599 611.138043 56.498599 
Q 617.655991 56.498599 622.251981 62.013786 
Q 626.84797 67.528973 626.84797 79.116437 
Q 626.84797 90.425355 622.056999 96.135524 
Q 617.266029 101.845692 610.692371 101.845692 
Q 602.614572 101.845692 597.879311 94.102147 
Q 594.982445 89.366885 594.982445 78.726474 
M 1024.60994 73.489832 
Q 1025.11132 65.746286 1029.818727 61.122443 
Q 1034.526134 56.498599 1041.434045 56.498599 
Q 1049.066173 56.498599 1053.857143 62.292331 
Q 1056.976845 66.024831 1057.645353 73.489832 
L 1024.60994 73.489832 
M 682.222675 73.489832 
Q 682.724056 65.746286 687.431463 61.122443 
Q 692.13887 56.498599 699.046781 56.498599 
Q 706.678908 56.498599 711.469879 62.292331 
Q 714.589581 66.024831 715.258088 73.489832 
L 682.222675 73.489832 
M 409.527319 73.489832 
Q 410.0287 65.746286 414.736107 61.122443 
Q 419.443514 56.498599 426.351425 56.498599 
Q 433.983552 56.498599 438.774523 62.292331 
Q 441.894225 66.024831 442.562732 73.489832 
L 409.527319 73.489832 
M 274.823055 79.060728 
L 274.823055 82.737519 
Q 274.823055 89.366885 273.207496 92.765132 
Q 271.090555 97.166139 266.578129 99.700897 
Q 262.065704 102.235655 256.271972 102.235655 
Q 250.422531 102.235655 247.386393 99.561625 
Q 244.350255 96.887595 244.350255 92.87655 
Q 244.350255 90.258228 245.742979 88.113433 
Q 247.135703 85.968639 249.698315 84.854459 
Q 252.260927 83.74028 258.444621 82.848937 
Q 269.363577 81.289086 274.823055 79.060728 
" clip-path="url(#p138114724d)"/>
   </g>
  </g>
 </g>
 <defs>
  <clipPath id="p138114724d">
   <rect x="7.2" y="7.2" width="1152" height="144"/>
  </clipPath>
 </defs>
</svg>
